<?xml version="1.0" encoding="utf-8"?>
<!-- Generator: Adobe Illustrator 22.1.0, SVG Export Plug-In . SVG Version: 6.00 Build 0)  -->
<svg version="1.1" id="_x30_8eab577-e723-4d12-b868-9f4caa103b0f"
	 xmlns="http://www.w3.org/2000/svg" xmlns:xlink="http://www.w3.org/1999/xlink" x="0px" y="0px" viewBox="0 0 1109.8 758.4"
	 style="enable-background:new 0 0 1109.8 758.4;" xml:space="preserve">
<style type="text/css">
	.st0{fill:#172B4D;}
	.st1{fill:#6C63FF;}
	.st2{opacity:0.88;fill:#172B4D;}
	.st3{fill:#3F3D56;}
	.st4{fill:#E7EFFD;}
	.st5{opacity:0.3;enable-background:new    ;}
	.st6{opacity:0.4;enable-background:new    ;}
	.st7{fill:#F5C26B;}
	.st8{opacity:0.4;fill:#F5C26B;enable-background:new    ;}
	.st9{fill:url(#SVGID_1_);}
	.st10{fill:#1AAFD0;}
	.st11{fill:#FBBEBE;}
	.st12{opacity:0.1;enable-background:new    ;}
	.st13{fill:#F2545B;}
	.st14{opacity:0.2;}
	.st15{opacity:0.1;fill:#359676;enable-background:new    ;}
	.st16{fill:#49C39E;}
	.st17{fill:#D4DFEC;}
	.st18{opacity:0.1;fill:#F5C26B;enable-background:new    ;}
	.st19{opacity:6.000000e-02;fill:#F2545B;}
	.st20{opacity:0.1;fill:#F5C26B;}
	.st21{opacity:0.1;fill:#F2545B;}
	.st22{opacity:0.54;fill:#6A78D1;}
	.st23{opacity:0.54;fill:#F2545B;}
	.st24{opacity:0.54;fill:#49C39E;}
	.st25{opacity:0.54;fill:#F5C26B;}
</style>
<title>working late</title>
<path class="st0" d="M1106.8,546c0,44.4-244.2,207.8-549.3,207.8S6.3,563.8,6.3,519.4S252.4,593,557.5,593S1106.8,501.5,1106.8,546z
	"/>
<path class="st1" d="M1109.8,528.2c0,0.6,0,1.2,0,1.8c-0.7,18.4-10.9,36.8-29.7,49.7c-19.9,13.7-46.5,20.9-73.9,25.5
	c-4.3,0.7-8.6,1.4-12.9,2c-2.2,0.3-4.4,0.6-6.5,0.9c-60.9,8-123.1,9.5-185.1,11c-64.8,1.6-129.6,3.2-194.4,4l-12.9,0.2
	c-98.4,1.1-196.7,0.2-294.7-5.4c-30.4-1.7-61.1-4-91.3-7.8c-4.3-0.5-8.6-1.1-12.9-1.7c-40-5.7-78.8-14.5-114.2-28.8
	c-8.3-3.3-16.5-7.1-24.5-11.3c-22.2-11.8-40.9-26.7-50.2-45c-5.4-10.7-7.6-22.8-6.4-34.7c0.4-4.3,1.1-8.6,2.2-12.9
	c2.8-10.4,7-20.5,12.6-29.7c14.4-24.4,36.1-46.3,54.8-69.2c39.9-48.9,65.9-110.6,29.1-160.7c-10.6-14.4-25.8-27-34.5-42.1
	c-4.6-8.1-7.5-17.1-8.4-26.4c-0.5-4.3-0.6-8.6-0.5-12.9c0.4-10,1.7-20,3.8-29.8c6-30.7,17.2-63.8,51.8-83
	c23.6-13.1,53.8-17.1,84.3-16.4c4.3,0.1,8.6,0.3,12.9,0.6c11.7,0.8,23.3,2.2,34.6,4c69.4,11.1,133.5,34.3,198.2,55.2
	c49.3,15.9,100.3,30.8,153.2,37.9c4.3,0.6,8.6,1.1,12.9,1.6c12.4,1.4,24.9,2.3,37.5,2.6c62.8,1.8,136.1-11.8,177.8-47.1
	c40.3-34.1,115.8-36.9,170.7-16.5l0.8,0.3c4.1,1.6,8.1,3.3,12,5.1c40.4,19,67.5,51.5,71.3,85.6c0.5,4.2,0.6,8.5,0.3,12.7
	c0,0,0,0.1,0,0.1c-2.6,41.9-36.9,77.1-71.6,112.3c-4.3,4.4-8.6,8.7-12.9,13.1c-11.3,11.6-22.2,23.3-31.7,35.3
	c-4.3,5.4-8.3,11.2-11.9,17.1c-3.3,5.5-6.2,11.2-8.5,17.2c-2.4,6.2-4,12.7-4.7,19.3c-1,9.5,0.8,19.1,5,27.6l0.1,0.2
	c9.3,18.4,28.9,31.4,51.7,43c4.2,2.1,8.5,4.2,12.9,6.3c24.7,11.6,51.2,22.5,71.4,36.8c5.4,3.8,10.5,8.1,15.2,12.8
	c1.9,2,3.7,4,5.4,6.2c7.4,9.3,11.5,20.8,11.7,32.7C1109.8,527.7,1109.8,528,1109.8,528.2z"/>
<path class="st2" d="M1109.8,528.2c0,0.6,0,1.2,0,1.8c-0.7,18.4-10.9,36.8-29.7,49.7c-19.9,13.7-46.5,20.9-73.9,25.5
	c-4.3,0.7-8.6,1.4-12.9,2c-2.2,0.3-4.4,0.6-6.5,0.9c-60.9,8-123.1,9.5-185.1,11c-64.8,1.6-129.6,3.2-194.4,4l-12.9,0.2
	c-98.4,1.1-196.7,0.2-294.7-5.4c-30.4-1.7-61.1-4-91.3-7.8c-4.3-0.5-8.6-1.1-12.9-1.7c-40-5.7-78.8-14.5-114.2-28.8
	c-8.3-3.3-16.5-7.1-24.5-11.3c-22.2-11.8-40.9-26.7-50.2-45c-5.4-10.7-7.6-22.8-6.4-34.7c0.4-4.3,1.1-8.6,2.2-12.9
	c2.8-10.4,7-20.5,12.6-29.7c14.4-24.4,36.1-46.3,54.8-69.2c39.9-48.9,65.9-110.6,29.1-160.7c-10.6-14.4-25.8-27-34.5-42.1
	c-4.6-8.1-7.5-17.1-8.4-26.4c-0.5-4.3-0.6-8.6-0.5-12.9c0.4-10,1.7-20,3.8-29.8c6-30.7,17.2-63.8,51.8-83
	c23.6-13.1,53.8-17.1,84.3-16.4c4.3,0.1,8.6,0.3,12.9,0.6c11.7,0.8,23.3,2.2,34.6,4c69.4,11.1,133.5,34.3,198.2,55.2
	c49.3,15.9,100.3,30.8,153.2,37.9c4.3,0.6,8.6,1.1,12.9,1.6c12.4,1.4,24.9,2.3,37.5,2.6c62.8,1.8,136.1-11.8,177.8-47.1
	c40.3-34.1,115.8-36.9,170.7-16.5l0.8,0.3c4.1,1.6,8.1,3.3,12,5.1c40.4,19,67.5,51.5,71.3,85.6c0.5,4.2,0.6,8.5,0.3,12.7
	c0,0,0,0.1,0,0.1c-2.6,41.9-36.9,77.1-71.6,112.3c-4.3,4.4-8.6,8.7-12.9,13.1c-11.3,11.6-22.2,23.3-31.7,35.3
	c-4.3,5.4-8.3,11.2-11.9,17.1c-3.3,5.5-6.2,11.2-8.5,17.2c-2.4,6.2-4,12.7-4.7,19.3c-1,9.5,0.8,19.1,5,27.6l0.1,0.2
	c9.3,18.4,28.9,31.4,51.7,43c4.2,2.1,8.5,4.2,12.9,6.3c24.7,11.6,51.2,22.5,71.4,36.8c5.4,3.8,10.5,8.1,15.2,12.8
	c1.9,2,3.7,4,5.4,6.2c7.4,9.3,11.5,20.8,11.7,32.7C1109.8,527.7,1109.8,528,1109.8,528.2z"/>
<path class="st3" d="M1006.2,49.1v210.8c-4.3,4.4-8.6,8.7-12.9,13.1V43.7L1006.2,49.1z"/>
<path class="st3" d="M1077.8,147.4c0,0,0,0.1,0,0.1H56.2c-0.5-4.3-0.6-8.6-0.5-12.9h1021.8C1077.9,138.9,1078.1,143.2,1077.8,147.4z
	"/>
<circle class="st4" cx="241.3" cy="77.2" r="3.8"/>
<circle class="st4" cx="121.2" cy="69.7" r="3.8"/>
<circle class="st4" cx="283.7" cy="77.2" r="1.6"/>
<circle class="st4" cx="163" cy="73.4" r="1.6"/>
<circle class="st4" cx="161.4" cy="185.9" r="1.6"/>
<circle class="st4" cx="904" cy="100.9" r="1.6"/>
<circle class="st4" cx="358.7" cy="102.4" r="1.6"/>
<circle class="st4" cx="824.7" cy="99.2" r="1.6"/>
<circle class="st4" cx="1027.3" cy="104" r="1.6"/>
<path class="st1" d="M1109.8,528.2c0,0.6,0,1.2,0,1.8c-0.5,18.6-10.8,37.1-29.7,50.2c-19.9,13.7-46.5,20.9-73.9,25.5
	c-4.3,0.7-8.6,1.4-12.9,2c-2.2,0.3-4.4,0.6-6.5,0.9c-15,2-30.1,3.5-45.2,4.8c-20.3,1.7-40.7,2.9-61.1,3.8
	c-26.2,1.2-52.5,1.8-78.7,2.5c-51.3,1.3-102.6,2.5-154,3.4l-18.2,0.3l-22.2,0.3l-12.9,0.2c-81,0.9-161.9,0.4-242.6-2.9
	c-5.4-0.2-10.7-0.4-16.1-0.7c-12-0.5-24-1.1-36-1.8c-24-1.4-48.3-3.1-72.3-5.6c-6.4-0.7-12.7-1.4-19-2.2c-4.3-0.5-8.6-1.1-12.9-1.7
	c-4.8-0.7-9.5-1.4-14.2-2.2c-35-5.7-68.8-14-99.9-26.6c-8.4-3.3-16.5-7.1-24.5-11.3v-176c4.4-5.1,8.8-10.3,13.1-15.5
	c5.1-6.3,10-12.7,14.5-19.3h96.8v-59.7h170.5v131.1h277.7v-104h320.4c-3.3,5.3-6.1,10.9-8.4,16.6v0.6h-0.4c-2.4,6.2-4,12.7-4.7,19.3
	c-1,9.5,0.8,19.1,5,27.6v0.4l0.1,0.2c9.3,18.4,28.9,31.4,51.7,43c4.2,2.1,8.5,4.2,12.9,6.3c24.4,11.5,50.7,22.2,70.8,36.4l0.6,0.4
	c5.3,3.7,10.3,7.8,14.8,12.4c0.2,0.1,0.3,0.3,0.4,0.4c1.9,2,3.7,4,5.4,6.2c7.3,9.2,11.4,20.5,11.7,32.3
	C1109.8,527.7,1109.8,528,1109.8,528.2z"/>
<path class="st5" d="M1109.8,528.2c0,0.6,0,1.2,0,1.8c-0.5,18.6-10.8,37.1-29.7,50.2c-19.9,13.7-46.5,20.9-73.9,25.5
	c-4.3,0.7-8.6,1.4-12.9,2c-2.2,0.3-4.4,0.6-6.5,0.9c-15,2-30.1,3.5-45.2,4.8c-20.3,1.7-40.7,2.9-61.1,3.8
	c-26.2,1.2-52.5,1.8-78.7,2.5c-51.3,1.3-102.6,2.5-154,3.4l-18.2,0.3l-22.2,0.3l-12.9,0.2c-81,0.9-161.9,0.4-242.6-2.9
	c-5.4-0.2-10.7-0.4-16.1-0.7c-12-0.5-24-1.1-36-1.8c-24-1.4-48.3-3.1-72.3-5.6c-6.4-0.7-12.7-1.4-19-2.2c-4.3-0.5-8.6-1.1-12.9-1.7
	c-4.8-0.7-9.5-1.4-14.2-2.2c-35-5.7-68.8-14-99.9-26.6c-8.4-3.3-16.5-7.1-24.5-11.3v-176c4.4-5.1,8.8-10.3,13.1-15.5
	c5.1-6.3,10-12.7,14.5-19.3h96.8v-59.7h170.5v131.1h277.7v-104h320.4c-3.3,5.3-6.1,10.9-8.4,16.6v0.6h-0.4c-2.4,6.2-4,12.7-4.7,19.3
	c-1,9.5,0.8,19.1,5,27.6v0.4l0.1,0.2c9.3,18.4,28.9,31.4,51.7,43c4.2,2.1,8.5,4.2,12.9,6.3c24.4,11.5,50.7,22.2,70.8,36.4l0.6,0.4
	c5.3,3.7,10.3,7.8,14.8,12.4c0.2,0.1,0.3,0.3,0.4,0.4c1.9,2,3.7,4,5.4,6.2c7.3,9.2,11.4,20.5,11.7,32.3
	C1109.8,527.7,1109.8,528,1109.8,528.2z"/>
<rect x="88.7" y="382.2" class="st6" width="28.6" height="19.3"/>
<rect x="134.4" y="382.2" class="st6" width="28.6" height="19.3"/>
<rect x="659.9" y="342.5" class="st6" width="28.6" height="19.3"/>
<rect x="737.1" y="342.5" class="st6" width="28.6" height="19.3"/>
<rect x="820" y="342.5" class="st6" width="28.6" height="19.3"/>
<rect x="659.9" y="401.5" class="st6" width="28.6" height="19.3"/>
<rect x="737.1" y="401.5" class="st6" width="28.6" height="19.3"/>
<rect x="821.3" y="395.5" class="st7" width="28.6" height="19.3"/>
<rect x="659.9" y="460.4" class="st6" width="28.6" height="19.3"/>
<rect x="737.1" y="460.4" class="st6" width="28.6" height="19.3"/>
<rect x="820" y="460.4" class="st6" width="28.6" height="19.3"/>
<rect x="659.9" y="519.4" class="st6" width="28.6" height="19.3"/>
<rect x="737.1" y="519.4" class="st6" width="28.6" height="19.3"/>
<rect x="820" y="519.4" class="st6" width="28.6" height="19.3"/>
<rect x="659.9" y="578.4" class="st6" width="28.6" height="19.3"/>
<rect x="737.1" y="578.4" class="st6" width="28.6" height="19.3"/>
<rect x="820" y="578.4" class="st6" width="28.6" height="19.3"/>
<path class="st6" d="M941.2,342.5c-2.4,6.2-4,12.7-4.7,19.3h-15.7v-19.3H941.2z"/>
<rect x="920.8" y="401.5" class="st7" width="28.6" height="19.3"/>
<rect x="920.8" y="460.4" class="st6" width="28.6" height="19.3"/>
<rect x="920.8" y="519.4" class="st6" width="28.6" height="19.3"/>
<rect x="920.8" y="578.4" class="st8" width="28.6" height="19.3"/>
<rect x="247.4" y="320" class="st6" width="28.6" height="19.3"/>
<rect x="247.4" y="363.2" class="st7" width="28.6" height="19.3"/>
<rect x="247.4" y="406.5" class="st6" width="28.6" height="19.3"/>
<rect x="247.4" y="449.8" class="st6" width="28.6" height="19.3"/>
<rect x="247.4" y="493" class="st6" width="28.6" height="19.3"/>
<rect x="247.4" y="536.3" class="st6" width="28.6" height="19.3"/>
<rect x="247.4" y="579.6" class="st6" width="28.6" height="19.3"/>
<rect x="88.7" y="432.6" class="st6" width="28.6" height="19.3"/>
<rect x="134.4" y="432.6" class="st8" width="28.6" height="19.3"/>
<rect x="88.7" y="483" class="st6" width="28.6" height="19.3"/>
<rect x="134.4" y="483" class="st6" width="28.6" height="19.3"/>
<rect x="88.7" y="533.5" class="st6" width="28.6" height="19.3"/>
<rect x="134.4" y="533.5" class="st6" width="28.6" height="19.3"/>
<rect x="409" y="451.8" class="st6" width="143" height="17.3"/>
<rect x="409" y="506.9" class="st6" width="143" height="17.3"/>
<rect x="409" y="561.9" class="st6" width="143" height="17.3"/>
<path class="st3" d="M208.4,6.1v604c-4.3-0.5-8.6-1.1-12.9-1.7V5.5C199.8,5.5,204.1,5.8,208.4,6.1z"/>
<path class="st3" d="M607.3,104.7v518.5l-12.9,0.2V103.1C598.7,103.7,603,104.2,607.3,104.7z"/>
<path class="st3" d="M1092.7,488.5H0.3c0.4-4.3,1.1-8.6,2.2-12.9h1075.1C1083,479.5,1088.1,483.8,1092.7,488.5z"/>
<path class="st3" d="M993.3,432.6c4.2,2.1,8.5,4.2,12.9,6.3v166.4c-4.3,0.7-8.6,1.4-12.9,2V432.6z"/>
<polygon class="st4" points="337.3,235.2 334.9,235.2 334.9,232.7 334.4,232.7 334.4,235.2 332,235.2 332,235.6 334.4,235.6 
	334.4,238.1 334.9,238.1 334.9,235.6 337.3,235.6 "/>
<polygon class="st4" points="848.6,184.1 846.2,184.1 846.2,181.6 845.7,181.6 845.7,184.1 843.3,184.1 843.3,184.5 845.7,184.5 
	845.7,187 846.2,187 846.2,184.5 848.6,184.5 "/>
<polygon class="st4" points="395.6,174.1 393.1,174.1 393.1,171.6 392.7,171.6 392.7,174.1 390.2,174.1 390.2,174.6 392.7,174.6 
	392.7,177 393.1,177 393.1,174.6 395.6,174.6 "/>
<circle class="st4" cx="391.9" cy="331.3" r="1.6"/>
<circle class="st4" cx="759" cy="187.5" r="1.6"/>
<circle class="st4" cx="920.8" cy="263.7" r="1.6"/>
<circle class="st4" cx="667.4" cy="277.6" r="1.6"/>
<linearGradient id="SVGID_1_" gradientUnits="userSpaceOnUse" x1="597.3172" y1="-30.4247" x2="597.3172" y2="530.1265" gradientTransform="matrix(1 0 0 -1 -45.11 682.9295)">
	<stop  offset="0" style="stop-color:#808080;stop-opacity:0.25"/>
	<stop  offset="0.54" style="stop-color:#808080;stop-opacity:0.12"/>
	<stop  offset="1" style="stop-color:#808080;stop-opacity:0.1"/>
</linearGradient>
<path class="st9" d="M715.3,548.5c0,0-34.3,8.3-47.9,23.8c-4.5,5.2-11.3,8.9-18.3,11.6v-23.4c7.8-13.2,15.8-27.8,15.8-27.8
	c0.4-0.7,3.2-10.8,3.2-10.8c6.4-5.1-0.4-22.7-0.4-22.7s3.9-11.2,1.8-13.4s-0.4-7.9,1.4-10.5s1.4-5.8,1.4-7.9s-2.9-5.4-7.5-7.2
	s0.4-4.7,3.2-5.4s3.6-7.6,0.4-11.2s0.4-5.8,2.1-9.7s-5.7-3.3-5.7-3.3V394l0,0c0,0-2.2-11.9-4.3-32.9s-10.4-23.1-10.4-23.1
	c-4.4-1.4-8.7-3.1-12.9-5.1c-4.4-2.1-8.9-3.7-13.6-5c0,0-9.7,0-17.5-2.4s-12-2.6-12-2.6l-1.3-0.6c-9.7-4.9-17.3-13.1-21.7-23
	c-0.2-0.5-0.4-1-0.6-1.5c2.1-2.3,4-4.9,5.7-7.6v-0.1c0,0.4,0,0.7,0,1.1c0,0.1,0,0.3,0,0.5c0,0.9,0,1.8,0,2.7l0,0v0.1
	c5.7-10.1,22.2-12.4,23.8-23.9c0.1-0.5,0.1-1.1,0.1-1.6V269c0-0.4,0-0.8,0-1.2c-0.2-3.2-1.3-6.4-1.5-9.6c-0.1-0.9-0.1-1.9,0-2.8v0.1
	c0.7-8.9,7.5-16.7,10.5-25.4c0.8-2.3,1.4-4.8,1.6-7.2v-0.1c0.1-0.7,0.1-1.5,0.2-2.2c0-0.2,0-0.4,0-0.5c0-0.5,0-1,0-1.6
	c-0.2-9.3-4.2-18.2-11.2-24.4c-5.7-5-13.2-8.1-17.2-14.5c-1.8-3-2.7-6.6-4.8-9.5c-3.8-5.5-10.7-7.7-17.3-8.5s-13.3-0.5-19.6-2.6
	c-4.5-1.5-8.5-4.1-13-5.4c-10-2.7-20.7,1.2-26.7,9.6c-2.4,3.5-3.9,7.6-7.1,10.3c-6.5,5.5-17.7,3.1-23.4,9.5
	c-3.2,3.5-3.5,8.3-3.1,13.2c0,0.1,0,0.1,0,0.2c0,0.4,0.1,0.8,0.1,1.1c0,0.2,0,0.4,0,0.5s0,0.4,0.1,0.6c0.2,1.8,0.5,3.5,0.7,5.2
	c0,0.3,0.1,0.5,0.1,0.8l0.2,1.6c0,0.4,0.1,0.8,0.1,1.1s0.1,1,0.1,1.4s0,0.7,0.1,1.1c0.6,13.3-2.2,26.6-8.2,38.5
	c-5.4,10.6-13.5,20.4-14.9,32.2c-0.2,1.9-0.3,3.9-0.2,5.9c0,0.2,0,0.5,0,0.7s0.1,0.7,0.1,1c0,0.3,0.1,0.8,0.1,1.2
	c0,0.2,0.1,0.5,0.1,0.7c0.1,0.5,0.1,1.1,0.2,1.6l0.1,0.3c1.4,8.1,4.6,16,6.3,24.2c0.6,3,1.1,6.1,1.3,9.1c0,0,0,0,0,0.1
	c0.1,1,0.1,2,0.1,2.9c0,1.3,0,2.6,0,4c-2.7,1-5.5,1.9-8.3,2.6c-5,0.7-19.7,13.7-18.6,17s-6.6,26-6.8,26.7l0,0l-12,83
	c0,0-6.4,6.1-4.4,10.1s-0.4,10.8-0.4,10.8s-10.8,4.7-8.4,7.6s1.3,8.3-0.3,11.9c-1.6,3.6-4.3,10.1,0,11.2c4.3,1.1,0.7,15.2,0.7,15.2
	s15.1-1.7,14,7.2c-0.4,2.8,10.5,10.7,15.1,13.8v43.1c-6.1-1.7-13.3-3.9-17.9-6.1c-9.3-4.3-61.5-12.6-72.9,12.3s15.7,58.1,22.5,61.7
	c0,0,6.4,5,7.9,7.6s9.7,3.3,9.7,3.3s8.6,4,10.7,6.1c1.6,1.6,14.7,5.8,30.1,9l0,0c0,0-12.5,28.8,7.9,26.4
	c20.4-2.4,30.4-12.4,44.7-12.4c5.8,0,16.4-0.8,27.2-1.8c2.7,0.5,5.4,1.1,8,1.9c6.1,1.9,12.3,3.2,18.6,4c0,0,16.1,8.7,24.7,6.5
	c0.7-0.2,1.4-0.5,1.9-1h0.2c1.6-0.4,3.3-2,5.2-4.4c10.7,1.1,23,2.7,27.6,4.4c8.9,3.4,72.5-1.3,72.5-1.3s41.1,0.8,52.8,4.4
	s7.6-36.3-14.1-40.8c-5.8-1.2-11.7-1.7-17.6-1.7c1.5-1.6,2.9-3.2,4.1-5c7.8-0.7,13-1.2,13-1.2s20.7-10.1,32.5-16.3
	c7.5-4.1,14.3-9.5,20-15.9c0,0,10.4-6.5,14.7-9s6.4-10.8,6.4-10.8C797.9,538.8,715.3,548.5,715.3,548.5z M622.2,456.2
	c0-1.2,0-2.4,0-3.6C623.4,453.3,623.2,454.6,622.2,456.2L622.2,456.2z M622.6,481.7c0.9,1.1,1.7,2.2,2.3,3c2.3,3-1.9,4.4-1.6,9.4
	c0.1,1.1,0.2,2.7,0.3,4.4l0,0C623.2,491.3,622.8,485.4,622.6,481.7L622.6,481.7z"/>
<path class="st10" d="M436.5,595.6c0,0-20-4.7-29.3-8.9s-61.5-12.5-72.9,12.2c-11.4,24.7,15.7,57.5,22.5,61.1s72.9-45.4,72.9-45.4
	l52.2,22l10-34.1L436.5,595.6z"/>
<path class="st10" d="M495.4,602.4h153.4c20.3,0,36.8,16.5,36.8,36.8v5.3c0,20.3-16.5,36.8-36.8,36.8H495.4
	c-20.3,0-36.8-16.5-36.8-36.8v-5.3C458.6,618.9,475.1,602.4,495.4,602.4z"/>
<path class="st11" d="M562,644.2c0,0-22.8,5.8-41.3,5.6s-105.5,35.8-105.5,35.8s-12.5,28.5,7.9,26.2c20.4-2.4,30.4-12.3,44.7-12.3
	s59.7-5,59.7-5l43.6-32.2L562,644.2z"/>
<path class="st11" d="M576.3,375.1l-40.8,8l-2.7,0.5c0,0-32.3-8.6-33.4-9.3S469,334.1,469,334.1s14.8,0.2,26.5-6.5
	c0.4-0.2,0.8-0.5,1.2-0.8c5.1-3.1,9-7.9,11-13.5c0.2-0.6,0.4-1.2,0.6-1.8c1.2-4.8,1.3-10.6-0.3-17.6c-4-16.7,5.2-21.3,17.4-20.9
	c17.6,0.6,41.6,11.6,41.6,11.6c0.3,5.6,1.6,11.1,3.8,16.3c0.2,0.5,0.4,1,0.6,1.5c4.4,9.9,12,17.9,21.7,22.8l1.3,0.6
	c1.3,0.6,2.7,1.2,4.1,1.7C629.5,339.3,576.3,375.1,576.3,375.1z"/>
<path class="st12" d="M571.4,302.4c-16,18.1-42.4,22.7-63.6,11c1.8-5.1,2.1-11.5,0.2-19.4c-9.7-40.8,59-9.3,59-9.3
	C567.3,290.8,568.8,296.8,571.4,302.4z"/>
<path class="st11" d="M584.3,266.2c0,9.6-2.7,19.1-7.8,27.2c-1.7,2.7-3.6,5.2-5.7,7.5c-9,9.9-21.5,15.8-34.9,16.6
	c-1,0.1-2.1,0.1-3.1,0.1c-28.4,0-51.5-23-51.5-51.5s23-51.5,51.5-51.5S584.3,237.8,584.3,266.2L584.3,266.2L584.3,266.2z"/>
<path class="st12" d="M576.3,375.1l-40.8,8l-2.7,0.5c0,0-32.3-8.6-33.4-9.3S469,334.1,469,334.1s14.8,0.2,26.5-6.5
	c0.4-0.2,0.8-0.5,1.2-0.8c3.7,4,15.8,15.3,34.8,15.2c2.4,0,4.9-0.2,7.3-0.5c5.7-0.9,11.5-1.5,17.3-2c11.1-1.2,28-4.5,36.9-14.3
	l1.3,0.6c1.3,0.6,2.7,1.2,4.1,1.7C629.5,339.3,576.3,375.1,576.3,375.1z"/>
<path class="st13" d="M622.4,479.4c0.3,7.9,6.1,96.5,6.1,96.5H450.1l1.2-55.8l1-44.6l0.3-14.7l1.4-50.8l-5.2-4.6l-28.1-24.8l0,0
	c0.2-0.7,7.8-23.3,6.8-26.4s13.6-16.1,18.6-16.8c2.8-0.7,5.6-1.5,8.4-2.5c8.4-3,19.7-7.3,20.9-6.6c1.8,0.9,19.3-0.7,20-0.8l0,0
	c0,0,12.9,16.7,36.1,16.6c2.4,0,4.9-0.2,7.3-0.6c5.7-0.9,11.5-1.5,17.3-2c11.6-1.2,29.7-4.9,38.2-15.8c0,0,4.1,0.2,12,2.6
	s17.5,2.4,17.5,2.4c4.7,1.3,9.2,3,13.6,5c4.2,2,8.5,3.6,12.9,5c0,0,8.2,2.1,10.4,22.9s4.3,32.5,4.3,32.5L622.4,433
	C622.4,433,622,471.5,622.4,479.4z"/>
<polygon class="st11" points="420.8,541.3 427,551.3 450.5,559.5 466.5,530.2 451.7,520.2 428,510.9 414.4,518.8 "/>
<path class="st10" d="M620.6,590.6c0,0,33.2-2.5,46.8-17.9s47.9-23.6,47.9-23.6s82.6-9.7,50,63.3c0,0-2.1,8.2-6.4,10.7
	s-14.7,8.9-14.7,8.9L617.4,621L620.6,590.6z"/>
<path class="st12" d="M685.7,641.9c0,7.8-2.3,15.4-6.6,21.8c-21.3,1.9-68.6,6.3-78.5,9.1c-12.2,3.4-36.7-2.5-39.4-3.2l-0.3-0.1
	c0,0-4.7-14.4-7-23.6c-1-4.2-1.5-7.3-0.9-7.5c2.2-0.7,21.8-6.1,21.5-3s59-23.1,59-23.1l1.8,22.9C641.3,642.2,685.7,632,685.7,641.9z
	"/>
<path class="st10" d="M746.8,622.8l-2.5,9.3c-5.7,6.4-12.5,11.7-20,15.7c-11.8,6.1-32.5,16.1-32.5,16.1s-76.1,6.4-89,10
	s-39.7-3.2-39.7-3.2s-10-30.4-7.9-31.1s21.8-6.1,21.5-3s59-23.1,59-23.1L746.8,622.8z"/>
<path class="st11" d="M534.8,702.9c0,0,37.4,2.6,46.3,6s72.5-1.3,72.5-1.3s41.1,0.8,52.8,4.3s7.6-36-14.1-40.4s-52.3,2.1-52.3,2.1
	s-34.5-4.5-38.7-5s-31.8,0.3-31.8,0.3L534.8,702.9z"/>
<path class="st12" d="M387.8,604.3c0,0,49.5,4.5,63.1,12.6L387.8,604.3z"/>
<path class="st12" d="M696.3,571.8c0,0-38.7,9.4-53.9,23.3L696.3,571.8z"/>
<path class="st12" d="M390.6,593c0.8,0.3,22.8,3.1,22.2,5.2C412.3,600.3,390.6,593,390.6,593z"/>
<path class="st12" d="M356.1,648.2l2.9,10.7c0,0,6.4,5,7.9,7.5s9.7,3.2,9.7,3.2s8.6,3.9,10.7,6.1s25.4,8.9,47.2,11.8
	s62.2,8.2,70.8,11.1c6.1,1.9,12.3,3.2,18.6,3.9c0,0,16.1,8.6,24.7,6.4s23.2-41.1,23.2-41.1s-56.5-13.2-58.3-17.5
	S457.2,626,457.2,626l-32.2,0.8L356.1,648.2z"/>
<path class="st10" d="M354,649.2l2.9,10.7c0,0,6.4,5,7.9,7.5s9.6,3.2,9.6,3.2s8.6,3.9,10.7,6.1s25.4,8.9,47.2,11.8
	s62.2,8.2,70.8,11.1c6.1,1.9,12.3,3.2,18.6,3.9c0,0,16.1,8.6,24.7,6.4s23.2-41.1,23.2-41.1s-56.5-13.2-58.3-17.5
	s-81.5-36.8-81.5-36.8l-25-5.7L354,649.2z"/>
<path class="st13" d="M427,377.2l-6.3,3.6l-12,82.2c0,0-6.4,6.1-4.4,10s-0.4,10.7-0.4,10.7s-10.8,4.7-8.4,7.5s1.3,8.2-0.3,11.8
	c-1.6,3.6-4.3,10,0,11.1c4.3,1.1,0.7,15,0.7,15s15.1-1.7,14,7.1c-0.5,3.6,17.1,15,17.1,15s-19.9-36.1,24.7-31.1l3.8-20.3
	c0,0,3.8-11.5,0-15c-3.8-3.5,0.9-20.5,0.9-20.5l0.8-73.8L427,377.2z"/>
<path class="st12" d="M417.3,483.4c0.8,1.3,24.9,4,26.4,8.3S417.3,483.4,417.3,483.4z"/>
<path class="st12" d="M409.7,503.8c0,0,3.3-10.2,11-8.4C428.5,497.2,409.7,503.8,409.7,503.8z"/>
<path class="st12" d="M405.6,518.7c0,0,5.8-13.6,13.6-12.6C427,507.2,405.6,518.7,405.6,518.7z"/>
<path class="st11" d="M667.4,518.4l-2.5,15c0,0-25.7,47.2-30.4,47.9s-30-31.5-30-31.5l-6.8-31.5l26.7-5.1l11.9-11.7
	C636.3,501.6,666.4,504.5,667.4,518.4z"/>
<path class="st13" d="M655.3,389.4l9.7,6.8v36.1c0,0,7.5-0.7,5.7,3.2s-5.4,6.1-2.1,9.7s2.5,10.4-0.4,11.1s-7.9,3.6-3.2,5.4
	s7.5,5,7.5,7.2s0.4,5.4-1.4,7.9s-3.6,8.2-1.4,10.4s-1.8,13.2-1.8,13.2s6.8,17.5,0.4,22.5c0,0-2.9,10-3.2,10.7
	c0,0,4.5-34.8-40.5-20.1c0,0-0.8-13.3-1.1-18.2s3.9-6.3,1.6-9.3s-8.1-9.7-5.4-11.4s1.8-5,0.7-7.5s-4.8-2.5-1.4-5.5s5.5-5.9,3.4-7.3
	s-5.5-6.1-2.7-8.2s2.9-33.2,2.9-33.2S633.8,366.9,655.3,389.4z"/>
<path class="st12" d="M650.7,450.9c0,0,13.7-3.7,14.2,0S650.7,450.9,650.7,450.9z"/>
<path class="st12" d="M635.3,461.1c0,0,18.8-4.7,21.2-1S635.3,461.1,635.3,461.1z"/>
<path class="st12" d="M631.1,471.1c0,0,28.3-3.9,30.1,1.8S631.1,471.1,631.1,471.1z"/>
<path class="st12" d="M635.3,483.4c1,0.3,27.2,2.1,27.7,7.1S635.3,483.4,635.3,483.4z"/>
<path class="st3" d="M435.6,499.5h203.1c5.8,0,10.5,4.7,10.5,10.5v106.3c0,5.8-4.7,10.5-10.5,10.5H435.6c-5.8,0-10.5-4.7-10.5-10.5
	V510C425.1,504.2,429.8,499.5,435.6,499.5z"/>
<circle class="st4" cx="537.1" cy="563.1" r="8.3"/>
<path class="st12" d="M462.6,421.5c0,0,21.5,16.4,38.1,3.9C500.7,425.4,472.6,427.9,462.6,421.5z"/>
<path class="st12" d="M571.4,425.9c0,0,21.5,16.4,38.1,3.9C609.5,429.8,581.4,432.4,571.4,425.9z"/>
<path class="st12" d="M584.3,266.2c0,9.6-2.7,19.1-7.8,27.2c-0.4-14.3-3.8-28.7-11.6-40.6c-7.1-11-28.8-30.2-43.8-24.8
	c-3.2,1.2-5.6,3.8-6.5,7c-1.5,5.6,2.8,8,5.6,12.4c4.7,7.7,6.6,16.8,5.2,25.7c-0.2,1.2-0.4,2.4-0.8,3.6c-2.3,8.8-7.7,18.9-2.2,26.1
	c3.9,5,12.2,6.8,13.3,13c0.1,0.6,0.1,1.2,0.1,1.8c-0.3,4.2-3.8,7.9-5.4,12c-1.8,4.9-0.8,9.7,1.1,14.6c2.5,6.4,6.4,12.8,7.4,19.6
	s-1.1,13-3.5,19.3c-2.3,6-5,12-5.9,18.2c-1.7,11.9,2.6,25.6-4.8,35c-0.8,1.1-1.9,1.9-3.3,2.2c-4.8,0.5-4-8.1-7.8-11
	c0.4,5,0.8,10.2-1,14.9s-6.5,8.7-11.5,7.9l-1.7-11.2c-3.4,3.3-7.4,5.9-11.9,7.4c1.8-11.9,6-23.4,12.4-33.6
	c-12.6,6.1-19.9,19.2-26.5,31.5c-4.1,7.7-8.3,16.1-6.9,24.7c0.6,3.5,2.1,6.8,2.4,10.4s-1,7.7-4.2,9c-2.9,1.2-6.2-0.2-8.3-2.6
	l-0.4-0.4c-0.2-0.3-0.4-0.5-0.6-0.8c-0.4-0.5-0.7-1.1-1-1.7c-0.9-2.1-1.6-4.3-2-6.6l-0.2-1c-3.3-14.6-6.3-29.7-3.9-44.5
	c0.9-5.4,2.5-10.8,2.3-16.4c-0.2-3.1-0.8-6.2-1.9-9.1c-2.9-8.2-8.5-15.7-11.7-23.9c0-0.1-0.1-0.1-0.1-0.2c-1.7-4.4-2.5-9.8,0.6-13.3
	c1.6-1.8,4-2.7,6-4c6.2-4,9-11.7,10.1-19.1c0.5-3.3,0.8-6.7,0.8-10c8.4-3,19.7-7.3,20.9-6.6c1.8,0.9,19.3-0.7,20-0.8
	c5.3-3.1,10-7.6,12.3-14.2c0.2-0.6,0.4-1.2,0.6-1.8c-25-13.5-34.4-44.7-20.9-69.7s44.7-34.4,69.7-20.9
	C573.9,230,584.3,247.3,584.3,266.2L584.3,266.2z"/>
<path class="st7" d="M524.7,274.5c-2.4,8.8-7.7,18.9-2.2,26.1c3.9,5,12.2,6.8,13.3,13c0.9,5-3.5,9.1-5.3,13.8
	c-4.2,11.2,6.8,22.3,8.5,34.2c1.8,12.9-7.6,24.6-9.4,37.5c-1.7,11.9,2.6,25.6-4.8,35c-0.8,1.1-1.9,1.9-3.3,2.2
	c-4.8,0.5-4-8.1-7.8-11c0.4,5,0.8,10.2-1,14.9c-1.8,4.7-6.5,8.6-11.5,7.9l-1.7-11.2c-3.4,3.3-7.4,5.9-11.9,7.5
	c1.8-11.9,6-23.4,12.4-33.6c-12.6,6.1-19.9,19.2-26.5,31.5c-4.1,7.7-8.3,16.1-6.9,24.8c0.6,3.5,2.1,6.8,2.4,10.4s-1,7.7-4.2,9
	c-3,1.3-6.6-0.4-8.7-3c-2-2.6-2.8-5.9-3.5-9.1c-3.4-14.9-6.6-30.3-4.1-45.4c0.9-5.5,2.5-10.9,2.3-16.4c-0.4-12.1-9.3-22-13.7-33.2
	c-1.7-4.4-2.5-9.8,0.6-13.3c1.6-1.8,4-2.7,6-4c6.2-4.1,9-11.7,10.1-19.1c1.2-7.9,1-16-0.7-23.9c-2.5-11.8-8.3-23.2-6.8-35.2
	c1.4-11.7,9.4-21.4,14.8-31.9c7-13.6,9.6-29,7.7-44.1c-0.9-7-2.6-15.2,2.2-20.5c5.7-6.3,16.8-3.9,23.4-9.4c3.2-2.7,4.8-6.8,7.1-10.2
	c6.1-8.4,16.7-12.2,26.7-9.5c4.5,1.3,8.5,3.9,13,5.3c6.3,2,13,1.8,19.6,2.6s13.5,3,17.3,8.4c2,2.9,2.9,6.4,4.8,9.4
	c4,6.4,11.5,9.5,17.2,14.4c10,8.9,13.7,22.9,9.4,35.6c-3.4,9.5-11.3,17.9-10.6,27.9c0.3,4.1,2,8.2,1.5,12.3
	c-1.6,11.4-18.1,13.7-23.8,23.6c0.5-16.4-2.7-33.2-11.6-46.9c-7.1-11-28.8-30.2-43.8-24.9c-3.2,1.2-5.6,3.8-6.5,7
	c-1.5,5.6,2.8,8,5.6,12.4C525.6,254,527.2,264.6,524.7,274.5z"/>
<g class="st14">
	<path d="M454.5,331.2c0.1-5.1-0.4-10.3-1.4-15.3c-2.1-10-6.6-19.8-7-29.8c-0.6,11.2,4.7,22,7,33C454,323,454.4,327.1,454.5,331.2z"
		/>
	<path d="M497.1,412.3c0.9-1.6,1.8-3.2,2.7-4.7c-12.6,6.1-19.9,19.2-26.5,31.5c-3.8,7.1-7.7,14.9-7.1,22.8
		c0.5-6.8,3.8-13.5,7.1-19.6C479.5,430.9,486.2,418.9,497.1,412.3z"/>
	<path d="M468.9,477c-0.4,2.7-1.7,5.3-4.2,6.3c-3,1.2-6.6-0.4-8.6-3s-2.8-5.9-3.5-9.1c-2.4-10.7-4.8-21.6-5-32.5
		c-0.2,11.9,2.3,24,5,35.7c0.7,3.2,1.5,6.5,3.5,9.1s5.6,4.2,8.6,3c3.3-1.3,4.6-5.5,4.3-9C468.9,477.3,468.9,477.1,468.9,477z"/>
	<path d="M525.8,263.7c-0.1,2.6-0.5,5.1-1.2,7.6c-1.7,6.5-5.1,13.8-4.5,20c0.5-5.4,3.1-11.4,4.5-16.8
		C525.6,271,526,267.4,525.8,263.7z"/>
	<path d="M469.4,216c0.1-3.8-0.1-7.6-0.6-11.4c-0.4-2.8-0.8-5.7-1-8.6c-0.2,3.9,0.5,8,1,11.9C469.1,210.6,469.3,213.3,469.4,216z"/>
	<path d="M535.8,313.7c0-0.1,0-0.2-0.1-0.3c-0.8,3.7-3.8,7.1-5.2,10.9c-0.8,2.2-1.1,4.6-0.9,7c0.1-1.3,0.4-2.6,0.9-3.8
		C532.3,322.9,536.7,318.7,535.8,313.7z"/>
	<path d="M450.8,409.4c-0.4-12.1-9.3-22-13.7-33.2c-0.7-1.8-1.2-3.6-1.4-5.5c-0.2,3,0.2,6,1.4,8.7c4.3,11.1,12.9,20.8,13.6,32.6
		C450.8,411.1,450.8,410.3,450.8,409.4z"/>
	<path d="M564.9,247.5c-7.2-11-28.8-30.2-43.8-24.9c-3.2,1.2-5.6,3.8-6.5,7c-0.4,1.2-0.4,2.5-0.1,3.8c0-0.2,0.1-0.4,0.1-0.5
		c0.9-3.2,3.4-5.8,6.5-7c14.9-5.4,36.6,13.9,43.8,24.9c8.1,12.4,11.4,27.4,11.6,42.3C576.7,277.1,573.5,260.8,564.9,247.5z"/>
	<path d="M600.3,270.8c-1.6,11.4-18,13.6-23.8,23.6c0,1.1,0,2.2,0,3.3c5.7-10,22.2-12.3,23.8-23.6c0.1-1.1,0.1-2.3,0-3.4
		C600.3,270.7,600.3,270.7,600.3,270.8z"/>
	<path d="M609.4,230.6c-3.4,9.5-11.3,17.9-10.6,27.9c0,0.1,0,0.3,0,0.4c0.7-8.9,7.5-16.5,10.5-25.1c1.4-3.9,2-8.1,1.8-12.2
		C611,224.7,610.4,227.7,609.4,230.6z"/>
	<path d="M524.7,431c-0.8,1.1-1.9,1.9-3.3,2.2c-4.8,0.5-4-8.1-7.8-11c0.1,1.1,0.2,2.3,0.3,3.4c3.6,3.1,2.9,11.3,7.6,10.8
		c1.3-0.3,2.5-1.1,3.3-2.2c4.3-5.4,4.7-12.1,4.6-19.2C529.2,421,528.3,426.5,524.7,431z"/>
	<path d="M512.6,437.2c-1.8,4.7-6.5,8.7-11.5,7.9c-0.6-3.7-1.1-7.5-1.7-11.2c-3.2,3.2-7.1,5.6-11.3,7.2c-0.2,1.1-0.4,2.3-0.6,3.4
		c4.5-1.6,8.5-4.1,11.9-7.5c0.6,3.8,1.1,7.5,1.7,11.2c5,0.8,9.7-3.2,11.5-7.9c1.1-3.3,1.6-6.7,1.3-10.2
		C513.8,432.6,513.4,434.9,512.6,437.2z"/>
	<path d="M529.5,396c-0.4,3-0.5,6.1-0.4,9.1c0-2,0.2-3.9,0.4-5.9c1.8-12.3,10.4-23.5,9.6-35.7C538.5,374.5,531.2,384.8,529.5,396z"
		/>
</g>
<path class="st1" d="M826.9,566.5c0,0-6.8,31.6,23.4,35.4l1.9-3.5C852.2,598.4,828.8,576.4,826.9,566.5z"/>
<path class="st1" d="M861.8,598.2l-7,1.5l-0.7,0.2c0,0-18.8-15.2-18.5-49.2c2.5,5,5.5,9.8,9,14.2C852,574.6,860.4,587.8,861.8,598.2
	z"/>
<path class="st1" d="M864.2,601.5c-1.1,0.7-2.5,0.9-3.8,0.5c-18-4.2-12-63-12-63c1,0.5,2.1,8,6.2,17.6
	C862,573.5,870,597.2,864.2,601.5z"/>
<path class="st1" d="M904.2,566.5c0,0,1.2,31.6-29,35.4l-1.9-3.5C873.3,598.4,902.4,576.4,904.2,566.5z"/>
<path class="st1" d="M895.6,550.6c0.2,34-24.1,49.2-24.1,49.2l-0.7-0.2l-7-1.5c1.4-10.4,9.9-23.6,17.3-33.4
	C885.2,559.5,890.1,554.7,895.6,550.6z"/>
<path class="st1" d="M870.6,598.4c-1.1,1.3-2.4,2.4-4,3.1l0,0c-0.5,0.2-1,0.4-1.5,0.5c-4.4,1-6-2.2-5.7-7.6c0.4-9.7,6.5-26.5,12-39
	c3.9-9.1,10.4-15.9,11.3-16.4C882.7,538.9,882.4,584.7,870.6,598.4z"/>
<path class="st1" d="M865.6,518.3c0,0-20.2,71.5-2.8,82.2S870,524.6,865.6,518.3z"/>
<path class="st15" d="M826.9,566.5c0,0-6.8,31.6,23.4,35.4l1.9-3.5C852.2,598.4,828.8,576.4,826.9,566.5z"/>
<path class="st12" d="M861.8,598.2l-7,1.5l-0.7,0.2c0,0-18.8-15.2-18.5-49.2c2.5,5,5.5,9.8,9,14.2
	C852,574.6,860.4,587.8,861.8,598.2z"/>
<path class="st12" d="M864.2,601.5c-1.1,0.7-2.5,0.9-3.8,0.5c-18-4.2-12-63-12-63c1,0.5,2.1,8,6.2,17.6
	C862,573.5,870,597.2,864.2,601.5z"/>
<path class="st12" d="M904.2,566.5c0,0,1.2,31.6-29,35.4l-1.9-3.5C873.3,598.4,902.4,576.4,904.2,566.5z"/>
<path class="st12" d="M895.6,550.6c0.2,34-24.1,49.2-24.1,49.2l-0.7-0.2l-7-1.5c1.4-10.4,9.9-23.6,17.3-33.4
	C885.2,559.5,890.1,554.7,895.6,550.6z"/>
<path class="st12" d="M870.6,598.4c-1.1,1.3-2.4,2.4-4,3.1l0,0c-0.5,0.2-1,0.4-1.5,0.5c-4.4,1-6-2.2-5.7-7.6c0.4-9.7,6.5-26.5,12-39
	c3.9-9.1,10.4-15.9,11.3-16.4C882.7,538.9,882.4,584.7,870.6,598.4z"/>
<path class="st12" d="M865.6,518.3c0,0-20.2,71.5-2.8,82.2S870,524.6,865.6,518.3z"/>
<path class="st16" d="M826.9,566.5c0,0-4,31.6,26.2,35.4l1.9-3.5C855,598.4,828.8,576.4,826.9,566.5z"/>
<path class="st16" d="M864.6,598.2l-7,1.5l-0.7,0.2c0,0-21.6-15.2-21.3-49.2c0,0,5.5,5.9,11.8,14.2
	C854.8,574.6,863.2,587.8,864.6,598.2z"/>
<path class="st12" d="M864.6,598.2l-7,1.5c-6.7-5.8-9.3-21.1-10.3-34.9C854.8,574.6,863.2,587.8,864.6,598.2z"/>
<path class="st16" d="M867,601.5c-1.1,0.7-2.5,0.9-3.8,0.5c-18-4.2-14.8-63-14.8-63c1,0.5,4.9,8,9,17.6
	C864.8,573.5,872.8,597.2,867,601.5z"/>
<path class="st16" d="M904.2,566.5c0,0,4,31.6-26.2,35.4l-1.9-3.5C876.1,598.4,902.4,576.4,904.2,566.5z"/>
<path class="st16" d="M895.6,550.6c0.2,34-21.3,49.2-21.3,49.2l-0.7-0.2l-7-1.5c1.4-10.4,9.9-23.6,17.3-33.4
	C890,556.5,895.6,550.6,895.6,550.6z"/>
<path class="st12" d="M883.8,564.8c-0.9,12.8-3.3,27-9,33.6c-0.4,0.5-0.8,0.9-1.3,1.3l-7-1.5C867.9,587.8,876.4,574.6,883.8,564.8z"
	/>
<path class="st16" d="M873.4,598.4c-1.1,1.3-2.4,2.4-4,3.1l0,0c-0.5,0.2-1,0.4-1.5,0.5c-4.4,1-6-2.2-5.7-7.6c0.4-9.7,6.5-26.5,12-39
	c3.9-9.1,7.6-15.9,8.5-16.4C882.7,538.9,885.2,584.7,873.4,598.4z"/>
<path class="st12" d="M867,601.5c-1,0-2-0.3-2.8-0.9c-8.5-5.3-8.7-25.1-6.6-44C864.8,573.5,872.8,597.2,867,601.5z"/>
<path class="st12" d="M873.4,598.4c-1,2.1-2.3,3.2-4,3.1l0,0c-0.9-0.1-1.7-0.4-2.4-0.9c-2.2-1.5-3.9-3.7-4.8-6.2
	c0.4-9.7,6.5-26.5,12-39C876.1,572.7,876.8,591.2,873.4,598.4z"/>
<path class="st16" d="M865.6,518.3c0,0-17.3,71.5,0,82.2S870,524.6,865.6,518.3z"/>
<polygon class="st17" points="898.8,597 826.7,597 826.7,609 837.7,609 838,610.4 842.4,633.6 884.3,633.6 888.7,610.4 889,609 
	898.8,609 "/>
<polygon class="st12" points="898.8,597 826.7,597 826.7,609 837.7,609 837.9,610.4 842.3,633.6 884.3,633.6 888.7,610.4 889,609 
	898.8,609 "/>
<polygon class="st7" points="892.8,604.1 891.5,610.4 887.1,633.6 845.2,633.6 840.8,610.4 839.6,604.1 "/>
<polygon class="st12" points="892.8,604.1 891.5,610.4 840.8,610.4 839.6,604.1 "/>
<rect x="829.5" y="597" class="st7" width="72.2" height="12"/>
<path class="st1" d="M285.6,520.5c-1,1.4-1.8,3-2.4,4.6c-0.1,0.4-0.3,0.9-0.5,1.3c-0.3-0.1-0.6-0.2-0.8-0.3
	c-1.2-0.3-2.5-0.4-3.8-0.3c0-0.5,0-1,0.1-1.6c0.2-5.7-0.5-13.5-5.9-10.2c-5.2,3.2-1.5,8.6,1.9,12c0.3,0.3,0.6,0.6,0.9,0.8
	c-3,2.2-3.6,7.2-4.1,12.5s-5,11-7.9,14.3c-0.3,0.3-0.6,0.6-0.8,0.9c-2.4-1.9-5.6-2.8-8.6-2.2l-0.4-1.5c-2.4-8.7-7.4-23.7-13.8-27
	l0.8-1.1c2.7-3.5,5.7-8.8,1.3-10.1s-4.9,4.5-4.6,9c0,0.5,0.1,1.1,0.1,1.6c-1.8,0.1-3.5,0.9-4.7,2.3c-0.2-0.3-0.4-0.5-0.7-0.8
	c-3.6-4.3-10.3-11.1-12.4-6c-1.9,4.8,4,11,8.1,14.7l0.3,0.2c-2.8,11.3,9.3,20.5,15.9,24.5c0.3,0.2,0.6,0.4,0.8,0.5
	c-9,10.6-14.6,30.5-14.6,30.5l25.3,4.6c0,0,16.7-14.4,14.6-28h0.2c16.7-3.3,20.5-21.2,17.9-31.8l0.3-0.1c3-1.2,5.7-3.3,7.7-5.8
	C300.2,521.5,290.4,514.2,285.6,520.5z"/>
<path class="st12" d="M285.6,520.5c-1,1.4-1.8,3-2.4,4.6c-0.1,0.4-0.3,0.9-0.5,1.3c-0.3-0.1-0.6-0.2-0.8-0.3
	c-1.2-0.3-2.5-0.4-3.8-0.3c0-0.5,0-1,0.1-1.6c0.2-5.7-0.5-13.5-5.9-10.2c-5.2,3.2-1.5,8.6,1.9,12c0.3,0.3,0.6,0.6,0.9,0.8
	c-3,2.2-3.6,7.2-4.1,12.5s-5,11-7.9,14.3c-0.3,0.3-0.6,0.6-0.8,0.9c-2.4-1.9-5.6-2.8-8.6-2.2l-0.4-1.5c-2.4-8.7-7.4-23.7-13.8-27
	l0.8-1.1c2.7-3.5,5.7-8.8,1.3-10.1s-4.9,4.5-4.6,9c0,0.5,0.1,1.1,0.1,1.6c-1.8,0.1-3.5,0.9-4.7,2.3c-0.2-0.3-0.4-0.5-0.7-0.8
	c-3.6-4.3-10.3-11.1-12.4-6c-1.9,4.8,4,11,8.1,14.7l0.3,0.2c-2.8,11.3,9.3,20.5,15.9,24.5c0.3,0.2,0.6,0.4,0.8,0.5
	c-9,10.6-14.6,30.5-14.6,30.5l25.3,4.6c0,0,16.7-14.4,14.6-28h0.2c16.7-3.3,20.5-21.2,17.9-31.8l0.3-0.1c3-1.2,5.7-3.3,7.7-5.8
	C300.2,521.5,290.4,514.2,285.6,520.5z"/>
<path class="st16" d="M235.4,527.8l-3,8.6c0,0-1.6-1.2-3.7-3c-4.1-3.6-10-9.9-8.1-14.7c2-5.2,8.7,1.7,12.4,6
	C234.4,526.5,235.4,527.8,235.4,527.8z"/>
<path class="st16" d="M241.6,522.9c-0.9,1.2-1.9,2.3-2.9,3.4c-0.3-1.5-0.4-3-0.5-4.5c-0.2-4.4,0.2-10.3,4.6-9
	S244.3,519.4,241.6,522.9z"/>
<path class="st16" d="M279.7,524.3c-0.1,2.8-0.4,5.1-0.4,5.1c-1.3-1-2.5-2.1-3.7-3.3c-3.3-3.5-7-8.8-1.8-12
	C279.2,510.8,279.8,518.6,279.7,524.3z"/>
<path class="st16" d="M297.1,528c-2,2.6-4.7,4.6-7.7,5.8c-0.8,0.4-1.7,0.7-2.6,0.9l-3.5-4.9c0.4-1.6,0.8-3.2,1.4-4.7
	c0.6-1.6,1.4-3.2,2.4-4.6C292,514.2,301.8,521.5,297.1,528z"/>
<path class="st12" d="M233,524.8c1.5,1.7,2.4,3,2.4,3l-3,8.6c0,0-1.6-1.2-3.7-3c0.5-2.8,1.6-5.4,3.3-7.6
	C232.4,525.5,232.7,525.1,233,524.8z"/>
<path class="st12" d="M241.6,522.9c-0.9,1.2-1.9,2.3-2.9,3.4c-0.3-1.5-0.4-3-0.5-4.5C239.5,521.8,240.7,522.2,241.6,522.9z"/>
<path class="st16" d="M256.1,557.2l-7.3,3.2c-1.3-0.7-2.6-1.4-3.9-2.2c-7.7-4.7-23.2-16.7-12.8-30.7s19.1,11.2,22.5,23.5
	C255.6,554.7,256.1,557.2,256.1,557.2z"/>
<path class="st12" d="M275.6,526.1c1.1-1.1,2.5-1.8,4-1.8c-0.1,2.8-0.4,5.1-0.4,5.1C278,528.4,276.8,527.3,275.6,526.1z"/>
<path class="st12" d="M289.4,533.9c-0.8,0.4-1.7,0.7-2.6,0.9l-3.5-4.9c0.4-1.6,0.8-3.2,1.4-4.7C287,526.5,288.6,529.7,289.4,533.9z"
	/>
<path class="st16" d="M271.2,565.7c-0.4,0.1-0.8,0.2-1.2,0.2c-24.6,3.7-8.1-9.5-8.1-9.5s1.1-1,2.6-2.7c3-3.3,7.4-9,7.9-14.3
	c0.8-8,1.7-15.5,11.1-13.3C292.7,528.3,294.4,561.1,271.2,565.7z"/>
<rect x="223.7" y="626.9" class="st17" width="47" height="12.3"/>
<rect x="216.3" y="586.8" class="st17" width="61.4" height="43.1"/>
<rect x="223.7" y="626.9" class="st18" width="47" height="12.3"/>
<rect x="216.3" y="586.8" class="st18" width="61.4" height="43.1"/>
<rect x="226.8" y="626.9" class="st7" width="47" height="12.3"/>
<path class="st12" d="M254.6,551c1,3.7,1.6,6.2,1.6,6.2l-7.3,3.2c-1.3-0.7-2.6-1.4-3.9-2.2C247.8,554.5,251,551.8,254.6,551z"/>
<path class="st12" d="M271.2,565.7c-0.4,0.1-0.8,0.2-1.2,0.2c-24.6,3.7-8.1-9.5-8.1-9.5s1.1-1,2.6-2.7
	C269,557.4,270.9,561.5,271.2,565.7z"/>
<path class="st16" d="M231.2,589.2c0,0,13.8-49.3,33.1-34.1c19.3,15.2-7.8,38.6-7.8,38.6L231.2,589.2z"/>
<circle class="st12" cx="238.1" cy="535.2" r="1.5"/>
<circle class="st12" cx="238" cy="542.4" r="1.5"/>
<circle class="st12" cx="282.8" cy="536.6" r="1.5"/>
<circle class="st12" cx="246.8" cy="573.5" r="1.5"/>
<circle class="st12" cx="279.6" cy="548.6" r="1.5"/>
<circle class="st12" cx="263.6" cy="564.5" r="1.5"/>
<circle class="st12" cx="243.4" cy="538.3" r="1.5"/>
<circle class="st12" cx="278.5" cy="541.2" r="1.5"/>
<circle class="st12" cx="273.3" cy="553.2" r="1.5"/>
<ellipse transform="matrix(7.088845e-02 -0.9975 0.9975 7.088845e-02 -332.1216 788.2172)" class="st12" cx="257" cy="572.4" rx="1.5" ry="1.5"/>
<circle class="st12" cx="253.7" cy="564.8" r="1.5"/>
<circle class="st12" cx="245.7" cy="547.7" r="1.5"/>
<rect x="226.8" y="626.9" class="st12" width="47" height="4.5"/>
<rect x="219.3" y="586.8" class="st7" width="61.4" height="43.1"/>
<circle class="st12" cx="259.1" cy="579.3" r="1.5"/>
<circle class="st12" cx="249.8" cy="581.3" r="1.5"/>
<path class="st19" d="M599.8,426.6H575c-2.1,0-3.8-1.7-3.8-3.8v0c0-2.1,1.7-3.8,3.8-3.8h24.8c2.1,0,3.8,1.7,3.8,3.8v0
	C603.6,424.9,601.9,426.6,599.8,426.6z"/>
<path class="st19" d="M586.4,367.6h-24.8c-2.1,0-3.8-1.7-3.8-3.8l0,0c0-2.1,1.7-3.8,3.8-3.8h24.8c2.1,0,3.8,1.7,3.8,3.8l0,0
	C590.2,365.9,588.5,367.6,586.4,367.6z"/>
<path class="st20" d="M570.8,346.2h-24.8c-2.1,0-3.8-1.7-3.8-3.8l0,0c0-2.1,1.7-3.8,3.8-3.8h24.8c2.1,0,3.8,1.7,3.8,3.8l0,0
	C574.5,344.6,572.8,346.2,570.8,346.2z"/>
<path class="st21" d="M603.3,308.5h-24.8c-2.1,0-3.8-1.7-3.8-3.8l0,0c0-2.1,1.7-3.8,3.8-3.8h24.8c2.1,0,3.8,1.7,3.8,3.8l0,0
	C607.1,306.8,605.4,308.5,603.3,308.5z"/>
<path class="st20" d="M587.7,287.2h-24.8c-2.1,0-3.8-1.7-3.8-3.8l0,0c0-2.1,1.7-3.8,3.8-3.8h24.8c2.1,0,3.8,1.7,3.8,3.8l0,0
	C591.5,285.5,589.8,287.2,587.7,287.2z"/>
<path class="st20" d="M574.3,228.1h-24.8c-2.1,0-3.8-1.7-3.8-3.8v0c0-2.1,1.7-3.8,3.8-3.8h24.8c2.1,0,3.8,1.7,3.8,3.8v0
	C578,226.4,576.3,228.1,574.3,228.1z"/>
<path class="st21" d="M614.6,175.6h-41.7c-3.5,0-6.3-2.8-6.3-6.3v0c0-3.5,2.8-6.3,6.3-6.3h41.7c3.5,0,6.3,2.8,6.3,6.3v0
	C620.9,172.7,618.1,175.6,614.6,175.6z"/>
<path class="st22" d="M221.4,119.7L221.4,119.7l89.9-31.1c6.7-1.4,13.3,3,14.6,9.7v0c1.4,6.7-3,13.3-9.7,14.6"/>
<path class="st23" d="M843.2,83.3L843.2,83.3l90.1-30.6c6.7-1.3,13.2,3,14.6,9.7l0,0c1.3,6.7-3,13.2-9.7,14.6"/>
<path class="st24" d="M223.8,196.2L223.8,196.2l91.4-26.3c6.7-1,13.1,3.7,14.1,10.4v0c1,6.7-3.7,13.1-10.4,14.1"/>
<path class="st25" d="M720.6,238.1L720.6,238.1l97.3-31.3c7.2-1.3,14.2,3.3,15.5,10.2v0c1.3,7-3.5,13.8-10.7,15.1"/>
</svg>
