<?xml version="1.0" encoding="utf-8"?>
<!-- Generator: Adobe Illustrator 23.0.1, SVG Export Plug-In . SVG Version: 6.00 Build 0)  -->
<svg version="1.1" id="Layer_1" xmlns="http://www.w3.org/2000/svg" xmlns:xlink="http://www.w3.org/1999/xlink" x="0px" y="0px"
	 viewBox="0 0 823.1 774.2" style="enable-background:new 0 0 823.1 774.2;" xml:space="preserve">
<style type="text/css">
	.st0{fill:none;}
	.st1{fill:#949494;}
	.st2{fill:url(#SVGID_1_);}
	.st3{fill:#F3F3F3;}
	.st4{fill:none;stroke:#1F2B4B;stroke-width:2.5;stroke-linecap:round;stroke-miterlimit:10;}
	.st5{fill:none;stroke:#F5C26B;stroke-width:12.98;stroke-linecap:round;stroke-linejoin:round;}
	.st6{fill:none;stroke:#F2545B;stroke-width:12.98;stroke-linecap:round;stroke-linejoin:round;}
	.st7{fill:#1F2B4B;}
	.st8{opacity:0.27;enable-background:new    ;}
	.st9{fill:none;stroke:#000000;stroke-width:2.5;stroke-linecap:round;stroke-linejoin:round;}
	.st10{fill:#FFC88E;}
	.st11{fill:none;stroke:#1F2B4B;stroke-width:5.79;stroke-linecap:round;stroke-linejoin:round;}
	.st12{fill:none;stroke:#49C39E;stroke-width:12.98;stroke-linecap:round;stroke-linejoin:round;}
	.st13{fill:none;stroke:#6A78D1;stroke-width:12.98;stroke-linecap:round;stroke-linejoin:round;}
	.st14{fill:#FFFFFF;stroke:#1F2B4B;stroke-width:2.5;stroke-linecap:round;stroke-linejoin:round;}
	.st15{fill:none;stroke:#1F2B4B;stroke-width:2.5;stroke-linecap:round;stroke-linejoin:round;}
</style>
<pattern  x="-188.4" y="974.4" width="12" height="12" patternUnits="userSpaceOnUse" id="New_Pattern" viewBox="2 -14 12 12" style="overflow:visible;">
	<g>
		<rect x="2" y="-14" class="st0" width="12" height="12"/>
		<rect x="2" y="-14" class="st0" width="12" height="12"/>
		<circle class="st1" cx="14" cy="-11" r="2"/>
		<circle class="st1" cx="8" cy="-14" r="2"/>
		<circle class="st1" cx="2" cy="-11" r="2"/>
		<circle class="st1" cx="14" cy="-5" r="2"/>
		<circle class="st1" cx="8" cy="-8" r="2"/>
		<circle class="st1" cx="2" cy="-5" r="2"/>
		<circle class="st1" cx="8" cy="-2" r="2"/>
	</g>
</pattern>
<title>Artboard 1</title>
<g id="Shadow">
	<polygon class="st0" points="281.1,132.4 275.3,150.6 290.4,162.2 293.1,150.1 302.2,125.6 291.6,131.3 	"/>
	<pattern  id="SVGID_1_" xlink:href="#New_Pattern" patternTransform="matrix(1 0 0 -1 -13.3 -17728.7773)">
	</pattern>
	<path class="st2" d="M234.1,167.5c-3.1,2.5-10.4,5.5-14,2.8c-5,10.1-10.2,24.7-10.2,24.7l-4.6,18.3l-5.1,33.4l-2.1,26.8l-0.8,32.3
		l0.6,25.5l1.6,20l4.4,3.5l20.7,5l27.3,3.1h48.5c0,0,17.2-1.1,8.6-3.5s-31.2-10.2-46.3-26.7c-13.4-3.3-17.9-5.8-17.9-5.8l-6.9-6.5
		l-6.3-11.8l-2.3-10.4l-2-13.9l-0.7-27.5l-10.2-3.9l-3.1-17.3l1.4-19.2l2-16.5l7.4-21l5.3-7.1L234.1,167.5z"/>
</g>
<g id="Vector">
	<path class="st3" d="M53.1,459v308.4h717V459H53.1z M322.6,629.3l22.2-37.3l17.1,10.1l-5.1,9l39.8,58.2L322.6,629.3z M518.9,584.4
		l-19.3-38.9l17.7-8.9l4.8,9.2l70.5-2L518.9,584.4z"/>
	<g id="Layer_3">
		<path class="st4" d="M198.7,345.5c-8.3,5.2-24.5,9.6-57.6,10.6c-34.4,0-62.6-33-62.6-76c-1-93.7,96.4-111.5,150.6-216.1
			C254,16,284.2,17.2,291.8,17.6c16.6,0.9,40.2,14,40.2,36.9c0.1,8.1-3.4,15.9-9.6,21.2"/>
		<path class="st4" d="M303.8,123.4c-3.6,8.4-11,22.6-13.4,38.8"/>
	</g>
	<path class="st5" d="M137.5,532h570.7"/>
	<path class="st6" d="M358.6,613.9h274.4"/>
	<path class="st6" d="M184,613.9h147.8"/>
	<path class="st7" d="M460.7,369.8c20.5,0,50.6,122.8,63.6,158.9c-2.7,7.5-18.1,19.3-26.5,19.3c-16.3-27.3-52.8-85.8-59.2-94.8
		C433.4,445.9,440.2,369.8,460.7,369.8z"/>
	<path class="st8" d="M453,127.3c3.5-2.2,1.9-0.7,4.6-4.8"/>
	<path class="st4" d="M323.6,347.3c-0.4,2.8-0.9,5.5-1.6,8.2c-33.3,14.1-120.2,5.6-122.6-4.2c-2.1-8.6-12.7-182.1,44.4-203.7"/>
	<path class="st4" d="M274.9,149.9c42.5,21.4,52,114.1,50.8,168.7"/>
	<path class="st9" d="M261,154.4c-8.8-1.3-18.6-4.5-17.6-6.1c9.8-16.5,11.9-33.7,13.5-43.4"/>
	<path class="st9" d="M281.5,132.3c-1.8,4.4-5.1,12.3-6.6,17.6"/>
	<path class="st4" d="M226.8,256.9c-0.6,4.2,0,9.3,0,12.5c-0.2,17,0.6,36,10.8,50.3c4,5.6,10.6,11,17,10.9c10.1,4,27,8.6,27,8.6
		l25.6,5.6c0,0,43.2,7.7,64.5,7.1c7.1-0.2,14.3-1,21.4-0.8c4.1,0.1,10.6,1.4,14.5,0c1.1-0.4,0.8-2.9,0.6-3.8
		c-0.9-3.4-4.2-5.8-7.1-7.3c-6.9-3.4-10.8-1.3-17.9-1.1c-5.8,0.1-12.7-2.9-22.8-6.8c-11.9-4.7-25.5-10.3-37.6-14.4
		c-13.8-4.7-27.9-9.7-41.4-15.2c-2.7-1-5.5-2-8.3-2.7c1.3-7.3,2-14.6,2.2-22c0.3-8,0.4-16.4-0.7-24.3"/>
	<path class="st4" d="M281.3,227.7c1.6,10.8,1.7,19.4,0.8,22.1c-6.2,3.6-40.5,15.7-65.5,3.4c-7.7-20.4-1-84.1,23.9-88.2
		c6.5-1,12.1,1.1,17,5.1"/>
	<path class="st9" d="M271.1,128.8c1.8,1.1,3.7,2,5.6,2.6c9.1,2.8,18.9-0.5,27.1-8"/>
	<path class="st9" d="M271.4,87c-6.7,1.6-13.6,2.5-20.5,2.7c-1.2,1.5-1.8,3.4-1.9,5.3c0.1,4.4,3.3,8.2,7.7,8.9l0.2,1"/>
	<path class="st9" d="M303.8,123.4c7.1-6.5,13-16.1,16.2-27.6c3.4-12.6,3.1-25-0.4-34.9c-1.9,1.8-3.8,3.5-5.8,5.1"/>
	<path class="st10" d="M346.2,353.2c18,0,83-0.5,94.9-0.5"/>
	<path class="st11" d="M335.1,354.1c19,0,84.6-1.6,95.5-1.6c8.4-13,47.6-81.5,50.2-86.7"/>
	<path class="st12" d="M131.6,578.7l-44.8-44.8l44.8-44.8"/>
	<path class="st12" d="M687.5,738.7l44.8-44.8l-44.8-44.8"/>
	<path class="st13" d="M137.5,693.3H652"/>
	<path class="st7" d="M460.7,372.6c0.3-14-51.2-17.9-83.7-17.9c-14.5,0-36.5,0.8-57,1.6c-33,12.3-110.1,5.4-119.6-3.6
		c-4.5,5.1-7.1,14.6-7.1,32.5c0,41.8,45.7,76.7,99.8,76.7s78.2-1.4,83.1-2.6c1.5,13.8-30.5,108.6-33.9,133
		c2.4,6.5,18.3,14.6,25,14.6S463,462.1,460.7,372.6z"/>
	<polyline class="st14" points="344.8,592 322.6,629.3 396.6,669.4 356.8,611.1 361.9,602.1 	"/>
	<polyline class="st15" points="499.6,545.5 518.9,584.4 592.7,543.8 522.1,545.8 517.3,536.6 	"/>
</g>
</svg>
