<?xml version="1.0" encoding="utf-8"?>
<!-- Generator: Adobe Illustrator 23.0.1, SVG Export Plug-In . SVG Version: 6.00 Build 0)  -->
<svg version="1.1" id="Layer_1" xmlns="http://www.w3.org/2000/svg" xmlns:xlink="http://www.w3.org/1999/xlink" x="0px" y="0px"
	 viewBox="0 0 1200 910.3" style="enable-background:new 0 0 1200 910.3;" xml:space="preserve">
<style type="text/css">
	.st0{fill:none;}
	.st1{fill:#949494;}
	.st2{fill:url(#SVGID_1_);}
	.st3{fill:url(#SVGID_2_);}
	.st4{fill:#1F2B4B;}
	.st5{fill:none;stroke:#1F2B4B;stroke-width:2.5;stroke-linecap:round;stroke-linejoin:round;}
	.st6{fill:none;stroke:#000000;stroke-width:2.5;stroke-linecap:round;stroke-linejoin:round;}
	.st7{fill:#DFDFDF;}
	.st8{fill:#F3F3F3;}
	.st9{fill:none;stroke:#172B4D;stroke-width:2.5;stroke-linecap:round;stroke-linejoin:round;}
	.st10{fill:#49C39E;}
	.st11{fill:#F5C26B;stroke:#FFFFFF;stroke-miterlimit:10;}
	.st12{fill:#F2545B;}
	.st13{fill:#6A78D1;}
	.st14{stroke:#1F2B4B;stroke-miterlimit:10;}
</style>
<pattern  y="1061.1" width="12" height="12" patternUnits="userSpaceOnUse" id="New_Pattern" viewBox="2 -14 12 12" style="overflow:visible;">
	<g>
		<rect x="2" y="-14" class="st0" width="12" height="12"/>
		<rect x="2" y="-14" class="st0" width="12" height="12"/>
		<circle class="st1" cx="14" cy="-11" r="2"/>
		<circle class="st1" cx="8" cy="-14" r="2"/>
		<circle class="st1" cx="2" cy="-11" r="2"/>
		<circle class="st1" cx="14" cy="-5" r="2"/>
		<circle class="st1" cx="8" cy="-8" r="2"/>
		<circle class="st1" cx="2" cy="-5" r="2"/>
		<circle class="st1" cx="8" cy="-2" r="2"/>
	</g>
</pattern>
<title>Artboard 1</title>
<g id="Shadows">
	<pattern  id="SVGID_1_" xlink:href="#New_Pattern" patternTransform="matrix(1 0 0 -1 -6 -17619.6602)">
	</pattern>
	<path class="st2" d="M1100,403.9c-18,0-63.4,27.7-77.4,70c-35.9,0.7-48-2.8-48-2.8l-1.6-82.2l17.5,2.5l21.5,1l11.2-1.1l9.4-5.9
		l17.4-15.1l6.8,3.8l4.8-0.3l14-12.5l12.5-17.7l13-24.1l1.4,8.2l1.3,23.4l-3,46.5L1100,403.9z"/>
	<pattern  id="SVGID_2_" xlink:href="#New_Pattern" patternTransform="matrix(1 0 0 -1 -6 -17619.6602)">
	</pattern>
	<polygon class="st3" points="1006.2,225.3 985.8,193.2 976.9,169.2 976.4,250.6 982.3,243 990.8,235 	"/>
</g>
<g id="Vector">
	<path class="st4" d="M1083.2,457.4c-16.2,9.7-72.6,14-111.5,11.7v10.4l95.3,340.9h35.8L1083.2,457.4L1083.2,457.4z"/>
	<polygon class="st4" points="1007.9,599.6 973.8,659.2 965.3,474 1019.6,475.7 	"/>
	<path class="st5" d="M1006.2,225.3c-8.5-11.8-24.8-37.9-29.8-57.7c-6.3-25.5-6.9,74.6-6.9,74.6l8,7"/>
	<path class="st5" d="M939.5,344.9c12.8-62.6,40.5-126.7,92.5-124.4"/>
	<path class="st6" d="M1101.7,318.1c6.4,60.4-6.3,128.1-15.8,137.3c-16.8,16.3-140.1,19.3-152,5.7c-4.3-4.9-5.3-39.8-0.1-81.5"/>
	<rect x="73" y="70" class="st7" width="904.5" height="251.1"/>
	<path class="st8" d="M890.8,364.5c-5.2,1.9-11.8,2.1-18.7,0.1c-12.9-3.7-21.3-13.8-18.8-22.4s15-12.6,27.8-8.9
		c5.7,1.5,10.8,4.6,14.8,8.9c26.8-0.3,60.7,4.5,81.5,7.8V148.3H73v667.5h904.5V389.6C939.2,383.6,901.3,369,890.8,364.5z"/>
	<path class="st9" d="M1058.3,227.5c15,8.3,25.6,23.3,32.6,41.9"/>
	<path class="st9" d="M1065.2,191c0,0-8.9,46.4-9.9,53c-0.6,4-15.3,3.9-26.3,1.1"/>
	<path class="st9" d="M1034.8,211.4c-1.7,0-3.4-0.2-5.1-0.5c-21.2-4-33.8-31-28.3-60.4c2-11.5,6.9-22.2,14.3-31.3"/>
	<path class="st5" d="M1075.5,155.3c6.8,1.4,11.1,8,9.7,14.8c-1.4,6.8-8,11.1-14.8,9.7c-2.4-0.5-4.6-1.7-6.3-3.4"/>
	<path class="st5" d="M933.8,379.6c26.3,7.7,59.4,14.7,86.6,12.3c5,0.4,20.7-13,29.7-21.5"/>
	<path class="st5" d="M1011.2,333.4c-7,5.1-12.7,11.8-16.5,19.6c-10.3-1.9-61.5-11.1-98.7-10.7c-4-4.3-9.1-7.4-14.8-8.9
		c-12.9-3.7-25.3,0.2-27.8,8.9s5.9,18.6,18.8,22.4c6.8,2,13.5,1.8,18.7-0.1c14,5.8,28.4,10.9,43,15.1"/>
	<polygon class="st7" points="627.9,277.5 296.2,277.5 296.2,815.8 749.9,815.8 749.9,399.5 	"/>
	<circle class="st10" cx="419.4" cy="483.2" r="52.7"/>
	<rect x="500.3" y="523.8" class="st11" width="179" height="14.2"/>
	<rect x="366.7" y="587.1" class="st12" width="312.6" height="14.2"/>
	<rect x="366.7" y="650.3" class="st13" width="312.6" height="14.2"/>
	<path class="st8" d="M653.8,49.4c0,11.3-34.8,99-220.4,99c0,18.9,230.1,9.4,230.1,9.4l3.4-106.5L653.8,49.4z"/>
	<path class="st5" d="M1058.9,273.5c16.2-7.2,32.5-8.7,43.1,3.3c23,25.9-33.5,100.4-44.4,97.4c-12.8-3.6-51.9-40.2-52.2-52.8"/>
	<path class="st5" d="M1089.6,164.7c7.4-3.7,14-36.8-0.6-50.4c-14.2-13.3-61.7-28.7-80.1-46.9"/>
	<path class="st5" d="M1017.7,99.7c-4.2-4.1-15.9-26.4-17.5-32.2"/>
	<path class="st5" d="M1002,105.3c-4.3-6.3-6.5-16.4-7.1-23.1"/>
	<ellipse class="st14" cx="1031.9" cy="149.7" rx="3" ry="3.4"/>
	<path class="st5" d="M1019.9,143.7c-0.7,3.6-4.3,13.3-9.7,21.5"/>
	<path class="st5" d="M1021.4,182.3c3.2-0.2,6-2.1,7.5-4.9"/>
	<polyline class="st5" points="1072.1,820.4 1072.1,847.5 1117.4,910.3 1094.8,835.3 1094.8,820.4 	"/>
	<path class="st8" d="M953,24.8h-29.8c1.4,2.8,2.2,5.8,2.2,8.9c0,12.2-11.5,22.1-25.8,22.1s-25.8-9.9-25.8-22.1
		c0-3.1,0.8-6.2,2.2-8.9H678.3c-13.5,0-24.5,11-24.5,24.5v100.7c0,13.5,11,24.5,24.5,24.5H953c13.6,0,24.5-11,24.5-24.5V49.4
		C977.5,35.8,966.6,24.8,953,24.8z"/>
	<ellipse class="st5" cx="899.7" cy="33.8" rx="25.8" ry="22.1"/>
</g>
</svg>
