<?xml version="1.0" encoding="utf-8"?>
<!-- Generator: Adobe Illustrator 23.0.2, SVG Export Plug-In . SVG Version: 6.00 Build 0)  -->
<svg version="1.1" xmlns="http://www.w3.org/2000/svg" xmlns:xlink="http://www.w3.org/1999/xlink" x="0px" y="0px"
	 viewBox="0 0 1800 1200" style="enable-background:new 0 0 1800 1200;" xml:space="preserve">
<style type="text/css">
	.st0{fill:#6A78D1;}
	.st1{fill:#F3F3F3;}
	.st2{fill:none;stroke:#172B4D;stroke-width:2.5;stroke-linecap:round;stroke-miterlimit:10;}
	.st3{fill:none;stroke:#DFDFDF;stroke-width:12.98;stroke-linecap:round;stroke-linejoin:round;}
	.st4{fill:#172B4D;stroke:#172B4D;stroke-miterlimit:10;}
	.st5{opacity:0.27;fill:#172B4D;stroke:#172B4D;stroke-miterlimit:10;enable-background:new    ;}
	.st6{fill:none;stroke:#172B4D;stroke-width:2.5;stroke-linecap:round;stroke-linejoin:round;}
	.st7{fill:#FFC88E;stroke:#172B4D;stroke-miterlimit:10;}
	.st8{fill:none;stroke:#172B4D;stroke-width:5.79;stroke-linecap:round;stroke-linejoin:round;}
	.st9{fill:#6A78D1;stroke:#172B4D;stroke-width:4;stroke-miterlimit:10;}
	.st10{fill:#49C39E;}
	.st11{fill:#172B4D;}
	.st12{fill:#DFDFDF;}
	.st13{fill:#FFFFFF;}
	.st14{fill:#F2545B;}
	.st15{fill:#F9F9F9;}
</style>
<g id="Layer_1">
	<rect y="-1262.2" class="st0" width="1800" height="1200"/>
	<g id="Vector">
		<g>
			<path class="st1" d="M565.4-595.4v278.5c0,2.6,2.1,4.7,4.7,4.7h660c2.6,0,4.7-2.1,4.7-4.7v-278.5c0-2.6-2.1-4.7-4.7-4.7H570
				C567.4-600,565.4-598,565.4-595.4z M819.4-445.2l15.9-26.6c1.3-2.2,4.2-2.9,6.4-1.6l8,4.7c2.2,1.3,2.9,4.1,1.7,6.3l-1.1,1.9
				c-0.9,1.6-0.8,3.5,0.2,5l24.7,36c2.8,4-1.8,9.1-6.1,6.7l-47.8-25.9C818.9-440,818.1-442.9,819.4-445.2z M998.1-487.3l-13.8-27.8
				c-1.1-2.3-0.2-5.1,2.1-6.3l8.3-4.2c2.3-1.1,5.1-0.2,6.2,2l1,1.9c0.8,1.6,2.5,2.6,4.3,2.5l43.6-1.2c4.9-0.1,6.7,6.4,2.4,8.8
				l-47.6,26.2C1002.2-484,999.3-484.9,998.1-487.3z"/>
			<g id="Layer_3">
				<path class="st2" d="M701.3-705.9c-7.7,4.8-22.9,8.9-53.8,9.9c-32.1,0-58.4-30.8-58.4-70.9c-0.9-87.5,90-104.1,140.6-201.7
					c23.2-44.9,51.4-43.8,58.5-43.4c15.5,0.8,37.5,13.1,37.5,34.4c0.1,7.6-3.2,14.8-8.9,19.8"/>
				<path class="st2" d="M799.4-913.3c-3.3,7.9-10.3,21.1-12.5,36.2"/>
			</g>
			<path class="st3" d="M644.1-531.9h532.7"/>
			<path class="st3" d="M644.1-456.1h521"/>
			<path class="st4" d="M945.8-683.3c19.1,0,47.2,114.6,59.4,148.3c-2.5,7-16.9,18-24.7,18c-15.2-25.5-49.3-80.1-55.3-88.5
				C920.3-612.3,926.7-683.3,945.8-683.3z"/>
			<path class="st5" d="M938.6-909.7c3.3-2.1,1.8-0.7,4.3-4.5"/>
			<path class="st2" d="M817.9-704.3c-0.3,2.6-0.8,5.1-1.5,7.6c-31.1,13.2-112.2,5.2-114.4-3.9c-2-8.1-11.9-170,41.4-190.1"/>
			<path class="st2" d="M772.4-888.6c39.7,19.9,48.5,106.5,47.4,157.5"/>
			<path class="st6" d="M759.4-884.4c-8.2-1.2-17.4-4.2-16.4-5.7c9.1-15.4,11.1-31.5,12.6-40.5"/>
			<path class="st6" d="M778.6-905c-1.7,4.1-4.7,11.5-6.2,16.4"/>
			<path class="st2" d="M727.5-788.7c-0.5,3.9,0,8.7,0,11.6c-0.2,15.9,0.6,33.6,10.1,47c3.7,5.2,9.9,10.3,15.9,10.2
				c9.4,3.7,25.2,8,25.2,8l23.9,5.2c0,0,40.3,7.2,60.2,6.6c6.6-0.2,13.3-0.9,20-0.7c3.8,0.1,9.9,1.3,13.5,0c1-0.4,0.7-2.7,0.6-3.5
				c-0.8-3.2-3.9-5.4-6.6-6.8c-6.4-3.2-10.1-1.2-16.7-1c-5.4,0.1-11.9-2.7-21.3-6.3c-11.1-4.4-23.8-9.6-35.1-13.4
				c-12.9-4.4-26-9.1-38.6-14.2c-2.5-1-5.1-1.8-7.7-2.5c1.2-6.8,1.9-13.6,2.1-20.5c0.3-7.5,0.4-15.3-0.7-22.7"/>
			<path class="st2" d="M778.4-816c1.5,10,1.6,18.1,0.7,20.6c-5.8,3.4-37.8,14.7-61.1,3.2c-7.2-19-0.9-78.5,22.3-82.3
				c6.1-0.9,11.3,1,15.9,4.8"/>
			<path class="st6" d="M768.9-908.2c1.6,1,3.4,1.8,5.3,2.4c8.5,2.6,17.6-0.5,25.3-7.5"/>
			<path class="st6" d="M769.2-947.3c-6.3,1.5-12.7,2.3-19.2,2.5c-1.1,1.4-1.7,3.2-1.8,4.9c0.1,4.1,3.1,7.6,7.2,8.3l0.2,0.9"/>
			<path class="st6" d="M799.4-913.3c6.6-6,12.1-15,15.2-25.8c3.2-11.8,2.9-23.3-0.4-32.6c-1.7,1.7-3.5,3.3-5.4,4.8"/>
			<path class="st7" d="M839-698.8c16.8,0,77.5-0.5,88.6-0.5"/>
			<path class="st8" d="M828.6-698c17.7,0,79-1.5,89.1-1.5c7.8-12.1,44.4-76.1,46.9-80.9"/>
			<path class="st3" d="M638.6-488.3l-41.8-41.8l41.8-41.8"/>
			<path class="st3" d="M1157.5-339l41.8-41.8l-41.8-41.8"/>
			<path class="st4" d="M945.8-680.7c0.3-13.1-47.8-16.7-78.1-16.7c-13.6,0-34,0.7-53.2,1.5c-30.8,11.5-102.7,5-111.7-3.4
				c-4.2,4.7-6.7,13.6-6.7,30.3c0,39,42.7,71.6,93.2,71.6s73-1.3,77.6-2.4c1.4,12.9-28.5,101.4-31.6,124.2
				c2.2,6.1,17.1,13.6,23.3,13.6C864.8-462,948-597.2,945.8-680.7z"/>
			<polyline class="st9" points="837.7,-475.8 817,-441 886,-403.7 848.8,-458 853.6,-466.4 			"/>
			<polyline class="st9" points="982.2,-519.2 1000.2,-483 1069,-520.9 1003.2,-519 998.7,-527.5 			"/>
		</g>
		<path class="st3" d="M644.1-380.8h480.3"/>
	</g>
</g>
<g id="Layer_2">
	<rect class="st10" width="1800" height="1200"/>
	<g id="Vector_1_">
		<path class="st11" d="M1280.2,597.2c-12.6,7.6-56.6,10.9-86.8,9.1v8.1l74.2,265.6h27.9L1280.2,597.2L1280.2,597.2z"/>
		<polygon class="st11" points="1221.5,708 1194.9,754.4 1188.3,610.1 1230.6,611.5 		"/>
		<path class="st6" d="M1220.2,416.4c-6.6-9.2-19.3-29.5-23.2-45c-4.9-19.8-5.4,58.1-5.4,58.1l6.2,5.5"/>
		<path class="st6" d="M1168.2,509.5c10-48.8,31.5-98.7,72.1-96.9"/>
		<path class="st6" d="M1294.5,488.7c5,47-4.9,99.8-12.3,107c-13,12.7-109.1,15.1-118.4,4.4c-3.3-3.8-4.2-31,0-63.5"/>
		<rect x="493.2" y="295.4" class="st12" width="704.7" height="195.6"/>
		<path class="st1" d="M1130.3,524.8c-4,1.5-9.2,1.6-14.5,0.1c-10-2.9-16.6-10.7-14.6-17.4c1.9-6.7,11.7-9.8,21.7-6.9
			c4.4,1.2,8.4,3.6,11.5,7c20.8-0.2,47.3,3.5,63.5,6.1V356.4H493.2v520h704.7v-332C1167.9,539.7,1138.5,528.3,1130.3,524.8z"/>
		<path class="st6" d="M1260.7,418.1c11.7,6.4,19.9,18.2,25.4,32.7"/>
		<path class="st6" d="M1266.1,389.6c0,0-7,36.2-7.7,41.3c-0.5,3.1-11.9,3-20.5,0.8"/>
		<path class="st6" d="M1242.5,405.5c-1.3,0-2.7-0.1-4-0.4c-16.5-3.1-26.4-24.1-22.1-47.1c1.6-8.9,5.4-17.3,11.1-24.4"/>
		<path class="st6" d="M1274.1,361.9c5.3,1.1,8.7,6.2,7.6,11.5c-1.1,5.3-6.2,8.7-11.5,7.6c-1.9-0.4-3.6-1.3-4.9-2.7"/>
		<path class="st6" d="M1163.8,536.6c20.5,6,46.3,11.5,67.4,9.6c3.9,0.3,16.1-10.1,23.1-16.7"/>
		<path class="st6" d="M1224,500.6c-5.5,4-9.9,9.2-12.9,15.3c-8.1-1.5-47.9-8.6-76.9-8.4c-3.1-3.4-7.1-5.8-11.5-7
			c-10-2.9-19.7,0.2-21.7,6.9c-1.9,6.7,4.6,14.5,14.6,17.4c5.3,1.6,10.5,1.4,14.5-0.1c10.9,4.5,22.1,8.5,33.5,11.8"/>
		<polygon class="st12" points="925.5,457.1 667,457.1 667,876.4 1020.5,876.4 1020.5,552.1 		"/>
		<circle class="st13" cx="763" cy="617.3" r="41"/>
		<rect x="826.1" y="648.9" class="st13" width="139.4" height="11"/>
		<rect x="722" y="698.2" class="st13" width="243.5" height="11"/>
		<rect x="722" y="747.5" class="st13" width="243.5" height="11"/>
		<path class="st1" d="M945.6,279.3c0,8.8-27.1,77.1-171.7,77.1c0,14.7,179.3,7.3,179.3,7.3l2.6-83L945.6,279.3z"/>
		<path class="st6" d="M1261.2,453.9c12.6-5.6,25.3-6.8,33.6,2.6c17.9,20.2-26.1,78.2-34.6,75.8c-10-2.8-40.4-31.3-40.6-41.1"/>
		<path class="st6" d="M1285.1,369.2c5.8-2.9,10.9-28.7-0.5-39.3c-11.1-10.3-48.1-22.3-62.4-36.5"/>
		<path class="st6" d="M1229.1,318.6c-3.3-3.2-12.4-20.6-13.6-25.1"/>
		<path class="st6" d="M1216.9,322.9c-3.4-4.9-5.1-12.8-5.5-18"/>
		<ellipse class="st11" cx="1240.2" cy="357.5" rx="2.3" ry="2.7"/>
		<path class="st6" d="M1230.8,352.9c-0.5,2.8-3.3,10.4-7.5,16.8"/>
		<path class="st6" d="M1232,382.9c2.5-0.2,4.7-1.6,5.8-3.8"/>
		<polyline class="st6" points="1271.5,880 1271.5,901.1 1306.8,950 1289.2,891.6 1289.2,880 		"/>
		<path class="st1" d="M1178.7,260.2h-23.2c1.1,2.1,1.7,4.5,1.7,6.9c0,9.5-9,17.2-20.1,17.2c-11.1,0-20.1-7.7-20.1-17.2
			c0-2.4,0.6-4.8,1.7-6.9H964.7c-10.6,0-19.1,8.6-19.1,19.1v78.5c0,10.6,8.6,19.1,19.1,19.1h214c10.6,0,19.1-8.6,19.1-19.1v-78.5
			C1197.8,268.8,1189.3,260.2,1178.7,260.2z"/>
		<ellipse class="st6" cx="1137.2" cy="267.2" rx="20.1" ry="17.2"/>
	</g>
</g>
<g id="Layer_3_1_">
	<rect y="1284.7" class="st14" width="1800" height="1200"/>
	<g id="Vector_2_">
		<polygon class="st1" points="893.6,1530.5 893.6,1927.8 907.2,1927.8 907.2,2013.9 1226.4,2013.9 1226.4,1530.5 		"/>
		<rect x="893.6" y="1530.5" class="st12" width="332.8" height="31.1"/>
		<rect x="970.5" y="1600.8" class="st12" width="279.5" height="79.6"/>
		<rect x="986.8" y="1616.2" class="st15" width="249.9" height="7.2"/>
		<rect x="986.8" y="1633.4" class="st15" width="249.9" height="7.2"/>
		<rect x="986.8" y="1650.6" class="st15" width="249.9" height="7.2"/>
		<rect x="970.5" y="1712.5" class="st12" width="279.5" height="79.6"/>
		<circle class="st15" cx="1007.7" cy="1752.3" r="23.7"/>
		<rect x="1048.9" y="1728.6" class="st15" width="182" height="22.9"/>
		<rect x="1048.9" y="1759.3" class="st15" width="182" height="8.4"/>
		<rect x="926.2" y="1826.6" class="st13" width="262.5" height="129.2"/>
		<path class="st2" d="M907.2,2239v-311.2h-99.6V2239 M843.3,1944.2V1930l8.3-0.3v6.6l17.3,8H843.3z"/>
		<path class="st2" d="M778.4,2239v-208.1h-99.6V2239 M717.1,2054.8v-14.3l8.3-0.3v6.6l17.2,8H717.1z"/>
		<polyline class="st2" points="550,2239 550,2120.5 649.6,2120.5 649.6,2239 		"/>
		<path class="st11" d="M794.1,1798.4c6.9,0,62.5,7.9,86.9,20.3c-3.3,16.3-25.2,112.3-25.2,112.3h-13.6c0,0-5.1-80.8-6.2-80.1
			c-7.4,3.8-36.6,13.4-67.9,13.8"/>
		<path class="st6" d="M809.6,1698.5c4.7,3.4,12.2,9.9,13.8,12.6c18.8-23.4,49.9-47.1,52.4-49.8s3.3-17.9,3.3-21.3
			c0-3.3,4.6-12.2,9-12.2v39.9c0,0-51.9,72.8-60.5,72.8c-4.4,0-22.6-7.6-31.8-12.6"/>
		<path class="st2" d="M778.6,1679.9c13.9,2,32.1,11,32.1,14.6c0,4.2-9,20-16,26.5"/>
		<path class="st2" d="M791.7,1610c0.9-1.5,1.3-3.1,1.3-4.9c0-6.2-5.2-7.1-7.6-9c-2.5-2.1-1.4-8.4-8.3-8.4c-6.2,0-9.2,6.5-13.1,9
			c-4.8,3-14.1,0.6-20.3,6.9c-3,3.1-3.7,10.7-5.5,13.4c-2.5,3.8-6.9,4.9-6.9,10.6c0,3.5,2.4,8.9,5.7,11.3"/>
		<path class="st2" d="M767,1670c37.3,18.9,34.3,122.9,27.1,128.4c-7.9,6.1-73.1,9.1-79.1,0c-2.8-4.2-4.8-33-1.3-62.5"/>
		<path class="st2" d="M731.3,1680.1c4.3-5.8,9.5-10.1,15.8-11.9"/>
		<path class="st2" d="M694.5,1711.2c-10.5,12-26.3,42.6-26.3,48.1c0,13.9,46.8,74.9,52.7,74.9c2.5-4.3,6.5-13.2,6.5-13.2
			s-28.1-52.4-33.3-59.2c4.5-4.2,20.7-26,23.3-32.7c0.4-0.9,0.6-1.9,0.8-2.8"/>
		<path class="st2" d="M723.3,1727.5c-5.3,0.3-30.4-13.1-30.4-19.7c0-5.3,27.5-33.8,39.4-27.3c1.7,0.9,2.8,2.6,3.5,4.8"/>
		<path class="st2" d="M767,1670v-8.7"/>
		<path class="st2" d="M747.1,1645.8v24.9c0,3.5,5,5.3,10,5.3"/>
		<path class="st2" d="M767,1661.3c0.8,0,1.6-0.2,2.3-0.3c10.3-2.4,15.7-16.5,12.2-31.5c-0.6-2.7-1.5-5.4-2.7-7.9"/>
		<path class="st2" d="M743.5,1631.8c-3.5,1-5.5,4.6-4.5,8.1c0.8,2.8,3.4,4.7,6.3,4.7c0.4,0,0.8,0,1.2-0.1c0.2,0.5,0.4,0.9,0.6,1.4"
			/>
		<path class="st11" d="M715.4,1798.4v0.4c6.5,12,12,22.2,12,22.2s-4,8.9-6.5,13.2c-0.9,0-2.9-1.5-5.5-4.2v210.7h12l66.7-242.4
			C789.8,1802,730.9,1810.3,715.4,1798.4z"/>
		<polyline class="st6" points="717.1,2040.5 717.1,2054.8 742.7,2054.8 725.4,2046.7 725.4,2040.2 		"/>
		<polyline class="st6" points="843.3,1930 843.3,1944.2 868.9,1944.2 851.6,1936.2 851.6,1929.6 		"/>
	</g>
</g>
</svg>
