<?xml version="1.0" encoding="utf-8"?>
<!-- Generator: Adobe Illustrator 23.0.3, SVG Export Plug-In . SVG Version: 6.00 Build 0)  -->
<svg version="1.1" id="Layer_1" xmlns="http://www.w3.org/2000/svg" xmlns:xlink="http://www.w3.org/1999/xlink" x="0px" y="0px"
	 viewBox="0 0 797.5 814.6" style="enable-background:new 0 0 797.5 814.6;" xml:space="preserve">
<style type="text/css">
	.st0{fill:none;}
	.st1{fill:#949494;}
	.st2{fill:url(#SVGID_1_);stroke:#000333;stroke-miterlimit:10;}
	.st3{fill:#F8F8F8;stroke:#000333;stroke-miterlimit:10;}
	.st4{fill:url(#SVGID_2_);stroke:#000333;stroke-miterlimit:10;}
	.st5{fill:#D3D3D3;stroke:#000333;stroke-miterlimit:10;}
	.st6{fill:#000333;stroke:#000333;stroke-miterlimit:10;}
	.st7{fill:none;stroke:#000333;stroke-width:2.5;stroke-linecap:round;stroke-linejoin:round;}
	.st8{fill:none;stroke:#000333;stroke-width:2.5;stroke-linecap:round;stroke-miterlimit:10;}
</style>
<pattern  y="814.6" width="12" height="12" patternUnits="userSpaceOnUse" id="New_Pattern" viewBox="2 -14 12 12" style="overflow:visible;">
	<g>
		<rect x="2" y="-14" class="st0" width="12" height="12"/>
		<rect x="2" y="-14" class="st0" width="12" height="12"/>
		<rect x="2" y="-14" class="st0" width="12" height="12"/>
		<circle class="st1" cx="14" cy="-5" r="2"/>
		<circle class="st1" cx="8" cy="-2" r="2"/>
		<circle class="st1" cx="2" cy="-5" r="2"/>
		<circle class="st1" cx="14" cy="-11" r="2"/>
		<circle class="st1" cx="8" cy="-8" r="2"/>
		<circle class="st1" cx="2" cy="-11" r="2"/>
		<circle class="st1" cx="8" cy="-14" r="2"/>
	</g>
</pattern>
<title>error-404-monochrome</title>
<g>
	<g id="vector">
		<pattern  id="SVGID_1_" xlink:href="#New_Pattern" patternTransform="matrix(1 0 0 -1 8 -16561.1797)">
		</pattern>
		<polygon class="st2" points="452.6,222.7 458.1,208.5 449.7,207.7 447.3,186.4 442.5,165.4 439.8,145.2 435.1,124.9 434.5,121.9 
			434.7,94.7 432.1,86.4 427.1,80.6 422.2,82.7 426.7,93.9 428.3,110.3 425.9,122.8 425.8,124.6 428.7,145.6 433.1,168.3 
			437.1,189.7 442.4,212 444.7,230 453.2,226.7 		"/>
		<path class="st3" d="M445.2,229.3L445.2,229.3l-10.8-56.5l-9.2-49.7V123c-0.1,0.2-0.1,0.4-0.2,0.6c1.1,5.8,19.5,101,19.9,105.8
			L445.2,229.3z"/>
		<path class="st3" d="M428,111.3L428,111.3C428,111.3,428,111.4,428,111.3L428,111.3z"/>
		<path class="st3" d="M703.8,272.6c-19.7-33.7-36.3-63.2-52.2-89c-63.1-7.1-99.5-35.7-131.2-35.7c-3.7,0-9.4,1.5-11.6,1.5l0,0
			l-4.8,9l0.1,12.4l7.4,1.4l10,5.3l7.1,6.6l8.7,12.9l-0.6,0.4c4.3,1.6,7.6,4.2,9.5,7.9c2.5,4.8,2.3,10.4,0.3,16.3l0,0
			c15.3,57.2,5.4,142.4-0.3,147.1c-8.6,7.2-100.8-17-108.4-27.7c-3.2-4.4-2.5-34.5,3.2-68.3l0.7-0.4c-12.5,1.5-23.8,0-30.9-7
			c-16.1-16.1-8.2-129.1-7.3-141c-2.6-6-3.8-12.5-3.7-19.1C400,89.7,406.3,77,414.2,77c3.5,0,6.7,2.5,9.2,6.7l-1-2.4h3.7l3.9,2.6
			l5,9.1l1.2,6.9l-0.4,24.7l14.6,84.1l8.9-0.9l4.5-10l9.8-13.7l7.6-8.3v-5.3l0,0c-14.8-2.5-26.4-22.8-26.4-47.5
			c0-1.9,0.1-3.7,0.2-5.5l0.8-10.6l1.6-3.5c0.1-0.3,0.1-0.5,0.2-0.8c-1.1-0.6-5-4.2-5-16.4c0-24,26.6-36.9,48.8-41.9
			c-29.6-12.8-62.8-22.7-99.3-30.8C327.7-2.6,239.8-11.1,186.5,28S114.8,153.1,84.4,248.6c-30.6,95.5-73.1,200.3-51.2,296
			c21.7,95.5,108,181.8,202.6,193.9s197.3-50,306.5-91.3S767.1,585.5,792,522.5S751.3,353.7,703.8,272.6z M290.3,607.5h-57.6
			l39.1-13.8v-8.1h18.5L290.3,607.5z"/>
		<path class="st3" d="M426.5,91.3L426.5,91.3z"/>
		<path class="st3" d="M462.1,92.9c0-0.5,0-1,0.1-1.5c-1.8,3.1-4.2,10-4.6,11.3l0.1,0.2L462.1,92.9z"/>
		<pattern  id="SVGID_2_" xlink:href="#New_Pattern" patternTransform="matrix(1 0 0 -1 8 -16561.1797)">
		</pattern>
		<path class="st4" d="M503.8,263.8c5.3,2.3,50.7,29.5,50.3,58.7c0.8-25.2,0.8-46.2,0.8-46.2l-2.9-22.2l-4.7-30.6l-9.6,14.8
			l-12.6,13.4l-14.8,10.6L503.8,263.8z"/>
		<path class="st5" d="M171.1,774.8h-31.3v37.1H93.9v-37.1H0v-14l108.5-148.3h31.3v122.8h31.3V774.8z M93.9,735.3v-46.2l-32.8,46.2
			H93.9z"/>
		<path class="st5" d="M197.2,712.5c0-57.4,16.7-102.7,75-102.7c58,0,74.1,45.3,74.1,102.7c0,57.1-16.1,102.1-74.1,102.1
			C213.9,814.6,197.2,769.6,197.2,712.5z M300.5,712.5c0-34.6-6.7-61.4-28.3-61.4c-21.9,0-29.5,26.7-29.5,61.4
			c0,34.3,7.6,60.5,29.5,60.5C293.8,773,300.5,746.8,300.5,712.5L300.5,712.5z"/>
		<path class="st5" d="M535.1,774.8h-31.3v37.1h-45.9v-37.1H364v-14l108.5-148.3h31.3v122.8h31.3V774.8z M457.9,735.3v-46.2
			l-32.8,46.2H457.9z"/>
		<path class="st6" d="M536.2,404.2c0.9,8.2,18.9,360.9,18.9,360.9h-18.9L444.1,433L536.2,404.2z"/>
		<path class="st6" d="M546.4,368.7c2.4,48.2-18.1,87.7-53.8,87.7c-48.9,0-113.7-31.2-131.6-48.8c-4.5,13.2-67.6,178.9-67.6,178.9
			h-26.1c0,0,16.8-193,48.1-242.5c10.3-13.8,79.9-13.3,122.5-2.9C471.8,362.5,534.7,372,546.4,368.7z"/>
		<path class="st7" d="M422.3,82.2c1.1-0.7,2.4-1,3.7-0.9c3.8,0.3,10.1,10.4,10.1,18.6s-2.3,11.3-1.6,17.2s15.9,86.6,15.9,91.6
			c3,0,5.9-0.2,8.9-0.6"/>
		<path class="st8" d="M503.8,170.4c15.3,1.7,26.4,12.2,34.1,27.4"/>
		<path class="st8" d="M452.2,226.6c7-21.6,16.5-40.4,28.9-49.8"/>
		<path class="st8" d="M546.7,221.6c15.3,57.2,5.4,142.4-0.3,147.1c-8.6,7.2-100.8-17-108.4-27.7c-3.2-4.4-2.5-34.5,3.2-68.3"/>
		<path class="st7" d="M472.8,218.8c-4.1,1.4-27.9,10.7-27.9,10.7c-0.4-4.8-18.8-100-19.9-105.8c2.3-5.8,3.5-12,3.4-18.3
			c0-15.6-6.3-28.3-14.2-28.3S400,89.7,400,105.3c-0.1,6.5,1.1,13,3.7,19.1c-0.9,11.9-8.8,124.9,7.3,141
			c16.4,16.4,55.5,2.7,80.8-8.6"/>
		
			<rect x="440.8" y="105.3" transform="matrix(0.2566 -0.9665 0.9665 0.2566 222.4316 515.2849)" class="st6" width="10.8" height="15.5"/>
		<path class="st8" d="M527.8,195.3c8.5,1,15.6,4,18.7,10c11.3,21.9-33.4,61.4-45.8,58.5s-32.3-47.1-28.6-55
			c1.1-2.3,6.7-5.3,14.5-7.9"/>
		<path class="st7" d="M481.1,176.7v-6.2"/>
		<path class="st7" d="M503.8,158.9v29.8c0,1.8-5.3,2.9-10.8,3.1"/>
		<path class="st7" d="M508.9,149.4c-1.4,3.4-3.1,6.6-5.2,9.6"/>
		<path class="st7" d="M490.3,169.8c-1.9,0.7-4,1-6,1c-16.3,0-29.5-21.4-29.5-47.8c0-6.9,0.9-13.7,2.8-20.4"/>
		<path class="st7" d="M504.5,141.2c0.6,5.4,2.6,8.2,4.5,8.2c2.2,0,7.9-1.5,11.6-1.5c36.1,0,78.6,37.3,160,37.3
			c42.5,0,109.3-10.7,109.3-73.2c0-33.7-12.1-74.5-76.3-74.5c-40.8,0-69.3,20-102.8,20c-43,0-59.6-15.6-89.3-15.6
			c-21.2,0-68.8,12.3-68.8,44.4c0,12.2,3.8,15.7,5,16.4c0.4-1.3,2.8-8.2,4.6-11.3c-0.3,4.5,1,8.9,3.6,12.6"/>
		<path class="st7" d="M498.2,123.7c0.8,1,1.6,2,2.3,3"/>
		<path class="st7" d="M497,128.1c1.2-0.8,2.7-1.3,4.2-1.3c4.2,0,7.5,3.4,7.5,7.5c0,2.9-1.7,5.6-4.3,6.8"/>
		<path class="st6" d="M428.4,105.3c0.1,5.7-0.9,11.3-2.7,16.7c8.5,1,14.7,1.7,14.7,1.7l5.9-23.7c0,0-8.7-3.6-19.5-8
			C427.8,96.3,428.4,100.8,428.4,105.3z"/>
		<path class="st6" d="M400,105.3c0-8.8,2-16.7,5.2-21.9c-9.3-3.7-17.2-6.7-19.4-7.2c-6.5-1.6-16,37.6-9.7,39.2
			c2.5,0.6,13.5,2.1,25.7,3.6C400.6,114.6,400,109.9,400,105.3z"/>
		<polyline class="st7" points="290.3,585.6 290.3,607.5 232.7,607.5 271.8,593.7 271.8,585.6 		"/>
		<polyline class="st7" points="554.1,764.3 554.1,786.2 502.5,786.2 537.5,772.3 537.5,764.3 		"/>
	</g>
</g>
</svg>
