<?xml version="1.0" encoding="utf-8"?>
<!-- Generator: Adobe Illustrator 23.0.2, SVG Export Plug-In . SVG Version: 6.00 Build 0)  -->
<svg version="1.1" xmlns="http://www.w3.org/2000/svg" xmlns:xlink="http://www.w3.org/1999/xlink" x="0px" y="0px"
	 viewBox="0 0 900 769.5" style="enable-background:new 0 0 900 769.5;" xml:space="preserve">
<style type="text/css">
	.st0{fill:#F3F3F3;}
	.st1{fill:none;stroke:#000333;stroke-width:2.5;stroke-linecap:round;stroke-miterlimit:10;}
	.st2{fill:none;stroke:#DFDFDF;stroke-width:12.98;stroke-linecap:round;stroke-linejoin:round;}
	.st3{fill:#000333;stroke:#000333;stroke-miterlimit:10;}
	.st4{opacity:0.27;fill:#000333;stroke:#000333;stroke-miterlimit:10;enable-background:new    ;}
	.st5{fill:none;stroke:#000333;stroke-width:2.5;stroke-linecap:round;stroke-linejoin:round;}
	.st6{fill:#FFC88E;stroke:#000333;stroke-miterlimit:10;}
	.st7{fill:none;stroke:#000333;stroke-width:5.79;stroke-linecap:round;stroke-linejoin:round;}
	.st8{fill:#6A78D1;stroke:#000333;stroke-width:4;stroke-miterlimit:10;}
	.st9{fill:#6A78D1;}
	.st10{fill:#49C39E;}
	.st11{fill:#000333;}
	.st12{fill:#DFDFDF;}
	.st13{fill:#FFFFFF;}
	.st14{fill:#F5C26B;}
	.st15{fill:#F9F9F9;}
</style>
<g id="Layer_1">
	<g id="Vector">
		<g>
			<path class="st0" d="M116.7,451.6v278.5c0,2.6,2.1,4.7,4.7,4.7h660c2.6,0,4.7-2.1,4.7-4.7V451.6c0-2.6-2.1-4.7-4.7-4.7h-660
				C118.8,446.9,116.7,449,116.7,451.6z M370.8,601.7l15.9-26.6c1.3-2.2,4.2-2.9,6.4-1.6l8,4.7c2.2,1.3,2.9,4.1,1.7,6.3l-1.1,1.9
				c-0.9,1.6-0.8,3.5,0.2,5l24.7,36c2.8,4-1.8,9.1-6.1,6.7l-47.8-25.9C370.3,607,369.4,604,370.8,601.7z M549.4,559.6l-13.8-27.8
				c-1.1-2.3-0.2-5.1,2.1-6.3l8.3-4.2c2.3-1.1,5.1-0.2,6.2,2l1,1.9c0.8,1.6,2.5,2.6,4.3,2.5l43.6-1.2c4.9-0.1,6.7,6.4,2.4,8.8
				l-47.6,26.2C553.5,562.9,550.6,562,549.4,559.6z"/>
			<g id="Layer_3">
				<path class="st1" d="M252.6,341c-7.7,4.8-22.9,8.9-53.8,9.9c-32.1,0-58.4-30.8-58.4-70.9c-0.9-87.5,90-104.1,140.6-201.7
					c23.2-44.9,51.4-43.8,58.5-43.4C355,35.7,377,47.9,377,69.3c0.1,7.6-3.2,14.8-8.9,19.8"/>
				<path class="st1" d="M350.8,133.7c-3.3,7.9-10.3,21.1-12.5,36.2"/>
			</g>
			<path class="st2" d="M195.5,515h532.7"/>
			<path class="st2" d="M195.5,590.8h521"/>
			<path class="st3" d="M497.2,363.6c19.1,0,47.2,114.6,59.4,148.3c-2.5,7-16.9,18-24.7,18c-15.2-25.5-49.3-80.1-55.3-88.5
				C471.7,434.7,478,363.6,497.2,363.6z"/>
			<path class="st4" d="M490,137.3c3.3-2.1,1.8-0.7,4.3-4.5"/>
			<path class="st1" d="M369.2,342.7c-0.3,2.6-0.8,5.1-1.5,7.6c-31.1,13.2-112.2,5.2-114.4-3.9c-2-8.1-11.9-170,41.4-190.1"/>
			<path class="st1" d="M323.8,158.4c39.7,19.9,48.5,106.5,47.4,157.5"/>
			<path class="st5" d="M310.8,162.6c-8.2-1.2-17.4-4.2-16.4-5.7c9.1-15.4,11.1-31.5,12.6-40.5"/>
			<path class="st5" d="M330,141.9c-1.7,4.1-4.7,11.5-6.2,16.4"/>
			<path class="st1" d="M278.9,258.2c-0.5,3.9,0,8.7,0,11.6c-0.2,15.9,0.6,33.6,10.1,47c3.7,5.2,9.9,10.3,15.9,10.2
				c9.4,3.7,25.2,8,25.2,8l23.9,5.2c0,0,40.3,7.2,60.2,6.6c6.6-0.2,13.3-0.9,20-0.7c3.8,0.1,9.9,1.3,13.5,0c1-0.4,0.7-2.7,0.6-3.5
				c-0.8-3.2-3.9-5.4-6.6-6.8c-6.4-3.2-10.1-1.2-16.7-1c-5.4,0.1-11.9-2.7-21.3-6.3c-11.1-4.4-23.8-9.6-35.1-13.4
				c-12.9-4.4-26-9.1-38.6-14.2c-2.5-1-5.1-1.8-7.7-2.5c1.2-6.8,1.9-13.6,2.1-20.5c0.3-7.5,0.4-15.3-0.7-22.7"/>
			<path class="st1" d="M329.8,231c1.5,10,1.6,18.1,0.7,20.6c-5.8,3.4-37.8,14.7-61.1,3.2c-7.2-19-0.9-78.5,22.3-82.3
				c6.1-0.9,11.3,1,15.9,4.8"/>
			<path class="st5" d="M320.3,138.7c1.6,1,3.4,1.8,5.3,2.4c8.5,2.6,17.6-0.5,25.3-7.5"/>
			<path class="st5" d="M320.5,99.6c-6.3,1.5-12.7,2.3-19.2,2.5c-1.1,1.4-1.7,3.2-1.8,4.9c0.1,4.1,3.1,7.6,7.2,8.3l0.2,0.9"/>
			<path class="st5" d="M350.8,133.7c6.6-6,12.1-15,15.2-25.8c3.2-11.8,2.9-23.3-0.4-32.6c-1.7,1.7-3.5,3.3-5.4,4.8"/>
			<path class="st6" d="M390.3,348.1c16.8,0,77.5-0.5,88.6-0.5"/>
			<path class="st7" d="M379.9,349c17.7,0,79-1.5,89.1-1.5c7.8-12.1,44.4-76.1,46.9-80.9"/>
			<path class="st2" d="M190,558.6l-41.8-41.8L190,475"/>
			<path class="st2" d="M708.9,708l41.8-41.8l-41.8-41.8"/>
			<path class="st3" d="M497.2,366.2c0.3-13.1-47.8-16.7-78.1-16.7c-13.6,0-34,0.7-53.2,1.5c-30.8,11.5-102.7,5-111.7-3.4
				c-4.2,4.7-6.7,13.6-6.7,30.3c0,39,42.7,71.6,93.2,71.6s73-1.3,77.6-2.4c1.4,12.9-28.5,101.4-31.6,124.2
				c2.2,6.1,17.1,13.6,23.3,13.6S499.3,449.8,497.2,366.2z"/>
			<polyline class="st8" points="389,571.1 368.3,605.9 437.4,643.3 400.2,588.9 405,580.5 			"/>
			<polyline class="st8" points="533.5,527.7 551.6,564 620.4,526.1 554.6,528 550.1,519.4 			"/>
		</g>
		<path class="st2" d="M195.5,666.2h480.3"/>
	</g>
	<rect x="1605.5" y="-215.2" class="st9" width="1800" height="1200"/>
	<g id="Vector_3_">
		<g>
			<path class="st0" d="M2170.9,451.6v278.5c0,2.6,2.1,4.7,4.7,4.7h660c2.6,0,4.7-2.1,4.7-4.7V451.6c0-2.6-2.1-4.7-4.7-4.7h-660
				C2173,446.9,2170.9,449,2170.9,451.6z M2425,601.7l15.9-26.6c1.3-2.2,4.2-2.9,6.4-1.6l8,4.7c2.2,1.3,2.9,4.1,1.7,6.3l-1.1,1.9
				c-0.9,1.6-0.8,3.5,0.2,5l24.7,36c2.8,4-1.8,9.1-6.1,6.7l-47.8-25.9C2424.4,607,2423.6,604,2425,601.7z M2603.6,559.6l-13.8-27.8
				c-1.1-2.3-0.2-5.1,2.1-6.3l8.3-4.2c2.3-1.1,5.1-0.2,6.2,2l1,1.9c0.8,1.6,2.5,2.6,4.3,2.5l43.6-1.2c4.9-0.1,6.7,6.4,2.4,8.8
				l-47.6,26.2C2607.7,562.9,2604.8,562,2603.6,559.6z"/>
			<g id="Layer_3_2_">
				<path class="st1" d="M2306.8,341c-7.7,4.8-22.9,8.9-53.8,9.9c-32.1,0-58.4-30.8-58.4-70.9c-0.9-87.5,90-104.1,140.6-201.7
					c23.2-44.9,51.4-43.8,58.5-43.4c15.5,0.8,37.5,13.1,37.5,34.4c0.1,7.6-3.2,14.8-8.9,19.8"/>
				<path class="st1" d="M2404.9,133.7c-3.3,7.9-10.3,21.1-12.5,36.2"/>
			</g>
			<path class="st2" d="M2249.7,515h532.7"/>
			<path class="st2" d="M2249.7,590.8h521"/>
			<path class="st3" d="M2551.4,363.6c19.1,0,47.2,114.6,59.4,148.3c-2.5,7-16.9,18-24.7,18c-15.2-25.5-49.3-80.1-55.3-88.5
				C2525.9,434.7,2532.2,363.6,2551.4,363.6z"/>
			<path class="st4" d="M2544.2,137.3c3.3-2.1,1.8-0.7,4.3-4.5"/>
			<path class="st1" d="M2423.4,342.7c-0.3,2.6-0.8,5.1-1.5,7.6c-31.1,13.2-112.2,5.2-114.4-3.9c-2-8.1-11.9-170,41.4-190.1"/>
			<path class="st1" d="M2377.9,158.4c39.7,19.9,48.5,106.5,47.4,157.5"/>
			<path class="st5" d="M2364.9,162.6c-8.2-1.2-17.4-4.2-16.4-5.7c9.1-15.4,11.1-31.5,12.6-40.5"/>
			<path class="st5" d="M2384.1,141.9c-1.7,4.1-4.7,11.5-6.2,16.4"/>
			<path class="st1" d="M2333,258.2c-0.5,3.9,0,8.7,0,11.6c-0.2,15.9,0.6,33.6,10.1,47c3.7,5.2,9.9,10.3,15.9,10.2
				c9.4,3.7,25.2,8,25.2,8l23.9,5.2c0,0,40.3,7.2,60.2,6.6c6.6-0.2,13.3-0.9,20-0.7c3.8,0.1,9.9,1.3,13.5,0c1-0.4,0.7-2.7,0.6-3.5
				c-0.8-3.2-3.9-5.4-6.6-6.8c-6.4-3.2-10.1-1.2-16.7-1c-5.4,0.1-11.9-2.7-21.3-6.3c-11.1-4.4-23.8-9.6-35.1-13.4
				c-12.9-4.4-26-9.1-38.6-14.2c-2.5-1-5.1-1.8-7.7-2.5c1.2-6.8,1.9-13.6,2.1-20.5c0.3-7.5,0.4-15.3-0.7-22.7"/>
			<path class="st1" d="M2383.9,231c1.5,10,1.6,18.1,0.7,20.6c-5.8,3.4-37.8,14.7-61.1,3.2c-7.2-19-0.9-78.5,22.3-82.3
				c6.1-0.9,11.3,1,15.9,4.8"/>
			<path class="st5" d="M2374.4,138.7c1.6,1,3.4,1.8,5.3,2.4c8.5,2.6,17.6-0.5,25.3-7.5"/>
			<path class="st5" d="M2374.7,99.6c-6.3,1.5-12.7,2.3-19.2,2.5c-1.1,1.4-1.7,3.2-1.8,4.9c0.1,4.1,3.1,7.6,7.2,8.3l0.2,0.9"/>
			<path class="st5" d="M2404.9,133.7c6.6-6,12.1-15,15.2-25.8c3.2-11.8,2.9-23.3-0.4-32.6c-1.7,1.7-3.5,3.3-5.4,4.8"/>
			<path class="st6" d="M2444.5,348.1c16.8,0,77.5-0.5,88.6-0.5"/>
			<path class="st7" d="M2434.1,349c17.7,0,79-1.5,89.1-1.5c7.8-12.1,44.4-76.1,46.9-80.9"/>
			<path class="st2" d="M2244.1,558.6l-41.8-41.8l41.8-41.8"/>
			<path class="st2" d="M2763.1,708l41.8-41.8l-41.8-41.8"/>
			<path class="st3" d="M2551.4,366.2c0.3-13.1-47.8-16.7-78.1-16.7c-13.6,0-34,0.7-53.2,1.5c-30.8,11.5-102.7,5-111.7-3.4
				c-4.2,4.7-6.7,13.6-6.7,30.3c0,39,42.7,71.6,93.2,71.6s73-1.3,77.6-2.4c1.4,12.9-28.5,101.4-31.6,124.2
				c2.2,6.1,17.1,13.6,23.3,13.6C2470.4,584.9,2553.5,449.8,2551.4,366.2z"/>
			<polyline class="st8" points="2443.2,571.1 2422.5,605.9 2491.6,643.3 2454.4,588.9 2459.2,580.5 			"/>
			<polyline class="st8" points="2587.7,527.7 2605.8,564 2674.6,526.1 2608.7,528 2604.3,519.4 			"/>
		</g>
		<path class="st2" d="M2249.7,666.2h480.3"/>
	</g>
</g>
<g id="Layer_2">
	<rect x="1605.5" y="1046.9" class="st10" width="1800" height="1200"/>
	<g id="Vector_1_">
		<path class="st11" d="M2885.7,1644.1c-12.6,7.6-56.6,10.9-86.8,9.1v8.1l74.2,265.6h27.9L2885.7,1644.1L2885.7,1644.1z"/>
		<polygon class="st11" points="2827,1754.9 2800.4,1801.4 2793.8,1657 2836.1,1658.4 		"/>
		<path class="st5" d="M2825.7,1463.3c-6.6-9.2-19.3-29.5-23.2-45c-4.9-19.8-5.4,58.1-5.4,58.1l6.2,5.5"/>
		<path class="st5" d="M2773.8,1556.5c10-48.8,31.5-98.7,72.1-96.9"/>
		<path class="st5" d="M2900.1,1535.6c5,47-4.9,99.8-12.3,107c-13,12.7-109.1,15.1-118.4,4.4c-3.3-3.8-4.2-31,0-63.5"/>
		<rect x="2098.7" y="1342.3" class="st12" width="704.7" height="195.6"/>
		<path class="st0" d="M2735.8,1571.7c-4,1.5-9.2,1.6-14.5,0.1c-10-2.9-16.6-10.7-14.6-17.4c1.9-6.7,11.7-9.8,21.7-6.9
			c4.4,1.2,8.4,3.6,11.5,7c20.8-0.2,47.3,3.5,63.5,6.1v-157.1h-704.7v520h704.7v-332C2773.4,1586.6,2744,1575.3,2735.8,1571.7z"/>
		<path class="st5" d="M2866.2,1465c11.7,6.4,19.9,18.2,25.4,32.7"/>
		<path class="st5" d="M2871.7,1436.6c0,0-7,36.2-7.7,41.3c-0.5,3.1-11.9,3-20.5,0.8"/>
		<path class="st5" d="M2848,1452.5c-1.3,0-2.7-0.1-4-0.4c-16.5-3.1-26.4-24.1-22.1-47.1c1.6-8.9,5.4-17.3,11.1-24.4"/>
		<path class="st5" d="M2879.6,1408.8c5.3,1.1,8.7,6.2,7.6,11.5c-1.1,5.3-6.2,8.7-11.5,7.6c-1.9-0.4-3.6-1.3-4.9-2.7"/>
		<path class="st5" d="M2769.3,1583.5c20.5,6,46.3,11.5,67.4,9.6c3.9,0.3,16.1-10.1,23.1-16.7"/>
		<path class="st5" d="M2829.6,1547.5c-5.5,4-9.9,9.2-12.9,15.3c-8.1-1.5-47.9-8.6-76.9-8.4c-3.1-3.4-7.1-5.8-11.5-7
			c-10-2.9-19.7,0.2-21.7,6.9c-1.9,6.7,4.6,14.5,14.6,17.4c5.3,1.6,10.5,1.4,14.5-0.1c10.9,4.5,22.1,8.5,33.5,11.8"/>
		<polygon class="st12" points="2531,1504 2272.6,1504 2272.6,1923.4 2626,1923.4 2626,1599 		"/>
		<circle class="st13" cx="2368.5" cy="1664.2" r="41"/>
		<rect x="2431.6" y="1695.9" class="st13" width="139.4" height="11"/>
		<rect x="2327.5" y="1745.2" class="st13" width="243.5" height="11"/>
		<rect x="2327.5" y="1794.4" class="st13" width="243.5" height="11"/>
		<path class="st0" d="M2551.1,1326.3c0,8.8-27.1,77.1-171.7,77.1c0,14.7,179.3,7.3,179.3,7.3l2.6-83L2551.1,1326.3z"/>
		<path class="st5" d="M2866.7,1500.9c12.6-5.6,25.3-6.8,33.6,2.6c17.9,20.2-26.1,78.2-34.6,75.8c-10-2.8-40.4-31.3-40.6-41.1"/>
		<path class="st5" d="M2890.7,1416.1c5.8-2.9,10.9-28.7-0.5-39.3c-11.1-10.3-48.1-22.3-62.4-36.5"/>
		<path class="st5" d="M2834.6,1365.5c-3.3-3.2-12.4-20.6-13.6-25.1"/>
		<path class="st5" d="M2822.4,1369.9c-3.4-4.9-5.1-12.8-5.5-18"/>
		<ellipse class="st11" cx="2845.7" cy="1404.4" rx="2.3" ry="2.7"/>
		<path class="st5" d="M2836.3,1399.8c-0.5,2.8-3.3,10.4-7.5,16.8"/>
		<path class="st5" d="M2837.5,1429.8c2.5-0.2,4.7-1.6,5.8-3.8"/>
		<polyline class="st5" points="2877,1926.9 2877,1948.1 2912.3,1996.9 2894.7,1938.5 2894.7,1926.9 		"/>
		<path class="st0" d="M2784.2,1307.2h-23.2c1.1,2.1,1.7,4.5,1.7,6.9c0,9.5-9,17.2-20.1,17.2c-11.1,0-20.1-7.7-20.1-17.2
			c0-2.4,0.6-4.8,1.7-6.9h-154.1c-10.6,0-19.1,8.6-19.1,19.1v78.5c0,10.6,8.6,19.1,19.1,19.1h214c10.6,0,19.1-8.6,19.1-19.1v-78.5
			C2803.4,1315.7,2794.8,1307.2,2784.2,1307.2z"/>
		<ellipse class="st5" cx="2742.7" cy="1314.1" rx="20.1" ry="17.2"/>
	</g>
</g>
<g id="Layer_3_1_">
	<rect x="1605.5" y="2331.7" class="st14" width="1800" height="1200"/>
	<g id="Vector_2_">
		<polygon class="st0" points="2499.1,2577.4 2499.1,2974.8 2512.7,2974.8 2512.7,3060.9 2832,3060.9 2832,2577.4 		"/>
		<rect x="2499.1" y="2577.4" class="st12" width="332.8" height="31.1"/>
		<rect x="2576" y="2647.8" class="st12" width="279.5" height="79.6"/>
		<rect x="2592.3" y="2663.2" class="st15" width="249.9" height="7.2"/>
		<rect x="2592.3" y="2680.4" class="st15" width="249.9" height="7.2"/>
		<rect x="2592.3" y="2697.5" class="st15" width="249.9" height="7.2"/>
		<rect x="2576" y="2759.4" class="st12" width="279.5" height="79.6"/>
		<circle class="st15" cx="2613.2" cy="2799.2" r="23.7"/>
		<rect x="2654.5" y="2775.5" class="st15" width="182" height="22.9"/>
		<rect x="2654.5" y="2806.2" class="st15" width="182" height="8.4"/>
		<rect x="2531.7" y="2873.6" class="st13" width="262.5" height="129.2"/>
		<path class="st1" d="M2512.7,3285.9v-311.2H2413v311.2 M2448.8,2991.2v-14.3l8.3-0.3v6.6l17.3,8H2448.8z"/>
		<path class="st1" d="M2383.9,3285.9v-208.1h-99.6v208.1 M2322.6,3101.7v-14.3l8.3-0.3v6.6l17.2,8H2322.6z"/>
		<polyline class="st1" points="2155.5,3285.9 2155.5,3167.5 2255.2,3167.5 2255.2,3285.9 		"/>
		<path class="st11" d="M2399.6,2845.4c6.9,0,62.5,7.9,86.9,20.3c-3.3,16.3-25.2,112.3-25.2,112.3h-13.6c0,0-5.1-80.8-6.2-80.1
			c-7.4,3.8-36.6,13.4-67.9,13.8"/>
		<path class="st5" d="M2415.1,2745.5c4.7,3.4,12.2,9.9,13.8,12.6c18.8-23.4,49.9-47.1,52.4-49.8s3.3-17.9,3.3-21.3s4.6-12.2,9-12.2
			v39.9c0,0-51.9,72.8-60.5,72.8c-4.4,0-22.6-7.6-31.8-12.6"/>
		<path class="st1" d="M2384.1,2726.8c13.9,2,32.1,11,32.1,14.6c0,4.2-9,20-16,26.5"/>
		<path class="st1" d="M2397.2,2657c0.9-1.5,1.3-3.1,1.3-4.9c0-6.2-5.2-7.1-7.6-9c-2.5-2.1-1.4-8.4-8.3-8.4c-6.2,0-9.2,6.5-13.1,9
			c-4.8,3-14.1,0.6-20.3,6.9c-3,3.1-3.7,10.7-5.5,13.4c-2.5,3.8-6.9,4.9-6.9,10.6c0,3.5,2.4,8.9,5.7,11.3"/>
		<path class="st1" d="M2372.5,2717c37.3,18.9,34.3,122.9,27.1,128.4c-7.9,6.1-73.1,9.1-79.1,0c-2.8-4.2-4.8-33-1.3-62.5"/>
		<path class="st1" d="M2336.9,2727c4.3-5.8,9.5-10.1,15.8-11.9"/>
		<path class="st1" d="M2300,2758.2c-10.5,12-26.3,42.6-26.3,48.1c0,13.9,46.8,74.9,52.7,74.9c2.5-4.3,6.5-13.2,6.5-13.2
			s-28.1-52.4-33.3-59.2c4.5-4.2,20.7-26,23.3-32.7c0.4-0.9,0.6-1.9,0.8-2.8"/>
		<path class="st1" d="M2328.8,2774.4c-5.3,0.3-30.4-13.1-30.4-19.7c0-5.3,27.5-33.8,39.4-27.3c1.7,0.9,2.8,2.6,3.5,4.8"/>
		<path class="st1" d="M2372.5,2717v-8.7"/>
		<path class="st1" d="M2352.6,2692.8v24.9c0,3.5,5,5.3,10,5.3"/>
		<path class="st1" d="M2372.5,2708.2c0.8,0,1.6-0.2,2.3-0.3c10.3-2.4,15.7-16.5,12.2-31.5c-0.6-2.7-1.5-5.4-2.7-7.9"/>
		<path class="st1" d="M2349,2678.7c-3.5,1-5.5,4.6-4.5,8.1c0.8,2.8,3.4,4.7,6.3,4.7c0.4,0,0.8,0,1.2-0.1c0.2,0.5,0.4,0.9,0.6,1.4"
			/>
		<path class="st11" d="M2320.9,2845.4v0.4c6.5,12,12,22.2,12,22.2s-4,8.9-6.5,13.2c-0.9,0-2.9-1.5-5.5-4.2v210.7h12l66.7-242.4
			C2395.3,2848.9,2336.4,2857.2,2320.9,2845.4z"/>
		<polyline class="st5" points="2322.6,3087.4 2322.6,3101.7 2348.2,3101.7 2330.9,3093.7 2330.9,3087.1 		"/>
		<polyline class="st5" points="2448.8,2976.9 2448.8,2991.2 2474.4,2991.2 2457.1,2983.1 2457.1,2976.6 		"/>
	</g>
</g>
</svg>
