<?xml version="1.0" encoding="utf-8"?>
<!-- Generator: Adobe Illustrator 23.0.2, SVG Export Plug-In . SVG Version: 6.00 Build 0)  -->
<svg version="1.1" xmlns="http://www.w3.org/2000/svg" xmlns:xlink="http://www.w3.org/1999/xlink" x="0px" y="0px"
	 viewBox="0 0 900 769.5" style="enable-background:new 0 0 900 769.5;" xml:space="preserve">
<style type="text/css">
	.st0{fill:#F3F3F3;}
	.st1{fill:none;stroke:#172B4D;stroke-width:2.5;stroke-linecap:round;stroke-miterlimit:10;}
	.st2{fill:none;stroke:#DFDFDF;stroke-width:12.98;stroke-linecap:round;stroke-linejoin:round;}
	.st3{fill:#172B4D;stroke:#172B4D;stroke-miterlimit:10;}
	.st4{opacity:0.27;fill:#172B4D;stroke:#172B4D;stroke-miterlimit:10;enable-background:new    ;}
	.st5{fill:none;stroke:#172B4D;stroke-width:2.5;stroke-linecap:round;stroke-linejoin:round;}
	.st6{fill:#FFC88E;stroke:#172B4D;stroke-miterlimit:10;}
	.st7{fill:none;stroke:#172B4D;stroke-width:5.79;stroke-linecap:round;stroke-linejoin:round;}
	.st8{fill:#6A78D1;stroke:#172B4D;stroke-width:4;stroke-miterlimit:10;}
	.st9{fill:#6A78D1;}
	.st10{fill:#49C39E;}
	.st11{fill:#172B4D;}
	.st12{fill:#DFDFDF;}
	.st13{fill:#FFFFFF;}
	.st14{fill:#F5C26B;}
	.st15{fill:#F9F9F9;}
</style>
<g id="Layer_1">
	<g id="Vector_4_">
		<g>
			<path class="st0" d="M116.7-1880.1v278.5c0,2.6,2.1,4.7,4.7,4.7h660c2.6,0,4.7-2.1,4.7-4.7v-278.5c0-2.6-2.1-4.7-4.7-4.7h-660
				C118.8-1884.8,116.7-1882.7,116.7-1880.1z M370.8-1729.9l15.9-26.6c1.3-2.2,4.2-2.9,6.4-1.6l8,4.7c2.2,1.3,2.9,4.1,1.7,6.3
				l-1.1,1.9c-0.9,1.6-0.8,3.5,0.2,5l24.7,36c2.8,4-1.8,9.1-6.1,6.7l-47.8-25.9C370.3-1724.7,369.4-1727.6,370.8-1729.9z
				 M549.4-1772l-13.8-27.8c-1.1-2.3-0.2-5.1,2.1-6.2l8.3-4.2c2.3-1.1,5.1-0.2,6.2,2l1,1.9c0.8,1.6,2.5,2.6,4.3,2.5l43.6-1.2
				c4.9-0.1,6.7,6.4,2.4,8.8l-47.6,26.2C553.5-1768.8,550.6-1769.7,549.4-1772z"/>
			<g id="Layer_3_3_">
				<path class="st1" d="M252.6-1990.7c-7.7,4.8-22.9,8.9-53.8,9.9c-32.1,0-58.4-30.8-58.4-70.9c-0.9-87.5,90-104.1,140.6-201.7
					c23.2-44.9,51.4-43.8,58.5-43.4c15.5,0.8,37.5,13.1,37.5,34.4c0.1,7.6-3.2,14.8-8.9,19.8"/>
				<path class="st1" d="M350.8-2198c-3.3,7.9-10.3,21.1-12.5,36.2"/>
			</g>
			<path class="st2" d="M195.5-1816.6h532.7"/>
			<path class="st2" d="M195.5-1740.8h521"/>
			<path class="st3" d="M497.2-1968c19.1,0,47.2,114.6,59.4,148.3c-2.5,7-16.9,18-24.7,18c-15.2-25.5-49.3-80.1-55.3-88.5
				C471.7-1897,478-1968,497.2-1968z"/>
			<path class="st4" d="M490-2194.4c3.3-2.1,1.8-0.7,4.3-4.5"/>
			<path class="st1" d="M369.2-1989c-0.3,2.6-0.8,5.1-1.5,7.6c-31.1,13.2-112.2,5.2-114.4-3.9c-2-8.1-11.9-170,41.4-190.1"/>
			<path class="st1" d="M323.8-2173.3c39.7,19.9,48.5,106.5,47.4,157.5"/>
			<path class="st5" d="M310.8-2169.1c-8.2-1.2-17.4-4.2-16.4-5.7c9.1-15.4,11.1-31.5,12.6-40.5"/>
			<path class="st5" d="M330-2189.7c-1.7,4.1-4.7,11.5-6.2,16.4"/>
			<path class="st1" d="M278.9-2073.4c-0.5,3.9,0,8.7,0,11.6c-0.2,15.9,0.6,33.6,10.1,47c3.7,5.2,9.9,10.3,15.9,10.2
				c9.4,3.7,25.2,8,25.2,8l23.9,5.2c0,0,40.3,7.2,60.2,6.6c6.6-0.2,13.3-0.9,20-0.7c3.8,0.1,9.9,1.3,13.5,0c1-0.4,0.7-2.7,0.6-3.5
				c-0.8-3.2-3.9-5.4-6.6-6.8c-6.4-3.2-10.1-1.2-16.7-1c-5.4,0.1-11.9-2.7-21.3-6.3c-11.1-4.4-23.8-9.6-35.1-13.4
				c-12.9-4.4-26-9.1-38.6-14.2c-2.5-1-5.1-1.8-7.7-2.5c1.2-6.8,1.9-13.6,2.1-20.5c0.3-7.5,0.4-15.3-0.7-22.7"/>
			<path class="st1" d="M329.8-2100.7c1.5,10,1.6,18.1,0.7,20.6c-5.8,3.4-37.8,14.7-61.1,3.2c-7.2-19-0.9-78.5,22.3-82.3
				c6.1-0.9,11.3,1,15.9,4.8"/>
			<path class="st5" d="M320.3-2193c1.6,1,3.4,1.8,5.3,2.4c8.5,2.6,17.6-0.5,25.3-7.5"/>
			<path class="st5" d="M320.5-2232c-6.3,1.5-12.7,2.3-19.2,2.5c-1.1,1.4-1.7,3.2-1.8,4.9c0.1,4.1,3.1,7.6,7.2,8.3l0.2,0.9"/>
			<path class="st5" d="M350.8-2198c6.6-6,12.1-15,15.2-25.8c3.2-11.8,2.9-23.3-0.4-32.6c-1.7,1.7-3.5,3.3-5.4,4.8"/>
			<path class="st6" d="M390.3-1983.5c16.8,0,77.5-0.5,88.6-0.5"/>
			<path class="st7" d="M379.9-1982.7c17.7,0,79-1.5,89.1-1.5c7.8-12.1,44.4-76.1,46.9-80.9"/>
			<path class="st2" d="M190-1773l-41.8-41.8l41.8-41.8"/>
			<path class="st2" d="M708.9-1623.7l41.8-41.8l-41.8-41.8"/>
			<path class="st3" d="M497.2-1965.4c0.3-13.1-47.8-16.7-78.1-16.7c-13.6,0-34,0.7-53.2,1.5c-30.8,11.5-102.7,5-111.7-3.4
				c-4.2,4.7-6.7,13.6-6.7,30.3c0,39,42.7,71.6,93.2,71.6s73-1.3,77.6-2.4c1.4,12.9-28.5,101.4-31.6,124.2
				c2.2,6.1,17.1,13.6,23.3,13.6S499.3-1881.9,497.2-1965.4z"/>
			<polyline class="st8" points="389,-1760.6 368.3,-1725.7 437.4,-1688.4 400.2,-1742.7 405,-1751.1 			"/>
			<polyline class="st8" points="533.5,-1804 551.6,-1767.7 620.4,-1805.6 554.6,-1803.7 550.1,-1812.3 			"/>
		</g>
		<path class="st2" d="M195.5-1665.5h480.3"/>
	</g>
	<rect x="1605.5" y="-2546.9" class="st9" width="1800" height="1200"/>
	<g id="Vector_3_">
		<g>
			<path class="st0" d="M2170.9-1880.1v278.5c0,2.6,2.1,4.7,4.7,4.7h660c2.6,0,4.7-2.1,4.7-4.7v-278.5c0-2.6-2.1-4.7-4.7-4.7h-660
				C2173-1884.8,2170.9-1882.7,2170.9-1880.1z M2425-1729.9l15.9-26.6c1.3-2.2,4.2-2.9,6.4-1.6l8,4.7c2.2,1.3,2.9,4.1,1.7,6.3
				l-1.1,1.9c-0.9,1.6-0.8,3.5,0.2,5l24.7,36c2.8,4-1.8,9.1-6.1,6.7l-47.8-25.9C2424.4-1724.7,2423.6-1727.6,2425-1729.9z
				 M2603.6-1772l-13.8-27.8c-1.1-2.3-0.2-5.1,2.1-6.2l8.3-4.2c2.3-1.1,5.1-0.2,6.2,2l1,1.9c0.8,1.6,2.5,2.6,4.3,2.5l43.6-1.2
				c4.9-0.1,6.7,6.4,2.4,8.8L2610-1770C2607.7-1768.8,2604.8-1769.7,2603.6-1772z"/>
			<g id="Layer_3_2_">
				<path class="st1" d="M2306.8-1990.7c-7.7,4.8-22.9,8.9-53.8,9.9c-32.1,0-58.4-30.8-58.4-70.9c-0.9-87.5,90-104.1,140.6-201.7
					c23.2-44.9,51.4-43.8,58.5-43.4c15.5,0.8,37.5,13.1,37.5,34.4c0.1,7.6-3.2,14.8-8.9,19.8"/>
				<path class="st1" d="M2404.9-2198c-3.3,7.9-10.3,21.1-12.5,36.2"/>
			</g>
			<path class="st2" d="M2249.7-1816.6h532.7"/>
			<path class="st2" d="M2249.7-1740.8h521"/>
			<path class="st3" d="M2551.4-1968c19.1,0,47.2,114.6,59.4,148.3c-2.5,7-16.9,18-24.7,18c-15.2-25.5-49.3-80.1-55.3-88.5
				C2525.9-1897,2532.2-1968,2551.4-1968z"/>
			<path class="st4" d="M2544.2-2194.4c3.3-2.1,1.8-0.7,4.3-4.5"/>
			<path class="st1" d="M2423.4-1989c-0.3,2.6-0.8,5.1-1.5,7.6c-31.1,13.2-112.2,5.2-114.4-3.9c-2-8.1-11.9-170,41.4-190.1"/>
			<path class="st1" d="M2377.9-2173.3c39.7,19.9,48.5,106.5,47.4,157.5"/>
			<path class="st5" d="M2364.9-2169.1c-8.2-1.2-17.4-4.2-16.4-5.7c9.1-15.4,11.1-31.5,12.6-40.5"/>
			<path class="st5" d="M2384.1-2189.7c-1.7,4.1-4.7,11.5-6.2,16.4"/>
			<path class="st1" d="M2333-2073.4c-0.5,3.9,0,8.7,0,11.6c-0.2,15.9,0.6,33.6,10.1,47c3.7,5.2,9.9,10.3,15.9,10.2
				c9.4,3.7,25.2,8,25.2,8l23.9,5.2c0,0,40.3,7.2,60.2,6.6c6.6-0.2,13.3-0.9,20-0.7c3.8,0.1,9.9,1.3,13.5,0c1-0.4,0.7-2.7,0.6-3.5
				c-0.8-3.2-3.9-5.4-6.6-6.8c-6.4-3.2-10.1-1.2-16.7-1c-5.4,0.1-11.9-2.7-21.3-6.3c-11.1-4.4-23.8-9.6-35.1-13.4
				c-12.9-4.4-26-9.1-38.6-14.2c-2.5-1-5.1-1.8-7.7-2.5c1.2-6.8,1.9-13.6,2.1-20.5c0.3-7.5,0.4-15.3-0.7-22.7"/>
			<path class="st1" d="M2383.9-2100.7c1.5,10,1.6,18.1,0.7,20.6c-5.8,3.4-37.8,14.7-61.1,3.2c-7.2-19-0.9-78.5,22.3-82.3
				c6.1-0.9,11.3,1,15.9,4.8"/>
			<path class="st5" d="M2374.4-2193c1.6,1,3.4,1.8,5.3,2.4c8.5,2.6,17.6-0.5,25.3-7.5"/>
			<path class="st5" d="M2374.7-2232c-6.3,1.5-12.7,2.3-19.2,2.5c-1.1,1.4-1.7,3.2-1.8,4.9c0.1,4.1,3.1,7.6,7.2,8.3l0.2,0.9"/>
			<path class="st5" d="M2404.9-2198c6.6-6,12.1-15,15.2-25.8c3.2-11.8,2.9-23.3-0.4-32.6c-1.7,1.7-3.5,3.3-5.4,4.8"/>
			<path class="st6" d="M2444.5-1983.5c16.8,0,77.5-0.5,88.6-0.5"/>
			<path class="st7" d="M2434.1-1982.7c17.7,0,79-1.5,89.1-1.5c7.8-12.1,44.4-76.1,46.9-80.9"/>
			<path class="st2" d="M2244.1-1773l-41.8-41.8l41.8-41.8"/>
			<path class="st2" d="M2763.1-1623.7l41.8-41.8l-41.8-41.8"/>
			<path class="st3" d="M2551.4-1965.4c0.3-13.1-47.8-16.7-78.1-16.7c-13.6,0-34,0.7-53.2,1.5c-30.8,11.5-102.7,5-111.7-3.4
				c-4.2,4.7-6.7,13.6-6.7,30.3c0,39,42.7,71.6,93.2,71.6s73-1.3,77.6-2.4c1.4,12.9-28.5,101.4-31.6,124.2
				c2.2,6.1,17.1,13.6,23.3,13.6C2470.4-1746.7,2553.5-1881.9,2551.4-1965.4z"/>
			<polyline class="st8" points="2443.2,-1760.6 2422.5,-1725.7 2491.6,-1688.4 2454.4,-1742.7 2459.2,-1751.1 			"/>
			<polyline class="st8" points="2587.7,-1804 2605.8,-1767.7 2674.6,-1805.6 2608.7,-1803.7 2604.3,-1812.3 			"/>
		</g>
		<path class="st2" d="M2249.7-1665.5h480.3"/>
	</g>
</g>
<g id="Layer_2">
	<rect x="1605.5" y="-1284.7" class="st10" width="1800" height="1200"/>
	<g id="Vector_1_">
		<path class="st11" d="M2885.7-687.5c-12.6,7.6-56.6,10.9-86.8,9.1v8.1l74.2,265.6h27.9L2885.7-687.5L2885.7-687.5z"/>
		<polygon class="st11" points="2827,-576.8 2800.4,-530.3 2793.8,-674.6 2836.1,-673.2 		"/>
		<path class="st5" d="M2825.7-868.3c-6.6-9.2-19.3-29.5-23.2-45c-4.9-19.8-5.4,58.1-5.4,58.1l6.2,5.5"/>
		<path class="st5" d="M2773.8-775.2c10-48.8,31.5-98.7,72.1-96.9"/>
		<path class="st5" d="M2900.1-796c5,47-4.9,99.8-12.3,107c-13,12.7-109.1,15.1-118.4,4.4c-3.3-3.8-4.2-31,0-63.5"/>
		<rect x="2098.7" y="-989.3" class="st12" width="704.7" height="195.6"/>
		<path class="st0" d="M2735.8-759.9c-4,1.5-9.2,1.6-14.5,0.1c-10-2.9-16.6-10.7-14.6-17.4c1.9-6.7,11.7-9.8,21.7-6.9
			c4.4,1.2,8.4,3.6,11.5,7c20.8-0.2,47.3,3.5,63.5,6.1v-157.1h-704.7v520h704.7v-332C2773.4-745.1,2744-756.4,2735.8-759.9z"/>
		<path class="st5" d="M2866.2-866.6c11.7,6.4,19.9,18.2,25.4,32.7"/>
		<path class="st5" d="M2871.7-895.1c0,0-7,36.2-7.7,41.3c-0.5,3.1-11.9,3-20.5,0.8"/>
		<path class="st5" d="M2848-879.2c-1.3,0-2.7-0.1-4-0.4c-16.5-3.1-26.4-24.1-22.1-47.1c1.6-8.9,5.4-17.3,11.1-24.4"/>
		<path class="st5" d="M2879.6-922.9c5.3,1.1,8.7,6.2,7.6,11.5c-1.1,5.3-6.2,8.7-11.5,7.6c-1.9-0.4-3.6-1.3-4.9-2.7"/>
		<path class="st5" d="M2769.3-748.2c20.5,6,46.3,11.5,67.4,9.6c3.9,0.3,16.1-10.1,23.1-16.7"/>
		<path class="st5" d="M2829.6-784.1c-5.5,4-9.9,9.2-12.9,15.3c-8.1-1.5-47.9-8.6-76.9-8.4c-3.1-3.4-7.1-5.8-11.5-7
			c-10-2.9-19.7,0.2-21.7,6.9c-1.9,6.7,4.6,14.5,14.6,17.4c5.3,1.6,10.5,1.4,14.5-0.1c10.9,4.5,22.1,8.5,33.5,11.8"/>
		<polygon class="st12" points="2531,-827.7 2272.6,-827.7 2272.6,-408.3 2626,-408.3 2626,-732.7 		"/>
		<circle class="st13" cx="2368.5" cy="-667.4" r="41"/>
		<rect x="2431.6" y="-635.8" class="st13" width="139.4" height="11"/>
		<rect x="2327.5" y="-586.5" class="st13" width="243.5" height="11"/>
		<rect x="2327.5" y="-537.2" class="st13" width="243.5" height="11"/>
		<path class="st0" d="M2551.1-1005.4c0,8.8-27.1,77.1-171.7,77.1c0,14.7,179.3,7.3,179.3,7.3l2.6-83L2551.1-1005.4z"/>
		<path class="st5" d="M2866.7-830.8c12.6-5.6,25.3-6.8,33.6,2.6c17.9,20.2-26.1,78.2-34.6,75.8c-10-2.8-40.4-31.3-40.6-41.1"/>
		<path class="st5" d="M2890.7-915.6c5.8-2.9,10.9-28.7-0.5-39.3c-11.1-10.3-48.1-22.3-62.4-36.5"/>
		<path class="st5" d="M2834.6-966.2c-3.3-3.2-12.4-20.6-13.6-25.1"/>
		<path class="st5" d="M2822.4-961.8c-3.4-4.9-5.1-12.8-5.5-18"/>
		<ellipse class="st11" cx="2845.7" cy="-927.2" rx="2.3" ry="2.7"/>
		<path class="st5" d="M2836.3-931.9c-0.5,2.8-3.3,10.4-7.5,16.8"/>
		<path class="st5" d="M2837.5-901.8c2.5-0.2,4.7-1.6,5.8-3.8"/>
		<polyline class="st5" points="2877,-404.7 2877,-383.6 2912.3,-334.7 2894.7,-393.1 2894.7,-404.7 		"/>
		<path class="st0" d="M2784.2-1024.5h-23.2c1.1,2.1,1.7,4.5,1.7,6.9c0,9.5-9,17.2-20.1,17.2c-11.1,0-20.1-7.7-20.1-17.2
			c0-2.4,0.6-4.8,1.7-6.9h-154.1c-10.6,0-19.1,8.6-19.1,19.1v78.5c0,10.6,8.6,19.1,19.1,19.1h214c10.6,0,19.1-8.6,19.1-19.1v-78.5
			C2803.4-1015.9,2794.8-1024.5,2784.2-1024.5z"/>
		<ellipse class="st5" cx="2742.7" cy="-1017.5" rx="20.1" ry="17.2"/>
	</g>
	<g id="Vector_6_">
		<path class="st11" d="M828.1-908.4c-12.6,7.6-56.6,10.9-86.8,9.1v8.1l74.2,265.6h27.9L828.1-908.4L828.1-908.4z"/>
		<polygon class="st11" points="769.4,-797.6 742.9,-751.2 736.2,-895.5 778.5,-894.1 		"/>
		<path class="st5" d="M768.1-1089.2c-6.6-9.2-19.3-29.5-23.2-45c-4.9-19.8-5.4,58.1-5.4,58.1l6.2,5.5"/>
		<path class="st5" d="M716.2-996.1c10-48.8,31.5-98.7,72.1-96.9"/>
		<path class="st5" d="M842.5-1016.9c5,47-4.9,99.8-12.3,107c-13,12.7-109.1,15.1-118.4,4.4c-3.3-3.8-4.2-31,0-63.5"/>
		<rect x="41.1" y="-1210.2" class="st12" width="704.7" height="195.6"/>
		<path class="st0" d="M678.2-980.8c-4,1.5-9.2,1.6-14.5,0.1c-10-2.9-16.6-10.7-14.6-17.4c1.9-6.7,11.7-9.8,21.7-6.9
			c4.4,1.2,8.4,3.6,11.5,7c20.8-0.2,47.3,3.5,63.5,6.1v-157.1H41.1v520h704.7v-332C715.9-965.9,686.4-977.3,678.2-980.8z"/>
		<path class="st5" d="M808.7-1087.5c11.7,6.4,19.9,18.2,25.4,32.7"/>
		<path class="st5" d="M814.1-1116c0,0-7,36.2-7.7,41.3c-0.5,3.1-11.9,3-20.5,0.8"/>
		<path class="st5" d="M790.4-1100.1c-1.3,0-2.7-0.1-4-0.4c-16.5-3.1-26.4-24.1-22.1-47.1c1.6-8.9,5.4-17.3,11.1-24.4"/>
		<path class="st5" d="M822.1-1143.8c5.3,1.1,8.7,6.2,7.6,11.5c-1.1,5.3-6.2,8.7-11.5,7.6c-1.9-0.4-3.6-1.3-4.9-2.7"/>
		<path class="st5" d="M711.7-969c20.5,6,46.3,11.5,67.4,9.6c3.9,0.3,16.1-10.1,23.1-16.7"/>
		<path class="st5" d="M772-1005c-5.5,4-9.9,9.2-12.9,15.3c-8.1-1.5-47.9-8.6-76.9-8.4c-3.1-3.4-7.1-5.8-11.5-7
			c-10-2.9-19.7,0.2-21.7,6.9c-1.9,6.7,4.6,14.5,14.6,17.4c5.3,1.6,10.5,1.4,14.5-0.1c10.9,4.5,22.1,8.5,33.5,11.8"/>
		<polygon class="st12" points="473.4,-1048.6 215,-1048.6 215,-629.2 568.4,-629.2 568.4,-953.5 		"/>
		<circle class="st13" cx="311" cy="-888.3" r="41"/>
		<rect x="374" y="-856.7" class="st13" width="139.4" height="11"/>
		<rect x="269.9" y="-807.4" class="st13" width="243.5" height="11"/>
		<rect x="269.9" y="-758.1" class="st13" width="243.5" height="11"/>
		<path class="st0" d="M493.6-1226.3c0,8.8-27.1,77.1-171.7,77.1c0,14.7,179.3,7.3,179.3,7.3l2.6-83L493.6-1226.3z"/>
		<path class="st5" d="M809.2-1051.7c12.6-5.6,25.3-6.8,33.6,2.6c17.9,20.2-26.1,78.2-34.6,75.8c-10-2.8-40.4-31.3-40.6-41.1"/>
		<path class="st5" d="M833.1-1136.5c5.8-2.9,10.9-28.7-0.5-39.3c-11.1-10.3-48.1-22.3-62.4-36.5"/>
		<path class="st5" d="M777-1187c-3.3-3.2-12.4-20.6-13.6-25.1"/>
		<path class="st5" d="M764.8-1182.7c-3.4-4.9-5.1-12.8-5.5-18"/>
		<ellipse class="st11" cx="788.1" cy="-1148.1" rx="2.3" ry="2.7"/>
		<path class="st5" d="M778.8-1152.8c-0.5,2.8-3.3,10.4-7.5,16.8"/>
		<path class="st5" d="M780-1122.7c2.5-0.2,4.7-1.6,5.8-3.8"/>
		<polyline class="st5" points="819.5,-625.6 819.5,-604.5 854.8,-555.6 837.1,-614 837.1,-625.6 		"/>
		<path class="st0" d="M726.7-1245.4h-23.2c1.1,2.1,1.7,4.5,1.7,6.9c0,9.5-9,17.2-20.1,17.2c-11.1,0-20.1-7.7-20.1-17.2
			c0-2.4,0.6-4.8,1.7-6.9H512.7c-10.6,0-19.1,8.6-19.1,19.1v78.5c0,10.6,8.6,19.1,19.1,19.1h214c10.6,0,19.1-8.6,19.1-19.1v-78.5
			C745.8-1236.8,737.2-1245.4,726.7-1245.4z"/>
		<ellipse class="st5" cx="685.1" cy="-1238.4" rx="20.1" ry="17.2"/>
	</g>
</g>
<g id="Layer_3_1_">
	<rect x="1605.5" class="st14" width="1800" height="1200"/>
	<g id="Vector_2_">
		<polygon class="st0" points="437.4,35.1 437.4,432.5 450.9,432.5 450.9,518.6 770.2,518.6 770.2,35.1 		"/>
		<rect x="437.4" y="35.1" class="st12" width="332.8" height="31.1"/>
		<rect x="514.2" y="105.5" class="st12" width="279.5" height="79.6"/>
		<rect x="530.6" y="120.9" class="st15" width="249.9" height="7.2"/>
		<rect x="530.6" y="138.1" class="st15" width="249.9" height="7.2"/>
		<rect x="530.6" y="155.3" class="st15" width="249.9" height="7.2"/>
		<rect x="514.2" y="217.1" class="st12" width="279.5" height="79.6"/>
		<circle class="st15" cx="551.5" cy="256.9" r="23.7"/>
		<rect x="592.7" y="233.2" class="st15" width="182" height="22.9"/>
		<rect x="592.7" y="263.9" class="st15" width="182" height="8.4"/>
		<rect x="469.9" y="331.3" class="st13" width="262.5" height="129.2"/>
		<path class="st1" d="M450.9,743.6V432.5h-99.6v311.2 M387,448.9v-14.3l8.3-0.3v6.6l17.3,8H387z"/>
		<path class="st1" d="M322.2,743.6V535.5h-99.6v208.1 M260.9,559.4v-14.3l8.3-0.3v6.6l17.2,8H260.9z"/>
		<polyline class="st1" points="93.7,743.6 93.7,625.2 193.4,625.2 193.4,743.6 		"/>
		<path class="st11" d="M337.8,303.1c6.9,0,62.5,7.9,86.9,20.3c-3.3,16.3-25.2,112.3-25.2,112.3h-13.6c0,0-5.1-80.8-6.2-80.1
			c-7.4,3.8-36.6,13.4-67.9,13.8"/>
		<path class="st5" d="M353.3,203.2c4.7,3.4,12.2,9.9,13.8,12.6c18.8-23.4,49.9-47.1,52.4-49.8s3.3-17.9,3.3-21.3s4.6-12.2,9-12.2
			v39.9c0,0-51.9,72.8-60.5,72.8c-4.4,0-22.6-7.6-31.8-12.6"/>
		<path class="st1" d="M322.3,184.6c13.9,2,32.1,11,32.1,14.6c0,4.2-9,20-16,26.5"/>
		<path class="st1" d="M335.5,114.7c0.9-1.5,1.3-3.1,1.3-4.9c0-6.2-5.2-7.1-7.6-9c-2.5-2.1-1.4-8.4-8.3-8.4c-6.2,0-9.2,6.5-13.1,9
			c-4.8,3-14.1,0.6-20.3,6.9c-3,3.1-3.7,10.7-5.5,13.4c-2.5,3.8-6.9,4.9-6.9,10.6c0,3.5,2.4,8.9,5.7,11.3"/>
		<path class="st1" d="M310.8,174.7c37.3,18.9,34.3,122.9,27.1,128.4c-7.9,6.1-73.1,9.1-79.1,0c-2.8-4.2-4.8-33-1.3-62.5"/>
		<path class="st1" d="M275.1,184.7c4.3-5.8,9.5-10.1,15.8-11.9"/>
		<path class="st1" d="M238.2,215.9c-10.5,12-26.3,42.6-26.3,48.1c0,13.9,46.8,74.9,52.7,74.9c2.5-4.3,6.5-13.2,6.5-13.2
			s-28.1-52.4-33.3-59.2c4.5-4.2,20.7-26,23.3-32.7c0.4-0.9,0.6-1.9,0.8-2.8"/>
		<path class="st1" d="M267,232.1c-5.3,0.3-30.4-13.1-30.4-19.7c0-5.3,27.5-33.8,39.4-27.3c1.7,0.9,2.8,2.6,3.5,4.8"/>
		<path class="st1" d="M310.8,174.7v-8.7"/>
		<path class="st1" d="M290.8,150.5v24.9c0,3.5,5,5.3,10,5.3"/>
		<path class="st1" d="M310.8,165.9c0.8,0,1.6-0.2,2.3-0.3c10.3-2.4,15.7-16.5,12.2-31.5c-0.6-2.7-1.5-5.4-2.7-7.9"/>
		<path class="st1" d="M287.2,136.4c-3.5,1-5.5,4.6-4.5,8.1c0.8,2.8,3.4,4.7,6.3,4.7c0.4,0,0.8,0,1.2-0.1c0.2,0.5,0.4,0.9,0.6,1.4"
			/>
		<path class="st11" d="M259.2,303.1v0.4c6.5,12,12,22.2,12,22.2s-4,8.9-6.5,13.2c-0.9,0-2.9-1.5-5.5-4.2v210.7h12l66.7-242.4
			C333.5,306.6,274.6,315,259.2,303.1z"/>
		<polyline class="st5" points="260.9,545.2 260.9,559.4 286.4,559.4 269.2,551.4 269.2,544.8 		"/>
		<polyline class="st5" points="387,434.6 387,448.9 412.6,448.9 395.3,440.8 395.3,434.3 		"/>
	</g>
</g>
</svg>
