<?xml version="1.0" encoding="utf-8"?>
<!-- Generator: Adobe Illustrator 22.1.0, SVG Export Plug-In . SVG Version: 6.00 Build 0)  -->
<svg version="1.1" id="Layer_1" xmlns="http://www.w3.org/2000/svg" xmlns:xlink="http://www.w3.org/1999/xlink" x="0px" y="0px"
	 viewBox="0 0 800 182" style="enable-background:new 0 0 800 182;" xml:space="preserve">
<style type="text/css">
	.st0{fill:#FFFFFF;}
	.st1{font-family:'TTCommons-Medium';}
	.st2{font-size:173.3725px;}
	.st3{letter-spacing:-4;}
	.st4{fill:#6A78D1;}
	.st5{fill:#49C39E;}
	.st6{fill:#F2545B;}
	.st7{fill:#F5C26B;}
</style>
<g>
	<g>
		<g>
			<text transform="matrix(1 0 0 1 188.2144 143.9648)" class="st0 st1 st2 st3">Budibase</text>
		</g>
	</g>
	<g>
		<g>
			<path class="st0" d="M88,5.3l62.7,36.7c4.3,2.5,6.9,7.1,6.9,12.2v73.5c0,5-2.6,9.6-6.9,12.2L88,176.6c-4.3,2.5-9.6,2.5-13.8,0
				l-62.7-36.7c-4.3-2.5-6.9-7.1-6.9-12.2V54.2c0-5,2.6-9.6,6.9-12.2L74.2,5.3C78.5,2.8,83.7,2.8,88,5.3z"/>
		</g>
		<g>
			<path class="st4" d="M122,124.9L83.8,145c-1.7,0.9-3.7,0.9-5.4,0l-38.2-20.1c-3.8-2-3.8-7.1,0-9.1l38.2-20.1
				c1.7-0.9,3.7-0.9,5.4,0l38.2,20.1C125.8,117.8,125.8,122.9,122,124.9z"/>
			<path class="st5" d="M122,105.3l-38.2,20.1c-1.7,0.9-3.7,0.9-5.4,0l-38.2-20.1c-3.8-2-3.8-7.1,0-9.1l38.2-20.1
				c1.7-0.9,3.7-0.9,5.4,0L122,96.2C125.8,98.2,125.8,103.3,122,105.3z"/>
			<path class="st6" d="M122,85.7l-38.2,20.1c-1.7,0.9-3.7,0.9-5.4,0L40.2,85.7c-3.8-2-3.8-7.1,0-9.1l38.2-20.1
				c1.7-0.9,3.7-0.9,5.4,0L122,76.6C125.8,78.6,125.8,83.7,122,85.7z"/>
			<path class="st7" d="M122,66.1L83.8,86.2c-1.7,0.9-3.7,0.9-5.4,0L40.2,66.1c-3.8-2-3.8-7.1,0-9.1l38.2-20.1
				c1.7-0.9,3.7-0.9,5.4,0L122,57C125.8,59,125.8,64.1,122,66.1z"/>
		</g>
	</g>
</g>
</svg>
