<?xml version="1.0" encoding="utf-8"?>
<!-- Generator: Adobe Illustrator 23.0.3, SVG Export Plug-In . SVG Version: 6.00 Build 0)  -->
<svg version="1.1" id="Layer_1" xmlns="http://www.w3.org/2000/svg" xmlns:xlink="http://www.w3.org/1999/xlink" x="0px" y="0px"
	 viewBox="0 0 673.3 182" style="enable-background:new 0 0 673.3 182;" text-rendering="geometricPrecision" xml:space="preserve">
<style type="text/css">
	.st0{fill:#172B4D;}
	.st1{fill:#6A78D1;}
	.st2{fill:#49C39E;}
	.st3{fill:#F2545B;}
	.st4{fill:#F5C26B;}
</style>
<g>
	<g>
		<path class="st0" d="M230.5,135.5c-2.7,0-5.1-0.3-7.2-1c-2.1-0.7-4-1.5-5.5-2.3c-1.8-1-3.3-2.1-4.7-3.3l-2.7,6H197V50.6h18.1V78
			c1.2-1,2.5-1.9,4.1-2.7c1.3-0.7,3-1.3,4.9-1.9c1.9-0.5,4-0.8,6.4-0.8c3.8,0,7.5,0.8,11,2.3c3.5,1.6,6.5,3.7,9.2,6.6
			c2.6,2.8,4.7,6.1,6.3,10c1.6,3.8,2.3,8,2.3,12.6c0,4.5-0.8,8.7-2.3,12.6c-1.6,3.8-3.7,7.2-6.3,10c-2.6,2.8-5.7,5-9.2,6.6
			S234.3,135.5,230.5,135.5z M241.2,104.1c0-4.4-1.3-7.9-3.9-10.6c-2.6-2.7-5.8-4.1-9.5-4.1s-6.9,1.4-9.5,4.1
			c-2.6,2.7-3.9,6.3-3.9,10.6c0,4.4,1.3,7.9,3.9,10.6c2.6,2.7,5.8,4.1,9.5,4.1s6.9-1.4,9.5-4.1C239.9,112,241.2,108.4,241.2,104.1z"
			/>
		<path class="st0" d="M289.4,135.5c-3.7,0-7-0.6-10-1.8c-3-1.2-5.6-2.9-7.8-5.2c-2.2-2.3-3.9-5-5.1-8.2c-1.2-3.2-1.8-6.8-1.8-10.8
			V73.3h18.1v32.8c0,4,1,7.1,3.1,9.4c2.1,2.2,4.8,3.3,8.2,3.3c3.4,0,6.1-1.1,8.2-3.3c2.1-2.2,3.1-5.4,3.1-9.4V73.3h18.1v61.5h-13.4
			l-2.7-6c-1.5,1.3-3.2,2.4-5.1,3.3c-1.6,0.9-3.5,1.7-5.7,2.3C294.5,135.2,292.1,135.5,289.4,135.5z"/>
		<path class="st0" d="M358.5,135.5c-3.8,0-7.5-0.8-11-2.3c-3.5-1.6-6.5-3.7-9.2-6.6c-2.6-2.8-4.7-6.1-6.3-10
			c-1.6-3.8-2.3-8-2.3-12.6c0-4.5,0.8-8.7,2.3-12.6c1.6-3.8,3.7-7.2,6.3-10c2.6-2.8,5.7-5,9.2-6.6c3.5-1.6,7.1-2.3,11-2.3
			c2.3,0,4.4,0.3,6.4,0.8c1.9,0.5,3.5,1.2,4.9,1.9c1.6,0.8,3,1.7,4.1,2.7V50.6H392v84.3h-13.4l-2.7-6c-1.4,1.3-3,2.4-4.7,3.3
			c-1.5,0.9-3.3,1.7-5.5,2.3C363.6,135.2,361.2,135.5,358.5,135.5z M347.8,104.1c0,4.4,1.3,7.9,3.9,10.6c2.6,2.7,5.8,4.1,9.5,4.1
			c3.7,0,6.9-1.4,9.5-4.1c2.6-2.7,3.9-6.3,3.9-10.6c0-4.4-1.3-7.9-3.9-10.6c-2.6-2.7-5.8-4.1-9.5-4.1c-3.7,0-6.9,1.4-9.5,4.1
			C349.1,96.2,347.8,99.7,347.8,104.1z"/>
		<path class="st0" d="M400.9,56.6c0-2.7,1-5,3-7c2-2,4.3-3,7-3c2.7,0,5,1,7,3s3,4.3,3,7c0,2.7-1,5-3,7s-4.3,3-7,3c-2.7,0-5-1-7-3
			C401.9,61.6,400.9,59.3,400.9,56.6z M419.7,134.8h-18.1V73.3h18.1V134.8z"/>
		<path class="st0" d="M463.1,135.5c-2.7,0-5.1-0.3-7.2-1c-2.1-0.7-4-1.5-5.5-2.3c-1.8-1-3.3-2.1-4.7-3.3l-2.7,6h-13.4V50.6h18.1V78
			c1.2-1,2.5-1.9,4.1-2.7c1.3-0.7,3-1.3,4.9-1.9c1.9-0.5,4-0.8,6.4-0.8c3.8,0,7.5,0.8,11,2.3c3.5,1.6,6.5,3.7,9.2,6.6
			c2.6,2.8,4.7,6.1,6.3,10c1.6,3.8,2.3,8,2.3,12.6c0,4.5-0.8,8.7-2.3,12.6c-1.6,3.8-3.7,7.2-6.3,10c-2.6,2.8-5.7,5-9.2,6.6
			C470.6,134.7,467,135.5,463.1,135.5z M473.8,104.1c0-4.4-1.3-7.9-3.9-10.6c-2.6-2.7-5.8-4.1-9.5-4.1s-6.9,1.4-9.5,4.1
			c-2.6,2.7-3.9,6.3-3.9,10.6c0,4.4,1.3,7.9,3.9,10.6c2.6,2.7,5.8,4.1,9.5,4.1s6.9-1.4,9.5-4.1C472.5,112,473.8,108.4,473.8,104.1z"
			/>
		<path class="st0" d="M524,72c3.7,0,7,0.6,10.2,1.9c3.1,1.3,5.8,3,8.1,5.3c2.3,2.3,4,5,5.3,8.1c1.2,3.1,1.9,6.5,1.9,10.2v37.5
			h-13.4l-2.7-6c-1.5,1.3-3.2,2.4-5.1,3.3c-1.6,0.9-3.5,1.7-5.7,2.3c-2.2,0.7-4.6,1-7.3,1c-6.7,0-11.8-1.6-15.4-4.9
			c-3.6-3.3-5.4-7.4-5.4-12.5c0-3,0.6-5.8,1.8-8.4c1.2-2.5,3.2-4.7,6.1-6.6c2.9-1.8,6.6-3.3,11.3-4.3c4.7-1,10.5-1.5,17.6-1.5
			c0-3-0.8-5.4-2.3-7c-1.5-1.6-3.4-2.4-5.8-2.4c-1.7,0-3.1,0.3-4.1,1c-1,0.7-1.9,1.4-2.5,2.1c-0.7,0.9-1.2,1.9-1.5,2.9l-18.1-1.3
			c0.5-3,1.5-5.8,2.8-8.4c1.3-2.5,3.1-4.7,5.3-6.6c2.2-1.8,4.8-3.3,8-4.3C516.4,72.5,520,72,524,72z M520,122.1c3.4,0,6.1-1,8.2-3.1
			c2.1-2.1,3.1-4.8,3.1-8.2v-2.7c-3.8,0-7,0.2-9.4,0.6c-2.5,0.4-4.4,1-5.8,1.7c-1.4,0.7-2.3,1.6-2.8,2.5c-0.5,1-0.7,2.1-0.7,3.2
			c0,1.7,0.6,3.1,1.9,4.3C515.9,121.6,517.7,122.1,520,122.1z"/>
		<path class="st0" d="M572.3,114.8c0.4,2.1,1.2,3.7,2.5,4.9c1.3,1.2,3.2,1.8,5.5,1.8c2.3,0,4.1-0.6,5.4-1.7
			c1.3-1.1,1.9-2.3,1.9-3.7c0-1.1-0.8-1.9-2.3-2.6c-1.6-0.7-3.5-1.3-5.8-2c-2.3-0.7-4.8-1.4-7.6-2.3c-2.7-0.9-5.2-2.1-7.6-3.5
			c-2.3-1.5-4.3-3.4-5.8-5.8c-1.6-2.4-2.3-5.4-2.3-9.1c0-2.5,0.5-4.9,1.6-7.2c1.1-2.3,2.6-4.3,4.6-6c2-1.7,4.5-3.1,7.4-4.1
			c2.9-1,6.2-1.5,9.8-1.5c8,0,14.1,1.8,18.3,5.4c4.2,3.6,6.8,8,7.8,13.4L588.3,92c-0.4-1.3-1.2-2.6-2.4-3.7c-1.3-1.1-2.9-1.7-5-1.7
			c-2.1,0-3.6,0.4-4.5,1.3c-1,0.9-1.5,2-1.5,3.3c0,1.2,0.8,2.1,2.3,2.7c1.6,0.6,3.5,1.3,5.8,1.9c2.3,0.7,4.8,1.5,7.6,2.3
			c2.7,0.9,5.2,2.1,7.6,3.5c2.3,1.5,4.3,3.4,5.8,5.8c1.6,2.4,2.3,5.4,2.3,9.1c0,2.5-0.6,4.9-1.7,7.2c-1.1,2.3-2.7,4.4-4.9,6.2
			c-2.1,1.8-4.8,3.3-7.8,4.3c-3.1,1.1-6.5,1.6-10.4,1.6c-8.4,0-14.7-1.8-18.9-5.5c-4.2-3.7-6.8-8.5-7.8-14.6L572.3,114.8z"/>
		<path class="st0" d="M669,116.8c-0.8,2.5-2,4.9-3.6,7.2c-1.6,2.3-3.6,4.4-6,6.2c-2.4,1.8-5.2,3.3-8.4,4.3
			c-3.2,1.1-6.8,1.6-10.8,1.6c-4.2,0-8.1-0.8-11.8-2.5c-3.7-1.6-7-3.9-9.8-6.8s-5-6.3-6.7-10.2c-1.7-3.9-2.5-8.1-2.5-12.6
			c0-4.5,0.8-8.8,2.5-12.6c1.7-3.9,3.9-7.3,6.8-10.2c2.9-2.9,6.2-5.2,10-6.8s7.9-2.5,12.2-2.5c4.2,0,8.1,0.8,11.8,2.3
			c3.7,1.5,6.8,3.7,9.6,6.5c2.7,2.8,4.9,6.2,6.4,10.2c1.6,4,2.3,8.4,2.3,13.2c0,0.7,0,1.4-0.1,2.1c-0.1,0.7-0.2,1.3-0.3,1.9
			c-0.1,0.7-0.2,1.4-0.3,2h-42.1c0.7,2.3,2.2,4.5,4.3,6.4c2.2,2,5,2.9,8.4,2.9c1.7,0,3.1-0.2,4.3-0.6c1.2-0.4,2.2-0.9,2.9-1.4
			c0.9-0.5,1.6-1.2,2.1-2L669,116.8z M640.9,88.7c-3.4,0-6.2,1-8.4,3c-2.2,2-3.6,4.3-4.3,7h25.4c-0.7-2.7-2.2-5-4.3-7
			C647.1,89.7,644.3,88.7,640.9,88.7z"/>
	</g>
	<g>
		<g>
			<path class="st0" d="M87.7,3.6L152,41.3c4.4,2.6,7.1,7.3,7.1,12.5V129c0,5.1-2.7,9.9-7.1,12.5l-64.3,37.6
				c-4.4,2.6-9.8,2.6-14.2,0L9.3,141.4c-4.4-2.6-7.1-7.3-7.1-12.5V53.7c0-5.1,2.7-9.9,7.1-12.5L73.5,3.6C77.9,1.1,83.3,1.1,87.7,3.6
				z"/>
		</g>
		<g>
			<path class="st1" d="M122.5,126.1l-39.2,20.6c-1.7,0.9-3.8,0.9-5.5,0l-39.2-20.6c-3.9-2-3.9-7.3,0-9.3l39.2-20.6
				c1.7-0.9,3.8-0.9,5.5,0l39.2,20.6C126.4,118.9,126.4,124.1,122.5,126.1z"/>
			<path class="st2" d="M122.5,106.1l-39.2,20.6c-1.7,0.9-3.8,0.9-5.5,0l-39.2-20.6c-3.9-2-3.9-7.3,0-9.3l39.2-20.6
				c1.7-0.9,3.8-0.9,5.5,0l39.2,20.6C126.4,98.8,126.4,104,122.5,106.1z"/>
			<path class="st3" d="M122.5,86l-39.2,20.6c-1.7,0.9-3.8,0.9-5.5,0L38.7,86c-3.9-2-3.9-7.3,0-9.3l39.2-20.6c1.7-0.9,3.8-0.9,5.5,0
				l39.2,20.6C126.4,78.7,126.4,84,122.5,86z"/>
			<path class="st4" d="M122.5,65.9L83.4,86.5c-1.7,0.9-3.8,0.9-5.5,0L38.7,65.9c-3.9-2-3.9-7.3,0-9.3L77.9,36
				c1.7-0.9,3.8-0.9,5.5,0l39.2,20.6C126.4,58.6,126.4,63.9,122.5,65.9z"/>
		</g>
	</g>
</g>
</svg>
