<svg class="canvas" viewBox="0 0 1920 1080" preserveAspectRatio="xMaxYMid slice" xmlns="http://www.w3.org/2000/svg" version="1.1" xmlns:xlink="http://www.w3.org/1999/xlink" xmlns:svgjs="http://svgjs.dev/svgjs"><rect width="1920" height="1080" fill="hsl(219, 65%, 15%)"></rect><defs><linearGradient x1="0.5" y1="0" x2="0" y2="1" id="SvgjsLinearGradient1004"><stop stop-color="#3460b2" offset="0"></stop><stop stop-color="#1f113b" offset="0.1"></stop></linearGradient><linearGradient x1="0.5" y1="0" x2="0" y2="1" id="SvgjsLinearGradient1005"><stop stop-color="#3460b2" offset="0"></stop><stop stop-color="#1f113b" offset="0.55"></stop></linearGradient></defs><path d="M0,412.6717851802597C53.91322541462808,440.7845783076838,218.71272270029544,515.4352409377257,323.4793524877685,581.3485439448041C428.24598227524154,647.2618469518825,521.1145717763156,736.7604268439028,628.5997787248384,808.1516032227303C736.0849856733612,879.5427796015578,858.8064898833135,951.3969211633635,968.3905941789048,1009.6956022177687C1077.974698474496,1067.994283272174,1176.9765850675944,1102.9254846681658,1286.1044044983864,1157.943689549162C1395.2322239291784,1212.961894430158,1517.5082448467206,1272.996407401964,1623.157510763656,1339.8048315037456C1728.8067766805916,1406.6132556055272,1870.5262517939427,1522.2960003838339,1920,1558.7942341598514L 1920 1080 L 0 1080 Z" fill="url(&quot;#SvgjsLinearGradient1004&quot;)"></path><path d="M0,545.017799826127C36.94492410918608,563.336000338336,130.83135364726581,625.4093036303293,221.6695446551165,654.9270028993811C312.5077356629672,684.444702168433,448.44742708792876,683.1471020769413,545.0291460471041,722.1239954404377C641.6108650062794,761.1008888039341,709.5646085674404,853.3370770961822,801.1598584101682,888.7883630803592C892.7551082528961,924.2396490645363,993.3227452154708,904.6254398550477,1094.6006451034714,934.8317113454999C1195.878544991472,965.0379828359521,1324.801850481256,1037.0039838467299,1408.8272577381715,1070.0259920230721C1492.852664995087,1103.0480001994144,1513.5576316013264,1104.9549216880782,1598.7530886449645,1132.9637604035534C1683.9485456886025,1160.9725991190285,1866.458848107494,1220.5598136638614,1920,1238.0790243159229L 1920 1080 L 0 1080 Z" fill="url(&quot;#SvgjsLinearGradient1005&quot;)"></path></svg>