<svg class="canvas" viewBox="0 0 1920 1080" preserveAspectRatio="xMaxYMid slice" xmlns="http://www.w3.org/2000/svg" version="1.1" xmlns:xlink="http://www.w3.org/1999/xlink" xmlns:svgjs="http://svgjs.dev/svgjs"><rect width="1920" height="1080" fill="hsl(253, 65%, 15%)"></rect><defs><linearGradient x1="0.5" y1="0" x2="0" y2="1" id="SvgjsLinearGradient1087"><stop stop-color="#3d288a" offset="0"></stop><stop stop-color="#140611" offset="0.1"></stop></linearGradient><linearGradient x1="0.5" y1="0" x2="0" y2="1" id="SvgjsLinearGradient1088"><stop stop-color="#3d288a" offset="0"></stop><stop stop-color="#140611" offset="0.4"></stop></linearGradient><linearGradient x1="0.5" y1="0" x2="0" y2="1" id="SvgjsLinearGradient1089"><stop stop-color="#d0c0f2" offset="0"></stop><stop stop-color="#d742a8" offset="0.7"></stop></linearGradient></defs><path d="M0,-564.1350175371292C39.52727578678031,-546.2459671582951,139.54899546392295,-484.9353183109678,237.16365472068185,-456.8007152641245C334.77831397744075,-428.66611221728124,494.14853387650953,-418.2716270578979,585.6879555405535,-395.3273992560696C677.2273772045975,-372.38317145424134,706.4016410269119,-347.1975051719746,786.4001847049458,-319.13534845315485C866.3987283829797,-291.07319173433507,966.2551535890265,-252.97409652628772,1065.679217608757,-226.95445894315085C1165.1032816284876,-200.93482136001398,1286.7607152548424,-182.2926586791783,1382.944568823329,-163.01752295433363C1479.1284223918158,-143.74238722948897,1553.2731004902325,-134.45072883028362,1642.7823390196777,-111.3036445940829C1732.2915775491228,-88.15656035788217,1873.7970565032797,-38.663122046621524,1920,-24.135017537129254L 1920 1080 L 0 1080 Z" fill="url(&quot;#SvgjsLinearGradient1087&quot;)"></path><path d="M0,-203.84980928963176C69.46563188118726,-175.0363689727723,298.4174495474515,-62.42269720325692,416.79379128712355,-30.96916738847498C535.1701330267956,0.48436242630695503,589.0695265079341,-49.71339284050997,710.2580504380322,-15.128630400940153C831.4465743681303,19.45613203862966,1012.0735755386144,124.5642260185372,1143.9249348677124,176.53940724894392C1275.7762941968106,228.51458847935064,1372.020362223906,264.5651041823739,1501.3662064126206,296.72245698150016C1630.7120506013352,328.87980978062643,1850.22770106877,357.35667953333467,1920,369.48352404370155L 1920 1080 L 0 1080 Z" fill="url(&quot;#SvgjsLinearGradient1088&quot;)"></path><path d="M0,31.926114916948936C45.93099295953289,42.171614938171814,178.31050284709698,70.46747066010465,275.5859577571973,93.39911504428622C372.86141266729766,116.33075942846779,495.70344574619344,127.79403934378695,583.652729460602,169.51598122203836C671.6020131750106,211.23792310028978,711.5404422269737,309.82829736374435,803.2816600436488,343.7307663137947C895.0228778603239,377.633235263845,1035.77965710526,358.51614388784566,1134.1000363606522,372.93079492234017C1232.4204156160445,387.3454459568347,1303.3385501155235,397.68012940032224,1393.2039355760026,430.21867252076174C1483.0693210364816,462.75721564120124,1585.49300505286,533.433035467835,1673.2923491235263,568.1620536449773C1761.0916931941924,602.8910718221196,1878.8820581872544,626.8543269271759,1920,638.5927815836155L 1920 1080 L 0 1080 Z" fill="url(&quot;#SvgjsLinearGradient1089&quot;)"></path></svg>