<svg id="Layer_1" data-name="Layer 1" xmlns="http://www.w3.org/2000/svg" viewBox="0 0 128 128"><title>iStar_Design_Business_LineIcons_Live-8</title><path d="M8,67.44H23.38a2.41,2.41,0,0,0,2.4-2.4h0a2.4,2.4,0,0,0-2.4-2.4H13.55" style="fill:none;stroke:#000;stroke-linecap:round;stroke-linejoin:round;stroke-width:2px"/><line x1="3.15" y1="72.74" x2="51.34" y2="72.74" style="fill:none;stroke:#000;stroke-linecap:round;stroke-linejoin:round;stroke-width:2px"/><polygon points="50.45 72.74 73.89 92.72 85.46 92.72 72.21 72.74 50.45 72.74" style="fill:none;stroke:#000;stroke-linecap:round;stroke-linejoin:round;stroke-width:2px"/><polyline points="56.77 57.34 68.82 46.76 79.91 46.76 72.76 57.34" style="fill:none;stroke:#000;stroke-linecap:round;stroke-linejoin:round;stroke-width:2px"/><path d="M75,77s19.95.2,30.14-5.47c6-3.51,7.35-7.48,7.35-7.48" style="fill:none;stroke:#000;stroke-linecap:round;stroke-linejoin:round;stroke-width:2px"/><polygon points="102.58 57.37 116.88 57.37 125.08 35.28 117.72 35.28 102.58 57.37" style="fill:none;stroke:#000;stroke-linecap:round;stroke-linejoin:round;stroke-width:2px"/><polyline points="102.58 57.37 117.55 67.39 125.08 67.25 116.88 57.37" style="fill:none;stroke:#000;stroke-linecap:round;stroke-linejoin:round;stroke-width:2px"/><path d="M108.92,61.62s-2.11,6.31-11.37,8.83-25.34,2.29-25.34,2.29" style="fill:none;stroke:#000;stroke-linecap:round;stroke-linejoin:round;stroke-width:2px"/><path d="M83.1,64.87a2.53,2.53,0,1,1-2.52-2.53A2.52,2.52,0,0,1,83.1,64.87Z" style="fill:none;stroke:#000;stroke-linecap:round;stroke-linejoin:round;stroke-width:2px"/><path d="M73,64.87a2.53,2.53,0,1,1-2.53-2.53A2.52,2.52,0,0,1,73,64.87Z" style="fill:none;stroke:#000;stroke-linecap:round;stroke-linejoin:round;stroke-width:2px"/><circle cx="60.38" cy="64.87" r="2.52" style="fill:none;stroke:#000;stroke-linecap:round;stroke-linejoin:round;stroke-width:2px"/><path d="M52.81,64.87a2.53,2.53,0,1,1-2.52-2.53A2.52,2.52,0,0,1,52.81,64.87Z" style="fill:none;stroke:#000;stroke-linecap:round;stroke-linejoin:round;stroke-width:2px"/><path d="M42.71,64.87a2.52,2.52,0,1,1-2.52-2.53A2.52,2.52,0,0,1,42.71,64.87Z" style="fill:none;stroke:#000;stroke-linecap:round;stroke-linejoin:round;stroke-width:2px"/><path d="M55.64,77.16H6.08c-2.43,0-4-3.17-2.68-5.21A16.49,16.49,0,0,1,8,67.44c6.71-4.63,5.12-5.72,8.32-6.94s10.55-3.16,51.23-3.16h34.73" style="fill:none;stroke:#000;stroke-linecap:round;stroke-linejoin:round;stroke-width:2px"/><path d="M22.76,77.16a43.29,43.29,0,0,0,84-6.67" style="fill:none;stroke:#000;stroke-linecap:round;stroke-linejoin:round;stroke-width:2px"/><path d="M105.61,52.05A43.29,43.29,0,0,0,21,59" style="fill:none;stroke:#000;stroke-linecap:round;stroke-linejoin:round;stroke-width:2px"/><path d="M29.12,38.46a143.79,143.79,0,0,0,35.6,3.91,143.77,143.77,0,0,0,34.07-4" style="fill:none;stroke:#000;stroke-linecap:round;stroke-linejoin:round;stroke-width:2px"/><path d="M65.58,85.63h-2.3a143.77,143.77,0,0,0-34.07,4" style="fill:none;stroke:#000;stroke-linecap:round;stroke-linejoin:round;stroke-width:2px"/><path d="M98.88,89.54a126.24,126.24,0,0,0-17.55-3.05" style="fill:none;stroke:#000;stroke-linecap:round;stroke-linejoin:round;stroke-width:2px"/><path d="M85.79,87a60,60,0,0,0,2.87-10.62" style="fill:none;stroke:#000;stroke-linecap:round;stroke-linejoin:round;stroke-width:2px"/><path d="M89.41,57.17c-2-20.85-12.77-36.68-25.69-36.44S40.39,36.9,38.55,57.54" style="fill:none;stroke:#000;stroke-linecap:round;stroke-linejoin:round;stroke-width:2px"/><line x1="64" y1="85.63" x2="64" y2="106.4" style="fill:none;stroke:#000;stroke-linecap:round;stroke-linejoin:round;stroke-width:2px"/><line x1="64" y1="21.6" x2="64" y2="50.55" style="fill:none;stroke:#000;stroke-linecap:round;stroke-linejoin:round;stroke-width:2px"/><path d="M39.55,77.56C43,95,52.79,107.49,64.28,107.27c7.48-.13,14.18-5.62,18.82-14.27" style="fill:none;stroke:#000;stroke-linecap:round;stroke-linejoin:round;stroke-width:2px"/></svg>