<svg id="Layer_1" data-name="Layer 1" xmlns="http://www.w3.org/2000/svg" viewBox="0 0 128 128"><title>iStar_Design_Business_LineIcons_Live-66</title><polyline points="69.17 9.85 69.17 13.7 30.46 13.7 30.46 9.85" style="fill:none;stroke:#000;stroke-linecap:round;stroke-linejoin:round;stroke-width:2px"/><polyline points="24.29 8.9 5.48 8.9 5.48 123.32 94.15 123.32 94.15 65.71" style="fill:none;stroke:#000;stroke-linecap:round;stroke-linejoin:round;stroke-width:2px"/><polyline points="94.15 56.56 94.15 8.9 75.34 8.9" style="fill:none;stroke:#000;stroke-linecap:round;stroke-linejoin:round;stroke-width:2px"/><polygon points="69.17 96.48 86.79 96.48 69.17 114.1 69.17 96.48" style="fill:none;stroke:#000;stroke-linecap:round;stroke-linejoin:round;stroke-width:2px"/><rect x="24.29" y="4.68" width="51.05" height="14.19" style="fill:none;stroke:#000;stroke-linecap:round;stroke-linejoin:round;stroke-width:2px"/><polyline points="24.29 13.79 12.85 13.79 12.85 114.1 69.17 114.1" style="fill:none;stroke:#000;stroke-linecap:round;stroke-linejoin:round;stroke-width:2px"/><polyline points="86.79 63.95 86.79 13.79 75.34 13.79 75.34 13.79" style="fill:none;stroke:#000;stroke-linecap:round;stroke-linejoin:round;stroke-width:2px"/><line x1="86.79" y1="96.48" x2="86.79" y2="73.13" style="fill:none;stroke:#000;stroke-linecap:round;stroke-linejoin:round;stroke-width:2px"/><line x1="25.92" y1="76.89" x2="53.7" y2="76.89" style="fill:none;stroke:#000;stroke-linecap:round;stroke-linejoin:round;stroke-width:2px"/><line x1="25.92" y1="45.39" x2="73.71" y2="45.39" style="fill:none;stroke:#000;stroke-linecap:round;stroke-linejoin:round;stroke-width:2px"/><line x1="25.92" y1="55.89" x2="73.71" y2="55.89" style="fill:none;stroke:#000;stroke-linecap:round;stroke-linejoin:round;stroke-width:2px"/><line x1="25.92" y1="66.39" x2="73.71" y2="66.39" style="fill:none;stroke:#000;stroke-linecap:round;stroke-linejoin:round;stroke-width:2px"/><path d="M20.39,101.31c6.82-8.67,16.81-15,15.28-13.55-3.94,3.62-4.19,6.58-3.59,8.48a.65.65,0,0,0,.41.49c.22,0,.42-.13.59-.29.58-.56,1.74-2,2.33-2.58-.27.79-.12,2.53.69,2.73a5,5,0,0,0,2.45-.26c4.43-1.19,6.71-3.46,12.39-1.63" style="fill:none;stroke:#000;stroke-linecap:round;stroke-linejoin:round;stroke-width:2px"/><line x1="119.96" y1="35.13" x2="122.52" y2="32.55" style="fill:none;stroke:#000;stroke-linecap:round;stroke-linejoin:round;stroke-width:2px"/><path d="M71.38,88.66l-5.6,1.07,1-5.61,48.59-49a3.22,3.22,0,0,1,4.56,0h0a3.21,3.21,0,0,1,0,4.55Z" style="fill:none;stroke:#000;stroke-linecap:round;stroke-linejoin:round;stroke-width:2px"/><line x1="117.28" y1="42.4" x2="112.71" y2="37.86" style="fill:none;stroke:#000;stroke-linecap:round;stroke-linejoin:round;stroke-width:2px"/><path d="M109.73,40.87l4.57,4.53.89.88a3.46,3.46,0,0,1,0,4.88L102,64.43A7.06,7.06,0,0,0,100,69" style="fill:none;stroke:#000;stroke-linecap:round;stroke-linejoin:round;stroke-width:2px"/><line x1="74.03" y1="85.98" x2="69.46" y2="81.45" style="fill:none;stroke:#000;stroke-linecap:round;stroke-linejoin:round;stroke-width:2px"/></svg>