<svg id="Layer_1" data-name="Layer 1" xmlns="http://www.w3.org/2000/svg" viewBox="0 0 128 128"><title>iStar_Design_Business_LineIcons_Live-100</title><path d="M15.08,21.55h0A31.45,31.45,0,0,0,5.69,44.32c.25,12.18,5.82,30.21,28,52.43,13.08,13.08,24.39,20.07,33.79,23.47a36.89,36.89,0,0,0,38.57-8.78h0a5.32,5.32,0,0,0,0-7.51L89.92,87.78a5.31,5.31,0,0,0-7.37-.13l-9.74,9.09S44.14,86.32,30.2,54.12l8.73-8.73a6.1,6.1,0,0,0,0-8.61L23.69,21.55A6.08,6.08,0,0,0,15.08,21.55Z" style="fill:none;stroke:#000;stroke-linecap:round;stroke-linejoin:round;stroke-width:2px"/><line x1="13.52" y1="23.11" x2="29.78" y2="39.38" style="fill:none;stroke:#000;stroke-linecap:round;stroke-linejoin:round;stroke-width:2px"/><line x1="103.96" y1="113.56" x2="87.22" y2="96.81" style="fill:none;stroke:#000;stroke-linecap:round;stroke-linejoin:round;stroke-width:2px"/><path d="M72.81,96.74l-6,6s-10.08-3.33-21.27-14" style="fill:none;stroke:#000;stroke-linecap:round;stroke-linejoin:round;stroke-width:2px"/><path d="M40.17,82.85a57.45,57.45,0,0,1-6.69-8.77" style="fill:none;stroke:#000;stroke-linecap:round;stroke-linejoin:round;stroke-width:2px"/><path d="M68.35,5.66c1.66-.07,3.33,0,5,0" style="fill:none;stroke:#000;stroke-linecap:round;stroke-linejoin:round;stroke-width:2px"/><path d="M84.4,7.49a52.38,52.38,0,0,1,15.27,6.93" style="fill:none;stroke:#000;stroke-linecap:round;stroke-linejoin:round;stroke-width:2px;stroke-dasharray:11.226699829101562,11.226699829101562"/><path d="M104.19,17.77c1.27,1.05,2.5,2.18,3.69,3.37" style="fill:none;stroke:#000;stroke-linecap:round;stroke-linejoin:round;stroke-width:2px"/><path d="M107.88,21.14a49.26,49.26,0,0,1,0,69.67" style="fill:none;stroke:#000;stroke-linecap:round;stroke-linejoin:round;stroke-width:2px"/><path d="M33,21.14A52.79,52.79,0,0,1,68.35,5.66" style="fill:none;stroke:#000;stroke-linecap:round;stroke-linejoin:round;stroke-width:2px"/><path d="M45.24,33.17A35.79,35.79,0,0,1,95.85,83.79" style="fill:none;stroke:#000;stroke-linecap:round;stroke-linejoin:round;stroke-width:2px"/><line x1="101.46" y1="75.11" x2="97.67" y2="73.21" style="fill:none;stroke:#000;stroke-linecap:round;stroke-linejoin:round;stroke-width:2px"/><line x1="105.5" y1="53.12" x2="101.4" y2="54.12" style="fill:none;stroke:#000;stroke-linecap:round;stroke-linejoin:round;stroke-width:2px"/><line x1="53.41" y1="27.06" x2="55.07" y2="32.49" style="fill:none;stroke:#000;stroke-linecap:round;stroke-linejoin:round;stroke-width:2px"/><line x1="75.4" y1="23.02" x2="74.4" y2="27.12" style="fill:none;stroke:#000;stroke-linecap:round;stroke-linejoin:round;stroke-width:2px"/><line x1="95.85" y1="33.17" x2="91.25" y2="37.77" style="fill:none;stroke:#000;stroke-linecap:round;stroke-linejoin:round;stroke-width:2px"/><line x1="57.73" y1="70.94" x2="66.89" y2="70.94" style="fill:none;stroke:#000;stroke-linecap:round;stroke-linejoin:round;stroke-width:2px"/><line x1="59.42" y1="58.1" x2="64.74" y2="58.1" style="fill:none;stroke:#000;stroke-linecap:round;stroke-linejoin:round;stroke-width:2px"/><line x1="76.38" y1="58.1" x2="81.69" y2="58.1" style="fill:none;stroke:#000;stroke-linecap:round;stroke-linejoin:round;stroke-width:2px"/><line x1="57.73" y1="45.07" x2="66.89" y2="45.07" style="fill:none;stroke:#000;stroke-linecap:round;stroke-linejoin:round;stroke-width:2px"/><line x1="57.73" y1="61.23" x2="57.73" y2="67.72" style="fill:none;stroke:#000;stroke-linecap:round;stroke-linejoin:round;stroke-width:2px"/><line x1="84.26" y1="59.54" x2="84.26" y2="70.32" style="fill:none;stroke:#000;stroke-linecap:round;stroke-linejoin:round;stroke-width:2px"/><line x1="84.26" y1="45.07" x2="84.26" y2="55.85" style="fill:none;stroke:#000;stroke-linecap:round;stroke-linejoin:round;stroke-width:2px"/><line x1="73.65" y1="45.07" x2="73.65" y2="55.85" style="fill:none;stroke:#000;stroke-linecap:round;stroke-linejoin:round;stroke-width:2px"/><line x1="66.89" y1="48.8" x2="66.89" y2="55.52" style="fill:none;stroke:#000;stroke-linecap:round;stroke-linejoin:round;stroke-width:2px"/><path d="M111.92,42.57a37.27,37.27,0,0,1,.75,25.89" style="fill:none;stroke:#000;stroke-linecap:round;stroke-linejoin:round;stroke-width:2px"/><path d="M46.14,21.42a24.14,24.14,0,0,1,7.27-3.63" style="fill:none;stroke:#000;stroke-linecap:round;stroke-linejoin:round;stroke-width:2px"/><line x1="108.25" y1="35.81" x2="104.85" y2="30.53" style="fill:none;stroke:#000;stroke-linecap:round;stroke-linejoin:round;stroke-width:2px"/></svg>