<svg id="Layer_1" data-name="Layer 1" xmlns="http://www.w3.org/2000/svg" viewBox="0 0 128 128"><title>iStar_Design_Business_LineIcons_Live-11</title><line x1="22.26" y1="16.13" x2="22.26" y2="27.17" style="fill:none;stroke:#000;stroke-linecap:round;stroke-linejoin:round;stroke-width:2px"/><path d="M20.05,29.38a2.21,2.21,0,1,1,2.21,2.21A2.2,2.2,0,0,1,20.05,29.38Z" style="fill:none;stroke:#000;stroke-linecap:round;stroke-linejoin:round;stroke-width:2px"/><line x1="41.82" y1="16.13" x2="41.82" y2="27.17" style="fill:none;stroke:#000;stroke-linecap:round;stroke-linejoin:round;stroke-width:2px"/><path d="M39.61,29.38a2.21,2.21,0,1,1,2.21,2.21A2.2,2.2,0,0,1,39.61,29.38Z" style="fill:none;stroke:#000;stroke-linecap:round;stroke-linejoin:round;stroke-width:2px"/><line x1="61.38" y1="16.13" x2="61.38" y2="27.17" style="fill:none;stroke:#000;stroke-linecap:round;stroke-linejoin:round;stroke-width:2px"/><path d="M59.17,29.38a2.21,2.21,0,1,1,2.21,2.21A2.2,2.2,0,0,1,59.17,29.38Z" style="fill:none;stroke:#000;stroke-linecap:round;stroke-linejoin:round;stroke-width:2px"/><line x1="80.94" y1="16.13" x2="80.94" y2="27.17" style="fill:none;stroke:#000;stroke-linecap:round;stroke-linejoin:round;stroke-width:2px"/><path d="M78.73,29.38a2.21,2.21,0,1,1,2.21,2.21A2.2,2.2,0,0,1,78.73,29.38Z" style="fill:none;stroke:#000;stroke-linecap:round;stroke-linejoin:round;stroke-width:2px"/><line x1="100.5" y1="16.13" x2="100.5" y2="27.17" style="fill:none;stroke:#000;stroke-linecap:round;stroke-linejoin:round;stroke-width:2px"/><path d="M98.29,29.38a2.21,2.21,0,1,1,2.21,2.21A2.2,2.2,0,0,1,98.29,29.38Z" style="fill:none;stroke:#000;stroke-linecap:round;stroke-linejoin:round;stroke-width:2px"/><line x1="115.2" y1="37.67" x2="7.73" y2="37.67" style="fill:none;stroke:#000;stroke-linecap:round;stroke-linejoin:round;stroke-width:2px"/><line x1="103.52" y1="50.1" x2="20.17" y2="50.1" style="fill:none;stroke:#000;stroke-linecap:round;stroke-linejoin:round;stroke-width:2px"/><line x1="103.52" y1="62.13" x2="20.17" y2="62.13" style="fill:none;stroke:#000;stroke-linecap:round;stroke-linejoin:round;stroke-width:2px"/><line x1="103.52" y1="74.15" x2="20.17" y2="74.15" style="fill:none;stroke:#000;stroke-linecap:round;stroke-linejoin:round;stroke-width:2px"/><line x1="20.17" y1="50.1" x2="20.17" y2="86.18" style="fill:none;stroke:#000;stroke-linecap:round;stroke-linejoin:round;stroke-width:2px"/><line x1="36.84" y1="50.1" x2="36.84" y2="86.18" style="fill:none;stroke:#000;stroke-linecap:round;stroke-linejoin:round;stroke-width:2px"/><line x1="53.51" y1="50.1" x2="53.51" y2="86.18" style="fill:none;stroke:#000;stroke-linecap:round;stroke-linejoin:round;stroke-width:2px"/><line x1="70.18" y1="50.1" x2="70.18" y2="86.18" style="fill:none;stroke:#000;stroke-linecap:round;stroke-linejoin:round;stroke-width:2px"/><line x1="86.85" y1="50.1" x2="86.85" y2="86.18" style="fill:none;stroke:#000;stroke-linecap:round;stroke-linejoin:round;stroke-width:2px"/><line x1="103.52" y1="50.1" x2="103.52" y2="80.96" style="fill:none;stroke:#000;stroke-linecap:round;stroke-linejoin:round;stroke-width:2px"/><line x1="95.04" y1="86.18" x2="20.17" y2="86.18" style="fill:none;stroke:#000;stroke-linecap:round;stroke-linejoin:round;stroke-width:2px"/><polyline points="91.47 67.87 94.14 71.23 98.95 65.19" style="fill:none;stroke:#000;stroke-linecap:round;stroke-linejoin:round;stroke-width:2px"/><polyline points="74.99 67.87 77.66 71.23 82.47 65.19" style="fill:none;stroke:#000;stroke-linecap:round;stroke-linejoin:round;stroke-width:2px"/><polyline points="42.12 79.83 44.79 83.19 49.6 77.15" style="fill:none;stroke:#000;stroke-linecap:round;stroke-linejoin:round;stroke-width:2px"/><polyline points="58.1 79.83 60.78 83.19 65.59 77.15" style="fill:none;stroke:#000;stroke-linecap:round;stroke-linejoin:round;stroke-width:2px"/><polyline points="25.64 79.83 28.31 83.19 33.12 77.15" style="fill:none;stroke:#000;stroke-linecap:round;stroke-linejoin:round;stroke-width:2px"/><polygon points="95.04 80.96 115.2 80.96 95.04 101.13 95.04 80.96" style="fill:none;stroke:#000;stroke-linecap:round;stroke-linejoin:round;stroke-width:2px"/><polyline points="115.2 80.96 115.2 21.44 7.56 21.44 7.56 101.13 95.04 101.13" style="fill:none;stroke:#000;stroke-linecap:round;stroke-linejoin:round;stroke-width:2px"/><polyline points="15.22 106.45 120.44 106.45 120.44 27.16" style="fill:none;stroke:#000;stroke-linecap:round;stroke-linejoin:round;stroke-width:2px"/><line x1="15.22" y1="111.87" x2="120.44" y2="111.87" style="fill:none;stroke:#000;stroke-linecap:round;stroke-linejoin:round;stroke-width:2px"/></svg>