<svg id="Layer_1" data-name="Layer 1" xmlns="http://www.w3.org/2000/svg" viewBox="0 0 128 128"><title>iStar_Design_Business_LineIcons_Live-30</title><line x1="67.53" y1="62.89" x2="70.29" y2="62.89" style="fill:none;stroke:#000;stroke-linecap:round;stroke-linejoin:round;stroke-width:2px"/><line x1="67.53" y1="75.43" x2="70.29" y2="75.43" style="fill:none;stroke:#000;stroke-linecap:round;stroke-linejoin:round;stroke-width:2px"/><line x1="53.28" y1="3.72" x2="74.85" y2="3.72" style="fill:none;stroke:#000;stroke-linecap:round;stroke-linejoin:round;stroke-width:2px"/><line x1="55.45" y1="9.73" x2="72.68" y2="9.73" style="fill:none;stroke:#000;stroke-linecap:round;stroke-linejoin:round;stroke-width:2px"/><polygon points="62.85 59.55 74.85 3.72 82.52 14.41 78.37 16.17 82.48 20.17 62.85 59.55" style="fill:none;stroke:#000;stroke-linecap:round;stroke-linejoin:round;stroke-width:2px"/><polyline points="64.07 53.37 53.28 3.72 45.62 13.49 49.77 16.17 45.65 20.17 63.46 56.91" style="fill:none;stroke:#000;stroke-linecap:round;stroke-linejoin:round;stroke-width:2px"/><path d="M62.85,59.55v51.1s1.23,15.45,18.26,13.45a59.75,59.75,0,0,0,11.66-3.22s.46-18.41-1.08-27.31S87.55,67.05,89.85,55,98,16.55,98,16.55L76.29,5.72" style="fill:none;stroke:#000;stroke-linecap:round;stroke-linejoin:round;stroke-width:2px"/><path d="M63.51,116.38c-2.08,4.16-6.64,8.88-16.53,7.72a59.75,59.75,0,0,1-11.66-3.22s-.46-18.41,1.08-27.31S40.54,67.05,38.24,55,30.1,16.55,30.1,16.55L51.8,5.72" style="fill:none;stroke:#000;stroke-linecap:round;stroke-linejoin:round;stroke-width:2px"/><path d="M98,16.55S110.26,18.72,111.41,118H100.13L89.64,56.23" style="fill:none;stroke:#000;stroke-linecap:round;stroke-linejoin:round;stroke-width:2px"/><path d="M37.91,83.52l10.9,1.31-1.3,8.59S40,96.12,36.7,91.74" style="fill:none;stroke:#000;stroke-linecap:round;stroke-linejoin:round;stroke-width:2px"/><path d="M90.18,83.52,79.3,84.83l1.3,8.59s7.49,2.7,10.81-1.68" style="fill:none;stroke:#000;stroke-linecap:round;stroke-linejoin:round;stroke-width:2px"/><line x1="75.71" y1="40.69" x2="88.61" y2="40.69" style="fill:none;stroke:#000;stroke-linecap:round;stroke-linejoin:round;stroke-width:2px"/><polyline points="76.36 40.69 82.16 34.9 87.96 40.69" style="fill:none;stroke:#000;stroke-linecap:round;stroke-linejoin:round;stroke-width:2px"/><line x1="111.31" y1="111.07" x2="105.18" y2="111.07" style="fill:none;stroke:#000;stroke-linecap:round;stroke-linejoin:round;stroke-width:2px"/><path d="M30,16.55S17.74,18.72,16.59,118H27.87L38.36,56.23" style="fill:none;stroke:#000;stroke-linecap:round;stroke-linejoin:round;stroke-width:2px"/><line x1="16.69" y1="111.07" x2="22.82" y2="111.07" style="fill:none;stroke:#000;stroke-linecap:round;stroke-linejoin:round;stroke-width:2px"/></svg>