<svg id="Layer_1" data-name="Layer 1" xmlns="http://www.w3.org/2000/svg" viewBox="0 0 128 128"><title>iStar_Design_Business_LineIcons_Live-20</title><path d="M107.76,7.8H20.24a6,6,0,0,0-6,6V36.72a6,6,0,0,0,6,6h5v9.76l15.35-9.76H53.87L64,52.83,74.13,42.71H87.42l15.35,9.76V42.71h5a6,6,0,0,0,6-6V13.79A6,6,0,0,0,107.76,7.8Z" style="fill:none;stroke:#000;stroke-linecap:round;stroke-linejoin:round;stroke-width:2px"/><path d="M109.4,80.47A12.9,12.9,0,0,0,110,76.6c0-6.41-4.62-11.21-10.32-11.21S89.35,70.19,89.35,76.6a12.89,12.89,0,0,0,.58,3.87A3,3,0,0,0,88.6,83a3,3,0,0,0,2.14,2.89c1.48,4.42,4.92,7.51,8.93,7.51s7.44-3.09,8.92-7.51A3,3,0,0,0,110.73,83,3,3,0,0,0,109.4,80.47Z" style="fill:none;stroke:#000;stroke-linecap:round;stroke-linejoin:round;stroke-width:2px"/><path d="M104.75,74.79l-.5-2.56s-1,0-2.8,1.56a6.5,6.5,0,0,1-7.7.7" style="fill:none;stroke:#000;stroke-linecap:round;stroke-linejoin:round;stroke-width:2px"/><polyline points="99.81 100.61 103.6 104.89 108.7 99.33 106.51 95.58" style="fill:none;stroke:#000;stroke-linecap:round;stroke-linejoin:round;stroke-width:2px"/><path d="M91,99.18l-9.57,3.93a5.47,5.47,0,0,0-1.53,1.42,5.37,5.37,0,0,0-1,3.14v7.25" style="fill:none;stroke:#000;stroke-linecap:round;stroke-linejoin:round;stroke-width:2px"/><polyline points="99.81 100.61 96.01 104.89 90.91 99.33 93.1 95.58" style="fill:none;stroke:#000;stroke-linecap:round;stroke-linejoin:round;stroke-width:2px"/><line x1="106.51" y1="95.58" x2="99.81" y2="100.61" style="fill:none;stroke:#000;stroke-linecap:round;stroke-linejoin:round;stroke-width:2px"/><line x1="93.1" y1="95.58" x2="99.81" y2="100.61" style="fill:none;stroke:#000;stroke-linecap:round;stroke-linejoin:round;stroke-width:2px"/><path d="M108.63,99.18l9.79,4.11a4.85,4.85,0,0,1,2.54,4.56v7.07" style="fill:none;stroke:#000;stroke-linecap:round;stroke-linejoin:round;stroke-width:2px"/><path d="M121,114.92a44.62,44.62,0,0,1-42.11,0" style="fill:none;stroke:#000;stroke-linecap:round;stroke-linejoin:round;stroke-width:2px"/><path d="M73.5,74a12.89,12.89,0,0,0,.58-3.87c0-6.41-4.62-11.21-10.32-11.21s-10.32,4.8-10.32,11.21A12.9,12.9,0,0,0,54,74a3,3,0,0,0,.81,5.4c1.48,4.41,4.91,7.51,8.92,7.51s7.45-3.1,8.93-7.51A3,3,0,0,0,73.5,74Z" style="fill:none;stroke:#000;stroke-linecap:round;stroke-linejoin:round;stroke-width:2px"/><path d="M68.85,68.31l-.5-2.56s-1,0-2.81,1.56a6.47,6.47,0,0,1-7.69.69" style="fill:none;stroke:#000;stroke-linecap:round;stroke-linejoin:round;stroke-width:2px"/><polyline points="63.9 94.13 67.69 98.4 72.79 92.85 70.61 89.1" style="fill:none;stroke:#000;stroke-linecap:round;stroke-linejoin:round;stroke-width:2px"/><path d="M55.05,92.7l-9.57,3.93A5.29,5.29,0,0,0,44,98.05a5.35,5.35,0,0,0-1,3.14" style="fill:none;stroke:#000;stroke-linecap:round;stroke-linejoin:round;stroke-width:2px"/><polyline points="63.9 94.13 60.11 98.4 55.01 92.85 57.2 89.1" style="fill:none;stroke:#000;stroke-linecap:round;stroke-linejoin:round;stroke-width:2px"/><line x1="70.61" y1="89.1" x2="63.9" y2="94.13" style="fill:none;stroke:#000;stroke-linecap:round;stroke-linejoin:round;stroke-width:2px"/><line x1="57.2" y1="89.1" x2="63.9" y2="94.13" style="fill:none;stroke:#000;stroke-linecap:round;stroke-linejoin:round;stroke-width:2px"/><path d="M72.73,92.7l9.79,4.11a4.84,4.84,0,0,1,2.54,4.56" style="fill:none;stroke:#000;stroke-linecap:round;stroke-linejoin:round;stroke-width:2px"/><path d="M78.85,111.22a45.37,45.37,0,0,1-29.85,0" style="fill:none;stroke:#000;stroke-linecap:round;stroke-linejoin:round;stroke-width:2px"/><path d="M37.59,80.47a12.9,12.9,0,0,0,.59-3.87c0-6.41-4.62-11.21-10.32-11.21S17.54,70.19,17.54,76.6a12.9,12.9,0,0,0,.59,3.87A3,3,0,0,0,16.8,83a3,3,0,0,0,2.13,2.89c1.48,4.42,4.92,7.51,8.93,7.51s7.45-3.09,8.93-7.51A3,3,0,0,0,38.92,83,3,3,0,0,0,37.59,80.47Z" style="fill:none;stroke:#000;stroke-linecap:round;stroke-linejoin:round;stroke-width:2px"/><path d="M33,74.79l-.51-2.56s-1,0-2.8,1.56a6.48,6.48,0,0,1-7.69.7" style="fill:none;stroke:#000;stroke-linecap:round;stroke-linejoin:round;stroke-width:2px"/><polyline points="28 100.61 31.79 104.89 36.89 99.33 34.7 95.58" style="fill:none;stroke:#000;stroke-linecap:round;stroke-linejoin:round;stroke-width:2px"/><path d="M19.15,99.18l-9.57,3.93a5.47,5.47,0,0,0-1.53,1.42,5.37,5.37,0,0,0-1,3.14v7.25" style="fill:none;stroke:#000;stroke-linecap:round;stroke-linejoin:round;stroke-width:2px"/><polyline points="28 100.61 24.2 104.89 19.11 99.33 21.29 95.58" style="fill:none;stroke:#000;stroke-linecap:round;stroke-linejoin:round;stroke-width:2px"/><line x1="34.7" y1="95.58" x2="28" y2="100.61" style="fill:none;stroke:#000;stroke-linecap:round;stroke-linejoin:round;stroke-width:2px"/><line x1="21.29" y1="95.58" x2="28" y2="100.61" style="fill:none;stroke:#000;stroke-linecap:round;stroke-linejoin:round;stroke-width:2px"/><path d="M36.82,99.18l9.79,4.11a4.83,4.83,0,0,1,2.54,4.56v7.07" style="fill:none;stroke:#000;stroke-linecap:round;stroke-linejoin:round;stroke-width:2px"/><path d="M49.15,114.92a43.33,43.33,0,0,1-21,5.28A43.37,43.37,0,0,1,7,114.92" style="fill:none;stroke:#000;stroke-linecap:round;stroke-linejoin:round;stroke-width:2px"/><polygon points="64.38 14.13 53.39 30.51 63.51 30.51 62.11 41.45 74.61 24.85 63.51 24.85 64.38 14.13" style="fill:none;stroke:#000;stroke-linecap:round;stroke-linejoin:round;stroke-width:2px"/><line x1="85.14" y1="19.57" x2="99.9" y2="19.57" style="fill:none;stroke:#000;stroke-linecap:round;stroke-linejoin:round;stroke-width:2px"/><line x1="85.14" y1="26.01" x2="99.9" y2="26.01" style="fill:none;stroke:#000;stroke-linecap:round;stroke-linejoin:round;stroke-width:2px"/><line x1="85.14" y1="32.45" x2="91.2" y2="32.45" style="fill:none;stroke:#000;stroke-linecap:round;stroke-linejoin:round;stroke-width:2px"/><line x1="28.1" y1="19.57" x2="42.86" y2="19.57" style="fill:none;stroke:#000;stroke-linecap:round;stroke-linejoin:round;stroke-width:2px"/><line x1="28.1" y1="26.01" x2="42.86" y2="26.01" style="fill:none;stroke:#000;stroke-linecap:round;stroke-linejoin:round;stroke-width:2px"/><line x1="28.1" y1="32.45" x2="34.15" y2="32.45" style="fill:none;stroke:#000;stroke-linecap:round;stroke-linejoin:round;stroke-width:2px"/></svg>