<svg id="Layer_1" data-name="Layer 1" xmlns="http://www.w3.org/2000/svg" viewBox="0 0 128 128"><title>iStar_Design_Business_LineIcons_Live-7</title><line x1="108.43" y1="118.85" x2="108.43" y2="74.51" style="fill:none;stroke:#000;stroke-linecap:round;stroke-linejoin:round;stroke-width:2px"/><line x1="114.75" y1="74.51" x2="114.75" y2="118.85" style="fill:none;stroke:#000;stroke-linecap:round;stroke-linejoin:round;stroke-width:2px"/><line x1="13.25" y1="118.85" x2="13.25" y2="74.51" style="fill:none;stroke:#000;stroke-linecap:round;stroke-linejoin:round;stroke-width:2px"/><line x1="19.57" y1="74.51" x2="19.57" y2="118.85" style="fill:none;stroke:#000;stroke-linecap:round;stroke-linejoin:round;stroke-width:2px"/><path d="M35.47,57.77H8.5a3.23,3.23,0,0,1-3.22-3.22V16.48A3.24,3.24,0,0,1,8.5,13.25H65a3.24,3.24,0,0,1,3.23,3.23V30.92" style="fill:none;stroke:#000;stroke-linecap:round;stroke-linejoin:round;stroke-width:2px"/><line x1="5.27" y1="47.96" x2="41.16" y2="47.96" style="fill:none;stroke:#000;stroke-linecap:round;stroke-linejoin:round;stroke-width:2px"/><line x1="35.25" y1="17.13" x2="38.2" y2="17.13" style="fill:none;stroke:#000;stroke-linecap:round;stroke-linejoin:round;stroke-width:2px"/><line x1="9.61" y1="28.27" x2="9.61" y2="38.7" style="fill:none;stroke:#000;stroke-linecap:round;stroke-linejoin:round;stroke-width:2px"/><line x1="9.61" y1="44.29" x2="9.61" y2="47.96" style="fill:none;stroke:#000;stroke-linecap:round;stroke-linejoin:round;stroke-width:2px"/><line x1="28.85" y1="57.77" x2="26.96" y2="66.59" style="fill:none;stroke:#000;stroke-linecap:round;stroke-linejoin:round;stroke-width:2px"/><circle cx="36.97" cy="116.56" r="3.01" transform="translate(-80.37 150.98) rotate(-88.75)" style="fill:none;stroke:#000;stroke-linecap:round;stroke-linejoin:round;stroke-width:2px"/><path d="M50.49,116.56a3,3,0,1,1-3-3A3,3,0,0,1,50.49,116.56Z" style="fill:none;stroke:#000;stroke-linecap:round;stroke-linejoin:round;stroke-width:2px"/><circle cx="80.52" cy="116.56" r="3.01" transform="translate(-37.76 194.52) rotate(-88.75)" style="fill:none;stroke:#000;stroke-linecap:round;stroke-linejoin:round;stroke-width:2px"/><path d="M94,116.56a3,3,0,1,1-3-3A3,3,0,0,1,94,116.56Z" style="fill:none;stroke:#000;stroke-linecap:round;stroke-linejoin:round;stroke-width:2px"/><path d="M67,116.56a3,3,0,1,1-3-3A3,3,0,0,1,67,116.56Z" style="fill:none;stroke:#000;stroke-linecap:round;stroke-linejoin:round;stroke-width:2px"/><polyline points="36.97 113.55 36.97 108.75 64 101.59" style="fill:none;stroke:#000;stroke-linecap:round;stroke-linejoin:round;stroke-width:2px"/><polyline points="91.03 113.55 91.03 108.75 64 101.59" style="fill:none;stroke:#000;stroke-linecap:round;stroke-linejoin:round;stroke-width:2px"/><line x1="64" y1="113.55" x2="64" y2="101.59" style="fill:none;stroke:#000;stroke-linecap:round;stroke-linejoin:round;stroke-width:2px"/><polyline points="61.29 102.22 61.29 96.81 66.71 96.81 66.71 102.22" style="fill:none;stroke:#000;stroke-linecap:round;stroke-linejoin:round;stroke-width:2px"/><line x1="64" y1="96.7" x2="64" y2="91.66" style="fill:none;stroke:#000;stroke-linecap:round;stroke-linejoin:round;stroke-width:2px"/><polyline points="83.52 81.36 73.69 86.97 73.69 89.86 64 91.66 54.31 89.86 54.31 86.97 44.48 81.36" style="fill:none;stroke:#000;stroke-linecap:round;stroke-linejoin:round;stroke-width:2px"/><path d="M86,80.5c-.45-2.47-3.2-3.81-4.89-4-2.63-.35-8.88.19-13.14.64a39,39,0,0,1-7.94,0c-4.26-.45-10.51-1-13.14-.64-1.69.23-4.44,1.57-4.89,4a1,1,0,0,0,1.15,1.08,27,27,0,0,1,14.69,1.55,16.8,16.8,0,0,0,12.32,0,27,27,0,0,1,14.69-1.55A1,1,0,0,0,86,80.5Z" style="fill:none;stroke:#000;stroke-linecap:round;stroke-linejoin:round;stroke-width:2px"/><path d="M80.89,33.1c-5.55-2.57-9.24-2.16-16.89-2.16s-11.34-.41-16.89,2.16c-7,3.26-3.64,11.36-2.45,14.17,2.45,5.76,3.52,8.33,3.73,14.46.43,12,5.7,9.8,8.59,9.24a38.82,38.82,0,0,1,14,0c2.89.56,8.16,2.74,8.58-9.24.22-6.13,1.29-8.7,3.74-14.46C84.53,44.46,87.93,36.36,80.89,33.1Z" style="fill:none;stroke:#000;stroke-linecap:round;stroke-linejoin:round;stroke-width:2px"/><path d="M59,76.78V59.2a5,5,0,0,1,5-5h0a5,5,0,0,1,5,5V76.78" style="fill:none;stroke:#000;stroke-linecap:round;stroke-linejoin:round;stroke-width:2px"/><path d="M89.54,61.73H86.31a3.12,3.12,0,0,1-3.11-3.11h0a3.12,3.12,0,0,1,3.11-3.11h3.23a3.12,3.12,0,0,1,3.11,3.11h0A3.12,3.12,0,0,1,89.54,61.73Z" style="fill:none;stroke:#000;stroke-linecap:round;stroke-linejoin:round;stroke-width:2px"/><polyline points="88.03 61.73 88.03 69.76 79.36 76.35" style="fill:none;stroke:#000;stroke-linecap:round;stroke-linejoin:round;stroke-width:2px"/><path d="M38.46,61.73h3.23a3.12,3.12,0,0,0,3.11-3.11h0a3.12,3.12,0,0,0-3.11-3.11H38.46a3.12,3.12,0,0,0-3.11,3.11h0A3.12,3.12,0,0,0,38.46,61.73Z" style="fill:none;stroke:#000;stroke-linecap:round;stroke-linejoin:round;stroke-width:2px"/><polyline points="39.97 61.73 39.97 69.76 48.64 76.35" style="fill:none;stroke:#000;stroke-linecap:round;stroke-linejoin:round;stroke-width:2px"/><line x1="80.52" y1="113.55" x2="80.52" y2="106.08" style="fill:none;stroke:#000;stroke-linecap:round;stroke-linejoin:round;stroke-width:2px"/><line x1="47.48" y1="113.55" x2="47.48" y2="106.08" style="fill:none;stroke:#000;stroke-linecap:round;stroke-linejoin:round;stroke-width:2px"/><polyline points="40.06 74.07 3.67 74.07 3.67 66.59 48.94 66.59" style="fill:none;stroke:#000;stroke-linecap:round;stroke-linejoin:round;stroke-width:2px"/><polyline points="87.94 74.07 124.33 74.07 124.33 66.59 79.06 66.59" style="fill:none;stroke:#000;stroke-linecap:round;stroke-linejoin:round;stroke-width:2px"/><line x1="123.21" y1="118.85" x2="100.57" y2="118.85" style="fill:none;stroke:#000;stroke-linecap:round;stroke-linejoin:round;stroke-width:2px"/><line x1="27.43" y1="118.85" x2="4.79" y2="118.85" style="fill:none;stroke:#000;stroke-linecap:round;stroke-linejoin:round;stroke-width:2px"/><line x1="85.87" y1="27.99" x2="124.28" y2="27.99" style="fill:none;stroke:#000;stroke-linecap:round;stroke-linejoin:round;stroke-width:2px"/><polyline points="91.91 27.99 91.91 8.44 97.08 8.44 97.08 27.99" style="fill:none;stroke:#000;stroke-linecap:round;stroke-linejoin:round;stroke-width:2px"/><polyline points="97.16 8.44 102.33 8.44 102.33 27.99" style="fill:none;stroke:#000;stroke-linecap:round;stroke-linejoin:round;stroke-width:2px"/><rect x="107.17" y="8.44" width="5.18" height="19.55" transform="translate(5.6 57.32) rotate(-30)" style="fill:none;stroke:#000;stroke-linecap:round;stroke-linejoin:round;stroke-width:2px"/><line x1="119.54" y1="27.99" x2="119.54" y2="32.23" style="fill:none;stroke:#000;stroke-linecap:round;stroke-linejoin:round;stroke-width:2px"/><line x1="90.61" y1="27.99" x2="90.61" y2="32.23" style="fill:none;stroke:#000;stroke-linecap:round;stroke-linejoin:round;stroke-width:2px"/></svg>