<svg id="Layer_1" data-name="Layer 1" xmlns="http://www.w3.org/2000/svg" viewBox="0 0 128 128"><title>iStar_Design_Business_LineIcons_Live-18</title><rect x="50.68" y="93.89" width="26.64" height="10.1" transform="translate(128 197.88) rotate(180)" style="fill:none;stroke:#000;stroke-linecap:round;stroke-linejoin:round;stroke-width:2px"/><line x1="96.12" y1="110.3" x2="31.88" y2="110.3" style="fill:none;stroke:#000;stroke-linecap:round;stroke-linejoin:round;stroke-width:2px"/><line x1="114.46" y1="117.82" x2="88.99" y2="117.82" style="fill:none;stroke:#000;stroke-linecap:round;stroke-linejoin:round;stroke-width:2px"/><line x1="68.18" y1="117.82" x2="64.69" y2="117.82" style="fill:none;stroke:#000;stroke-linecap:round;stroke-linejoin:round;stroke-width:2px"/><line x1="56.66" y1="117.82" x2="46.58" y2="117.82" style="fill:none;stroke:#000;stroke-linecap:round;stroke-linejoin:round;stroke-width:2px"/><line x1="34.95" y1="117.82" x2="20.65" y2="117.82" style="fill:none;stroke:#000;stroke-linecap:round;stroke-linejoin:round;stroke-width:2px"/><polyline points="84.25 109.94 84.25 87.94 43.74 87.94 43.74 109.94" style="fill:none;stroke:#000;stroke-linecap:round;stroke-linejoin:round;stroke-width:2px"/><polygon points="64 22.23 68.74 31.83 79.33 33.37 71.66 40.84 73.47 51.38 64 46.4 54.53 51.38 56.34 40.84 48.67 33.37 59.26 31.83 64 22.23" style="fill:none;stroke:#000;stroke-linecap:round;stroke-linejoin:round;stroke-width:2px"/><path d="M58.64,87.83V86.12A15.48,15.48,0,0,0,52.4,73.77c-9.68-7.28-19.63-19.22-19.63-38.34V10.18H94.13l-.08,25.25c0,16.29-9.54,31.33-19.39,38.55a15.45,15.45,0,0,0-6.4,12.46v1.39" style="fill:none;stroke:#000;stroke-linecap:round;stroke-linejoin:round;stroke-width:2px"/><path d="M32.82,23.85l-14.54,0v.88c0,14.86,7.74,26.86,17.15,26.86" style="fill:none;stroke:#000;stroke-linecap:round;stroke-linejoin:round;stroke-width:2px"/><path d="M38.1,57.9c-18,0-26.18-14.86-26.18-33.13v-4c0-1.71,1-3.1,2.18-3.1H32.68" style="fill:none;stroke:#000;stroke-linecap:round;stroke-linejoin:round;stroke-width:2px"/><path d="M94.24,23.89h15.48v.88c0,14.86-7.82,26.86-18.38,26.86" style="fill:none;stroke:#000;stroke-linecap:round;stroke-linejoin:round;stroke-width:2px"/><path d="M88.38,57.9c19.24,0,27.7-14.86,27.7-33.13v-4c0-1.71-1-3.1-2.18-3.1H94.38" style="fill:none;stroke:#000;stroke-linecap:round;stroke-linejoin:round;stroke-width:2px"/><path d="M47.87,59.23A15.33,15.33,0,0,0,49.93,62" style="fill:none;stroke:#000;stroke-linecap:round;stroke-linejoin:round;stroke-width:2px"/><path d="M40.63,35.6a50.72,50.72,0,0,0,3.64,16.92" style="fill:none;stroke:#000;stroke-linecap:round;stroke-linejoin:round;stroke-width:2px"/></svg>