<svg id="Layer_1" data-name="Layer 1" xmlns="http://www.w3.org/2000/svg" viewBox="0 0 128 128"><title>iStar_Design_Business_LineIcons_Live-79</title><polygon points="80.61 20.77 92.72 20.77 80.61 8.66 80.61 20.77" style="fill:none;stroke:#000;stroke-linecap:round;stroke-linejoin:round;stroke-width:2px"/><polyline points="35.28 52.87 35.28 8.66 80.61 8.66" style="fill:none;stroke:#000;stroke-linecap:round;stroke-linejoin:round;stroke-width:2px"/><line x1="92.72" y1="20.77" x2="92.72" y2="52.87" style="fill:none;stroke:#000;stroke-linecap:round;stroke-linejoin:round;stroke-width:2px"/><line x1="44.44" y1="29.73" x2="83.56" y2="29.73" style="fill:none;stroke:#000;stroke-linecap:round;stroke-linejoin:round;stroke-width:2px"/><line x1="44.44" y1="36.48" x2="83.56" y2="36.48" style="fill:none;stroke:#000;stroke-linecap:round;stroke-linejoin:round;stroke-width:2px"/><line x1="44.44" y1="43.22" x2="83.56" y2="43.22" style="fill:none;stroke:#000;stroke-linecap:round;stroke-linejoin:round;stroke-width:2px"/><line x1="26.85" y1="52.87" x2="101.15" y2="52.87" style="fill:none;stroke:#000;stroke-linecap:round;stroke-linejoin:round;stroke-width:2px"/><polyline points="92.72 40.08 113 40.08 113 121.52 15 121.52 15 40.08 35.28 40.08" style="fill:none;stroke:#000;stroke-linecap:round;stroke-linejoin:round;stroke-width:2px"/><rect x="15" y="62.13" width="98" height="20.41" style="fill:none;stroke:#000;stroke-linecap:round;stroke-linejoin:round;stroke-width:2px"/><line x1="35.28" y1="82.54" x2="35.28" y2="105.29" style="fill:none;stroke:#000;stroke-linecap:round;stroke-linejoin:round;stroke-width:2px"/><line x1="60.81" y1="82.54" x2="60.81" y2="105.29" style="fill:none;stroke:#000;stroke-linecap:round;stroke-linejoin:round;stroke-width:2px"/><line x1="48.04" y1="82.54" x2="48.04" y2="105.29" style="fill:none;stroke:#000;stroke-linecap:round;stroke-linejoin:round;stroke-width:2px"/><line x1="73.57" y1="82.54" x2="73.57" y2="105.29" style="fill:none;stroke:#000;stroke-linecap:round;stroke-linejoin:round;stroke-width:2px"/><line x1="86.34" y1="82.54" x2="86.34" y2="105.29" style="fill:none;stroke:#000;stroke-linecap:round;stroke-linejoin:round;stroke-width:2px"/><line x1="92.72" y1="82.54" x2="92.72" y2="105.29" style="fill:none;stroke:#000;stroke-linecap:round;stroke-linejoin:round;stroke-width:2px"/><polyline points="101.14 82.54 101.14 88.74 97.69 88.74" style="fill:none;stroke:#000;stroke-linecap:round;stroke-linejoin:round;stroke-width:2px"/><polyline points="26.86 82.54 26.86 88.74 30.31 88.74" style="fill:none;stroke:#000;stroke-linecap:round;stroke-linejoin:round;stroke-width:2px"/><line x1="79.96" y1="82.54" x2="79.96" y2="105.29" style="fill:none;stroke:#000;stroke-linecap:round;stroke-linejoin:round;stroke-width:2px"/><line x1="41.66" y1="82.54" x2="41.66" y2="105.29" style="fill:none;stroke:#000;stroke-linecap:round;stroke-linejoin:round;stroke-width:2px"/><line x1="67.19" y1="82.54" x2="67.19" y2="105.29" style="fill:none;stroke:#000;stroke-linecap:round;stroke-linejoin:round;stroke-width:2px"/><line x1="54.43" y1="82.54" x2="54.43" y2="105.29" style="fill:none;stroke:#000;stroke-linecap:round;stroke-linejoin:round;stroke-width:2px"/><path d="M105,72.54a2.77,2.77,0,1,1-2.76-2.77A2.77,2.77,0,0,1,105,72.54Z" style="fill:none;stroke:#000;stroke-linecap:round;stroke-linejoin:round;stroke-width:2px"/><rect x="21.66" y="67.7" width="21.41" height="9.68" style="fill:none;stroke:#000;stroke-linecap:round;stroke-linejoin:round;stroke-width:2px"/><line x1="49.08" y1="70.08" x2="57.54" y2="70.08" style="fill:none;stroke:#000;stroke-linecap:round;stroke-linejoin:round;stroke-width:2px"/><line x1="49.08" y1="74.99" x2="53.39" y2="74.99" style="fill:none;stroke:#000;stroke-linecap:round;stroke-linejoin:round;stroke-width:2px"/></svg>