<svg id="Layer_1" data-name="Layer 1" xmlns="http://www.w3.org/2000/svg" viewBox="0 0 128 128"><title>iStar_Design_Business_LineIcons_Live-36</title><line x1="32.9" y1="75.7" x2="32.9" y2="73.86" style="fill:none;stroke:#000;stroke-linecap:round;stroke-linejoin:round;stroke-width:2px"/><rect x="9.49" y="44.3" width="109.03" height="74.5" style="fill:none;stroke:#000;stroke-linecap:round;stroke-linejoin:round;stroke-width:2px"/><polyline points="26.4 80.75 26.4 89.3 32.9 94.3 39.39 89.3 39.39 80.75" style="fill:none;stroke:#000;stroke-linecap:round;stroke-linejoin:round;stroke-width:2px"/><rect x="23.57" y="68.8" width="18.65" height="11.95" style="fill:none;stroke:#000;stroke-linecap:round;stroke-linejoin:round;stroke-width:2px"/><line x1="26.4" y1="44.3" x2="26.4" y2="68.8" style="fill:none;stroke:#000;stroke-linecap:round;stroke-linejoin:round;stroke-width:2px"/><line x1="39.39" y1="68.8" x2="39.39" y2="44.3" style="fill:none;stroke:#000;stroke-linecap:round;stroke-linejoin:round;stroke-width:2px"/><line x1="95.56" y1="75.7" x2="95.56" y2="73.86" style="fill:none;stroke:#000;stroke-linecap:round;stroke-linejoin:round;stroke-width:2px"/><polyline points="89.07 80.75 89.07 89.3 95.56 94.3 102.06 89.3 102.06 80.75" style="fill:none;stroke:#000;stroke-linecap:round;stroke-linejoin:round;stroke-width:2px"/><rect x="86.24" y="68.8" width="18.65" height="11.95" style="fill:none;stroke:#000;stroke-linecap:round;stroke-linejoin:round;stroke-width:2px"/><rect x="54.9" y="70.37" width="18.65" height="8.82" style="fill:none;stroke:#000;stroke-linecap:round;stroke-linejoin:round;stroke-width:2px"/><line x1="89.07" y1="44.3" x2="89.07" y2="68.8" style="fill:none;stroke:#000;stroke-linecap:round;stroke-linejoin:round;stroke-width:2px"/><line x1="102.06" y1="68.8" x2="102.06" y2="44.3" style="fill:none;stroke:#000;stroke-linecap:round;stroke-linejoin:round;stroke-width:2px"/><line x1="23.57" y1="74.7" x2="9.49" y2="74.7" style="fill:none;stroke:#000;stroke-linecap:round;stroke-linejoin:round;stroke-width:2px"/><line x1="118.51" y1="74.7" x2="104.89" y2="74.7" style="fill:none;stroke:#000;stroke-linecap:round;stroke-linejoin:round;stroke-width:2px"/><line x1="86.24" y1="74.7" x2="73.55" y2="74.7" style="fill:none;stroke:#000;stroke-linecap:round;stroke-linejoin:round;stroke-width:2px"/><line x1="54.9" y1="74.7" x2="42.22" y2="74.7" style="fill:none;stroke:#000;stroke-linecap:round;stroke-linejoin:round;stroke-width:2px"/><line x1="118.51" y1="111.78" x2="9.49" y2="111.78" style="fill:none;stroke:#000;stroke-linecap:round;stroke-linejoin:round;stroke-width:2px"/><path d="M51.9,25V35.27a3.14,3.14,0,0,0,2.42,3.11A3.06,3.06,0,0,0,58,35.46v.09a3.05,3.05,0,1,0,6.1,0v-.12a3,3,0,0,0,6.09,0v.08a3.05,3.05,0,1,0,6.1,0V21.48a20.14,20.14,0,0,0-.8-5.62L73.55,9.2" style="fill:none;stroke:#000;stroke-linecap:round;stroke-linejoin:round;stroke-width:2px"/><path d="M50.83,31.07h0a3.94,3.94,0,0,1-3.93-3.93v-4c0-4.37,1.68-6.37,3.56-7.28a7.16,7.16,0,0,0,4.17-6.37V9.2" style="fill:none;stroke:#000;stroke-linecap:round;stroke-linejoin:round;stroke-width:2px"/><polyline points="76.29 34.78 80.1 34.78 80.1 44.3" style="fill:none;stroke:#000;stroke-linecap:round;stroke-linejoin:round;stroke-width:2px"/><polyline points="47.9 44.3 47.9 34.78 51.91 34.78" style="fill:none;stroke:#000;stroke-linecap:round;stroke-linejoin:round;stroke-width:2px"/><line x1="70.19" y1="32.56" x2="70.19" y2="35.39" style="fill:none;stroke:#000;stroke-linecap:round;stroke-linejoin:round;stroke-width:2px"/><line x1="64.1" y1="32.56" x2="64.1" y2="35.39" style="fill:none;stroke:#000;stroke-linecap:round;stroke-linejoin:round;stroke-width:2px"/><line x1="58" y1="32.56" x2="58" y2="35.39" style="fill:none;stroke:#000;stroke-linecap:round;stroke-linejoin:round;stroke-width:2px"/></svg>