<svg id="Layer_1" data-name="Layer 1" xmlns="http://www.w3.org/2000/svg" viewBox="0 0 128 128"><title>iStar_Design_Business_LineIcons_Live-43</title><circle cx="32.72" cy="32.6" r="21.96" transform="translate(-10.08 15.24) rotate(-22.82)" style="fill:none;stroke:#000;stroke-linecap:round;stroke-linejoin:round;stroke-width:2px"/><circle cx="32.72" cy="32.6" r="26.92" transform="translate(-10.11 15.3) rotate(-22.89)" style="fill:none;stroke:#000;stroke-linecap:round;stroke-linejoin:round;stroke-width:2px"/><line x1="17.19" y1="17.08" x2="18.92" y2="18.8" style="fill:none;stroke:#000;stroke-linecap:round;stroke-linejoin:round;stroke-width:2px"/><line x1="46.52" y1="46.41" x2="48.25" y2="48.13" style="fill:none;stroke:#000;stroke-linecap:round;stroke-linejoin:round;stroke-width:2px"/><line x1="48.25" y1="17.08" x2="46.52" y2="18.8" style="fill:none;stroke:#000;stroke-linecap:round;stroke-linejoin:round;stroke-width:2px"/><line x1="18.92" y1="46.41" x2="17.19" y2="48.13" style="fill:none;stroke:#000;stroke-linecap:round;stroke-linejoin:round;stroke-width:2px"/><line x1="32.72" y1="10.64" x2="32.72" y2="13.08" style="fill:none;stroke:#000;stroke-linecap:round;stroke-linejoin:round;stroke-width:2px"/><line x1="32.72" y1="52.12" x2="32.72" y2="54.56" style="fill:none;stroke:#000;stroke-linecap:round;stroke-linejoin:round;stroke-width:2px"/><line x1="54.68" y1="32.6" x2="52.24" y2="32.6" style="fill:none;stroke:#000;stroke-linecap:round;stroke-linejoin:round;stroke-width:2px"/><line x1="13.2" y1="32.6" x2="10.76" y2="32.6" style="fill:none;stroke:#000;stroke-linecap:round;stroke-linejoin:round;stroke-width:2px"/><polyline points="32.72 20.37 32.72 32.6 28.91 28.85" style="fill:none;stroke:#000;stroke-linecap:round;stroke-linejoin:round;stroke-width:2px"/><circle cx="95.28" cy="32.6" r="21.96" transform="translate(-5.22 38.94) rotate(-22.5)" style="fill:none;stroke:#000;stroke-linecap:round;stroke-linejoin:round;stroke-width:2px"/><circle cx="95.28" cy="32.6" r="26.92" transform="translate(-5.39 35.38) rotate(-20.47)" style="fill:none;stroke:#000;stroke-linecap:round;stroke-linejoin:round;stroke-width:2px"/><line x1="79.75" y1="17.08" x2="81.48" y2="18.8" style="fill:none;stroke:#000;stroke-linecap:round;stroke-linejoin:round;stroke-width:2px"/><line x1="109.08" y1="46.41" x2="110.81" y2="48.13" style="fill:none;stroke:#000;stroke-linecap:round;stroke-linejoin:round;stroke-width:2px"/><line x1="110.81" y1="17.08" x2="109.08" y2="18.8" style="fill:none;stroke:#000;stroke-linecap:round;stroke-linejoin:round;stroke-width:2px"/><line x1="81.48" y1="46.41" x2="79.75" y2="48.13" style="fill:none;stroke:#000;stroke-linecap:round;stroke-linejoin:round;stroke-width:2px"/><line x1="95.28" y1="10.64" x2="95.28" y2="13.08" style="fill:none;stroke:#000;stroke-linecap:round;stroke-linejoin:round;stroke-width:2px"/><line x1="95.28" y1="52.12" x2="95.28" y2="54.56" style="fill:none;stroke:#000;stroke-linecap:round;stroke-linejoin:round;stroke-width:2px"/><line x1="117.24" y1="32.6" x2="114.8" y2="32.6" style="fill:none;stroke:#000;stroke-linecap:round;stroke-linejoin:round;stroke-width:2px"/><line x1="75.76" y1="32.6" x2="73.32" y2="32.6" style="fill:none;stroke:#000;stroke-linecap:round;stroke-linejoin:round;stroke-width:2px"/><polyline points="95.28 20.37 95.28 32.6 89.56 32.6" style="fill:none;stroke:#000;stroke-linecap:round;stroke-linejoin:round;stroke-width:2px"/><circle cx="32.72" cy="95.4" r="21.96" transform="translate(-34.44 20.16) rotate(-22.82)" style="fill:none;stroke:#000;stroke-linecap:round;stroke-linejoin:round;stroke-width:2px"/><circle cx="32.72" cy="95.4" r="26.92" transform="translate(-34.54 20.24) rotate(-22.89)" style="fill:none;stroke:#000;stroke-linecap:round;stroke-linejoin:round;stroke-width:2px"/><line x1="17.19" y1="79.87" x2="18.92" y2="81.59" style="fill:none;stroke:#000;stroke-linecap:round;stroke-linejoin:round;stroke-width:2px"/><line x1="46.52" y1="109.2" x2="48.25" y2="110.92" style="fill:none;stroke:#000;stroke-linecap:round;stroke-linejoin:round;stroke-width:2px"/><line x1="48.25" y1="79.87" x2="46.52" y2="81.59" style="fill:none;stroke:#000;stroke-linecap:round;stroke-linejoin:round;stroke-width:2px"/><line x1="18.92" y1="109.2" x2="17.19" y2="110.92" style="fill:none;stroke:#000;stroke-linecap:round;stroke-linejoin:round;stroke-width:2px"/><line x1="32.72" y1="73.44" x2="32.72" y2="75.88" style="fill:none;stroke:#000;stroke-linecap:round;stroke-linejoin:round;stroke-width:2px"/><line x1="32.72" y1="114.92" x2="32.72" y2="117.36" style="fill:none;stroke:#000;stroke-linecap:round;stroke-linejoin:round;stroke-width:2px"/><line x1="54.68" y1="95.4" x2="52.24" y2="95.4" style="fill:none;stroke:#000;stroke-linecap:round;stroke-linejoin:round;stroke-width:2px"/><line x1="13.2" y1="95.4" x2="10.76" y2="95.4" style="fill:none;stroke:#000;stroke-linecap:round;stroke-linejoin:round;stroke-width:2px"/><polyline points="32.72 83.16 32.72 95.4 29.68 99.19" style="fill:none;stroke:#000;stroke-linecap:round;stroke-linejoin:round;stroke-width:2px"/><circle cx="95.28" cy="95.4" r="21.96" transform="translate(-29.25 43.72) rotate(-22.5)" style="fill:none;stroke:#000;stroke-linecap:round;stroke-linejoin:round;stroke-width:2px"/><circle cx="95.28" cy="95.4" r="26.92" transform="translate(-27.35 39.35) rotate(-20.47)" style="fill:none;stroke:#000;stroke-linecap:round;stroke-linejoin:round;stroke-width:2px"/><line x1="79.75" y1="79.87" x2="81.48" y2="81.59" style="fill:none;stroke:#000;stroke-linecap:round;stroke-linejoin:round;stroke-width:2px"/><line x1="109.08" y1="109.2" x2="110.81" y2="110.92" style="fill:none;stroke:#000;stroke-linecap:round;stroke-linejoin:round;stroke-width:2px"/><line x1="110.81" y1="79.87" x2="109.08" y2="81.59" style="fill:none;stroke:#000;stroke-linecap:round;stroke-linejoin:round;stroke-width:2px"/><line x1="81.48" y1="109.2" x2="79.75" y2="110.92" style="fill:none;stroke:#000;stroke-linecap:round;stroke-linejoin:round;stroke-width:2px"/><line x1="95.28" y1="73.44" x2="95.28" y2="75.88" style="fill:none;stroke:#000;stroke-linecap:round;stroke-linejoin:round;stroke-width:2px"/><line x1="95.28" y1="114.92" x2="95.28" y2="117.36" style="fill:none;stroke:#000;stroke-linecap:round;stroke-linejoin:round;stroke-width:2px"/><line x1="117.24" y1="95.4" x2="114.8" y2="95.4" style="fill:none;stroke:#000;stroke-linecap:round;stroke-linejoin:round;stroke-width:2px"/><line x1="75.76" y1="95.4" x2="73.32" y2="95.4" style="fill:none;stroke:#000;stroke-linecap:round;stroke-linejoin:round;stroke-width:2px"/><polyline points="95.28 83.16 95.28 95.4 101.01 95.4" style="fill:none;stroke:#000;stroke-linecap:round;stroke-linejoin:round;stroke-width:2px"/></svg>