<svg id="Layer_1" data-name="Layer 1" xmlns="http://www.w3.org/2000/svg" viewBox="0 0 128 128"><title>iStar_Design_Business_LineIcons_Live-61</title><path d="M119.9,60.64v53a5.15,5.15,0,0,1-5.13,5.13H13.23a5.15,5.15,0,0,1-5.13-5.13V77.31" style="fill:none;stroke:#000;stroke-linecap:round;stroke-linejoin:round;stroke-width:2px"/><line x1="118.21" y1="117.2" x2="92.98" y2="92.83" style="fill:none;stroke:#000;stroke-linecap:round;stroke-linejoin:round;stroke-width:2px"/><line x1="9.79" y1="117.2" x2="35.02" y2="92.83" style="fill:none;stroke:#000;stroke-linecap:round;stroke-linejoin:round;stroke-width:2px"/><line x1="75.07" y1="110.64" x2="56.57" y2="110.64" style="fill:none;stroke:#000;stroke-linecap:round;stroke-linejoin:round;stroke-width:2px"/><line x1="83.05" y1="110.64" x2="91.34" y2="110.64" style="fill:none;stroke:#000;stroke-linecap:round;stroke-linejoin:round;stroke-width:2px"/><polyline points="64 89.26 8.07 60.62 21.26 46.12" style="fill:none;stroke:#000;stroke-linecap:round;stroke-linejoin:round;stroke-width:2px"/><polyline points="64 89.26 119.93 60.62 106.74 46.12" style="fill:none;stroke:#000;stroke-linecap:round;stroke-linejoin:round;stroke-width:2px"/><polyline points="21.26 67.37 21.26 9.2 106.74 9.2 106.74 67.37" style="fill:none;stroke:#000;stroke-linecap:round;stroke-linejoin:round;stroke-width:2px"/><polyline points="40.16 38.16 40.16 23.13 48.15 38.16 48.26 23.09" style="fill:none;stroke:#000;stroke-linecap:round;stroke-linejoin:round;stroke-width:2px"/><polyline points="60.72 38.16 53.58 38.16 53.58 23.3 59.86 23.3" style="fill:none;stroke:#000;stroke-linecap:round;stroke-linejoin:round;stroke-width:2px"/><line x1="53.58" y1="30.73" x2="57.86" y2="30.73" style="fill:none;stroke:#000;stroke-linecap:round;stroke-linejoin:round;stroke-width:2px"/><polyline points="78.36 23.14 74.59 38.19 71.37 30.13" style="fill:none;stroke:#000;stroke-linecap:round;stroke-linejoin:round;stroke-width:2px"/><polyline points="64.38 23.14 68.14 38.19 71.37 30.13" style="fill:none;stroke:#000;stroke-linecap:round;stroke-linejoin:round;stroke-width:2px"/><path d="M86,30.71a3.74,3.74,0,1,1,2.68-6.37" style="fill:none;stroke:#000;stroke-linecap:round;stroke-linejoin:round;stroke-width:2px"/><path d="M86,30.72a3.74,3.74,0,0,1-.53,7.44,3.83,3.83,0,0,1-3.2-1.74" style="fill:none;stroke:#000;stroke-linecap:round;stroke-linejoin:round;stroke-width:2px"/><line x1="40.05" y1="49.56" x2="90.34" y2="49.56" style="fill:none;stroke:#000;stroke-linecap:round;stroke-linejoin:round;stroke-width:2px"/><line x1="40.05" y1="57.43" x2="86.21" y2="57.43" style="fill:none;stroke:#000;stroke-linecap:round;stroke-linejoin:round;stroke-width:2px"/><line x1="40.05" y1="65.51" x2="79.76" y2="65.51" style="fill:none;stroke:#000;stroke-linecap:round;stroke-linejoin:round;stroke-width:2px"/></svg>