<svg id="Layer_1" data-name="Layer 1" xmlns="http://www.w3.org/2000/svg" viewBox="0 0 128 128"><title>iStar_Design_Business_LineIcons_Live-88</title><line x1="64.04" y1="30.47" x2="89.07" y2="30.47" style="fill:none;stroke:#000;stroke-linecap:round;stroke-linejoin:round;stroke-width:2px"/><line x1="64.04" y1="37.4" x2="89.07" y2="37.4" style="fill:none;stroke:#000;stroke-linecap:round;stroke-linejoin:round;stroke-width:2px"/><polygon points="83.77 17.94 98.19 17.94 83.77 3.52 83.77 17.94" style="fill:none;stroke:#000;stroke-linecap:round;stroke-linejoin:round;stroke-width:2px"/><polyline points="29.81 78.61 29.81 3.52 83.77 3.52" style="fill:none;stroke:#000;stroke-linecap:round;stroke-linejoin:round;stroke-width:2px"/><line x1="98.19" y1="17.94" x2="98.19" y2="78.61" style="fill:none;stroke:#000;stroke-linecap:round;stroke-linejoin:round;stroke-width:2px"/><polygon points="46.8 25.33 49.39 30.58 55.18 31.42 50.99 35.5 51.98 41.27 46.8 38.55 41.62 41.27 42.61 35.5 38.42 31.42 44.21 30.58 46.8 25.33" style="fill:none;stroke:#000;stroke-linecap:round;stroke-linejoin:round;stroke-width:2px"/><line x1="64.04" y1="54.16" x2="89.07" y2="54.16" style="fill:none;stroke:#000;stroke-linecap:round;stroke-linejoin:round;stroke-width:2px"/><line x1="64.04" y1="61.1" x2="89.07" y2="61.1" style="fill:none;stroke:#000;stroke-linecap:round;stroke-linejoin:round;stroke-width:2px"/><polygon points="46.8 49.03 49.39 54.28 55.18 55.12 50.99 59.2 51.98 64.97 46.8 62.24 41.62 64.97 42.61 59.2 38.42 55.12 44.21 54.28 46.8 49.03" style="fill:none;stroke:#000;stroke-linecap:round;stroke-linejoin:round;stroke-width:2px"/><line x1="107.59" y1="78.61" x2="20.41" y2="78.61" style="fill:none;stroke:#000;stroke-linecap:round;stroke-linejoin:round;stroke-width:2px"/><path d="M98.19,21.59h19.2a6.13,6.13,0,0,1,6.11,6.11v74a6.13,6.13,0,0,1-6.11,6.11H10.61A6.13,6.13,0,0,1,4.5,101.7v-74a6.13,6.13,0,0,1,6.11-6.11h19.2" style="fill:none;stroke:#000;stroke-linecap:round;stroke-linejoin:round;stroke-width:2px"/><line x1="4.5" y1="89.24" x2="123.5" y2="89.24" style="fill:none;stroke:#000;stroke-linecap:round;stroke-linejoin:round;stroke-width:2px"/><path d="M66.65,98.82A2.65,2.65,0,1,1,64,96.17,2.65,2.65,0,0,1,66.65,98.82Z" style="fill:none;stroke:#000;stroke-linecap:round;stroke-linejoin:round;stroke-width:2px"/><line x1="49.09" y1="107.81" x2="45.52" y2="124.48" style="fill:none;stroke:#000;stroke-linecap:round;stroke-linejoin:round;stroke-width:2px"/><line x1="78.91" y1="107.81" x2="82.48" y2="124.48" style="fill:none;stroke:#000;stroke-linecap:round;stroke-linejoin:round;stroke-width:2px"/><line x1="94.63" y1="124.48" x2="33.37" y2="124.48" style="fill:none;stroke:#000;stroke-linecap:round;stroke-linejoin:round;stroke-width:2px"/></svg>