<svg id="Layer_1" data-name="Layer 1" xmlns="http://www.w3.org/2000/svg" viewBox="0 0 128 128"><title>iStar_Design_Business_LineIcons_Live-21</title><line x1="102.56" y1="42.39" x2="114.65" y2="42.39" style="fill:none;stroke:#000;stroke-linecap:round;stroke-linejoin:round;stroke-width:2px"/><line x1="102.56" y1="50.32" x2="114.65" y2="50.32" style="fill:none;stroke:#000;stroke-linecap:round;stroke-linejoin:round;stroke-width:2px"/><line x1="102.56" y1="58.25" x2="114.65" y2="58.25" style="fill:none;stroke:#000;stroke-linecap:round;stroke-linejoin:round;stroke-width:2px"/><line x1="88.43" y1="104.22" x2="88.43" y2="93.67" style="fill:none;stroke:#000;stroke-linecap:round;stroke-linejoin:round;stroke-width:2px"/><line x1="94.98" y1="104.22" x2="94.98" y2="91.31" style="fill:none;stroke:#000;stroke-linecap:round;stroke-linejoin:round;stroke-width:2px"/><line x1="101.54" y1="104.22" x2="101.54" y2="93.67" style="fill:none;stroke:#000;stroke-linecap:round;stroke-linejoin:round;stroke-width:2px"/><line x1="114.65" y1="104.22" x2="114.65" y2="82.7" style="fill:none;stroke:#000;stroke-linecap:round;stroke-linejoin:round;stroke-width:2px"/><line x1="108.1" y1="104.22" x2="108.1" y2="87.06" style="fill:none;stroke:#000;stroke-linecap:round;stroke-linejoin:round;stroke-width:2px"/><line x1="102.56" y1="66.19" x2="107.11" y2="66.19" style="fill:none;stroke:#000;stroke-linecap:round;stroke-linejoin:round;stroke-width:2px"/><polygon points="108.42 30.97 122.89 30.97 108.42 16.5 108.42 30.97" style="fill:none;stroke:#000;stroke-linecap:round;stroke-linejoin:round;stroke-width:2px"/><line x1="74.26" y1="16.5" x2="108.42" y2="16.5" style="fill:none;stroke:#000;stroke-linecap:round;stroke-linejoin:round;stroke-width:2px"/><polyline points="122.89 30.97 122.89 113.93 86.26 113.93" style="fill:none;stroke:#000;stroke-linecap:round;stroke-linejoin:round;stroke-width:2px"/><path d="M39.62,8.61a37.36,37.36,0,0,1,26.66,9.08C88.82,36.5,79.72,61.93,77.46,67.07c-2.92,6.62-8.89,20-10,25.83" style="fill:none;stroke:#000;stroke-linecap:round;stroke-linejoin:round;stroke-width:2px"/><path d="M42,38.87S42.5,53.4,24,53.32l-7.54,6.6H11.08l-6-4.72V48.45L18.93,33.53,15.48,31,23,21.9a34,34,0,0,1,7.17-3.27c.22-2.19.52-11.49.52-11.49s6.18,7.07,8.77,9.68A30,30,0,0,1,60.87,24.1c18.07,15.08,10.84,35.5,9,39.59S59.3,84.42,59.15,92.9h-38S19.4,75,27.65,67.85c10.13-8.72,15.47-14.53,11.86-21" style="fill:none;stroke:#000;stroke-linecap:round;stroke-linejoin:round;stroke-width:2px"/><path d="M70,103.27H18.26a2.68,2.68,0,0,1-2.67-2.67h0a2.68,2.68,0,0,1,2.67-2.67H70a2.68,2.68,0,0,1,2.67,2.67h0A2.68,2.68,0,0,1,70,103.27Z" style="fill:none;stroke:#000;stroke-linecap:round;stroke-linejoin:round;stroke-width:2px"/><path d="M79.77,120.86v-1.25A11.34,11.34,0,0,0,68.46,108.3H19.77A11.34,11.34,0,0,0,8.46,119.61v1.25Z" style="fill:none;stroke:#000;stroke-linecap:round;stroke-linejoin:round;stroke-width:2px"/><polyline points="25.14 11.85 17.84 15.78 19.56 19.07" style="fill:none;stroke:#000;stroke-linecap:round;stroke-linejoin:round;stroke-width:2px"/><polyline points="24.4 32 30.41 30.23 25.81 34.59" style="fill:none;stroke:#000;stroke-linecap:round;stroke-linejoin:round;stroke-width:2px"/><rect x="88.47" y="39.27" width="5.94" height="5.94" style="fill:none;stroke:#000;stroke-linecap:round;stroke-linejoin:round;stroke-width:2px"/><rect x="88.47" y="51.24" width="5.94" height="5.94" style="fill:none;stroke:#000;stroke-linecap:round;stroke-linejoin:round;stroke-width:2px"/><rect x="88.47" y="63.21" width="5.94" height="5.94" style="fill:none;stroke:#000;stroke-linecap:round;stroke-linejoin:round;stroke-width:2px"/><polyline points="79.77 91.31 93.17 80.97 97.83 84.97 116.65 72.81" style="fill:none;stroke:#000;stroke-linecap:round;stroke-linejoin:round;stroke-width:2px"/></svg>