<svg id="Layer_1" data-name="Layer 1" xmlns="http://www.w3.org/2000/svg" viewBox="0 0 128 128"><title>iStar_Design_Business_LineIcons_Live-3</title><path d="M99.92,49.73a25.69,25.69,0,0,0,1.16-7.67c0-12.71-9.16-22.22-20.46-22.22S60.16,29.35,60.16,42.06a25.7,25.7,0,0,0,1.17,7.67,6,6,0,0,0-2.64,5,5.92,5.92,0,0,0,4.24,5.73c2.93,8.75,9.75,14.88,17.69,14.88s14.77-6.13,17.7-14.88a5.91,5.91,0,0,0,4.23-5.73A6,6,0,0,0,99.92,49.73Z" style="fill:none;stroke:#000;stroke-linecap:round;stroke-linejoin:round;stroke-width:2px"/><path d="M96.92,41.55a6.78,6.78,0,0,0-6-4.92,20.73,20.73,0,0,0-3.11.66l3-4.59s-2.53-.06-6.8,3.77c-8.86,8-18.63,1.68-18.63,1.68" style="fill:none;stroke:#000;stroke-linecap:round;stroke-linejoin:round;stroke-width:2px"/><line x1="77.18" y1="89.59" x2="77.18" y2="112.87" style="fill:none;stroke:#000;stroke-linecap:round;stroke-linejoin:round;stroke-width:2px"/><line x1="84.63" y1="89.59" x2="84.63" y2="112.87" style="fill:none;stroke:#000;stroke-linecap:round;stroke-linejoin:round;stroke-width:2px"/><path d="M75.56,50.87a4.23,4.23,0,0,0-2.49-.7,4.19,4.19,0,0,0-2.49.7" style="fill:none;stroke:#000;stroke-linecap:round;stroke-linejoin:round;stroke-width:2px"/><path d="M90.72,50.87a4.19,4.19,0,0,0-2.49-.7,4.23,4.23,0,0,0-2.49.7" style="fill:none;stroke:#000;stroke-linecap:round;stroke-linejoin:round;stroke-width:2px"/><polyline points="80.9 85.39 88.42 93.86 98.53 82.85 94.19 75.41" style="fill:none;stroke:#000;stroke-linecap:round;stroke-linejoin:round;stroke-width:2px"/><path d="M63.36,82.55l-19,7.8a10.45,10.45,0,0,0-3,2.81,10.69,10.69,0,0,0-2,6.22v13.49" style="fill:none;stroke:#000;stroke-linecap:round;stroke-linejoin:round;stroke-width:2px"/><path d="M98.39,82.55,117.8,90.7c3.59,1.83,5,5.36,5,9v13.13" style="fill:none;stroke:#000;stroke-linecap:round;stroke-linejoin:round;stroke-width:2px"/><polyline points="80.9 85.39 73.38 93.86 63.27 82.85 67.61 75.41" style="fill:none;stroke:#000;stroke-linecap:round;stroke-linejoin:round;stroke-width:2px"/><line x1="94.19" y1="75.41" x2="80.9" y2="85.39" style="fill:none;stroke:#000;stroke-linecap:round;stroke-linejoin:round;stroke-width:2px"/><line x1="67.61" y1="75.41" x2="80.9" y2="85.39" style="fill:none;stroke:#000;stroke-linecap:round;stroke-linejoin:round;stroke-width:2px"/><line x1="37.44" y1="40.54" x2="55.04" y2="40.54" style="fill:none;stroke:#000;stroke-linecap:round;stroke-linejoin:round;stroke-width:2px"/><line x1="37.44" y1="47.08" x2="55.04" y2="47.08" style="fill:none;stroke:#000;stroke-linecap:round;stroke-linejoin:round;stroke-width:2px"/><polygon points="18.76 28.73 5.17 28.73 18.76 15.13 18.76 28.73" style="fill:none;stroke:#000;stroke-linecap:round;stroke-linejoin:round;stroke-width:2px"/><polyline points="69.64 21.93 69.64 15.13 18.76 15.13" style="fill:none;stroke:#000;stroke-linecap:round;stroke-linejoin:round;stroke-width:2px"/><polyline points="5.17 28.73 5.17 106.67 39.35 106.67" style="fill:none;stroke:#000;stroke-linecap:round;stroke-linejoin:round;stroke-width:2px"/><polygon points="21.19 35.7 23.63 40.65 29.09 41.44 25.14 45.29 26.07 50.73 21.19 48.16 16.31 50.73 17.24 45.29 13.29 41.44 18.75 40.65 21.19 35.7" style="fill:none;stroke:#000;stroke-linecap:round;stroke-linejoin:round;stroke-width:2px"/><line x1="37.44" y1="62.88" x2="55.04" y2="62.88" style="fill:none;stroke:#000;stroke-linecap:round;stroke-linejoin:round;stroke-width:2px"/><line x1="37.44" y1="69.42" x2="55.04" y2="69.42" style="fill:none;stroke:#000;stroke-linecap:round;stroke-linejoin:round;stroke-width:2px"/><polygon points="21.19 58.04 23.63 62.99 29.09 63.78 25.14 67.63 26.07 73.07 21.19 70.5 16.31 73.07 17.24 67.63 13.29 63.78 18.75 62.99 21.19 58.04" style="fill:none;stroke:#000;stroke-linecap:round;stroke-linejoin:round;stroke-width:2px"/><line x1="37.44" y1="85.23" x2="55.04" y2="85.23" style="fill:none;stroke:#000;stroke-linecap:round;stroke-linejoin:round;stroke-width:2px"/><line x1="37.44" y1="91.76" x2="42.15" y2="91.76" style="fill:none;stroke:#000;stroke-linecap:round;stroke-linejoin:round;stroke-width:2px"/><polygon points="21.19 80.39 23.63 85.33 29.09 86.12 25.14 89.97 26.07 95.41 21.19 92.84 16.31 95.41 17.24 89.97 13.29 86.12 18.75 85.33 21.19 80.39" style="fill:none;stroke:#000;stroke-linecap:round;stroke-linejoin:round;stroke-width:2px"/></svg>