<svg id="Layer_1" data-name="Layer 1" xmlns="http://www.w3.org/2000/svg" viewBox="0 0 128 128"><title>iStar_Design_Business_LineIcons_Live-65</title><line x1="110.36" y1="64.49" x2="123.65" y2="64.49" style="fill:none;stroke:#000;stroke-linecap:round;stroke-linejoin:round;stroke-width:2px"/><polyline points="119.2 60.04 123.65 64.49 119.2 68.94" style="fill:none;stroke:#000;stroke-linecap:round;stroke-linejoin:round;stroke-width:2px"/><line x1="17.81" y1="64.49" x2="4.35" y2="64.49" style="fill:none;stroke:#000;stroke-linecap:round;stroke-linejoin:round;stroke-width:2px"/><polyline points="8.8 68.94 4.35 64.49 8.8 60.04" style="fill:none;stroke:#000;stroke-linecap:round;stroke-linejoin:round;stroke-width:2px"/><line x1="64.09" y1="110.77" x2="64.09" y2="122.97" style="fill:none;stroke:#000;stroke-linecap:round;stroke-linejoin:round;stroke-width:2px"/><polyline points="68.54 118.52 64.09 122.97 59.63 118.52" style="fill:none;stroke:#000;stroke-linecap:round;stroke-linejoin:round;stroke-width:2px"/><line x1="64.09" y1="18.21" x2="64.09" y2="5.03" style="fill:none;stroke:#000;stroke-linecap:round;stroke-linejoin:round;stroke-width:2px"/><polyline points="59.63 9.48 64.09 5.03 68.54 9.48" style="fill:none;stroke:#000;stroke-linecap:round;stroke-linejoin:round;stroke-width:2px"/><ellipse cx="63.9" cy="64.88" rx="20.07" ry="33.75" style="fill:none;stroke:#000;stroke-linecap:round;stroke-linejoin:round;stroke-width:2px"/><circle cx="63.9" cy="64.88" r="33.75" transform="translate(-24.98 45.04) rotate(-32.85)" style="fill:none;stroke:#000;stroke-linecap:round;stroke-linejoin:round;stroke-width:2px"/><line x1="30.83" y1="64.88" x2="96.96" y2="64.88" style="fill:none;stroke:#000;stroke-linecap:round;stroke-linejoin:round;stroke-width:2px"/><line x1="63.9" y1="31.82" x2="63.9" y2="97.95" style="fill:none;stroke:#000;stroke-linecap:round;stroke-linejoin:round;stroke-width:2px"/><path d="M36.69,45a112,112,0,0,0,27.77,3A111.8,111.8,0,0,0,91,44.86" style="fill:none;stroke:#000;stroke-linecap:round;stroke-linejoin:round;stroke-width:2px"/><path d="M91.1,84.8a112.42,112.42,0,0,0-27.77-3A111.75,111.75,0,0,0,36.76,84.9" style="fill:none;stroke:#000;stroke-linecap:round;stroke-linejoin:round;stroke-width:2px"/><path d="M20.89,48.85A45.37,45.37,0,0,0,19,55.32" style="fill:none;stroke:#000;stroke-linecap:round;stroke-linejoin:round;stroke-width:2px"/><path d="M28.28,35.93a48.44,48.44,0,0,0-3.1,4.31" style="fill:none;stroke:#000;stroke-linecap:round;stroke-linejoin:round;stroke-width:2px"/><path d="M84.92,24.08l-1-.49" style="fill:none;stroke:#000;stroke-linecap:round;stroke-linejoin:round;stroke-width:2px"/><path d="M109.19,57.47a45.88,45.88,0,0,0-20.1-30.95" style="fill:none;stroke:#000;stroke-linecap:round;stroke-linejoin:round;stroke-width:2px"/><path d="M103.76,87.63A45.9,45.9,0,0,0,107.57,79" style="fill:none;stroke:#000;stroke-linecap:round;stroke-linejoin:round;stroke-width:2px"/><path d="M64.4,110.77q2,0,4-.21a45.68,45.68,0,0,0,24.19-9.83" style="fill:none;stroke:#000;stroke-linecap:round;stroke-linejoin:round;stroke-width:2px"/><path d="M18.65,72.55a45.88,45.88,0,0,0,22.2,32" style="fill:none;stroke:#000;stroke-linecap:round;stroke-linejoin:round;stroke-width:2px"/><path d="M56.73,19.75a45.61,45.61,0,0,0-16.85,6.78" style="fill:none;stroke:#000;stroke-linecap:round;stroke-linejoin:round;stroke-width:2px"/></svg>