<svg id="Layer_1" data-name="Layer 1" xmlns="http://www.w3.org/2000/svg" viewBox="0 0 128 128"><title>iStar_Design_Business_LineIcons_Live-60</title><path d="M74.06,15.13a49.05,49.05,0,0,1,4.84,1.25" style="fill:none;stroke:#000;stroke-linecap:round;stroke-linejoin:round;stroke-width:2px"/><path d="M87.37,19.91A50.19,50.19,0,0,1,98.51,28" style="fill:none;stroke:#000;stroke-linecap:round;stroke-linejoin:round;stroke-width:2px;stroke-dasharray:9.19120979309082,9.19120979309082"/><path d="M101.68,31.3c1.09,1.25,2.12,2.57,3.09,3.93" style="fill:none;stroke:#000;stroke-linecap:round;stroke-linejoin:round;stroke-width:2px"/><path d="M104.77,35.23a49.89,49.89,0,0,1-15.1,71.55" style="fill:none;stroke:#000;stroke-linecap:round;stroke-linejoin:round;stroke-width:2px"/><path d="M38.25,106.74A49.91,49.91,0,0,1,74.06,15.13" style="fill:none;stroke:#000;stroke-linecap:round;stroke-linejoin:round;stroke-width:2px"/><ellipse cx="64" cy="64" rx="57.5" ry="57.48" style="fill:none;stroke:#000;stroke-linecap:round;stroke-linejoin:round;stroke-width:2px"/><path d="M44.08,110a38.15,38.15,0,0,0,4.7,1.71" style="fill:none;stroke:#000;stroke-linecap:round;stroke-linejoin:round;stroke-width:2px"/><path d="M58.27,113.65a46.41,46.41,0,0,0,14.49-.54" style="fill:none;stroke:#000;stroke-linecap:round;stroke-linejoin:round;stroke-width:2px;stroke-dasharray:9.706439971923828,9.706439971923828"/><path d="M77.46,111.86A39,39,0,0,0,82.09,110" style="fill:none;stroke:#000;stroke-linecap:round;stroke-linejoin:round;stroke-width:2px"/><path d="M76.82,50c0,9.46-6,17.13-13.37,17.13S50.09,58.54,50.09,50" style="fill:none;stroke:#000;stroke-linecap:round;stroke-linejoin:round;stroke-width:2px"/><path d="M78.41,43.18c2,0,2.73,1.89,2.73,4.42s-1.6,4.57-3.58,4.57" style="fill:none;stroke:#000;stroke-linecap:round;stroke-linejoin:round;stroke-width:2px"/><path d="M49.7,52c-1.94,0-3.52-2-3.52-4.5S47,43,48.92,43" style="fill:none;stroke:#000;stroke-linecap:round;stroke-linejoin:round;stroke-width:2px"/><line x1="54.45" y1="69.32" x2="54.46" y2="62.49" style="fill:none;stroke:#000;stroke-linecap:round;stroke-linejoin:round;stroke-width:2px"/><line x1="73.45" y1="61.68" x2="73.45" y2="69.32" style="fill:none;stroke:#000;stroke-linecap:round;stroke-linejoin:round;stroke-width:2px"/><path d="M54.45,69.32S43.9,74,36.24,76s-9.69,14.58-10,20.58" style="fill:none;stroke:#000;stroke-linecap:round;stroke-linejoin:round;stroke-width:2px"/><path d="M73.5,69.32a189.78,189.78,0,0,0,19,6.68c7.66,2,8.92,14.58,9.25,20.58" style="fill:none;stroke:#000;stroke-linecap:round;stroke-linejoin:round;stroke-width:2px"/><path d="M50.09,40.28s-3.27-11.78-.6-14.45A6.65,6.65,0,0,1,55,23.68s.46-2.93,5.65-2.93c4.55,0,10.74.1,15.59,5.08a6.08,6.08,0,0,1,1.63,4.93l-1.06,9.52S75.23,30.51,55,30.51Z" style="fill:none;stroke:#000;stroke-linecap:round;stroke-linejoin:round;stroke-width:2px"/><path d="M75.37,70.26a11.37,11.37,0,1,1-22.74,0" style="fill:none;stroke:#000;stroke-linecap:round;stroke-linejoin:round;stroke-width:2px"/><line x1="76.82" y1="40.28" x2="76.82" y2="47.12" style="fill:none;stroke:#000;stroke-linecap:round;stroke-linejoin:round;stroke-width:2px"/><line x1="50.09" y1="40.28" x2="50.09" y2="47.12" style="fill:none;stroke:#000;stroke-linecap:round;stroke-linejoin:round;stroke-width:2px"/></svg>