<svg id="Layer_1" data-name="Layer 1" xmlns="http://www.w3.org/2000/svg" viewBox="0 0 128 128"><title>iStar_Design_Business_LineIcons_Live-51</title><ellipse cx="63.08" cy="72.73" rx="23.57" ry="48.82" style="fill:none;stroke:#000;stroke-linecap:round;stroke-linejoin:round;stroke-width:2px"/><line x1="13.16" y1="72.73" x2="113" y2="72.73" style="fill:none;stroke:#000;stroke-linecap:round;stroke-linejoin:round;stroke-width:2px"/><path d="M27.53,39.32A57.18,57.18,0,0,0,63.7,51.42,57.37,57.37,0,0,0,98.63,39.35" style="fill:none;stroke:#000;stroke-linecap:round;stroke-linejoin:round;stroke-width:2px"/><path d="M98.63,106.13A57.18,57.18,0,0,0,62.46,94a57.37,57.37,0,0,0-34.93,12.08" style="fill:none;stroke:#000;stroke-linecap:round;stroke-linejoin:round;stroke-width:2px"/><path d="M8.3,51.43a58.3,58.3,0,0,1,5.1-10.1" style="fill:none;stroke:#000;stroke-linecap:round;stroke-linejoin:round;stroke-width:2px"/><path d="M6.16,58.09q.25-1,.54-2" style="fill:none;stroke:#000;stroke-linecap:round;stroke-linejoin:round;stroke-width:2px"/><path d="M16.93,109.11A59,59,0,0,1,8.64,94.89" style="fill:none;stroke:#000;stroke-linecap:round;stroke-linejoin:round;stroke-width:2px"/><path d="M26.08,118.38a59.87,59.87,0,0,1-4.51-4.06" style="fill:none;stroke:#000;stroke-linecap:round;stroke-linejoin:round;stroke-width:2px"/><path d="M113,103.73q-1,1.56-2,3.06" style="fill:none;stroke:#000;stroke-linecap:round;stroke-linejoin:round;stroke-width:2px"/><path d="M121.84,72.73a58.58,58.58,0,0,1-2.53,17.11" style="fill:none;stroke:#000;stroke-linecap:round;stroke-linejoin:round;stroke-width:2px"/><circle cx="63.08" cy="72.73" r="49.92" style="fill:none;stroke:#000;stroke-linecap:round;stroke-linejoin:round;stroke-width:2px"/><line x1="105.06" y1="45.34" x2="105.06" y2="29.3" style="fill:none;stroke:#000;stroke-linecap:round;stroke-linejoin:round;stroke-width:2px"/><path d="M110.72,23.65A5.66,5.66,0,1,1,105.06,18,5.66,5.66,0,0,1,110.72,23.65Z" style="fill:none;stroke:#000;stroke-linecap:round;stroke-linejoin:round;stroke-width:2px"/><line x1="55.36" y1="65.23" x2="55.36" y2="46.99" style="fill:none;stroke:#000;stroke-linecap:round;stroke-linejoin:round;stroke-width:2px"/><path d="M61,41.33a5.66,5.66,0,1,1-5.65-5.66A5.66,5.66,0,0,1,61,41.33Z" style="fill:none;stroke:#000;stroke-linecap:round;stroke-linejoin:round;stroke-width:2px"/><line x1="95.25" y1="83.19" x2="95.25" y2="62.74" style="fill:none;stroke:#000;stroke-linecap:round;stroke-linejoin:round;stroke-width:2px"/><path d="M100.91,57.08a5.66,5.66,0,1,1-5.66-5.65A5.66,5.66,0,0,1,100.91,57.08Z" style="fill:none;stroke:#000;stroke-linecap:round;stroke-linejoin:round;stroke-width:2px"/><line x1="68.74" y1="39.32" x2="68.74" y2="16.66" style="fill:none;stroke:#000;stroke-linecap:round;stroke-linejoin:round;stroke-width:2px"/><path d="M74.39,11a5.66,5.66,0,1,1-5.65-5.65A5.65,5.65,0,0,1,74.39,11Z" style="fill:none;stroke:#000;stroke-linecap:round;stroke-linejoin:round;stroke-width:2px"/></svg>