<svg id="Layer_1" data-name="Layer 1" xmlns="http://www.w3.org/2000/svg" viewBox="0 0 128 128"><title>iStar_Design_Business_LineIcons_Live-59</title><path d="M115.86,64c0-.45,0-.9,0-1.34l-6.34-2.57,5.78-3.91a51,51,0,0,0-4.4-14.33l-7.23.24,3.88-6.21a51.68,51.68,0,0,0-9.78-11.13L91,28.07l1-7.52a51.49,51.49,0,0,0-13.36-6.07l-5,5.9L71.56,13a50.81,50.81,0,0,0-14.64,0l-2.14,7.43-5-5.9a51.56,51.56,0,0,0-13.37,6.07l1,7.52-6.76-3.28A51.63,51.63,0,0,0,21,35.92l3.87,6.21-7.23-.24a51.34,51.34,0,0,0-4.4,14.33L19,60.13,12.66,62.7c0,.44,0,.89,0,1.34a51.57,51.57,0,0,0,1.86,13.75L21,78.94l-4.49,4.67a51.51,51.51,0,0,0,7.9,13.22l6.05-1.5-2.09,5.77a51.52,51.52,0,0,0,12.67,9l4.73-3.68.42,5.94a51.24,51.24,0,0,0,15.31,3.19l2.77-5.2,2.77,5.2a51.24,51.24,0,0,0,15.32-3.19l.42-5.94,4.72,3.68a51.77,51.77,0,0,0,12.68-9l-2.1-5.77,6.06,1.5A52.09,52.09,0,0,0,112,83.61l-4.5-4.67L114,77.79A51.57,51.57,0,0,0,115.86,64Z" style="fill:none;stroke:#000;stroke-linecap:round;stroke-linejoin:round;stroke-width:2px"/><path d="M86,53.47,79.43,53,81,46.62a24.17,24.17,0,0,0-5.34-3.9L70,46.15l-2.49-6a23.86,23.86,0,0,0-6.61,0l-2.5,6-5.57-3.43a24.23,24.23,0,0,0-5.35,3.9L49.06,53l-6.53.5a24,24,0,0,0-2,6.29l5,4.24-5,4.24a24,24,0,0,0,2,6.29l6.53.5-1.54,6.35a24.23,24.23,0,0,0,5.35,3.9l5.57-3.43,2.5,6a23.86,23.86,0,0,0,6.61,0l2.49-6,5.58,3.43A24.17,24.17,0,0,0,81,81.38L79.43,75l6.52-.5a24,24,0,0,0,2-6.29L83,64l5-4.24A24,24,0,0,0,86,53.47Z" style="fill:none;stroke:#000;stroke-linecap:round;stroke-linejoin:round;stroke-width:2px"/><path d="M99.68,63.6c0,.13,0,.27,0,.4" style="fill:none;stroke:#000;stroke-linecap:round;stroke-linejoin:round;stroke-width:2px"/><path d="M99,56.86c.17.84.31,1.7.42,2.56" style="fill:none;stroke:#000;stroke-linecap:round;stroke-linejoin:round;stroke-width:2px"/><path d="M64.24,28.56A35.46,35.46,0,0,1,97.11,50.7" style="fill:none;stroke:#000;stroke-linecap:round;stroke-linejoin:round;stroke-width:2px"/><path d="M29.9,72.79A35.4,35.4,0,0,1,28.8,64" style="fill:none;stroke:#000;stroke-linecap:round;stroke-linejoin:round;stroke-width:2px"/><path d="M64.24,99.44A35.46,35.46,0,0,1,32.53,79.86" style="fill:none;stroke:#000;stroke-linecap:round;stroke-linejoin:round;stroke-width:2px"/><path d="M122,85a61.42,61.42,0,0,1-10.2,17.89,62.09,62.09,0,0,1-9,8.88" style="fill:none;stroke:#000;stroke-linecap:round;stroke-linejoin:round;stroke-width:2px"/><path d="M124.76,74.51c-.27,1.6-.61,3.18-1,4.73" style="fill:none;stroke:#000;stroke-linecap:round;stroke-linejoin:round;stroke-width:2px"/><path d="M15,27.27c1.11-1.48,2.29-2.92,3.53-4.3" style="fill:none;stroke:#000;stroke-linecap:round;stroke-linejoin:round;stroke-width:2px"/><path d="M3.24,56.86a60.88,60.88,0,0,1,5.94-20.1" style="fill:none;stroke:#000;stroke-linecap:round;stroke-linejoin:round;stroke-width:2px"/><circle cx="64.24" cy="64" r="10.52" style="fill:none;stroke:#000;stroke-linecap:round;stroke-linejoin:round;stroke-width:2px"/><polyline points="70.26 33.54 64.24 28.55 71.12 24.84" style="fill:none;stroke:#000;stroke-linecap:round;stroke-linejoin:round;stroke-width:2px"/><polyline points="57.76 95.09 64.23 99.47 57.74 103.83" style="fill:none;stroke:#000;stroke-linecap:round;stroke-linejoin:round;stroke-width:2px"/></svg>