<svg id="Layer_1" data-name="Layer 1" xmlns="http://www.w3.org/2000/svg" viewBox="0 0 128 128"><title>iStar_Design_Business_LineIcons_Live-33</title><polygon points="75.66 81.09 102.81 81.09 105.98 88.52 72.49 88.52 75.66 81.09" style="fill:none;stroke:#000;stroke-linecap:round;stroke-linejoin:round;stroke-width:2px"/><path d="M92.59,5.7H53.36a4.47,4.47,0,0,0-4.46,4.46V24.93a4.47,4.47,0,0,0,4.46,4.46h3.73v7.28l11.43-7.28H92.59a4.48,4.48,0,0,0,4.46-4.46V10.16A4.48,4.48,0,0,0,92.59,5.7Z" style="fill:none;stroke:#000;stroke-linecap:round;stroke-linejoin:round;stroke-width:2px"/><line x1="84.87" y1="14.28" x2="61.08" y2="14.28" style="fill:none;stroke:#000;stroke-linecap:round;stroke-linejoin:round;stroke-width:2px"/><line x1="66.54" y1="20.64" x2="61.08" y2="20.64" style="fill:none;stroke:#000;stroke-linecap:round;stroke-linejoin:round;stroke-width:2px"/><path d="M97.05,19.41h12.49a5.75,5.75,0,0,1,5.73,5.73V91.41" style="fill:none;stroke:#000;stroke-linecap:round;stroke-linejoin:round;stroke-width:2px"/><path d="M54.09,100.31H9.35a5.75,5.75,0,0,1-5.73-5.73V25.14a5.75,5.75,0,0,1,5.73-5.73H48.9" style="fill:none;stroke:#000;stroke-linecap:round;stroke-linejoin:round;stroke-width:2px"/><line x1="3.61" y1="82.89" x2="70.45" y2="82.89" style="fill:none;stroke:#000;stroke-linecap:round;stroke-linejoin:round;stroke-width:2px"/><line x1="107.39" y1="82.89" x2="114.61" y2="82.89" style="fill:none;stroke:#000;stroke-linecap:round;stroke-linejoin:round;stroke-width:2px"/><line x1="45.46" y1="100.31" x2="42.11" y2="115.96" style="fill:none;stroke:#000;stroke-linecap:round;stroke-linejoin:round;stroke-width:2px"/><line x1="54.09" y1="115.96" x2="30.7" y2="115.96" style="fill:none;stroke:#000;stroke-linecap:round;stroke-linejoin:round;stroke-width:2px"/><path d="M46,47.22a14.37,14.37,0,0,0,.66-4.29c0-7.11-5.13-12.44-11.45-12.44S23.71,35.82,23.71,42.93a14.37,14.37,0,0,0,.65,4.29A3.34,3.34,0,0,0,22.89,50a3.3,3.3,0,0,0,2.37,3.21c1.64,4.9,5.45,8.33,9.9,8.33s8.26-3.43,9.9-8.33a3.36,3.36,0,0,0,.89-6Z" style="fill:none;stroke:#000;stroke-linecap:round;stroke-linejoin:round;stroke-width:2px"/><path d="M43.11,42.31C42.79,41,41.88,41,40.72,41c-.37,0-.6-3-.6-3s-1.23,0-3.3,1.84a7.62,7.62,0,0,1-9,.81" style="fill:none;stroke:#000;stroke-linecap:round;stroke-linejoin:round;stroke-width:2px"/><polyline points="35.31 68.22 39.52 72.96 45.17 66.8 42.75 62.64" style="fill:none;stroke:#000;stroke-linecap:round;stroke-linejoin:round;stroke-width:2px"/><path d="M25.5,66.64,14.88,71a5.91,5.91,0,0,0-2.81,5v6.43" style="fill:none;stroke:#000;stroke-linecap:round;stroke-linejoin:round;stroke-width:2px"/><path d="M45.1,66.64,56,71.2a5.35,5.35,0,0,1,2.81,5v6.23" style="fill:none;stroke:#000;stroke-linecap:round;stroke-linejoin:round;stroke-width:2px"/><polyline points="35.31 68.22 31.11 72.96 25.45 66.8 27.88 62.64" style="fill:none;stroke:#000;stroke-linecap:round;stroke-linejoin:round;stroke-width:2px"/><line x1="42.75" y1="62.64" x2="35.31" y2="68.22" style="fill:none;stroke:#000;stroke-linecap:round;stroke-linejoin:round;stroke-width:2px"/><line x1="27.88" y1="62.64" x2="35.31" y2="68.22" style="fill:none;stroke:#000;stroke-linecap:round;stroke-linejoin:round;stroke-width:2px"/><line x1="67.15" y1="113.87" x2="67.15" y2="122.28" style="fill:none;stroke:#000;stroke-linecap:round;stroke-linejoin:round;stroke-width:2px"/><line x1="112.19" y1="113.87" x2="112.19" y2="122.28" style="fill:none;stroke:#000;stroke-linecap:round;stroke-linejoin:round;stroke-width:2px"/><path d="M95.35,81.09V78.93a19.08,19.08,0,0,0,8.47-10.83,5.06,5.06,0,0,0,1.35-9,21.67,21.67,0,0,0,1-6.46c0-10.71-7.72-18.71-17.23-18.71s-17.23,8-17.23,18.71a21.67,21.67,0,0,0,1,6.46,5.06,5.06,0,0,0,1.35,9,19.08,19.08,0,0,0,8.47,10.83v2.16" style="fill:none;stroke:#000;stroke-linecap:round;stroke-linejoin:round;stroke-width:2px"/><path d="M124.39,122.3V101.19c0-3.1-1.22-6.07-4.24-7.61L106,88.44l0,.08" style="fill:none;stroke:#000;stroke-linecap:round;stroke-linejoin:round;stroke-width:2px"/><path d="M72.65,88.13,58.33,93.28a8.92,8.92,0,0,0-4.24,7.61V122.3" style="fill:none;stroke:#000;stroke-linecap:round;stroke-linejoin:round;stroke-width:2px"/><line x1="102.51" y1="103.95" x2="90.75" y2="115.72" style="fill:none;stroke:#000;stroke-linecap:round;stroke-linejoin:round;stroke-width:2px"/><line x1="101.2" y1="112.54" x2="97.31" y2="116.43" style="fill:none;stroke:#000;stroke-linecap:round;stroke-linejoin:round;stroke-width:2px"/><path d="M105.17,59.08c-1.29,3.56-5,6.94-7.26,8.73-.29.22-2.51-2.56-2.51-2.56s-1.34,4.92-2,5.18C86.78,73,78.6,69.78,72.67,59.08" style="fill:none;stroke:#000;stroke-linecap:round;stroke-linejoin:round;stroke-width:2px"/></svg>