<svg id="Layer_1" data-name="Layer 1" xmlns="http://www.w3.org/2000/svg" viewBox="0 0 128 128"><title>iStar_Design_Business_LineIcons_Live-48</title><line x1="66" y1="57.2" x2="75.98" y2="57.2" style="fill:none;stroke:#000;stroke-linecap:round;stroke-linejoin:round;stroke-width:2px"/><line x1="66" y1="61.87" x2="75.98" y2="61.87" style="fill:none;stroke:#000;stroke-linecap:round;stroke-linejoin:round;stroke-width:2px"/><rect x="50.84" y="55.46" width="8.16" height="8.16" style="fill:none;stroke:#000;stroke-linecap:round;stroke-linejoin:round;stroke-width:2px"/><line x1="66" y1="73.36" x2="75.98" y2="73.36" style="fill:none;stroke:#000;stroke-linecap:round;stroke-linejoin:round;stroke-width:2px"/><line x1="66" y1="78.02" x2="75.98" y2="78.02" style="fill:none;stroke:#000;stroke-linecap:round;stroke-linejoin:round;stroke-width:2px"/><rect x="50.84" y="71.61" width="8.16" height="8.16" style="fill:none;stroke:#000;stroke-linecap:round;stroke-linejoin:round;stroke-width:2px"/><line x1="66" y1="89.51" x2="75.98" y2="89.51" style="fill:none;stroke:#000;stroke-linecap:round;stroke-linejoin:round;stroke-width:2px"/><line x1="66" y1="94.18" x2="70.98" y2="94.18" style="fill:none;stroke:#000;stroke-linecap:round;stroke-linejoin:round;stroke-width:2px"/><rect x="50.84" y="87.76" width="8.16" height="8.16" style="fill:none;stroke:#000;stroke-linecap:round;stroke-linejoin:round;stroke-width:2px"/><rect x="42.12" y="35.09" width="43.76" height="85.27" rx="4.54" ry="4.54" style="fill:none;stroke:#000;stroke-linecap:round;stroke-linejoin:round;stroke-width:2px"/><circle cx="64" cy="113.2" r="2.83" style="fill:none;stroke:#000;stroke-linecap:round;stroke-linejoin:round;stroke-width:2px"/><line x1="47.31" y1="44.95" x2="80.69" y2="44.95" style="fill:none;stroke:#000;stroke-linecap:round;stroke-linejoin:round;stroke-width:2px"/><line x1="80.69" y1="106.84" x2="47.31" y2="106.84" style="fill:none;stroke:#000;stroke-linecap:round;stroke-linejoin:round;stroke-width:2px"/><line x1="62.26" y1="39.72" x2="65.74" y2="39.72" style="fill:none;stroke:#000;stroke-linecap:round;stroke-linejoin:round;stroke-width:2px"/><path d="M39.82,22.07a21.45,21.45,0,0,0-5.15,10" style="fill:none;stroke:#000;stroke-linecap:round;stroke-linejoin:round;stroke-width:2px"/><path d="M48.6,16.25a21,21,0,0,0-3,1.31" style="fill:none;stroke:#000;stroke-linecap:round;stroke-linejoin:round;stroke-width:2px"/><path d="M107.73,57.2a17.16,17.16,0,0,0,.13-2.16" style="fill:none;stroke:#000;stroke-linecap:round;stroke-linejoin:round;stroke-width:2px"/><path d="M100.15,69.54a17.57,17.57,0,0,0,6.47-8" style="fill:none;stroke:#000;stroke-linecap:round;stroke-linejoin:round;stroke-width:2px"/><path d="M85.88,76.81h8.45A21,21,0,0,0,97,34.9,17.11,17.11,0,0,0,80,20.09a16.93,16.93,0,0,0-4.8.7A25.91,25.91,0,0,0,26.78,33.56q0,.84.06,1.68a21,21,0,0,0,4.6,41.57H41.65" style="fill:none;stroke:#000;stroke-linecap:round;stroke-linejoin:round;stroke-width:2px"/><path d="M23.34,104.22H16.65a7.79,7.79,0,0,1-7.79-7.79h0a7.79,7.79,0,0,1,7.79-7.79h18" style="fill:none;stroke:#000;stroke-linecap:round;stroke-linejoin:round;stroke-width:2px"/><polyline points="19.09 99.97 23.34 104.22 19.09 108.47" style="fill:none;stroke:#000;stroke-linecap:round;stroke-linejoin:round;stroke-width:2px"/><path d="M104.66,98.89h6.69a7.79,7.79,0,0,1,7.79,7.79h0a7.79,7.79,0,0,1-7.79,7.79h-18" style="fill:none;stroke:#000;stroke-linecap:round;stroke-linejoin:round;stroke-width:2px"/><polyline points="108.91 103.14 104.66 98.89 108.91 94.64" style="fill:none;stroke:#000;stroke-linecap:round;stroke-linejoin:round;stroke-width:2px"/></svg>