<svg id="Layer_1" data-name="Layer 1" xmlns="http://www.w3.org/2000/svg" viewBox="0 0 128 128"><title>iStar_Design_Business_LineIcons_Live-86</title><rect x="22.56" y="101.02" width="6.16" height="6.16" style="fill:none;stroke:#000;stroke-linecap:round;stroke-linejoin:round;stroke-width:2px"/><line x1="33.94" y1="101.83" x2="50.08" y2="101.83" style="fill:none;stroke:#000;stroke-linecap:round;stroke-linejoin:round;stroke-width:2px"/><line x1="33.94" y1="106.37" x2="50.08" y2="106.37" style="fill:none;stroke:#000;stroke-linecap:round;stroke-linejoin:round;stroke-width:2px"/><line x1="56.87" y1="106.37" x2="66.14" y2="106.37" style="fill:none;stroke:#000;stroke-linecap:round;stroke-linejoin:round;stroke-width:2px"/><line x1="73.14" y1="106.37" x2="76.44" y2="106.37" style="fill:none;stroke:#000;stroke-linecap:round;stroke-linejoin:round;stroke-width:2px"/><rect x="22.56" y="29.41" width="6.16" height="6.16" style="fill:none;stroke:#000;stroke-linecap:round;stroke-linejoin:round;stroke-width:2px"/><line x1="33.94" y1="30.22" x2="40.08" y2="30.22" style="fill:none;stroke:#000;stroke-linecap:round;stroke-linejoin:round;stroke-width:2px"/><path d="M59,60.05h0V44h0A16.07,16.07,0,1,0,75,60.05Z" style="fill:none;stroke:#000;stroke-linecap:round;stroke-linejoin:round;stroke-width:2px"/><path d="M64.23,38.73V54.8H80.29A16.14,16.14,0,0,0,64.23,38.73Z" style="fill:none;stroke:#000;stroke-linecap:round;stroke-linejoin:round;stroke-width:2px"/><path d="M85.59,44.23A28.68,28.68,0,1,1,81.2,38.6" style="fill:none;stroke:#000;stroke-linecap:round;stroke-linejoin:round;stroke-width:2px"/><path d="M61,94.18a35.25,35.25,0,0,1-21.66-7.41" style="fill:none;stroke:#000;stroke-linecap:round;stroke-linejoin:round;stroke-width:2px;stroke-dasharray:6"/><path d="M39.29,86.77A35.35,35.35,0,1,1,61,94.18" style="fill:none;stroke:#000;stroke-linecap:round;stroke-linejoin:round;stroke-width:2px"/><path d="M120.2,118.33h0a7.55,7.55,0,0,1-10.68,0L90.87,99.84l10.69-10.69,18.64,18.5A7.55,7.55,0,0,1,120.2,118.33Z" style="fill:none;stroke:#000;stroke-linecap:round;stroke-linejoin:round;stroke-width:2px"/><line x1="93.42" y1="97.29" x2="82.95" y2="86.82" style="fill:none;stroke:#000;stroke-linecap:round;stroke-linejoin:round;stroke-width:2px"/><line x1="88.41" y1="81.09" x2="99.02" y2="91.69" style="fill:none;stroke:#000;stroke-linecap:round;stroke-linejoin:round;stroke-width:2px"/><polyline points="69.27 9.85 69.27 13.7 30.57 13.7 30.57 9.85" style="fill:none;stroke:#000;stroke-linecap:round;stroke-linejoin:round;stroke-width:2px"/><rect x="24.39" y="4.68" width="51.05" height="14.19" style="fill:none;stroke:#000;stroke-linecap:round;stroke-linejoin:round;stroke-width:2px"/><polyline points="86.89 34.76 86.89 13.79 75.45 13.79" style="fill:none;stroke:#000;stroke-linecap:round;stroke-linejoin:round;stroke-width:2px"/><polyline points="24.39 13.79 12.95 13.79 12.95 116.1 86.89 116.1 86.89 90.77" style="fill:none;stroke:#000;stroke-linecap:round;stroke-linejoin:round;stroke-width:2px"/><polyline points="94.25 46.27 94.25 8.9 75.45 8.9" style="fill:none;stroke:#000;stroke-linecap:round;stroke-linejoin:round;stroke-width:2px"/><line x1="94.25" y1="86.39" x2="94.25" y2="70.76" style="fill:none;stroke:#000;stroke-linecap:round;stroke-linejoin:round;stroke-width:2px"/><polyline points="24.39 8.9 5.58 8.9 5.58 123.32 94.25 123.32 94.25 103.21" style="fill:none;stroke:#000;stroke-linecap:round;stroke-linejoin:round;stroke-width:2px"/><line x1="22.56" y1="90.82" x2="32.32" y2="90.82" style="fill:none;stroke:#000;stroke-linecap:round;stroke-linejoin:round;stroke-width:2px"/><line x1="22.56" y1="86.22" x2="29.32" y2="86.22" style="fill:none;stroke:#000;stroke-linecap:round;stroke-linejoin:round;stroke-width:2px"/></svg>