<svg id="Layer_1" data-name="Layer 1" xmlns="http://www.w3.org/2000/svg" viewBox="0 0 128 128"><title>iStar_Design_Business_LineIcons_Live-16</title><polyline points="18.69 71.03 47.28 55.27 52.6 61.09 75.17 47.32 82.46 55.68 114.45 28.75" style="fill:none;stroke:#000;stroke-linecap:round;stroke-linejoin:round;stroke-width:2px"/><polyline points="105.27 30.75 114.45 28.75 111.45 37.42" style="fill:none;stroke:#000;stroke-linecap:round;stroke-linejoin:round;stroke-width:2px"/><polyline points="36.27 66.52 36.27 73.45 30.55 73.45 30.55 69.69" style="fill:none;stroke:#000;stroke-linecap:round;stroke-linejoin:round;stroke-width:2px"/><polyline points="47.67 64.41 47.67 73.45 41.95 73.45 41.95 64.41" style="fill:none;stroke:#000;stroke-linecap:round;stroke-linejoin:round;stroke-width:2px"/><polyline points="70.46 58.07 70.46 73.45 64.75 73.45 64.75 62.29" style="fill:none;stroke:#000;stroke-linecap:round;stroke-linejoin:round;stroke-width:2px"/><polyline points="81.86 64.41 81.86 73.45 76.15 73.45 76.15 60.18" style="fill:none;stroke:#000;stroke-linecap:round;stroke-linejoin:round;stroke-width:2px"/><polyline points="93.26 58.07 93.26 73.45 87.55 73.45 87.55 61.24" style="fill:none;stroke:#000;stroke-linecap:round;stroke-linejoin:round;stroke-width:2px"/><polyline points="59.06 66.52 59.06 73.45 53.35 73.45 53.35 68.64" style="fill:none;stroke:#000;stroke-linecap:round;stroke-linejoin:round;stroke-width:2px"/><polyline points="87.55 42 87.55 24.51 93.26 24.51 93.26 36.77" style="fill:none;stroke:#000;stroke-linecap:round;stroke-linejoin:round;stroke-width:2px"/><polyline points="64.75 46.23 64.75 30.79 70.46 30.79 70.46 42" style="fill:none;stroke:#000;stroke-linecap:round;stroke-linejoin:round;stroke-width:2px"/><polyline points="53.35 52.57 53.35 43.47 59.06 43.47 59.06 49.4" style="fill:none;stroke:#000;stroke-linecap:round;stroke-linejoin:round;stroke-width:2px"/><polyline points="41.95 50.45 41.95 39.25 47.67 39.25 47.67 47.28" style="fill:none;stroke:#000;stroke-linecap:round;stroke-linejoin:round;stroke-width:2px"/><polyline points="30.55 56.8 30.55 48.76 36.27 48.76 36.27 53.63" style="fill:none;stroke:#000;stroke-linecap:round;stroke-linejoin:round;stroke-width:2px"/><polyline points="76.15 40.83 76.15 35.02 81.86 35.02 81.86 45.11" style="fill:none;stroke:#000;stroke-linecap:round;stroke-linejoin:round;stroke-width:2px"/><rect x="4.5" y="12.55" width="118.99" height="86.22" rx="6.11" ry="6.11" style="fill:none;stroke:#000;stroke-linecap:round;stroke-linejoin:round;stroke-width:2px"/><line x1="4.5" y1="80.21" x2="123.5" y2="80.21" style="fill:none;stroke:#000;stroke-linecap:round;stroke-linejoin:round;stroke-width:2px"/><path d="M66.65,89.78A2.65,2.65,0,1,1,64,87.13,2.65,2.65,0,0,1,66.65,89.78Z" style="fill:none;stroke:#000;stroke-linecap:round;stroke-linejoin:round;stroke-width:2px"/><line x1="61.83" y1="18.11" x2="66.17" y2="18.11" style="fill:none;stroke:#000;stroke-linecap:round;stroke-linejoin:round;stroke-width:2px"/><line x1="49.09" y1="98.77" x2="45.52" y2="115.45" style="fill:none;stroke:#000;stroke-linecap:round;stroke-linejoin:round;stroke-width:2px"/><line x1="78.91" y1="98.77" x2="82.48" y2="115.45" style="fill:none;stroke:#000;stroke-linecap:round;stroke-linejoin:round;stroke-width:2px"/><line x1="94.63" y1="115.45" x2="33.37" y2="115.45" style="fill:none;stroke:#000;stroke-linecap:round;stroke-linejoin:round;stroke-width:2px"/><line x1="15.24" y1="26.45" x2="25.04" y2="26.45" style="fill:none;stroke:#000;stroke-linecap:round;stroke-linejoin:round;stroke-width:2px"/><line x1="15.24" y1="37.69" x2="20.14" y2="37.69" style="fill:none;stroke:#000;stroke-linecap:round;stroke-linejoin:round;stroke-width:2px"/><line x1="24.67" y1="37.69" x2="32.21" y2="37.69" style="fill:none;stroke:#000;stroke-linecap:round;stroke-linejoin:round;stroke-width:2px"/><line x1="32.66" y1="32.07" x2="34.97" y2="32.07" style="fill:none;stroke:#000;stroke-linecap:round;stroke-linejoin:round;stroke-width:2px"/><line x1="15.24" y1="32.07" x2="27.31" y2="32.07" style="fill:none;stroke:#000;stroke-linecap:round;stroke-linejoin:round;stroke-width:2px"/></svg>