<svg id="Layer_1" data-name="Layer 1" xmlns="http://www.w3.org/2000/svg" viewBox="0 0 128 128"><title>iStar_Design_Business_LineIcons_Live-25</title><line x1="112.33" y1="54.75" x2="15.67" y2="54.75" style="fill:none;stroke:#000;stroke-linecap:round;stroke-linejoin:round;stroke-width:2px"/><polyline points="21.33 54.75 21.33 30.83 106.67 30.83 106.67 54.75" style="fill:none;stroke:#000;stroke-linecap:round;stroke-linejoin:round;stroke-width:2px"/><polyline points="18.26 50.45 15.14 26.73 99.74 15.61 101.75 30.83" style="fill:none;stroke:#000;stroke-linecap:round;stroke-linejoin:round;stroke-width:2px"/><path d="M99.26,54.75v-11a5.82,5.82,0,0,1-5.82-5.82s0-.07,0-.11H34.55s0,.08,0,.11a5.82,5.82,0,0,1-5.82,5.82v11" style="fill:none;stroke:#000;stroke-linecap:round;stroke-linejoin:round;stroke-width:2px"/><path d="M75.77,54.75a12.4,12.4,0,0,0-23.54,0" style="fill:none;stroke:#000;stroke-linecap:round;stroke-linejoin:round;stroke-width:2px"/><path d="M16.33,42.51H14.85a9,9,0,0,0-9,9v52a9,9,0,0,0,9,9h98.3a9,9,0,0,0,9-9v-52a9,9,0,0,0-9-9h-6.48" style="fill:none;stroke:#000;stroke-linecap:round;stroke-linejoin:round;stroke-width:2px"/><line x1="59.33" y1="60.9" x2="59.33" y2="63.87" style="fill:none;stroke:#000;stroke-linecap:round;stroke-linejoin:round;stroke-width:2px"/><line x1="59.33" y1="69.23" x2="59.33" y2="72.2" style="fill:none;stroke:#000;stroke-linecap:round;stroke-linejoin:round;stroke-width:2px"/><line x1="59.33" y1="77.55" x2="59.33" y2="80.52" style="fill:none;stroke:#000;stroke-linecap:round;stroke-linejoin:round;stroke-width:2px"/><line x1="59.33" y1="85.88" x2="59.33" y2="88.84" style="fill:none;stroke:#000;stroke-linecap:round;stroke-linejoin:round;stroke-width:2px"/><line x1="59.33" y1="94.2" x2="59.33" y2="97.17" style="fill:none;stroke:#000;stroke-linecap:round;stroke-linejoin:round;stroke-width:2px"/><line x1="59.33" y1="102.53" x2="59.33" y2="105.49" style="fill:none;stroke:#000;stroke-linecap:round;stroke-linejoin:round;stroke-width:2px"/><line x1="68.67" y1="60.9" x2="68.67" y2="63.87" style="fill:none;stroke:#000;stroke-linecap:round;stroke-linejoin:round;stroke-width:2px"/><line x1="68.67" y1="69.23" x2="68.67" y2="72.2" style="fill:none;stroke:#000;stroke-linecap:round;stroke-linejoin:round;stroke-width:2px"/><line x1="68.67" y1="77.55" x2="68.67" y2="80.52" style="fill:none;stroke:#000;stroke-linecap:round;stroke-linejoin:round;stroke-width:2px"/><line x1="68.67" y1="85.88" x2="68.67" y2="88.84" style="fill:none;stroke:#000;stroke-linecap:round;stroke-linejoin:round;stroke-width:2px"/><line x1="68.67" y1="94.2" x2="68.67" y2="97.17" style="fill:none;stroke:#000;stroke-linecap:round;stroke-linejoin:round;stroke-width:2px"/><line x1="68.67" y1="102.53" x2="68.67" y2="105.49" style="fill:none;stroke:#000;stroke-linecap:round;stroke-linejoin:round;stroke-width:2px"/><polyline points="122.12 66.87 117.41 66.87 114.87 72.44 81.72 72.44 79.18 66.87 74.47 66.87" style="fill:none;stroke:#000;stroke-linecap:round;stroke-linejoin:round;stroke-width:2px"/><polyline points="122.12 76.94 117.41 76.94 114.87 82.51 81.72 82.51 79.18 76.94 74.47 76.94" style="fill:none;stroke:#000;stroke-linecap:round;stroke-linejoin:round;stroke-width:2px"/><polyline points="122.12 87 117.41 87 114.87 92.58 81.72 92.58 79.18 87 74.47 87" style="fill:none;stroke:#000;stroke-linecap:round;stroke-linejoin:round;stroke-width:2px"/><polyline points="5.88 80.84 47.89 96.48 47.89 112.4" style="fill:none;stroke:#000;stroke-linecap:round;stroke-linejoin:round;stroke-width:2px"/><path d="M13.56,83.55V66.77a2.9,2.9,0,0,1,2.9-2.9H41.74a2.9,2.9,0,0,1,2.9,2.9v28.5" style="fill:none;stroke:#000;stroke-linecap:round;stroke-linejoin:round;stroke-width:2px"/><line x1="21.26" y1="63.87" x2="21.26" y2="86.56" style="fill:none;stroke:#000;stroke-linecap:round;stroke-linejoin:round;stroke-width:2px"/><line x1="26.48" y1="63.87" x2="26.48" y2="88.51" style="fill:none;stroke:#000;stroke-linecap:round;stroke-linejoin:round;stroke-width:2px"/><rect x="35.81" y="69.23" width="4.25" height="6.48" style="fill:none;stroke:#000;stroke-linecap:round;stroke-linejoin:round;stroke-width:2px"/></svg>