<svg id="Layer_1" data-name="Layer 1" xmlns="http://www.w3.org/2000/svg" viewBox="0 0 128 128"><title>iStar_Design_Business_LineIcons_Live-92</title><circle cx="63.99" cy="61.16" r="10.03" style="fill:none;stroke:#000;stroke-linecap:round;stroke-linejoin:round;stroke-width:2px"/><circle cx="63.99" cy="61.16" r="24.02" transform="translate(-10.1 109.59) rotate(-76.88)" style="fill:none;stroke:#000;stroke-linecap:round;stroke-linejoin:round;stroke-width:2px"/><circle cx="63.99" cy="61.16" r="39.99" style="fill:none;stroke:#000;stroke-linecap:round;stroke-linejoin:round;stroke-width:2px"/><path d="M110.83,32.65A54.8,54.8,0,1,1,92.14,14.1" style="fill:none;stroke:#000;stroke-linecap:round;stroke-linejoin:round;stroke-width:2px"/><polyline points="63.99 61.16 102 23.15 103.5 21.65" style="fill:none;stroke:#000;stroke-linecap:round;stroke-linejoin:round;stroke-width:2px"/><polyline points="97.58 27.57 107.76 27.57 118.84 16.5 110.09 15.05 108.65 6.31 97.58 17.38 97.58 27.57" style="fill:none;stroke:#000;stroke-linecap:round;stroke-linejoin:round;stroke-width:2px"/><line x1="105.16" y1="16.16" x2="104.26" y2="10.71" style="fill:none;stroke:#000;stroke-linecap:round;stroke-linejoin:round;stroke-width:2px"/><polyline points="32.43 106 21.6 121.69 13.4 121.69 24 98.65" style="fill:none;stroke:#000;stroke-linecap:round;stroke-linejoin:round;stroke-width:2px"/><polyline points="95.59 106 106.42 121.69 114.62 121.69 104.02 98.65" style="fill:none;stroke:#000;stroke-linecap:round;stroke-linejoin:round;stroke-width:2px"/><path d="M43.67,18c.58-.27,1.16-.53,1.75-.78" style="fill:none;stroke:#000;stroke-linecap:round;stroke-linejoin:round;stroke-width:2px"/><path d="M28.06,29.75A47.82,47.82,0,0,1,40,19.92" style="fill:none;stroke:#000;stroke-linecap:round;stroke-linejoin:round;stroke-width:2px"/></svg>