<svg id="Layer_1" data-name="Layer 1" xmlns="http://www.w3.org/2000/svg" viewBox="0 0 128 128"><title>iStar_Design_Business_LineIcons_Live-75</title><polyline points="102.42 51.33 107.35 56.27 112.29 51.33" style="fill:none;stroke:#000;stroke-linecap:round;stroke-linejoin:round;stroke-width:2px"/><path d="M91.18,32.87h8.06A8.11,8.11,0,0,1,107.35,41V56.27" style="fill:none;stroke:#000;stroke-linecap:round;stroke-linejoin:round;stroke-width:2px"/><polyline points="27.19 76.67 22.26 71.73 17.32 76.67" style="fill:none;stroke:#000;stroke-linecap:round;stroke-linejoin:round;stroke-width:2px"/><path d="M38.43,95.13H30.37A8.11,8.11,0,0,1,22.26,87V71.73" style="fill:none;stroke:#000;stroke-linecap:round;stroke-linejoin:round;stroke-width:2px"/><path d="M14.12,52.07V15.38a3.12,3.12,0,0,1,3.12-3.12h62a3.12,3.12,0,0,1,3.12,3.12V52.07" style="fill:none;stroke:#000;stroke-linecap:round;stroke-linejoin:round;stroke-width:2px"/><polyline points="18.8 52.27 18.8 17.4 77.71 17.4 77.71 52.27" style="fill:none;stroke:#000;stroke-linecap:round;stroke-linejoin:round;stroke-width:2px"/><path d="M58,52.31V54H38.56V52.31H4.71s4.77,5.88,9,5.88H82.82c3.9,0,8-5.88,8-5.88Z" style="fill:none;stroke:#000;stroke-linecap:round;stroke-linejoin:round;stroke-width:2px"/><path d="M46.61,109.62V72.93a3.12,3.12,0,0,1,3.12-3.12h62a3.12,3.12,0,0,1,3.12,3.12v36.69" style="fill:none;stroke:#000;stroke-linecap:round;stroke-linejoin:round;stroke-width:2px"/><polyline points="51.29 109.82 51.29 74.95 110.2 74.95 110.2 109.82" style="fill:none;stroke:#000;stroke-linecap:round;stroke-linejoin:round;stroke-width:2px"/><path d="M90.44,109.86v1.73H71.05v-1.73H37.2s4.78,5.88,8.95,5.88h69.16c3.9,0,8-5.88,8-5.88Z" style="fill:none;stroke:#000;stroke-linecap:round;stroke-linejoin:round;stroke-width:2px"/><line x1="44.84" y1="27.66" x2="64.67" y2="27.66" style="fill:none;stroke:#000;stroke-linecap:round;stroke-linejoin:round;stroke-width:2px"/><line x1="44.84" y1="31.31" x2="64.67" y2="31.31" style="fill:none;stroke:#000;stroke-linecap:round;stroke-linejoin:round;stroke-width:2px"/><rect x="31.5" y="26.16" width="6.85" height="6.85" style="fill:none;stroke:#000;stroke-linecap:round;stroke-linejoin:round;stroke-width:2px"/><line x1="44.84" y1="40.31" x2="64.67" y2="40.31" style="fill:none;stroke:#000;stroke-linecap:round;stroke-linejoin:round;stroke-width:2px"/><line x1="58.09" y1="82.39" x2="68.63" y2="82.39" style="fill:none;stroke:#000;stroke-linecap:round;stroke-linejoin:round;stroke-width:2px"/><line x1="58.09" y1="87.33" x2="68.63" y2="87.33" style="fill:none;stroke:#000;stroke-linecap:round;stroke-linejoin:round;stroke-width:2px"/><line x1="58.09" y1="92.27" x2="62.63" y2="92.27" style="fill:none;stroke:#000;stroke-linecap:round;stroke-linejoin:round;stroke-width:2px"/><line x1="44.84" y1="43.96" x2="64.67" y2="43.96" style="fill:none;stroke:#000;stroke-linecap:round;stroke-linejoin:round;stroke-width:2px"/><rect x="31.5" y="38.81" width="6.85" height="6.85" style="fill:none;stroke:#000;stroke-linecap:round;stroke-linejoin:round;stroke-width:2px"/><line x1="76.39" y1="104.16" x2="76.39" y2="98.39" style="fill:none;stroke:#000;stroke-linecap:round;stroke-linejoin:round;stroke-width:2px"/><line x1="81.63" y1="104.16" x2="81.63" y2="86.39" style="fill:none;stroke:#000;stroke-linecap:round;stroke-linejoin:round;stroke-width:2px"/><line x1="86.86" y1="104.16" x2="86.86" y2="92.39" style="fill:none;stroke:#000;stroke-linecap:round;stroke-linejoin:round;stroke-width:2px"/><line x1="92.1" y1="104.16" x2="92.1" y2="84.39" style="fill:none;stroke:#000;stroke-linecap:round;stroke-linejoin:round;stroke-width:2px"/><line x1="102.58" y1="104.16" x2="102.58" y2="90.39" style="fill:none;stroke:#000;stroke-linecap:round;stroke-linejoin:round;stroke-width:2px"/><line x1="97.34" y1="104.16" x2="97.34" y2="95.39" style="fill:none;stroke:#000;stroke-linecap:round;stroke-linejoin:round;stroke-width:2px"/></svg>