<svg id="Layer_1" data-name="Layer 1" xmlns="http://www.w3.org/2000/svg" viewBox="0 0 128 128"><title>iStar_Design_Business_LineIcons_Live-58</title><rect x="4.71" y="15.12" width="85.82" height="44.52" style="fill:none;stroke:#000;stroke-linecap:round;stroke-linejoin:round;stroke-width:2px"/><path d="M43.07,44.25a5,5,0,1,0,4.06-8h-.06a3.9,3.9,0,1,1,3.15-6.19" style="fill:none;stroke:#000;stroke-linecap:round;stroke-linejoin:round;stroke-width:2px"/><line x1="47.07" y1="28.45" x2="47.07" y2="26.29" style="fill:none;stroke:#000;stroke-linecap:round;stroke-linejoin:round;stroke-width:2px"/><line x1="47.07" y1="48.48" x2="47.07" y2="46.32" style="fill:none;stroke:#000;stroke-linecap:round;stroke-linejoin:round;stroke-width:2px"/><path d="M79.05,20.86H16.19a6.35,6.35,0,0,1-5.78,5.67v21.7a6.36,6.36,0,0,1,5.78,5.68H79.05a6.34,6.34,0,0,1,5.77-5.68V26.53A6.33,6.33,0,0,1,79.05,20.86Z" style="fill:none;stroke:#000;stroke-linecap:round;stroke-linejoin:round;stroke-width:2px"/><line x1="84.82" y1="37.38" x2="76.45" y2="37.38" style="fill:none;stroke:#000;stroke-linecap:round;stroke-linejoin:round;stroke-width:2px"/><line x1="18.79" y1="37.38" x2="10.41" y2="37.38" style="fill:none;stroke:#000;stroke-linecap:round;stroke-linejoin:round;stroke-width:2px"/><line x1="68.61" y1="88.6" x2="82.62" y2="88.6" style="fill:none;stroke:#000;stroke-linecap:round;stroke-linejoin:round;stroke-width:2px"/><line x1="68.61" y1="93.97" x2="82.62" y2="93.97" style="fill:none;stroke:#000;stroke-linecap:round;stroke-linejoin:round;stroke-width:2px"/><path d="M87.42,83.3a9.5,9.5,0,1,0,0,16" style="fill:none;stroke:#000;stroke-linecap:round;stroke-linejoin:round;stroke-width:2px"/><rect x="37.47" y="69.36" width="85.82" height="44.52" style="fill:none;stroke:#000;stroke-linecap:round;stroke-linejoin:round;stroke-width:2px"/><path d="M111.81,75.09H49a6.34,6.34,0,0,1-5.77,5.68v21.7A6.33,6.33,0,0,1,49,108.14h62.86a6.35,6.35,0,0,1,5.78-5.67V80.77A6.36,6.36,0,0,1,111.81,75.09Z" style="fill:none;stroke:#000;stroke-linecap:round;stroke-linejoin:round;stroke-width:2px"/><line x1="117.59" y1="91.62" x2="109.21" y2="91.62" style="fill:none;stroke:#000;stroke-linecap:round;stroke-linejoin:round;stroke-width:2px"/><line x1="51.55" y1="91.62" x2="43.18" y2="91.62" style="fill:none;stroke:#000;stroke-linecap:round;stroke-linejoin:round;stroke-width:2px"/><polyline points="104.42 52.48 111.72 59.78 119.03 52.48" style="fill:none;stroke:#000;stroke-linecap:round;stroke-linejoin:round;stroke-width:2px"/><path d="M95.55,36.38h8.06a8.12,8.12,0,0,1,8.11,8.12V59.78" style="fill:none;stroke:#000;stroke-linecap:round;stroke-linejoin:round;stroke-width:2px"/><polyline points="26.58 75.52 19.27 68.22 11.97 75.52" style="fill:none;stroke:#000;stroke-linecap:round;stroke-linejoin:round;stroke-width:2px"/><path d="M31.45,91.62H27.39a8.12,8.12,0,0,1-8.11-8.12V68.22" style="fill:none;stroke:#000;stroke-linecap:round;stroke-linejoin:round;stroke-width:2px"/></svg>