<svg id="Layer_1" data-name="Layer 1" xmlns="http://www.w3.org/2000/svg" viewBox="0 0 128 128"><title>iStar_Design_Business_LineIcons_Live-57</title><line x1="7.98" y1="13.19" x2="7.98" y2="114.81" style="fill:none;stroke:#000;stroke-linecap:round;stroke-linejoin:round;stroke-width:2px"/><line x1="7.98" y1="114.81" x2="120.02" y2="114.81" style="fill:none;stroke:#000;stroke-linecap:round;stroke-linejoin:round;stroke-width:2px"/><rect x="99.43" y="94.94" width="7.37" height="19.87" transform="translate(206.22 209.75) rotate(180)" style="fill:none;stroke:#000;stroke-linecap:round;stroke-linejoin:round;stroke-width:2px"/><rect x="83.92" y="79.49" width="7.37" height="35.32" transform="translate(175.2 194.3) rotate(180)" style="fill:none;stroke:#000;stroke-linecap:round;stroke-linejoin:round;stroke-width:2px"/><rect x="37.39" y="78.45" width="7.37" height="36.37" transform="translate(82.15 193.26) rotate(180)" style="fill:none;stroke:#000;stroke-linecap:round;stroke-linejoin:round;stroke-width:2px"/><rect x="52.9" y="65.66" width="7.37" height="49.15" transform="translate(113.17 180.47) rotate(180)" style="fill:none;stroke:#000;stroke-linecap:round;stroke-linejoin:round;stroke-width:2px"/><rect x="21.88" y="47.63" width="7.37" height="67.18" transform="translate(51.14 162.45) rotate(180)" style="fill:none;stroke:#000;stroke-linecap:round;stroke-linejoin:round;stroke-width:2px"/><rect x="68.41" y="81.87" width="7.37" height="32.94" transform="translate(144.19 196.68) rotate(180)" style="fill:none;stroke:#000;stroke-linecap:round;stroke-linejoin:round;stroke-width:2px"/><polyline points="113.93 73.3 113.93 81.23 106.17 81.23" style="fill:none;stroke:#000;stroke-linecap:round;stroke-linejoin:round;stroke-width:2px"/><path d="M45.8,48.07a4.3,4.3,0,1,1-4.29-4.3A4.29,4.29,0,0,1,45.8,48.07Z" style="fill:none;stroke:#000;stroke-linecap:round;stroke-linejoin:round;stroke-width:2px"/><path d="M56.76,39.25A4.29,4.29,0,1,1,52.47,35,4.29,4.29,0,0,1,56.76,39.25Z" style="fill:none;stroke:#000;stroke-linecap:round;stroke-linejoin:round;stroke-width:2px"/><circle cx="74.42" cy="62.33" r="4.29" style="fill:none;stroke:#000;stroke-linecap:round;stroke-linejoin:round;stroke-width:2px"/><path d="M89.3,54.36A4.3,4.3,0,1,1,85,50.07,4.29,4.29,0,0,1,89.3,54.36Z" style="fill:none;stroke:#000;stroke-linecap:round;stroke-linejoin:round;stroke-width:2px"/><line x1="38.28" y1="44.76" x2="18.45" y2="23.55" style="fill:none;stroke:#000;stroke-linecap:round;stroke-linejoin:round;stroke-width:2px"/><line x1="49.13" y1="41.95" x2="44.88" y2="45.42" style="fill:none;stroke:#000;stroke-linecap:round;stroke-linejoin:round;stroke-width:2px"/><line x1="71.5" y1="59.18" x2="55.51" y2="42.28" style="fill:none;stroke:#000;stroke-linecap:round;stroke-linejoin:round;stroke-width:2px"/><line x1="81.55" y1="56.9" x2="77.82" y2="59.72" style="fill:none;stroke:#000;stroke-linecap:round;stroke-linejoin:round;stroke-width:2px"/><line x1="113.93" y1="81.24" x2="88.21" y2="57.22" style="fill:none;stroke:#000;stroke-linecap:round;stroke-linejoin:round;stroke-width:2px"/></svg>