<svg id="Layer_1" data-name="Layer 1" xmlns="http://www.w3.org/2000/svg" viewBox="0 0 128 128"><title>iStar_Design_Business_LineIcons_Live-40</title><path d="M9.41,79.61H47.08a0,0,0,0,1,0,0v31a6.68,6.68,0,0,1-6.68,6.68H16.09a6.68,6.68,0,0,1-6.68-6.68v-31A0,0,0,0,1,9.41,79.61Z" style="fill:none;stroke:#000;stroke-linecap:round;stroke-linejoin:round;stroke-width:2px"/><line x1="9.41" y1="106.57" x2="47.08" y2="106.57" style="fill:none;stroke:#000;stroke-linecap:round;stroke-linejoin:round;stroke-width:2px"/><path d="M47.08,89.06h4.34a5.15,5.15,0,0,1,5.16,5.15v7.21a5.16,5.16,0,0,1-5.16,5.15H47.08" style="fill:none;stroke:#000;stroke-linecap:round;stroke-linejoin:round;stroke-width:2px"/><path d="M21.68,60.51A3.34,3.34,0,0,0,20.08,63a3.32,3.32,0,0,0,1.6,2.51c3.3,2.53,3.31,5.35,0,7.88" style="fill:none;stroke:#000;stroke-linecap:round;stroke-linejoin:round;stroke-width:2px"/><path d="M33.5,66.74a4.67,4.67,0,0,1,0,6.68" style="fill:none;stroke:#000;stroke-linecap:round;stroke-linejoin:round;stroke-width:2px"/><path d="M28.7,79.61V15l4.39-4.29,4.35,4.35,4.34-4.35,4.35,4.35,4.34-4.35,4.34,4.35,4.35-4.35,4.34,4.35,4.35-4.35,4.34,4.35,4.34-4.35,4.35,4.35,4.34-4.35,4.35,4.35,4.34-4.35,4.34,4.35,4.35-4.35L107,15v96.46a5.8,5.8,0,0,0,5.8,5.8h0a5.8,5.8,0,0,0,5.8-5.8V17.23h-5.8v93.1" style="fill:none;stroke:#000;stroke-linecap:round;stroke-linejoin:round;stroke-width:2px"/><line x1="112.79" y1="117.28" x2="39.72" y2="117.28" style="fill:none;stroke:#000;stroke-linecap:round;stroke-linejoin:round;stroke-width:2px"/><rect x="40.5" y="27.32" width="53.64" height="14.7" style="fill:none;stroke:#000;stroke-linecap:round;stroke-linejoin:round;stroke-width:2px"/><line x1="43.79" y1="51.99" x2="73.09" y2="51.99" style="fill:none;stroke:#000;stroke-linecap:round;stroke-linejoin:round;stroke-width:2px"/><line x1="43.79" y1="59.53" x2="73.09" y2="59.53" style="fill:none;stroke:#000;stroke-linecap:round;stroke-linejoin:round;stroke-width:2px"/><line x1="43.79" y1="67.06" x2="58.33" y2="67.06" style="fill:none;stroke:#000;stroke-linecap:round;stroke-linejoin:round;stroke-width:2px"/><line x1="67.32" y1="67.06" x2="73.09" y2="67.06" style="fill:none;stroke:#000;stroke-linecap:round;stroke-linejoin:round;stroke-width:2px"/><rect x="81.61" y="50.92" width="10.45" height="10.17" style="fill:none;stroke:#000;stroke-linecap:round;stroke-linejoin:round;stroke-width:2px"/><line x1="81.61" y1="67.06" x2="92.06" y2="67.06" style="fill:none;stroke:#000;stroke-linecap:round;stroke-linejoin:round;stroke-width:2px"/><line x1="85.71" y1="34.67" x2="48.92" y2="34.67" style="fill:none;stroke:#000;stroke-linecap:round;stroke-linejoin:round;stroke-width:2px"/><line x1="68.03" y1="94.56" x2="68.03" y2="106.77" style="fill:none;stroke:#000;stroke-linecap:round;stroke-linejoin:round;stroke-width:2px"/><line x1="75.99" y1="91.07" x2="75.99" y2="106.77" style="fill:none;stroke:#000;stroke-linecap:round;stroke-linejoin:round;stroke-width:2px"/><line x1="83.94" y1="93.69" x2="83.94" y2="106.77" style="fill:none;stroke:#000;stroke-linecap:round;stroke-linejoin:round;stroke-width:2px"/><line x1="91.89" y1="85.84" x2="91.89" y2="106.77" style="fill:none;stroke:#000;stroke-linecap:round;stroke-linejoin:round;stroke-width:2px"/><line x1="95.25" y1="106.77" x2="64.72" y2="106.77" style="fill:none;stroke:#000;stroke-linecap:round;stroke-linejoin:round;stroke-width:2px"/><polyline points="64.28 90 77.8 79.6 82.6 85.27 94.59 75.24" style="fill:none;stroke:#000;stroke-linecap:round;stroke-linejoin:round;stroke-width:2px"/><line x1="14.21" y1="85.84" x2="24.16" y2="85.84" style="fill:none;stroke:#000;stroke-linecap:round;stroke-linejoin:round;stroke-width:2px"/><line x1="29.42" y1="85.84" x2="31.86" y2="85.84" style="fill:none;stroke:#000;stroke-linecap:round;stroke-linejoin:round;stroke-width:2px"/></svg>