<svg id="Layer_1" data-name="Layer 1" xmlns="http://www.w3.org/2000/svg" viewBox="0 0 128 128"><title>iStar_Design_Business_LineIcons_Live-63</title><polygon points="71.83 22.57 56.17 22.57 51.24 27.94 57.79 45.42 70.21 45.42 76.76 27.94 71.83 22.57" style="fill:none;stroke:#000;stroke-linecap:round;stroke-linejoin:round;stroke-width:2px"/><polyline points="70.32 45.42 81.24 101.6 64 123.45 46.76 101.6 57.68 45.42" style="fill:none;stroke:#000;stroke-linecap:round;stroke-linejoin:round;stroke-width:2px"/><line x1="78.98" y1="89.96" x2="58.27" y2="116.19" style="fill:none;stroke:#000;stroke-linecap:round;stroke-linejoin:round;stroke-width:2px"/><line x1="75.78" y1="73.49" x2="50.18" y2="105.93" style="fill:none;stroke:#000;stroke-linecap:round;stroke-linejoin:round;stroke-width:2px"/><line x1="72.57" y1="57.03" x2="49.82" y2="85.87" style="fill:none;stroke:#000;stroke-linecap:round;stroke-linejoin:round;stroke-width:2px"/><line x1="65.54" y1="45.42" x2="55.11" y2="58.64" style="fill:none;stroke:#000;stroke-linecap:round;stroke-linejoin:round;stroke-width:2px"/><line x1="75.09" y1="26.12" x2="59.85" y2="45.42" style="fill:none;stroke:#000;stroke-linecap:round;stroke-linejoin:round;stroke-width:2px"/><line x1="61.69" y1="22.57" x2="53.24" y2="33.28" style="fill:none;stroke:#000;stroke-linecap:round;stroke-linejoin:round;stroke-width:2px"/><polyline points="56.13 22.57 35.5 4.55 30.61 9.92 51.24 27.94" style="fill:none;stroke:#000;stroke-linecap:round;stroke-linejoin:round;stroke-width:2px"/><polyline points="71.87 22.57 92.5 4.55 97.39 9.92 76.76 27.94" style="fill:none;stroke:#000;stroke-linecap:round;stroke-linejoin:round;stroke-width:2px"/><line x1="92.5" y1="4.55" x2="35.5" y2="4.55" style="fill:none;stroke:#000;stroke-linecap:round;stroke-linejoin:round;stroke-width:2px"/><line x1="84.59" y1="11.42" x2="43.41" y2="11.42" style="fill:none;stroke:#000;stroke-linecap:round;stroke-linejoin:round;stroke-width:2px"/></svg>