<svg id="Layer_1" data-name="Layer 1" xmlns="http://www.w3.org/2000/svg" viewBox="0 0 128 128"><title>iStar_Design_Business_LineIcons_Live-26</title><path d="M64,63.46h0a5.91,5.91,0,0,1-5.89-5.89V46.78A5.9,5.9,0,0,1,64,40.9h0a5.9,5.9,0,0,1,5.89,5.88V57.57A5.91,5.91,0,0,1,64,63.46Z" style="fill:none;stroke:#000;stroke-linecap:round;stroke-linejoin:round;stroke-width:2px"/><path d="M53,102.68a8.42,8.42,0,0,0-8.4-8.4H41a2,2,0,0,1-2-2v-.87a1.59,1.59,0,0,1,.71-1.32A6.23,6.23,0,0,0,42.42,85V80.89a6.35,6.35,0,0,0-5.23-6.33A6.22,6.22,0,0,0,30,80.7V85a6.21,6.21,0,0,0,2.71,5.12,1.61,1.61,0,0,1,.71,1.32v.87a2,2,0,0,1-2,2H27.81a8.42,8.42,0,0,0-8.4,8.4" style="fill:none;stroke:#000;stroke-linecap:round;stroke-linejoin:round;stroke-width:2px"/><rect x="19.41" y="68.51" width="33.6" height="34.17" style="fill:none;stroke:#000;stroke-linecap:round;stroke-linejoin:round;stroke-width:2px"/><rect x="97.23" y="77.49" width="10.33" height="7.4" transform="translate(204.79 162.38) rotate(180)" style="fill:none;stroke:#000;stroke-linecap:round;stroke-linejoin:round;stroke-width:2px"/><line x1="65.89" y1="77.48" x2="62.56" y2="77.48" style="fill:none;stroke:#000;stroke-linecap:round;stroke-linejoin:round;stroke-width:2px"/><line x1="91.57" y1="77.48" x2="77.81" y2="77.48" style="fill:none;stroke:#000;stroke-linecap:round;stroke-linejoin:round;stroke-width:2px"/><line x1="62.56" y1="85.52" x2="91.57" y2="85.52" style="fill:none;stroke:#000;stroke-linecap:round;stroke-linejoin:round;stroke-width:2px"/><line x1="100.89" y1="93.55" x2="107.56" y2="93.55" style="fill:none;stroke:#000;stroke-linecap:round;stroke-linejoin:round;stroke-width:2px"/><line x1="62.56" y1="93.55" x2="93.05" y2="93.55" style="fill:none;stroke:#000;stroke-linecap:round;stroke-linejoin:round;stroke-width:2px"/><line x1="84.14" y1="101.59" x2="107.56" y2="101.59" style="fill:none;stroke:#000;stroke-linecap:round;stroke-linejoin:round;stroke-width:2px"/><line x1="69.89" y1="101.59" x2="74.72" y2="101.59" style="fill:none;stroke:#000;stroke-linecap:round;stroke-linejoin:round;stroke-width:2px"/><line x1="62.56" y1="101.59" x2="66" y2="101.59" style="fill:none;stroke:#000;stroke-linecap:round;stroke-linejoin:round;stroke-width:2px"/><line x1="107.56" y1="69.45" x2="62.56" y2="69.45" style="fill:none;stroke:#000;stroke-linecap:round;stroke-linejoin:round;stroke-width:2px"/><path d="M58.11,52.67H17.81a8.56,8.56,0,0,0-8.56,8.56v48.82a8.56,8.56,0,0,0,8.56,8.56h92.38a8.56,8.56,0,0,0,8.56-8.56V61.23a8.56,8.56,0,0,0-8.56-8.56H69.89" style="fill:none;stroke:#000;stroke-linecap:round;stroke-linejoin:round;stroke-width:2px"/><line x1="64" y1="47.47" x2="64" y2="49.79" style="fill:none;stroke:#000;stroke-linecap:round;stroke-linejoin:round;stroke-width:2px"/><line x1="36.17" y1="9.39" x2="60.53" y2="42.04" style="fill:none;stroke:#000;stroke-linecap:round;stroke-linejoin:round;stroke-width:2px"/><line x1="58.02" y1="51.58" x2="26.19" y2="9.39" style="fill:none;stroke:#000;stroke-linecap:round;stroke-linejoin:round;stroke-width:2px"/><line x1="91.83" y1="9.39" x2="67.47" y2="42.04" style="fill:none;stroke:#000;stroke-linecap:round;stroke-linejoin:round;stroke-width:2px"/><line x1="69.98" y1="51.58" x2="101.81" y2="9.39" style="fill:none;stroke:#000;stroke-linecap:round;stroke-linejoin:round;stroke-width:2px"/></svg>