<svg id="Layer_1" data-name="Layer 1" xmlns="http://www.w3.org/2000/svg" viewBox="0 0 128 128"><title>iStar_Design_Business_LineIcons_Live-39</title><polyline points="118.24 88.4 97.07 67.31 69.32 95.06" style="fill:none;stroke:#000;stroke-linecap:round;stroke-linejoin:round;stroke-width:2px"/><line x1="124.81" y1="95.06" x2="121.38" y2="91.62" style="fill:none;stroke:#000;stroke-linecap:round;stroke-linejoin:round;stroke-width:2px"/><polyline points="86.22 67.31 59.27 40.36 11.67 87.96" style="fill:none;stroke:#000;stroke-linecap:round;stroke-linejoin:round;stroke-width:2px"/><line x1="24" y1="109.19" x2="22.37" y2="110.84" style="fill:none;stroke:#000;stroke-linecap:round;stroke-linejoin:round;stroke-width:2px"/><polyline points="85.35 113.12 52.6 80.37 27.6 105.57" style="fill:none;stroke:#000;stroke-linecap:round;stroke-linejoin:round;stroke-width:2px"/><polyline points="79.18 60.32 74.84 64.66 69.89 59.7 59.43 70.16 48.98 59.7 44.02 64.66 39.62 60.25" style="fill:none;stroke:#000;stroke-linecap:round;stroke-linejoin:round;stroke-width:2px"/><polyline points="112.67 82.86 106.52 89.01 96.07 78.55 91.11 83.51 85.99 78.39" style="fill:none;stroke:#000;stroke-linecap:round;stroke-linejoin:round;stroke-width:2px"/><polyline points="38.37 96.41 43.19 101.23 53.64 90.77 58.6 95.73 63 91.33" style="fill:none;stroke:#000;stroke-linecap:round;stroke-linejoin:round;stroke-width:2px"/><line x1="64.71" y1="14.88" x2="64.71" y2="45.61" style="fill:none;stroke:#000;stroke-linecap:round;stroke-linejoin:round;stroke-width:2px"/><polyline points="64.71 30.47 80.66 30.47 74.77 24.6 80.66 18.71 64.71 18.71" style="fill:none;stroke:#000;stroke-linecap:round;stroke-linejoin:round;stroke-width:2px"/><line x1="66.37" y1="106.23" x2="62.3" y2="102.19" style="fill:none;stroke:#000;stroke-linecap:round;stroke-linejoin:round;stroke-width:2px"/><path d="M3.19,55.21a7,7,0,0,1,7-7,7.11,7.11,0,0,1,1.53.18,7,7,0,0,1,13.81-.16l.14,0a5.64,5.64,0,1,1,0,11.27H17.27" style="fill:none;stroke:#000;stroke-linecap:round;stroke-linejoin:round;stroke-width:2px"/><line x1="12.9" y1="59.44" x2="11.1" y2="59.44" style="fill:none;stroke:#000;stroke-linecap:round;stroke-linejoin:round;stroke-width:2px"/></svg>