<svg id="Layer_1" data-name="Layer 1" xmlns="http://www.w3.org/2000/svg" viewBox="0 0 128 128"><title>iStar_Design_Business_LineIcons_Live-80</title><polyline points="95.33 64.5 95.33 99.69 5.07 99.69 5.07 67.23 26.95 47.03 95.33 47.03 95.33 52.43" style="fill:none;stroke:#000;stroke-linecap:round;stroke-linejoin:round;stroke-width:2px"/><polyline points="5.07 67.23 27.86 67.23 27.86 47.03" style="fill:none;stroke:#000;stroke-linecap:round;stroke-linejoin:round;stroke-width:2px"/><line x1="12.37" y1="67.42" x2="12.37" y2="92.7" style="fill:none;stroke:#000;stroke-linecap:round;stroke-linejoin:round;stroke-width:2px"/><line x1="87.12" y1="47.03" x2="87.12" y2="61.31" style="fill:none;stroke:#000;stroke-linecap:round;stroke-linejoin:round;stroke-width:2px"/><line x1="27.87" y1="84.07" x2="79.37" y2="84.07" style="fill:none;stroke:#000;stroke-linecap:round;stroke-linejoin:round;stroke-width:2px"/><rect x="27.87" y="71.96" width="22.33" height="6.08" style="fill:none;stroke:#000;stroke-linecap:round;stroke-linejoin:round;stroke-width:2px"/><line x1="21.56" y1="52" x2="21.56" y2="58.29" style="fill:none;stroke:#000;stroke-linecap:round;stroke-linejoin:round;stroke-width:2px"/><path d="M74.85,77s-2-4.26-3.38-2.87,1.13,6.55-2,3.52-5-14.3-6.76-11.82S66.74,76,61.78,77s-7,.65-7,.65" style="fill:none;stroke:#000;stroke-linecap:round;stroke-linejoin:round;stroke-width:2px"/><path d="M87.46,73.09l-9.8,4.61,3.75-10.16,31.1-33.94a4.11,4.11,0,0,1,5.8-.25h0a4.1,4.1,0,0,1,.25,5.79Z" style="fill:none;stroke:#000;stroke-linecap:round;stroke-linejoin:round;stroke-width:2px"/><line x1="86.56" y1="73.51" x2="81.06" y2="68.48" style="fill:none;stroke:#000;stroke-linecap:round;stroke-linejoin:round;stroke-width:2px"/><line x1="103.58" y1="43.35" x2="109.63" y2="48.89" style="fill:none;stroke:#000;stroke-linecap:round;stroke-linejoin:round;stroke-width:2px"/><line x1="118.31" y1="33.35" x2="122.93" y2="28.31" style="fill:none;stroke:#000;stroke-linecap:round;stroke-linejoin:round;stroke-width:2px"/><path d="M118.87,38.81h0a5.72,5.72,0,0,1,.35,8.09l-8.16,8.9a5.85,5.85,0,0,0-1.44,3l-.29,1.88" style="fill:none;stroke:#000;stroke-linecap:round;stroke-linejoin:round;stroke-width:2px"/><polyline points="20.12 92.27 87.12 92.27 87.12 78.58" style="fill:none;stroke:#000;stroke-linecap:round;stroke-linejoin:round;stroke-width:2px"/><line x1="35.16" y1="62.04" x2="52.02" y2="62.04" style="fill:none;stroke:#000;stroke-linecap:round;stroke-linejoin:round;stroke-width:2px"/><line x1="35.16" y1="56.11" x2="47.01" y2="56.11" style="fill:none;stroke:#000;stroke-linecap:round;stroke-linejoin:round;stroke-width:2px"/><path d="M103.14,55.1l-2.75-2.51" style="fill:none;stroke:#000;stroke-linecap:round;stroke-linejoin:round;stroke-width:2px"/></svg>