<svg id="Layer_1" data-name="Layer 1" xmlns="http://www.w3.org/2000/svg" viewBox="0 0 128 128"><title>iStar_Design_Business_LineIcons_Live-74</title><line x1="95.5" y1="34.76" x2="104.93" y2="34.76" style="fill:none;stroke:#000;stroke-linecap:round;stroke-linejoin:round;stroke-width:2px"/><rect x="110.2" y="32.85" width="5.78" height="3.84" style="fill:none;stroke:#000;stroke-linecap:round;stroke-linejoin:round;stroke-width:2px"/><line x1="95.5" y1="45.15" x2="104.93" y2="45.15" style="fill:none;stroke:#000;stroke-linecap:round;stroke-linejoin:round;stroke-width:2px"/><rect x="110.2" y="43.23" width="5.78" height="3.84" style="fill:none;stroke:#000;stroke-linecap:round;stroke-linejoin:round;stroke-width:2px"/><line x1="95.5" y1="55.53" x2="104.93" y2="55.53" style="fill:none;stroke:#000;stroke-linecap:round;stroke-linejoin:round;stroke-width:2px"/><rect x="110.2" y="53.62" width="5.78" height="3.84" style="fill:none;stroke:#000;stroke-linecap:round;stroke-linejoin:round;stroke-width:2px"/><line x1="95.5" y1="65.92" x2="104.93" y2="65.92" style="fill:none;stroke:#000;stroke-linecap:round;stroke-linejoin:round;stroke-width:2px"/><rect x="110.2" y="64" width="5.78" height="3.84" style="fill:none;stroke:#000;stroke-linecap:round;stroke-linejoin:round;stroke-width:2px"/><line x1="95.5" y1="76.31" x2="104.93" y2="76.31" style="fill:none;stroke:#000;stroke-linecap:round;stroke-linejoin:round;stroke-width:2px"/><rect x="110.2" y="74.39" width="5.78" height="3.84" style="fill:none;stroke:#000;stroke-linecap:round;stroke-linejoin:round;stroke-width:2px"/><line x1="95.5" y1="86.69" x2="104.93" y2="86.69" style="fill:none;stroke:#000;stroke-linecap:round;stroke-linejoin:round;stroke-width:2px"/><rect x="110.2" y="84.77" width="5.78" height="3.84" style="fill:none;stroke:#000;stroke-linecap:round;stroke-linejoin:round;stroke-width:2px"/><line x1="95.5" y1="97.08" x2="104.93" y2="97.08" style="fill:none;stroke:#000;stroke-linecap:round;stroke-linejoin:round;stroke-width:2px"/><rect x="110.2" y="95.16" width="5.78" height="3.84" style="fill:none;stroke:#000;stroke-linecap:round;stroke-linejoin:round;stroke-width:2px"/><rect x="9.72" y="15.79" width="23.5" height="84.92" rx="5.48" ry="5.48" style="fill:none;stroke:#000;stroke-linecap:round;stroke-linejoin:round;stroke-width:2px"/><line x1="51.67" y1="25.95" x2="60.74" y2="25.95" style="fill:none;stroke:#000;stroke-linecap:round;stroke-linejoin:round;stroke-width:2px"/><line x1="51.67" y1="30.95" x2="54.74" y2="30.95" style="fill:none;stroke:#000;stroke-linecap:round;stroke-linejoin:round;stroke-width:2px"/><line x1="73.26" y1="25.95" x2="75.33" y2="25.95" style="fill:none;stroke:#000;stroke-linecap:round;stroke-linejoin:round;stroke-width:2px"/><rect x="44.71" y="18.99" width="37.59" height="18.93" style="fill:none;stroke:#000;stroke-linecap:round;stroke-linejoin:round;stroke-width:2px"/><rect x="39.16" y="13.79" width="48.67" height="29.32" style="fill:none;stroke:#000;stroke-linecap:round;stroke-linejoin:round;stroke-width:2px"/><rect x="43.93" y="67.12" width="10" height="4.2" style="fill:none;stroke:#000;stroke-linecap:round;stroke-linejoin:round;stroke-width:2px"/><rect x="43.93" y="50.75" width="6.54" height="4.2" style="fill:none;stroke:#000;stroke-linecap:round;stroke-linejoin:round;stroke-width:2px"/><rect x="54.8" y="50.75" width="6.54" height="4.2" style="fill:none;stroke:#000;stroke-linecap:round;stroke-linejoin:round;stroke-width:2px"/><rect x="65.66" y="50.75" width="6.54" height="4.2" style="fill:none;stroke:#000;stroke-linecap:round;stroke-linejoin:round;stroke-width:2px"/><rect x="76.53" y="50.75" width="6.54" height="4.2" style="fill:none;stroke:#000;stroke-linecap:round;stroke-linejoin:round;stroke-width:2px"/><rect x="58.5" y="67.12" width="10" height="4.2" style="fill:none;stroke:#000;stroke-linecap:round;stroke-linejoin:round;stroke-width:2px"/><rect x="73.07" y="67.12" width="10" height="4.2" style="fill:none;stroke:#000;stroke-linecap:round;stroke-linejoin:round;stroke-width:2px"/><rect x="43.93" y="76.56" width="10" height="4.2" style="fill:none;stroke:#000;stroke-linecap:round;stroke-linejoin:round;stroke-width:2px"/><rect x="58.5" y="76.56" width="10" height="4.2" style="fill:none;stroke:#000;stroke-linecap:round;stroke-linejoin:round;stroke-width:2px"/><rect x="73.07" y="76.56" width="10" height="4.2" style="fill:none;stroke:#000;stroke-linecap:round;stroke-linejoin:round;stroke-width:2px"/><rect x="43.93" y="86" width="10" height="4.2" style="fill:none;stroke:#000;stroke-linecap:round;stroke-linejoin:round;stroke-width:2px"/><rect x="58.5" y="86" width="10" height="4.2" style="fill:none;stroke:#000;stroke-linecap:round;stroke-linejoin:round;stroke-width:2px"/><rect x="73.07" y="86" width="10" height="4.2" style="fill:none;stroke:#000;stroke-linecap:round;stroke-linejoin:round;stroke-width:2px"/><rect x="43.93" y="95.44" width="10" height="4.2" style="fill:none;stroke:#000;stroke-linecap:round;stroke-linejoin:round;stroke-width:2px"/><rect x="58.5" y="95.44" width="10" height="4.2" style="fill:none;stroke:#000;stroke-linecap:round;stroke-linejoin:round;stroke-width:2px"/><rect x="73.07" y="95.44" width="10" height="4.2" style="fill:none;stroke:#000;stroke-linecap:round;stroke-linejoin:round;stroke-width:2px"/><polyline points="21.06 100.7 21.06 114.21 9.72 114.21" style="fill:none;stroke:#000;stroke-linecap:round;stroke-linejoin:round;stroke-width:2px"/><polyline points="87.84 23.82 123.5 23.82 123.5 108.02 4.5 108.02 4.5 23.82 9.72 23.82" style="fill:none;stroke:#000;stroke-linecap:round;stroke-linejoin:round;stroke-width:2px"/><line x1="33.22" y1="23.82" x2="39.16" y2="23.82" style="fill:none;stroke:#000;stroke-linecap:round;stroke-linejoin:round;stroke-width:2px"/></svg>