<svg id="Layer_1" data-name="Layer 1" xmlns="http://www.w3.org/2000/svg" viewBox="0 0 128 128"><title>iStar_Design_Business_LineIcons_Live-29</title><line x1="9.77" y1="6.12" x2="9.77" y2="117.69" style="fill:none;stroke:#000;stroke-linecap:round;stroke-linejoin:round;stroke-width:2px"/><line x1="9.77" y1="117.69" x2="121.34" y2="117.69" style="fill:none;stroke:#000;stroke-linecap:round;stroke-linejoin:round;stroke-width:2px"/><line x1="9.77" y1="19.79" x2="6.66" y2="19.79" style="fill:none;stroke:#000;stroke-linecap:round;stroke-linejoin:round;stroke-width:2px"/><line x1="9.77" y1="44.27" x2="6.66" y2="44.27" style="fill:none;stroke:#000;stroke-linecap:round;stroke-linejoin:round;stroke-width:2px"/><line x1="9.77" y1="68.74" x2="6.66" y2="68.74" style="fill:none;stroke:#000;stroke-linecap:round;stroke-linejoin:round;stroke-width:2px"/><line x1="9.77" y1="93.21" x2="6.66" y2="93.21" style="fill:none;stroke:#000;stroke-linecap:round;stroke-linejoin:round;stroke-width:2px"/><line x1="9.77" y1="117.69" x2="6.66" y2="117.69" style="fill:none;stroke:#000;stroke-linecap:round;stroke-linejoin:round;stroke-width:2px"/><line x1="9.77" y1="118.78" x2="9.77" y2="121.88" style="fill:none;stroke:#000;stroke-linecap:round;stroke-linejoin:round;stroke-width:2px"/><line x1="34.24" y1="118.78" x2="34.24" y2="121.88" style="fill:none;stroke:#000;stroke-linecap:round;stroke-linejoin:round;stroke-width:2px"/><line x1="58.72" y1="118.78" x2="58.72" y2="121.88" style="fill:none;stroke:#000;stroke-linecap:round;stroke-linejoin:round;stroke-width:2px"/><line x1="83.19" y1="118.78" x2="83.19" y2="121.88" style="fill:none;stroke:#000;stroke-linecap:round;stroke-linejoin:round;stroke-width:2px"/><line x1="107.66" y1="118.78" x2="107.66" y2="121.88" style="fill:none;stroke:#000;stroke-linecap:round;stroke-linejoin:round;stroke-width:2px"/><polyline points="116.58 90.6 116.58 95.64 111.09 95.64" style="fill:none;stroke:#000;stroke-linecap:round;stroke-linejoin:round;stroke-width:2px"/><polyline points="114.59 66 119.63 66 119.63 71.48" style="fill:none;stroke:#000;stroke-linecap:round;stroke-linejoin:round;stroke-width:2px"/><polyline points="114.7 33.86 120.08 34.3 119.03 39.79" style="fill:none;stroke:#000;stroke-linecap:round;stroke-linejoin:round;stroke-width:2px"/><path d="M44.59,60.59a4.54,4.54,0,1,1-4.53-4.53A4.53,4.53,0,0,1,44.59,60.59Z" style="fill:none;stroke:#000;stroke-linecap:round;stroke-linejoin:round;stroke-width:2px"/><path d="M56.18,51.28a4.54,4.54,0,1,1-4.54-4.54A4.53,4.53,0,0,1,56.18,51.28Z" style="fill:none;stroke:#000;stroke-linecap:round;stroke-linejoin:round;stroke-width:2px"/><path d="M79.36,75.66a4.54,4.54,0,1,1-4.53-4.54A4.53,4.53,0,0,1,79.36,75.66Z" style="fill:none;stroke:#000;stroke-linecap:round;stroke-linejoin:round;stroke-width:2px"/><circle cx="86.01" cy="67.25" r="4.54" style="fill:none;stroke:#000;stroke-linecap:round;stroke-linejoin:round;stroke-width:2px"/><line x1="36.64" y1="57.1" x2="17.7" y2="34.69" style="fill:none;stroke:#000;stroke-linecap:round;stroke-linejoin:round;stroke-width:2px"/><line x1="48.11" y1="54.13" x2="43.63" y2="57.8" style="fill:none;stroke:#000;stroke-linecap:round;stroke-linejoin:round;stroke-width:2px"/><line x1="71.74" y1="72.34" x2="54.85" y2="54.48" style="fill:none;stroke:#000;stroke-linecap:round;stroke-linejoin:round;stroke-width:2px"/><line x1="82.36" y1="69.92" x2="78.42" y2="72.9" style="fill:none;stroke:#000;stroke-linecap:round;stroke-linejoin:round;stroke-width:2px"/><line x1="116.58" y1="95.63" x2="89.39" y2="70.26" style="fill:none;stroke:#000;stroke-linecap:round;stroke-linejoin:round;stroke-width:2px"/><path d="M104.24,50.29a4.54,4.54,0,1,1-4.54-4.53A4.54,4.54,0,0,1,104.24,50.29Z" style="fill:none;stroke:#000;stroke-linecap:round;stroke-linejoin:round;stroke-width:2px"/><path d="M92.7,38.33a4.54,4.54,0,1,1-4.54-4.54A4.53,4.53,0,0,1,92.7,38.33Z" style="fill:none;stroke:#000;stroke-linecap:round;stroke-linejoin:round;stroke-width:2px"/><path d="M89.21,95.63a4.54,4.54,0,1,1-4.53-4.53A4.53,4.53,0,0,1,89.21,95.63Z" style="fill:none;stroke:#000;stroke-linecap:round;stroke-linejoin:round;stroke-width:2px"/><path d="M70.29,95.63a4.54,4.54,0,1,1-4.54-4.53A4.54,4.54,0,0,1,70.29,95.63Z" style="fill:none;stroke:#000;stroke-linecap:round;stroke-linejoin:round;stroke-width:2px"/><path d="M58,80.19a4.54,4.54,0,1,1-4.54-4.53A4.54,4.54,0,0,1,58,80.19Z" style="fill:none;stroke:#000;stroke-linecap:round;stroke-linejoin:round;stroke-width:2px"/><line x1="103.27" y1="47.5" x2="119.64" y2="34.69" style="fill:none;stroke:#000;stroke-linecap:round;stroke-linejoin:round;stroke-width:2px"/><line x1="91.25" y1="41.64" x2="96.45" y2="47.14" style="fill:none;stroke:#000;stroke-linecap:round;stroke-linejoin:round;stroke-width:2px"/><line x1="17.7" y1="96.36" x2="84.68" y2="41.23" style="fill:none;stroke:#000;stroke-linecap:round;stroke-linejoin:round;stroke-width:2px"/><line x1="88.22" y1="92.81" x2="119.64" y2="66" style="fill:none;stroke:#000;stroke-linecap:round;stroke-linejoin:round;stroke-width:2px"/><line x1="70.29" y1="95.63" x2="80.14" y2="95.63" style="fill:none;stroke:#000;stroke-linecap:round;stroke-linejoin:round;stroke-width:2px"/><line x1="56.32" y1="83.71" x2="63.09" y2="91.97" style="fill:none;stroke:#000;stroke-linecap:round;stroke-linejoin:round;stroke-width:2px"/><line x1="17.28" y1="80.55" x2="48.94" y2="80.55" style="fill:none;stroke:#000;stroke-linecap:round;stroke-linejoin:round;stroke-width:2px"/></svg>