<svg id="Layer_1" data-name="Layer 1" xmlns="http://www.w3.org/2000/svg" viewBox="0 0 128 128"><title>iStar_Design_Business_LineIcons_Live-56</title><path d="M84.4,47.07a27.88,27.88,0,0,0,1.26-8.3c0-13.78-9.92-24.09-22.17-24.09S41.32,25,41.32,38.77a27.88,27.88,0,0,0,1.26,8.3,6.49,6.49,0,0,0-2.85,5.4,6.41,6.41,0,0,0,4.59,6.21c3.17,9.48,10.56,16.13,19.17,16.13s16-6.65,19.18-16.13a6.41,6.41,0,0,0,4.58-6.21A6.49,6.49,0,0,0,84.4,47.07Z" style="fill:none;stroke:#000;stroke-linecap:round;stroke-linejoin:round;stroke-width:2px"/><path d="M81.15,38.2a7.34,7.34,0,0,0-6.5-5.32,22.15,22.15,0,0,0-3.37.72l3.19-5s-2.73-.06-7.36,4.1c-9.6,8.63-20.19,1.81-20.19,1.81" style="fill:none;stroke:#000;stroke-linecap:round;stroke-linejoin:round;stroke-width:2px"/><path d="M58,48.31a5.16,5.16,0,0,0-5.39,0" style="fill:none;stroke:#000;stroke-linecap:round;stroke-linejoin:round;stroke-width:2px"/><path d="M74.43,48.31a5.16,5.16,0,0,0-5.39,0" style="fill:none;stroke:#000;stroke-linecap:round;stroke-linejoin:round;stroke-width:2px"/><polyline points="63.79 85.71 71.94 94.89 82.89 82.96 78.19 74.9" style="fill:none;stroke:#000;stroke-linecap:round;stroke-linejoin:round;stroke-width:2px"/><path d="M44.79,82.63,24.23,91.08a11.55,11.55,0,0,0-5.46,9.79v12.45" style="fill:none;stroke:#000;stroke-linecap:round;stroke-linejoin:round;stroke-width:2px"/><path d="M82.74,82.63l21,8.84c3.9,2,5.46,5.8,5.46,9.79v12.06" style="fill:none;stroke:#000;stroke-linecap:round;stroke-linejoin:round;stroke-width:2px"/><polyline points="63.79 85.71 55.64 94.89 44.69 82.96 49.39 74.9" style="fill:none;stroke:#000;stroke-linecap:round;stroke-linejoin:round;stroke-width:2px"/><line x1="78.19" y1="74.9" x2="63.79" y2="85.71" style="fill:none;stroke:#000;stroke-linecap:round;stroke-linejoin:round;stroke-width:2px"/><line x1="49.39" y1="74.9" x2="63.79" y2="85.71" style="fill:none;stroke:#000;stroke-linecap:round;stroke-linejoin:round;stroke-width:2px"/><path d="M117.23,56.94a14.93,14.93,0,0,0,.68-4.47c0-7.42-5.34-13-11.93-13s-11.93,5.55-11.93,13a14.93,14.93,0,0,0,.68,4.47,3.5,3.5,0,0,0,.93,6.24c1.71,5.1,5.69,8.68,10.32,8.68s8.61-3.58,10.32-8.68a3.5,3.5,0,0,0,.93-6.24Z" style="fill:none;stroke:#000;stroke-linecap:round;stroke-linejoin:round;stroke-width:2px"/><polyline points="106.14 78.73 110.53 83.67 116.42 77.25 113.89 72.91" style="fill:none;stroke:#000;stroke-linecap:round;stroke-linejoin:round;stroke-width:2px"/><line x1="95.91" y1="77.07" x2="83.1" y2="82.34" style="fill:none;stroke:#000;stroke-linecap:round;stroke-linejoin:round;stroke-width:2px"/><line x1="116.34" y1="77.07" x2="125.3" y2="80.84" style="fill:none;stroke:#000;stroke-linecap:round;stroke-linejoin:round;stroke-width:2px"/><polyline points="106.14 78.73 101.76 83.67 95.86 77.25 98.39 72.91" style="fill:none;stroke:#000;stroke-linecap:round;stroke-linejoin:round;stroke-width:2px"/><line x1="113.89" y1="72.91" x2="106.14" y2="78.73" style="fill:none;stroke:#000;stroke-linecap:round;stroke-linejoin:round;stroke-width:2px"/><line x1="98.39" y1="72.91" x2="106.14" y2="78.73" style="fill:none;stroke:#000;stroke-linecap:round;stroke-linejoin:round;stroke-width:2px"/><path d="M10.77,56.94a14.93,14.93,0,0,1-.68-4.47c0-7.42,5.34-13,11.93-13S34,45.05,34,52.47a14.93,14.93,0,0,1-.68,4.47,3.5,3.5,0,0,1-.93,6.24c-1.71,5.1-5.69,8.68-10.32,8.68s-8.61-3.58-10.32-8.68a3.5,3.5,0,0,1-.93-6.24Z" style="fill:none;stroke:#000;stroke-linecap:round;stroke-linejoin:round;stroke-width:2px"/><polyline points="21.86 78.73 17.48 83.67 11.58 77.25 14.11 72.91" style="fill:none;stroke:#000;stroke-linecap:round;stroke-linejoin:round;stroke-width:2px"/><line x1="32.09" y1="77.07" x2="44.9" y2="82.34" style="fill:none;stroke:#000;stroke-linecap:round;stroke-linejoin:round;stroke-width:2px"/><line x1="11.66" y1="77.07" x2="2.7" y2="80.84" style="fill:none;stroke:#000;stroke-linecap:round;stroke-linejoin:round;stroke-width:2px"/><polyline points="21.86 78.73 26.24 83.67 32.14 77.25 29.61 72.91" style="fill:none;stroke:#000;stroke-linecap:round;stroke-linejoin:round;stroke-width:2px"/><line x1="14.11" y1="72.91" x2="21.86" y2="78.73" style="fill:none;stroke:#000;stroke-linecap:round;stroke-linejoin:round;stroke-width:2px"/><line x1="29.61" y1="72.91" x2="21.86" y2="78.73" style="fill:none;stroke:#000;stroke-linecap:round;stroke-linejoin:round;stroke-width:2px"/></svg>