<svg id="Layer_1" data-name="Layer 1" xmlns="http://www.w3.org/2000/svg" viewBox="0 0 128 128"><title>iStar_Design_Business_LineIcons_Live-72</title><path d="M82.22,40.18v75.36a7.37,7.37,0,0,1-7.37,7.37H27.05a7.36,7.36,0,0,1-7.36-7.37V12.46a7.36,7.36,0,0,1,7.36-7.37h47.8A7.36,7.36,0,0,1,81.19,8.7" style="fill:none;stroke:#000;stroke-linecap:round;stroke-linejoin:round;stroke-width:2px"/><polyline points="75.74 44.17 75.74 106.14 26.17 106.14 26.17 19.05 61.3 19.05" style="fill:none;stroke:#000;stroke-linecap:round;stroke-linejoin:round;stroke-width:2px"/><line x1="56.24" y1="12.03" x2="45.67" y2="12.03" style="fill:none;stroke:#000;stroke-linecap:round;stroke-linejoin:round;stroke-width:2px"/><line x1="40.45" y1="12.03" x2="40.44" y2="12.03" style="fill:none;stroke:#000;stroke-linecap:round;stroke-linejoin:round;stroke-width:2px"/><path d="M47,114.47a4,4,0,1,1,4,4A4,4,0,0,1,47,114.47Z" style="fill:none;stroke:#000;stroke-linecap:round;stroke-linejoin:round;stroke-width:2px"/><path d="M62.65,55.53a16.26,16.26,0,0,0,.72-4.78c0-7.91-5.7-13.83-12.73-13.83S37.9,42.84,37.9,50.75a16.26,16.26,0,0,0,.72,4.78,3.73,3.73,0,0,0,1,6.66c1.82,5.45,6.07,9.27,11,9.27s9.19-3.82,11-9.27a3.73,3.73,0,0,0,1-6.66Z" style="fill:none;stroke:#000;stroke-linecap:round;stroke-linejoin:round;stroke-width:2px"/><path d="M59.48,50.07c-.36-1.51-1.36-1.47-2.65-1.47-.42,0-.68-3.31-.68-3.31s-1.36,0-3.67,2c-4.79,4.3-10.07.9-10.07.9" style="fill:none;stroke:#000;stroke-linecap:round;stroke-linejoin:round;stroke-width:2px"/><polyline points="50.81 78.9 55.49 84.17 61.78 77.32 59.08 72.69" style="fill:none;stroke:#000;stroke-linecap:round;stroke-linejoin:round;stroke-width:2px"/><line x1="39.89" y1="77.13" x2="28.08" y2="81.99" style="fill:none;stroke:#000;stroke-linecap:round;stroke-linejoin:round;stroke-width:2px"/><line x1="61.69" y1="77.13" x2="73.78" y2="82.21" style="fill:none;stroke:#000;stroke-linecap:round;stroke-linejoin:round;stroke-width:2px"/><polyline points="50.81 78.9 46.13 84.17 39.83 77.32 42.53 72.69" style="fill:none;stroke:#000;stroke-linecap:round;stroke-linejoin:round;stroke-width:2px"/><line x1="59.08" y1="72.69" x2="50.81" y2="78.9" style="fill:none;stroke:#000;stroke-linecap:round;stroke-linejoin:round;stroke-width:2px"/><line x1="42.53" y1="72.69" x2="50.81" y2="78.9" style="fill:none;stroke:#000;stroke-linecap:round;stroke-linejoin:round;stroke-width:2px"/><line x1="96.99" y1="17.78" x2="72.62" y2="17.78" style="fill:none;stroke:#000;stroke-linecap:round;stroke-linejoin:round;stroke-width:2px"/><line x1="96.99" y1="24.1" x2="72.62" y2="24.1" style="fill:none;stroke:#000;stroke-linecap:round;stroke-linejoin:round;stroke-width:2px"/><line x1="80.06" y1="30.42" x2="72.62" y2="30.42" style="fill:none;stroke:#000;stroke-linecap:round;stroke-linejoin:round;stroke-width:2px"/><path d="M103.07,8.7H66.54a5.26,5.26,0,0,0-5.24,5.24V33.45a5.25,5.25,0,0,0,5.24,5.24h4.37v8.55l13.44-8.55h18.72a5.25,5.25,0,0,0,5.24-5.24V13.94A5.25,5.25,0,0,0,103.07,8.7Z" style="fill:none;stroke:#000;stroke-linecap:round;stroke-linejoin:round;stroke-width:2px"/></svg>