<svg id="Layer_1" data-name="Layer 1" xmlns="http://www.w3.org/2000/svg" viewBox="0 0 128 128"><title>iStar_Design_Business_LineIcons_Live-12</title><line x1="47.59" y1="27.36" x2="47.59" y2="27.36" style="fill:none;stroke:#000;stroke-linecap:round;stroke-linejoin:round;stroke-width:2px"/><path d="M121.15,64.88C121.15,76,95.56,84.93,64,84.93S6.85,76,6.85,64.88c0-6,7.63-11.47,19.71-15.15" style="fill:none;stroke:#000;stroke-linecap:round;stroke-linejoin:round;stroke-width:2px"/><path d="M114.88,55.74a23,23,0,0,1,2.4,1.87" style="fill:none;stroke:#000;stroke-linecap:round;stroke-linejoin:round;stroke-width:2px"/><circle cx="23.82" cy="104.81" r="4.69" style="fill:none;stroke:#000;stroke-linecap:round;stroke-linejoin:round;stroke-width:2px"/><circle cx="64" cy="64.8" r="35.4" transform="translate(-1.61 127.96) rotate(-89.27)" style="fill:none;stroke:#000;stroke-linecap:round;stroke-linejoin:round;stroke-width:2px"/><path d="M61.19,89.39c-.91-.75-1.81-1.51-2.72-2.29-2.89-2.5-5.78-5.18-8.64-8C27.51,56.74,15.76,32.3,23.59,24.47" style="fill:none;stroke:#000;stroke-linecap:round;stroke-linejoin:round;stroke-width:2px"/><path d="M105,89.24c2.51,7.19,2.5,12.94-.62,16.05-5.85,5.86-21,.76-37.6-11.51" style="fill:none;stroke:#000;stroke-linecap:round;stroke-linejoin:round;stroke-width:2px"/><path d="M49.34,72.38C49.12,70,49,67.45,49,64.88c0-19.6,6.71-35.48,15-35.48S79,45.28,79,64.88c0,2.57-.12,5.08-.33,7.5" style="fill:none;stroke:#000;stroke-linecap:round;stroke-linejoin:round;stroke-width:2px"/><line x1="94.45" y1="47.39" x2="33.55" y2="47.39" style="fill:none;stroke:#000;stroke-linecap:round;stroke-linejoin:round;stroke-width:2px"/><path d="M110.8,25a6.46,6.46,0,1,1-6.46-6.45A6.46,6.46,0,0,1,110.8,25Z" style="fill:none;stroke:#000;stroke-linecap:round;stroke-linejoin:round;stroke-width:2px"/><line x1="64" y1="29.4" x2="64" y2="76.26" style="fill:none;stroke:#000;stroke-linecap:round;stroke-linejoin:round;stroke-width:2px"/><path d="M106.84,31.15c.18,13.6-10.84,27.56-19,37.37C76.48,82.11,62.58,94.87,46.68,102.88c-5.38,2.7-11.85,5.5-18,4.72" style="fill:none;stroke:#000;stroke-linecap:round;stroke-linejoin:round;stroke-width:2px"/><line x1="84.55" y1="64.45" x2="43.45" y2="64.45" style="fill:none;stroke:#000;stroke-linecap:round;stroke-linejoin:round;stroke-width:2px"/><path d="M74.24,30.91c9.7-6.08,18.43-9.3,24.43-8.82" style="fill:none;stroke:#000;stroke-linecap:round;stroke-linejoin:round;stroke-width:2px"/><line x1="110.27" y1="53.11" x2="110.27" y2="53.11" style="fill:none;stroke:#000;stroke-linecap:round;stroke-linejoin:round;stroke-width:2px"/><line x1="21.7" y1="93.72" x2="21.7" y2="93.72" style="fill:none;stroke:#000;stroke-linecap:round;stroke-linejoin:round;stroke-width:2px"/><path d="M24,87.56c.61-1.33,2.28-5.93,3-7.32" style="fill:none;stroke:#000;stroke-linecap:round;stroke-linejoin:round;stroke-width:2px"/><line x1="41.32" y1="24.48" x2="41.32" y2="24.48" style="fill:none;stroke:#000;stroke-linecap:round;stroke-linejoin:round;stroke-width:2px"/><path d="M28.79,22.14a33.69,33.69,0,0,1,4.61-.39" style="fill:none;stroke:#000;stroke-linecap:round;stroke-linejoin:round;stroke-width:2px"/></svg>