<svg id="Layer_1" data-name="Layer 1" xmlns="http://www.w3.org/2000/svg" viewBox="0 0 128 128"><title>iStar_Design_Business_LineIcons_Live-42</title><path d="M58.87,47.78a3.34,3.34,0,1,1-3.34-3.34A3.35,3.35,0,0,1,58.87,47.78Z" style="fill:none;stroke:#000;stroke-linecap:round;stroke-linejoin:round;stroke-width:2px"/><path d="M63.2,64.09c0-5.28-3.44-9.57-7.67-9.57s-7.68,4.29-7.68,9.57" style="fill:none;stroke:#000;stroke-linecap:round;stroke-linejoin:round;stroke-width:2px"/><path d="M63.27,64.52c-1.94,2.86-4.69,4.65-7.74,4.65-5.88,0-10.65-6.66-10.65-14.86s4.77-14.86,10.65-14.86c5.67,0,10.31,6.18,10.64,14" style="fill:none;stroke:#000;stroke-linecap:round;stroke-linejoin:round;stroke-width:2px"/><path d="M49.87,103.79c0,2.73-6.72,4.94-15,4.94s-15-2.21-15-4.94" style="fill:none;stroke:#000;stroke-linecap:round;stroke-linejoin:round;stroke-width:2px"/><path d="M49.87,96.46c0,2.73-6.72,5-15,5s-15-2.22-15-5" style="fill:none;stroke:#000;stroke-linecap:round;stroke-linejoin:round;stroke-width:2px"/><path d="M49.87,89.14c0,2.73-6.72,4.94-15,4.94s-15-2.21-15-4.94" style="fill:none;stroke:#000;stroke-linecap:round;stroke-linejoin:round;stroke-width:2px"/><line x1="49.87" y1="103.79" x2="49.87" y2="80.81" style="fill:none;stroke:#000;stroke-linecap:round;stroke-linejoin:round;stroke-width:2px"/><line x1="19.84" y1="103.79" x2="19.84" y2="85.19" style="fill:none;stroke:#000;stroke-linecap:round;stroke-linejoin:round;stroke-width:2px"/><path d="M47.2,74.32c0,2.73-6.72,4.94-15,4.94s-15-2.21-15-4.94,6.72-4.95,15-4.95S47.2,71.59,47.2,74.32Z" style="fill:none;stroke:#000;stroke-linecap:round;stroke-linejoin:round;stroke-width:2px"/><path d="M47.2,74.32v8.05c0,2.74-6.72,4.95-15,4.95s-15-2.21-15-4.95V74.32" style="fill:none;stroke:#000;stroke-linecap:round;stroke-linejoin:round;stroke-width:2px"/><path d="M23.9,73.75s2.51,1.7,7.1,1.35" style="fill:none;stroke:#000;stroke-linecap:round;stroke-linejoin:round;stroke-width:2px"/><polyline points="108.42 52.35 108.42 26.86 2.63 26.86 2.63 81.75 17.17 81.75" style="fill:none;stroke:#000;stroke-linecap:round;stroke-linejoin:round;stroke-width:2px"/><line x1="49.92" y1="81.75" x2="67.05" y2="81.75" style="fill:none;stroke:#000;stroke-linecap:round;stroke-linejoin:round;stroke-width:2px"/><line x1="66.19" y1="74.68" x2="47.2" y2="74.68" style="fill:none;stroke:#000;stroke-linecap:round;stroke-linejoin:round;stroke-width:2px"/><path d="M16.78,74.68a7.83,7.83,0,0,0-7.12-7V40.93a7.83,7.83,0,0,0,7.12-7H94.27a7.83,7.83,0,0,0,7.12,7v8.58" style="fill:none;stroke:#000;stroke-linecap:round;stroke-linejoin:round;stroke-width:2px"/><line x1="19.98" y1="54.31" x2="9.66" y2="54.31" style="fill:none;stroke:#000;stroke-linecap:round;stroke-linejoin:round;stroke-width:2px"/><line x1="94.62" y1="106.75" x2="94.62" y2="54.17" style="fill:none;stroke:#000;stroke-linecap:round;stroke-linejoin:round;stroke-width:2px"/><path d="M118.75,91.65A42.16,42.16,0,0,0,123.11,73V57.21L94.62,47.78,66.13,57.21V73a42.78,42.78,0,0,0,28.49,40.19A43.06,43.06,0,0,0,110.68,103" style="fill:none;stroke:#000;stroke-linecap:round;stroke-linejoin:round;stroke-width:2px"/><path d="M115,87.43a34,34,0,0,0,2.58-13V61.76L94.62,54.17,71.7,61.76V74.42a34.41,34.41,0,0,0,22.92,32.33A34.58,34.58,0,0,0,108.1,98" style="fill:none;stroke:#000;stroke-linecap:round;stroke-linejoin:round;stroke-width:2px"/><polygon points="112.49 81.53 116.29 90.62 125.37 94.41 116.29 98.21 112.49 107.29 108.7 98.21 99.61 94.41 108.7 90.62 112.49 81.53" style="fill:none;stroke:#000;stroke-linecap:round;stroke-linejoin:round;stroke-width:2px"/><polyline points="17.93 14.86 120.42 14.86 120.42 40.8" style="fill:none;stroke:#000;stroke-linecap:round;stroke-linejoin:round;stroke-width:2px"/><polyline points="11.93 20.86 114.42 20.86 114.42 46.8" style="fill:none;stroke:#000;stroke-linecap:round;stroke-linejoin:round;stroke-width:2px"/></svg>