<svg id="Layer_1" data-name="Layer 1" xmlns="http://www.w3.org/2000/svg" viewBox="0 0 128 128"><title>iStar_Design_Business_LineIcons_Live-94</title><polyline points="46.81 99.21 5.83 99.21 5.83 36.74 5.83 30.61 20.92 8.17 75.43 8.17 75.43 24.21" style="fill:none;stroke:#000;stroke-linecap:round;stroke-linejoin:round;stroke-width:2px"/><polyline points="5.83 30.61 20.92 30.61 20.92 8.17" style="fill:none;stroke:#000;stroke-linecap:round;stroke-linejoin:round;stroke-width:2px"/><line x1="12.83" y1="64.09" x2="12.83" y2="84.63" style="fill:none;stroke:#000;stroke-linecap:round;stroke-linejoin:round;stroke-width:2px"/><line x1="12.83" y1="91.4" x2="12.83" y2="98.29" style="fill:none;stroke:#000;stroke-linecap:round;stroke-linejoin:round;stroke-width:2px"/><rect x="22.76" y="83.39" width="6.91" height="6.91" style="fill:none;stroke:#000;stroke-linecap:round;stroke-linejoin:round;stroke-width:2px"/><rect x="22.76" y="67.07" width="6.91" height="6.91" style="fill:none;stroke:#000;stroke-linecap:round;stroke-linejoin:round;stroke-width:2px"/><rect x="22.76" y="50.76" width="6.91" height="6.91" style="fill:none;stroke:#000;stroke-linecap:round;stroke-linejoin:round;stroke-width:2px"/><rect x="22.76" y="35.41" width="6.91" height="6.91" style="fill:none;stroke:#000;stroke-linecap:round;stroke-linejoin:round;stroke-width:2px"/><line x1="36.28" y1="87.2" x2="46.81" y2="87.2" style="fill:none;stroke:#000;stroke-linecap:round;stroke-linejoin:round;stroke-width:2px"/><line x1="36.28" y1="70.53" x2="46.33" y2="70.53" style="fill:none;stroke:#000;stroke-linecap:round;stroke-linejoin:round;stroke-width:2px"/><line x1="36.28" y1="53.65" x2="46.81" y2="53.65" style="fill:none;stroke:#000;stroke-linecap:round;stroke-linejoin:round;stroke-width:2px"/><line x1="36.28" y1="38.29" x2="41.2" y2="38.29" style="fill:none;stroke:#000;stroke-linecap:round;stroke-linejoin:round;stroke-width:2px"/><line x1="45.96" y1="38.29" x2="61.24" y2="38.29" style="fill:none;stroke:#000;stroke-linecap:round;stroke-linejoin:round;stroke-width:2px"/><line x1="45.96" y1="16.72" x2="61.68" y2="16.72" style="fill:none;stroke:#000;stroke-linecap:round;stroke-linejoin:round;stroke-width:2px"/><line x1="35.62" y1="22.91" x2="61.68" y2="22.91" style="fill:none;stroke:#000;stroke-linecap:round;stroke-linejoin:round;stroke-width:2px"/><line x1="69.23" y1="8.17" x2="69.23" y2="22.91" style="fill:none;stroke:#000;stroke-linecap:round;stroke-linejoin:round;stroke-width:2px"/><polyline points="121.73 119.83 52.57 119.83 52.57 57.36 52.57 51.23 67.66 28.79 122.17 28.79 122.17 87.69" style="fill:none;stroke:#000;stroke-linecap:round;stroke-linejoin:round;stroke-width:2px"/><polyline points="52.57 51.23 67.66 51.23 67.66 28.79" style="fill:none;stroke:#000;stroke-linecap:round;stroke-linejoin:round;stroke-width:2px"/><line x1="59.57" y1="84.71" x2="59.57" y2="105.25" style="fill:none;stroke:#000;stroke-linecap:round;stroke-linejoin:round;stroke-width:2px"/><line x1="59.57" y1="112.01" x2="59.57" y2="118.91" style="fill:none;stroke:#000;stroke-linecap:round;stroke-linejoin:round;stroke-width:2px"/><rect x="69.49" y="104.01" width="6.91" height="6.91" style="fill:none;stroke:#000;stroke-linecap:round;stroke-linejoin:round;stroke-width:2px"/><rect x="69.49" y="87.69" width="6.91" height="6.91" style="fill:none;stroke:#000;stroke-linecap:round;stroke-linejoin:round;stroke-width:2px"/><rect x="69.49" y="71.38" width="6.91" height="6.91" style="fill:none;stroke:#000;stroke-linecap:round;stroke-linejoin:round;stroke-width:2px"/><rect x="69.49" y="56.03" width="6.91" height="6.91" style="fill:none;stroke:#000;stroke-linecap:round;stroke-linejoin:round;stroke-width:2px"/><line x1="83.02" y1="107.82" x2="96.45" y2="107.82" style="fill:none;stroke:#000;stroke-linecap:round;stroke-linejoin:round;stroke-width:2px"/><line x1="83.02" y1="91.15" x2="105.23" y2="91.15" style="fill:none;stroke:#000;stroke-linecap:round;stroke-linejoin:round;stroke-width:2px"/><line x1="83.02" y1="74.27" x2="96.45" y2="74.27" style="fill:none;stroke:#000;stroke-linecap:round;stroke-linejoin:round;stroke-width:2px"/><line x1="100.35" y1="74.27" x2="109.24" y2="74.27" style="fill:none;stroke:#000;stroke-linecap:round;stroke-linejoin:round;stroke-width:2px"/><line x1="83.02" y1="58.91" x2="87.93" y2="58.91" style="fill:none;stroke:#000;stroke-linecap:round;stroke-linejoin:round;stroke-width:2px"/><line x1="92.7" y1="58.91" x2="112.79" y2="58.91" style="fill:none;stroke:#000;stroke-linecap:round;stroke-linejoin:round;stroke-width:2px"/><line x1="122.17" y1="93.47" x2="122.17" y2="119.74" style="fill:none;stroke:#000;stroke-linecap:round;stroke-linejoin:round;stroke-width:2px"/><line x1="92.7" y1="37.34" x2="108.42" y2="37.34" style="fill:none;stroke:#000;stroke-linecap:round;stroke-linejoin:round;stroke-width:2px"/><line x1="82.36" y1="43.53" x2="108.42" y2="43.53" style="fill:none;stroke:#000;stroke-linecap:round;stroke-linejoin:round;stroke-width:2px"/><line x1="115.97" y1="28.79" x2="115.97" y2="43.53" style="fill:none;stroke:#000;stroke-linecap:round;stroke-linejoin:round;stroke-width:2px"/><line x1="102.02" y1="107.83" x2="106.61" y2="107.83" style="fill:none;stroke:#000;stroke-linecap:round;stroke-linejoin:round;stroke-width:2px"/></svg>