<svg id="Herrenknecht_Logo" xmlns="http://www.w3.org/2000/svg" viewBox="0 0 194.3 132.7"><defs><style>.cls-3{fill:#003e25}</style></defs><path d="M0 0h194.3v132.7H0V0z" fill="#7db713"/><path d="M2.82 111.58h188.49v18.66H2.82v-18.66zm7.31-97.9h5.49v5.04h3.24v-5.04h5.48v14.25h-5.48v-5.05h-3.24v5.05h-5.49V13.68zm15.85 0h11.64v4.15h-6.15v1.51h6.15v3.34h-6.15v1.51h6.15v3.74H25.98V13.68zm13.27-.01h9.5c2.79 0 5.13.6 5.13 4.11 0 2.69-1.28 4-4 4.09l4.57 6h-6.38l-3.27-5h-.06v5h-5.49v-14.2zm5.49 6.69h1.72c1.08 0 1.94-.2 1.94-1.6 0-.92-.44-1.36-1.66-1.36h-2v3zm10.35-6.69h9.5c2.79 0 5.13.6 5.13 4.11 0 2.69-1.28 4-4 4.09l4.57 6h-6.38l-3.27-5h-.06v5h-5.49v-14.2zm5.49 6.69h1.72c1.08 0 1.94-.2 1.94-1.6 0-.92-.44-1.36-1.66-1.36h-2v3zm10.36-6.68h11.63v4.15h-6.15v1.51h6.15v3.34h-6.15v1.51h6.15v3.74H70.94V13.68zm13.26 0h6.23l3.19 7.88h.04l-.36-7.88h5.11v14.25h-5.69l-3.73-8.73h-.04l.36 8.73H84.2V13.68zm15.85 0h5.34v5.52h.06l3.16-5.52h6.5l-5.25 6.92 5.42 7.33h-6.63l-3.2-5.61h-.06v5.61h-5.34V13.68zm15.84 0h6.23l3.19 7.88h.04l-.36-7.88h5.11v14.25h-5.69l-3.73-8.73h-.04l.36 8.73h-5.11V13.68zm15.84 0h11.64v4.15h-6.15v1.51h6.15v3.34h-6.15v1.51h6.15v3.74h-11.64V13.68zm25.07 5.24a20.47 20.47 0 0 0-3.67-.36c-1.94 0-3.11.54-3.11 2.57s1.32 2.43 3.07 2.43a20.72 20.72 0 0 0 3.71-.46v4.33a19.67 19.67 0 0 1-5.17.84c-5.33 0-7.38-2.45-7.38-7.66 0-4.69 2-7.3 7.26-7.3a21.29 21.29 0 0 1 5.29.94v4.67zm1.47-5.24h5.49v5.04h3.23v-5.04h5.49v14.25h-5.49v-5.05h-3.23v5.05h-5.49V13.68zm18.94 4.71h-3.75v-4.71h12.99v4.71h-3.76v9.54h-5.48v-9.54zm14.1 22.09H38.72l-16.9 27.98 16.9 30.98h152.59V40.48z" fill="#fff"/><path class="cls-3" d="M40.23 42.59h46.01v14.77h18.77V42.59h47.87V96.8h-47.87V81.3H86.24v15.5H40.13L24.74 68.4l15.49-25.81z"/><path d="M42.77 48.22h38.54v14.44H110V48.22h38.01v43.12H110V76.56H81.31v14.78H42.77V48.22z" fill="none" stroke="#fff" stroke-width="2.12"/><path class="cls-3" d="M27.95 125.66h-2.32v-9.15h-3.36v-1.97h9.05v1.97h-3.37v9.15zm10.61 0h-2.07v-1.16a2.71 2.71 0 0 1-2.51 1.38c-1.63 0-2.8-.93-2.8-3v-5.42h2.17v5.11c0 1.27.74 1.52 1.41 1.52a1.64 1.64 0 0 0 1.67-1.87v-4.75h2.17v8.24zm9.44 0h-2.13v-5c0-.6 0-1.63-1.41-1.63a1.69 1.69 0 0 0-1.7 1.91v4.72h-2.17v-8.24h2.08v1.21A2.87 2.87 0 0 1 48 120v5.7zm9.5 0h-2.17v-5c0-.6 0-1.63-1.41-1.63a1.69 1.69 0 0 0-1.7 1.91v4.72H50v-8.24h2.08v1.21A2.87 2.87 0 0 1 57.5 120v5.7zm9.09-2.41a3.57 3.57 0 0 1-3.59 2.63c-2.32 0-4.1-1.12-4.1-4.51 0-1 .34-4.17 3.95-4.17 1.63 0 3.87.77 3.87 4.54v.39H61c.06.62.19 2 1.94 2a1.39 1.39 0 0 0 1.39-.9zm-2.14-2.52a1.67 1.67 0 0 0-1.67-1.73c-1 0-1.56.65-1.69 1.74zm5.9 4.93h-2.17v-11.12h2.17v11.12zm4.3 0h-2.17v-11.12h2.17v11.12zm4.35-8.24v8.24h-2.21v-8.24zm0-1h-2.21v-2H79v2zm9.48 9.24h-2.17v-5c0-.6 0-1.63-1.41-1.63a1.69 1.69 0 0 0-1.7 1.91v4.72H81v-8.24h2.1v1.21a2.87 2.87 0 0 1 5.38 1.37v5.7zm9.52-8.24v7.81c0 1.42-.11 3.79-4.17 3.79-1.7 0-3.5-.73-3.59-2.48h2.35c.09.42.26.84 1.52.84s1.72-.56 1.72-1.89v-1a2.24 2.24 0 0 1-2.2 1.24c-2 0-3.55-1.38-3.55-4.26s1.61-4.24 3.42-4.24a2.48 2.48 0 0 1 2.42 1.44v-1.22zm-4 6.46c1.47 0 1.84-1.25 1.84-2.39 0-1.33-.65-2.42-1.86-2.42-.81 0-1.7.59-1.7 2.51 0 1.05.43 2.29 1.72 2.29zm12.08-1.64c0 .62.33 1.8 2.36 1.8 1.1 0 2.32-.26 2.32-1.44 0-.87-.84-1.1-2-1.38l-1.19-.28c-1.8-.42-3.53-.82-3.53-3.27 0-1.24.67-3.42 4.27-3.42 3.41 0 4.32 2.23 4.34 3.59h-2.25c-.06-.5-.25-1.67-2.28-1.67-.88 0-1.94.33-1.94 1.33s.71 1.05 1.18 1.16l2.71.67c1.52.37 2.91 1 2.91 3 0 3.35-3.41 3.64-4.38 3.64-4.06 0-4.76-2.34-4.76-3.72zm13.01 3.28c-1 3.05-1.3 3.45-3.19 3.45h-1v-1.74a2.55 2.55 0 0 0 .42 0c.79 0 1.22-.11 1.43-1.24l-3-8.58h2.42l1.77 6.07 1.69-6.07h2.29l-2.84 8.1zm8.77-5.59c-.09-.53-.28-1.08-1.46-1.08s-1.33.45-1.33.81c0 1.3 5.16.36 5.16 3.39 0 2.4-2.32 2.83-3.61 2.83-1.87 0-3.9-.65-4-2.85h2.23c0 .7.43 1.21 1.8 1.21 1.12 0 1.38-.54 1.38-.85 0-1.38-5.11-.34-5.11-3.42 0-1.21.76-2.76 3.33-2.76 1.61 0 3.53.4 3.7 2.73zm6.37-2.51h1.35V119h-1.35v4.48c0 .48 0 .67.9.67h.45v1.64h-1.28c-1.87 0-2.21-.71-2.21-1.78v-5H131v-1.55h1.12v-2.23h2.17v2.23zm9.77 5.83a3.57 3.57 0 0 1-3.62 2.63c-2.32 0-4.1-1.12-4.1-4.51 0-1 .34-4.17 3.95-4.17 1.63 0 3.87.77 3.87 4.54v.39h-5.65c.06.62.19 2 1.94 2a1.39 1.39 0 0 0 1.39-.9zm-2.14-2.52a1.67 1.67 0 0 0-1.67-1.74c-1 0-1.56.65-1.69 1.74zm15.49 4.93h-2.17v-5c0-1.22-.54-1.63-1.18-1.63-1.08 0-1.47.71-1.47 1.69v4.94h-2.17v-5c0-.7 0-1.67-1.3-1.67-1 0-1.35.71-1.35 1.61v5h-2.17v-8.24h2.08v1.21a2.45 2.45 0 0 1 2.38-1.37 2.36 2.36 0 0 1 2.29 1.32 2.57 2.57 0 0 1 2.2-1.32 2.63 2.63 0 0 1 2.87 2.76v5.7zm6.65-5.73c-.09-.53-.28-1.08-1.46-1.08s-1.33.45-1.33.81c0 1.3 5.16.36 5.16 3.39 0 2.4-2.32 2.83-3.61 2.83-1.87 0-3.9-.65-4-2.85H161c0 .7.43 1.21 1.8 1.21 1.12 0 1.38-.54 1.38-.85 0-1.38-5.11-.34-5.11-3.42 0-1.21.76-2.76 3.33-2.76 1.61 0 3.53.4 3.7 2.73z"/></svg>