<?xml version="1.0" encoding="utf-8"?>
<!-- Generator: Adobe Illustrator 24.1.0, SVG Export Plug-In . SVG Version: 6.00 Build 0)  -->
<svg version="1.1" id="Layer_1" xmlns="http://www.w3.org/2000/svg" xmlns:xlink="http://www.w3.org/1999/xlink" x="0px" y="0px"
	 viewBox="0 0 1873.76 1351.58" style="enable-background:new 0 0 1873.76 1351.58;" xml:space="preserve">
<style type="text/css">
	.st0{fill:url(#SVGID_1_);}
	.st1{clip-path:url(#SVGID_3_);}
	.st2{fill:#FFFFFF;}
	.st3{fill:#FAFAFA;}
	.st4{fill:#DEE1E6;}
	.st5{font-family:'Helvetica';}
	.st6{font-size:139px;}
	.st7{fill:#5D6063;}
	.st8{fill:#464646;}
	.st9{font-family:'Roboto-Regular';}
	.st10{font-size:13px;}
	.st11{fill:#507DF8;}
	.st12{fill:#F1F3F4;}
	.st13{fill:none;}
	.st14{fill:#5F6368;}
	.st15{fill:#606368;}
	.st16{fill:#5F6375;}
	.st17{font-size:14px;}
	.st18{fill:#202124;}
	.st19{fill:#BBBDBF;}
	.st20{fill:#29CA41;stroke:#2CAD28;stroke-miterlimit:10;}
	.st21{fill:#FF6058;stroke:#E14642;stroke-miterlimit:10;}
	.st22{fill:#FFBD2E;stroke:#E0A026;stroke-miterlimit:10;}
	.st23{fill:#000333;}
	.st24{fill:none;stroke:#DBDBDB;}
	.st25{font-family:'Roboto-Bold';}
	.st26{font-size:16px;}
	.st27{fill:none;stroke:#163057;stroke-width:2;}
	.st28{fill:#146BEF;}
	.st29{fill:#163057;}
	.st30{font-size:32px;}
	.st31{fill:#F9F9F9;}
	.st32{font-size:12px;}
	.st33{font-family:'Roboto-Medium';}
	.st34{font-size:11px;}
	.st35{font-size:9px;}
	.st36{font-size:10px;}
	.st37{fill:#162E57;}
	.st38{opacity:0.6;}
	.st39{opacity:0.8;}
	.st40{opacity:0.6;fill:#163057;enable-background:new    ;}
	.st41{fill:#0055FF;}
	.st42{fill:#6A78D1;}
	.st43{fill:#49C39E;}
	.st44{fill:#F2545B;}
	.st45{fill:#F5C26B;}
	.st46{fill:none;stroke:#CBDCFF;}
	.st47{fill:none;stroke:#162E57;}
	.st48{fill:none;stroke:#162E57;stroke-width:2;}
	.st49{fill:none;stroke:#0055FF;}
	.st50{fill:none;stroke:#0055FF;stroke-width:2;}
	.st51{fill:none;stroke:#EBEBEB;}
	.st52{font-size:8px;}
	.st53{opacity:0.4;}
</style>
<g>
	<linearGradient id="SVGID_1_" gradientUnits="userSpaceOnUse" x1="936.9852" y1="1351.6849" x2="936.9852" y2="-0.3151">
		<stop  offset="0" style="stop-color:#6190E8"/>
		<stop  offset="1" style="stop-color:#A7BFE8"/>
	</linearGradient>
	<path class="st0" d="M1844,1351.68H29.97c-16.57,0-30-13.43-30-30v-1292c0-16.57,13.43-30,30-30H1844c16.57,0,30,13.43,30,30v1292
		C1874,1338.25,1860.57,1351.68,1844,1351.68z"/>
</g>
<g>
	<defs>
		<rect id="SVGID_2_" x="137.18" y="253.49" width="1600" height="900"/>
	</defs>
	<clipPath id="SVGID_3_">
		<use xlink:href="#SVGID_2_"  style="overflow:visible;"/>
	</clipPath>
	<g id="Chrome_Mac_OS" class="st1">
		<rect x="137.18" y="253.49" class="st2" width="1600" height="900"/>
		<g id="Screen" transform="translate(0 118)">
			<path id="Screen-2" class="st3" d="M136.18,243.49h1601l0,0v815c0,3.31-2.69,6-6,6h-1589c-3.31,0-6-2.69-6-6V243.49
				L136.18,243.49z"/>
			<text transform="matrix(1 0 0 1 706.1758 712.4882)" class="st4 st5 st6">Screen</text>
		</g>
		<rect id="Rectangle_217" x="1487.18" y="334.49" class="st2" width="250" height="897"/>
		<g id="BG">
			<path id="BG-2" class="st4" d="M143.43,253.49h1587.5c3.45,0,6.25,2.24,6.25,5v74h-1600v-74
				C137.18,255.73,139.98,253.49,143.43,253.49z"/>
		</g>
		<g id="Tab_" transform="translate(0 9)">
			<path id="Tab" class="st2" d="M1737.18,287.53v35.96h-1600v-35.96H1737.18z"/>
			<path id="Rectangle_4" class="st2" d="M213.18,261.49c0-4.42,3.58-8,8-8h224c4.42,0,8,3.58,8,8v18c0,4.42,3.58,8,8,8h-256
				c4.42,0,8-3.58,8-8V261.49z"/>
			<g id="Group_3" transform="translate(88 8)">
				<path id="Close" class="st7" d="M352.81,267.25l-2.63-2.63l-2.64,2.63c-0.31,0.31-0.82,0.31-1.13,0s-0.31-0.82,0-1.13l0,0
					l2.63-2.63l-2.63-2.64c-0.3-0.32-0.29-0.83,0.03-1.13c0.31-0.29,0.79-0.29,1.1,0l2.64,2.63l2.63-2.63
					c0.31-0.31,0.82-0.31,1.13,0s0.31,0.82,0,1.13l-2.63,2.64l2.63,2.63c0.31,0.31,0.31,0.82,0,1.13S353.12,267.57,352.81,267.25
					L352.81,267.25z"/>
				<text transform="matrix(1 0 0 1 162.1759 267.4882)" class="st8 st9 st10">Google</text>
				<g id="Logo">
					<circle id="Oval" class="st2" cx="146.18" cy="262.49" r="9"/>
					<path id="Combined_Shape" class="st11" d="M146.18,261.36h6.66c0.62,3.68-1.85,7.16-5.53,7.78s-7.16-1.85-7.78-5.53
						c-0.62-3.68,1.85-7.16,5.53-7.78c2.29-0.39,4.62,0.43,6.17,2.17l-1.9,1.27c-1.78-1.74-4.63-1.7-6.36,0.08s-1.7,4.63,0.08,6.36
						c1.78,1.74,4.63,1.7,6.36-0.08c0.55-0.56,0.94-1.26,1.14-2.02h-4.36V261.36z"/>
				</g>
			</g>
		</g>
		<g id="Location_Bar" transform="translate(107 47)">
			<g id="Search_Bar_2">
				<path id="Search_Bar" class="st12" d="M151.18,253.49h1432c7.73,0,14,6.27,14,14l0,0c0,7.73-6.27,14-14,14h-1432
					c-7.73,0-14-6.27-14-14l0,0C137.18,259.76,143.44,253.49,151.18,253.49z"/>
			</g>
			<g id="Star_2" transform="translate(1432 7)">
				<g id="Star">
					<path class="st13" d="M144.18,265.1l-4.33,2.39l0.83-5.07l-3.5-3.59l4.84-0.74l2.16-4.61l2.16,4.61l4.84,0.74l-3.5,3.59
						l0.83,5.07L144.18,265.1z"/>
					<path class="st14" d="M146.45,264.58l-0.31-1.9l-0.13-0.77l0.55-0.56l1.39-1.42l-1.84-0.28l-0.82-0.13l-0.35-0.75l-0.75-1.61
						l-0.75,1.61l-0.35,0.75l-0.82,0.13l-1.84,0.28l1.39,1.42l0.55,0.56l-0.13,0.77l-0.31,1.9l1.52-0.84l0.75-0.42l0.75,0.42
						L146.45,264.58 M148.5,267.49l-4.33-2.39l-4.33,2.39l0.83-5.07l-3.5-3.59l4.84-0.74l2.16-4.61l2.16,4.61l4.84,0.74l-3.5,3.59
						L148.5,267.49z"/>
				</g>
			</g>
			<g id="HTML" transform="translate(18 5)">
				<path id="Lock" class="st15" d="M137.68,268.49c-0.28,0-0.5-0.22-0.5-0.5v-6c0-0.28,0.22-0.5,0.5-0.5h0.5c0,0,0-0.01,0-0.01
					v-0.98c0-1.66,1.34-3,3-3s3,1.34,3,3v0.98v0.01h0.5c0.28,0,0.5,0.22,0.5,0.5v6c0,0.28-0.22,0.5-0.5,0.5H137.68z M143.18,261.49
					C143.18,261.49,143.18,261.48,143.18,261.49v-0.99c0-1.1-0.9-2-2-2s-2,0.9-2,2v0.98v0.01H143.18z"/>
				<text transform="matrix(1 0 0 1 155.1758 268.4882)" class="st16 st9 st17">https://</text>
				<text transform="matrix(1 0 0 1 200.5049 268.4882)" class="st18 st9 st17">www.google.com</text>
			</g>
		</g>
		<g id="Plus" transform="translate(333 21)">
			<path id="Close-2" class="st15" d="M142.78,265.08l0-4.19l-4.19,0c-0.5-0.02-0.89-0.43-0.87-0.93c0.02-0.47,0.4-0.85,0.87-0.87
				l4.19,0l0-4.19c0.02-0.5,0.43-0.89,0.93-0.87c0.47,0.02,0.85,0.4,0.87,0.87l0,4.19l4.19,0c0.5-0.02,0.91,0.37,0.93,0.87
				c0.02,0.5-0.37,0.91-0.87,0.93c-0.02,0-0.04,0-0.06,0l-4.19,0l0,4.19c0.02,0.5-0.37,0.91-0.87,0.93
				c-0.5,0.02-0.91-0.37-0.93-0.87C142.78,265.12,142.78,265.1,142.78,265.08z"/>
		</g>
		<g id="More" transform="translate(1577 55)">
			<path id="Combined_Shape-2" class="st15" d="M137.18,264.99c0-0.83,0.67-1.5,1.5-1.5s1.5,0.67,1.5,1.5s-0.67,1.5-1.5,1.5
				S137.18,265.82,137.18,264.99z M137.18,259.99c0-0.83,0.67-1.5,1.5-1.5s1.5,0.67,1.5,1.5s-0.67,1.5-1.5,1.5
				S137.18,260.82,137.18,259.99z M137.18,254.99c0-0.83,0.67-1.5,1.5-1.5s1.5,0.67,1.5,1.5s-0.67,1.5-1.5,1.5
				S137.18,255.82,137.18,254.99z"/>
		</g>
		<g id="Controls" transform="translate(15 54)">
			<path id="Refresh" class="st8" d="M201.18,260.49c-0.01-3.86,3.11-6.99,6.96-7c0,0,0,0,0,0c1.88-0.04,3.7,0.66,5.07,1.95
				l1.96-1.95v5.49h-0.15v0.01h-1.99v-0.01h-3.4l2.21-2.19c-2.03-1.98-5.28-1.94-7.26,0.09c-0.94,0.96-1.46,2.26-1.46,3.61
				c-0.13,2.76,2.01,5.1,4.77,5.23c0.08,0,0.16,0.01,0.24,0.01c2.56-0.04,4.69-1.99,4.96-4.54h1.97c-0.37,3.83-3.77,6.63-7.6,6.27
				C203.89,267.11,201.16,264.09,201.18,260.49z"/>
			<path id="Back" class="st19" d="M143.07,267.19l-5.62-5.73c-0.37-0.37-0.37-0.98,0.01-1.35c0.01-0.01,0.01-0.01,0.02-0.02
				l5.62-5.34c0.39-0.37,1-0.36,1.38,0.02c0.37,0.37,0.36,0.98-0.01,1.35c0,0-0.01,0.01-0.01,0.01l-3.91,3.72h7.66
				c0.53,0,0.96,0.43,0.96,0.96s-0.43,0.96-0.96,0.96h-7.71l3.99,4.06c0.37,0.37,0.37,0.98-0.01,1.35c0,0-0.01,0.01-0.01,0.01
				C144.06,267.59,143.45,267.58,143.07,267.19L143.07,267.19z"/>
			<path id="Forward" class="st19" d="M177.28,254.78l5.62,5.73c0.37,0.37,0.37,0.98-0.01,1.35c-0.01,0.01-0.01,0.01-0.02,0.02
				l-5.62,5.34c-0.39,0.37-1,0.36-1.38-0.02c-0.37-0.37-0.36-0.98,0.01-1.35c0,0,0.01-0.01,0.01-0.01l3.88-3.7h-7.63
				c-0.53,0.02-0.98-0.4-0.99-0.93c-0.02-0.53,0.4-0.98,0.93-0.99c0.02,0,0.04,0,0.06,0h7.74l-4.01-4.09
				c-0.37-0.37-0.37-0.98,0.01-1.35c0,0,0.01-0.01,0.01-0.01C176.29,254.39,176.9,254.4,177.28,254.78L177.28,254.78z"/>
		</g>
		<g id="Traffic_" transform="translate(14 20)">
			<circle id="Extend" class="st20" cx="182.68" cy="258.99" r="5.5"/>
			<circle id="Close-3" class="st21" cx="142.68" cy="258.99" r="5.5"/>
			<circle id="Minimize" class="st22" cx="162.68" cy="258.99" r="5.5"/>
		</g>
		<rect id="Rectangle_218" x="141.18" y="334.49" class="st2" width="249" height="897"/>
		<g id="Rectangle_219" transform="translate(1600 81) rotate(90)">
			
				<rect x="-521.01" y="637.32" transform="matrix(2.535182e-06 1 -1 2.535182e-06 941.8116 383.8343)" class="st23" width="1600" height="51"/>
			
				<rect x="-520.51" y="637.82" transform="matrix(2.535182e-06 1 -1 2.535182e-06 941.8116 383.8343)" class="st24" width="1599" height="50"/>
		</g>
		<text transform="matrix(1 0 0 1 217.1759 366.4882)" class="st2 st25 st26">Backend</text>
		<text transform="matrix(1 0 0 1 304.1758 366.4882)" class="st2 st25 st26">Frontend</text>
		<text transform="matrix(1 0 0 1 393.1758 366.4882)" class="st2 st25 st26">Workflow</text>
		<text transform="matrix(1 0 0 1 486.1758 366.4882)" class="st2 st25 st26">Deploy</text>
		<path id="Path_271" class="st27" d="M368.68,383.99"/>
		<g id="Component_5_1" transform="translate(287 156)">
			<g transform="matrix(1, 0, 0, 1, -287, -156)">
				<path id="Rectangle_61-2" class="st2" d="M429.18,409.49h1020c2.76,0,5,2.24,5,5v606c0,2.76-2.24,5-5,5h-1020
					c-2.76,0-5-2.24-5-5v-606C424.18,411.73,426.41,409.49,429.18,409.49z"/>
			</g>
		</g>
		<path id="Rectangle_220" class="st28" d="M815.18,757.49h248c2.76,0,5,2.24,5,5v25c0,2.76-2.24,5-5,5h-248c-2.76,0-5-2.24-5-5v-25
			C810.18,759.73,812.41,757.49,815.18,757.49z"/>
		<text transform="matrix(1 0 0 1 876.9419 573.4882)" class="st29 st25 st30">Log in to</text>
		<rect id="Rectangle_221" x="810.18" y="635.49" class="st31" width="258" height="34"/>
		<rect id="Rectangle_222" x="810.18" y="698.49" class="st31" width="258" height="34"/>
		<text transform="matrix(1 0 0 1 826.1759 658.4882)" class="st29 st25 st32">Username</text>
		<text transform="matrix(1 0 0 1 826.1759 720.4882)" class="st29 st25 st32">Password</text>
		<text transform="matrix(1 0 0 1 810.1759 832.4882)" class="st29 st25 st32">Forgot</text>
		<g id="Component_14_1" transform="translate(0 649)">
			<path id="Rectangle_216" class="st3" d="M142.18,253.49h222c2.76,0,5,2.24,5,5v15c0,2.76-2.24,5-5,5h-222c-2.76,0-5-2.24-5-5v-15
				C137.18,255.73,139.41,253.49,142.18,253.49z"/>
		</g>
		<text transform="matrix(1 0 0 1 163.1759 422.4882)" class="st29 st33 st34">NAVIGATOR</text>
		<g id="Component_18_1" transform="translate(148 158)">
			<text transform="matrix(1 0 0 1 137.1758 263.4882)" class="st29 st9 st34">COMPONENTS</text>
		</g>
		<text transform="matrix(1 0 0 1 164.1759 459.4882)" class="st29 st25 st35">PAGES</text>
		<text transform="matrix(1 0 0 1 355.1758 460.4882)" class="st29 st25 st17">+</text>
		<g id="Component_14_2" transform="translate(0 260)">
			<path id="Rectangle_216-2" class="st2" d="M142.18,253.49h222c2.76,0,5,2.24,5,5v23c0,2.76-2.24,5-5,5h-222c-2.76,0-5-2.24-5-5
				v-23C137.18,255.73,139.41,253.49,142.18,253.49z"/>
		</g>
		<text transform="matrix(1 0 0 1 187.1759 498.4882)" class="st29 st9 st34">Main</text>
		<text transform="matrix(1 0 0 1 187.1759 532.4882)" class="st29 st33 st34">Login</text>
		<text transform="matrix(1 0 0 1 187.1759 566.4882)" class="st29 st9 st34">Signup</text>
		<text transform="matrix(1 0 0 1 163.1759 638.4882)" class="st29 st25 st36">SCREENS</text>
		<text transform="matrix(1 0 0 1 353.1758 638.4882)" class="st29 st25 st17">+</text>
		<text transform="matrix(1 0 0 1 187.1759 708.4882)" class="st29 st33 st34">Login</text>
		<text transform="matrix(1 0 0 1 187.1759 678.4882)" class="st29 st33 st34">Master Layout</text>
		<text transform="matrix(1 0 0 1 187.1759 952.4882)" class="st29 st33 st34">Forgotten Password</text>
		<text transform="matrix(1 0 0 1 208.1759 768.4882)" class="st29 st9 st34">Text Field</text>
		<text transform="matrix(1 0 0 1 208.1759 798.4882)" class="st29 st9 st34">Text Field</text>
		<text transform="matrix(1 0 0 1 209.1759 828.4882)" class="st37 st9 st34">Button</text>
		<text transform="matrix(1 0 0 1 209.1759 858.4882)" class="st37 st9 st34">Grid</text>
		<g id="Group_8" transform="translate(24.098 445.338)">
			<path id="Path_205" d="M137.18,253.49h13.3v13.3h-13.3V253.49z"/>
			<path id="Path_206" class="st29" d="M140.2,258.07c-0.86,0-1.55-0.69-1.55-1.55c0-0.86,0.69-1.55,1.55-1.55
				c0.86,0,1.55,0.69,1.55,1.55c0,0,0,0,0,0C141.75,257.37,141.06,258.06,140.2,258.07z M147.44,258.07c-0.86,0-1.55-0.69-1.55-1.55
				s0.69-1.55,1.55-1.55s1.55,0.69,1.55,1.55l0,0C148.99,257.37,148.3,258.07,147.44,258.07z M147.44,265.3
				c-0.86,0-1.55-0.69-1.55-1.55c0-0.86,0.69-1.55,1.55-1.55s1.55,0.69,1.55,1.55l0,0C148.99,264.61,148.3,265.31,147.44,265.3
				C147.44,265.31,147.44,265.31,147.44,265.3L147.44,265.3z M140.2,265.3c-0.86,0-1.55-0.69-1.55-1.55c0-0.86,0.69-1.55,1.55-1.55
				c0.86,0,1.55,0.69,1.55,1.55c0,0,0,0,0,0C141.75,264.61,141.06,265.31,140.2,265.3L140.2,265.3z M142.27,256h3.1v1.03h-3.1V256z
				 M142.27,263.24h3.1v1.03h-3.1V263.24z M139.69,258.58h1.03v3.1h-1.03V258.58z M146.93,258.58h1.03v3.1h-1.03V258.58z"/>
		</g>
		<g id="Group_9" transform="translate(44.871 594.91)" class="st38">
			<path id="Path_205-2" d="M137.18,253.49h13.3v13.3h-13.3V253.49z"/>
			<path id="Path_206-2" class="st29" d="M140.2,258.07c-0.86,0-1.55-0.69-1.55-1.55c0-0.86,0.69-1.55,1.55-1.55
				c0.86,0,1.55,0.69,1.55,1.55c0,0,0,0,0,0C141.75,257.37,141.06,258.06,140.2,258.07z M147.44,258.07c-0.86,0-1.55-0.69-1.55-1.55
				s0.69-1.55,1.55-1.55s1.55,0.69,1.55,1.55l0,0C148.99,257.37,148.3,258.07,147.44,258.07z M147.44,265.3
				c-0.86,0-1.55-0.69-1.55-1.55c0-0.86,0.69-1.55,1.55-1.55s1.55,0.69,1.55,1.55l0,0C148.99,264.61,148.3,265.31,147.44,265.3
				C147.44,265.31,147.44,265.31,147.44,265.3L147.44,265.3z M140.2,265.3c-0.86,0-1.55-0.69-1.55-1.55c0-0.86,0.69-1.55,1.55-1.55
				c0.86,0,1.55,0.69,1.55,1.55c0,0,0,0,0,0C141.75,264.61,141.06,265.31,140.2,265.3L140.2,265.3z M142.27,256h3.1v1.03h-3.1V256z
				 M142.27,263.24h3.1v1.03h-3.1V263.24z M139.69,258.58h1.03v3.1h-1.03V258.58z M146.93,258.58h1.03v3.1h-1.03V258.58z"/>
		</g>
		<g id="Group_10" transform="translate(6.648 445.338)" class="st39">
			<path id="Path_211" class="st13" d="M137.18,253.49h13.3v13.3h-13.3V253.49z"/>
			<path id="Path_212" class="st29" d="M143.82,261.8l-2.35-2.35l0.78-0.78l1.57,1.57l1.57-1.57l0.78,0.78L143.82,261.8z"/>
		</g>
		<g id="Group_11" transform="translate(6.648 428.719) rotate(-90)" class="st39">
			<path id="Path_211-2" class="st13" d="M-253.49,137.18h13.3v13.3h-13.3V137.18z"/>
			<path id="Path_212-2" class="st29" d="M-246.84,145.49l-2.35-2.35l0.78-0.78l1.57,1.57l1.57-1.57l0.78,0.78L-246.84,145.49z"/>
		</g>
		<g id="Group_12" transform="translate(24.098 688.808)">
			<path id="Path_205-3" class="st13" d="M137.18,253.49h13.3v13.3h-13.3V253.49z"/>
			<path id="Path_206-3" class="st29" d="M140.2,258.07c-0.86,0-1.55-0.69-1.55-1.55c0-0.86,0.69-1.55,1.55-1.55
				c0.86,0,1.55,0.69,1.55,1.55c0,0,0,0,0,0C141.75,257.37,141.06,258.06,140.2,258.07z M147.44,258.07c-0.86,0-1.55-0.69-1.55-1.55
				s0.69-1.55,1.55-1.55s1.55,0.69,1.55,1.55l0,0C148.99,257.37,148.3,258.07,147.44,258.07z M147.44,265.3
				c-0.86,0-1.55-0.69-1.55-1.55c0-0.86,0.69-1.55,1.55-1.55s1.55,0.69,1.55,1.55l0,0C148.99,264.61,148.3,265.31,147.44,265.3
				C147.44,265.31,147.44,265.31,147.44,265.3L147.44,265.3z M140.2,265.3c-0.86,0-1.55-0.69-1.55-1.55c0-0.86,0.69-1.55,1.55-1.55
				c0.86,0,1.55,0.69,1.55,1.55c0,0,0,0,0,0C141.75,264.61,141.06,265.31,140.2,265.3L140.2,265.3z M142.27,256h3.1v1.03h-3.1V256z
				 M142.27,263.24h3.1v1.03h-3.1V263.24z M139.69,258.58h1.03v3.1h-1.03V258.58z M146.93,258.58h1.03v3.1h-1.03V258.58z"/>
		</g>
		<g id="Group_13" transform="translate(24.098 688.808)">
			<path id="Path_205-4" class="st13" d="M137.18,253.49h13.3v13.3h-13.3V253.49z"/>
			<path id="Path_206-4" class="st40" d="M140.2,258.07c-0.86,0-1.55-0.69-1.55-1.55c0-0.86,0.69-1.55,1.55-1.55
				c0.86,0,1.55,0.69,1.55,1.55c0,0,0,0,0,0C141.75,257.37,141.06,258.06,140.2,258.07z M147.44,258.07c-0.86,0-1.55-0.69-1.55-1.55
				s0.69-1.55,1.55-1.55s1.55,0.69,1.55,1.55l0,0C148.99,257.37,148.3,258.07,147.44,258.07z M147.44,265.3
				c-0.86,0-1.55-0.69-1.55-1.55c0-0.86,0.69-1.55,1.55-1.55s1.55,0.69,1.55,1.55l0,0C148.99,264.61,148.3,265.31,147.44,265.3
				C147.44,265.31,147.44,265.31,147.44,265.3L147.44,265.3z M140.2,265.3c-0.86,0-1.55-0.69-1.55-1.55c0-0.86,0.69-1.55,1.55-1.55
				c0.86,0,1.55,0.69,1.55,1.55c0,0,0,0,0,0C141.75,264.61,141.06,265.31,140.2,265.3L140.2,265.3z M142.27,256h3.1v1.03h-3.1V256z
				 M142.27,263.24h3.1v1.03h-3.1V263.24z M139.69,258.58h1.03v3.1h-1.03V258.58z M146.93,258.58h1.03v3.1h-1.03V258.58z"/>
		</g>
		<g id="Group_14" transform="translate(8.31 702.103) rotate(-90)">
			<path id="Path_211-3" class="st13" d="M-253.49,137.18h13.3v13.3h-13.3V137.18z"/>
			<path id="Path_212-3" class="st29" d="M-246.84,145.49l-2.35-2.35l0.78-0.78l1.57,1.57l1.57-1.57l0.78,0.78L-246.84,145.49z"/>
		</g>
		<line id="Line_9" class="st24" x1="141.75" y1="601.19" x2="391.03" y2="601.19"/>
		<line id="Line_65" class="st24" x1="141.75" y1="440.19" x2="391.03" y2="440.19"/>
		<g id="Group_15" transform="translate(25.76 269.176)">
			<path id="Path_238" class="st13" d="M137.18,253.49h13.3v13.3h-13.3V253.49z"/>
			<path id="Path_239" class="st29" d="M142.72,261.87l5.07-5.03l0.78,0.77l-5.85,5.81l-3.51-3.48l0.78-0.77L142.72,261.87z"/>
		</g>
		<g id="Group_16" transform="translate(24.098 415.424)">
			<path id="Path_240" class="st13" d="M137.18,253.49h13.3v13.3h-13.3V253.49z"/>
			<path id="Path_241" class="st29" d="M144.94,259.03v2.22h-2.22v-2.22H144.94z M146.05,259.03h2.77v2.22h-2.78L146.05,259.03z
				 M144.94,265.12h-2.22v-2.77h2.22V265.12z M146.05,265.12v-2.77h2.77v2.22c0,0.31-0.25,0.55-0.55,0.55H146.05z M144.94,255.15
				v2.77h-2.22v-2.77H144.94z M146.04,255.15h2.22c0.31,0,0.55,0.25,0.55,0.55v2.22h-2.77V255.15z M141.61,259.03v2.22h-2.77v-2.22
				H141.61z M141.61,265.13h-2.22c-0.31,0-0.55-0.25-0.55-0.55c0,0,0,0,0-0.01v-2.22h2.77V265.13z M141.61,255.15v2.77h-2.77v-2.22
				c0-0.31,0.25-0.55,0.55-0.55H141.61z"/>
		</g>
		<text transform="matrix(1 0 0 1 208.1759 738.4882)" class="st29 st9 st34">Text</text>
		<text transform="matrix(1 0 0 1 235.1759 888.4882)" class="st29 st33 st34">Link</text>
		<text transform="matrix(1 0 0 1 235.1759 918.4882)" class="st41 st33 st34">Link</text>
		<g id="input-method-line" transform="translate(44.871 475.253)" class="st38">
			<path id="Path_26" class="st13" d="M137.18,253.49h13.3v13.3h-13.3V253.49z"/>
			<path id="Path_27" class="st37" d="M139.95,256.26v7.76h7.76v-7.76H139.95z M139.39,255.15h8.86c0.31,0,0.55,0.25,0.55,0.55v8.86
				c0,0.31-0.25,0.55-0.55,0.55h-8.86c-0.31,0-0.55-0.25-0.55-0.55v-8.86C138.84,255.4,139.09,255.15,139.39,255.15z M142.64,261.8
				l-0.45,1.11h-1.23l2.31-5.54h1.11l2.31,5.54h-1.23L145,261.8H142.64L142.64,261.8z M143.1,260.69h1.45l-0.73-1.77L143.1,260.69z"
				/>
		</g>
		<g id="input-method-line-2" transform="translate(72.293 624.824)" class="st38">
			<path id="Path_26-2" class="st13" d="M137.18,253.49h13.3v13.3h-13.3V253.49z"/>
			<path id="Path_27-2" class="st29" d="M139.95,256.26v7.76h7.76v-7.76H139.95z M139.39,255.15h8.86c0.31,0,0.55,0.25,0.55,0.55
				v8.86c0,0.31-0.25,0.55-0.55,0.55h-8.86c-0.31,0-0.55-0.25-0.55-0.55v-8.86C138.84,255.4,139.09,255.15,139.39,255.15z
				 M142.64,261.8l-0.45,1.11h-1.23l2.31-5.54h1.11l2.31,5.54h-1.23L145,261.8H142.64L142.64,261.8z M143.1,260.69h1.45l-0.73-1.77
				L143.1,260.69z"/>
		</g>
		<g id="input-method-line-3" transform="translate(72.293 654.739)">
			<path id="Path_26-3" class="st13" d="M137.18,253.49h13.3v13.3h-13.3V253.49z"/>
			<path id="Path_27-3" class="st41" d="M139.95,256.26v7.76h7.76v-7.76H139.95z M139.39,255.15h8.86c0.31,0,0.55,0.25,0.55,0.55
				v8.86c0,0.31-0.25,0.55-0.55,0.55h-8.86c-0.31,0-0.55-0.25-0.55-0.55v-8.86C138.84,255.4,139.09,255.15,139.39,255.15z
				 M142.64,261.8l-0.45,1.11h-1.23l2.31-5.54h1.11l2.31,5.54h-1.23L145,261.8H142.64L142.64,261.8z M143.1,260.69h1.45l-0.73-1.77
				L143.1,260.69z"/>
		</g>
		<g id="Group_17" transform="translate(44.871 505.167)" class="st38">
			<path id="Path_246" class="st13" d="M137.18,253.49h13.3v13.3h-13.3V253.49z"/>
			<path id="Path_247" class="st37" d="M143.82,265.68c-3.06,0-5.54-2.48-5.54-5.54s2.48-5.54,5.54-5.54c3.06,0,5.54,2.48,5.54,5.54
				S146.88,265.68,143.82,265.68L143.82,265.68z M143.82,264.57c2.45,0,4.43-1.98,4.43-4.43s-1.98-4.43-4.43-4.43
				c-2.45,0-4.43,1.98-4.43,4.43c0,0,0,0,0,0C139.39,262.58,141.38,264.57,143.82,264.57z M143.82,262.91
				c-1.53,0-2.77-1.24-2.77-2.77s1.24-2.77,2.77-2.77s2.77,1.24,2.77,2.77l0,0C146.59,261.67,145.35,262.91,143.82,262.91
				C143.82,262.91,143.82,262.91,143.82,262.91L143.82,262.91z"/>
		</g>
		<g id="Group_18" transform="translate(44.871 535.081)" class="st38">
			<path id="Path_246-2" class="st13" d="M137.18,253.49h13.3v13.3h-13.3V253.49z"/>
			<path id="Path_247-2" class="st37" d="M143.82,265.68c-3.06,0-5.54-2.48-5.54-5.54s2.48-5.54,5.54-5.54
				c3.06,0,5.54,2.48,5.54,5.54S146.88,265.68,143.82,265.68L143.82,265.68z M143.82,264.57c2.45,0,4.43-1.98,4.43-4.43
				s-1.98-4.43-4.43-4.43c-2.45,0-4.43,1.98-4.43,4.43c0,0,0,0,0,0C139.39,262.58,141.38,264.57,143.82,264.57z M143.82,262.91
				c-1.53,0-2.77-1.24-2.77-2.77s1.24-2.77,2.77-2.77s2.77,1.24,2.77,2.77l0,0C146.59,261.67,145.35,262.91,143.82,262.91
				C143.82,262.91,143.82,262.91,143.82,262.91L143.82,262.91z"/>
		</g>
		<g id="Group_19" transform="translate(44.871 564.996)" class="st38">
			<path id="Path_246-3" class="st13" d="M137.18,253.49h13.3v13.3h-13.3V253.49z"/>
			<path id="Path_247-3" class="st37" d="M143.82,265.68c-3.06,0-5.54-2.48-5.54-5.54s2.48-5.54,5.54-5.54
				c3.06,0,5.54,2.48,5.54,5.54S146.88,265.68,143.82,265.68L143.82,265.68z M143.82,264.57c2.45,0,4.43-1.98,4.43-4.43
				s-1.98-4.43-4.43-4.43c-2.45,0-4.43,1.98-4.43,4.43c0,0,0,0,0,0C139.39,262.58,141.38,264.57,143.82,264.57z M143.82,262.91
				c-1.53,0-2.77-1.24-2.77-2.77s1.24-2.77,2.77-2.77s2.77,1.24,2.77,2.77l0,0C146.59,261.67,145.35,262.91,143.82,262.91
				C143.82,262.91,143.82,262.91,143.82,262.91L143.82,262.91z"/>
		</g>
		<g id="Group_20" transform="translate(24.098 594.91)" class="st38">
			<path id="Path_211-4" class="st13" d="M137.18,253.49h13.3v13.3h-13.3V253.49z"/>
			<path id="Path_212-4" class="st29" d="M143.82,261.8l-2.35-2.35l0.78-0.78l1.57,1.57l1.57-1.57l0.78,0.78L143.82,261.8z"/>
		</g>
		<g id="Group_21" transform="translate(24.098 578.291) rotate(-90)" class="st38">
			<path id="Path_211-5" class="st13" d="M-253.49,137.18h13.3v13.3h-13.3V137.18z"/>
			<path id="Path_212-5" class="st29" d="M-246.84,145.49l-2.35-2.35l0.78-0.78l1.57,1.57l1.57-1.57l0.78,0.78L-246.84,145.49z"/>
		</g>
		<g id="Group_22" transform="translate(24.098 548.377) rotate(-90)" class="st38">
			<path id="Path_211-6" class="st13" d="M-253.49,137.18h13.3v13.3h-13.3V137.18z"/>
			<path id="Path_212-6" class="st29" d="M-246.84,145.49l-2.35-2.35l0.78-0.78l1.57,1.57l1.57-1.57l0.78,0.78L-246.84,145.49z"/>
		</g>
		<g id="Group_23" transform="translate(24.098 518.462) rotate(-90)" class="st38">
			<path id="Path_211-7" class="st13" d="M-253.49,137.18h13.3v13.3h-13.3V137.18z"/>
			<path id="Path_212-7" class="st29" d="M-246.84,145.49l-2.35-2.35l0.78-0.78l1.57,1.57l1.57-1.57l0.78,0.78L-246.84,145.49z"/>
		</g>
		<g id="budibase_emblem_white_1_" transform="translate(-0.8 84.025)">
			<g id="Group_136" transform="translate(33.8 9.975)">
				<path id="Path_272" class="st2" d="M148.62,253.75l8.6,5.04c0.59,0.35,0.95,0.98,0.95,1.67v10.08c0,0.68-0.36,1.32-0.95,1.67
					l-8.6,5.03c-0.59,0.34-1.31,0.34-1.9,0l-8.6-5.03c-0.59-0.35-0.95-0.98-0.95-1.67v-10.08c0-0.68,0.36-1.32,0.95-1.67l8.6-5.04
					C147.31,253.4,148.04,253.4,148.62,253.75z"/>
			</g>
			<g id="Group_137" transform="translate(38.301 14.473)">
				<path id="Path_273" class="st42" d="M148.78,265.65l-5.24,2.75c-0.23,0.12-0.5,0.12-0.73,0l-5.24-2.75
					c-0.35-0.17-0.48-0.59-0.31-0.94c0.07-0.13,0.18-0.24,0.31-0.31l5.24-2.75c0.23-0.12,0.5-0.12,0.73,0l5.24,2.75
					c0.35,0.17,0.49,0.58,0.32,0.93C149.04,265.47,148.92,265.58,148.78,265.65z"/>
				<path id="Path_274" class="st43" d="M148.78,262.97l-5.24,2.75c-0.23,0.12-0.5,0.12-0.73,0l-5.24-2.75
					c-0.35-0.17-0.48-0.59-0.31-0.94c0.07-0.13,0.18-0.24,0.31-0.31l5.24-2.75c0.23-0.12,0.5-0.12,0.73,0l5.24,2.75
					c0.35,0.17,0.49,0.58,0.32,0.93C149.04,262.78,148.92,262.9,148.78,262.97z"/>
				<path id="Path_275" class="st44" d="M148.78,260.27l-5.24,2.75c-0.23,0.12-0.5,0.12-0.73,0l-5.24-2.75
					c-0.35-0.17-0.48-0.59-0.31-0.94c0.07-0.13,0.18-0.24,0.31-0.31l5.24-2.75c0.23-0.12,0.5-0.12,0.73,0l5.24,2.75
					c0.35,0.17,0.49,0.58,0.32,0.93C149.04,260.09,148.92,260.21,148.78,260.27z"/>
				<path id="Path_276" class="st45" d="M148.78,257.58l-5.24,2.75c-0.23,0.12-0.5,0.12-0.73,0l-5.24-2.75
					c-0.35-0.17-0.48-0.59-0.31-0.94c0.07-0.13,0.18-0.24,0.31-0.31l5.24-2.75c0.23-0.12,0.5-0.12,0.73,0l5.24,2.75
					c0.35,0.17,0.49,0.58,0.32,0.93C149.04,257.4,148.92,257.51,148.78,257.58z"/>
			</g>
		</g>
		<text transform="matrix(1 0 0 1 889.1759 368.4882)" class="st2 st25 st26">Simple CRM</text>
		<text transform="matrix(1 0 0 1 890.1759 779.4882)" class="st2 st25 st32">Log in to Simple</text>
		<g id="Rectangle_223" transform="translate(802 556)">
			<rect x="137.18" y="253.49" class="st13" width="129" height="34"/>
			<rect x="137.68" y="253.99" class="st46" width="128" height="33"/>
		</g>
		<text transform="matrix(1 0 0 1 1029.1759 832.4882)" class="st29 st25 st32">Examp</text>
		<g id="Component_31_1" transform="translate(1434 222)">
			<path id="Path_270" class="st31" d="M141.33,253.49h16.62c2.29,0,4.15,1.86,4.15,4.15l0,0v16.62c0,2.29-1.86,4.16-4.15,4.16
				c0,0,0,0,0,0h-16.62c-2.29,0-4.15-1.86-4.15-4.16c0,0,0,0,0,0v-16.62C137.18,255.35,139.04,253.49,141.33,253.49
				C141.33,253.49,141.33,253.49,141.33,253.49z"/>
		</g>
		<text transform="matrix(1 0 0 1 1564.1759 422.4882)" class="st29 st33 st34">LAYOUT</text>
		<text transform="matrix(1 0 0 1 1626.3459 422.4882)" class="st29 st9 st34">ACTION</text>
		<text transform="matrix(1 0 0 1 1688.1759 422.4882)" class="st29 st9 st34">CODE</text>
		<text transform="matrix(1 0 0 1 1504.1758 422.4882)" class="st29 st9 st34">DESIGN</text>
		<line id="Line_1" class="st24" x1="1487.89" y1="440.57" x2="1737.18" y2="440.57"/>
		<text transform="matrix(1 0 0 1 1504.1758 564.4882)" class="st29 st9 st36">X</text>
		<text transform="matrix(1 0 0 1 1504.1758 594.4882)" class="st29 st9 st36">H</text>
		<g id="Group_2" transform="translate(1367.333 227.798)" class="st38">
			<line id="Line_47" class="st47" x1="137.18" y1="253.49" x2="137.18" y2="266.78"/>
			<line id="Line_48" class="st48" x1="138.84" y1="257.64" x2="145.49" y2="257.64"/>
			<line id="Line_49" class="st48" x1="138.84" y1="262.63" x2="143.82" y2="262.63"/>
		</g>
		<text transform="matrix(1 0 0 1 1624.1759 564.4882)" class="st29 st9 st36">Y</text>
		<text transform="matrix(1 0 0 1 1624.1759 594.4882)" class="st29 st9 st36">W</text>
		<text transform="matrix(1 0 0 1 1504.1758 466.4882)" class="st29 st25 st36">ALIGNMENT</text>
		<text transform="matrix(1 0 0 1 1504.1758 536.4882)" class="st29 st25 st36">SIZING</text>
		<line id="Line_2" class="st24" x1="1487.89" y1="511.2" x2="1737.18" y2="511.2"/>
		<line id="Line_3" class="st24" x1="1487.89" y1="610.91" x2="1737.18" y2="610.91"/>
		<line id="Line_4" class="st24" x1="1519.18" y1="566.49" x2="1593.18" y2="566.49"/>
		<line id="Line_5" class="st24" x1="1519.18" y1="596.49" x2="1593.18" y2="596.49"/>
		<line id="Line_6" class="st24" x1="1487.89" y1="748.02" x2="1737.18" y2="748.02"/>
		<g id="Group_3-2" transform="translate(1480.343 230.291)" class="st38">
			<line id="Line_56" class="st47" x1="150.47" y1="253.49" x2="137.18" y2="253.49"/>
			<line id="Line_62" class="st48" x1="146.32" y1="255.15" x2="146.32" y2="261.8"/>
			<line id="Line_59" class="st48" x1="141.33" y1="255.15" x2="141.33" y2="260.14"/>
		</g>
		<g id="Group_4" transform="translate(1442.119 227.798)">
			<line id="Line_51" class="st49" x1="145.49" y1="253.49" x2="145.49" y2="266.78"/>
			<line id="Line_52" class="st50" x1="137.18" y1="257.64" x2="143.82" y2="257.64"/>
			<line id="Line_50" class="st50" x1="138.84" y1="262.63" x2="143.82" y2="262.63"/>
		</g>
		<g id="Group_5" transform="translate(1566.762 230.291)" class="st38">
			<line id="Line_57" class="st47" x1="150.47" y1="261.8" x2="137.18" y2="261.8"/>
			<line id="Line_63" class="st48" x1="146.32" y1="253.49" x2="146.32" y2="260.14"/>
			<line id="Line_60" class="st48" x1="141.33" y1="255.15" x2="141.33" y2="260.14"/>
		</g>
		<g id="Group_6" transform="translate(1405.557 227.798)" class="st38">
			<line id="Line_55" class="st47" x1="140.5" y1="253.49" x2="140.5" y2="266.78"/>
			<line id="Line_53" class="st48" x1="137.18" y1="257.64" x2="143.82" y2="257.64"/>
			<line id="Line_54" class="st48" x1="138.01" y1="262.63" x2="142.99" y2="262.63"/>
		</g>
		<g id="Group_7" transform="translate(1523.552 231.122)" class="st38">
			<line id="Line_58" class="st47" x1="137.18" y1="256.81" x2="150.47" y2="256.81"/>
			<line id="Line_64" class="st48" x1="141.33" y1="260.14" x2="141.33" y2="253.49"/>
			<line id="Line_61" class="st48" x1="146.32" y1="259.31" x2="146.32" y2="254.32"/>
		</g>
		<text transform="matrix(1 0 0 1 1505.1758 636.4882)" class="st29 st25 st36">SPACING</text>
		<text transform="matrix(1 0 0 1 1505.1758 672.4882)" class="st29 st9 st36">Margin:</text>
		<text transform="matrix(1 0 0 1 1505.1758 717.4882)" class="st29 st9 st36">Padding:</text>
		<g id="Component_4_1" transform="translate(1433 398)">
			<g id="Rectangle_60">
				<path class="st13" d="M139.18,253.49h29c1.1,0,2,0.9,2,2v29c0,1.1-0.9,2-2,2h-29c-1.1,0-2-0.9-2-2v-29
					C137.18,254.38,138.07,253.49,139.18,253.49z"/>
				<path class="st51" d="M139.18,253.99h29c0.83,0,1.5,0.67,1.5,1.5v29c0,0.83-0.67,1.5-1.5,1.5h-29c-0.83,0-1.5-0.67-1.5-1.5v-29
					C137.68,254.66,138.35,253.99,139.18,253.99z"/>
			</g>
		</g>
		<g id="Component_4_2" transform="translate(1433 445)">
			<g id="Rectangle_60-2">
				<path class="st13" d="M139.18,253.49h29c1.1,0,2,0.9,2,2v29c0,1.1-0.9,2-2,2h-29c-1.1,0-2-0.9-2-2v-29
					C137.18,254.38,138.07,253.49,139.18,253.49z"/>
				<path class="st51" d="M139.18,253.99h29c0.83,0,1.5,0.67,1.5,1.5v29c0,0.83-0.67,1.5-1.5,1.5h-29c-0.83,0-1.5-0.67-1.5-1.5v-29
					C137.68,254.66,138.35,253.99,139.18,253.99z"/>
			</g>
		</g>
		<g id="Component_4_3" transform="translate(1470 398)">
			<g id="Rectangle_60-3">
				<path class="st13" d="M139.18,253.49h29c1.1,0,2,0.9,2,2v29c0,1.1-0.9,2-2,2h-29c-1.1,0-2-0.9-2-2v-29
					C137.18,254.38,138.07,253.49,139.18,253.49z"/>
				<path class="st51" d="M139.18,253.99h29c0.83,0,1.5,0.67,1.5,1.5v29c0,0.83-0.67,1.5-1.5,1.5h-29c-0.83,0-1.5-0.67-1.5-1.5v-29
					C137.68,254.66,138.35,253.99,139.18,253.99z"/>
			</g>
		</g>
		<g id="Component_4_4" transform="translate(1470 445)">
			<g id="Rectangle_60-4">
				<path class="st13" d="M139.18,253.49h29c1.1,0,2,0.9,2,2v29c0,1.1-0.9,2-2,2h-29c-1.1,0-2-0.9-2-2v-29
					C137.18,254.38,138.07,253.49,139.18,253.49z"/>
				<path class="st51" d="M139.18,253.99h29c0.83,0,1.5,0.67,1.5,1.5v29c0,0.83-0.67,1.5-1.5,1.5h-29c-0.83,0-1.5-0.67-1.5-1.5v-29
					C137.68,254.66,138.35,253.99,139.18,253.99z"/>
			</g>
		</g>
		<g id="Component_4_5" transform="translate(1505 398)">
			<g id="Rectangle_60-5">
				<path class="st13" d="M139.18,253.49h29c1.1,0,2,0.9,2,2v29c0,1.1-0.9,2-2,2h-29c-1.1,0-2-0.9-2-2v-29
					C137.18,254.38,138.07,253.49,139.18,253.49z"/>
				<path class="st51" d="M139.18,253.99h29c0.83,0,1.5,0.67,1.5,1.5v29c0,0.83-0.67,1.5-1.5,1.5h-29c-0.83,0-1.5-0.67-1.5-1.5v-29
					C137.68,254.66,138.35,253.99,139.18,253.99z"/>
			</g>
		</g>
		<g id="Component_4_6" transform="translate(1505 445)">
			<g id="Rectangle_60-6">
				<path class="st13" d="M139.18,253.49h29c1.1,0,2,0.9,2,2v29c0,1.1-0.9,2-2,2h-29c-1.1,0-2-0.9-2-2v-29
					C137.18,254.38,138.07,253.49,139.18,253.49z"/>
				<path class="st51" d="M139.18,253.99h29c0.83,0,1.5,0.67,1.5,1.5v29c0,0.83-0.67,1.5-1.5,1.5h-29c-0.83,0-1.5-0.67-1.5-1.5v-29
					C137.68,254.66,138.35,253.99,139.18,253.99z"/>
			</g>
		</g>
		<g id="Component_4_7" transform="translate(1541 398)">
			<g id="Rectangle_60-7">
				<path class="st13" d="M139.18,253.49h29c1.1,0,2,0.9,2,2v29c0,1.1-0.9,2-2,2h-29c-1.1,0-2-0.9-2-2v-29
					C137.18,254.38,138.07,253.49,139.18,253.49z"/>
				<path class="st51" d="M139.18,253.99h29c0.83,0,1.5,0.67,1.5,1.5v29c0,0.83-0.67,1.5-1.5,1.5h-29c-0.83,0-1.5-0.67-1.5-1.5v-29
					C137.68,254.66,138.35,253.99,139.18,253.99z"/>
			</g>
		</g>
		<g id="Component_4_8" transform="translate(1541 445)">
			<g id="Rectangle_60-8">
				<path class="st13" d="M139.18,253.49h29c1.1,0,2,0.9,2,2v29c0,1.1-0.9,2-2,2h-29c-1.1,0-2-0.9-2-2v-29
					C137.18,254.38,138.07,253.49,139.18,253.49z"/>
				<path class="st51" d="M139.18,253.99h29c0.83,0,1.5,0.67,1.5,1.5v29c0,0.83-0.67,1.5-1.5,1.5h-29c-0.83,0-1.5-0.67-1.5-1.5v-29
					C137.68,254.66,138.35,253.99,139.18,253.99z"/>
			</g>
		</g>
		<text transform="matrix(1 0 0 1 1578.1759 899.4882)" class="st29 st25 st52">START</text>
		<text transform="matrix(1 0 0 1 1578.1759 853.4882)" class="st29 st25 st52">START</text>
		<text transform="matrix(1 0 0 1 1658.1759 899.4882)" class="st29 st25 st52">END</text>
		<text transform="matrix(1 0 0 1 1658.1759 853.4882)" class="st29 st25 st52">END</text>
		<text transform="matrix(1 0 0 1 1504.1758 900.4882)" class="st29 st9 st36">Row:</text>
		<g id="Component_4_9" transform="translate(1433 627)">
			<g id="Rectangle_60-9">
				<path class="st13" d="M139.18,253.49h58c1.1,0,2,0.9,2,2v29c0,1.1-0.9,2-2,2h-58c-1.1,0-2-0.9-2-2v-29
					C137.18,254.38,138.07,253.49,139.18,253.49z"/>
				<path class="st51" d="M139.18,253.99h58c0.83,0,1.5,0.67,1.5,1.5v29c0,0.83-0.67,1.5-1.5,1.5h-58c-0.83,0-1.5-0.67-1.5-1.5v-29
					C137.68,254.66,138.35,253.99,139.18,253.99z"/>
			</g>
		</g>
		<g id="Component_4_10" transform="translate(1512 627)">
			<g id="Rectangle_60-10">
				<path class="st13" d="M139.18,253.49h58c1.1,0,2,0.9,2,2v29c0,1.1-0.9,2-2,2h-58c-1.1,0-2-0.9-2-2v-29
					C137.18,254.38,138.07,253.49,139.18,253.49z"/>
				<path class="st51" d="M139.18,253.99h58c0.83,0,1.5,0.67,1.5,1.5v29c0,0.83-0.67,1.5-1.5,1.5h-58c-0.83,0-1.5-0.67-1.5-1.5v-29
					C137.68,254.66,138.35,253.99,139.18,253.99z"/>
			</g>
		</g>
		<text transform="matrix(1 0 0 1 1504.1758 855.4882)" class="st29 st9 st36">Column:</text>
		<g id="Component_4_11" transform="translate(1433 581)">
			<g id="Rectangle_60-11">
				<path class="st13" d="M139.18,253.49h58c1.1,0,2,0.9,2,2v29c0,1.1-0.9,2-2,2h-58c-1.1,0-2-0.9-2-2v-29
					C137.18,254.38,138.07,253.49,139.18,253.49z"/>
				<path class="st51" d="M139.18,253.99h58c0.83,0,1.5,0.67,1.5,1.5v29c0,0.83-0.67,1.5-1.5,1.5h-58c-0.83,0-1.5-0.67-1.5-1.5v-29
					C137.68,254.66,138.35,253.99,139.18,253.99z"/>
			</g>
		</g>
		<g id="Component_4_12" transform="translate(1512 581)">
			<g id="Rectangle_60-12">
				<path class="st13" d="M139.18,253.49h58c1.1,0,2,0.9,2,2v29c0,1.1-0.9,2-2,2h-58c-1.1,0-2-0.9-2-2v-29
					C137.18,254.38,138.07,253.49,139.18,253.49z"/>
				<path class="st51" d="M139.18,253.99h58c0.83,0,1.5,0.67,1.5,1.5v29c0,0.83-0.67,1.5-1.5,1.5h-58c-0.83,0-1.5-0.67-1.5-1.5v-29
					C137.68,254.66,138.35,253.99,139.18,253.99z"/>
			</g>
		</g>
		<text transform="matrix(1 0 0 1 1504.1758 773.4882)" class="st29 st25 st36">POSITIONING</text>
		<text transform="matrix(1 0 0 1 1504.1758 809.4882)" class="st29 st9 st36">Grid Area:</text>
		<g id="arrow-left-line" transform="translate(1553.317 410.874)" class="st53">
			<path id="Path_266" class="st13" d="M137.18,253.49h9.97v9.44h-9.97V253.49z"/>
			<path id="Path_267" class="st37" d="M140.38,257.81h5.19v0.79h-5.19l2.29,2.11l-0.6,0.56l-3.32-3.06l3.32-3.06l0.6,0.56
				L140.38,257.81z"/>
		</g>
		<g id="arrow-left-line-2" transform="translate(1553.317 457.408)" class="st53">
			<path id="Path_266-2" class="st13" d="M137.18,253.49h9.97v9.44h-9.97V253.49z"/>
			<path id="Path_267-2" class="st37" d="M140.38,257.81h5.19v0.79h-5.19l2.29,2.11l-0.6,0.56l-3.32-3.06l3.32-3.06l0.6,0.56
				L140.38,257.81z"/>
		</g>
		<g id="arrow-left-line-3" transform="translate(1517.023 420.579) rotate(-90)" class="st53">
			<path id="Path_266-3" class="st13" d="M-253.49,137.18h9.97v9.44h-9.97V137.18z"/>
			<path id="Path_267-3" class="st37" d="M-250.28,141.5h5.19v0.79h-5.19l2.29,2.11l-0.6,0.56l-3.32-3.06l3.32-3.06l0.6,0.56
				L-250.28,141.5z"/>
		</g>
		<g id="arrow-left-line-4" transform="translate(1517.023 467.112) rotate(-90)" class="st53">
			<path id="Path_266-4" class="st13" d="M-253.49,137.18h9.97v9.44h-9.97V137.18z"/>
			<path id="Path_267-4" class="st37" d="M-250.28,141.5h5.19v0.79h-5.19l2.29,2.11l-0.6,0.56l-3.32-3.06l3.32-3.06l0.6,0.56
				L-250.28,141.5z"/>
		</g>
		<g id="arrow-left-line-5" transform="translate(1491.828 420.312) rotate(180)" class="st53">
			<path id="Path_266-5" class="st13" d="M-137.18-253.49h9.97v9.44h-9.97V-253.49z"/>
			<path id="Path_267-5" class="st37" d="M-133.97-249.16h5.19v0.79h-5.19l2.29,2.11l-0.6,0.56l-3.32-3.06l3.32-3.06l0.6,0.56
				L-133.97-249.16z"/>
		</g>
		<g id="arrow-left-line-6" transform="translate(1491.828 466.845) rotate(180)" class="st53">
			<path id="Path_266-6" class="st13" d="M-137.18-253.49h9.97v9.44h-9.97V-253.49z"/>
			<path id="Path_267-6" class="st37" d="M-133.97-249.16h5.19v0.79h-5.19l2.29,2.11l-0.6,0.56l-3.32-3.06l3.32-3.06l0.6,0.56
				L-133.97-249.16z"/>
		</g>
		<g id="arrow-left-line-7" transform="translate(1454.999 410.607) rotate(90)" class="st53">
			<path id="Path_266-7" class="st13" d="M253.49-137.18h9.97v9.44h-9.97V-137.18z"/>
			<path id="Path_267-7" class="st37" d="M256.69-132.85h5.19v0.79h-5.19l2.29,2.11l-0.6,0.56l-3.32-3.06l3.32-3.06l0.6,0.56
				L256.69-132.85z"/>
		</g>
		<g id="arrow-left-line-8" transform="translate(1454.999 457.141) rotate(90)" class="st53">
			<path id="Path_266-8" class="st13" d="M253.49-137.18h9.97v9.44h-9.97V-137.18z"/>
			<path id="Path_267-8" class="st37" d="M256.69-132.85h5.19v0.79h-5.19l2.29,2.11l-0.6,0.56l-3.32-3.06l3.32-3.06l0.6,0.56
				L256.69-132.85z"/>
		</g>
		<g id="Component_4_13" transform="translate(1433 398)">
			<g id="Rectangle_60-13">
				<path class="st13" d="M139.18,253.49h29c1.1,0,2,0.9,2,2v29c0,1.1-0.9,2-2,2h-29c-1.1,0-2-0.9-2-2v-29
					C137.18,254.38,138.07,253.49,139.18,253.49z"/>
				<path class="st51" d="M139.18,253.99h29c0.83,0,1.5,0.67,1.5,1.5v29c0,0.83-0.67,1.5-1.5,1.5h-29c-0.83,0-1.5-0.67-1.5-1.5v-29
					C137.68,254.66,138.35,253.99,139.18,253.99z"/>
			</g>
		</g>
		<g id="Component_4_14" transform="translate(1433 445)">
			<g id="Rectangle_60-14">
				<path class="st13" d="M139.18,253.49h29c1.1,0,2,0.9,2,2v29c0,1.1-0.9,2-2,2h-29c-1.1,0-2-0.9-2-2v-29
					C137.18,254.38,138.07,253.49,139.18,253.49z"/>
				<path class="st51" d="M139.18,253.99h29c0.83,0,1.5,0.67,1.5,1.5v29c0,0.83-0.67,1.5-1.5,1.5h-29c-0.83,0-1.5-0.67-1.5-1.5v-29
					C137.68,254.66,138.35,253.99,139.18,253.99z"/>
			</g>
		</g>
		<g id="Component_4_15" transform="translate(1470 398)">
			<g id="Rectangle_60-15">
				<path class="st13" d="M139.18,253.49h29c1.1,0,2,0.9,2,2v29c0,1.1-0.9,2-2,2h-29c-1.1,0-2-0.9-2-2v-29
					C137.18,254.38,138.07,253.49,139.18,253.49z"/>
				<path class="st51" d="M139.18,253.99h29c0.83,0,1.5,0.67,1.5,1.5v29c0,0.83-0.67,1.5-1.5,1.5h-29c-0.83,0-1.5-0.67-1.5-1.5v-29
					C137.68,254.66,138.35,253.99,139.18,253.99z"/>
			</g>
		</g>
		<g id="Component_4_16" transform="translate(1470 445)">
			<g id="Rectangle_60-16">
				<path class="st13" d="M139.18,253.49h29c1.1,0,2,0.9,2,2v29c0,1.1-0.9,2-2,2h-29c-1.1,0-2-0.9-2-2v-29
					C137.18,254.38,138.07,253.49,139.18,253.49z"/>
				<path class="st51" d="M139.18,253.99h29c0.83,0,1.5,0.67,1.5,1.5v29c0,0.83-0.67,1.5-1.5,1.5h-29c-0.83,0-1.5-0.67-1.5-1.5v-29
					C137.68,254.66,138.35,253.99,139.18,253.99z"/>
			</g>
		</g>
		<g id="Component_4_17" transform="translate(1505 398)">
			<g id="Rectangle_60-17">
				<path class="st13" d="M139.18,253.49h29c1.1,0,2,0.9,2,2v29c0,1.1-0.9,2-2,2h-29c-1.1,0-2-0.9-2-2v-29
					C137.18,254.38,138.07,253.49,139.18,253.49z"/>
				<path class="st51" d="M139.18,253.99h29c0.83,0,1.5,0.67,1.5,1.5v29c0,0.83-0.67,1.5-1.5,1.5h-29c-0.83,0-1.5-0.67-1.5-1.5v-29
					C137.68,254.66,138.35,253.99,139.18,253.99z"/>
			</g>
		</g>
		<g id="Component_4_18" transform="translate(1505 445)">
			<g id="Rectangle_60-18">
				<path class="st13" d="M139.18,253.49h29c1.1,0,2,0.9,2,2v29c0,1.1-0.9,2-2,2h-29c-1.1,0-2-0.9-2-2v-29
					C137.18,254.38,138.07,253.49,139.18,253.49z"/>
				<path class="st51" d="M139.18,253.99h29c0.83,0,1.5,0.67,1.5,1.5v29c0,0.83-0.67,1.5-1.5,1.5h-29c-0.83,0-1.5-0.67-1.5-1.5v-29
					C137.68,254.66,138.35,253.99,139.18,253.99z"/>
			</g>
		</g>
		<g id="Component_4_19" transform="translate(1541 398)">
			<g id="Rectangle_60-19">
				<path class="st13" d="M139.18,253.49h29c1.1,0,2,0.9,2,2v29c0,1.1-0.9,2-2,2h-29c-1.1,0-2-0.9-2-2v-29
					C137.18,254.38,138.07,253.49,139.18,253.49z"/>
				<path class="st51" d="M139.18,253.99h29c0.83,0,1.5,0.67,1.5,1.5v29c0,0.83-0.67,1.5-1.5,1.5h-29c-0.83,0-1.5-0.67-1.5-1.5v-29
					C137.68,254.66,138.35,253.99,139.18,253.99z"/>
			</g>
		</g>
		<g id="Component_4_20" transform="translate(1541 445)">
			<g id="Rectangle_60-20">
				<path class="st13" d="M139.18,253.49h29c1.1,0,2,0.9,2,2v29c0,1.1-0.9,2-2,2h-29c-1.1,0-2-0.9-2-2v-29
					C137.18,254.38,138.07,253.49,139.18,253.49z"/>
				<path class="st51" d="M139.18,253.99h29c0.83,0,1.5,0.67,1.5,1.5v29c0,0.83-0.67,1.5-1.5,1.5h-29c-0.83,0-1.5-0.67-1.5-1.5v-29
					C137.68,254.66,138.35,253.99,139.18,253.99z"/>
			</g>
		</g>
		<g id="arrow-left-line-9" transform="translate(1553.317 410.874)" class="st53">
			<path id="Path_266-9" class="st13" d="M137.18,253.49h9.97v9.44h-9.97V253.49z"/>
			<path id="Path_267-9" class="st37" d="M140.38,257.81h5.19v0.79h-5.19l2.29,2.11l-0.6,0.56l-3.32-3.06l3.32-3.06l0.6,0.56
				L140.38,257.81z"/>
		</g>
		<g id="arrow-left-line-10" transform="translate(1553.317 457.408)" class="st53">
			<path id="Path_266-10" class="st13" d="M137.18,253.49h9.97v9.44h-9.97V253.49z"/>
			<path id="Path_267-10" class="st37" d="M140.38,257.81h5.19v0.79h-5.19l2.29,2.11l-0.6,0.56l-3.32-3.06l3.32-3.06l0.6,0.56
				L140.38,257.81z"/>
		</g>
		<g id="arrow-left-line-11" transform="translate(1517.023 420.579) rotate(-90)" class="st53">
			<path id="Path_266-11" class="st13" d="M-253.49,137.18h9.97v9.44h-9.97V137.18z"/>
			<path id="Path_267-11" class="st37" d="M-250.28,141.5h5.19v0.79h-5.19l2.29,2.11l-0.6,0.56l-3.32-3.06l3.32-3.06l0.6,0.56
				L-250.28,141.5z"/>
		</g>
		<g id="arrow-left-line-12" transform="translate(1517.023 467.112) rotate(-90)" class="st53">
			<path id="Path_266-12" class="st13" d="M-253.49,137.18h9.97v9.44h-9.97V137.18z"/>
			<path id="Path_267-12" class="st37" d="M-250.28,141.5h5.19v0.79h-5.19l2.29,2.11l-0.6,0.56l-3.32-3.06l3.32-3.06l0.6,0.56
				L-250.28,141.5z"/>
		</g>
		<g id="arrow-left-line-13" transform="translate(1491.828 420.312) rotate(180)" class="st53">
			<path id="Path_266-13" class="st13" d="M-137.18-253.49h9.97v9.44h-9.97V-253.49z"/>
			<path id="Path_267-13" class="st37" d="M-133.97-249.16h5.19v0.79h-5.19l2.29,2.11l-0.6,0.56l-3.32-3.06l3.32-3.06l0.6,0.56
				L-133.97-249.16z"/>
		</g>
		<g id="arrow-left-line-14" transform="translate(1491.828 466.845) rotate(180)" class="st53">
			<path id="Path_266-14" class="st13" d="M-137.18-253.49h9.97v9.44h-9.97V-253.49z"/>
			<path id="Path_267-14" class="st37" d="M-133.97-249.16h5.19v0.79h-5.19l2.29,2.11l-0.6,0.56l-3.32-3.06l3.32-3.06l0.6,0.56
				L-133.97-249.16z"/>
		</g>
		<g id="arrow-left-line-15" transform="translate(1454.999 410.607) rotate(90)" class="st53">
			<path id="Path_266-15" class="st13" d="M253.49-137.18h9.97v9.44h-9.97V-137.18z"/>
			<path id="Path_267-15" class="st37" d="M256.69-132.85h5.19v0.79h-5.19l2.29,2.11l-0.6,0.56l-3.32-3.06l3.32-3.06l0.6,0.56
				L256.69-132.85z"/>
		</g>
		<g id="arrow-left-line-16" transform="translate(1454.999 457.141) rotate(90)" class="st53">
			<path id="Path_266-16" class="st13" d="M253.49-137.18h9.97v9.44h-9.97V-137.18z"/>
			<path id="Path_267-16" class="st37" d="M256.69-132.85h5.19v0.79h-5.19l2.29,2.11l-0.6,0.56l-3.32-3.06l3.32-3.06l0.6,0.56
				L256.69-132.85z"/>
		</g>
		<g id="Component_4_21" transform="translate(1433 536)">
			<g id="Rectangle_60-21">
				<path class="st13" d="M139.18,253.49h29c1.1,0,2,0.9,2,2v29c0,1.1-0.9,2-2,2h-29c-1.1,0-2-0.9-2-2v-29
					C137.18,254.38,138.07,253.49,139.18,253.49z"/>
				<path class="st51" d="M139.18,253.99h29c0.83,0,1.5,0.67,1.5,1.5v29c0,0.83-0.67,1.5-1.5,1.5h-29c-0.83,0-1.5-0.67-1.5-1.5v-29
					C137.68,254.66,138.35,253.99,139.18,253.99z"/>
			</g>
		</g>
		<g id="Component_4_22" transform="translate(1470 536)">
			<g id="Rectangle_60-22">
				<path class="st13" d="M139.18,253.49h29c1.1,0,2,0.9,2,2v29c0,1.1-0.9,2-2,2h-29c-1.1,0-2-0.9-2-2v-29
					C137.18,254.38,138.07,253.49,139.18,253.49z"/>
				<path class="st51" d="M139.18,253.99h29c0.83,0,1.5,0.67,1.5,1.5v29c0,0.83-0.67,1.5-1.5,1.5h-29c-0.83,0-1.5-0.67-1.5-1.5v-29
					C137.68,254.66,138.35,253.99,139.18,253.99z"/>
			</g>
		</g>
		<g id="Component_4_23" transform="translate(1505 536)">
			<g id="Rectangle_60-23">
				<path class="st13" d="M139.18,253.49h29c1.1,0,2,0.9,2,2v29c0,1.1-0.9,2-2,2h-29c-1.1,0-2-0.9-2-2v-29
					C137.18,254.38,138.07,253.49,139.18,253.49z"/>
				<path class="st51" d="M139.18,253.99h29c0.83,0,1.5,0.67,1.5,1.5v29c0,0.83-0.67,1.5-1.5,1.5h-29c-0.83,0-1.5-0.67-1.5-1.5v-29
					C137.68,254.66,138.35,253.99,139.18,253.99z"/>
			</g>
		</g>
		<g id="Component_4_24" transform="translate(1541 536)">
			<g id="Rectangle_60-24">
				<path class="st13" d="M139.18,253.49h29c1.1,0,2,0.9,2,2v29c0,1.1-0.9,2-2,2h-29c-1.1,0-2-0.9-2-2v-29
					C137.18,254.38,138.07,253.49,139.18,253.49z"/>
				<path class="st51" d="M139.18,253.99h29c0.83,0,1.5,0.67,1.5,1.5v29c0,0.83-0.67,1.5-1.5,1.5h-29c-0.83,0-1.5-0.67-1.5-1.5v-29
					C137.68,254.66,138.35,253.99,139.18,253.99z"/>
			</g>
		</g>
		<g id="arrow-left-line-17" transform="translate(1553.317 548.813)" class="st53">
			<path id="Path_266-17" class="st13" d="M137.18,253.49h9.97v9.44h-9.97V253.49z"/>
			<path id="Path_267-17" class="st37" d="M140.38,257.81h5.19v0.79h-5.19l2.29,2.11l-0.6,0.56l-3.32-3.06l3.32-3.06l0.6,0.56
				L140.38,257.81z"/>
		</g>
		<g id="arrow-left-line-18" transform="translate(1517.023 558.517) rotate(-90)" class="st53">
			<path id="Path_266-18" class="st13" d="M-253.49,137.18h9.97v9.44h-9.97V137.18z"/>
			<path id="Path_267-18" class="st37" d="M-250.28,141.5h5.19v0.79h-5.19l2.29,2.11l-0.6,0.56l-3.32-3.06l3.32-3.06l0.6,0.56
				L-250.28,141.5z"/>
		</g>
		<g id="arrow-left-line-19" transform="translate(1491.828 558.25) rotate(180)" class="st53">
			<path id="Path_266-19" class="st13" d="M-137.18-253.49h9.97v9.44h-9.97V-253.49z"/>
			<path id="Path_267-19" class="st37" d="M-133.97-249.16h5.19v0.79h-5.19l2.29,2.11l-0.6,0.56l-3.32-3.06l3.32-3.06l0.6,0.56
				L-133.97-249.16z"/>
		</g>
		<g id="arrow-left-line-20" transform="translate(1454.999 548.546) rotate(90)" class="st53">
			<path id="Path_266-20" class="st13" d="M253.49-137.18h9.97v9.44h-9.97V-137.18z"/>
			<path id="Path_267-20" class="st37" d="M256.69-132.85h5.19v0.79h-5.19l2.29,2.11l-0.6,0.56l-3.32-3.06l3.32-3.06l0.6,0.56
				L256.69-132.85z"/>
		</g>
		<g id="Component_4_25" transform="translate(1433 536)">
			<g id="Rectangle_60-25">
				<path class="st13" d="M139.18,253.49h29c1.1,0,2,0.9,2,2v29c0,1.1-0.9,2-2,2h-29c-1.1,0-2-0.9-2-2v-29
					C137.18,254.38,138.07,253.49,139.18,253.49z"/>
				<path class="st51" d="M139.18,253.99h29c0.83,0,1.5,0.67,1.5,1.5v29c0,0.83-0.67,1.5-1.5,1.5h-29c-0.83,0-1.5-0.67-1.5-1.5v-29
					C137.68,254.66,138.35,253.99,139.18,253.99z"/>
			</g>
		</g>
		<g id="Component_4_26" transform="translate(1470 536)">
			<g id="Rectangle_60-26">
				<path class="st13" d="M139.18,253.49h29c1.1,0,2,0.9,2,2v29c0,1.1-0.9,2-2,2h-29c-1.1,0-2-0.9-2-2v-29
					C137.18,254.38,138.07,253.49,139.18,253.49z"/>
				<path class="st51" d="M139.18,253.99h29c0.83,0,1.5,0.67,1.5,1.5v29c0,0.83-0.67,1.5-1.5,1.5h-29c-0.83,0-1.5-0.67-1.5-1.5v-29
					C137.68,254.66,138.35,253.99,139.18,253.99z"/>
			</g>
		</g>
		<g id="Component_4_27" transform="translate(1505 536)">
			<g id="Rectangle_60-27">
				<path class="st13" d="M139.18,253.49h29c1.1,0,2,0.9,2,2v29c0,1.1-0.9,2-2,2h-29c-1.1,0-2-0.9-2-2v-29
					C137.18,254.38,138.07,253.49,139.18,253.49z"/>
				<path class="st51" d="M139.18,253.99h29c0.83,0,1.5,0.67,1.5,1.5v29c0,0.83-0.67,1.5-1.5,1.5h-29c-0.83,0-1.5-0.67-1.5-1.5v-29
					C137.68,254.66,138.35,253.99,139.18,253.99z"/>
			</g>
		</g>
		<g id="Component_4_28" transform="translate(1541 536)">
			<g id="Rectangle_60-28">
				<path class="st13" d="M139.18,253.49h29c1.1,0,2,0.9,2,2v29c0,1.1-0.9,2-2,2h-29c-1.1,0-2-0.9-2-2v-29
					C137.18,254.38,138.07,253.49,139.18,253.49z"/>
				<path class="st51" d="M139.18,253.99h29c0.83,0,1.5,0.67,1.5,1.5v29c0,0.83-0.67,1.5-1.5,1.5h-29c-0.83,0-1.5-0.67-1.5-1.5v-29
					C137.68,254.66,138.35,253.99,139.18,253.99z"/>
			</g>
		</g>
		<g id="arrow-left-line-21" transform="translate(1553.317 548.813)" class="st53">
			<path id="Path_266-21" class="st13" d="M137.18,253.49h9.97v9.44h-9.97V253.49z"/>
			<path id="Path_267-21" class="st37" d="M140.38,257.81h5.19v0.79h-5.19l2.29,2.11l-0.6,0.56l-3.32-3.06l3.32-3.06l0.6,0.56
				L140.38,257.81z"/>
		</g>
		<g id="arrow-left-line-22" transform="translate(1517.023 558.517) rotate(-90)" class="st53">
			<path id="Path_266-22" class="st13" d="M-253.49,137.18h9.97v9.44h-9.97V137.18z"/>
			<path id="Path_267-22" class="st37" d="M-250.28,141.5h5.19v0.79h-5.19l2.29,2.11l-0.6,0.56l-3.32-3.06l3.32-3.06l0.6,0.56
				L-250.28,141.5z"/>
		</g>
		<g id="arrow-left-line-23" transform="translate(1491.828 558.25) rotate(180)" class="st53">
			<path id="Path_266-23" class="st13" d="M-137.18-253.49h9.97v9.44h-9.97V-253.49z"/>
			<path id="Path_267-23" class="st37" d="M-133.97-249.16h5.19v0.79h-5.19l2.29,2.11l-0.6,0.56l-3.32-3.06l3.32-3.06l0.6,0.56
				L-133.97-249.16z"/>
		</g>
		<g id="arrow-left-line-24" transform="translate(1454.999 548.546) rotate(90)" class="st53">
			<path id="Path_266-24" class="st13" d="M253.49-137.18h9.97v9.44h-9.97V-137.18z"/>
			<path id="Path_267-24" class="st37" d="M256.69-132.85h5.19v0.79h-5.19l2.29,2.11l-0.6,0.56l-3.32-3.06l3.32-3.06l0.6,0.56
				L256.69-132.85z"/>
		</g>
		<line id="Line_7" class="st24" x1="1641.18" y1="566.49" x2="1715.18" y2="566.49"/>
		<line id="Line_8" class="st24" x1="1641.18" y1="596.49" x2="1715.18" y2="596.49"/>
		<g id="settings-3-fill" transform="translate(1514 96)" class="st38">
			<path id="Path_100" class="st13" d="M137.18,253.49h24v24h-24V253.49z"/>
			<path id="Path_101" class="st2" d="M147.13,255.7c1.35-0.28,2.74-0.28,4.09,0c0.33,2.18,2.37,3.68,4.56,3.35
				c0.29-0.04,0.58-0.12,0.86-0.23c0.92,1.03,1.61,2.23,2.04,3.54c-1.73,1.38-2.01,3.9-0.63,5.62c0.18,0.23,0.39,0.44,0.63,0.63
				c-0.43,1.31-1.13,2.51-2.05,3.54c-2.06-0.8-4.38,0.21-5.18,2.27c-0.11,0.27-0.18,0.56-0.23,0.85c-1.35,0.28-2.74,0.28-4.09,0
				c-0.33-2.18-2.37-3.69-4.55-3.35c-0.29,0.04-0.58,0.12-0.86,0.23c-0.92-1.03-1.61-2.23-2.04-3.54c1.72-1.38,2-3.9,0.62-5.62
				c-0.18-0.23-0.39-0.44-0.62-0.62c0.43-1.31,1.13-2.51,2.04-3.54c2.06,0.8,4.38-0.21,5.18-2.27
				C147.01,256.28,147.09,255.99,147.13,255.7L147.13,255.7z M149.18,268.49c1.66,0,3-1.34,3-3s-1.34-3-3-3s-3,1.34-3,3
				S147.52,268.49,149.18,268.49z"/>
		</g>
		<g id="play-fill" transform="translate(1563 96)" class="st38">
			<path id="Path_102" class="st13" d="M137.18,253.49h24v24h-24V253.49z"/>
			<path id="Path_103" class="st2" d="M156.55,265.9l-10.6,7.07c-0.23,0.15-0.54,0.09-0.69-0.14c-0.05-0.08-0.08-0.18-0.08-0.28
				v-14.13c0-0.28,0.22-0.5,0.5-0.5c0.1,0,0.19,0.03,0.28,0.08l10.6,7.07c0.23,0.15,0.29,0.46,0.14,0.69
				C156.65,265.82,156.61,265.87,156.55,265.9L156.55,265.9z"/>
		</g>
		<g id="Group_1" transform="translate(1465 96)" class="st38">
			<path id="Path_203" class="st13" d="M137.18,253.49h24v24h-24V253.49z"/>
			<path id="Path_204" class="st2" d="M149.18,275.49c-5.52,0-10-4.48-10-10s4.48-10,10-10s10,4.48,10,10
				S154.7,275.49,149.18,275.49z M148.18,268.49v2h2v-2H148.18z M150.18,266.84c1.85-0.55,2.91-2.5,2.35-4.36
				c-0.55-1.85-2.5-2.91-4.36-2.35c-1.24,0.37-2.18,1.4-2.43,2.67l1.96,0.39c0.16-0.81,0.95-1.34,1.76-1.18
				c0.81,0.16,1.34,0.95,1.18,1.76c-0.14,0.7-0.76,1.21-1.47,1.21c-0.55,0-1,0.45-1,1v1.5h2V266.84z"/>
		</g>
	</g>
</g>
</svg>
