<svg id="Layer_1" data-name="Layer 1" xmlns="http://www.w3.org/2000/svg" viewBox="0 0 154 37.84"><defs><style>.cls-1{fill:#fff;}</style></defs><title>logo-white</title><path class="cls-1" d="M57.12,9.9c.24-.58,0-.8-.55-.48L29.69,25l17.16,9.89Z"/><path class="cls-1" d="M.65,10.73c-.54-.31-.8-.09-.56.49l8.32,21s.74,2,1,2.6c.64,1.43.64,1.43,2.2.85a40.46,40.46,0,0,1,5.23-1.44,20.08,20.08,0,0,1,3.8-.38,29.8,29.8,0,0,1,9.44,2,28.3,28.3,0,0,0,9,1.89,25.07,25.07,0,0,0,6.59-1Z"/><path class="cls-1" d="M26,22.85V6.49c0-.63-.42-.84-.92-.48L12.43,15Z"/><path class="cls-1" d="M28.33,22.85V6.49c0-.63.42-.84.92-.48l12.62,9Z"/><path class="cls-1" d="M79.21.86A.86.86,0,0,1,80.07,0h4a.86.86,0,0,1,.86.86V37a.86.86,0,0,1-.86.86h-4a.86.86,0,0,1-.86-.86Z"/><path class="cls-1" d="M99.56,32.11a6.88,6.88,0,1,1,6.88-6.88,6.88,6.88,0,0,1-6.88,6.88m0-19.49a12.61,12.61,0,1,0,12.61,12.61A12.61,12.61,0,0,0,99.56,12.61"/><path class="cls-1" d="M126.78,32.11a6.88,6.88,0,1,1,6.88-6.88,6.88,6.88,0,0,1-6.88,6.88m11.84-18.55-3.84,1.92a12.61,12.61,0,1,0-1.12,20.32V37a.86.86,0,0,0,.86.86h4a.86.86,0,0,0,.86-.86V14a.49.49,0,0,0-.77-.48"/><path class="cls-1" d="M76.39,0A10.92,10.92,0,0,0,66.32,10.89v1.72H63.74a.86.86,0,0,0-.86.86v4a.86.86,0,0,0,.86.86h2.58V37a.86.86,0,0,0,.86.86h4a.86.86,0,0,0,.86-.86V18.35h2.58a.86.86,0,0,0,.86-.86v-4a.86.86,0,0,0-.86-.86H72.05V10.89A5.19,5.19,0,0,1,76.41,5.8a.92.92,0,0,0,.8-.93v-4A.81.81,0,0,0,76.39,0"/><path class="cls-1" d="M79.21.86A.86.86,0,0,1,80.07,0h4a.86.86,0,0,1,.86.86V37a.86.86,0,0,1-.86.86h-4a.86.86,0,0,1-.86-.86Z"/><path class="cls-1" d="M99.56,32.11a6.88,6.88,0,1,1,6.88-6.88,6.88,6.88,0,0,1-6.88,6.88m0-19.49a12.61,12.61,0,1,0,12.61,12.61A12.61,12.61,0,0,0,99.56,12.61"/><path class="cls-1" d="M126.78,32.11a6.88,6.88,0,1,1,6.88-6.88,6.88,6.88,0,0,1-6.88,6.88m11.84-18.55-3.84,1.92a12.61,12.61,0,1,0-1.12,20.32V37a.86.86,0,0,0,.86.86h4a.86.86,0,0,0,.86-.86V14a.49.49,0,0,0-.77-.48"/><path class="cls-1" d="M153.14,12.61h-2.58v-6a.86.86,0,0,0-.86-.86h-4a.86.86,0,0,0-.86.86v6h-2.58a.86.86,0,0,0-.86.86v4a.86.86,0,0,0,.86.86h2.58V37a.86.86,0,0,0,.86.86h4a.86.86,0,0,0,.86-.86V18.35h2.58a.86.86,0,0,0,.86-.86v-4a.86.86,0,0,0-.86-.86"/><path class="cls-1" d="M76.43,5.8h0Z"/><path class="cls-1" d="M76.39,0A10.92,10.92,0,0,0,66.32,10.89v1.72H63.74a.86.86,0,0,0-.86.86v4a.86.86,0,0,0,.86.86h2.58V37a.86.86,0,0,0,.86.86h4a.86.86,0,0,0,.86-.86V18.35h2.58a.86.86,0,0,0,.86-.86v-4a.86.86,0,0,0-.86-.86H72.05V10.89A5.19,5.19,0,0,1,76.41,5.8a.92.92,0,0,0,.8-.93v-4A.81.81,0,0,0,76.39,0"/><path class="cls-1" d="M76.43,5.8h0Z"/></svg>