<?xml version="1.0" encoding="utf-8"?>
<!-- Generator: Adobe Illustrator 22.1.0, SVG Export Plug-In . SVG Version: 6.00 Build 0)  -->
<svg version="1.1" id="Layer_1" xmlns="http://www.w3.org/2000/svg" xmlns:xlink="http://www.w3.org/1999/xlink" x="0px" y="0px"
	 viewBox="0 0 150 150" style="enable-background:new 0 0 150 150;" xml:space="preserve">
<style type="text/css">
	.st0{fill:none;stroke:#1C6BE1;stroke-width:2;stroke-linecap:round;stroke-linejoin:round;stroke-miterlimit:10;}
</style>
<g>
	<g>
		<line class="st0" x1="20.8" y1="17.1" x2="20.8" y2="128.7"/>
		<line class="st0" x1="20.8" y1="128.7" x2="132.3" y2="128.7"/>
		<g>
			<line class="st0" x1="20.8" y1="30.8" x2="17.7" y2="30.8"/>
			<line class="st0" x1="20.8" y1="55.3" x2="17.7" y2="55.3"/>
			<line class="st0" x1="20.8" y1="79.7" x2="17.7" y2="79.7"/>
			<line class="st0" x1="20.8" y1="104.2" x2="17.7" y2="104.2"/>
			<line class="st0" x1="20.8" y1="128.7" x2="17.7" y2="128.7"/>
		</g>
		<g>
			<line class="st0" x1="20.8" y1="129.8" x2="20.8" y2="132.9"/>
			<line class="st0" x1="45.2" y1="129.8" x2="45.2" y2="132.9"/>
			<line class="st0" x1="69.7" y1="129.8" x2="69.7" y2="132.9"/>
			<line class="st0" x1="94.2" y1="129.8" x2="94.2" y2="132.9"/>
			<line class="st0" x1="118.7" y1="129.8" x2="118.7" y2="132.9"/>
		</g>
	</g>
	<polyline class="st0" points="127.6,101.6 127.6,106.6 122.1,106.6 	"/>
	<polyline class="st0" points="125.6,77 130.6,77 130.6,82.5 	"/>
	<polyline class="st0" points="125.7,44.9 131.1,45.3 130,50.8 	"/>
	<g>
		<path class="st0" d="M55.6,71.6c0,2.5-2,4.5-4.5,4.5s-4.5-2-4.5-4.5c0-2.5,2-4.5,4.5-4.5S55.6,69.1,55.6,71.6z"/>
		<path class="st0" d="M67.2,62.3c0,2.5-2,4.5-4.5,4.5c-2.5,0-4.5-2-4.5-4.5c0-2.5,2-4.5,4.5-4.5C65.1,57.7,67.2,59.8,67.2,62.3z"/>
		<path class="st0" d="M90.4,86.7c0,2.5-2,4.5-4.5,4.5c-2.5,0-4.5-2-4.5-4.5c0-2.5,2-4.5,4.5-4.5C88.3,82.1,90.4,84.2,90.4,86.7z"/>
		<circle class="st0" cx="97" cy="78.2" r="4.5"/>
		<line class="st0" x1="47.6" y1="68.1" x2="28.7" y2="45.7"/>
		<line class="st0" x1="59.1" y1="65.1" x2="54.6" y2="68.8"/>
		<line class="st0" x1="82.7" y1="83.3" x2="65.8" y2="65.5"/>
		<line class="st0" x1="93.4" y1="80.9" x2="89.4" y2="83.9"/>
		<line class="st0" x1="127.6" y1="106.6" x2="100.4" y2="81.3"/>
	</g>
	<path class="st0" d="M115.2,61.3c0,2.5-2,4.5-4.5,4.5c-2.5,0-4.5-2-4.5-4.5c0-2.5,2-4.5,4.5-4.5C113.2,56.8,115.2,58.8,115.2,61.3z
		"/>
	<path class="st0" d="M103.7,49.3c0,2.5-2,4.5-4.5,4.5s-4.5-2-4.5-4.5s2-4.5,4.5-4.5S103.7,46.8,103.7,49.3z"/>
	<path class="st0" d="M100.2,106.6c0,2.5-2,4.5-4.5,4.5c-2.5,0-4.5-2-4.5-4.5c0-2.5,2-4.5,4.5-4.5
		C98.2,102.1,100.2,104.1,100.2,106.6z"/>
	<path class="st0" d="M81.3,106.6c0,2.5-2,4.5-4.5,4.5s-4.5-2-4.5-4.5c0-2.5,2-4.5,4.5-4.5S81.3,104.1,81.3,106.6z"/>
	<path class="st0" d="M69,91.2c0,2.5-2,4.5-4.5,4.5c-2.5,0-4.5-2-4.5-4.5c0-2.5,2-4.5,4.5-4.5C67,86.7,69,88.7,69,91.2z"/>
	<line class="st0" x1="114.3" y1="58.5" x2="130.6" y2="45.7"/>
	<line class="st0" x1="102.3" y1="52.6" x2="107.4" y2="58.1"/>
	<line class="st0" x1="28.7" y1="107.4" x2="95.7" y2="52.2"/>
	<line class="st0" x1="99.2" y1="103.8" x2="130.6" y2="77"/>
	<line class="st0" x1="81.3" y1="106.6" x2="91.1" y2="106.6"/>
	<line class="st0" x1="67.3" y1="94.7" x2="74.1" y2="103"/>
	<line class="st0" x1="28.3" y1="91.5" x2="59.9" y2="91.5"/>
</g>
</svg>
