<?xml version="1.0" encoding="utf-8"?>
<!-- Generator: Adobe Illustrator 22.1.0, SVG Export Plug-In . SVG Version: 6.00 Build 0)  -->
<svg version="1.1" id="Layer_1" xmlns="http://www.w3.org/2000/svg" xmlns:xlink="http://www.w3.org/1999/xlink" x="0px" y="0px"
	 viewBox="0 0 150 150" style="enable-background:new 0 0 150 150;" xml:space="preserve">
<style type="text/css">
	.st0{fill:none;stroke:#151B26;stroke-width:2;stroke-linecap:round;stroke-linejoin:round;stroke-miterlimit:10;}
</style>
<g>
	<polyline class="st0" points="32,78.5 32,73.3 118,73.3 118,78.5 	"/>
	<line class="st0" x1="39.2" y1="61.7" x2="110.8" y2="61.7"/>
	<line class="st0" x1="35.2" y1="67.5" x2="114.7" y2="67.5"/>
	<polyline class="st0" points="131.4,82.9 114.3,56 110.8,56 	"/>
	<polyline class="st0" points="18.6,82.9 35.7,56 39.2,56 	"/>
	<g>
		<polygon class="st0" points="92.9,41.4 104.3,41.4 92.9,30 		"/>
		<g>
			<polyline class="st0" points="92.9,30 45.7,30 45.7,61.2 			"/>
			<line class="st0" x1="104.3" y1="61.2" x2="104.3" y2="41.4"/>
		</g>
	</g>
	<g>
		<line class="st0" x1="55.4" y1="42.7" x2="77.1" y2="42.7"/>
		<line class="st0" x1="55.4" y1="50.3" x2="94.6" y2="50.3"/>
	</g>
	<polygon class="st0" points="95.8,83 95.8,89.1 54.2,89.1 54.2,83 18.6,83 18.6,120 131.3,120 131.3,83 	"/>
	<polyline class="st0" points="101.2,97.7 101.2,104.9 48.8,104.9 48.8,97.7 	"/>
	<line class="st0" x1="52.1" y1="97.7" x2="45.7" y2="97.7"/>
	<line class="st0" x1="104.4" y1="97.7" x2="98" y2="97.7"/>
</g>
</svg>
