<?xml version="1.0" encoding="utf-8"?>
<!-- Generator: Adobe Illustrator 22.1.0, SVG Export Plug-In . SVG Version: 6.00 Build 0)  -->
<svg version="1.1" id="Layer_1" xmlns="http://www.w3.org/2000/svg" xmlns:xlink="http://www.w3.org/1999/xlink" x="0px" y="0px"
	 viewBox="0 0 150 150" style="enable-background:new 0 0 150 150;" xml:space="preserve">
<style type="text/css">
	.st0{fill:none;stroke:#DA4B48;stroke-width:2;stroke-linecap:round;stroke-linejoin:round;stroke-miterlimit:10;}
</style>
<g>
	<g>
		<g>
			<line class="st0" x1="33.3" y1="27.1" x2="33.3" y2="38.2"/>
			<path class="st0" d="M31.1,40.4c0-1.2,1-2.2,2.2-2.2s2.2,1,2.2,2.2s-1,2.2-2.2,2.2C32,42.6,31.1,41.6,31.1,40.4z"/>
		</g>
		<g>
			<line class="st0" x1="52.8" y1="27.1" x2="52.8" y2="38.2"/>
			<path class="st0" d="M50.6,40.4c0-1.2,1-2.2,2.2-2.2s2.2,1,2.2,2.2s-1,2.2-2.2,2.2C51.6,42.6,50.6,41.6,50.6,40.4z"/>
		</g>
		<g>
			<line class="st0" x1="72.4" y1="27.1" x2="72.4" y2="38.2"/>
			<path class="st0" d="M70.2,40.4c0-1.2,1-2.2,2.2-2.2s2.2,1,2.2,2.2s-1,2.2-2.2,2.2C71.2,42.6,70.2,41.6,70.2,40.4z"/>
		</g>
		<g>
			<line class="st0" x1="91.9" y1="27.1" x2="91.9" y2="38.2"/>
			<path class="st0" d="M89.7,40.4c0-1.2,1-2.2,2.2-2.2s2.2,1,2.2,2.2s-1,2.2-2.2,2.2S89.7,41.6,89.7,40.4z"/>
		</g>
		<g>
			<line class="st0" x1="111.5" y1="27.1" x2="111.5" y2="38.2"/>
			<path class="st0" d="M109.3,40.4c0-1.2,1-2.2,2.2-2.2s2.2,1,2.2,2.2s-1,2.2-2.2,2.2C110.3,42.6,109.3,41.6,109.3,40.4z"/>
		</g>
	</g>
	<line class="st0" x1="126.2" y1="48.7" x2="18.7" y2="48.7"/>
	<line class="st0" x1="114.5" y1="61.1" x2="31.2" y2="61.1"/>
	<line class="st0" x1="114.5" y1="73.1" x2="31.2" y2="73.1"/>
	<line class="st0" x1="114.5" y1="85.2" x2="31.2" y2="85.2"/>
	<line class="st0" x1="31.2" y1="61.1" x2="31.2" y2="97.2"/>
	<line class="st0" x1="47.8" y1="61.1" x2="47.8" y2="97.2"/>
	<line class="st0" x1="64.5" y1="61.1" x2="64.5" y2="97.2"/>
	<line class="st0" x1="81.2" y1="61.1" x2="81.2" y2="97.2"/>
	<line class="st0" x1="97.9" y1="61.1" x2="97.9" y2="97.2"/>
	<line class="st0" x1="114.5" y1="61.1" x2="114.5" y2="92"/>
	<line class="st0" x1="106" y1="97.2" x2="31.2" y2="97.2"/>
	<polyline class="st0" points="102.5,78.9 105.1,82.2 110,76.2 	"/>
	<polyline class="st0" points="86,78.9 88.7,82.2 93.5,76.2 	"/>
	<polyline class="st0" points="53.1,90.8 55.8,94.2 60.6,88.1 	"/>
	<polyline class="st0" points="69.1,90.8 71.8,94.2 76.6,88.1 	"/>
	<polyline class="st0" points="36.6,90.8 39.3,94.2 44.1,88.1 	"/>
	<polygon class="st0" points="106,92 126.2,92 106,112.1 	"/>
	<polyline class="st0" points="126.2,92 126.2,32.4 18.6,32.4 18.6,112.1 106,112.1 	"/>
	<polyline class="st0" points="26.2,117.4 131.4,117.4 131.4,38.2 	"/>
	<line class="st0" x1="26.2" y1="122.9" x2="131.4" y2="122.9"/>
</g>
</svg>
