<?xml version="1.0" encoding="utf-8"?>
<!-- Generator: Adobe Illustrator 22.1.0, SVG Export Plug-In . SVG Version: 6.00 Build 0)  -->
<svg version="1.1" id="Layer_1" xmlns="http://www.w3.org/2000/svg" xmlns:xlink="http://www.w3.org/1999/xlink" x="0px" y="0px"
	 viewBox="0 0 150 150" style="enable-background:new 0 0 150 150;" xml:space="preserve">
<style type="text/css">
	.st0{fill:none;stroke:#151B26;stroke-width:2;stroke-linecap:round;stroke-linejoin:round;stroke-miterlimit:10;}
</style>
<g>
	<path class="st0" d="M128.3,121.4H51.6c-3.4,0-6.2-2.8-6.2-6.2V67.6c0-3.4,2.8-6.2,6.2-6.2h76.7c3.4,0,6.2,2.8,6.2,6.2v47.5
		C134.5,118.6,131.7,121.4,128.3,121.4z"/>
	<line class="st0" x1="96.1" y1="40.9" x2="98.1" y2="48.3"/>
	<line class="st0" x1="41.2" y1="50.7" x2="46.5" y2="49.2"/>
	<path class="st0" d="M26.2,67.3l-2.2-7.8c-0.6-2.1,0.6-4.2,2.7-4.8l8.3-2.3"/>
	<line class="st0" x1="134.5" y1="76.6" x2="45.4" y2="76.6"/>
	<line class="st0" x1="134.5" y1="91.4" x2="45.4" y2="91.4"/>
	<line class="st0" x1="66.9" y1="102.5" x2="57.4" y2="102.5"/>
	<line class="st0" x1="76.9" y1="109.2" x2="57.4" y2="109.2"/>
	<path class="st0" d="M109.4,61.4l-7.8-28.2c-0.9-3.3-4.4-5.3-7.7-4.3L20.1,49.3c-3.3,0.9-5.3,4.4-4.3,7.7l12.7,45.8
		c0.9,3.3,4.4,5.3,7.7,4.3l9.3-2.6"/>
	<rect x="105.7" y="100.8" class="st0" width="18.5" height="8.4"/>
</g>
</svg>
