<?xml version="1.0" encoding="utf-8"?>
<!-- Generator: Adobe Illustrator 22.1.0, SVG Export Plug-In . SVG Version: 6.00 Build 0)  -->
<svg version="1.1" id="Layer_1" xmlns="http://www.w3.org/2000/svg" xmlns:xlink="http://www.w3.org/1999/xlink" x="0px" y="0px"
	 viewBox="0 0 150 150" style="enable-background:new 0 0 150 150;" xml:space="preserve">
<style type="text/css">
	.st0{fill:none;stroke:#000000;stroke-width:2;stroke-linecap:round;stroke-linejoin:round;stroke-miterlimit:10;}
</style>
<g>
	<ellipse transform="matrix(0.7071 -0.7071 0.7071 0.7071 -38.152 77.9351)" class="st0" cx="75" cy="85" rx="52.2" ry="52.2"/>
	<ellipse transform="matrix(0.2298 -0.9732 0.9732 0.2298 -24.8084 138.3466)" class="st0" cx="75" cy="84.8" rx="42.3" ry="42.3"/>
	<path class="st0" d="M77.7,84.8c0,1.5-1.2,2.7-2.7,2.7c-1.5,0-2.7-1.2-2.7-2.7c0-1.5,1.2-2.7,2.7-2.7
		C76.5,82.1,77.7,83.3,77.7,84.8z"/>
	<line class="st0" x1="75" y1="84.8" x2="107.4" y2="70.6"/>
	<path class="st0" d="M85.4,21.7H64.6c-2.4,0-4.4-2-4.4-4.4v-0.2c0-2.4,2-4.4,4.4-4.4h20.8c2.4,0,4.4,2,4.4,4.4v0.2
		C89.8,19.7,87.8,21.7,85.4,21.7z"/>
	<line class="st0" x1="81.3" y1="22.8" x2="81.3" y2="31.8"/>
	<line class="st0" x1="68.7" y1="31.8" x2="68.7" y2="22.8"/>
	<polyline class="st0" points="99.7,38.1 104.7,30.5 115.1,37.4 110.2,44.9 	"/>
	<path class="st0" d="M91.6,58"/>
	<line class="st0" x1="45.1" y1="54.9" x2="50.8" y2="60.7"/>
	<line class="st0" x1="99.2" y1="109" x2="104.9" y2="114.8"/>
	<line class="st0" x1="104.9" y1="54.9" x2="99.2" y2="60.7"/>
	<line class="st0" x1="50.8" y1="109" x2="45.1" y2="114.8"/>
	<line class="st0" x1="75" y1="42.5" x2="75" y2="50.6"/>
	<line class="st0" x1="75" y1="119.1" x2="75" y2="127.2"/>
	<line class="st0" x1="117.3" y1="84.8" x2="109.2" y2="84.8"/>
	<line class="st0" x1="40.8" y1="84.8" x2="32.7" y2="84.8"/>
</g>
</svg>
