<?xml version="1.0" encoding="utf-8"?>
<!-- Generator: Adobe Illustrator 22.1.0, SVG Export Plug-In . SVG Version: 6.00 Build 0)  -->
<svg version="1.1" id="Layer_1" xmlns="http://www.w3.org/2000/svg" xmlns:xlink="http://www.w3.org/1999/xlink" x="0px" y="0px"
	 viewBox="0 0 150 150" style="enable-background:new 0 0 150 150;" xml:space="preserve">
<style type="text/css">
	.st0{fill:none;stroke:#151B26;stroke-width:2;stroke-linecap:round;stroke-linejoin:round;stroke-miterlimit:10;}
</style>
<g>
	<path class="st0" d="M126.9,75c0-0.5,0-0.9,0-1.3l-6.3-2.6l5.8-3.9c-0.8-5.1-2.3-9.9-4.4-14.3l-7.2,0.2l3.9-6.2
		c-2.7-4.2-6-7.9-9.8-11.1l-6.8,3.3l1-7.5c-4.1-2.6-8.6-4.7-13.4-6.1l-5,5.9L82.6,24c-2.4-0.3-4.8-0.5-7.3-0.5S70.4,23.7,68,24
		l-2.1,7.4l-5-5.9c-4.8,1.4-9.3,3.4-13.4,6.1l1,7.5l-6.8-3.3c-3.8,3.2-7.1,7-9.8,11.1l3.9,6.2l-7.2-0.2c-2.1,4.5-3.6,9.3-4.4,14.3
		l5.8,3.9l-6.3,2.6c0,0.4,0,0.9,0,1.3c0,4.8,0.7,9.4,1.9,13.8l6.5,1.2l-4.5,4.7c2,4.8,4.6,9.3,7.9,13.2l6.1-1.5l-2.1,5.8
		c3.7,3.6,8,6.7,12.7,9l4.7-3.7l0.4,5.9c4.8,1.8,9.9,2.9,15.3,3.2l2.8-5.2l2.8,5.2c5.4-0.3,10.5-1.4,15.3-3.2l0.4-5.9l4.7,3.7
		c4.7-2.4,8.9-5.4,12.7-9l-2.1-5.8l6.1,1.5c3.3-4,5.9-8.4,7.9-13.2l-4.5-4.7l6.5-1.2C126.2,84.4,126.9,79.8,126.9,75z"/>
	<path class="st0" d="M97,64.5L90.4,64l1.5-6.3c-1.6-1.5-3.4-2.8-5.3-3.9L81,57.1l-2.5-6c-1.1-0.1-2.2-0.2-3.3-0.2
		c-1.1,0-2.2,0.1-3.3,0.2l-2.5,6l-5.6-3.4c-2,1.1-3.8,2.4-5.3,3.9l1.5,6.3l-6.5,0.5c-1,2-1.6,4.1-2,6.3l5,4.2l-5,4.2
		c0.4,2.2,1.1,4.3,2,6.3l6.5,0.5l-1.5,6.3c1.6,1.5,3.4,2.8,5.3,3.9l5.6-3.4l2.5,6c1.1,0.1,2.2,0.2,3.3,0.2c1.1,0,2.2-0.1,3.3-0.2
		l2.5-6l5.6,3.4c2-1.1,3.8-2.4,5.3-3.9L90.4,86l6.5-0.5c1-2,1.6-4.1,2-6.3L94,75l5-4.2C98.6,68.5,97.9,66.4,97,64.5z"/>
	<path class="st0" d="M110.7,74.6c0,0.1,0,0.3,0,0.4"/>
	<path class="st0" d="M110,67.9c0.2,0.8,0.3,1.7,0.4,2.6"/>
	<path class="st0" d="M75.2,39.6c14.9,0,27.6,9.2,32.9,22.1"/>
	<path class="st0" d="M40.9,83.8C40.2,81,39.8,78,39.8,75"/>
	<path class="st0" d="M75.2,110.4c-13.9,0-25.9-8-31.7-19.6"/>
	<path class="st0" d="M133,96c-2.4,6.6-5.9,12.6-10.2,17.9c-2.7,3.3-5.7,6.2-8.9,8.9"/>
	<path class="st0" d="M135.8,85.5c-0.3,1.6-0.6,3.2-1,4.7"/>
	<path class="st0" d="M26,38.3c1.1-1.5,2.3-2.9,3.5-4.3"/>
	<path class="st0" d="M14.2,67.9c0.8-7.1,2.9-13.9,5.9-20.1"/>
	<path class="st0" d="M85.6,73.2c1.2,7.2-5,13.3-12.2,12.2c-4.4-0.7-7.9-4.2-8.6-8.6c-1.2-7.2,5-13.3,12.2-12.2
		C81.4,65.3,84.9,68.9,85.6,73.2z"/>
	<polyline class="st0" points="81.3,44.5 75.2,39.6 82.1,35.8 	"/>
	<polyline class="st0" points="68.8,106.1 75.2,110.5 68.7,114.8 	"/>
</g>
</svg>
