<?xml version="1.0" encoding="utf-8"?>
<!-- Generator: Adobe Illustrator 22.1.0, SVG Export Plug-In . SVG Version: 6.00 Build 0)  -->
<svg version="1.1" id="Layer_1" xmlns="http://www.w3.org/2000/svg" xmlns:xlink="http://www.w3.org/1999/xlink" x="0px" y="0px"
	 viewBox="0 0 150 150" style="enable-background:new 0 0 150 150;" xml:space="preserve">
<style type="text/css">
	.st0{fill:none;stroke:#1C6BE1;stroke-width:2;stroke-linecap:round;stroke-linejoin:round;stroke-miterlimit:10;}
</style>
<g>
	<g>
		<path class="st0" d="M84.5,92.3c0.4-1.2,0.6-2.5,0.6-3.9c0-6.4-4.6-11.2-10.3-11.2c-5.7,0-10.3,4.8-10.3,11.2
			c0,1.4,0.2,2.7,0.6,3.9c-0.8,0.5-1.3,1.5-1.3,2.5c0,1.4,0.9,2.5,2.1,2.9c1.5,4.4,4.9,7.5,8.9,7.5c4,0,7.4-3.1,8.9-7.5
			c1.2-0.3,2.1-1.5,2.1-2.9C85.8,93.8,85.3,92.9,84.5,92.3z"/>
		<path class="st0" d="M79.9,86.6l-0.5-2.6c0,0-1,0-2.8,1.6c-3.7,3.3-7.7,0.7-7.7,0.7"/>
		<path class="st0" d="M65.1,90.3"/>
		<polyline class="st0" points="74.9,112.5 78.7,116.7 83.8,111.2 81.6,107.4 		"/>
		<path class="st0" d="M66.1,111l-9.6,3.9c-0.6,0.4-1.1,0.9-1.5,1.4c-0.6,0.9-1,2-1,3.1v7.2"/>
		<path class="st0" d="M65.5,95.9"/>
		<polyline class="st0" points="74.9,112.5 71.1,116.7 66,111.2 68.2,107.4 		"/>
		<line class="st0" x1="81.6" y1="107.4" x2="74.9" y2="112.5"/>
		<line class="st0" x1="68.2" y1="107.4" x2="74.9" y2="112.5"/>
		<path class="st0" d="M83.7,111l9.8,4.1c1.8,0.9,2.5,2.7,2.5,4.6v0.4v6.7"/>
		<path class="st0" d="M96.1,126.8c-6,3.3-13.2,5.3-21.1,5.3c-7.8,0-15.1-2-21.1-5.3"/>
	</g>
	<g>
		<g>
			<path class="st0" d="M117.4,33c0.4-1.2,0.6-2.5,0.6-3.9c0-6.4-4.6-11.2-10.3-11.2c-5.7,0-10.3,4.8-10.3,11.2
				c0,1.4,0.2,2.7,0.6,3.9c-0.8,0.5-1.3,1.5-1.3,2.5c0,1.4,0.9,2.5,2.1,2.9c1.5,4.4,4.9,7.5,8.9,7.5c4,0,7.4-3.1,8.9-7.5
				c1.2-0.3,2.1-1.5,2.1-2.9C118.7,34.5,118.2,33.6,117.4,33z"/>
			<path class="st0" d="M112.8,27.4l-0.5-2.6c0,0-1,0-2.8,1.6c-3.7,3.3-7.7,0.7-7.7,0.7"/>
			<path class="st0" d="M98,31.1"/>
			<polyline class="st0" points="107.8,53.2 111.6,57.4 116.7,51.9 114.5,48.1 			"/>
			<path class="st0" d="M99,51.7l-9.6,3.9c-0.6,0.4-1.1,0.9-1.5,1.4c-0.6,0.9-1,2-1,3.1v7.2"/>
			<path class="st0" d="M98.4,36.6"/>
			<polyline class="st0" points="107.8,53.2 104,57.4 98.9,51.9 101.1,48.1 			"/>
			<line class="st0" x1="114.5" y1="48.1" x2="107.8" y2="53.2"/>
			<line class="st0" x1="101.1" y1="48.1" x2="107.8" y2="53.2"/>
			<path class="st0" d="M116.6,51.7l9.8,4.1c1.8,0.9,2.5,2.7,2.5,4.6v0.4v6.7"/>
			<path class="st0" d="M129,67.5c-6,3.3-13.2,5.3-21.1,5.3c-7.8,0-15.1-2-21.1-5.3"/>
		</g>
		<g>
			<path class="st0" d="M51.6,33c0.4-1.2,0.6-2.5,0.6-3.9c0-6.4-4.6-11.2-10.3-11.2c-5.7,0-10.3,4.8-10.3,11.2
				c0,1.4,0.2,2.7,0.6,3.9c-0.8,0.5-1.3,1.5-1.3,2.5c0,1.4,0.9,2.5,2.1,2.9c1.5,4.4,4.9,7.5,8.9,7.5c4,0,7.4-3.1,8.9-7.5
				c1.2-0.3,2.1-1.5,2.1-2.9C52.9,34.5,52.4,33.6,51.6,33z"/>
			<path class="st0" d="M46.9,27.4l-0.5-2.6c0,0-1,0-2.8,1.6C40,29.6,35.9,27,35.9,27"/>
			<path class="st0" d="M32.2,31.1"/>
			<polyline class="st0" points="42,53.2 45.8,57.4 50.9,51.9 48.7,48.1 			"/>
			<path class="st0" d="M33.2,51.7l-9.6,3.9c-0.6,0.4-1.1,0.9-1.5,1.4c-0.6,0.9-1,2-1,3.1v7.2"/>
			<path class="st0" d="M32.6,36.6"/>
			<polyline class="st0" points="42,53.2 38.2,57.4 33.1,51.9 35.3,48.1 			"/>
			<line class="st0" x1="48.7" y1="48.1" x2="42" y2="53.2"/>
			<line class="st0" x1="35.3" y1="48.1" x2="42" y2="53.2"/>
			<path class="st0" d="M50.8,51.7l9.8,4.1c1.8,0.9,2.5,2.7,2.5,4.6v0.4v6.7"/>
			<path class="st0" d="M63.2,67.5c-6,3.3-13.2,5.3-21.1,5.3c-7.8,0-15.1-2-21.1-5.3"/>
		</g>
	</g>
	<path class="st0" d="M89.9,36.8c-4.6-1.9-9.6-2.9-14.9-2.9s-10.3,1-14.9,2.9"/>
	<g>
		<path class="st0" d="M36.8,82.4c2.3,9.4,8,17.5,15.7,22.9"/>
		<path class="st0" d="M97.5,105.4c7.7-5.4,13.4-13.5,15.7-22.9"/>
	</g>
	<path class="st0" d="M108,106.3c-0.4,0.4-0.8,0.8-1.2,1.1"/>
	<path class="st0" d="M117.2,93.2c-0.4,0.9-0.9,1.8-1.4,2.6c-1.1,1.9-2.3,3.8-3.6,5.5"/>
	<path class="st0" d="M75,26.4c3,0,5.9,0.3,8.8,0.8"/>
	<path class="st0" d="M65,27.5c1.8-0.4,3.6-0.7,5.5-0.9"/>
	<path class="st0" d="M32.3,92.2c-1.2-2.6-2.1-5.3-2.8-8.1"/>
	<path class="st0" d="M37.6,101.1c-0.8-1.1-1.6-2.3-2.4-3.5"/>
</g>
</svg>
