<?xml version="1.0" encoding="utf-8"?>
<!-- Generator: Adobe Illustrator 22.1.0, SVG Export Plug-In . SVG Version: 6.00 Build 0)  -->
<svg version="1.1" id="Layer_1" xmlns="http://www.w3.org/2000/svg" xmlns:xlink="http://www.w3.org/1999/xlink" x="0px" y="0px"
	 viewBox="0 0 150 150" style="enable-background:new 0 0 150 150;" xml:space="preserve">
<style type="text/css">
	.st0{fill:none;stroke:#00DFFC;stroke-width:2;stroke-linecap:round;stroke-linejoin:round;stroke-miterlimit:10;}
</style>
<g>
	<polygon class="st0" points="86.7,91.7 113.8,91.7 117,99.2 83.5,99.2 	"/>
	<g>
		<g>
			<path class="st0" d="M103.6,16.3H64.4c-2.5,0-4.5,2-4.5,4.5v14.8c0,2.5,2,4.5,4.5,4.5h3.7v7.3L79.5,40h24.1c2.5,0,4.5-2,4.5-4.5
				V20.8C108.1,18.3,106,16.3,103.6,16.3z"/>
			<g>
				<line class="st0" x1="95.9" y1="24.9" x2="72.1" y2="24.9"/>
				<line class="st0" x1="77.5" y1="31.3" x2="72.1" y2="31.3"/>
			</g>
		</g>
	</g>
	<g>
		<path class="st0" d="M108.1,30.1h12.5c3.2,0,5.7,2.6,5.7,5.7V102"/>
		<path class="st0" d="M65.1,111H20.4c-3.2,0-5.7-2.6-5.7-5.7V35.8c0-3.2,2.6-5.7,5.7-5.7h39.5"/>
		<path class="st0" d="M126.3,105.2"/>
		<path class="st0" d="M115.3,93.5"/>
		<line class="st0" x1="14.6" y1="93.5" x2="81.5" y2="93.5"/>
		<line class="st0" x1="118.4" y1="93.5" x2="125.6" y2="93.5"/>
		<path class="st0" d="M22.3,93.5"/>
		<g>
			<line class="st0" x1="56.5" y1="111" x2="53.1" y2="126.6"/>
		</g>
		<line class="st0" x1="65.1" y1="126.6" x2="41.7" y2="126.6"/>
	</g>
	<g>
		<path class="st0" d="M57,57.9c0.4-1.3,0.7-2.8,0.7-4.3c0-7.1-5.1-12.4-11.4-12.4s-11.4,5.3-11.4,12.4c0,1.5,0.2,2.9,0.7,4.3
			c-0.9,0.6-1.5,1.6-1.5,2.8c0,1.5,1,2.8,2.4,3.2c1.6,4.9,5.5,8.3,9.9,8.3s8.3-3.4,9.9-8.3c1.4-0.4,2.4-1.7,2.4-3.2
			C58.4,59.5,57.8,58.5,57,57.9z"/>
		<path class="st0" d="M54.1,53c-0.3-1.4-1.2-1.3-2.4-1.3c-0.4,0-0.6-3-0.6-3s-1.2,0-3.3,1.8c-4.3,3.9-9.1,0.8-9.1,0.8"/>
		<g>
			<path class="st0" d="M35.4,54.3"/>
			<polyline class="st0" points="46.3,78.9 50.5,83.6 56.2,77.4 53.7,73.3 			"/>
			<path class="st0" d="M36.5,77.3l-10.6,4.4c-0.7,0.4-1.2,1-1.7,1.6c-0.7,1-1.1,2.2-1.1,3.5v6.4"/>
			<path class="st0" d="M56.1,77.3L67,81.8c2,1,2.8,3,2.8,5.1v0.4v5.8"/>
			<path class="st0" d="M35.9,60.4"/>
			<polyline class="st0" points="46.3,78.9 42.1,83.6 36.5,77.4 38.9,73.3 			"/>
			<line class="st0" x1="53.7" y1="73.3" x2="46.3" y2="78.9"/>
			<line class="st0" x1="38.9" y1="73.3" x2="46.3" y2="78.9"/>
		</g>
	</g>
	<line class="st0" x1="78.2" y1="124.5" x2="78.2" y2="132.9"/>
	<line class="st0" x1="123.2" y1="124.5" x2="123.2" y2="132.9"/>
	<g>
		<path class="st0" d="M106.3,91.7v-2.2c3.8-2.1,6.8-6,8.5-10.8c2.1-0.6,3.6-2.5,3.6-4.8c0-1.8-0.9-3.3-2.2-4.2c0.6-2,1-4.2,1-6.5
			c0-10.7-7.7-18.7-17.2-18.7s-17.2,8-17.2,18.7c0,2.3,0.3,4.4,1,6.5c-1.3,0.9-2.2,2.4-2.2,4.2c0,2.3,1.5,4.2,3.6,4.8
			c1.6,4.8,4.7,8.7,8.5,10.8v2.2"/>
		<path class="st0" d="M135.4,132.9v-20.4v-0.7c0-3.1-1.2-6.1-4.2-7.6L117,99.1v0.1"/>
		<path class="st0" d="M83.7,98.8l-14.3,5.1c-1,0.6-1.9,1.4-2.5,2.4c-1.1,1.5-1.7,3.3-1.7,5.2v21.4"/>
	</g>
	<line class="st0" x1="113.5" y1="114.6" x2="101.7" y2="126.4"/>
	<line class="st0" x1="112.2" y1="123.2" x2="108.3" y2="127.1"/>
	<path class="st0" d="M116.2,69.7c-1.3,3.6-5,6.9-7.3,8.7c-0.3,0.2-2.5-2.6-2.5-2.6s-1.3,4.9-2,5.2c-6.6,2.5-14.8-0.7-20.7-11.4"/>
</g>
</svg>
