<?xml version="1.0" encoding="utf-8"?>
<!-- Generator: Adobe Illustrator 22.1.0, SVG Export Plug-In . SVG Version: 6.00 Build 0)  -->
<svg version="1.1" id="Layer_1" xmlns="http://www.w3.org/2000/svg" xmlns:xlink="http://www.w3.org/1999/xlink" x="0px" y="0px"
	 viewBox="0 0 1173 308.7" style="enable-background:new 0 0 1173 308.7;" xml:space="preserve">
<style type="text/css">
	.st0{fill:#DA4B48;}
	.st1{fill:url(#SVGID_1_);}
</style>
<g>
	<path class="st0" d="M396.9,181.8H292.6V149L390.1,9.5h48.6v135.9h26.2v36.4h-26.2v42.3h-41.7V181.8z M399.6,145.4V54.2l-61.1,91.2
		H399.6z"/>
	<path class="st0" d="M583.8,2.6c61.4,0,80.5,47.1,80.5,110c0,63.5-19.1,110.9-80.5,110.9c-61.4,0-80.5-47.4-80.5-110.9
		C503.3,49.7,522.4,2.6,583.8,2.6z M583.8,41.4c-35.2,0-39.3,34-39.3,71.2c0,38.7,4.2,72.1,39.3,72.1s39.3-33.4,39.3-72.1
		C623.2,75.4,619,41.4,583.8,41.4z"/>
	<path class="st0" d="M810.3,181.8H706V149L803.5,9.5h48.6v135.9h26.2v36.4h-26.2v42.3h-41.7V181.8z M813,145.4V54.2l-61.1,91.2H813
		z"/>
</g>
<linearGradient id="SVGID_1_" gradientUnits="userSpaceOnUse" x1="587.4418" y1="285.3567" x2="587.4418" y2="195.3567">
	<stop  offset="5.908129e-07" style="stop-color:#F5F8FB"/>
	<stop  offset="0.334" style="stop-color:#F1F5F9"/>
	<stop  offset="0.6664" style="stop-color:#E5ECF1"/>
	<stop  offset="0.9975" style="stop-color:#D1DDE5"/>
	<stop  offset="1" style="stop-color:#D1DDE5"/>
</linearGradient>
<path class="st1" d="M0.9,285.4c0,0,637-202.5,1173,0H0.9z"/>
<g>
</g>
<g>
</g>
<g>
</g>
<g>
</g>
<g>
</g>
<g>
</g>
<g>
</g>
<g>
</g>
<g>
</g>
<g>
</g>
<g>
</g>
<g>
</g>
<g>
</g>
<g>
</g>
<g>
</g>
</svg>
