<?xml version="1.0" encoding="utf-8"?>
<!-- Generator: Adobe Illustrator 22.1.0, SVG Export Plug-In . SVG Version: 6.00 Build 0)  -->
<svg version="1.1" id="Layer_1" xmlns="http://www.w3.org/2000/svg" xmlns:xlink="http://www.w3.org/1999/xlink" x="0px" y="0px"
	 viewBox="0 0 150 150" style="enable-background:new 0 0 150 150;" xml:space="preserve">
<style type="text/css">
	.st0{fill:none;stroke:#1C6BE1;stroke-width:2;stroke-linecap:round;stroke-linejoin:round;stroke-miterlimit:10;}
</style>
<g>
	<circle class="st0" cx="84.5" cy="95.4" r="6.4"/>
	<polyline class="st0" points="37.6,30.1 41.7,26 45.8,30.1 	"/>
	<line class="st0" x1="47.5" y1="26" x2="51.6" y2="30.1"/>
	<line class="st0" x1="37.3" y1="102.3" x2="48.6" y2="102.3"/>
	<line class="st0" x1="37.3" y1="107.7" x2="48.6" y2="107.7"/>
	<line class="st0" x1="37.3" y1="44.5" x2="48.6" y2="44.5"/>
	<line class="st0" x1="37.3" y1="54.2" x2="95" y2="54.2"/>
	<line class="st0" x1="37.3" y1="62.2" x2="95" y2="62.2"/>
	<line class="st0" x1="37.3" y1="70.2" x2="95" y2="70.2"/>
	<polygon class="st0" points="89.4,32.7 106,32.7 90.3,22 	"/>
	<g>
		<polyline class="st0" points="95.9,121.1 106,121.1 106,32.7 		"/>
		<polyline class="st0" points="90.3,22 28,22 27.2,121.1 74.2,121.1 		"/>
	</g>
	<g>
		<polyline class="st0" points="66.4,127.1 21.2,127.1 21.2,22.1 		"/>
	</g>
	<polyline class="st0" points="89.6,115.7 89.6,127.9 82.1,123.8 74.6,127.9 74.6,111.8 	"/>
	<line class="st0" x1="94.8" y1="111.5" x2="94.8" y2="125.9"/>
	<path class="st0" d="M82.2,110.7L82.2,110.7c-1.9,1.9-5.3,0.7-5.5-2l0,0c-0.2-1.8-1.7-3.1-3.5-2.9l0,0c-2.7,0.2-4.5-2.8-2.9-5.1
		l0,0c1-1.5,0.7-3.5-0.8-4.5l0,0c-2.2-1.6-1.6-5.1,1-5.8l0,0c1.7-0.5,2.7-2.2,2.3-4l0,0c-0.7-2.7,2-4.9,4.5-3.8l0,0
		c1.6,0.7,3.5,0,4.3-1.6l0,0c1.2-2.5,4.7-2.5,5.9,0l0,0c0.8,1.6,2.7,2.3,4.3,1.6l0,0c2.5-1.2,5.2,1.1,4.5,3.8l0,0
		c-0.5,1.7,0.6,3.5,2.3,4l0,0c2.6,0.7,3.3,4.2,1,5.8l0,0c-1.5,1-1.8,3-0.8,4.5l0,0c1.6,2.3-0.2,5.3-2.9,5.1l0,0
		c-1.8-0.1-3.3,1.2-3.5,2.9l0,0c-0.2,2.7-3.6,3.9-5.5,2l0,0C85.5,109.4,83.5,109.4,82.2,110.7z"/>
	<g>
		<line class="st0" x1="118.5" y1="36" x2="118.5" y2="32.1"/>
		<path class="st0" d="M121.9,112.9l-3.4,5l-3.4-5V39.4c0-1.9,1.5-3.4,3.4-3.4l0,0c1.9,0,3.4,1.5,3.4,3.4V112.9z"/>
		<line class="st0" x1="121.9" y1="43.5" x2="115.1" y2="43.5"/>
		<path class="st0" d="M115.1,48h6.9h1.3c2,0,3.7,1.6,3.7,3.7v19.9c0,1.8,0.7,3.6,1.9,5"/>
		<line class="st0" x1="121.9" y1="108.8" x2="115.1" y2="108.8"/>
	</g>
</g>
</svg>
