<?xml version="1.0" encoding="utf-8"?>
<!-- Generator: Adobe Illustrator 22.1.0, SVG Export Plug-In . SVG Version: 6.00 Build 0)  -->
<svg version="1.1" id="Layer_1" xmlns="http://www.w3.org/2000/svg" xmlns:xlink="http://www.w3.org/1999/xlink" x="0px" y="0px"
	 viewBox="0 0 150 150" style="enable-background:new 0 0 150 150;" xml:space="preserve">
<style type="text/css">
	.st0{fill:none;stroke:#FFFFFF;stroke-width:2;stroke-linecap:round;stroke-linejoin:round;stroke-miterlimit:10;}
</style>
<g>
	<g>
		<polyline class="st0" points="41.6,85.2 48.9,85.2 48.9,118.2 41.6,118.2 		"/>
		<path class="st0" d="M101.9,102.7l17.2-4.7c2.1-0.6,4.3,0.6,5,2.7l0,0c0.6,1.9-0.2,4.1-2.1,5l-33.5,16.7c-3.7,1.8-7.9,2-11.7,0.4
			l-18.6-7.9h-9.4"/>
		<path class="st0" d="M48.9,88.5h9.4l19.8,6.1h11.6c2.7,0,4.9,2.2,4.9,4.9l0,0c0,2.5-2,4.5-4.5,4.5h-12c-2.6,0-4.7,2.1-4.7,4.7l0,0
			"/>
	</g>
	<g>
		<path class="st0" d="M81.8,81.5C83,83,84.7,84,86.8,84c3.4,0,6.1-2.7,6.1-6.1c0-3.4-2.7-6.1-6.1-6.1h-0.1c-2.6,0-4.7-2.1-4.7-4.7
			c0-2.6,2.1-4.7,4.7-4.7c1.6,0,3,0.8,3.8,1.9"/>
		<line class="st0" x1="86.7" y1="62.3" x2="86.7" y2="59.7"/>
		<line class="st0" x1="86.7" y1="86.6" x2="86.7" y2="84"/>
	</g>
	<polygon class="st0" points="74.4,22.7 100.3,22.7 95.1,35.1 79.7,35.1 	"/>
	<path class="st0" d="M111.7,100.1c1.2-1.9,1.8-4.2,1.8-6.6V67.6c0-11.7-7.8-21.7-18.5-25H79.7c-10.7,3.3-18.5,13.3-18.5,25v21.8"/>
	<g>
		<line class="st0" x1="79.7" y1="42.5" x2="79.7" y2="35.3"/>
		<line class="st0" x1="95.1" y1="35.3" x2="95.1" y2="42.5"/>
	</g>
	<g>
		<line class="st0" x1="89.9" y1="34.8" x2="92.1" y2="29.2"/>
		<line class="st0" x1="84.8" y1="34.8" x2="82.6" y2="29.2"/>
	</g>
	<g>
		<line class="st0" x1="98.8" y1="74.4" x2="100.3" y2="74.4"/>
		<line class="st0" x1="74.4" y1="74.4" x2="75.9" y2="74.4"/>
	</g>
	<polyline class="st0" points="25.7,82.4 41.6,82.4 41.6,127.3 25.7,127.3 	"/>
</g>
</svg>
