<?xml version="1.0" encoding="utf-8"?>
<!-- Generator: Adobe Illustrator 22.1.0, SVG Export Plug-In . SVG Version: 6.00 Build 0)  -->
<svg version="1.1" id="Layer_1" xmlns="http://www.w3.org/2000/svg" xmlns:xlink="http://www.w3.org/1999/xlink" x="0px" y="0px"
	 viewBox="0 0 150 150" style="enable-background:new 0 0 150 150;" xml:space="preserve">
<style type="text/css">
	.st0{fill:none;stroke:#00DFFC;stroke-width:2;stroke-linecap:round;stroke-linejoin:round;stroke-miterlimit:10;}
</style>
<g>
	<g>
		<g>
			<path class="st0" d="M68.1,63c-0.7-0.8-1.8-1.3-3.1-1.3c-1.3,0-2.4,0.5-3.1,1.3"/>
			<path class="st0" d="M87.1,63c-0.7-0.8-1.8-1.3-3.1-1.3c-1.3,0-2.4,0.5-3.1,1.3"/>
		</g>
		<path class="st0" d="M50.7,44.9c1.8-11.7,11.8-20.7,23.7-20.7s21.9,9,23.7,20.7"/>
		<path class="st0" d="M50.3,51.4"/>
		<path class="st0" d="M46,43.7C46,28,58.7,15.3,74.4,15.3c5.1,0,9.9,1.4,14.1,3.7c8.6,4.9,14.4,14.1,14.4,24.7"/>
		<g>
			<path class="st0" d="M65.2,40c1.7,10.7,17.3,15.4,31.9,14.6"/>
			<path class="st0" d="M65.2,40c0,8-5.8,12.8-13.5,14.6"/>
		</g>
		<polyline class="st0" points="73.1,81.6 46.1,77.8 45.8,70.1 		"/>
		<polyline class="st0" points="74.7,105.8 85,117.3 98.8,102.3 92.9,92.2 		"/>
		<path class="st0" d="M50.8,101.9l-17.2,10.6c-1.6,1-3,2.3-4.1,3.8c-1.8,2.4-2.7,5.4-2.7,8.5v9.8"/>
		<path class="st0" d="M98.6,101.9l17.8,11.1c4.3,2.6,6.9,7.3,6.9,12.3v1.1v8.3"/>
		<line class="st0" x1="74.7" y1="127.4" x2="74.7" y2="134.7"/>
		<line class="st0" x1="74.7" y1="120.1" x2="74.7" y2="121.6"/>
		<path class="st0" d="M51.4,65.1"/>
		<path class="st0" d="M98.6,69c0,0.1,0,0.1,0,0.2c-1.3,9.9-6.9,20.3-16.5,24.2c-9.3,3.8-19.3-0.2-25.2-7.9"/>
		<polyline class="st0" points="74.7,105.8 64.5,117.3 50.7,102.3 56.6,92.2 		"/>
		<line class="st0" x1="92.9" y1="92.2" x2="74.7" y2="105.8"/>
		<line class="st0" x1="56.6" y1="92.2" x2="74.7" y2="105.8"/>
		<g>
			<path class="st0" d="M45.8,70.1h-1c-3.2,0-5.8-2.6-5.8-5.8V49.5c0-3.2,2.6-5.8,5.8-5.8h1c3.2,0,5.8,2.6,5.8,5.8v14.7
				C51.5,67.5,48.9,70.1,45.8,70.1z"/>
			<path class="st0" d="M104.1,70.1h-1c-3.2,0-5.8-2.6-5.8-5.8V49.6c0-3.2,2.6-5.8,5.8-5.8h1c3.2,0,5.8,2.6,5.8,5.8v14.7
				C109.9,67.4,107.3,70.1,104.1,70.1z"/>
		</g>
	</g>
	<g>
		<line class="st0" x1="89.1" y1="88.9" x2="89.1" y2="94.9"/>
		<line class="st0" x1="60.9" y1="89.8" x2="60.9" y2="95.4"/>
	</g>
</g>
</svg>
