<?xml version="1.0" encoding="utf-8"?>
<!-- Generator: Adobe Illustrator 22.1.0, SVG Export Plug-In . SVG Version: 6.00 Build 0)  -->
<svg version="1.1" id="Layer_1" xmlns="http://www.w3.org/2000/svg" xmlns:xlink="http://www.w3.org/1999/xlink" x="0px" y="0px"
	 viewBox="0 0 150 150" style="enable-background:new 0 0 150 150;" xml:space="preserve">
<style type="text/css">
	.st0{fill:none;stroke:#21C87A;stroke-width:2;stroke-linecap:round;stroke-linejoin:round;stroke-miterlimit:10;}
</style>
<g>
	<path class="st0" d="M61.6,93.1"/>
	<path class="st0" d="M61.5,53"/>
	<g>
		<path class="st0" d="M90,68.3"/>
		<path class="st0" d="M48.2,62.7c-1.9-3.9-3-8.3-3-13c0-16.4,13.3-29.7,29.7-29.7s29.7,13.3,29.7,29.7c0,4.8-1.1,9.3-3.1,13.2"/>
		<polyline class="st0" points="101.4,63 74.9,101.6 48.2,62.7 		"/>
		<path class="st0" d="M75.7,26.7c12.4,0,22.4,10,22.4,22.4"/>
		<path class="st0" d="M63.8,36.7c3-2.5,6.9-4,11.1-4c9.5,0,17.2,7.7,17.2,17.2c0,9.5-7.7,17.2-17.2,17.2c-9.5,0-17.2-7.7-17.2-17.2
			c0-3,0.8-5.9,2.2-8.4"/>
		<line class="st0" x1="74.1" y1="84.9" x2="81.3" y2="92.2"/>
		<line class="st0" x1="69.6" y1="80.2" x2="66.1" y2="76.6"/>
		<path class="st0" d="M86.5,84c-1-1-6.4-6.4-7.4-7.4"/>
	</g>
	<polyline class="st0" points="59.8,91.7 59.8,123 29.3,129.9 29.3,73.8 43.9,70.5 	"/>
	<line class="st0" x1="90.2" y1="129.9" x2="90.2" y2="107.4"/>
	<line class="st0" x1="89.9" y1="98.8" x2="89.9" y2="92"/>
	<path class="st0" d="M90.2,117.4"/>
	<polyline class="st0" points="104,70.6 120.7,66.8 120.7,123 90.2,129.9 	"/>
	<line class="st0" x1="90.2" y1="129.9" x2="59.7" y2="123"/>
	<line class="st0" x1="112.9" y1="76.6" x2="112.9" y2="103.1"/>
	<line class="st0" x1="112.9" y1="112" x2="112.9" y2="124.7"/>
	<line class="st0" x1="36.8" y1="80.2" x2="36.8" y2="92"/>
	<line class="st0" x1="36.8" y1="100.2" x2="36.8" y2="128.2"/>
</g>
</svg>
