<?xml version="1.0" encoding="utf-8"?>
<!-- Generator: Adobe Illustrator 22.1.0, SVG Export Plug-In . SVG Version: 6.00 Build 0)  -->
<svg version="1.1" id="Layer_1" xmlns="http://www.w3.org/2000/svg" xmlns:xlink="http://www.w3.org/1999/xlink" x="0px" y="0px"
	 viewBox="0 0 150 150" style="enable-background:new 0 0 150 150;" xml:space="preserve">
<style type="text/css">
	.st0{fill:none;stroke:#21C87A;stroke-width:2;stroke-linecap:round;stroke-linejoin:round;stroke-miterlimit:10;}
</style>
<g>
	<polyline class="st0" points="57.6,110.2 16.6,110.2 16.6,47.7 16.6,41.6 31.7,19.2 86.2,19.2 86.2,35.2 	"/>
	<path class="st0" d="M86.2,110.2"/>
	<polyline class="st0" points="16.6,41.6 31.7,41.6 31.7,19.2 	"/>
	<line class="st0" x1="23.6" y1="75.1" x2="23.6" y2="95.6"/>
	<line class="st0" x1="23.6" y1="102.4" x2="23.6" y2="109.3"/>
	<rect x="33.5" y="94.4" class="st0" width="6.9" height="6.9"/>
	<rect x="33.5" y="78.1" class="st0" width="6.9" height="6.9"/>
	<rect x="33.5" y="61.8" class="st0" width="6.9" height="6.9"/>
	<rect x="33.5" y="46.4" class="st0" width="6.9" height="6.9"/>
	<line class="st0" x1="47.1" y1="98.2" x2="57.6" y2="98.2"/>
	<line class="st0" x1="47.1" y1="81.5" x2="57.1" y2="81.5"/>
	<line class="st0" x1="47.1" y1="64.6" x2="57.6" y2="64.6"/>
	<path class="st0" d="M73.3,64.6"/>
	<path class="st0" d="M64.4,64.6"/>
	<line class="st0" x1="47.1" y1="49.3" x2="52" y2="49.3"/>
	<line class="st0" x1="56.8" y1="49.3" x2="72" y2="49.3"/>
	<line class="st0" x1="56.8" y1="27.7" x2="72.5" y2="27.7"/>
	<line class="st0" x1="46.4" y1="33.9" x2="72.5" y2="33.9"/>
	<line class="st0" x1="80" y1="19.2" x2="80" y2="33.9"/>
	<polyline class="st0" points="132.5,130.8 63.4,130.8 63.4,68.4 63.4,62.2 78.4,39.8 133,39.8 133,98.7 	"/>
	<path class="st0" d="M133,130.8"/>
	<polyline class="st0" points="63.4,62.2 78.4,62.2 78.4,39.8 	"/>
	<line class="st0" x1="70.4" y1="95.7" x2="70.4" y2="116.2"/>
	<line class="st0" x1="70.4" y1="123" x2="70.4" y2="129.9"/>
	<rect x="80.3" y="115" class="st0" width="6.9" height="6.9"/>
	<rect x="80.3" y="98.7" class="st0" width="6.9" height="6.9"/>
	<rect x="80.3" y="82.4" class="st0" width="6.9" height="6.9"/>
	<rect x="80.3" y="67" class="st0" width="6.9" height="6.9"/>
	<line class="st0" x1="93.8" y1="118.8" x2="107.2" y2="118.8"/>
	<line class="st0" x1="93.8" y1="102.1" x2="116" y2="102.1"/>
	<line class="st0" x1="93.8" y1="85.3" x2="107.2" y2="85.3"/>
	<line class="st0" x1="111.1" y1="85.3" x2="120" y2="85.3"/>
	<line class="st0" x1="93.8" y1="69.9" x2="98.7" y2="69.9"/>
	<line class="st0" x1="103.5" y1="69.9" x2="123.6" y2="69.9"/>
	<line class="st0" x1="133" y1="104.5" x2="133" y2="130.7"/>
	<line class="st0" x1="103.5" y1="48.3" x2="119.2" y2="48.3"/>
	<line class="st0" x1="93.1" y1="54.5" x2="119.2" y2="54.5"/>
	<line class="st0" x1="126.8" y1="39.8" x2="126.8" y2="54.5"/>
	<line class="st0" x1="112.8" y1="118.8" x2="117.4" y2="118.8"/>
</g>
</svg>
