<?xml version="1.0" encoding="utf-8"?>
<!-- Generator: Adobe Illustrator 22.1.0, SVG Export Plug-In . SVG Version: 6.00 Build 0)  -->
<svg version="1.1" id="Layer_1" xmlns="http://www.w3.org/2000/svg" xmlns:xlink="http://www.w3.org/1999/xlink" x="0px" y="0px"
	 viewBox="0 0 150 150" style="enable-background:new 0 0 150 150;" xml:space="preserve">
<style type="text/css">
	.st0{fill:none;stroke:#796EFF;stroke-width:2;stroke-linecap:round;stroke-linejoin:round;stroke-miterlimit:10;}
</style>
<g>
	<polyline class="st0" points="40.4,82.9 23.4,82.9 23.4,30.5 128.2,30.5 128.2,82.9 110.1,82.9 	"/>
	<line class="st0" x1="81.8" y1="82.9" x2="68.8" y2="82.9"/>
	<line class="st0" x1="68.4" y1="75.5" x2="81.8" y2="75.5"/>
	<line class="st0" x1="39.6" y1="57" x2="32.8" y2="57"/>
	<circle class="st0" cx="49.8" cy="57" r="3"/>
	<path class="st0" d="M28.5,74.6c0-1.6,1.3-3,3-3s3,1.3,3,3c0,1.6-1.3,3-3,3S28.5,76.2,28.5,74.6z"/>
	<path class="st0" d="M117.5,74.6c0-1.6,1.3-3,3-3c1.6,0,3,1.3,3,3c0,1.6-1.3,3-3,3C118.8,77.5,117.5,76.2,117.5,74.6z"/>
	<path class="st0" d="M28.5,38.6c0-1.6,1.3-3,3-3s3,1.3,3,3c0,1.6-1.3,3-3,3S28.5,40.2,28.5,38.6z"/>
	<path class="st0" d="M117.5,38.6c0-1.6,1.3-3,3-3c1.6,0,3,1.3,3,3c0,1.6-1.3,3-3,3C118.8,41.5,117.5,40.2,117.5,38.6z"/>
	<path class="st0" d="M79.4,70.1c-1.4,1-3.1,1.5-4.8,1.5c-6,0-10.9-6.7-10.9-15s4.9-15,10.9-15c5.5,0,10,5.5,10.7,12.8
		c0.1,0.7,0.1,1.5,0.1,2.2"/>
	<circle class="st0" cx="74.7" cy="52.6" r="4.5"/>
	<path class="st0" d="M81.3,68.1"/>
	<path class="st0" d="M67.9,68.4c0-5.9,3-11.1,6.7-11.1c2.8,0,5.2,2.7,6.2,6.5"/>
	<path class="st0" d="M71.3,104.6c0,2.6-6.3,4.7-14.2,4.7c-7.8,0-14.2-2.1-14.2-4.7"/>
	<path class="st0" d="M71.3,97.7c0,2.6-6.3,4.7-14.2,4.7c-7.8,0-14.2-2.1-14.2-4.7"/>
	<path class="st0" d="M71.3,90.8c0,2.6-6.3,4.7-14.2,4.7c-7.8,0-14.2-2.1-14.2-4.7"/>
	<path class="st0" d="M67.9,81.1"/>
	<line class="st0" x1="71.3" y1="104.6" x2="71.3" y2="82.9"/>
	<line class="st0" x1="43" y1="104.6" x2="43" y2="87.1"/>
	<path class="st0" d="M110.1,108.5c0,2.6-6.3,4.7-14.2,4.7c-7.8,0-14.2-2.1-14.2-4.7"/>
	<path class="st0" d="M110.1,101.6c0,2.6-6.3,4.7-14.2,4.7c-7.8,0-14.2-2.1-14.2-4.7"/>
	<path class="st0" d="M110.1,94.7c0,2.6-6.3,4.7-14.2,4.7c-7.8,0-14.2-2.1-14.2-4.7"/>
	<path class="st0" d="M110.1,87.8c0,2.6-6.3,4.7-14.2,4.7c-7.8,0-14.2-2.1-14.2-4.7"/>
	<path class="st0" d="M110.1,80.9c0,2.6-6.3,4.7-14.2,4.7c-7.8,0-14.2-2.1-14.2-4.7"/>
	<path class="st0" d="M110.1,73.9c0,2.6-6.3,4.7-14.2,4.7c-7.8,0-14.2-2.1-14.2-4.7"/>
	<path class="st0" d="M105.7,59c-2,0.8-4.2,1.1-6.3,1.1"/>
	<ellipse class="st0" cx="98" cy="59.4" rx="14.2" ry="4.7"/>
	<line class="st0" x1="110.1" y1="69.5" x2="110.1" y2="108.5"/>
	<path class="st0" d="M81.8,108.5V68.1c0,0,0.6-1.4,2.1-2.9"/>
	<path class="st0" d="M68.8,76.8c0,2.6-6.3,4.7-14.2,4.7c-7.8,0-14.2-2.1-14.2-4.7s6.3-4.7,14.2-4.7C62.4,72.1,68.8,74.2,68.8,76.8z
		"/>
	<path class="st0" d="M110.1,73.9c0-4.5,4.8-7.3,9.3-7.3c0.1,0,0.3,0,0.4,0V46.7c-0.1,0-0.3,0-0.4,0c-4.5,0-8.1-3.6-8.1-8.1l0,0
		H40.1l0,0c0,4.4-3.5,7.9-7.8,8.1v19.9c4.3,0.2,7.6,2.8,7.6,6.5"/>
	<line class="st0" x1="91.7" y1="46.5" x2="105.7" y2="46.5"/>
	<line class="st0" x1="58.5" y1="67.5" x2="43.5" y2="67.5"/>
	<line class="st0" x1="58.5" y1="46.5" x2="43.5" y2="46.5"/>
	<path class="st0" d="M112.2,59.4V67c0,2.6-6.3,4.7-14.2,4.7c-7.8,0-14.2-2.1-14.2-4.7v-7.2"/>
	<path class="st0" d="M68.8,76.8v7.6c0,2.6-6.3,4.7-14.2,4.7c-7.8,0-14.2-2.1-14.2-4.7v-7.6"/>
	<path class="st0" d="M46.8,76.3c0,0,2.4,1.6,6.7,1.3"/>
</g>
</svg>
