<?xml version="1.0" encoding="utf-8"?>
<!-- Generator: Adobe Illustrator 22.1.0, SVG Export Plug-In . SVG Version: 6.00 Build 0)  -->
<svg version="1.1" id="Layer_1" xmlns="http://www.w3.org/2000/svg" xmlns:xlink="http://www.w3.org/1999/xlink" x="0px" y="0px"
	 viewBox="0 0 150 150" style="enable-background:new 0 0 150 150;" xml:space="preserve">
<style type="text/css">
	.st0{fill:none;stroke:#FFFFFF;stroke-width:2;stroke-linecap:round;stroke-linejoin:round;stroke-miterlimit:10;}
</style>
<g>
	<polyline class="st0" points="129.2,99.4 108.1,78.3 80.3,106.1 	"/>
	<line class="st0" x1="135.8" y1="106.1" x2="132.4" y2="102.6"/>
	<polyline class="st0" points="97.2,78.3 70.3,51.4 22.7,99 	"/>
	<line class="st0" x1="35" y1="120.2" x2="33.4" y2="121.8"/>
	<polyline class="st0" points="96.3,124.1 63.6,91.4 38.6,116.6 	"/>
	<polyline class="st0" points="90.2,71.3 85.8,75.7 80.9,70.7 70.4,81.2 60,70.7 55,75.7 50.6,71.3 	"/>
	<polyline class="st0" points="123.7,93.9 117.5,100 107.1,89.6 102.1,94.5 97,89.4 	"/>
	<polyline class="st0" points="49.4,107.4 54.2,112.2 64.6,101.8 69.6,106.7 74,102.3 	"/>
	<line class="st0" x1="75.7" y1="25.9" x2="75.7" y2="56.6"/>
	<polyline class="st0" points="75.7,41.5 91.7,41.5 85.8,35.6 91.7,29.7 75.7,29.7 	"/>
	<g>
		<g>
			<g>
				<line class="st0" x1="77.4" y1="117.2" x2="73.3" y2="113.2"/>
			</g>
		</g>
	</g>
	<path class="st0" d="M14.2,66.2c0-3.9,3.2-7,7-7c0.5,0,1,0.1,1.5,0.2c0.6-3.3,3.4-5.8,6.9-5.8c3.4,0,6.3,2.4,6.9,5.6
		c0,0,0.1,0,0.1,0c3.1,0,5.6,2.5,5.6,5.6c0,3.1-2.5,5.6-5.6,5.6h-8.4"/>
	<line class="st0" x1="23.9" y1="70.4" x2="22.1" y2="70.4"/>
</g>
</svg>
