<?xml version="1.0" encoding="utf-8"?>
<!-- Generator: Adobe Illustrator 22.1.0, SVG Export Plug-In . SVG Version: 6.00 Build 0)  -->
<svg version="1.1" id="Layer_1" xmlns="http://www.w3.org/2000/svg" xmlns:xlink="http://www.w3.org/1999/xlink" x="0px" y="0px"
	 viewBox="0 0 150 150" style="enable-background:new 0 0 150 150;" xml:space="preserve">
<style type="text/css">
	.st0{fill:none;stroke:#FFBC42;stroke-width:2;stroke-linecap:round;stroke-linejoin:round;stroke-miterlimit:10;}
</style>
<g>
	<g>
		<rect x="18.9" y="95.1" class="st0" width="41.9" height="28.6"/>
		<polyline class="st0" points="25.4,95.1 25.4,112.4 27.9,114.3 30.4,112.4 30.4,95.1 		"/>
		<polyline class="st0" points="49.5,95.1 49.5,112.4 52,114.3 54.5,112.4 54.5,95.1 		"/>
		<rect x="36.4" y="103.5" class="st0" width="7.2" height="6.5"/>
		<line class="st0" x1="24.4" y1="106.7" x2="18.9" y2="106.7"/>
		<line class="st0" x1="60.8" y1="106.7" x2="55.6" y2="106.7"/>
		<line class="st0" x1="48.4" y1="106.7" x2="43.5" y2="106.7"/>
		<line class="st0" x1="36.4" y1="106.7" x2="31.5" y2="106.7"/>
		<polyline class="st0" points="46.1,95.1 46.1,88.8 33.7,88.8 33.7,95.1 		"/>
	</g>
	<g>
		<line class="st0" x1="98.5" y1="47.3" x2="95.4" y2="50.5"/>
		<polyline class="st0" points="98.6,64.2 126.8,36 133.1,42.3 133.1,21.2 112,21.2 118.3,27.5 101.9,43.9 		"/>
	</g>
	<g>
		<line class="st0" x1="53.5" y1="70.6" x2="51.8" y2="72.3"/>
		<polyline class="st0" points="48.6,58.6 71.6,35.6 65.3,29.3 86.3,29.3 86.3,50.4 80,44.1 57.4,66.7 		"/>
	</g>
	<polyline class="st0" points="135.4,57.6 119.4,57.6 119.4,75.4 101.5,75.4 101.5,93.2 83.6,93.2 83.6,111 65.7,111 65.7,128.8 
		14.6,128.8 	"/>
</g>
</svg>
