<?xml version="1.0" encoding="utf-8"?>
<!-- Generator: Adobe Illustrator 22.1.0, SVG Export Plug-In . SVG Version: 6.00 Build 0)  -->
<svg version="1.1" id="c1beeda2-3973-4ae6-86a9-52f16471172f"
	 xmlns="http://www.w3.org/2000/svg" xmlns:xlink="http://www.w3.org/1999/xlink" x="0px" y="0px" viewBox="0 0 901.9 681"
	 style="enable-background:new 0 0 901.9 681;" xml:space="preserve">
<style type="text/css">
	.st0{opacity:0.5;fill:#E3E6F0;enable-background:new    ;}
	.st1{fill:#4D8AF0;}
	.st2{fill:#EEEEEE;}
	.st3{fill:#E0E0E0;}
	.st4{opacity:0.5;}
	.st5{fill:url(#SVGID_1_);}
	.st6{fill:#FDA57D;}
	.st7{opacity:0.1;enable-background:new    ;}
	.st8{fill:#FFFFFF;}
	.st9{fill:#333333;}
	.st10{fill:#F55F44;}
	.st11{fill:url(#SVGID_2_);}
	.st12{fill:#21C87A;}
	.st13{opacity:0.2;enable-background:new    ;}
	.st14{fill:url(#SVGID_3_);}
	.st15{fill:url(#SVGID_4_);}
	.st16{fill:url(#SVGID_5_);}
	.st17{fill:url(#SVGID_6_);}
	.st18{opacity:0.2;}
	.st19{fill:url(#SVGID_7_);}
	.st20{opacity:0.3;}
	.st21{fill:url(#SVGID_8_);}
	.st22{fill:url(#SVGID_9_);}
	.st23{fill:url(#SVGID_10_);}
	.st24{fill:url(#SVGID_11_);}
	.st25{fill:url(#SVGID_12_);}
	.st26{fill:url(#SVGID_13_);}
	.st27{fill:url(#SVGID_14_);}
	.st28{fill:url(#SVGID_15_);}
	.st29{fill:url(#SVGID_16_);}
	.st30{fill:url(#SVGID_17_);}
	.st31{fill:url(#SVGID_18_);}
	.st32{fill:url(#SVGID_19_);}
	.st33{fill:url(#SVGID_20_);}
	.st34{fill:url(#SVGID_21_);}
</style>
<ellipse class="st0" cx="451.4" cy="620.1" rx="450.5" ry="60.9"/>
<title>news</title>
<rect x="17.6" y="224.7" class="st1" width="75.4" height="11.4"/>
<polygon class="st2" points="17.6,235.9 9.1,622 14.4,622 26.2,236.1 "/>
<polygon class="st2" points="92.9,235.9 101.5,622 96.1,622 84.3,236.1 "/>
<polygon class="st3" points="33.6,236.1 24.5,622 30.9,622 39.3,235.9 "/>
<polygon class="st3" points="78.5,236.1 87.6,622 81.2,622 72.8,235.9 "/>
<rect x="32" y="575.1" class="st3" width="48.5" height="5.9"/>
<rect x="30.4" y="542.6" class="st3" width="52.2" height="5.9"/>
<rect x="32" y="510.7" class="st3" width="50.6" height="5.9"/>
<rect x="32" y="478.2" class="st3" width="48.5" height="5.9"/>
<rect x="32" y="444.6" class="st3" width="48.5" height="5.3"/>
<rect x="33.6" y="412.7" class="st3" width="46.9" height="6.4"/>
<rect x="33.6" y="380.7" class="st3" width="45.3" height="4.3"/>
<rect x="35.2" y="346.6" class="st3" width="40" height="6.9"/>
<rect x="35.2" y="314.7" class="st3" width="41.5" height="5.9"/>
<rect x="35.2" y="281.7" class="st3" width="41.5" height="6.4"/>
<rect x="37.3" y="249.2" class="st3" width="37.8" height="6.4"/>
<rect y="202.8" class="st1" width="110.8" height="23.4"/>
<g class="st4">
	
		<linearGradient id="SVGID_1_" gradientUnits="userSpaceOnUse" x1="214.7551" y1="276.1" x2="214.7551" y2="445" gradientTransform="matrix(1 0 0 -1 -149.07 483)">
		<stop  offset="0" style="stop-color:#808080;stop-opacity:0.25"/>
		<stop  offset="0.54" style="stop-color:#808080;stop-opacity:0.12"/>
		<stop  offset="1" style="stop-color:#808080;stop-opacity:0.1"/>
	</linearGradient>
	<path class="st5" d="M104.9,38L66.4,63.1c-0.4-1.6-1.3-2.9-2.5-3.9c0.5-1.2,0.5-2.5,0.2-3.8c-0.1-0.4-0.2-0.7-0.4-1
		c-0.4-0.4-1-0.5-1.5-0.4l-6.1,0.4c-0.7,0-1.4,0.2-2,0.6c-0.9,0.7-1.1,2.2-2,2.9c-0.6,0.4-1.3,0.4-2,0.7c-1.4,0.8-1.7,3-1.8,4.8
		c-0.1,2.5-0.1,5.4,1.5,7c1.2,1.1,2.8,1,4.3,0.9l1.5-0.1c0.4,0.2,0.8,0.4,1.2,0.6v2.1h-0.3c0,0-17.3-5-36.2,47.2h-0.3
		c0,0-2.8,9.5,1.7,7.8c3.9-1.5,4-6.3,3.9-7.5h0.3c0,0,7.8-22.9,20.1-25.7c0,0,8.9,11.2-5.6,33.5h11.4c0,2.5,0.5,5,1.5,7.3
		c3.4,6.7-6.7,70.4-6.7,70.4h8.4l4.2-21.1l0.5,21.1h6.1l6.2-40.6l-0.8-48.9v-12.7l1.1,1.5V86.6h16.2l2.8-21.8h-0.3
		c0.1-1.5,0-3-0.2-4.6l20.9-4.4C114.9,41.9,104.9,38,104.9,38z M86.6,65.2l-4.9,12.5c0,0-13.4-6.1-18.4-3.9H63v-2.7
		c2.1-1.2,3.4-3.4,3.6-5.8l20.1-4.2C86.5,62.4,86.5,63.8,86.6,65.2L86.6,65.2z"/>
</g>
<path class="st6" d="M89.7,68.4c0,0,0.6-9.2-2.2-7.2s-1.6,7.8-1.6,7.8L89.7,68.4z"/>
<path class="st6" d="M22.1,121.1c0,0-2.7,9,1.6,7.5s3.7-7.5,3.7-7.5H22.1z"/>
<rect x="57.3" y="72.6" class="st6" width="5.9" height="5.3"/>
<rect x="52.5" y="101.9" class="st1" width="4.8" height="24"/>
<rect x="52.5" y="101.9" class="st7" width="4.8" height="24"/>
<path class="st8" d="M59.5,76.1h5.5c3.2,0,5.8,2.6,5.8,5.8v35.8l0,0h-17l0,0V81.8C53.8,78.7,56.4,76.1,59.5,76.1z"/>
<circle class="st6" cx="59.7" cy="67.5" r="6.9"/>
<path class="st1" d="M57,76.1c0,0-16.5-4.8-34.6,45.3h5.3c0,0,7.5-21.8,19.2-24.5c0,0,8.5,10.6-5.3,32h11.2v-7.1
	c-0.1-10.8,1.3-21.6,4-32.1C58,85.2,58.1,80.5,57,76.1z"/>
<path class="st1" d="M63.4,76.1v1.6c0,0,3.7,16.5,6.9,27.2l1.6,2.2V88.3h15.4L90,67.6h-4.3l-4.9,12.2C80.9,79.8,68.2,73.9,63.4,76.1
	z"/>
<path class="st9" d="M53.8,117.6c0,0-3.2,11.7,0,18.1s-6.4,67.1-6.4,67.1h8l11.4-57.3l1.9-28L53.8,117.6z"/>
<polygon class="st9" points="70.8,117.6 71.6,164.2 65.8,202.8 59.9,202.8 57.8,117.6 "/>
<path class="st9" d="M58.5,64.9c0.1-0.2,0.3-0.4,0.5-0.6c0.2-0.1,0.4-0.2,0.7-0.2c1.4-0.1,3.1-0.1,4-1.5c0.6-1.2,0.8-2.7,0.4-4
	c0-0.4-0.2-0.7-0.4-1c-0.4-0.4-0.9-0.5-1.4-0.4l-5.8,0.4c-0.7,0-1.3,0.2-1.9,0.6c-0.8,0.7-1.1,2.1-1.9,2.7c-0.6,0.4-1.3,0.4-1.9,0.7
	c-1.3,0.7-1.6,2.8-1.7,4.6c-0.1,2.4-0.1,5.2,1.4,6.6c1.1,1.1,2.7,1,4.1,0.9l2.7-0.2c0.3,0,0.5-0.1,0.8-0.2c0.3-0.5,0.5-1,0.4-1.6
	c-0.1-1.3-0.2-2.9-1.1-3.7c-0.2-0.2-0.4-0.3-0.6-0.5C55.8,65.9,58,65.6,58.5,64.9z"/>
<path class="st10" d="M103.1,42c0,0,9.6,3.7,6.4,17l-43.1,9.1v-2.1L103.1,42z"/>
<rect x="17.8" y="226" class="st7" width="75.1" height="2.1"/>
<rect x="30.1" y="376.2" class="st7" width="5.9" height="1.1"/>
<rect x="75.9" y="376.2" class="st7" width="5.9" height="1.1"/>
<rect x="17.6" y="367.4" class="st2" width="75.1" height="9"/>
<linearGradient id="SVGID_2_" gradientUnits="userSpaceOnUse" x1="386.6657" y1="116.3563" x2="386.6657" y2="131.4759" gradientTransform="matrix(0.9979 -6.540313e-02 -6.540313e-02 -0.9979 -235.9093 191.0951)">
	<stop  offset="0" style="stop-color:#808080;stop-opacity:0.25"/>
	<stop  offset="0.54" style="stop-color:#808080;stop-opacity:0.12"/>
	<stop  offset="1" style="stop-color:#808080;stop-opacity:0.1"/>
</linearGradient>
<polygon class="st11" points="151.1,38.3 151.9,38 151.7,38 151.8,37.9 151.7,37.9 131,35.3 131.5,42.1 132.1,48.2 133.4,47.5 
	134.6,50.2 "/>
<polygon class="st12" points="132.2,42 132.8,47.5 151.2,38.2 135.2,38.5 "/>
<polygon class="st13" points="132.2,42 132.8,47.5 151.2,38.2 135.2,38.5 "/>
<polygon class="st12" points="131.8,35.7 151.2,38.2 132.2,42 "/>
<polygon class="st12" points="135,49.4 151.1,38.1 132.5,43.7 "/>
<linearGradient id="SVGID_3_" gradientUnits="userSpaceOnUse" x1="488.3901" y1="138.3363" x2="488.3901" y2="153.4565" gradientTransform="matrix(0.9979 -6.540313e-02 -6.540313e-02 -0.9979 -235.9093 191.0951)">
	<stop  offset="0" style="stop-color:#808080;stop-opacity:0.25"/>
	<stop  offset="0.54" style="stop-color:#808080;stop-opacity:0.12"/>
	<stop  offset="1" style="stop-color:#808080;stop-opacity:0.1"/>
</linearGradient>
<polygon class="st14" points="251.2,9.8 252,9.4 251.8,9.4 251.9,9.3 251.7,9.4 231.1,6.7 231.5,13.5 232.2,19.6 233.5,18.9 
	234.6,21.6 "/>
<polygon class="st12" points="232.2,13.4 232.8,18.9 251.3,9.6 235.3,9.9 "/>
<polygon class="st13" points="232.2,13.4 232.8,18.9 251.3,9.6 235.3,9.9 "/>
<polygon class="st12" points="231.8,7.1 251.3,9.6 232.2,13.4 "/>
<polygon class="st12" points="235.1,20.8 251.2,9.5 232.6,15.1 "/>
<linearGradient id="SVGID_4_" gradientUnits="userSpaceOnUse" x1="711.4741" y1="185.4164" x2="711.4741" y2="208.5149" gradientTransform="matrix(0.9725 -0.2331 -0.2331 -0.9725 -232.4928 366.284)">
	<stop  offset="0" style="stop-color:#808080;stop-opacity:0.25"/>
	<stop  offset="0.54" style="stop-color:#808080;stop-opacity:0.12"/>
	<stop  offset="1" style="stop-color:#808080;stop-opacity:0.1"/>
</linearGradient>
<polygon class="st15" points="426.5,0.8 427.6,0.1 427.3,0.1 427.4,0 427.2,0.1 395.4,1.4 397.9,11.6 400.4,20.5 402.2,19.2 
	404.6,22.9 "/>
<polygon class="st12" points="398.9,11.2 401.2,19.4 426.6,0.5 402.6,5.2 "/>
<polygon class="st13" points="398.9,11.2 401.2,19.4 426.6,0.5 402.6,5.2 "/>
<polygon class="st12" points="396.7,1.9 426.6,0.5 398.9,11.2 "/>
<polygon class="st12" points="405.1,21.6 426.4,0.5 399.8,13.6 "/>
<linearGradient id="SVGID_5_" gradientUnits="userSpaceOnUse" x1="521.3948" y1="-11.4909" x2="521.3948" y2="3.6252" gradientTransform="matrix(0.9842 0.1771 0.1771 -0.9842 -180.2623 -36.3644)">
	<stop  offset="0" style="stop-color:#808080;stop-opacity:0.25"/>
	<stop  offset="0.54" style="stop-color:#808080;stop-opacity:0.12"/>
	<stop  offset="1" style="stop-color:#808080;stop-opacity:0.1"/>
</linearGradient>
<polygon class="st16" points="342.2,58.4 343,58.2 342.8,58.2 342.9,58.1 342.8,58.1 323.4,50.6 322.2,57.3 321.3,63.3 322.7,63 
	323.2,65.9 "/>
<polygon class="st12" points="322.9,57.3 322.1,62.9 342.3,58.3 326.6,54.7 "/>
<polygon class="st13" points="322.9,57.3 322.1,62.9 342.3,58.3 326.6,54.7 "/>
<polygon class="st12" points="324,51.2 342.3,58.3 322.9,57.3 "/>
<polygon class="st12" points="323.9,65.2 342.2,58.2 322.8,59 "/>
<g class="st4">
	
		<linearGradient id="SVGID_6_" gradientUnits="userSpaceOnUse" x1="457.5054" y1="20.2463" x2="457.5054" y2="35.3658" gradientTransform="matrix(0.9979 -6.540313e-02 -6.540313e-02 -0.9979 -235.9093 191.0951)">
		<stop  offset="0" style="stop-color:#808080;stop-opacity:0.25"/>
		<stop  offset="0.54" style="stop-color:#808080;stop-opacity:0.12"/>
		<stop  offset="1" style="stop-color:#808080;stop-opacity:0.1"/>
	</linearGradient>
	<polygon class="st17" points="228.1,129.6 228.9,129.2 228.7,129.2 228.8,129.2 228.6,129.2 208,126.5 208.4,133.4 209.1,139.4 
		210.4,138.8 211.5,141.5 	"/>
	<polygon class="st12" points="209.1,133.3 209.7,138.8 228.2,129.4 212.2,129.8 	"/>
	<polygon class="st13" points="209.1,133.3 209.7,138.8 228.2,129.4 212.2,129.8 	"/>
	<polygon class="st12" points="208.7,127 228.2,129.4 209.1,133.3 	"/>
	<polygon class="st12" points="212,140.6 228.1,129.4 209.5,134.9 	"/>
</g>
<g class="st18">
	
		<linearGradient id="SVGID_7_" gradientUnits="userSpaceOnUse" x1="727.3588" y1="143.1564" x2="727.3588" y2="166.2647" gradientTransform="matrix(0.9725 -0.2331 -0.2331 -0.9725 -232.4928 366.284)">
		<stop  offset="0" style="stop-color:#808080;stop-opacity:0.25"/>
		<stop  offset="0.54" style="stop-color:#808080;stop-opacity:0.12"/>
		<stop  offset="1" style="stop-color:#808080;stop-opacity:0.1"/>
	</linearGradient>
	<polygon class="st19" points="451.8,38.2 452.9,37.5 452.6,37.5 452.7,37.4 452.5,37.5 420.7,38.8 423.2,49 425.7,57.9 427.5,56.6 
		429.9,60.3 	"/>
	<polygon class="st12" points="424.2,48.6 426.5,56.8 451.9,37.9 427.9,42.6 	"/>
	<polygon class="st13" points="424.2,48.6 426.5,56.8 451.9,37.9 427.9,42.6 	"/>
	<polygon class="st12" points="422,39.3 451.9,37.9 424.2,48.6 	"/>
	<polygon class="st12" points="430.4,59 451.7,37.9 425.1,51 	"/>
</g>
<g class="st20">
	
		<linearGradient id="SVGID_8_" gradientUnits="userSpaceOnUse" x1="783.8051" y1="15.4264" x2="783.8051" y2="38.5347" gradientTransform="matrix(0.9725 -0.2331 -0.2331 -0.9725 -232.4928 366.284)">
		<stop  offset="0" style="stop-color:#808080;stop-opacity:0.25"/>
		<stop  offset="0.54" style="stop-color:#808080;stop-opacity:0.12"/>
		<stop  offset="1" style="stop-color:#808080;stop-opacity:0.1"/>
	</linearGradient>
	<polygon class="st21" points="536.5,149.3 537.5,148.5 537.3,148.5 537.3,148.4 537.2,148.5 505.4,149.8 507.9,160 510.4,169 
		512.1,167.7 514.6,171.4 	"/>
	<polygon class="st12" points="508.9,159.6 511.2,167.8 536.6,149 512.5,153.7 	"/>
	<polygon class="st13" points="508.9,159.6 511.2,167.8 536.6,149 512.5,153.7 	"/>
	<polygon class="st12" points="506.6,150.3 536.6,149 508.9,159.6 	"/>
	<polygon class="st12" points="515.1,170 536.4,148.9 509.8,162.1 	"/>
</g>
<g class="st20">
	
		<linearGradient id="SVGID_9_" gradientUnits="userSpaceOnUse" x1="1025.4989" y1="-99.0336" x2="1025.4989" y2="-75.9277" gradientTransform="matrix(0.9725 -0.2331 -0.2331 -0.9725 -232.4928 366.284)">
		<stop  offset="0" style="stop-color:#808080;stop-opacity:0.25"/>
		<stop  offset="0.54" style="stop-color:#808080;stop-opacity:0.12"/>
		<stop  offset="1" style="stop-color:#808080;stop-opacity:0.1"/>
	</linearGradient>
	<polygon class="st22" points="798.2,204.3 799.3,203.5 799,203.5 799.1,203.4 798.9,203.5 767.1,204.8 769.6,215 772.1,224 
		773.8,222.6 776.3,226.4 	"/>
	<polygon class="st12" points="770.6,214.6 772.9,222.8 798.3,204 774.2,208.6 	"/>
	<polygon class="st13" points="770.6,214.6 772.9,222.8 798.3,204 774.2,208.6 	"/>
	<polygon class="st12" points="768.3,205.3 798.3,204 770.6,214.6 	"/>
	<polygon class="st12" points="776.8,225 798.1,203.9 771.5,217.1 	"/>
</g>
<g class="st4">
	
		<linearGradient id="SVGID_10_" gradientUnits="userSpaceOnUse" x1="540.4156" y1="-98.5688" x2="540.4156" y2="-83.4527" gradientTransform="matrix(0.9842 0.1771 0.1771 -0.9842 -180.2623 -36.3644)">
		<stop  offset="0" style="stop-color:#808080;stop-opacity:0.25"/>
		<stop  offset="0.54" style="stop-color:#808080;stop-opacity:0.12"/>
		<stop  offset="1" style="stop-color:#808080;stop-opacity:0.1"/>
	</linearGradient>
	<polygon class="st23" points="345.5,147.5 346.3,147.3 346.1,147.2 346.2,147.2 346.1,147.2 326.7,139.6 325.5,146.4 324.6,152.4 
		326,152.1 326.5,155 	"/>
	<polygon class="st12" points="326.2,146.4 325.4,151.9 345.6,147.3 329.9,143.8 	"/>
	<polygon class="st13" points="326.2,146.4 325.4,151.9 345.6,147.3 329.9,143.8 	"/>
	<polygon class="st12" points="327.3,140.3 345.6,147.3 326.2,146.4 	"/>
	<polygon class="st12" points="327.2,154.3 345.5,147.2 326.1,148.1 	"/>
</g>
<g class="st4">
	
		<linearGradient id="SVGID_11_" gradientUnits="userSpaceOnUse" x1="917.4872" y1="-163.6827" x2="917.4872" y2="-148.5667" gradientTransform="matrix(0.9842 0.1771 0.1771 -0.9842 -180.2623 -36.3644)">
		<stop  offset="0" style="stop-color:#808080;stop-opacity:0.25"/>
		<stop  offset="0.54" style="stop-color:#808080;stop-opacity:0.12"/>
		<stop  offset="1" style="stop-color:#808080;stop-opacity:0.1"/>
	</linearGradient>
	<polygon class="st24" points="705,278.3 705.9,278.1 705.7,278.1 705.8,278.1 705.6,278.1 686.3,270.5 685,277.2 684.2,283.3 
		685.6,282.9 686.1,285.8 	"/>
	<polygon class="st12" points="685.7,277.3 685,282.8 705.2,278.2 689.5,274.7 	"/>
	<polygon class="st13" points="685.7,277.3 685,282.8 705.2,278.2 689.5,274.7 	"/>
	<polygon class="st12" points="686.8,271.1 705.2,278.2 685.7,277.3 	"/>
	<polygon class="st12" points="686.8,285.1 705,278.1 685.7,279 	"/>
</g>
<g class="st4">
	
		<linearGradient id="SVGID_12_" gradientUnits="userSpaceOnUse" x1="871.3066" y1="-31.2067" x2="871.3066" y2="-16.0924" gradientTransform="matrix(0.9842 0.1771 0.1771 -0.9842 -180.2623 -36.3644)">
		<stop  offset="0" style="stop-color:#808080;stop-opacity:0.25"/>
		<stop  offset="0.54" style="stop-color:#808080;stop-opacity:0.12"/>
		<stop  offset="1" style="stop-color:#808080;stop-opacity:0.1"/>
	</linearGradient>
	<polygon class="st25" points="683,139.8 683.9,139.6 683.7,139.5 683.8,139.5 683.7,139.5 664.3,131.9 663,138.7 662.2,144.7 
		663.6,144.4 664.1,147.3 	"/>
	<polygon class="st12" points="663.8,138.7 663,144.2 683.2,139.6 667.5,136.1 	"/>
	<polygon class="st13" points="663.8,138.7 663,144.2 683.2,139.6 667.5,136.1 	"/>
	<polygon class="st12" points="664.9,132.6 683.2,139.6 663.8,138.7 	"/>
	<polygon class="st12" points="664.8,146.6 683.1,139.5 663.7,140.4 	"/>
</g>
<g class="st18">
	
		<linearGradient id="SVGID_13_" gradientUnits="userSpaceOnUse" x1="1030.5155" y1="114.7536" x2="1030.5155" y2="129.8679" gradientTransform="matrix(0.9842 0.1771 0.1771 -0.9842 -180.2623 -36.3644)">
		<stop  offset="0" style="stop-color:#808080;stop-opacity:0.25"/>
		<stop  offset="0.54" style="stop-color:#808080;stop-opacity:0.12"/>
		<stop  offset="1" style="stop-color:#808080;stop-opacity:0.1"/>
	</linearGradient>
	<polygon class="st26" points="865.6,24.3 866.4,24.1 866.3,24.1 866.3,24 866.2,24 846.8,16.5 845.6,23.2 844.8,29.3 846.2,28.9 
		846.7,31.8 	"/>
	<polygon class="st12" points="846.3,23.3 845.5,28.8 865.7,24.2 850.1,20.6 	"/>
	<polygon class="st13" points="846.3,23.3 845.5,28.8 865.7,24.2 850.1,20.6 	"/>
	<polygon class="st12" points="847.4,17.1 865.7,24.2 846.3,23.3 	"/>
	<polygon class="st12" points="847.3,31.1 865.6,24.1 846.2,25 	"/>
</g>
<g class="st18">
	
		<linearGradient id="SVGID_14_" gradientUnits="userSpaceOnUse" x1="372.6275" y1="-41.6113" x2="372.6275" y2="-26.4953" gradientTransform="matrix(0.9842 0.1771 0.1771 -0.9842 -180.2623 -36.3644)">
		<stop  offset="0" style="stop-color:#808080;stop-opacity:0.25"/>
		<stop  offset="0.54" style="stop-color:#808080;stop-opacity:0.12"/>
		<stop  offset="1" style="stop-color:#808080;stop-opacity:0.1"/>
	</linearGradient>
	<polygon class="st27" points="190.4,61.7 191.2,61.5 191.1,61.5 191.1,61.4 191,61.4 171.6,53.9 170.4,60.6 169.6,66.6 171,66.3 
		171.5,69.2 	"/>
	<polygon class="st12" points="171.1,60.7 170.4,66.2 190.5,61.5 174.9,58 	"/>
	<polygon class="st13" points="171.1,60.7 170.4,66.2 190.5,61.5 174.9,58 	"/>
	<polygon class="st12" points="172.2,54.5 190.5,61.5 171.1,60.7 	"/>
	<polygon class="st12" points="172.1,68.5 190.4,61.5 171,62.3 	"/>
</g>
<linearGradient id="SVGID_15_" gradientUnits="userSpaceOnUse" x1="811.4398" y1="83.6763" x2="811.4398" y2="106.782" gradientTransform="matrix(0.9979 -6.540313e-02 -6.540313e-02 -0.9979 -235.9093 191.0951)">
	<stop  offset="0" style="stop-color:#808080;stop-opacity:0.25"/>
	<stop  offset="0.54" style="stop-color:#808080;stop-opacity:0.12"/>
	<stop  offset="1" style="stop-color:#808080;stop-opacity:0.1"/>
</linearGradient>
<polygon class="st28" points="581.8,37.2 583,36.6 582.7,36.6 582.8,36.5 582.6,36.5 551.1,32.5 551.8,42.9 552.7,52.2 554.7,51.2 
	556.5,55.3 "/>
<polygon class="st12" points="552.8,42.7 553.7,51.2 581.9,36.9 557.4,37.4 "/>
<polygon class="st13" points="552.8,42.7 553.7,51.2 581.9,36.9 557.4,37.4 "/>
<polygon class="st12" points="552.2,33.2 581.9,36.9 552.8,42.7 "/>
<polygon class="st12" points="557.2,54 581.8,36.8 553.3,45.3 "/>
<linearGradient id="SVGID_16_" gradientUnits="userSpaceOnUse" x1="752.8185" y1="-319.8688" x2="752.8185" y2="-267.0135" gradientTransform="matrix(0.8905 0.4551 0.4551 -0.8905 83.68 -410.4554)">
	<stop  offset="0" style="stop-color:#808080;stop-opacity:0.25"/>
	<stop  offset="0.54" style="stop-color:#808080;stop-opacity:0.12"/>
	<stop  offset="1" style="stop-color:#808080;stop-opacity:0.1"/>
</linearGradient>
<polygon class="st29" points="655.3,198.8 658.2,199 657.7,198.6 658,198.6 657.6,198.5 600.4,153.5 589.5,174.8 580.6,194.1 
	585.5,194.4 584.3,204.6 "/>
<polygon class="st12" points="591.8,175.6 583.6,193.3 655.8,198.3 607.1,170.7 "/>
<polygon class="st13" points="591.8,175.6 583.6,193.3 655.8,198.3 607.1,170.7 "/>
<polygon class="st12" points="601.7,156.1 655.8,198.3 591.8,175.6 "/>
<polygon class="st12" points="587.2,203 655.6,198 589.7,181.2 "/>
<linearGradient id="SVGID_17_" gradientUnits="userSpaceOnUse" x1="949.1066" y1="-504.59" x2="949.1066" y2="-394.21" gradientTransform="matrix(0.9 0.43 0.43 -0.9 161.12 -451.29)">
	<stop  offset="0" style="stop-color:#808080;stop-opacity:0.25"/>
	<stop  offset="0.54" style="stop-color:#808080;stop-opacity:0.12"/>
	<stop  offset="1" style="stop-color:#808080;stop-opacity:0.1"/>
</linearGradient>
<polygon class="st30" points="895.7,369.1 901.9,369.3 900.8,368.5 901.3,368.5 900.5,368.3 778.3,278 756.9,323.2 739.5,364.1 
	749.9,364.5 747.9,385.7 "/>
<polygon class="st12" points="761.7,324.8 745.9,362.3 896.8,368.1 793.3,313.5 "/>
<polygon class="st13" points="761.7,324.8 745.9,362.3 896.8,368.1 793.3,313.5 "/>
<polygon class="st12" points="781.3,283.5 896.8,368.1 761.7,324.8 "/>
<polygon class="st12" points="753.8,382.2 896.3,367.4 757.8,336.6 "/>
<linearGradient id="SVGID_18_" gradientUnits="userSpaceOnUse" x1="988.5621" y1="47.256" x2="988.5621" y2="100.0778" gradientTransform="matrix(1 -1.000000e-02 -1.000000e-02 -1 -230.04 124.52)">
	<stop  offset="0" style="stop-color:#808080;stop-opacity:0.25"/>
	<stop  offset="0.54" style="stop-color:#808080;stop-opacity:0.12"/>
	<stop  offset="1" style="stop-color:#808080;stop-opacity:0.1"/>
</linearGradient>
<polygon class="st31" points="791.1,25.2 793.8,24 793.1,23.9 793.3,23.8 793,23.9 721.3,10.8 721.7,34.8 722.9,56.1 727.4,54 
	731,63.6 "/>
<polygon class="st12" points="724.1,34.5 725.2,53.9 791.3,24.6 735.3,22.9 "/>
<polygon class="st13" points="724.1,34.5 725.2,53.9 791.3,24.6 735.3,22.9 "/>
<polygon class="st12" points="723.8,12.6 791.3,24.6 724.1,34.5 "/>
<polygon class="st12" points="732.8,60.8 791,24.4 724.9,40.3 "/>
<linearGradient id="SVGID_19_" gradientUnits="userSpaceOnUse" x1="1063.6318" y1="-34.094" x2="1063.6318" y2="18.7277" gradientTransform="matrix(1 -1.000000e-02 -1.000000e-02 -1 -230.04 124.52)">
	<stop  offset="0" style="stop-color:#808080;stop-opacity:0.25"/>
	<stop  offset="0.54" style="stop-color:#808080;stop-opacity:0.12"/>
	<stop  offset="1" style="stop-color:#808080;stop-opacity:0.1"/>
</linearGradient>
<polygon class="st32" points="866.9,105.5 869.6,104.3 869,104.2 869.2,104 868.8,104.1 797.2,91.1 797.6,115.1 798.7,136.3 
	803.3,134.3 806.9,143.8 "/>
<polygon class="st12" points="800,114.7 801.1,134.2 867.2,104.8 811.2,103.2 "/>
<polygon class="st13" points="800,114.7 801.1,134.2 867.2,104.8 811.2,103.2 "/>
<polygon class="st12" points="799.7,92.8 867.2,104.8 800,114.7 "/>
<polygon class="st12" points="808.7,141.1 866.8,104.6 800.8,120.6 "/>
<linearGradient id="SVGID_20_" gradientUnits="userSpaceOnUse" x1="708.2362" y1="26.7563" x2="708.2362" y2="49.8613" gradientTransform="matrix(0.9979 -6.540313e-02 -6.540313e-02 -0.9979 -235.9093 191.0951)">
	<stop  offset="0" style="stop-color:#808080;stop-opacity:0.25"/>
	<stop  offset="0.54" style="stop-color:#808080;stop-opacity:0.12"/>
	<stop  offset="1" style="stop-color:#808080;stop-opacity:0.1"/>
</linearGradient>
<polygon class="st33" points="482.5,100.7 483.7,100.1 483.4,100.1 483.5,100.1 483.3,100.1 451.8,96 452.5,106.5 453.5,115.7 
	455.4,114.7 457.2,118.8 "/>
<polygon class="st12" points="453.5,106.3 454.5,114.7 482.6,100.4 458.2,101 "/>
<polygon class="st13" points="453.5,106.3 454.5,114.7 482.6,100.4 458.2,101 "/>
<polygon class="st12" points="452.9,96.7 482.6,100.4 453.5,106.3 "/>
<polygon class="st12" points="457.9,117.6 482.5,100.4 454,108.8 "/>
<linearGradient id="SVGID_21_" gradientUnits="userSpaceOnUse" x1="898.9964" y1="28.5763" x2="898.9964" y2="51.6813" gradientTransform="matrix(0.9979 -6.540313e-02 -6.540313e-02 -0.9979 -235.9093 191.0951)">
	<stop  offset="0" style="stop-color:#808080;stop-opacity:0.25"/>
	<stop  offset="0.54" style="stop-color:#808080;stop-opacity:0.12"/>
	<stop  offset="1" style="stop-color:#808080;stop-opacity:0.1"/>
</linearGradient>
<polygon class="st34" points="672.8,86.4 673.9,85.8 673.7,85.8 673.8,85.8 673.6,85.8 642,81.7 642.7,92.2 643.7,101.4 
	645.7,100.4 647.5,104.5 "/>
<polygon class="st12" points="643.8,92 644.7,100.4 672.9,86.2 648.4,86.7 "/>
<polygon class="st13" points="643.8,92 644.7,100.4 672.9,86.2 648.4,86.7 "/>
<polygon class="st12" points="643.2,82.4 672.9,86.2 643.8,92 "/>
<polygon class="st12" points="648.2,103.3 672.7,86.1 644.3,94.5 "/>
</svg>
