<?xml version="1.0" encoding="utf-8"?>
<!-- Generator: Adobe Illustrator 22.1.0, SVG Export Plug-In . SVG Version: 6.00 Build 0)  -->
<svg version="1.1" id="Layer_1" xmlns="http://www.w3.org/2000/svg" xmlns:xlink="http://www.w3.org/1999/xlink" x="0px" y="0px"
	 viewBox="0 0 150 150" style="enable-background:new 0 0 150 150;" xml:space="preserve">
<style type="text/css">
	.st0{fill:none;stroke:#151B26;stroke-width:2;stroke-linecap:round;stroke-linejoin:round;stroke-miterlimit:10;}
</style>
<g>
	<line class="st0" x1="43.9" y1="86.7" x2="43.9" y2="84.9"/>
	<rect x="20.5" y="55.3" class="st0" width="109" height="74.5"/>
	<polyline class="st0" points="37.4,91.8 37.4,100.3 43.9,105.3 50.4,100.3 50.4,91.8 	"/>
	<rect x="34.6" y="79.8" class="st0" width="18.6" height="12"/>
	<line class="st0" x1="37.4" y1="55.3" x2="37.4" y2="79.8"/>
	<line class="st0" x1="50.4" y1="79.8" x2="50.4" y2="55.3"/>
	<line class="st0" x1="106.6" y1="86.7" x2="106.6" y2="84.9"/>
	<polyline class="st0" points="100.1,91.8 100.1,100.3 106.6,105.3 113.1,100.3 113.1,91.8 	"/>
	<rect x="97.2" y="79.8" class="st0" width="18.6" height="12"/>
	<rect x="65.9" y="81.4" class="st0" width="18.6" height="8.8"/>
	<line class="st0" x1="100.1" y1="55.3" x2="100.1" y2="79.8"/>
	<line class="st0" x1="113.1" y1="79.8" x2="113.1" y2="55.3"/>
	<line class="st0" x1="34.6" y1="85.7" x2="20.5" y2="85.7"/>
	<line class="st0" x1="129.5" y1="85.7" x2="115.9" y2="85.7"/>
	<line class="st0" x1="97.2" y1="85.7" x2="84.6" y2="85.7"/>
	<line class="st0" x1="65.9" y1="85.7" x2="53.2" y2="85.7"/>
	<line class="st0" x1="129.5" y1="122.8" x2="20.5" y2="122.8"/>
	<path class="st0" d="M62.9,36v10.3c0,1.5,1,2.8,2.4,3.1c1.9,0.4,3.6-1.1,3.7-2.9v0.1c0,1.3,0.8,2.5,2,2.9c2.1,0.7,4.1-0.8,4.1-2.9
		v-0.1c0,1.6,1.4,3,3,3c1.7,0,3-1.3,3-3v0.1c0,1.3,0.8,2.5,2,2.9c2.1,0.7,4.1-0.8,4.1-2.9V32.5c0-1.9-0.3-3.8-0.8-5.6l-1.9-6.7"/>
	<path class="st0" d="M61.8,42.1L61.8,42.1c-2.2,0-3.9-1.8-3.9-3.9v-4c0-4.4,1.7-6.4,3.6-7.3c2.5-1.2,4.2-3.6,4.2-6.4v-0.3"/>
	<polyline class="st0" points="87.3,45.8 91.1,45.8 91.1,55.3 	"/>
	<polyline class="st0" points="58.9,55.3 58.9,45.8 62.9,45.8 	"/>
	<line class="st0" x1="81.2" y1="43.6" x2="81.2" y2="46.4"/>
	<line class="st0" x1="75.1" y1="43.6" x2="75.1" y2="46.4"/>
	<line class="st0" x1="69" y1="43.6" x2="69" y2="46.4"/>
</g>
</svg>
