<?xml version="1.0" encoding="utf-8"?>
<!-- Generator: Adobe Illustrator 22.1.0, SVG Export Plug-In . SVG Version: 6.00 Build 0)  -->
<svg version="1.1" id="Layer_1" xmlns="http://www.w3.org/2000/svg" xmlns:xlink="http://www.w3.org/1999/xlink" x="0px" y="0px"
	 viewBox="0 0 150 150" style="enable-background:new 0 0 150 150;" xml:space="preserve">
<style type="text/css">
	.st0{fill:none;stroke:#21C87A;stroke-width:2;stroke-linecap:round;stroke-linejoin:round;stroke-miterlimit:10;}
</style>
<g>
	<g>
		<path class="st0" d="M62.4,131.5H31.8c-2.2,0-4-1.8-4-4V60.4c0-2.2,1.8-4,4-4h30.6c2.2,0,4,1.8,4,4v67.1
			C66.4,129.7,64.6,131.5,62.4,131.5z"/>
		<path class="st0" d="M88.2,120.6c0,1.4-1.1,2.5-2.5,2.5c-1.4,0-2.5-1.1-2.5-2.5c0-1.4,1.1-2.5,2.5-2.5
			C87.1,118.1,88.2,119.2,88.2,120.6z"/>
		<circle class="st0" cx="47.8" cy="125.2" r="2.5"/>
		<line class="st0" x1="32.3" y1="65" x2="61.7" y2="65"/>
		<line class="st0" x1="61.7" y1="119.6" x2="32.3" y2="119.6"/>
		<line class="st0" x1="39.2" y1="60.4" x2="41.9" y2="60.4"/>
		<line class="st0" x1="45.3" y1="60.4" x2="57.1" y2="60.4"/>
		<line class="st0" x1="24.8" y1="66.2" x2="24.8" y2="71.3"/>
		<line class="st0" x1="24.8" y1="74.9" x2="24.8" y2="83.1"/>
		<path class="st0" d="M46,51V22.2c0-2,1.7-3.7,3.7-3.7h71.8c2,0,3.7,1.7,3.7,3.7v101.9c0,2-1.7,3.7-3.7,3.7H69.7"/>
		<polyline class="st0" points="53.6,51 53.6,27.9 117.8,27.9 117.8,82.6 		"/>
		<path class="st0" d="M52.6,118.6"/>
		<polyline class="st0" points="117.8,97.8 117.8,113.1 67.3,113.1 		"/>
		<line class="st0" x1="111.5" y1="35.1" x2="79.8" y2="76.5"/>
		<line class="st0" x1="89.7" y1="73.9" x2="99.9" y2="60.7"/>
		<line class="st0" x1="103.1" y1="56.4" x2="107.7" y2="50.6"/>
		<line class="st0" x1="57.4" y1="75.8" x2="35.7" y2="104.2"/>
		<line class="st0" x1="42.4" y1="102.5" x2="49.4" y2="93.4"/>
		<line class="st0" x1="51.7" y1="90.5" x2="54.8" y2="86.4"/>
		<line class="st0" x1="80.6" y1="23.4" x2="90.6" y2="23.4"/>
	</g>
	<line class="st0" x1="72.3" y1="104.2" x2="83.2" y2="89.6"/>
</g>
</svg>
