<?xml version="1.0" encoding="utf-8"?>
<!-- Generator: Adobe Illustrator 22.1.0, SVG Export Plug-In . SVG Version: 6.00 Build 0)  -->
<svg version="1.1" id="Layer_1" xmlns="http://www.w3.org/2000/svg" xmlns:xlink="http://www.w3.org/1999/xlink" x="0px" y="0px"
	 viewBox="0 0 151 151" style="enable-background:new 0 0 151 151;" xml:space="preserve">
<style type="text/css">
	.st0{fill:none;stroke:#796EFF;stroke-width:2;stroke-linecap:round;stroke-linejoin:round;stroke-miterlimit:10;}
</style>
<g>
	<g>
		<path class="st0" d="M63.1,131.1H33c-2.2,0-3.9-1.8-3.9-3.9v-66c0-2.2,1.8-3.9,3.9-3.9h30.1c2.2,0,3.9,1.8,3.9,3.9v66
			C67,129.3,65.2,131.1,63.1,131.1z"/>
		<path class="st0" d="M88.5,120.3c0,1.4-1.1,2.5-2.5,2.5c-1.4,0-2.5-1.1-2.5-2.5c0-1.4,1.1-2.5,2.5-2.5
			C87.4,117.9,88.5,119,88.5,120.3z"/>
		<circle class="st0" cx="48.7" cy="124.9" r="2.5"/>
		<line class="st0" x1="33.5" y1="65.7" x2="62.4" y2="65.7"/>
		<line class="st0" x1="62.4" y1="119.3" x2="33.5" y2="119.3"/>
		<line class="st0" x1="40.3" y1="61.2" x2="42.9" y2="61.2"/>
		<line class="st0" x1="46.3" y1="61.2" x2="57.9" y2="61.2"/>
		<line class="st0" x1="26.2" y1="66.8" x2="26.2" y2="71.9"/>
		<line class="st0" x1="26.2" y1="75.4" x2="26.2" y2="83.4"/>
		<path class="st0" d="M47,51.9V23.6c0-2,1.6-3.6,3.6-3.6h70.6c2,0,3.6,1.6,3.6,3.6v100.2c0,2-1.6,3.6-3.6,3.6H70.3"/>
		<polyline class="st0" points="54.4,51.9 54.4,29.1 117.6,29.1 117.6,83 		"/>
		<path class="st0" d="M53.5,118.4"/>
		<polyline class="st0" points="117.6,98 117.6,112.9 67.9,112.9 		"/>
		<line class="st0" x1="111.4" y1="36.3" x2="80.3" y2="76.9"/>
		<line class="st0" x1="89.9" y1="74.4" x2="99.9" y2="61.4"/>
		<line class="st0" x1="103.1" y1="57.2" x2="107.7" y2="51.5"/>
		<line class="st0" x1="58.2" y1="76.3" x2="36.8" y2="104.2"/>
		<line class="st0" x1="43.5" y1="102.5" x2="50.3" y2="93.6"/>
		<line class="st0" x1="52.5" y1="90.7" x2="55.7" y2="86.8"/>
		<line class="st0" x1="81" y1="24.7" x2="90.8" y2="24.7"/>
	</g>
	<line class="st0" x1="72.8" y1="104.2" x2="83.5" y2="89.9"/>
</g>
</svg>
