<?xml version="1.0" encoding="utf-8"?>
<!-- Generator: Adobe Illustrator 22.1.0, SVG Export Plug-In . SVG Version: 6.00 Build 0)  -->
<svg version="1.1" id="Layer_1" xmlns="http://www.w3.org/2000/svg" xmlns:xlink="http://www.w3.org/1999/xlink" x="0px" y="0px"
	 viewBox="0 0 150 150" style="enable-background:new 0 0 150 150;" xml:space="preserve">
<style type="text/css">
	.st0{fill:#796EFF;}
	.st1{fill:none;stroke:#FFFFFF;stroke-width:2;stroke-linecap:round;stroke-linejoin:round;stroke-miterlimit:10;}
	.st2{fill:#FFFFFF;stroke:#FFFFFF;stroke-width:2;stroke-linecap:round;stroke-linejoin:round;stroke-miterlimit:10;}
	.st3{fill:none;stroke:#796EFF;stroke-width:2;stroke-linecap:round;stroke-linejoin:round;stroke-miterlimit:10;}
</style>
<path class="st0" d="M143.2,33.9l-0.2-4.7l-4.7-0.5c-17.7-1.9-32.9-8.4-42.7-13.8C85,9.1,78.5,3.8,78.5,3.8l-3.5-3l-3.5,3
	c0,0-6.5,5.4-17,11.2c-9.6,5.1-25,11.9-42.7,13.8L7,29.2l-0.2,4.7c0,0.9-0.7,20.5,6.8,44.6c4.4,14,11,26.9,19.4,37.6
	c10.5,13.5,23.8,24.3,39.5,32l2.3,1.2l2.3-1.2c15.9-7.5,29.2-18.2,39.5-32c8.4-10.7,14.7-23.6,19.4-37.6
	C143.9,54.5,143.2,34.6,143.2,33.9z"/>
<g>
	<g>
		<g>
			<line class="st1" x1="42.6" y1="99.2" x2="39.3" y2="102.4"/>
		</g>
		<line class="st1" x1="44.2" y1="105.5" x2="42.8" y2="106.9"/>
		<g>
			<path class="st2" d="M66.9,86.1c2.5,2.2,5.1,4.2,7.8,5.9c6.6-2.9,13-7.2,18.7-12.8c11.7-11.7,17.6-26.6,17.1-39.9
				c-13.3-0.5-28.2,5.3-39.9,17.1c-5.7,5.7-10,12.1-12.8,18.7c1.7,2.7,3.6,5.4,5.9,7.8"/>
			<path class="st2" d="M96,41c1.6,2.6,3.4,5,5.6,7.1c2.2,2.2,4.5,4,7.1,5.5"/>
		</g>
		<g>
			<path class="st3" d="M88.1,53.2c1.2-0.3,2.5-0.2,3.7,0.1"/>
			<path class="st3" d="M84.8,64.9c-2.7-2.7-2.7-7.1,0-9.8"/>
			<circle class="st3" cx="89.7" cy="60" r="10.4"/>
		</g>
		<g>
			<path class="st1" d="M64.3,63.6c-5.9-0.9-12.2,0.9-16.8,5.5c-1.8,1.8-3.2,3.9-4.1,6.1c4.2-0.8,9.1-0.9,14.4-0.3
				C59.5,71,61.6,67.2,64.3,63.6z"/>
			<path class="st1" d="M75.1,102.5c0,0.3-0.4,2.4-0.4,2.7c-0.1,0.4-0.1,0.8-0.2,1.1c2.2-0.9,4.3-2.3,6.1-4.1
				c4.6-4.6,6.4-10.9,5.5-16.8c-3.6,2.6-7.4,4.8-11.3,6.5c0.3,2.8,0.5,5.6,0.4,8.2"/>
		</g>
		<g>
			<path class="st3" d="M70.1,82.8c2.9,2.7,6,4.9,9.3,6.7"/>
			<path class="st3" d="M60.1,70.2c1.8,3.3,4.1,6.4,6.7,9.3"/>
		</g>
		<path class="st3" d="M59.1,90.5L59.1,90.5c-0.9-0.9-0.9-2.4,0-3.3l12.1-12.1c0.9-0.9,2.4-0.9,3.3,0v0c0.9,0.9,0.9,2.4,0,3.3
			L62.4,90.5C61.5,91.4,60,91.4,59.1,90.5z"/>
		<path class="st1" d="M72.4,95c-2.1-1.3-4.1-2.8-6.1-4.5l-2,2c-1.9,1.9-5,1.9-6.8,0v0c-1.9-1.9-1.9-5,0-6.8l2-2
			c-1.8-2.1-3.3-4.2-4.7-6.4c-1.8,1-3.5,2.3-5.1,3.9c-4.6,4.6-6.7,10.3-5.8,14.6c0.9,0.2,1.9,0.2,2.9,0.2c-0.8,2.7-1,5.3-0.6,7.7
			c2.3,0.5,4.9,0.3,7.7-0.6c-0.1,1,0,2,0.2,2.9c4.3,0.9,10-1.2,14.6-5.8C70.1,98.5,71.4,96.8,72.4,95z"/>
		<g>
			<line class="st1" x1="50.3" y1="71.4" x2="44.7" y2="77"/>
			<line class="st1" x1="48.4" y1="77.9" x2="44.2" y2="82.1"/>
			<line class="st1" x1="41.9" y1="79.8" x2="40.9" y2="80.7"/>
			<line class="st1" x1="78.3" y1="99.4" x2="69.3" y2="108.4"/>
			<line class="st1" x1="71.7" y1="101.3" x2="67.5" y2="105.5"/>
			<line class="st1" x1="64.7" y1="108.3" x2="63.3" y2="109.7"/>
		</g>
	</g>
</g>
<g>
</g>
<g>
</g>
<g>
</g>
<g>
</g>
<g>
</g>
</svg>
