<?xml version="1.0" encoding="utf-8"?>
<!-- Generator: Adobe Illustrator 22.1.0, SVG Export Plug-In . SVG Version: 6.00 Build 0)  -->
<svg version="1.1" id="Layer_1" xmlns="http://www.w3.org/2000/svg" xmlns:xlink="http://www.w3.org/1999/xlink" x="0px" y="0px"
	 viewBox="0 0 150 150" style="enable-background:new 0 0 150 150;" xml:space="preserve">
<style type="text/css">
	.st0{fill:none;stroke:#1C6BE1;stroke-width:2;stroke-linecap:round;stroke-linejoin:round;stroke-miterlimit:10;}
</style>
<g>
	<g>
		<g>
			<path class="st0" d="M28.1,97.2V46.4c0-2.4,1.9-4.3,4.3-4.3h85.9c2.4,0,4.3,1.9,4.3,4.3v50.8"/>
			<polyline class="st0" points="34.6,97.5 34.6,49.2 116.2,49.2 116.2,76.5 			"/>
			<path class="st0" d="M118.9,105.7h4.4c5.4,0,11.1-8.1,11.1-8.1H119"/>
			<path class="st0" d="M75.8,99.9H62v-2.4H15.1c0,0,6.6,8.1,12.4,8.1h48.9"/>
		</g>
	</g>
	<g>
		<path class="st0" d="M114.7,113H80.5c-2.3,0-4.2-1.9-4.2-4.2v-28c0-2.3,1.9-4.2,4.2-4.2h34.2c2.3,0,4.2,1.9,4.2,4.2v28
			C118.9,111.1,117,113,114.7,113z"/>
		<path class="st0" d="M109.2,91.5c0.3,1.1,0.5,2.2,0.5,3.3c0,6.7-5.4,12-12,12c-6.7,0-12-5.4-12-12c0-6.7,5.4-12,12-12
			c3,0,5.8,1.1,7.9,3"/>
		<polyline class="st0" points="92.8,93.4 97.6,98.4 111.4,84.6 		"/>
		<path class="st0" d="M84.7,76.6V70c0-7.1,5.8-12.9,12.9-12.9l0,0c7.1,0,12.9,5.8,12.9,12.9v6.7"/>
		<path class="st0" d="M90.1,76.6v-6.3c0-4.2,3.4-7.5,7.5-7.5l0,0c4.2,0,7.5,3.4,7.5,7.5v6.3"/>
	</g>
</g>
</svg>
