<?xml version="1.0" encoding="utf-8"?>
<!-- Generator: Adobe Illustrator 22.1.0, SVG Export Plug-In . SVG Version: 6.00 Build 0)  -->
<svg version="1.1" id="Layer_1" xmlns="http://www.w3.org/2000/svg" xmlns:xlink="http://www.w3.org/1999/xlink" x="0px" y="0px"
	 viewBox="0 0 150 150" style="enable-background:new 0 0 150 150;" xml:space="preserve">
<style type="text/css">
	.st0{fill:none;stroke:#000000;stroke-width:2;stroke-linecap:round;stroke-linejoin:round;stroke-miterlimit:10;}
	.st1{fill:#FFFFFF;stroke:#000000;stroke-width:1.75;stroke-linecap:round;stroke-linejoin:round;stroke-miterlimit:10;}
	.st2{fill:none;stroke:#000000;stroke-width:1.75;stroke-linecap:round;stroke-linejoin:round;stroke-miterlimit:10;}
</style>
<g>
	<g>
		<g>
			<path class="st0" d="M75.8,53.3c0.8-2.4,1.2-5,1.2-7.7c0-12.7-9.2-22.2-20.5-22.2C45.2,23.5,36,33,36,45.7c0,2.7,0.4,5.3,1.2,7.7
				c-1.6,1.1-2.6,2.9-2.6,5c0,2.7,1.8,5,4.2,5.7c2.9,8.8,9.8,14.9,17.7,14.9s14.8-6.1,17.7-14.9c2.4-0.7,4.2-3,4.2-5.7
				C78.4,56.2,77.4,54.4,75.8,53.3z"/>
			<path class="st0" d="M72.8,45.2c-0.7-2.8-3.6-4.9-6-4.9c-0.8,0-3.1,0.7-3.1,0.7l2.9-4.6c0,0-2.5-0.1-6.8,3.8
				c-8.9,8-18.6,1.7-18.6,1.7"/>
			<g>
				<g>
					<line class="st0" x1="53" y1="93.2" x2="53" y2="116.5"/>
					<line class="st0" x1="60.5" y1="93.2" x2="60.5" y2="116.5"/>
				</g>
				<g>
					<path class="st0" d="M51.4,54.5c-0.5-0.4-1.5-0.7-2.5-0.7c-1,0-1.9,0.3-2.5,0.7"/>
					<path class="st0" d="M66.6,54.5c-0.5-0.4-1.5-0.7-2.5-0.7c-1,0-1.9,0.3-2.5,0.7"/>
				</g>
				<path class="st0" d="M37.3,45.2"/>
				<polyline class="st0" points="56.8,89 64.3,97.5 74.4,86.5 70,79 				"/>
				<path class="st0" d="M39.2,86.2l-19,7.8c-1.2,0.7-2.2,1.7-3,2.8c-1.3,1.8-2,3.9-2,6.2v13.5"/>
				<path class="st0" d="M74.2,86.2l19.4,8.2c3.6,1.8,5,5.4,5,9v0.8v12.3"/>
				<path class="st0" d="M38.1,56.1"/>
				<polyline class="st0" points="56.8,89 49.2,97.5 39.1,86.5 43.5,79 				"/>
				<line class="st0" x1="70" y1="79" x2="56.8" y2="89"/>
				<line class="st0" x1="43.5" y1="79" x2="56.8" y2="89"/>
			</g>
		</g>
	</g>
	<g>
		<path class="st1" d="M129.8,110.5c2.1-4.2,3.3-9,3.3-14V84.7l-21.3-7.1l-21.3,7.1v11.8c0,13.9,8.9,25.7,21.3,30.1
			c4.6-1.6,8.7-4.3,12-7.6"/>
		<path class="st1" d="M127,107.3c1.2-3,1.9-6.3,1.9-9.7v-9.5l-17.2-5.7l-17.2,5.7v9.5c0,11.1,7.2,20.7,17.2,24.2
			c3.9-1.4,7.3-3.7,10.1-6.6"/>
		<line class="st2" x1="111.8" y1="121.8" x2="111.8" y2="82.4"/>
		<polygon class="st2" points="125.1,102.9 128,109.7 134.8,112.5 128,115.4 125.1,122.2 122.3,115.4 115.5,112.5 122.3,109.7 		"/>
	</g>
</g>
</svg>
