<?xml version="1.0" encoding="utf-8"?>
<!-- Generator: Adobe Illustrator 22.1.0, SVG Export Plug-In . SVG Version: 6.00 Build 0)  -->
<svg version="1.1" id="Layer_1" xmlns="http://www.w3.org/2000/svg" xmlns:xlink="http://www.w3.org/1999/xlink" x="0px" y="0px"
	 viewBox="0 0 150 150" style="enable-background:new 0 0 150 150;" xml:space="preserve">
<style type="text/css">
	.st0{fill:none;stroke:#FFFFFF;stroke-width:2;stroke-linecap:round;stroke-linejoin:round;stroke-miterlimit:10;}
	
		.st1{fill:none;stroke:#FFFFFF;stroke-width:2;stroke-linecap:round;stroke-linejoin:round;stroke-miterlimit:10;stroke-dasharray:6;}
</style>
<g>
	<g>
		<path class="st0" d="M95.1,56.6c2.5,4.2,3.7,9,3.5,13.8c-0.2,6.1-2.7,12.2-7.4,16.9c-9.8,9.8-25.8,9.8-35.7,0
			c-9.8-9.8-9.8-25.8,0-35.7c9.8-9.8,25.8-9.8,35.7,0"/>
		<path class="st1" d="M73.4,100.6c-7.2,0-13.8-2.4-19.1-6.5"/>
		<path class="st0" d="M54.3,94.1c-7.3-5.7-12-14.6-12-24.6c0-17.2,13.9-31.1,31.1-31.1c17.2,0,31.1,13.9,31.1,31.1
			s-13.9,31.1-31.1,31.1"/>
		<path class="st0" d="M130.4,126.8L130.4,126.8c-2.6,2.6-6.8,2.6-9.4,0l-21.3-21.3l9.4-9.4l21.3,21.3
			C133,120,133,124.2,130.4,126.8z"/>
		<line class="st0" x1="114.4" y1="119.4" x2="116.6" y2="117.3"/>
		<line class="st0" x1="110.1" y1="115.1" x2="114.4" y2="110.8"/>
		<line class="st0" x1="102" y1="103.3" x2="92.8" y2="94.1"/>
		<line class="st0" x1="100.8" y1="92.3" x2="106.9" y2="98.4"/>
		<path class="st0" d="M128.2,124.3c0,0,1.3-1.6,0-4.5"/>
		<path class="st0" d="M68.3,51.6c0,0-10.5,0.6-12.5,11.3"/>
	</g>
	<path class="st0" d="M51.8,97.6H22.4c-2.6,0-4.8-2.1-4.8-4.8V26c0-2.6,2.1-4.8,4.8-4.8h102.3c2.6,0,4.8,2.1,4.8,4.8v66.8
		c0,2.6-2.1,4.8-4.8,4.8h-8.1"/>
	
		<ellipse transform="matrix(4.158638e-02 -0.9991 0.9991 4.158638e-02 17.1891 80.3294)" class="st0" cx="50.5" cy="31.2" rx="3.1" ry="3.1"/>
	<circle class="st0" cx="38.9" cy="31.2" r="3.1"/>
	<circle class="st0" cx="27.4" cy="31.2" r="3.1"/>
	<rect x="60.5" y="28.1" class="st0" width="60.7" height="6.2"/>
	<line class="st0" x1="18.2" y1="42.5" x2="50.5" y2="42.5"/>
	<g>
		<path class="st0" d="M92.6,79.8"/>
		<polyline class="st0" points="103.8,60.3 113.3,60.3 113.3,77 104.2,77 		"/>
		<path class="st0" d="M92.6,57.5"/>
		<path class="st0" d="M62.4,57.5"/>
		<polyline class="st0" points="71.3,57.5 84.7,57.5 84.7,79.8 62.4,79.8 62.4,66.3 		"/>
		<path class="st0" d="M54.4,57.5"/>
		<polyline class="st0" points="39.3,76.7 33.3,76.7 33.3,60.7 38.2,60.7 		"/>
		<path class="st0" d="M54.4,79.8"/>
	</g>
	<line class="st0" x1="98.6" y1="42.5" x2="128.8" y2="42.5"/>
</g>
</svg>
