<?xml version="1.0" encoding="utf-8"?>
<!-- Generator: Adobe Illustrator 22.1.0, SVG Export Plug-In . SVG Version: 6.00 Build 0)  -->
<svg version="1.1" id="_x37_0093593-85a2-447b-b81e-208691c845a3"
	 xmlns="http://www.w3.org/2000/svg" xmlns:xlink="http://www.w3.org/1999/xlink" x="0px" y="0px" viewBox="0 0 1113.8 825.7"
	 style="enable-background:new 0 0 1113.8 825.7;" xml:space="preserve">
<style type="text/css">
	.st0{opacity:0.1;fill:#796EFF;enable-background:new    ;}
	.st1{fill:#464A5F;}
	.st2{opacity:0.1;enable-background:new    ;}
	.st3{fill:#9C9CA1;}
	.st4{fill:#D4D7DD;}
	.st5{opacity:0.1;fill:#E3E6F0;enable-background:new    ;}
	.st6{fill:#E3E6F0;}
	.st7{opacity:0.1;}
	.st8{fill:#BFC3CA;}
	.st9{fill:#21C87A;}
	.st10{fill:none;stroke:#565987;stroke-miterlimit:10;}
	.st11{fill:#FFD037;}
	.st12{fill:#A8A8A8;}
	.st13{opacity:0.2;enable-background:new    ;}
	.st14{fill:url(#SVGID_1_);}
	.st15{fill:#464353;}
	.st16{fill:#ECB4B6;}
	.st17{fill:#C17174;}
	.st18{fill:#5E5A6B;}
</style>
<title>startup life</title>
<path class="st0" d="M490.9,31.2c-44.1-17.9-90.6-32.9-138.2-31C282.8,2.9,215.8,45,182.9,106.7C155,159,151.5,220.3,139.5,278.3
	c-14.8,71.5-43.2,139.5-73.4,205.9C49.8,520,32.7,556.4,30,595.6C26.3,649.9,52.3,704,93,740.2s94.8,55.2,149.1,59.4
	c28.9,2.2,59.1,0.2,84.8-13.3c27.1-14.2,46.9-39.9,74.2-54c25.3-13,54.8-14.8,83.2-13.1c37.1,2.2,73.7,10,108.6,23.1
	c39.6,14.9,76.5,36.4,116,51.5s83.7,23.5,124.2,10.9c37.9-11.8,68-40.6,95-69.7c44.4-47.8,84.9-99,121.2-153.3
	c24.4-36.6,47.1-75.1,57.9-117.8c20.6-81.5-7.8-173.4-70.8-229c-52.2-46.1-122.2-66.1-190.8-78.3c-62.5-11.1-134.8-11.8-192.4-40.6
	C598.4,88.5,548.4,54.6,490.9,31.2z"/>
<polygon class="st1" points="934,576.9 935.7,578.6 936.5,575.7 935.7,572.9 933.6,572.9 "/>
<polygon class="st2" points="934,576.9 935.7,578.6 936.5,575.7 935.7,572.9 933.6,572.9 "/>
<polygon class="st3" points="934,576.9 935.7,578.7 934,580.5 932.3,579.9 931.9,579.1 "/>
<polygon class="st2" points="934,576.9 935.7,578.7 934,580.5 932.3,579.9 931.9,579.1 "/>
<path class="st4" d="M626.2,273.1L443.3,456c-6.8,6.8-6.9,17.9,0,24.8l280.3,282.5c6.8,6.9,17.9,6.9,24.8,0.1l185.6-183L626.2,273.1
	z"/>
<path class="st5" d="M626.2,273.1L443.3,456c-6.8,6.8-6.9,17.9,0,24.8l280.3,282.5c6.8,6.9,17.9,6.9,24.8,0.1l185.6-183L626.2,273.1
	z"/>
<path class="st6" d="M626.2,269.5L443.3,452.4c-6.8,6.8-6.9,17.9,0,24.8l280.3,282.5c6.8,6.9,17.9,6.9,24.8,0.1l185.6-183
	L626.2,269.5z"/>
<path class="st1" d="M645.4,141l-16.8,127.3l307.8,307.4l17.7-129.4c0.8-5.9-1.2-11.8-5.4-15.9l-297-291.6c-1.5-1.4-3.8-1.4-5.3,0.1
	C645.9,139.4,645.5,140.2,645.4,141z"/>
<path class="st2" d="M645.4,141l-16.8,127.3l307.8,307.4l17.7-129.4c0.8-5.9-1.2-11.8-5.4-15.9l-297-291.6c-1.5-1.4-3.8-1.4-5.3,0.1
	C645.9,139.4,645.5,140.2,645.4,141z"/>
<path class="st1" d="M643,142.2l-16.8,127.3L934,576.9l17.7-129.4c0.8-5.9-1.2-11.8-5.4-15.9L649.3,140c-1.5-1.4-3.8-1.4-5.3,0.1
	C643.5,140.6,643.1,141.4,643,142.2z"/>
<g class="st7">
	<path d="M627,328l-11.1,11.2c-1.4,1.4-1.4,3.6,0,5c0,0,0,0,0,0l11.3,11.6c1.4,1.4,3.6,1.5,5,0.1l11.1-10.5c1.4-1.3,1.5-3.5,0.2-5
		l-11.3-12.3c-1.3-1.5-3.5-1.6-5-0.3C627.1,327.9,627.1,328,627,328z"/>
	<path d="M647.8,348.8L636.7,360c-1.4,1.4-1.4,3.6,0,5l11.3,11.6c1.3,1.4,3.6,1.5,5,0.1c0,0,0,0,0,0l11.1-10.5
		c1.4-1.3,1.5-3.6,0.2-5l-11.3-12.3c-1.3-1.4-3.5-1.5-5-0.2C647.9,348.7,647.8,348.7,647.8,348.8z"/>
	<path d="M669.6,370.5l-11.1,11.2c-1.3,1.4-1.3,3.6,0,5l11.3,11.6c1.4,1.4,3.6,1.5,5,0.1l11.1-10.5c1.4-1.3,1.5-3.5,0.2-5
		l-11.3-12.3c-1.3-1.5-3.5-1.6-5-0.3C669.7,370.4,669.6,370.5,669.6,370.5z"/>
	<path d="M691.6,392.6l-11.1,11.3c-1.3,1.4-1.3,3.6,0,5l11.3,11.6c1.4,1.4,3.6,1.5,5,0.1l11.1-10.5c1.4-1.3,1.5-3.5,0.2-5
		l-11.3-12.4c-1.3-1.4-3.6-1.5-5-0.2C691.7,392.5,691.6,392.5,691.6,392.6z"/>
	<path d="M713.6,414.6l-11.1,11.3c-1.4,1.4-1.4,3.6,0,5l11.3,11.6c1.4,1.4,3.6,1.5,5,0.1l11.1-10.5c1.4-1.3,1.5-3.5,0.2-5
		l-11.3-12.3c-1.3-1.5-3.5-1.6-5-0.4C713.7,414.5,713.7,414.5,713.6,414.6z"/>
	<path d="M737,435.2l-13.8,14c-0.6,0.6-0.6,1.7,0,2.3l13.9,14.2c0.6,0.6,1.7,0.6,2.3,0l13.8-13c0.7-0.6,0.7-1.7,0.1-2.3l-13.9-15.2
		C738.8,434.6,737.7,434.5,737,435.2C737.1,435.2,737,435.2,737,435.2z"/>
	<path d="M759.1,457.3l-13.8,14c-0.6,0.6-0.6,1.7,0,2.3l13.9,14.2c0.6,0.6,1.7,0.6,2.3,0l13.8-13c0.7-0.6,0.7-1.7,0.1-2.3
		l-13.9-15.2C760.8,456.6,759.8,456.6,759.1,457.3C759.1,457.2,759.1,457.2,759.1,457.3z"/>
	<path d="M778.6,476.8l-13.8,14c-0.6,0.6-0.6,1.7,0,2.3l13.9,14.2c0.6,0.6,1.7,0.6,2.3,0l13.8-13c0.7-0.6,0.7-1.7,0.1-2.3L781,476.9
		C780.3,476.2,779.3,476.1,778.6,476.8C778.6,476.7,778.6,476.7,778.6,476.8z"/>
	<path d="M800.4,498.6l-13.8,13.9c-0.6,0.6-0.6,1.7,0,2.3l13.9,14.2c0.6,0.6,1.7,0.6,2.3,0l13.8-13c0.7-0.6,0.7-1.7,0.1-2.3
		l-13.9-15.2C802.2,497.9,801.1,497.9,800.4,498.6C800.4,498.6,800.4,498.6,800.4,498.6z"/>
	<path d="M821.5,519.8l-13.8,13.9c-0.6,0.6-0.6,1.7,0,2.3l13.9,14.2c0.6,0.6,1.7,0.6,2.3,0l13.8-13c0.7-0.6,0.7-1.7,0.1-2.3
		l-13.9-15.1C823.3,519.1,822.2,519.1,821.5,519.8C821.5,519.7,821.5,519.7,821.5,519.8z"/>
	<path d="M842.7,540.9l-13.8,14c-0.6,0.6-0.6,1.7,0,2.3l13.9,14.2c0.6,0.6,1.7,0.6,2.3,0l13.8-13c0.7-0.6,0.7-1.7,0.1-2.3
		l-13.9-15.2C844.5,540.2,843.4,540.2,842.7,540.9C842.7,540.8,842.7,540.8,842.7,540.9z"/>
	<path d="M863.8,562l-13.8,14c-0.6,0.6-0.6,1.7,0,2.3l13.8,14.2c0.6,0.6,1.7,0.7,2.3,0l13.8-13c0.7-0.6,0.7-1.7,0.1-2.3l-13.9-15.2
		C865.6,561.4,864.5,561.4,863.8,562C863.9,562,863.8,562,863.8,562z"/>
	<path d="M606.9,348.2l-11.1,11.2c-1.4,1.4-1.4,3.6,0,5c0,0,0,0,0,0l11.3,11.6c1.3,1.4,3.6,1.5,5,0.1c0,0,0,0,0,0l11.1-10.5
		c1.4-1.3,1.5-3.6,0.2-5L612,348.3c-1.3-1.4-3.6-1.5-5-0.2C607,348.1,606.9,348.1,606.9,348.2z"/>
	<path d="M562.9,392.2l-11.1,11.2c-1.4,1.4-1.4,3.6,0,5l11.3,11.5c1.3,1.4,3.5,1.4,5,0.1l11.1-10.5c1.4-1.3,1.5-3.5,0.2-5L568,392.3
		c-1.3-1.4-3.5-1.5-5-0.2C563,392.1,562.9,392.1,562.9,392.2z"/>
	<path d="M627.6,368.9l-11.1,11.2c-1.4,1.4-1.4,3.6,0,5c0,0,0,0,0,0l11.3,11.6c1.4,1.4,3.6,1.5,5,0.1l11.1-10.5
		c1.4-1.3,1.5-3.6,0.2-5L632.8,369c-1.3-1.4-3.5-1.5-5-0.2C627.8,368.8,627.7,368.8,627.6,368.9z"/>
	<path d="M649.4,390.7l-11.1,11.2c-1.4,1.4-1.4,3.6,0,5l11.3,11.6c1.3,1.4,3.6,1.5,5,0.1c0,0,0,0,0,0l11.1-10.5
		c1.4-1.3,1.5-3.6,0.2-5l-11.3-12.3c-1.3-1.4-3.6-1.6-5-0.2C649.5,390.6,649.5,390.6,649.4,390.7z"/>
	<path d="M671.4,412.7l-11.1,11.2c-1.4,1.4-1.4,3.6,0,5l11.3,11.6c1.3,1.4,3.6,1.4,5,0.1l11.1-10.5c1.4-1.3,1.5-3.6,0.2-5
		l-11.3-12.3c-1.3-1.5-3.6-1.6-5-0.3C671.5,412.6,671.5,412.7,671.4,412.7z"/>
	<path d="M584.4,412.2l-11.1,11.2c-1.4,1.4-1.4,3.6,0,5l11.3,11.6c1.3,1.4,3.6,1.5,5,0.1c0,0,0,0,0,0l11.1-10.5
		c1.4-1.3,1.5-3.6,0.2-5l-11.3-12.3c-1.3-1.4-3.5-1.6-5-0.3C584.5,412.1,584.4,412.1,584.4,412.2z"/>
	<path d="M606.1,434L595,445.2c-1.4,1.4-1.4,3.6,0,5c0,0,0,0,0,0l11.3,11.6c1.3,1.4,3.6,1.5,5,0.1c0,0,0,0,0,0l11.1-10.5
		c1.4-1.3,1.5-3.6,0.2-5l-11.3-12.3c-1.3-1.5-3.5-1.6-5-0.3C606.2,433.8,606.2,433.9,606.1,434z"/>
	<path d="M628.2,456l-11.1,11.2c-1.4,1.4-1.4,3.6,0,5l11.3,11.6c1.4,1.4,3.6,1.5,5,0.1l11.1-10.5c1.4-1.3,1.5-3.5,0.2-5l-11.3-12.3
		c-1.3-1.5-3.5-1.6-5-0.3C628.3,455.9,628.2,455.9,628.2,456z"/>
	<path d="M693.5,434.7L682.4,446c-1.4,1.4-1.4,3.6,0,5l11.3,11.6c1.3,1.4,3.6,1.5,5,0.1c0,0,0,0,0,0l11.1-10.5
		c1.4-1.3,1.5-3.6,0.2-5c0,0,0,0,0,0l-11.3-12.3c-1.3-1.4-3.5-1.6-5-0.2C693.6,434.7,693.5,434.7,693.5,434.7z"/>
	<path d="M715.5,456.8L704.4,468c-1.4,1.4-1.4,3.6,0,5l11.3,11.6c1.3,1.4,3.6,1.5,5,0.1c0,0,0,0,0,0l11.1-10.5
		c1.4-1.3,1.5-3.5,0.2-5l-11.3-12.4c-1.3-1.4-3.5-1.5-5-0.2C715.6,456.7,715.5,456.7,715.5,456.8z"/>
	<path d="M738.9,477.4l-13.8,14c-0.6,0.6-0.6,1.7,0,2.3l13.9,14.1c0.6,0.6,1.7,0.6,2.3,0l13.8-13c0.7-0.6,0.7-1.7,0.1-2.3
		l-13.9-15.2C740.7,476.7,739.6,476.7,738.9,477.4C738.9,477.3,738.9,477.4,738.9,477.4z"/>
	<path d="M758.4,496.9l-13.8,14c-0.6,0.6-0.6,1.7,0,2.3l13.9,14.2c0.6,0.6,1.7,0.6,2.3,0l13.8-13c0.7-0.6,0.7-1.7,0.1-2.3
		l-13.9-15.2C760.2,496.2,759.2,496.2,758.4,496.9C758.5,496.8,758.4,496.8,758.4,496.9z"/>
	<path d="M780.3,518.7l-13.8,14c-0.6,0.6-0.6,1.7,0,2.3l13.9,14.2c0.6,0.6,1.7,0.6,2.3,0l13.8-13c0.7-0.6,0.7-1.7,0.1-2.3
		l-13.9-15.2C782,518.1,781,518.1,780.3,518.7C780.3,518.7,780.3,518.7,780.3,518.7z"/>
	<path d="M801.4,539.9l-13.8,14c-0.6,0.6-0.6,1.7,0,2.3l13.9,14.2c0.6,0.6,1.7,0.6,2.3,0l13.8-13c0.7-0.6,0.7-1.7,0.1-2.3
		l-13.9-15.2C803.2,539.2,802.2,539.2,801.4,539.9C801.5,539.8,801.4,539.8,801.4,539.9z"/>
	<path d="M628.5,411.6l-11.1,11.2c-1.4,1.4-1.4,3.6,0,5l11.3,11.6c1.3,1.4,3.6,1.5,5,0.1c0,0,0,0,0,0l11.1-10.5
		c1.4-1.3,1.5-3.6,0.2-5l-11.3-12.3c-1.3-1.4-3.5-1.5-5-0.2C628.6,411.5,628.5,411.6,628.5,411.6z"/>
	<path d="M650.5,433.7l-11.1,11.2c-1.4,1.4-1.4,3.6,0,5l11.3,11.6c1.3,1.4,3.6,1.5,5,0.1c0,0,0,0,0,0l11.1-10.5
		c1.4-1.3,1.5-3.6,0.2-5l-11.3-12.3c-1.3-1.4-3.5-1.6-5-0.3C650.6,433.5,650.6,433.6,650.5,433.7z"/>
	<path d="M672.5,455.7l-11.1,11.2c-1.4,1.4-1.4,3.6,0,5l11.3,11.6c1.3,1.4,3.6,1.5,5,0.1c0,0,0,0,0,0l11.1-10.5
		c1.4-1.3,1.5-3.6,0.2-5l-11.3-12.3c-1.3-1.4-3.6-1.5-5-0.2C672.7,455.6,672.6,455.6,672.5,455.7z"/>
	<path d="M694.6,477.7l-11.1,11.2c-1.4,1.4-1.4,3.6,0,5l11.3,11.6c1.3,1.4,3.6,1.5,5,0.1c0,0,0,0,0,0l11.1-10.5
		c1.4-1.3,1.5-3.6,0.2-5l-11.3-12.3c-1.3-1.4-3.5-1.5-5-0.2C694.7,477.6,694.6,477.6,694.6,477.7z"/>
	<path d="M718,498.3l-13.8,13.9c-0.6,0.6-0.6,1.7,0,2.3l13.9,14.2c0.6,0.6,1.7,0.6,2.3,0l13.8-13c0.7-0.6,0.7-1.7,0.1-2.3
		l-13.9-15.2C719.8,497.7,718.7,497.6,718,498.3C718,498.3,718,498.3,718,498.3z"/>
	<path d="M737.5,517.9l-13.8,13.9c-0.6,0.6-0.6,1.7,0,2.3l13.9,14.2c0.6,0.6,1.7,0.6,2.3,0l13.8-13c0.7-0.6,0.7-1.7,0.1-2.3
		l-13.9-15.2C739.3,517.2,738.2,517.2,737.5,517.9C737.5,517.8,737.5,517.8,737.5,517.9z"/>
	<path d="M759.3,539.7l-13.8,14c-0.6,0.6-0.6,1.7,0,2.3l13.9,14.2c0.6,0.6,1.7,0.7,2.3,0l13.8-13c0.7-0.6,0.7-1.7,0.1-2.3
		l-13.9-15.2C761.1,539.1,760.1,539,759.3,539.7C759.4,539.6,759.3,539.6,759.3,539.7z"/>
	<path d="M780.5,560.9l-13.8,13.9c-0.6,0.6-0.6,1.7,0,2.3l13.9,14.2c0.6,0.6,1.7,0.7,2.3,0l13.8-13c0.7-0.6,0.7-1.7,0.1-2.3
		l-13.8-15.2c-0.6-0.7-1.6-0.7-2.3-0.1C780.5,560.8,780.5,560.8,780.5,560.9z"/>
	<path d="M822.6,561l-13.8,14c-0.6,0.6-0.6,1.7,0,2.3l13.9,14.2c0.6,0.6,1.7,0.7,2.3,0l13.8-13c0.7-0.6,0.7-1.7,0.1-2.3L825,561.1
		C824.4,560.4,823.3,560.4,822.6,561C822.6,561,822.6,561,822.6,561z"/>
	<path d="M843.7,582.2l-13.8,13.9c-0.6,0.6-0.6,1.7,0,2.3l13.9,14.2c0.6,0.6,1.7,0.7,2.3,0l13.8-13c0.7-0.6,0.7-1.7,0.1-2.3
		l-13.9-15.2C845.5,581.6,844.5,581.5,843.7,582.2C843.8,582.1,843.7,582.2,843.7,582.2z"/>
	<path d="M736.6,562.4l-13,13.1c-0.8,0.9-0.8,2.2,0,3.1l13.1,13.4c0.8,0.9,2.2,0.9,3.1,0.1l13-12.2c0.9-0.8,0.9-2.2,0.1-3.1
		l-13.1-14.3c-0.8-0.9-2.2-1-3.1-0.2C736.6,562.4,736.6,562.4,736.6,562.4z"/>
	<path d="M757.7,583.6l-13,13.1c-0.8,0.9-0.8,2.2,0,3.1l13.1,13.4c0.8,0.9,2.2,0.9,3.1,0.1l13-12.2c0.9-0.8,0.9-2.2,0.1-3.1
		l-13.1-14.3C760.1,582.7,758.6,582.7,757.7,583.6C757.7,583.6,757.7,583.6,757.7,583.6z"/>
	<path d="M778.9,604.7l-13,13.1c-0.8,0.9-0.8,2.2,0,3.1l13.1,13.4c0.8,0.9,2.2,0.9,3.1,0.1l13-12.2c0.9-0.8,0.9-2.2,0.1-3.1
		l-13.1-14.3c-0.8-0.9-2.2-1-3.1-0.2C779,604.7,778.9,604.7,778.9,604.7z"/>
	<path d="M800.4,625.5l-13.8,14c-0.6,0.6-0.6,1.7,0,2.3l13.9,14.2c0.6,0.6,1.7,0.6,2.3,0l13.8-13c0.7-0.6,0.7-1.7,0.1-2.3
		l-13.9-15.2C802.2,624.8,801.2,624.8,800.4,625.5C800.5,625.4,800.5,625.4,800.4,625.5z"/>
	<path d="M585.1,368.8l-11.8,12.1c-1.4,1.4-1.4,3.6,0,5c0,0,0,0,0,0l33,32.7c1.4,1.3,3.5,1.4,4.9,0.1l12.3-11.6
		c1.4-1.3,1.5-3.6,0.2-5c0,0-0.1-0.1-0.1-0.1l-33.5-33.1C588.7,367.4,586.5,367.4,585.1,368.8z"/>
	<path d="M801.1,582.1l-14.5,14.7c-0.6,0.7-0.6,1.7,0,2.3l35.6,35.3c0.6,0.6,1.7,0.6,2.3,0l15.1-14.2c0.7-0.6,0.7-1.7,0-2.3
		c0,0,0,0,0,0l-36.2-35.8C802.7,581.5,801.7,581.5,801.1,582.1z"/>
	<path d="M650.9,476.7l-13.8,13.7c-0.6,0.6-0.6,1.7,0,2.3c0,0,0,0,0,0l76.8,78.7c0.6,0.6,1.7,0.6,2.3,0l15-14.2
		c0.7-0.6,0.7-1.7,0-2.3c0,0,0,0,0,0l-78-78.2C652.6,476,651.5,476,650.9,476.7z"/>
</g>
<path class="st1" d="M627,325.6l-11.1,11.3c-1.4,1.4-1.4,3.6,0,5l11.3,11.6c1.4,1.4,3.6,1.5,5,0.1l11.1-10.5c1.4-1.3,1.5-3.5,0.2-5
	l-11.3-12.3c-1.3-1.4-3.5-1.6-5-0.3C627.1,325.5,627.1,325.6,627,325.6z"/>
<path class="st1" d="M647.8,346.4l-11.1,11.2c-1.4,1.4-1.4,3.6,0,5l11.3,11.6c1.3,1.4,3.6,1.5,5,0.1c0,0,0,0,0,0l11.1-10.5
	c1.4-1.3,1.5-3.6,0.2-5l-11.3-12.3c-1.3-1.4-3.5-1.5-5-0.2C647.9,346.3,647.8,346.3,647.8,346.4z"/>
<path class="st1" d="M669.6,368.1l-11.1,11.2c-1.3,1.4-1.3,3.6,0,5l11.3,11.5c1.4,1.4,3.6,1.5,5,0.1l11.1-10.5
	c1.4-1.3,1.5-3.6,0.2-5c0,0,0,0,0,0l-11.3-12.3c-1.3-1.4-3.6-1.5-5-0.2C669.7,368,669.6,368.1,669.6,368.1z"/>
<path class="st1" d="M691.6,390.2l-11.1,11.2c-1.4,1.4-1.4,3.6,0,5l11.3,11.6c1.4,1.4,3.6,1.5,5,0.1l11.1-10.5
	c1.4-1.3,1.5-3.5,0.2-5l-11.3-12.4c-1.3-1.4-3.6-1.5-5-0.2C691.7,390.1,691.6,390.1,691.6,390.2z"/>
<path class="st1" d="M713.6,412.2l-11.1,11.2c-1.4,1.4-1.4,3.6,0,5l11.3,11.6c1.4,1.4,3.6,1.5,5,0.1l11.1-10.5
	c1.4-1.3,1.5-3.5,0.2-5c0,0,0,0,0,0l-11.3-12.3c-1.3-1.5-3.5-1.6-5-0.3C713.7,412.1,713.7,412.1,713.6,412.2z"/>
<path class="st1" d="M737,432.9l-13.8,13.9c-0.6,0.6-0.6,1.7,0,2.3l13.9,14.2c0.6,0.6,1.7,0.7,2.3,0l13.8-13
	c0.7-0.6,0.7-1.7,0.1-2.3l-13.9-15.2C738.8,432.2,737.7,432.2,737,432.9C737.1,432.8,737,432.8,737,432.9z"/>
<path class="st1" d="M759.1,454.9l-13.8,14c-0.6,0.6-0.6,1.7,0,2.3l13.9,14.2c0.6,0.6,1.7,0.6,2.3,0l13.8-13
	c0.7-0.6,0.7-1.7,0.1-2.3l-13.9-15.2C760.8,454.2,759.8,454.2,759.1,454.9C759.1,454.8,759.1,454.8,759.1,454.9z"/>
<path class="st1" d="M778.6,474.3l-13.8,13.9c-0.6,0.6-0.6,1.7,0,2.3l13.9,14.3c0.6,0.6,1.7,0.6,2.3,0l13.8-13
	c0.7-0.6,0.7-1.7,0.1-2.3L781,474.4C780.3,473.7,779.3,473.7,778.6,474.3C778.6,474.3,778.6,474.3,778.6,474.3z"/>
<path class="st1" d="M800.4,496.2l-13.8,13.9c-0.6,0.6-0.6,1.7,0,2.3l13.9,14.2c0.6,0.6,1.7,0.7,2.3,0l13.8-13
	c0.7-0.6,0.7-1.7,0.1-2.3l-13.9-15.2C802.2,495.5,801.1,495.5,800.4,496.2C800.4,496.1,800.4,496.2,800.4,496.2z"/>
<path class="st1" d="M821.5,517.3l-13.8,13.9c-0.6,0.6-0.6,1.7,0,2.3l13.9,14.3c0.6,0.6,1.7,0.6,2.3,0l13.8-13
	c0.7-0.6,0.7-1.7,0.1-2.3l-13.9-15.2C823.3,516.7,822.2,516.7,821.5,517.3C821.5,517.3,821.5,517.3,821.5,517.3z"/>
<path class="st1" d="M842.7,538.5l-13.8,14c-0.6,0.6-0.6,1.7,0,2.3l13.9,14.2c0.6,0.6,1.7,0.6,2.3,0l13.8-13
	c0.7-0.6,0.7-1.7,0.1-2.3l-13.9-15.2C844.5,537.9,843.4,537.8,842.7,538.5C842.7,538.4,842.7,538.5,842.7,538.5z"/>
<path class="st1" d="M863.8,559.6l-13.8,14c-0.6,0.6-0.6,1.7,0,2.3l13.8,14.2c0.6,0.6,1.7,0.6,2.3,0l13.8-13
	c0.7-0.6,0.7-1.7,0.1-2.3l-13.9-15.2C865.6,559,864.5,559,863.8,559.6C863.9,559.6,863.8,559.6,863.8,559.6z"/>
<path class="st1" d="M606.9,345.8L595.8,357c-1.4,1.4-1.4,3.6,0,5l11.3,11.6c1.3,1.4,3.6,1.5,5,0.1c0,0,0,0,0,0l11.1-10.5
	c1.4-1.3,1.5-3.6,0.2-5L612,345.9c-1.3-1.4-3.6-1.5-5-0.2C607,345.7,606.9,345.7,606.9,345.8z"/>
<path class="st1" d="M562.9,389.7L551.8,401c-1.4,1.4-1.4,3.6,0,5l11.3,11.6c1.3,1.4,3.5,1.4,5,0.1l11.1-10.5c1.4-1.3,1.5-3.6,0.2-5
	L568,389.9c-1.3-1.4-3.5-1.6-5-0.3C563,389.6,562.9,389.7,562.9,389.7z"/>
<path class="st1" d="M627.6,366.5l-11.1,11.2c-1.4,1.4-1.4,3.6,0,5l11.3,11.6c1.3,1.4,3.6,1.5,5,0.1c0,0,0,0,0,0l11.1-10.5
	c1.4-1.3,1.5-3.6,0.2-5l-11.3-12.3c-1.3-1.4-3.5-1.5-5-0.2C627.8,366.4,627.7,366.4,627.6,366.5z"/>
<path class="st1" d="M649.4,388.3l-11.1,11.2c-1.4,1.4-1.4,3.6,0,5l11.3,11.6c1.3,1.4,3.6,1.5,5,0.1c0,0,0,0,0,0l11.1-10.5
	c1.4-1.3,1.5-3.6,0.2-5l-11.3-12.3c-1.3-1.4-3.6-1.5-5-0.2C649.5,388.2,649.4,388.2,649.4,388.3z"/>
<path class="st1" d="M671.4,410.3l-11.1,11.2c-1.4,1.4-1.4,3.6,0,5l11.3,11.6c1.3,1.4,3.5,1.4,5,0.1l11.1-10.5
	c1.4-1.3,1.5-3.6,0.2-5l-11.3-12.3c-1.3-1.4-3.6-1.5-5-0.2C671.5,410.2,671.5,410.2,671.4,410.3z"/>
<path class="st1" d="M584.4,409.8L573.3,421c-1.4,1.4-1.4,3.6,0,5l11.3,11.6c1.3,1.4,3.6,1.5,5,0.1c0,0,0,0,0,0l11.1-10.5
	c1.4-1.3,1.5-3.6,0.2-5l-11.3-12.3c-1.3-1.4-3.5-1.5-5-0.2C584.4,409.7,584.4,409.7,584.4,409.8z"/>
<path class="st1" d="M606.1,431.5L595,442.8c-1.4,1.4-1.4,3.6,0,5l11.3,11.6c1.4,1.4,3.6,1.5,5,0.1l11.1-10.5c1.4-1.3,1.5-3.6,0.2-5
	l-11.3-12.3c-1.3-1.4-3.6-1.6-5-0.2C606.2,431.4,606.2,431.5,606.1,431.5z"/>
<path class="st1" d="M628.2,453.6l-11.1,11.3c-1.4,1.4-1.4,3.6,0,5l11.3,11.6c1.4,1.4,3.6,1.5,5,0.1l11.1-10.5
	c1.4-1.3,1.5-3.5,0.2-5l-11.3-12.3c-1.3-1.5-3.5-1.6-5-0.3C628.3,453.5,628.2,453.5,628.2,453.6z"/>
<path class="st1" d="M693.5,432.3l-11.1,11.2c-1.4,1.4-1.4,3.6,0,5l11.3,11.6c1.3,1.4,3.6,1.5,5,0.1c0,0,0,0,0,0l11.1-10.5
	c1.4-1.3,1.5-3.5,0.2-5c0,0,0,0,0,0l-11.3-12.3c-1.3-1.4-3.5-1.6-5-0.3C693.6,432.2,693.5,432.3,693.5,432.3z"/>
<path class="st1" d="M715.5,454.3l-11.1,11.2c-1.4,1.4-1.4,3.6,0,5l11.3,11.6c1.3,1.4,3.6,1.5,5,0.1c0,0,0,0,0,0l11.1-10.5
	c1.4-1.3,1.5-3.5,0.2-5l-11.3-12.3c-1.3-1.5-3.5-1.6-5-0.3C715.6,454.2,715.6,454.3,715.5,454.3z"/>
<path class="st1" d="M738.9,475l-13.8,14c-0.6,0.6-0.6,1.7,0,2.3l13.9,14.2c0.6,0.6,1.7,0.6,2.3,0l13.8-13c0.7-0.6,0.7-1.7,0.1-2.3
	L741.3,475C740.7,474.3,739.6,474.3,738.9,475C738.9,474.9,738.9,474.9,738.9,475z"/>
<path class="st1" d="M758.4,494.5l-13.8,14c-0.6,0.6-0.6,1.7,0,2.3l13.9,14.2c0.6,0.6,1.7,0.6,2.3,0l13.8-13
	c0.7-0.6,0.7-1.7,0.1-2.3l-13.9-15.2C760.2,493.8,759.1,493.8,758.4,494.5C758.5,494.4,758.4,494.4,758.4,494.5z"/>
<path class="st1" d="M780.3,516.3l-13.8,14c-0.6,0.6-0.6,1.7,0,2.3l13.9,14.2c0.6,0.6,1.7,0.6,2.3,0l13.8-13
	c0.7-0.6,0.7-1.7,0.1-2.3l-13.9-15.1C782,515.7,781,515.6,780.3,516.3C780.3,516.3,780.3,516.3,780.3,516.3z"/>
<path class="st1" d="M801.4,537.5l-13.8,14c-0.6,0.6-0.6,1.7,0,2.3l13.9,14.2c0.6,0.6,1.7,0.6,2.3,0l13.8-13
	c0.7-0.6,0.7-1.7,0.1-2.3l-13.9-15.2C803.2,536.8,802.1,536.8,801.4,537.5C801.5,537.4,801.4,537.4,801.4,537.5z"/>
<path class="st1" d="M628.5,409.2l-11.1,11.2c-1.4,1.4-1.4,3.6,0,5l11.3,11.6c1.3,1.4,3.6,1.5,5,0.1c0,0,0,0,0,0l11.1-10.5
	c1.4-1.3,1.5-3.6,0.2-5l-11.3-12.3c-1.3-1.4-3.5-1.5-5-0.2C628.6,409.1,628.5,409.2,628.5,409.2z"/>
<path class="st1" d="M650.5,431.2l-11.1,11.2c-1.4,1.4-1.4,3.6,0,5c0,0,0,0,0,0l11.3,11.6c1.3,1.4,3.6,1.5,5,0.1c0,0,0,0,0,0
	l11.1-10.5c1.4-1.3,1.5-3.6,0.2-5l-11.3-12.3c-1.3-1.5-3.5-1.6-5-0.3C650.6,431.1,650.6,431.2,650.5,431.2z"/>
<path class="st1" d="M672.5,453.3l-11.1,11.2c-1.4,1.4-1.4,3.6,0,5l11.3,11.6c1.3,1.4,3.6,1.5,5,0.1c0,0,0,0,0,0l11.1-10.5
	c1.4-1.3,1.5-3.6,0.2-5l-11.3-12.3c-1.3-1.4-3.5-1.5-5-0.2C672.7,453.1,672.6,453.2,672.5,453.3z"/>
<path class="st1" d="M694.6,475.3l-11.1,11.2c-1.4,1.4-1.4,3.6,0,5c0,0,0,0,0,0l11.3,11.6c1.3,1.4,3.6,1.5,5,0.1c0,0,0,0,0,0
	l11.1-10.5c1.4-1.3,1.5-3.6,0.2-5l-11.3-12.3c-1.3-1.5-3.5-1.6-5-0.3C694.7,475.2,694.6,475.2,694.6,475.3z"/>
<path class="st1" d="M718,495.9l-13.8,14c-0.6,0.6-0.6,1.7,0,2.3l13.9,14.2c0.6,0.6,1.7,0.7,2.3,0l13.8-13c0.7-0.6,0.7-1.7,0.1-2.3
	L720.4,496C719.8,495.3,718.7,495.2,718,495.9C718,495.9,718,495.9,718,495.9z"/>
<path class="st1" d="M737.5,515.4l-13.8,13.9c-0.6,0.6-0.6,1.7,0,2.3l13.9,14.2c0.6,0.6,1.7,0.7,2.3,0l13.8-13
	c0.7-0.6,0.7-1.7,0.1-2.3l-13.9-15.1C739.3,514.8,738.2,514.7,737.5,515.4C737.5,515.4,737.5,515.4,737.5,515.4z"/>
<path class="st1" d="M759.3,537.2l-13.8,14c-0.6,0.6-0.6,1.7,0,2.3l13.9,14.2c0.6,0.6,1.7,0.6,2.3,0l13.8-13
	c0.7-0.6,0.7-1.7,0.1-2.3l-13.9-15.2C761.1,536.6,760.1,536.6,759.3,537.2C759.4,537.2,759.3,537.2,759.3,537.2z"/>
<path class="st1" d="M780.5,558.4l-13.8,13.9c-0.6,0.6-0.6,1.7,0,2.3l13.9,14.2c0.6,0.6,1.7,0.6,2.3,0l13.8-13
	c0.7-0.6,0.7-1.7,0.1-2.3l-13.8-15.1c-0.6-0.7-1.6-0.7-2.3-0.1C780.5,558.3,780.5,558.4,780.5,558.4z"/>
<path class="st1" d="M822.6,558.6l-13.8,14c-0.6,0.6-0.6,1.7,0,2.3l13.9,14.2c0.6,0.6,1.7,0.6,2.3,0l13.8-13
	c0.7-0.6,0.7-1.7,0.1-2.3L825,558.7C824.3,558,823.3,557.9,822.6,558.6C822.6,558.6,822.6,558.6,822.6,558.6z"/>
<path class="st1" d="M843.7,579.8l-13.8,14c-0.6,0.6-0.6,1.7,0,2.3l13.9,14.2c0.6,0.6,1.7,0.6,2.3,0l13.8-13
	c0.7-0.6,0.7-1.7,0.1-2.3l-13.9-15.1C845.5,579.2,844.5,579.1,843.7,579.8C843.7,579.7,843.7,579.7,843.7,579.8z"/>
<path class="st1" d="M736.6,560l-13,13.1c-0.8,0.9-0.8,2.2,0,3.1l13.1,13.4c0.8,0.9,2.2,0.9,3.1,0.1l13-12.2
	c0.9-0.8,0.9-2.2,0.1-3.1l-13.1-14.3C739,559.2,737.5,559.1,736.6,560C736.6,560,736.6,560,736.6,560z"/>
<path class="st1" d="M757.7,581.2l-13,13.1c-0.8,0.9-0.8,2.2,0,3.1l13.1,13.5c0.9,0.8,2.2,0.8,3.1,0l13-12.2
	c0.9-0.8,0.9-2.2,0.1-3.1l-13.1-14.3C760.1,580.3,758.6,580.3,757.7,581.2C757.7,581.1,757.7,581.1,757.7,581.2z"/>
<path class="st1" d="M778.9,602.3l-13,13.1c-0.8,0.9-0.8,2.2,0,3.1L779,632c0.8,0.9,2.2,0.9,3.1,0.1l13-12.2
	c0.9-0.8,0.9-2.2,0.1-3.1l-13.1-14.3C781.3,601.5,779.9,601.4,778.9,602.3C779,602.2,778.9,602.3,778.9,602.3z"/>
<path class="st1" d="M800.4,623l-13.8,14c-0.6,0.6-0.6,1.7,0,2.3l13.9,14.2c0.6,0.6,1.7,0.7,2.3,0l13.8-13c0.7-0.6,0.7-1.7,0.1-2.3
	l-13.9-15.2C802.2,622.4,801.2,622.4,800.4,623C800.5,623,800.5,623,800.4,623z"/>
<path class="st1" d="M585.1,366.4l-11.8,12.1c-1.4,1.4-1.4,3.6,0,5c0,0,0,0,0,0l33,32.7c1.4,1.3,3.5,1.4,4.9,0.1l12.3-11.6
	c1.4-1.3,1.5-3.6,0.2-5c0,0-0.1-0.1-0.1-0.1l-33.5-33.1C588.7,365,586.5,365,585.1,366.4z"/>
<path class="st1" d="M801.1,579.7l-14.5,14.8c-0.6,0.7-0.6,1.7,0,2.3l35.6,35.3c0.6,0.6,1.7,0.6,2.3,0l15.1-14.2
	c0.7-0.6,0.7-1.7,0-2.3c0,0,0,0,0,0l-36.2-35.8C802.7,579.1,801.7,579.1,801.1,579.7z"/>
<path class="st1" d="M650.9,474.3l-13.8,13.7c-0.6,0.6-0.6,1.7,0,2.3c0,0,0,0,0,0l76.8,78.7c0.6,0.6,1.7,0.6,2.3,0l15-14.2
	c0.7-0.6,0.7-1.7,0-2.3c0,0,0,0,0,0l-78-78.2C652.6,473.6,651.5,473.6,650.9,474.3z"/>
<path class="st2" d="M596.7,483.9l-60.6,60.2c-3.5,3.5-3.5,9.1-0.1,12.7l112.1,115.2c3.5,3.6,9.2,3.6,12.7,0.2c0,0,0,0,0,0
	l62.4-61.4c3.5-3.5,3.6-9.2,0.1-12.7c0,0,0,0,0,0l-113.9-114C605.9,480.4,600.2,480.4,596.7,483.9z"/>
<path class="st8" d="M596.7,481.4l-60.6,60.3c-3.5,3.5-3.5,9.1-0.1,12.7l112.1,115.2c3.5,3.6,9.2,3.6,12.7,0.2c0,0,0,0,0,0
	l62.4-61.4c3.5-3.5,3.6-9.2,0.1-12.7c0,0,0,0,0,0l-113.9-114C605.9,477.9,600.3,477.9,596.7,481.4z"/>
<path class="st9" d="M655,165.3l-15.4,107.3L924,556.1l14.5-106.4c0.8-5.8-1.2-11.7-5.3-15.8L661.3,163.2c-1.5-1.5-3.8-1.4-5.3,0
	C655.4,163.8,655.1,164.5,655,165.3z"/>
<ellipse class="st0" cx="295.1" cy="682.4" rx="23.1" ry="3.2"/>
<ellipse class="st0" cx="206.6" cy="691.3" rx="23.1" ry="3.2"/>
<ellipse class="st0" cx="102.3" cy="679.2" rx="23.1" ry="3.2"/>
<ellipse class="st0" cx="242" cy="716.9" rx="16.4" ry="2.3"/>
<ellipse class="st0" cx="150.1" cy="714.6" rx="16.4" ry="2.3"/>
<path class="st9" d="M206.1,690.6c0,0,32.4-106.3-5.1-148.8c-28-31.8-59.9-28-74.1-24.1c-7.5,2-13.7,7.1-17,14.1
	c-5,10.8-4.1,28.2,31.1,48.6c58.9,34.1,62.6,80.9,62.6,80.9L206.1,690.6z"/>
<path class="st10" d="M131.9,532.8c0,0,95.6,29.9,74.1,157.8"/>
<path class="st10" d="M187.7,543.5c0,0-13.1,8.9-9,22.2"/>
<path class="st10" d="M141.5,551.4c0,0,8-8.2,17.8-3.7"/>
<path class="st10" d="M179.3,592.5c0,0,14.1-7.2,17.8,1.8"/>
<path class="st10" d="M214.2,607.5c0,0-10.6-0.8-10.8,4.2"/>
<path class="st9" d="M207.4,691.5c0,0-38-77.2-48.4-75.5c-4.9,0.8-7.2,5.7-8.3,10.6c-1.3,6.3-0.6,12.9,2.1,18.8
	C158.2,657.7,172.6,681.1,207.4,691.5z"/>
<path class="st10" d="M159.3,630.6c0,0,39.8,57.8,47.5,60.3"/>
<line class="st10" x1="155.6" y1="639.6" x2="164.9" y2="639.6"/>
<line class="st10" x1="166.7" y1="660.8" x2="181.3" y2="661.4"/>
<line class="st10" x1="175.6" y1="643.8" x2="174" y2="651.4"/>
<line class="st10" x1="191.1" y1="667" x2="190.8" y2="673.8"/>
<path class="st9" d="M206.2,691.5c0,0,38-77.2,48.4-75.5c5,0.8,7.2,5.7,8.3,10.6c1.3,6.3,0.6,12.9-2.1,18.8
	C255.4,657.7,241,681.1,206.2,691.5z"/>
<path class="st10" d="M254.4,630.6c0,0-39.9,57.8-47.5,60.3"/>
<line class="st10" x1="258" y1="639.6" x2="248.7" y2="639.6"/>
<line class="st10" x1="246.9" y1="660.8" x2="232.3" y2="661.4"/>
<line class="st10" x1="238" y1="643.8" x2="239.6" y2="651.4"/>
<line class="st10" x1="222.5" y1="667" x2="222.8" y2="673.8"/>
<path class="st9" d="M141,709.5c-1-0.8-1.8-2-2.2-3.3c-0.3-1.3,0.3-2.7,1.5-3.3c1.4-0.5,2.9,0.4,4,1.4s2.4,2.1,3.9,1.9
	c-1.5-1.4-2.2-3.5-1.8-5.5c0.1-0.4,0.2-0.8,0.5-1.1c0.8-0.8,2.2-0.5,3.1,0.2c2.9,2.1,3.8,6,3.8,9.6c0.2-1.3,0.2-2.7,0.1-4
	c-0.1-1.3,0.4-2.7,1.5-3.5c0.7-0.4,1.5-0.6,2.3-0.5c1.3-0.2,2.7,0.2,3.7,1c1.1,1.2,0.8,3.2-0.1,4.5c-1.1,1.2-2.4,2.3-3.8,3.1
	c-1.1,0.6-2,1.5-2.7,2.6c-0.1,0.1-0.1,0.3-0.2,0.5h-8.3C144.3,712,142.6,710.9,141,709.5z"/>
<path class="st9" d="M285.7,678.4c-1-0.8-1.8-2-2.2-3.3c-0.3-1.3,0.3-2.7,1.5-3.3c1.4-0.5,2.9,0.4,4,1.4s2.4,2.1,3.9,1.9
	c-1.5-1.4-2.2-3.5-1.8-5.5c0.1-0.4,0.2-0.8,0.5-1.1c0.8-0.8,2.2-0.5,3.1,0.2c2.9,2.1,3.8,6,3.8,9.6c0.2-1.3,0.2-2.7,0.1-4
	c-0.1-1.3,0.4-2.7,1.5-3.5c0.7-0.4,1.5-0.6,2.3-0.5c1.3-0.2,2.6,0.2,3.7,1c1.1,1.2,0.8,3.2-0.1,4.5c-1.1,1.2-2.4,2.2-3.8,3
	c-1.1,0.7-2,1.5-2.7,2.6c-0.1,0.1-0.2,0.3-0.2,0.5h-8.3C289,680.9,287.3,679.8,285.7,678.4z"/>
<path class="st9" d="M237.5,709.5c-1-0.8-1.8-2-2.2-3.3c-0.3-1.3,0.3-2.7,1.5-3.3c1.4-0.5,2.9,0.4,4,1.4s2.4,2.1,3.9,1.9
	c-1.5-1.4-2.2-3.5-1.8-5.5c0.1-0.4,0.2-0.8,0.5-1.1c0.8-0.8,2.2-0.5,3.1,0.2c2.9,2.1,3.8,6,3.8,9.6c0.2-1.3,0.2-2.7,0-4
	c-0.1-1.3,0.4-2.6,1.5-3.5c0.7-0.4,1.5-0.6,2.3-0.5c1.3-0.2,2.7,0.2,3.7,1c1.1,1.2,0.8,3.2-0.1,4.5c-1.1,1.2-2.4,2.3-3.8,3.1
	c-1.1,0.6-2,1.5-2.7,2.6c-0.1,0.1-0.1,0.3-0.2,0.5h-8.3C240.8,712.1,239,710.9,237.5,709.5z"/>
<path class="st9" d="M100.8,646.6c0,0-3.1,4,1.4,10.2s8.3,11.3,6.8,15.1c0,0-6.8-11.4-12.4-11.5S94.7,653.5,100.8,646.6z"/>
<path class="st2" d="M100.8,646.6c-0.3,0.4-0.5,0.8-0.6,1.3c-5.4,6.4-8.3,12.3-3.1,12.5c4.9,0.1,10.7,8.8,12.1,11
	c0,0.2-0.1,0.3-0.2,0.5c0,0-6.8-11.4-12.4-11.5S94.7,653.5,100.8,646.6z"/>
<path class="st11" d="M95,651.8c0,1.4,0.2,2.6,0.4,2.6s0.4-1.2,0.4-2.6s-0.2-0.8-0.4-0.8S95,650.4,95,651.8z"/>
<path class="st11" d="M93,653.5c1.3,0.7,2.3,1.1,2.4,0.9s-0.8-0.9-2.1-1.5s-0.8-0.2-0.9,0S91.8,652.9,93,653.5z"/>
<path class="st9" d="M117.1,646.6c0,0,3.1,4-1.4,10.2s-8.3,11.3-6.8,15.1c0,0,6.8-11.4,12.4-11.5S123.2,653.5,117.1,646.6z"/>
<path class="st2" d="M117.1,646.6c0.3,0.4,0.5,0.8,0.6,1.3c5.4,6.4,8.3,12.3,3.1,12.5c-4.9,0.1-10.7,8.8-12.1,11
	c0,0.2,0.1,0.3,0.2,0.5c0,0,6.8-11.4,12.4-11.5S123.2,653.5,117.1,646.6z"/>
<path class="st11" d="M122.9,651.8c0,1.4-0.2,2.6-0.4,2.6s-0.4-1.2-0.4-2.6s0.2-0.8,0.4-0.8S122.9,650.4,122.9,651.8z"/>
<path class="st11" d="M124.9,653.5c-1.3,0.7-2.3,1.1-2.4,0.9s0.9-0.9,2.1-1.5s0.8-0.2,0.9,0S126.1,652.9,124.9,653.5z"/>
<path class="st12" d="M121.9,671.4c0,0-8.7-0.3-11.3-2.1s-13.3-4.1-14-1.1s-13,14.8-3.2,14.9s22.7-1.5,25.3-3.1
	S121.9,671.4,121.9,671.4z"/>
<path class="st13" d="M93.3,682c9.8,0.1,22.7-1.5,25.3-3.1c2-1.2,2.8-5.5,3-7.5h0.3c0,0-0.6,7-3.1,8.6s-15.6,3.2-25.3,3.1
	c-2.8,0-3.8-1-3.8-2.5C90.1,681.4,91.2,682,93.3,682z"/>
<linearGradient id="SVGID_1_" gradientUnits="userSpaceOnUse" x1="75.5234" y1="224.467" x2="75.5234" y2="596.5465" gradientTransform="matrix(-1 0 0 -1 344.08 790.86)">
	<stop  offset="0" style="stop-color:#808080;stop-opacity:0.25"/>
	<stop  offset="0.54" style="stop-color:#808080;stop-opacity:0.12"/>
	<stop  offset="1" style="stop-color:#808080;stop-opacity:0.1"/>
</linearGradient>
<path class="st14" d="M172.5,334.1c-0.2,4.2,3.4,9.8,3.4,9.8c1.1,2.7,14.6,14.9,14.6,14.9l10,6.7c-2,1.5-4.1,2.8-6.3,4
	c-4.9,2.5-7.5,10.7-7.5,10.7s-7.4,17.7,7.5,20.2l0.3,0l1.3,1.5c3.3,3.6,7.3,7.8,8.7,8.8c2.5,1.7,10.2,14.6,10.2,14.6s8.1,13.4,19,14
	s10.8-11.8,10-12.6c-0.3-0.5-0.6-1.1-0.7-1.7c2.6,4.2,6.1,9.6,7.3,10.4c1.9,1.2,8,11,8,11s7.7,17.6,8.9,19.4s3.5,11.2,3.5,11.2
	s4.4,12.9,6.4,14.6s3.1,7.9,3.1,7.9s6.4,9.3,7.5,10.9c1.3,2.3,2.4,4.6,3.5,7c0,0,3.5,5.6,3.5,7.8s7.2,5.9,7.2,5.9s5.2,6.1,8.2,7.2
	s5.8,8.2,6.3,7.8c0.3-0.1,0.6-0.2,0.9-0.2l1.2,1.2c4.8,4.7,14.3,14.2,16.7,16.4c3.3,3,10.8,3.4,17.1,2.2c3.2-0.6,7.1-3.7,10.2-6.5
	c2.8-2.6,3-7.1,0.3-9.9c-0.1-0.1-0.1-0.1-0.2-0.2c-3-2.9-6.5-6.1-8-6.5c-2.8-0.9-10.8-6.5-14.6-11.2c-2-2.4-5.5-4.7-8.5-6.4
	l-0.4-0.2c-0.5-1.7-0.8-3.5-0.9-5.2c0,0,5.2-11.7,2.4-12.3s-13.5-19.1-13.5-19.1c-0.1-14-13-25.8-13-25.8s-6.4-15.2-8.3-18.5
	c-1.1-1.7-1.1-3.9,0-5.6c0,0-3.6-2.8-4.2-4.2s-3.6-12-3.6-12s-3.6-6.4-3.8-9.3c-0.2-2.9-7.2-11.2-7.2-11.2s-2.9-13.9-6-16.3
	c-0.6-0.5-0.5-2.3,0-4.9l0.1-0.2l0.5-0.5l0.1-0.1c1.4-1.4,2.8-2.9,4.1-4.5l0.1-0.1c0.2-0.3,0.4-0.5,0.6-0.7c4.5-6.2,7.4-21,7.4-21
	s0.9-0.4,2.1-1.1c1.6-0.8,3.2-1.9,4.5-3.1c0.1-0.1,0.1-0.2,0.2-0.2c0,0,0-0.1,0-0.1c0-0.1,0.1-0.1,0.1-0.2c0,0,0-0.1,0-0.1
	c0-0.1,0-0.1,0-0.2c0,0,0-0.1,0-0.1v-0.4c0-0.1,0-0.3,0-0.4c0,0,0,0,0,0c0-0.1,0-0.2-0.1-0.4v-0.1c0-0.1-0.1-0.2-0.1-0.3
	c0,0,0-0.1,0-0.1l-0.1-0.4c0,0,0-0.1,0-0.1c-0.2-0.5-0.4-1-0.7-1.5l0,0l-0.3-0.5l0,0c-0.5-0.9-1-1.8-1.5-2.6l-0.1-0.1
	c1.1-3.1,3.2-8.6,5.2-10.5c2.8-2.8-1.6-17.7-1.6-17.7s-0.9-10.6-2.2-13.7s0-3.6-1-6.2c-1.2-3-2.1-2.8-0.5-9.6
	c0.6-2.6,1.5-5.4,2.3-8.1l1,0.9c5.8,5.5,14.9,12.6,14.9,12.6s17.9,16.2,19.5,16.6s6.3,16.3,6.3,16.3s-1.1,26.3,13.3,27.4
	c6.1,0.5,8.7-4.3,9.7-9.9c1.4-8.8-1.2-17.7-7.1-24.4l-8.6-9.8l-7.7-13.7c-4.9-7.7-9-15.9-12.3-24.4c-3.5-8.4-8.6-15.9-15.1-22.3
	l-0.6-0.6l0.8-0.7c0,0-1.3-10.3-2.2-11.5s-4.4-8.4-4.4-10s-2.2-1.9-3.5-3.7c0,0-2.2-4.4-4.2-5c-0.4-0.1-0.7-0.4-1-0.6
	c-3.6-3.2-8.1-5.1-12.8-5.6l-1.3-0.1c-2.8-0.1-5.6-0.1-8.3,0.1h-0.1c-2.1-0.6-3.7-2.3-5.4-3.8c-2.7-2.4-5.6-4.4-8.8-6.1
	c-3.3-1.7-6.9-3-10.6-2.4c-2.8,0.5-5.4,2-8.1,2.8c-3.9,1.1-8.8,0.9-11.3,4.1c-1.2,1.5-1.5,3.6-2.6,5.2c-1.6,2.3-4.5,3.3-6.1,5.5
	c-1.1,1.6-1.6,3.6-1.4,5.5c-0.1,1.6,0.1,3.2,0.6,4.7c0.4,1.3,0.7,2.6,0.9,4c0,0.2-0.1,0.4-0.1,0.7c-0.2,1-0.7,1.8-0.9,2.8
	c-0.1,0.5-0.1,1.1,0,1.6c-0.3,2.4,1.2,4.7,2.3,6.9c0.8,1.7,1.3,3.6,1.6,5.5c-2.6,0.8-5.1,1.7-7.6,2.9c-3.3,1.6-6.6,3.7-8.4,6.5
	c-3.1,4.3-6.9,8-11.3,10.9c-1.4,3.3-2.5,6.8-3.5,10.2c-0.9,4-1.9,10.6-4.7,14c-2.8,3.4-4.1,13.6-4.1,13.6s-3.8,6.1-3.8,7.3
	s-0.5,7,0,8.7c0.3,0.5,0.6,1,1.1,1.4l-0.3,1C174.3,324.9,172.6,331.5,172.5,334.1z M260.9,264c-0.1,0.3-0.2,0.7-0.3,1
	c0-0.3,0-0.6,0.1-1L260.9,264z M225.2,397l-0.5-0.5l-0.2-0.2c0-0.1,0.1-0.2,0.1-0.4L225.2,397z M199.2,333.3l0.2-0.4l0.7-1.3l6-4.9
	l0.8,0.7c0,0-0.6,6.5-2.2,6.2c-0.4-0.1-0.5,1.4-0.6,3.8C201.3,335,199.1,333.3,199.2,333.3L199.2,333.3z"/>
<path class="st15" d="M253.3,212.2c0,0,18.7-1.7,23.1-1.2l1.2,0.1c4.6,0.5,9,2.4,12.5,5.5c0.3,0.3,0.6,0.5,1,0.6
	c2,0.6,4.1,4.9,4.1,4.9s-4.7,37.5-4.7,37.9s-9.8,17.4-9.8,17.4l-9.5,3.7l-16.4,2.3l-0.5-7.1c0,0,7.9-4.3,7-13.3
	C260.5,254.3,253.3,212.2,253.3,212.2z"/>
<path class="st16" d="M262.5,256.7c0,0-4,18.1,0,23.9s-39.5-9.5-39.5-9.5l-8-14.4c0,0,3-2.1,6.4-4.9c4.8-3.8,10.5-8.9,10.5-11
	C231.9,237.1,262.5,256.7,262.5,256.7z"/>
<path class="st2" d="M262.5,256.7c0,0-4,18.1,0,23.9s-39.5-9.5-39.5-9.5l-8-14.4c0,0,3-2.1,6.4-4.9c4.8-3.8,10.5-8.9,10.5-11
	C231.9,237.1,262.5,256.7,262.5,256.7z"/>
<circle class="st2" cx="253.3" cy="242" r="26.6"/>
<circle class="st16" cx="253.3" cy="240.8" r="26.6"/>
<path class="st16" d="M287.7,273.9c0.1,1,2,3.1,4.6,5.5c5.7,5.4,14.5,12.4,14.5,12.4s17.5,15.9,19,16.4c1.5,0.5,6.1,16.1,6.1,16.1
	s-1.1,25.9,13,26.9c6,0.5,8.5-4.2,9.4-9.7c1.4-8.6-1.2-17.4-6.9-24l-8.4-9.7l-7.5-13.5c-4.8-7.6-8.9-15.6-12.1-24
	c-3.4-8.2-8.4-15.7-14.7-22c-1.6-1.6-2.6-2.4-2.6-2.4l-7,2.1C295.3,248,287.4,270.8,287.7,273.9z"/>
<path class="st17" d="M314.5,543.5l2.7,2.7c4.6,4.7,13.9,14,16.3,16.1c3.2,2.9,10.6,3.4,16.7,2.1c3.1-0.6,7-3.6,9.9-6.4
	c2.8-2.6,2.9-6.9,0.3-9.7c-0.1-0.1-0.1-0.2-0.2-0.2c-2.9-2.8-6.3-6-7.8-6.5c-2.8-0.9-10.6-6.4-14.2-11c-1.9-2.4-5.4-4.7-8.2-6.3
	c-2.6-1.5-4.8-2.4-4.8-2.4L314.5,543.5z"/>
<path class="st2" d="M318.3,543.5c0,0,0.9,0.9,2.3,2.3c4,4,11.8,11.9,13.9,13.7c2.7,2.5,9,2.9,14.2,1.8c2.3-0.5,5.1-2.5,7.5-4.6
	c2.9-2.5,3.2-6.9,0.6-9.7c-0.1-0.1-0.3-0.3-0.4-0.4c-2.3-2.2-4.7-4.3-5.8-4.7c-2.3-0.8-9-5.5-12.1-9.4c-2-2.2-4.4-4-7-5.3
	c-2.2-1.3-4-2.1-4-2.1L318.3,543.5z"/>
<path class="st17" d="M192.9,398.1c0,0,2.1,2.4,4.6,5.2c3.2,3.5,7.1,7.7,8.5,8.6c2.4,1.7,9.9,14.4,9.9,14.4s8,13.2,18.5,13.8
	s10.6-11.6,9.8-12.4s-1.8-7.7-3.4-12.7c-1.2-3.8-10.6-12.9-15.2-17.1c-1.5-1.3-2.4-2.2-2.4-2.2L192.9,398.1z"/>
<path class="st2" d="M195.1,399.9c0,0,1.9,2.2,4.2,4.7c2.9,3.2,6.5,7,7.8,7.9c2.2,1.5,9.1,13.1,9.1,13.1s7.3,12,16.9,12.5
	s9.6-10.6,8.9-11.3c-0.7-0.7-1.7-7-3.1-11.6c-1.1-3.5-9.7-11.8-13.9-15.6c-1.3-1.2-2.2-2-2.2-2L195.1,399.9z"/>
<path class="st2" d="M192.9,398.1c0,0,2.1,2.4,4.6,5.2c13.4,2,19.7-0.3,19.7-0.3s6.3-2.8,7.6-2.9c0.4,0,0.6-0.9,0.9-2.3
	c-1.5-1.3-2.4-2.2-2.4-2.2L192.9,398.1z"/>
<path class="st18" d="M209.1,362c0,0-8.4,6.9-13.2,9.3c-4.8,2.5-7.3,10.5-7.3,10.5s-7.2,17.5,7.3,19.9s21.3,0,21.3,0
	s6.3-2.8,7.6-2.9c1.4-0.2,1.4-13.3,6.4-17.3s16.7-13,16.7-13L209.1,362z"/>
<path class="st2" d="M209.1,362c0,0-8.4,6.9-13.2,9.3c-4.8,2.5-7.3,10.5-7.3,10.5s-7.2,17.5,7.3,19.9s21.3,0,21.3,0s6.3-2.8,7.6-2.9
	c1.4-0.2,1.4-13.3,6.4-17.3s16.7-13,16.7-13L209.1,362z"/>
<path class="st18" d="M287.7,341c0,0,6,8.2,4.1,10.1c-1.9,2-6.4,4.1-6.4,4.1s-2.8,14.5-7.2,20.7s-13.1,12.9-13.1,12.9l6.1-34.1
	L287.7,341z"/>
<path class="st2" d="M265.1,388.8c2.7-2.2,5.3-4.4,7.8-6.9c1.9-1.9,3.7-3.9,5.3-6c4.4-6.1,7.2-20.7,7.2-20.7s4.6-2.1,6.4-4.1
	c1.1-1.2-0.6-4.7-2.2-7.2c-1-1.7-1.9-2.9-1.9-2.9l-8.7,7.1l-7.9,6.5l-2.3,13.2L265.1,388.8z"/>
<path class="st2" d="M314.5,543.5l2.7,2.7c1.7,0,4.2,0.2,4.2,0.2s12.4-14.8,10.4-17.5c-0.9-1.4-1.5-3-1.8-4.6
	c-2.6-1.5-4.8-2.4-4.8-2.4L314.5,543.5z"/>
<path class="st18" d="M219.9,386.8c0,2.6,20.8,34.4,20.8,34.4s8.1,13.8,10,15c1.8,1.2,7.8,10.9,7.8,10.9s7.5,17.3,8.7,19.1
	c1.2,1.8,3.4,11,3.4,11s4.3,12.7,6.3,14.4s3.1,7.8,3.1,7.8s6.3,9.2,7.3,10.7c1.3,2.2,2.4,4.5,3.4,6.9c0,0,3.4,5.5,3.4,7.7
	s7,5.8,7,5.8s5,6,8,7s5.7,8.1,6.1,7.7s5.7,0,5.7,0s12.4-14.8,10.4-17.4s-2.5-8.7-2.5-8.7s5-11.5,2.3-12.1s-13.1-18.8-13.1-18.8
	c-0.1-13.8-12.7-25.4-12.7-25.4s-6.3-15-8.1-18.2c-1.1-1.7-1.1-3.8,0-5.5c0,0-3.5-2.8-4.1-4.1s-3.5-11.8-3.5-11.8s-3.5-6.3-3.7-9.2
	c-0.2-2.9-7-11-7-11s-2.8-13.6-5.8-16.1c-0.6-0.5-0.5-2.3,0-4.9c1.4-6.8,5.9-19.2,9-27.3c1.8-4.6,3.1-7.9,3.1-7.9l-5.9,1.5
	l-50.4,12.6c0,0-2.7,7.3-5.1,14.2C221.6,380.4,219.9,385.6,219.9,386.8z"/>
<path class="st2" d="M317.7,512.1c0,0,15.8-6.1,8,1.7s-22.6,7.3-22.6,7.3L317.7,512.1z"/>
<path class="st2" d="M290.8,480.9c0,0-8.9,4.9-7.2,9.6S290.8,480.9,290.8,480.9z"/>
<path class="st2" d="M281.9,442.9c-1.7,3.1-5.1,5-8.7,4.7C266.8,447.5,281.9,442.9,281.9,442.9z"/>
<path class="st2" d="M198.7,374.9c0,0,3.4,10.4,0,11.2S198.7,374.9,198.7,374.9z"/>
<path class="st2" d="M287.7,273.9c0.1,1,2,3.1,4.6,5.5c1.5-4.7,2.8-9,2-10.4c-1.2-2.1,3.6-6.7,2.7-9.8c-0.7-2.3,5.1-8.3,7.8-10.9
	c-1.6-1.6-2.6-2.4-2.6-2.4l-7,2.1C295.3,248,287.4,270.8,287.7,273.9z"/>
<path class="st2" d="M223.5,375c5.8-0.3,19.4-4.5,19.4-4.5s15.7-0.5,26-2.6c5-1,8.6-2.4,8.6-4.3c0-2.5,2.1-5.9,4.4-9
	c1.6-2,3.3-4,5.1-5.8c1-1,1.7-2.2,2.1-3.5c0.1-0.4,0.3-0.9,0.5-1.4c-1-1.7-1.9-2.9-1.9-2.9l-8.7,7.1l-50.4,12.6
	C228.7,360.7,225.9,368.1,223.5,375z"/>
<path class="st15" d="M206.8,365c0,0,11.3,6.7,14.7,8c3.4,1.2,21.4-4.4,21.4-4.4s34.6-1.1,34.6-7c0-4.5,6.6-11.7,9.6-14.8
	c1-1,1.7-2.2,2.1-3.5c1-3,3.2-8.6,5.1-10.5c2.8-2.8-1.5-17.4-1.5-17.4s-0.9-10.4-2.1-13.5s0-3.5-1-6.1c-1.2-2.9-2-2.8-0.5-9.5
	s5.2-15.3,4-17.5s3.6-6.7,2.7-9.8s9.2-12.2,9.2-12.2s-1.3-10-2.2-11.3s-4.3-8.3-4.3-9.8s-2.1-1.8-3.4-3.7s-15.4,47.4-15.4,47.4
	l-20.6,4.6l-1.1,0.3c0,0-11.7,0.5-19.3-3.7c0,0-13.1-2.1-17.4-23.9c-3.3,0.8-6.5,2-9.5,3.4c-3.2,1.5-6.4,3.7-8.2,6.3
	c-3,4.2-6.7,7.9-11,10.7c-1.3,3.3-2.4,6.6-3.4,10.1c-0.9,4-1.8,10.4-4.6,13.8c-2.8,3.4-4,13.5-4,13.5l27.6,25.1c0,0-0.6,6.4-2.1,6.1
	S206.8,365,206.8,365z"/>
<path class="st2" d="M212,251.6l14.7,30.7c0,0,6.1,4,8.3,1.8c2.1-2.2,10.3-2.1,10.3-2.1l1.1,2.1l15.5-3.7l-2.4-5l-1.1,0.3
	c0,0-11.7,0.5-19.3-3.7c0,0-13.1-2.1-17.4-23.9C218.2,249,215,250.1,212,251.6z"/>
<path class="st15" d="M212,250.3l14.7,30.7c0,0,6.1,4,8.3,1.8c2.1-2.2,10.3-2.1,10.3-2.1l1.1,2.1l15.5-3.7l-2.4-5l-1.1,0.3
	c0,0-11.7,0.5-19.3-3.7c0,0-13.1-2.1-17.4-23.9C218.2,247.7,215,248.9,212,250.3z"/>
<path class="st2" d="M218.4,339.6c0,0,32.5,10.2,34.9,11.5C255.7,352.4,218.6,343.2,218.4,339.6z"/>
<path class="st2" d="M238.9,355.3c0,0-8.5,4.8-11.6,3.1S238.9,355.3,238.9,355.3z"/>
<path class="st2" d="M265.7,298.5c0,0,8.2,43.9-3.9,56.8L265.7,298.5z"/>
<path class="st2" d="M279.2,232.4c3.1-3.4,3.3-8.6,0.3-12.1c-1.1-1.2-2.5-2.1-3.3-3.5c-0.4-0.9-1-1.8-1.6-2.7
	c-1.6-1.6-4.2-1.2-6.4-1.9s-3.6-2.3-5.3-3.7c-2.6-2.4-5.5-4.4-8.5-6c-3.2-1.7-6.8-2.9-10.3-2.3c-2.8,0.5-5.2,2-8,2.8
	c-3.8,1.1-8.6,0.9-11,4.1c-1.1,1.5-1.5,3.5-2.6,5.1c-1.5,2.2-4.4,3.3-6,5.4c-1.8,2.5-1.6,5.9-0.8,8.8c0.5,1.9,1.2,3.9,0.8,5.8
	c-0.2,0.9-0.7,1.8-0.9,2.8c-0.5,2.5,1.1,4.8,2.2,7.1c1.2,2.5,1.7,5.2,1.7,8c-0.1,0.6,0,1.2,0.3,1.8c0.3,0.5,0.7,0.8,1.2,1.1l4.6,2.9
	c0.2,0.2,0.5,0.3,0.7,0.3c0.9,0.1,1.5-0.9,2-1.6c1.5-1.8,4.5-1.7,6.6-0.7s4,2.8,6.1,3.7c5.1,2.3,11,0.3,16.5-0.8
	c1.9-0.3,3.8-0.7,5.6-1.3c1.7-0.7,3.4-1.6,4.9-2.6c1.6-0.9,3-2,4.2-3.3c1.3-1.5,1.9-3.5,1.4-5.4c-0.5-1.6-1.9-3.1-1.6-4.9
	C272.6,236.3,277.2,234.4,279.2,232.4z"/>
<path class="st15" d="M279.2,231.2c3.1-3.4,3.3-8.6,0.3-12.1c-1.1-1.2-2.5-2.1-3.3-3.4c-0.4-0.9-1-1.8-1.6-2.7
	c-1.6-1.6-4.2-1.2-6.4-1.8s-3.6-2.3-5.3-3.7c-2.6-2.4-5.5-4.4-8.5-6c-3.2-1.7-6.8-2.9-10.3-2.3c-2.8,0.5-5.2,2-8,2.8
	c-3.8,1.1-8.6,0.9-11,4c-1.1,1.5-1.5,3.5-2.6,5.1c-1.5,2.2-4.4,3.3-6,5.4c-1.8,2.5-1.6,5.9-0.8,8.8c0.5,1.9,1.2,3.9,0.8,5.8
	c-0.2,0.9-0.7,1.8-0.9,2.8c-0.5,2.5,1.1,4.8,2.2,7.1c1.2,2.5,1.8,5.3,1.7,8.1c-0.1,0.6,0,1.2,0.3,1.8c0.3,0.5,0.7,0.8,1.2,1.1
	l4.6,2.9c0.2,0.2,0.5,0.3,0.7,0.3c0.9,0.1,1.5-0.9,2-1.6c1.5-1.8,4.5-1.7,6.6-0.7s4,2.8,6.1,3.7c5.1,2.3,11,0.3,16.5-0.8
	c1.9-0.3,3.8-0.7,5.6-1.3c1.7-0.7,3.4-1.6,4.9-2.6c1.6-0.9,3-2,4.2-3.3c1.3-1.5,1.9-3.5,1.4-5.4c-0.5-1.6-1.9-3.1-1.6-4.9
	C272.6,235,277.2,233.2,279.2,231.2z"/>
<path class="st16" d="M174.8,336.4c-0.2,4.1,3.4,9.6,3.4,9.6c1.1,2.6,14.2,14.7,14.2,14.7l10.4,7c0,0,13.9,8.6,17.2,10.1
	c1.6,0.8,3.4,4,4.8,7.2c1.4,3.2,2.3,6,2.3,6c6.2-0.9,11-5.9,11.6-12.2c0.4-3.9,0.6-7.5,0.3-7.5c-0.8-0.1-9.3-6.6-9.3-6.6
	s-9.9-6.4-13.2-12.9c-3.2-6.4-15.8-16.2-15.8-16.2l0.2-0.4l0.7-1.3l1.5-5l-24-10.7c0,0-0.6,2-1.4,4.6
	C176.6,327.3,174.9,333.9,174.8,336.4z"/>
<path class="st2" d="M177.9,322.9c4.5,4.5,9.4,8.6,14.5,12.4c1.5,0.9,6.7,0.3,8.6,0.1l0.7-1.3l1.5-5l-24-10.7
	C179.3,318.2,178.6,320.2,177.9,322.9z"/>
<path class="st15" d="M201.7,304.3c0,0,12.2,7.4,11.6,10.6c-0.6,3.2-5.8,14.3-5.8,14.3l-5.8,4.8c0,0-7.5,1.1-9.3,0
	s-14.8-11.8-15.3-13.5c-0.5-1.7,0-7.4,0-8.6c0-1.2,3.7-7.2,3.7-7.2l5.4-9.5L201.7,304.3z"/>
<polygon class="st2" points="242.9,370.5 246.5,380.1 240.4,385.9 240.1,387.6 226.7,395.3 222.4,384.5 "/>
<polygon class="st18" points="242.9,369.8 246.5,379.5 240.4,385.3 240.1,387 226.7,394.7 222.4,383.9 "/>
<g class="st7">
	<path d="M272.3,237.5c-0.2-0.6-0.3-1.1-0.2-1.7c0.5-3.1,5.1-5,7.1-7c1.3-1.4,2.1-3.1,2.4-5c0.4,2.7-0.5,5.5-2.4,7.5
		C277.4,233,273.3,234.8,272.3,237.5z"/>
	<path d="M215.7,233.5c0.5,1.7,1.2,3.3,2.1,4.9c1.2,2.5,1.7,5.2,1.7,8c-0.1,0.6,0,1.2,0.2,1.8c0.3,0.5,0.7,0.8,1.2,1.1l4.6,2.9
		c0.2,0.2,0.5,0.3,0.7,0.3c0.9,0.1,1.4-0.9,2-1.6c1.5-1.8,4.5-1.7,6.6-0.7s4,2.8,6.1,3.8c5.1,2.3,11,0.3,16.5-0.8
		c1.9-0.3,3.8-0.7,5.6-1.3c1.7-0.7,3.4-1.6,4.9-2.6c1.6-0.9,3-2,4.2-3.3c0.7-0.8,1.2-1.7,1.4-2.8c0.4,1.9-0.1,3.8-1.4,5.2
		c-1.2,1.3-2.6,2.4-4.2,3.3c-1.5,1-3.2,1.9-4.9,2.6c-1.8,0.6-3.7,1-5.6,1.3c-5.5,1.1-11.4,3.1-16.5,0.8c-2.2-1-4-2.7-6.1-3.7
		s-5.1-1.2-6.6,0.7c-0.6,0.7-1.1,1.7-2,1.6c-0.3-0.1-0.5-0.2-0.7-0.3l-4.6-2.9c-0.5-0.3-0.9-0.6-1.2-1.1c-0.2-0.6-0.3-1.2-0.2-1.8
		c0.1-2.7-0.5-5.5-1.7-8c-1.1-2.3-2.7-4.6-2.2-7.1C215.7,233.7,215.7,233.6,215.7,233.5z"/>
	<path d="M215.8,222.8c0.5,1.9,1.2,3.8,0.8,5.7c-0.2-1.1-0.5-2.2-0.8-3.2c-0.5-1.7-0.6-3.4-0.5-5.2
		C215.4,220.9,215.6,221.9,215.8,222.8z"/>
</g>
<circle class="st0" cx="21.6" cy="133.1" r="21.6"/>
<circle class="st0" cx="608.7" cy="42" r="21.6"/>
<circle class="st0" cx="951.9" cy="127.4" r="21.6"/>
<circle class="st0" cx="64.9" cy="252.5" r="36.3"/>
<circle class="st0" cx="507.6" cy="789.5" r="36.3"/>
<ellipse transform="matrix(0.1602 -0.9871 0.9871 0.1602 73.2357 1623.2183)" class="st0" cx="990.5" cy="768.6" rx="36.3" ry="36.3"/>
</svg>
