<?xml version="1.0" encoding="utf-8"?>
<!-- Generator: Adobe Illustrator 22.1.0, SVG Export Plug-In . SVG Version: 6.00 Build 0)  -->
<svg version="1.1" id="Layer_1" xmlns="http://www.w3.org/2000/svg" xmlns:xlink="http://www.w3.org/1999/xlink" x="0px" y="0px"
	 viewBox="0 0 150 150" style="enable-background:new 0 0 150 150;" xml:space="preserve">
<style type="text/css">
	.st0{fill:none;stroke:#DA4B48;stroke-width:2;stroke-linecap:round;stroke-linejoin:round;stroke-miterlimit:10;}
</style>
<g>
	<g>
		<path class="st0" d="M95.4,58.1c0.8-2.6,1.3-5.4,1.3-8.3c0-13.8-9.9-24.1-22.2-24.1c-12.2,0-22.2,10.3-22.2,24.1
			c0,2.9,0.4,5.7,1.3,8.3c-1.7,1.1-2.9,3.1-2.9,5.4c0,3,1.9,5.5,4.6,6.2c3.2,9.5,10.6,16.1,19.2,16.1c8.6,0,16-6.6,19.2-16.1
			c2.6-0.7,4.6-3.2,4.6-6.2C98.3,61.2,97.1,59.2,95.4,58.1z"/>
		<path class="st0" d="M92.2,49.2c-0.7-3-3.9-5.3-6.5-5.3c-0.8,0-3.4,0.7-3.4,0.7l3.2-5c0,0-2.7-0.1-7.4,4.1
			c-9.6,8.6-20.2,1.8-20.2,1.8"/>
		<g>
			<g>
				<path class="st0" d="M69,59.3c-0.6-0.5-1.6-0.8-2.7-0.8c-1.1,0-2.1,0.3-2.7,0.8"/>
				<path class="st0" d="M85.4,59.3c-0.6-0.5-1.6-0.8-2.7-0.8c-1.1,0-2.1,0.3-2.7,0.8"/>
			</g>
			<path class="st0" d="M53.7,49.2"/>
			<polyline class="st0" points="74.8,96.7 82.9,105.9 93.9,94 89.2,85.9 			"/>
			<path class="st0" d="M55.8,93.6l-20.6,8.4c-1.3,0.8-2.4,1.8-3.3,3.1c-1.4,1.9-2.2,4.3-2.2,6.7v12.4"/>
			<path class="st0" d="M93.7,93.6l21,8.8c3.9,2,5.5,5.8,5.5,9.8v0.9v11.2"/>
			<path class="st0" d="M54.6,61"/>
			<polyline class="st0" points="74.8,96.7 66.6,105.9 55.7,94 60.4,85.9 			"/>
			<line class="st0" x1="89.2" y1="85.9" x2="74.8" y2="96.7"/>
			<line class="st0" x1="60.4" y1="85.9" x2="74.8" y2="96.7"/>
		</g>
	</g>
	<g>
		<g>
			<path class="st0" d="M128.2,67.9c0.4-1.4,0.7-2.9,0.7-4.5c0-7.4-5.3-13-11.9-13s-11.9,5.5-11.9,13c0,1.6,0.2,3.1,0.7,4.5
				c-0.9,0.6-1.5,1.7-1.5,2.9c0,1.6,1,2.9,2.5,3.3c1.7,5.1,5.7,8.7,10.3,8.7c4.6,0,8.6-3.6,10.3-8.7c1.4-0.4,2.5-1.7,2.5-3.3
				C129.8,69.6,129.2,68.6,128.2,67.9z"/>
			<g>
				<path class="st0" d="M105.8,64.2"/>
				<polyline class="st0" points="117.1,89.7 121.5,94.7 127.4,88.2 124.9,83.9 				"/>
				<line class="st0" x1="106.9" y1="88.1" x2="94.1" y2="93.3"/>
				<line class="st0" x1="127.3" y1="88.1" x2="136.3" y2="91.8"/>
				<path class="st0" d="M106.3,70.5"/>
				<polyline class="st0" points="117.1,89.7 112.8,94.7 106.9,88.2 109.4,83.9 				"/>
				<line class="st0" x1="124.9" y1="83.9" x2="117.1" y2="89.7"/>
				<line class="st0" x1="109.4" y1="83.9" x2="117.1" y2="89.7"/>
			</g>
		</g>
		<g>
			<path class="st0" d="M21.8,67.9c-0.4-1.4-0.7-2.9-0.7-4.5c0-7.4,5.3-13,11.9-13S45,56.1,45,63.5c0,1.6-0.2,3.1-0.7,4.5
				c0.9,0.6,1.5,1.7,1.5,2.9c0,1.6-1,2.9-2.5,3.3c-1.7,5.1-5.7,8.7-10.3,8.7s-8.6-3.6-10.3-8.7c-1.4-0.4-2.5-1.7-2.5-3.3
				C20.2,69.6,20.8,68.6,21.8,67.9z"/>
			<g>
				<path class="st0" d="M44.2,64.2"/>
				<polyline class="st0" points="32.9,89.7 28.5,94.7 22.6,88.2 25.1,83.9 				"/>
				<line class="st0" x1="43.1" y1="88.1" x2="55.9" y2="93.3"/>
				<line class="st0" x1="22.7" y1="88.1" x2="13.7" y2="91.8"/>
				<path class="st0" d="M43.7,70.5"/>
				<polyline class="st0" points="32.9,89.7 37.2,94.7 43.1,88.2 40.6,83.9 				"/>
				<line class="st0" x1="25.1" y1="83.9" x2="32.9" y2="89.7"/>
				<line class="st0" x1="40.6" y1="83.9" x2="32.9" y2="89.7"/>
			</g>
		</g>
	</g>
</g>
</svg>
