<?xml version="1.0" encoding="utf-8"?>
<!-- Generator: Adobe Illustrator 22.1.0, SVG Export Plug-In . SVG Version: 6.00 Build 0)  -->
<svg version="1.1" id="Layer_1" xmlns="http://www.w3.org/2000/svg" xmlns:xlink="http://www.w3.org/1999/xlink" x="0px" y="0px"
	 viewBox="0 0 150 150" style="enable-background:new 0 0 150 150;" xml:space="preserve">
<style type="text/css">
	.st0{fill:none;stroke:#151B26;stroke-width:2;stroke-linecap:round;stroke-linejoin:round;}
	.st1{fill:none;stroke:#151B26;stroke-width:2;stroke-linecap:round;stroke-linejoin:round;stroke-dasharray:9.1912,9.1912;}
	.st2{fill:none;stroke:#151B26;stroke-width:2;stroke-linecap:round;stroke-linejoin:round;stroke-miterlimit:10;}
	.st3{fill:none;stroke:#151B26;stroke-width:2;stroke-linecap:round;stroke-linejoin:round;stroke-dasharray:9.7064,9.7064;}
</style>
<g>
	<g>
		<g>
			<path class="st0" d="M85.1,26.1c1.6,0.3,3.3,0.8,4.8,1.2"/>
			<path class="st1" d="M98.4,30.9c4.1,2.2,7.8,4.9,11.1,8.1"/>
			<path class="st0" d="M112.7,42.3c1.1,1.3,2.1,2.6,3.1,3.9"/>
		</g>
	</g>
	<path class="st2" d="M115.8,46.2c5.7,8.1,9.1,18.1,9.1,28.8c0,18.2-9.7,34.1-24.2,42.8"/>
	<path class="st2" d="M49.3,117.7C34.8,109,25.1,93.1,25.1,75c0-27.5,22.3-49.9,49.9-49.9c3.4,0,6.8,0.3,10.1,1"/>
	<path class="st2" d="M75,122.3"/>
	<ellipse class="st2" cx="75" cy="75" rx="57.5" ry="57.5"/>
	<path class="st2" d="M84.4,72.7"/>
	<path class="st2" d="M84.5,72.7"/>
	<g>
		<g>
			<path class="st0" d="M55.1,121c0,0,1.7,0.8,4.7,1.7"/>
			<path class="st3" d="M69.3,124.7c4.3,0.5,9.3,0.5,14.5-0.5"/>
			<path class="st0" d="M88.5,122.9c1.5-0.5,3.1-1.1,4.6-1.9"/>
		</g>
	</g>
	<path class="st2" d="M87.8,61c0,9.5-6,17.1-13.4,17.1c-7.4,0-13.4-8.6-13.4-17.1"/>
	<path class="st2" d="M89.4,54.2c2,0,2.7,1.9,2.7,4.4s-1.6,4.6-3.6,4.6"/>
	<path class="st2" d="M60.7,63c-1.9,0-3.5-2-3.5-4.5S58,54,59.9,54"/>
	<line class="st2" x1="65.5" y1="80.3" x2="65.5" y2="73.5"/>
	<line class="st2" x1="84.4" y1="72.7" x2="84.4" y2="80.3"/>
	<path class="st2" d="M65.5,80.3c0,0-10.6,4.7-18.2,6.7c-7.7,2-9.7,14.6-10,20.6"/>
	<path class="st2" d="M84.5,80.3c0,0,11.4,4.7,19,6.7c7.7,2,8.9,14.6,9.3,20.6"/>
	<path class="st2" d="M61.1,51.3c0,0-3.3-11.8-0.6-14.5c2.7-2.7,5.5-2.1,5.5-2.1s0.5-2.9,5.6-2.9c4.6,0,10.7,0.1,15.6,5.1
		c1.3,1.3,1.8,3.1,1.6,4.9l-1.1,9.5c0,0-1.6-9.8-21.8-9.8L61.1,51.3z"/>
	<path class="st2" d="M86.4,81.3c0,6.3-5.1,11.4-11.4,11.4s-11.4-5.1-11.4-11.4"/>
	<line class="st2" x1="87.8" y1="51.3" x2="87.8" y2="58.1"/>
	<line class="st2" x1="61.1" y1="51.3" x2="61.1" y2="58.1"/>
</g>
</svg>
