<?xml version="1.0" encoding="utf-8"?>
<!-- Generator: Adobe Illustrator 22.1.0, SVG Export Plug-In . SVG Version: 6.00 Build 0)  -->
<svg version="1.1" id="Layer_1" xmlns="http://www.w3.org/2000/svg" xmlns:xlink="http://www.w3.org/1999/xlink" x="0px" y="0px"
	 viewBox="0 0 150 150" style="enable-background:new 0 0 150 150;" xml:space="preserve">
<style type="text/css">
	.st0{fill:none;stroke:#151B26;stroke-width:2;stroke-linecap:round;stroke-linejoin:round;stroke-miterlimit:10;}
	.st1{fill:#FFFFFF;stroke:#151B26;stroke-width:1.75;stroke-linecap:round;stroke-linejoin:round;stroke-miterlimit:10;}
	.st2{fill:none;stroke:#151B26;stroke-width:1.75;stroke-linecap:round;stroke-linejoin:round;stroke-miterlimit:10;}
</style>
<g>
	<g>
		<g>
			<path class="st0" d="M110.9,60.7c0.8-2.4,1.2-5,1.2-7.7c0-12.7-9.2-22.2-20.5-22.2c-11.3,0-20.5,9.5-20.5,22.2
				c0,2.7,0.4,5.3,1.2,7.7c-1.6,1.1-2.6,2.9-2.6,5c0,2.7,1.8,5,4.2,5.7c2.9,8.8,9.8,14.9,17.7,14.9s14.8-6.1,17.7-14.9
				c2.4-0.7,4.2-3,4.2-5.7C113.6,63.6,112.5,61.8,110.9,60.7z"/>
			<path class="st0" d="M107.9,52.5c-0.7-2.8-3.6-4.9-6-4.9c-0.8,0-3.1,0.7-3.1,0.7l2.9-4.6c0,0-2.5-0.1-6.8,3.8
				c-8.9,8-18.6,1.7-18.6,1.7"/>
			<g>
				<g>
					<line class="st0" x1="88.2" y1="100.6" x2="88.2" y2="123.9"/>
					<line class="st0" x1="95.6" y1="100.6" x2="95.6" y2="123.9"/>
				</g>
				<g>
					<path class="st0" d="M86.6,61.9c-0.5-0.4-1.5-0.7-2.5-0.7c-1,0-1.9,0.3-2.5,0.7"/>
					<path class="st0" d="M101.7,61.9c-0.5-0.4-1.5-0.7-2.5-0.7c-1,0-1.9,0.3-2.5,0.7"/>
				</g>
				<path class="st0" d="M72.4,52.5"/>
				<polyline class="st0" points="91.9,96.4 99.4,104.9 109.5,93.8 105.2,86.4 				"/>
				<path class="st0" d="M74.4,93.5l-19,7.8c-1.2,0.7-2.2,1.7-3,2.8c-1.3,1.8-2,3.9-2,6.2v13.5"/>
				<path class="st0" d="M109.4,93.5l19.4,8.2c3.6,1.8,5,5.4,5,9v0.8v12.3"/>
				<path class="st0" d="M73.2,63.5"/>
				<polyline class="st0" points="91.9,96.4 84.4,104.9 74.3,93.8 78.6,86.4 				"/>
				<line class="st0" x1="105.2" y1="86.4" x2="91.9" y2="96.4"/>
				<line class="st0" x1="78.6" y1="86.4" x2="91.9" y2="96.4"/>
			</g>
		</g>
	</g>
	<g>
		<line class="st0" x1="48.4" y1="56.5" x2="66" y2="56.5"/>
		<line class="st0" x1="48.4" y1="63.1" x2="66" y2="63.1"/>
		<g>
			<path class="st1" d="M32.2,49.3c-4.3,0-7.8,3.5-7.8,7.8c0,2.3,2.7,7.4,7.1,13.5c0.2,0.2,0.4,0.3,0.6,0.3c0.3,0,0.5-0.1,0.6-0.3
				c4.4-6.1,7.1-11.2,7.1-13.5C40,52.8,36.5,49.3,32.2,49.3z"/>
			<circle class="st2" cx="32.2" cy="57.1" r="3.6"/>
		</g>
		<polygon class="st0" points="29.8,39.7 16.2,39.7 29.8,26.1 		"/>
		<g>
			<polyline class="st0" points="81.6,32.9 81.6,26.1 30.7,26.1 			"/>
			<polyline class="st0" points="17.1,39.7 17.1,117.7 51.3,117.7 			"/>
		</g>
		<line class="st0" x1="48.4" y1="91.2" x2="66" y2="91.2"/>
		<line class="st0" x1="48.4" y1="97.8" x2="53.2" y2="97.8"/>
		<g>
			<path class="st1" d="M32.2,82.3c-4.3,0-7.8,3.5-7.8,7.8c0,2.3,2.7,7.4,7.1,13.5c0.2,0.2,0.4,0.3,0.6,0.3c0.3,0,0.5-0.1,0.6-0.3
				c4.4-6.1,7.1-11.2,7.1-13.5C40,85.8,36.5,82.3,32.2,82.3z"/>
			<circle class="st2" cx="32.2" cy="90.1" r="3.6"/>
		</g>
	</g>
</g>
</svg>
