<svg width="654" height="654" viewBox="0 0 654 654" fill="none" xmlns="http://www.w3.org/2000/svg">
<g opacity="0.6">
<path d="M344 327C344 336.388 336.389 344 327 344C317.611 344 310 336.388 310 327C310 317.611 317.611 310 327 310C336.389 310 344 317.611 344 327Z" stroke="#3E3E3E" stroke-width="2"/>
<path d="M368 327C368 349.644 349.644 368 327 368C304.356 368 286 349.644 286 327C286 304.356 304.356 286 327 286C349.644 286 368 304.356 368 327Z" stroke="#3E3E3E" stroke-width="2"/>
<path d="M392 327C392 362.899 362.899 392 327 392C291.101 392 262 362.899 262 327C262 291.102 291.101 262 327 262C362.899 262 392 291.102 392 327Z" stroke="#3E3E3E" stroke-width="2"/>
<path d="M416 327C416 376.153 376.153 416 327 416C277.847 416 238 376.153 238 327C238 277.846 277.847 238 327 238C376.153 238 416 277.846 416 327Z" stroke="#3E3E3E" stroke-width="2"/>
<path d="M440 327C440 389.408 389.408 440 327 440C264.592 440 214 389.408 214 327C214 264.592 264.592 214 327 214C389.408 214 440 264.592 440 327Z" stroke="#3E3E3E" stroke-width="2"/>
<circle cx="327" cy="327" r="137" stroke="#3E3E3E" stroke-width="2"/>
<circle cx="327" cy="327" r="161" stroke="#3E3E3E" stroke-width="2"/>
<path d="M512 327C512 429.173 429.173 512 327 512C224.827 512 142 429.173 142 327C142 224.827 224.827 142 327 142C429.173 142 512 224.827 512 327Z" stroke="#3E3E3E" stroke-width="2"/>
<path d="M536 327C536 442.428 442.428 536 327 536C211.572 536 118 442.428 118 327C118 211.573 211.572 118 327 118C442.428 118 536 211.573 536 327Z" stroke="#3E3E3E" stroke-width="2"/>
<circle cx="327" cy="327" r="233" stroke="#3E3E3E" stroke-width="2"/>
<circle cx="327" cy="327" r="257" stroke="#3E3E3E" stroke-width="2"/>
<path d="M606 326.999C606 481.087 481.087 605.999 327 605.999C172.913 605.999 48 481.087 48 326.999C48 172.912 172.913 47.9995 327 47.9995C481.087 47.9995 606 172.912 606 326.999Z" stroke="#3E3E3E" stroke-width="2"/>
<circle cx="327" cy="327" r="302" stroke="#3E3E3E" stroke-width="2"/>
<circle cx="327" cy="327" r="326" stroke="#3E3E3E" stroke-width="2"/>
</g>
</svg>
