<svg xmlns="http://www.w3.org/2000/svg" xmlns:xlink="http://www.w3.org/1999/xlink" viewBox="0 0 594.5 970.02"><defs><style>.cls-1,.cls-4{fill:none;}.cls-2{fill:#949494;}.cls-3{fill:url(#New_Pattern);}.cls-4{stroke:#000;stroke-linecap:round;stroke-miterlimit:10;stroke-width:2.5px;}</style><pattern id="New_Pattern" data-name="New Pattern" width="12" height="12" patternTransform="matrix(-1, 0, 0, 1, 26.1, -28.95)" patternUnits="userSpaceOnUse" viewBox="0 0 12 12"><rect class="cls-1" width="12" height="12"/><rect class="cls-1" width="12" height="12"/><circle class="cls-2" cx="12" cy="3" r="2"/><circle class="cls-2" cx="6" r="2"/><circle class="cls-2" cy="3" r="2"/><circle class="cls-2" cx="12" cy="9" r="2"/><circle class="cls-2" cx="6" cy="6" r="2"/><circle class="cls-2" cy="9" r="2"/><circle class="cls-2" cx="6" cy="12" r="2"/></pattern></defs><title>Asset 2</title><g id="Layer_2" data-name="Layer 2"><g id="Shadows"><path class="cls-3" d="M108.22,386.27c4.37-141.87-19-317.4-19-324.2,0-7.32,2.81-22,12.39-22,8,0,63.45,33.83,80.92,80.74"/><path class="cls-3" d="M91.92,447.52c-18.51-59.14-66.57-200-70.5-205.92-4.85-7.29,3-19.43,14.57-19.43,6.62,0,51.22,15.12,70.58,43.05.7,17.94,2.3,119.53,2.3,119.53Z"/><path class="cls-3" d="M250.18,249.62c-2.77,14.92-99,217.73-154.82,185.15-3.44,12.75-4.65,20.12-4.65,20.12l-3.45,46.92-1.87,59.65,5.48-19.79,10.54-30.18,7.46-15.59,12.3-15,34.49-30.39,42.26-32.39,22.69-16.81,5.85-29.12L236,326.52l9.1-50.11Z"/></g><g id="Vector"><path class="cls-4" d="M91.92,447.52c-18.51-59.14-66.57-200-70.5-205.92-4.85-7.29,3-19.43,14.57-19.43,6.62,0,51.22,15.12,70.58,43.05"/><path class="cls-4" d="M108.22,386.27c4.37-141.87-19-317.4-19-324.2,0-7.32,2.81-22,12.39-22,8,0,63.45,33.83,80.92,80.74"/><path class="cls-4" d="M85,562.85c.21-25.08,3.21-92.08,6.21-112.08s120-429.25,120.44-435.2,4.19-14.32,10.8-14.32c44.63,0,52.44,84.83,52.44,102.24,0,14.43-37.47,219.28-54.44,298.34"/><path class="cls-4" d="M292.25,968.77c-1-22,38-146,43-168,0,0,119-99,138-116s120-198,120-205-21-15-27-14c-29-37-223-134-234-134s-159,97-211,149-66,290-67,308-32,99-42,128l-11,52m368-336c-18,0-122-77-123-81s8-48,12-52,90-65,95-65,119,57,160,48C471.25,502.77,387.25,632.77,369.25,632.77Z"/><path class="cls-4" d="M509.33,484.13c5-1.56,47.46-13.92,56.92-18.36"/></g></g></svg>