<?xml version="1.0" encoding="utf-8"?>
<!-- Generator: Adobe Illustrator 22.1.0, SVG Export Plug-In . SVG Version: 6.00 Build 0)  -->
<svg version="1.1" id="macbook_1_" xmlns="http://www.w3.org/2000/svg" xmlns:xlink="http://www.w3.org/1999/xlink" x="0px" y="0px"
	 viewBox="0 0 1294 618.1" style="enable-background:new 0 0 1294 618.1;" xml:space="preserve">
<style type="text/css">
	.st0{opacity:0.3;fill:#E7EAF3;enable-background:new    ;}
	.st1{fill:#FFFFFF;stroke:#E7EAF3;stroke-miterlimit:10;}
	.st2{fill:#F7F7F7;}
	.st3{fill:#FFFFFF;}
	.st4{fill:#EFEFEF;}
	.st5{fill:url(#SVGID_1_);}
	.st6{clip-path:url(#SVGID_4_);}
	.st7{fill:none;stroke:#E7EAF3;stroke-miterlimit:10;}
	.st8{clip-path:url(#SVGID_7_);}
	.st9{opacity:0.3;fill:url(#SVGID_8_);enable-background:new    ;}
	.st10{opacity:0.3;fill:url(#SVGID_9_);enable-background:new    ;}
	.st11{opacity:0.3;fill:url(#SVGID_10_);enable-background:new    ;}
	.st12{opacity:0.1;fill:#474A51;enable-background:new    ;}
	.st13{fill:#21C87A;}
</style>
<ellipse class="st0" cx="716.5" cy="569.6" rx="577.5" ry="48.5"/>
<g id="laptop">
	<path class="st1" d="M1097.3,577H333.5c-14.4,0-26.2-11.8-26.2-26.2V26.7c0-14.4,11.8-26.2,26.2-26.2h763.9
		c14.4,0,26.2,11.8,26.2,26.2v524.2C1123.5,565.2,1111.7,577,1097.3,577z"/>
	<circle class="st2" cx="714" cy="23.8" r="3"/>
	<path class="st3" d="M1212.3,561.2H218.9c-1.5,0-2.8-1.3-2.8-2.8l0,0c0-1.5,1.3-2.8,2.8-2.8h993.4c1.5,0,2.8,1.3,2.8,2.8l0,0
		C1215.1,559.9,1213.9,561.2,1212.3,561.2z"/>
	<path class="st4" d="M715.6,563L216,561.2c0,0,24.1,11.3,117.8,15.8H714h3.1h380.2c93.7-4.5,117.8-15.8,117.8-15.8L715.6,563z"/>
	
		<linearGradient id="SVGID_1_" gradientUnits="userSpaceOnUse" x1="619.9" y1="129.2" x2="811" y2="129.2" gradientTransform="matrix(1 0 0 1 0 430)">
		<stop  offset="5.908129e-07" style="stop-color:#F0F1F2"/>
		<stop  offset="5.235744e-02" style="stop-color:#F6F7F8"/>
		<stop  offset="0.1708" style="stop-color:#FDFDFD"/>
		<stop  offset="0.5" style="stop-color:#FFFFFF"/>
		<stop  offset="0.8292" style="stop-color:#FDFDFD"/>
		<stop  offset="0.9476" style="stop-color:#F6F7F8"/>
		<stop  offset="1" style="stop-color:#F0F1F2"/>
	</linearGradient>
	<path class="st5" d="M807.4,562.7h-184c-1.9,0-3.5-1.6-3.5-3.5v-3.5H811v3.5C811,561.1,809.4,562.7,807.4,562.7z"/>
	<g>
		<g>
			<g>
				<defs>
					<rect id="SVGID_3_" x="337.7" y="38" width="752.5" height="469.7"/>
				</defs>
				<clipPath id="SVGID_4_">
					<use xlink:href="#SVGID_3_"  style="overflow:visible;"/>
				</clipPath>
				<g class="st6">
					
						<image style="overflow:visible;" width="753" height="470" xlink:href="../../img/753x470/img2.jpg"  transform="matrix(1 0 0 1 337.5 38)">
					</image>
				</g>
			</g>
		</g>
		<g>
			<rect id="SVGID_2_" x="337.7" y="38" class="st7" width="752.5" height="469.7"/>
		</g>
	</g>
</g>
<g id="phone">
	<path class="st1" d="M1197.1,577h-120.9c-29.7,0-54-24.3-54-54V150.9c0-29.7,24.3-54,54-54h120.9c29.7,0,54,24.3,54,54V523
		C1251.1,552.7,1226.8,577,1197.1,577z"/>
	<circle class="st2" cx="1137.4" cy="543.4" r="18.4"/>
	<path class="st2" d="M1152.2,133.7h-30.3c-1.6,0-2.9-1.3-2.9-2.9l0,0c0-1.6,1.3-2.9,2.9-2.9h30.3c1.6,0,2.9,1.3,2.9,2.9l0,0
		C1155.1,132.4,1153.8,133.7,1152.2,133.7z"/>
	<g>
		<g>
			<defs>
				<rect id="SVGID_6_" x="1036.2" y="154.8" width="202.2" height="361"/>
			</defs>
			<clipPath id="SVGID_7_">
				<use xlink:href="#SVGID_6_"  style="overflow:visible;"/>
			</clipPath>
			<g class="st8">
				
					<image style="overflow:visible;" width="204" height="361" xlink:href="../../img/204x361/img2.jpg"  transform="matrix(1 0 0 1 1035.6499 154.8)">
				</image>
			</g>
		</g>
		<g>
			<rect id="SVGID_5_" x="1036.2" y="154.8" class="st7" width="202.2" height="361"/>
		</g>
	</g>
</g>
<linearGradient id="SVGID_8_" gradientUnits="userSpaceOnUse" x1="0" y1="337.1" x2="261.902" y2="337.1" gradientTransform="matrix(1 0 0 -1 0 618)">
	<stop  offset="0" style="stop-color:#FFFFFF"/>
	<stop  offset="1" style="stop-color:#CCD1DB"/>
</linearGradient>
<path class="st9" d="M254.1,288.8H7.9c-4.4,0-7.9-3.6-7.9-7.9l0,0c0-4.4,3.6-7.9,7.9-7.9H254c4.4,0,7.9,3.6,7.9,7.9l0,0
	C262,285.2,258.4,288.8,254.1,288.8z"/>
<linearGradient id="SVGID_9_" gradientUnits="userSpaceOnUse" x1="59" y1="287.1" x2="251.902" y2="287.1" gradientTransform="matrix(1 0 0 -1 0 618)">
	<stop  offset="0" style="stop-color:#FFFFFF"/>
	<stop  offset="1" style="stop-color:#CCD1DB"/>
</linearGradient>
<path class="st10" d="M244.1,338.8H66.9c-4.4,0-7.9-3.6-7.9-7.9l0,0c0-4.4,3.6-7.9,7.9-7.9H244c4.4,0,7.9,3.6,7.9,7.9l0,0
	C252,335.2,248.4,338.8,244.1,338.8z"/>
<linearGradient id="SVGID_10_" gradientUnits="userSpaceOnUse" x1="116" y1="237.1" x2="241.902" y2="237.1" gradientTransform="matrix(1 0 0 -1 0 618)">
	<stop  offset="0" style="stop-color:#FFFFFF"/>
	<stop  offset="1" style="stop-color:#CCD1DB"/>
</linearGradient>
<path class="st11" d="M234.1,388.8H123.9c-4.4,0-7.9-3.6-7.9-7.9l0,0c0-4.4,3.6-7.9,7.9-7.9H234c4.4,0,7.9,3.6,7.9,7.9l0,0
	C242,385.2,238.4,388.8,234.1,388.8z"/>
<ellipse class="st12" cx="1036.2" cy="602.8" rx="42.8" ry="3.6"/>
<g id="XMLID_117_">
	<path id="XMLID_120_" class="st13" d="M1100.2,539c0,35.1-28.2,64-64,64c-35.1,0-64-28.2-64-64s28.2-64,64-64
		C1071.3,475,1100.2,503.9,1100.2,539z"/>
	<g id="XMLID_118_">
		<polygon id="XMLID_119_" class="st3" points="1030.7,558.9 1010.1,538.3 1017,531.4 1030.7,544.5 1055.5,519 1063.1,526.6 		"/>
	</g>
</g>
</svg>
