<?xml version="1.0" encoding="utf-8"?>
<!-- Generator: Adobe Illustrator 22.1.0, SVG Export Plug-In . SVG Version: 6.00 Build 0)  -->
<svg version="1.1" id="Layer_1" xmlns="http://www.w3.org/2000/svg" xmlns:xlink="http://www.w3.org/1999/xlink" x="0px" y="0px"
	 viewBox="0 0 510 581.3" style="enable-background:new 0 0 510 581.3;" xml:space="preserve">
<style type="text/css">
	.st0{opacity:0.4;}
	.st1{enable-background:new    ;}
	.st2{fill:#8C98A4;}
	.st3{opacity:0.7;fill:#E3E6F0;}
	.st4{fill:#F5F8FB;}
	.st5{fill:#E3E6F0;}
	.st6{clip-path:url(#SVGID_2_);}
	.st7{fill:none;stroke:#E7EAF3;stroke-miterlimit:10;}
	.st8{opacity:0.5;}
	.st9{fill:none;stroke:#8C98A4;stroke-width:2;stroke-miterlimit:10;}
	.st10{fill:none;stroke:#796EFF;stroke-width:2;stroke-linecap:round;stroke-linejoin:round;stroke-miterlimit:10;}
	.st11{opacity:0.5;fill:#8C98A4;}
	.st12{fill:#FFFFFF;stroke:#8F95A0;stroke-width:2;stroke-linecap:round;stroke-linejoin:round;stroke-miterlimit:10;}
	.st13{fill:none;stroke:#21C87A;stroke-width:2;stroke-linecap:round;stroke-linejoin:round;stroke-miterlimit:10;}
	.st14{fill:#FFFFFF;}
	.st15{fill:none;stroke:#8F95A0;stroke-width:2;stroke-linecap:round;stroke-linejoin:round;stroke-miterlimit:10;}
</style>
<g>
	<g class="st0">
		<g>
			<g>
				<g class="st1">
					<path class="st2" d="M398,474.5v-3.7h-3.7v-1.6h3.7v-3.7h1.6v3.7h3.7v1.6h-3.7v3.7H398z"/>
				</g>
				<g class="st1">
					<path class="st2" d="M440.6,474.5v-3.7h-3.7v-1.6h3.7v-3.7h1.6v3.7h3.7v1.6h-3.7v3.7H440.6z"/>
				</g>
				<g class="st1">
					<path class="st2" d="M419.4,474.5v-3.7h-3.7v-1.6h3.7v-3.7h1.6v3.7h3.7v1.6h-3.7v3.7H419.4z"/>
				</g>
				<g class="st1">
					<path class="st2" d="M398,474.5v-3.7h-3.7v-1.6h3.7v-3.7h1.6v3.7h3.7v1.6h-3.7v3.7H398z"/>
				</g>
				<g class="st1">
					<path class="st2" d="M462,474.5v-3.7h-3.7v-1.6h3.7v-3.7h1.6v3.7h3.7v1.6h-3.6v3.7H462z"/>
				</g>
				<g class="st1">
					<path class="st2" d="M483.3,474.5v-3.7h-3.7v-1.6h3.7v-3.7h1.6v3.7h3.7v1.6h-3.7v3.7H483.3z"/>
				</g>
				<g class="st1">
					<path class="st2" d="M504.7,474.5v-3.7H501v-1.6h3.7v-3.7h1.6v3.7h3.7v1.6h-3.7v3.7H504.7z"/>
				</g>
			</g>
			<g>
				<g class="st1">
					<path class="st2" d="M398,495.9v-3.7h-3.7v-1.6h3.7v-3.7h1.6v3.7h3.7v1.6h-3.7v3.7H398z"/>
				</g>
				<g class="st1">
					<path class="st2" d="M440.6,495.9v-3.7h-3.7v-1.6h3.7v-3.7h1.6v3.7h3.7v1.6h-3.7v3.7H440.6z"/>
				</g>
				<g class="st1">
					<path class="st2" d="M419.4,495.9v-3.7h-3.7v-1.6h3.7v-3.7h1.6v3.7h3.7v1.6h-3.7v3.7H419.4z"/>
				</g>
				<g class="st1">
					<path class="st2" d="M398,495.9v-3.7h-3.7v-1.6h3.7v-3.7h1.6v3.7h3.7v1.6h-3.7v3.7H398z"/>
				</g>
				<g class="st1">
					<path class="st2" d="M462,495.9v-3.7h-3.7v-1.6h3.7v-3.7h1.6v3.7h3.7v1.6h-3.6v3.7H462z"/>
				</g>
				<g class="st1">
					<path class="st2" d="M483.3,495.9v-3.7h-3.7v-1.6h3.7v-3.7h1.6v3.7h3.7v1.6h-3.7v3.7H483.3z"/>
				</g>
				<g class="st1">
					<path class="st2" d="M504.7,495.9v-3.7H501v-1.6h3.7v-3.7h1.6v3.7h3.7v1.6h-3.7v3.7H504.7z"/>
				</g>
			</g>
			<g>
				<g class="st1">
					<path class="st2" d="M376.7,517.2v-3.7H373V512h3.7v-3.7h1.6v3.7h3.7v1.6h-3.7v3.7H376.7z"/>
				</g>
				<g class="st1">
					<path class="st2" d="M398,517.2v-3.7h-3.7V512h3.7v-3.7h1.6v3.7h3.7v1.6h-3.7v3.7H398z"/>
				</g>
				<g class="st1">
					<path class="st2" d="M440.6,517.2v-3.7h-3.7V512h3.7v-3.7h1.6v3.7h3.7v1.6h-3.7v3.7H440.6z"/>
				</g>
				<g class="st1">
					<path class="st2" d="M419.4,517.2v-3.7h-3.7V512h3.7v-3.7h1.6v3.7h3.7v1.6h-3.7v3.7H419.4z"/>
				</g>
				<g class="st1">
					<path class="st2" d="M398,517.2v-3.7h-3.7V512h3.7v-3.7h1.6v3.7h3.7v1.6h-3.7v3.7H398z"/>
				</g>
				<g class="st1">
					<path class="st2" d="M462,517.2v-3.7h-3.7V512h3.7v-3.7h1.6v3.7h3.7v1.6h-3.6v3.7H462z"/>
				</g>
				<g class="st1">
					<path class="st2" d="M483.3,517.2v-3.7h-3.7V512h3.7v-3.7h1.6v3.7h3.7v1.6h-3.7v3.7H483.3z"/>
				</g>
				<g class="st1">
					<path class="st2" d="M504.7,517.2v-3.7H501V512h3.7v-3.7h1.6v3.7h3.7v1.6h-3.7v3.7H504.7z"/>
				</g>
			</g>
			<g>
				<g class="st1">
					<path class="st2" d="M334,538.6v-3.7h-3.7v-1.6h3.7v-3.7h1.6v3.7h3.7v1.6h-3.7v3.7L334,538.6L334,538.6z"/>
				</g>
				<g class="st1">
					<path class="st2" d="M355.3,538.6v-3.7h-3.7v-1.6h3.7v-3.7h1.6v3.7h3.7v1.6h-3.7v3.7L355.3,538.6L355.3,538.6z"/>
				</g>
				<g class="st1">
					<path class="st2" d="M376.7,538.6v-3.7H373v-1.6h3.7v-3.7h1.6v3.7h3.7v1.6h-3.7v3.7L376.7,538.6L376.7,538.6z"/>
				</g>
				<g class="st1">
					<path class="st2" d="M398,538.6v-3.7h-3.7v-1.6h3.7v-3.7h1.6v3.7h3.7v1.6h-3.7v3.7L398,538.6L398,538.6z"/>
				</g>
				<g class="st1">
					<path class="st2" d="M440.6,538.6v-3.7h-3.7v-1.6h3.7v-3.7h1.6v3.7h3.7v1.6h-3.7v3.7L440.6,538.6L440.6,538.6z"/>
				</g>
				<g class="st1">
					<path class="st2" d="M419.4,538.6v-3.7h-3.7v-1.6h3.7v-3.7h1.6v3.7h3.7v1.6h-3.7v3.7L419.4,538.6L419.4,538.6z"/>
				</g>
				<g class="st1">
					<path class="st2" d="M398,538.6v-3.7h-3.7v-1.6h3.7v-3.7h1.6v3.7h3.7v1.6h-3.7v3.7L398,538.6L398,538.6z"/>
				</g>
				<g class="st1">
					<path class="st2" d="M462,538.6v-3.7h-3.7v-1.6h3.7v-3.7h1.6v3.7h3.7v1.6h-3.6v3.7L462,538.6L462,538.6z"/>
				</g>
				<g class="st1">
					<path class="st2" d="M483.3,538.6v-3.7h-3.7v-1.6h3.7v-3.7h1.6v3.7h3.7v1.6h-3.7v3.7L483.3,538.6L483.3,538.6z"/>
				</g>
				<g class="st1">
					<path class="st2" d="M504.7,538.6v-3.7H501v-1.6h3.7v-3.7h1.6v3.7h3.7v1.6h-3.7v3.7L504.7,538.6L504.7,538.6z"/>
				</g>
			</g>
			<g>
				<g class="st1">
					<path class="st2" d="M334,559.9v-3.7h-3.7v-1.6h3.7v-3.7h1.6v3.7h3.7v1.6h-3.7v3.7H334z"/>
				</g>
				<g class="st1">
					<path class="st2" d="M355.3,559.9v-3.7h-3.7v-1.6h3.7v-3.7h1.6v3.7h3.7v1.6h-3.7v3.7H355.3z"/>
				</g>
				<g class="st1">
					<path class="st2" d="M376.7,559.9v-3.7H373v-1.6h3.7v-3.7h1.6v3.7h3.7v1.6h-3.7v3.7H376.7z"/>
				</g>
				<g class="st1">
					<path class="st2" d="M398,559.9v-3.7h-3.7v-1.6h3.7v-3.7h1.6v3.7h3.7v1.6h-3.7v3.7H398z"/>
				</g>
				<g class="st1">
					<path class="st2" d="M440.6,559.9v-3.7h-3.7v-1.6h3.7v-3.7h1.6v3.7h3.7v1.6h-3.7v3.7H440.6z"/>
				</g>
				<g class="st1">
					<path class="st2" d="M419.4,559.9v-3.7h-3.7v-1.6h3.7v-3.7h1.6v3.7h3.7v1.6h-3.7v3.7H419.4z"/>
				</g>
				<g class="st1">
					<path class="st2" d="M398,559.9v-3.7h-3.7v-1.6h3.7v-3.7h1.6v3.7h3.7v1.6h-3.7v3.7H398z"/>
				</g>
				<g class="st1">
					<path class="st2" d="M462,559.9v-3.7h-3.7v-1.6h3.7v-3.7h1.6v3.7h3.7v1.6h-3.6v3.7H462z"/>
				</g>
				<g class="st1">
					<path class="st2" d="M483.3,559.9v-3.7h-3.7v-1.6h3.7v-3.7h1.6v3.7h3.7v1.6h-3.7v3.7H483.3z"/>
				</g>
				<g class="st1">
					<path class="st2" d="M504.7,559.9v-3.7H501v-1.6h3.7v-3.7h1.6v3.7h3.7v1.6h-3.7v3.7H504.7z"/>
				</g>
			</g>
			<g>
				<g class="st1">
					<path class="st2" d="M334,581.3v-3.7h-3.7V576h3.7v-3.7h1.6v3.7h3.7v1.6h-3.7v3.7H334z"/>
				</g>
				<g class="st1">
					<path class="st2" d="M355.3,581.3v-3.7h-3.7V576h3.7v-3.7h1.6v3.7h3.7v1.6h-3.7v3.7H355.3z"/>
				</g>
				<g class="st1">
					<path class="st2" d="M376.7,581.3v-3.7H373V576h3.7v-3.7h1.6v3.7h3.7v1.6h-3.7v3.7H376.7z"/>
				</g>
				<g class="st1">
					<path class="st2" d="M398,581.3v-3.7h-3.7V576h3.7v-3.7h1.6v3.7h3.7v1.6h-3.7v3.7H398z"/>
				</g>
				<g class="st1">
					<path class="st2" d="M440.6,581.3v-3.7h-3.7V576h3.7v-3.7h1.6v3.7h3.7v1.6h-3.7v3.7H440.6z"/>
				</g>
				<g class="st1">
					<path class="st2" d="M419.4,581.3v-3.7h-3.7V576h3.7v-3.7h1.6v3.7h3.7v1.6h-3.7v3.7H419.4z"/>
				</g>
				<g class="st1">
					<path class="st2" d="M398,581.3v-3.7h-3.7V576h3.7v-3.7h1.6v3.7h3.7v1.6h-3.7v3.7H398z"/>
				</g>
				<g class="st1">
					<path class="st2" d="M462,581.3v-3.7h-3.7V576h3.7v-3.7h1.6v3.7h3.7v1.6h-3.6v3.7H462z"/>
				</g>
				<g class="st1">
					<path class="st2" d="M483.3,581.3v-3.7h-3.7V576h3.7v-3.7h1.6v3.7h3.7v1.6h-3.7v3.7H483.3z"/>
				</g>
				<g class="st1">
					<path class="st2" d="M504.7,581.3v-3.7H501V576h3.7v-3.7h1.6v3.7h3.7v1.6h-3.7v3.7H504.7z"/>
				</g>
			</g>
		</g>
	</g>
</g>
<g id="phone_x5F_1">
	<path class="st3" d="M328.3,519.6H207.4c-29.7,0-54-24.3-54-54v-372c0-29.7,24.3-54,54-54h120.9c29.7,0,54,24.3,54,54v372
		C382.3,495.4,358,519.6,328.3,519.6z"/>
	<path class="st4" d="M322.3,513.6H201.4c-29.7,0-54-24.3-54-54v-372c0-29.7,24.3-54,54-54h120.9c29.7,0,54,24.3,54,54v372
		C376.3,489.4,352,513.6,322.3,513.6z"/>
	<circle class="st5" cx="262.6" cy="480.1" r="18.4"/>
	<path class="st5" d="M277.4,70.4h-30.3c-1.6,0-2.9-1.3-2.9-2.9l0,0c0-1.6,1.3-2.9,2.9-2.9h30.3c1.6,0,2.9,1.3,2.9,2.9l0,0
		C280.3,69.1,279,70.4,277.4,70.4z"/>
	<g>
		<g>
			<g>
				<g>
					<defs>
						<rect id="SVGID_1_" x="161.4" y="91.5" width="202.2" height="361"/>
					</defs>
					<clipPath id="SVGID_2_">
						<use xlink:href="#SVGID_1_"  style="overflow:visible;"/>
					</clipPath>
					<g class="st6">

							<image style="overflow:visible;enable-background:new    ;" width="204" height="361" xlink:href="../../img/204x361/img3.jpg"  transform="matrix(1 0 0 1 160.601 91.4909)">
						</image>
					</g>
				</g>
			</g>
		</g>
		<g>
			<rect id="SVGID_4_" x="161.4" y="91.5" class="st7" width="202.2" height="361"/>
		</g>
	</g>
</g>
<g class="st8">
	<line class="st9" x1="22.9" y1="0" x2="22.9" y2="8.5"/>
	<line class="st9" x1="22.9" y1="15.6" x2="22.9" y2="24.1"/>
	<line class="st9" x1="34.9" y1="12" x2="26.4" y2="12"/>
	<line class="st9" x1="19.3" y1="12" x2="10.8" y2="12"/>
</g>
<g class="st8">
	<line class="st9" x1="481.8" y1="301.1" x2="481.8" y2="309.6"/>
	<line class="st9" x1="481.8" y1="316.7" x2="481.8" y2="325.2"/>
	<line class="st9" x1="493.8" y1="313.1" x2="485.4" y2="313.1"/>
	<line class="st9" x1="478.2" y1="313.1" x2="469.8" y2="313.1"/>
</g>
<g class="st8">
	<g>
		<path class="st10" d="M430.8,32.6c0,0.9-0.7,1.7-1.7,1.7s-1.7-0.7-1.7-1.7c0-0.9,0.7-1.7,1.7-1.7S430.8,31.7,430.8,32.6z"/>
		<path class="st10" d="M438.7,32.6c0,0.9-0.7,1.7-1.7,1.7c-0.9,0-1.7-0.7-1.7-1.7c0-0.9,0.7-1.7,1.7-1.7
			C437.9,31,438.7,31.7,438.7,32.6z"/>
		<path class="st10" d="M446.5,32.6c0,0.9-0.7,1.7-1.7,1.7c-0.9,0-1.7-0.7-1.7-1.7c0-0.9,0.7-1.7,1.7-1.7
			C445.8,31,446.5,31.7,446.5,32.6z"/>
	</g>
	<g>
		<circle class="st10" cx="470.7" cy="54.9" r="1.7"/>
		<circle class="st10" cx="462.9" cy="54.9" r="1.7"/>
		<circle class="st10" cx="455" cy="54.9" r="1.7"/>
	</g>
	<path class="st10" d="M477.1,47.3c0.5,0.8,0.8,1.7,1.1,2.6"/>
	<path class="st10" d="M459.9,39.1c5.8-1.1,11.4,1,15.1,5.1"/>
	<path class="st10" d="M459.1,34.6c11.1-2.1,21.7,5.2,23.8,16.2c1.1,5.7-0.3,11.3-3.5,15.7l3,9l-9.6-3.1c-1.9,1.1-4,1.8-6.2,2.3
		c-11.1,2.1-21.7-5.2-23.8-16.2C440.8,47.4,448,36.7,459.1,34.6z"/>
	<path class="st10" d="M457.2,35.1c1.4-10.6-5.7-20.7-16.4-22.7c-11.1-2.1-21.7,5.2-23.8,16.2c-1.1,5.7,0.3,11.3,3.5,15.7l-3,9
		l9.6-3.1c1.9,1.1,4,1.8,6.2,2.3c3.3,0.6,6.5,0.4,9.5-0.5"/>
</g>
<circle class="st11" cx="434.6" cy="251.3" r="6.1"/>
<circle class="st11" cx="123" cy="404.4" r="4.5"/>
<circle class="st11" cx="391.6" cy="27.2" r="5.7"/>
<g class="st8">
	<g>
		<g>
			<line class="st10" x1="6.4" y1="388.2" x2="1" y2="393.6"/>
		</g>
		<line class="st10" x1="9.1" y1="398.6" x2="6.8" y2="400.9"/>
		<g>
			<path class="st10" d="M81.5,312.5c2-0.5,4.1-0.4,6.1,0.2"/>
			<path class="st10" d="M76,331.7c-4.5-4.5-4.5-11.7,0-16.2"/>
			<circle class="st10" cx="84.1" cy="323.6" r="17.1"/>
		</g>
		<g>
			<path class="st10" d="M42.2,329.6c-9.8-1.6-20.2,1.4-27.8,9c-3,3-5.2,6.4-6.8,10c7-1.3,15.1-1.5,23.8-0.4
				C34.2,341.8,37.8,335.5,42.2,329.6z"/>
			<path class="st10" d="M60.1,393.8c-0.1,0.5-0.6,4-0.7,4.4c-0.1,0.6-0.2,1.3-0.3,1.9c3.6-1.6,7.1-3.8,10-6.8
				c7.6-7.6,10.6-17.9,9-27.8c-6,4.4-12.2,8-18.6,10.7c0.6,4.7,0.8,9.2,0.7,13.5"/>
		</g>
		<g>
			<path class="st10" d="M51.9,361.2c4.8,4.4,9.9,8,15.4,11.1"/>
			<path class="st10" d="M35.4,340.4c3,5.4,6.7,10.6,11.1,15.4"/>
		</g>
		<path class="st10" d="M33.7,374L33.7,374c-1.5-1.5-1.5-3.9,0-5.4l20-20c1.5-1.5,3.9-1.5,5.4,0v0c1.5,1.5,1.5,3.9,0,5.4l-20,20
			C37.6,375.5,35.2,375.5,33.7,374z"/>
		<g>
			<path class="st10" d="M46.5,366.6c4.1,3.7,8.4,6.9,12.9,9.7c10.9-4.7,21.5-11.8,30.9-21.2c19.3-19.3,29-43.9,28.1-65.8
				c-21.9-0.9-46.5,8.8-65.8,28.1c-9.4,9.4-16.4,20-21.2,30.9c2.8,4.5,6,8.9,9.7,12.9"/>
			<path class="st10" d="M94.5,292.3c2.6,4.3,5.6,8.2,9.2,11.7c3.6,3.6,7.5,6.6,11.7,9.1"/>
		</g>
		<path class="st10" d="M55.5,381.4c-3.4-2.1-6.8-4.6-10.1-7.4l-3.3,3.3c-3.1,3.1-8.2,3.1-11.3,0v0c-3.1-3.1-3.1-8.2,0-11.3l3.3-3.3
			c-2.9-3.4-5.5-7-7.8-10.6c-2.9,1.6-5.8,3.7-8.4,6.4c-7.5,7.5-11,17-9.6,24.1c1.5,0.3,3.1,0.4,4.8,0.3c-1.4,4.5-1.7,8.8-0.9,12.6
			c3.8,0.8,8.2,0.4,12.6-0.9c-0.1,1.7-0.1,3.3,0.3,4.8c7.1,1.5,16.6-2,24.1-9.6C51.8,387.2,53.9,384.3,55.5,381.4z"/>
		<g>
			<line class="st10" x1="19.1" y1="342.4" x2="9.9" y2="351.7"/>
			<line class="st10" x1="16" y1="353.2" x2="9.1" y2="360.2"/>
			<line class="st10" x1="5.2" y1="356.3" x2="3.7" y2="357.8"/>
			<line class="st10" x1="65.3" y1="388.6" x2="50.4" y2="403.5"/>
			<line class="st10" x1="54.5" y1="391.7" x2="47.6" y2="398.6"/>
			<line class="st10" x1="42.9" y1="403.3" x2="40.6" y2="405.6"/>
		</g>
	</g>
</g>
<g>
	<path class="st12" d="M256.3,573.3V566c0,0-10.9-7.9-13.8-19.8l-7.9-26c-0.8-2.7,0.3-5.7,2.8-7.2l0,0c3-1.7,6.8-0.7,8.5,2.2
		l10.2,19.9l-0.3-55.1c0-3.6,2.9-6.5,6.4-6.5l0,0c3.5,0,6.4,2.9,6.4,6.4v41"/>
	<path class="st13" d="M279.1,479.3c0,5.1-2.3,9.6-5.9,12.7"/>
	<path class="st13" d="M245.6,479.3c0-9.2,7.5-16.7,16.7-16.7c6.2,0,11.5,3.3,14.4,8.3"/>
	<path class="st13" d="M250.5,491.2c-2.2-2.2-3.7-4.9-4.5-8"/>
	<path class="st13" d="M251,479.3c0-6.3,5.1-11.3,11.3-11.3c6.3,0,11.3,5.1,11.3,11.3c0,1.6-0.4,3.2-1,4.6"/>
	<path class="st14" d="M275.5,525.3h-3.2c-1.4,0-2.6-1.2-2.6-2.6v-8.6c0-1.4,1.2-2.6,2.6-2.6h3.2c1.4,0,2.6,1.2,2.6,2.6v8.6
		C278.1,524.1,277,525.3,275.5,525.3z"/>
	<path class="st15" d="M268.7,513.3c1-1.7,2.8-2.8,4.8-2.8h0c3.1,0,5.6,2.5,5.6,5.6v7.7"/>
	<path class="st14" d="M286.7,528.1h-3.8c-1.5,0-2.7-1.2-2.7-2.7v-8.5c0-1.5,1.2-2.7,2.7-2.7h3.8c1.5,0,2.7,1.2,2.7,2.7v8.5
		C289.5,526.8,288.2,528.1,286.7,528.1z"/>
	<path class="st15" d="M279.1,518.7c0-3.1,2.6-5.6,5.7-5.6l0,0c3.1,0,5.6,2.5,5.6,5.6v8"/>
	<path class="st14" d="M297.7,531.6h-3.6c-1.5,0-2.7-1.2-2.7-2.7v-8.6c0-1.5,1.2-2.7,2.7-2.7h3.6c1.5,0,2.7,1.2,2.7,2.7v8.6
		C300.4,530.4,299.2,531.6,297.7,531.6z"/>
	<path class="st15" d="M295.4,573.3V567c0,0,6-9.6,6-13.4v-8.7v-12.5v-10c0-3.1-2.5-5.6-5.6-5.6l0,0c-2.5,0-4.6,1.6-5.3,3.9"/>
</g>
</svg>
