<svg id="Layer_1" data-name="Layer 1" xmlns="http://www.w3.org/2000/svg" viewBox="0 0 128 128"><title>iStar_Design_Business_LineIcons_Live-68</title><line x1="62.59" y1="38.35" x2="62.59" y2="32.83" style="fill:none;stroke:#000;stroke-linecap:round;stroke-linejoin:round;stroke-width:2px"/><line x1="70.35" y1="39.35" x2="73.47" y2="34.83" style="fill:none;stroke:#000;stroke-linecap:round;stroke-linejoin:round;stroke-width:2px"/><line x1="54.83" y1="39.35" x2="51.71" y2="34.83" style="fill:none;stroke:#000;stroke-linecap:round;stroke-linejoin:round;stroke-width:2px"/><path d="M88,54.17,84.79,56a3,3,0,0,1-3.31-.28L70.79,47.17h-11a4.93,4.93,0,0,0-4.23,2.4l-4.67,7.78a2.1,2.1,0,0,0,1.36,3.12c2.09.43,4.9.62,6.75-.8,3.25-2.5,3.5-4.25,3.5-4.25h6.25" style="fill:none;stroke:#000;stroke-linecap:round;stroke-linejoin:round;stroke-width:2px"/><path d="M60.25,93a3.93,3.93,0,0,0,5.56-5.54L68,89.33a3.93,3.93,0,0,0,5.56-5.55l2.14,1.93a3.93,3.93,0,0,0,5.55-5.55l2.14,1.93a3.94,3.94,0,0,0,5.28-5.86L65.46,55.42" style="fill:none;stroke:#000;stroke-linecap:round;stroke-linejoin:round;stroke-width:2px"/><line x1="73.88" y1="73.34" x2="81.2" y2="80.16" style="fill:none;stroke:#000;stroke-linecap:round;stroke-linejoin:round;stroke-width:2px"/><line x1="67.81" y1="78.48" x2="73.51" y2="83.78" style="fill:none;stroke:#000;stroke-linecap:round;stroke-linejoin:round;stroke-width:2px"/><line x1="61.63" y1="83.51" x2="65.81" y2="87.4" style="fill:none;stroke:#000;stroke-linecap:round;stroke-linejoin:round;stroke-width:2px"/><path d="M56.41,95.17h0a3.13,3.13,0,0,1-3.13-3.12V88.58a3.13,3.13,0,0,1,3.13-3.12h0a3.12,3.12,0,0,1,3.12,3.12v3.47A3.12,3.12,0,0,1,56.41,95.17Z" style="fill:none;stroke:#000;stroke-linecap:round;stroke-linejoin:round;stroke-width:2px"/><path d="M49.85,91.29h0a3.13,3.13,0,0,1-3.13-3.13V84.7a3.13,3.13,0,0,1,3.13-3.13h0A3.13,3.13,0,0,1,53,84.7v3.46A3.13,3.13,0,0,1,49.85,91.29Z" style="fill:none;stroke:#000;stroke-linecap:round;stroke-linejoin:round;stroke-width:2px"/><path d="M43.29,87.4h0a3.12,3.12,0,0,1-3.13-3.12V80.82a3.13,3.13,0,0,1,3.13-3.13h0a3.12,3.12,0,0,1,3.12,3.13v3.46A3.11,3.11,0,0,1,43.29,87.4Z" style="fill:none;stroke:#000;stroke-linecap:round;stroke-linejoin:round;stroke-width:2px"/><path d="M40.16,82.09l-5.95,1.55a3.12,3.12,0,0,1-3.85-2.18h0a3.13,3.13,0,0,1,2.17-3.85" style="fill:none;stroke:#000;stroke-linecap:round;stroke-linejoin:round;stroke-width:2px"/><line x1="98.96" y1="72.07" x2="89.4" y2="77.2" style="fill:none;stroke:#000;stroke-linecap:round;stroke-linejoin:round;stroke-width:2px"/><line x1="39.82" y1="52.42" x2="53.89" y2="52.42" style="fill:none;stroke:#000;stroke-linecap:round;stroke-linejoin:round;stroke-width:2px"/><line x1="27.35" y1="75.15" x2="40.16" y2="80.82" style="fill:none;stroke:#000;stroke-linecap:round;stroke-linejoin:round;stroke-width:2px"/><polyline points="112.64 34.35 91.36 46.02 112.98 85.47 122.66 80.16" style="fill:none;stroke:#000;stroke-linecap:round;stroke-linejoin:round;stroke-width:2px"/><polyline points="15.37 34.35 36.65 46.02 15.02 85.47 5.34 80.16" style="fill:none;stroke:#000;stroke-linecap:round;stroke-linejoin:round;stroke-width:2px"/><polyline points="92.45 48.24 87.4 51 104.16 81.56 109.21 78.79" style="fill:none;stroke:#000;stroke-linecap:round;stroke-linejoin:round;stroke-width:2px"/><polyline points="35.55 48.24 40.6 51 23.84 81.56 18.79 78.79" style="fill:none;stroke:#000;stroke-linecap:round;stroke-linejoin:round;stroke-width:2px"/><path d="M73.51,49.34l8.22-2.17a1.83,1.83,0,0,1,2.3,2,6.62,6.62,0,0,1-4,5.35" style="fill:none;stroke:#000;stroke-linecap:round;stroke-linejoin:round;stroke-width:2px"/></svg>