<svg id="Layer_1" data-name="Layer 1" xmlns="http://www.w3.org/2000/svg" viewBox="0 0 128 128"><title>iStar_Design_Business_LineIcons_Live-95</title><circle cx="64" cy="51.65" r="12.78" style="fill:none;stroke:#000;stroke-linecap:round;stroke-linejoin:round;stroke-width:2px"/><path d="M64,33.08A18.94,18.94,0,0,0,45.08,52c0,5.57,6.61,18,17.37,32.91a1.93,1.93,0,0,0,3.1,0C76.31,70.13,82.92,57.69,82.92,52A19,19,0,0,0,64,33.08Z" style="fill:none;stroke:#000;stroke-linecap:round;stroke-linejoin:round;stroke-width:2px"/><rect x="32.73" y="5.09" width="62.54" height="117.82" rx="7.37" ry="7.37" style="fill:none;stroke:#000;stroke-linecap:round;stroke-linejoin:round;stroke-width:2px"/><rect x="39.22" y="19.05" width="49.56" height="87.09" style="fill:none;stroke:#000;stroke-linecap:round;stroke-linejoin:round;stroke-width:2px"/><line x1="69.28" y1="12.03" x2="58.72" y2="12.03" style="fill:none;stroke:#000;stroke-linecap:round;stroke-linejoin:round;stroke-width:2px"/><line x1="53.5" y1="12.03" x2="53.49" y2="12.03" style="fill:none;stroke:#000;stroke-linecap:round;stroke-linejoin:round;stroke-width:2px"/><path d="M60,114.47a4,4,0,1,1,4,4A4,4,0,0,1,60,114.47Z" style="fill:none;stroke:#000;stroke-linecap:round;stroke-linejoin:round;stroke-width:2px"/><line x1="60.74" y1="91.08" x2="67.26" y2="91.15" style="fill:none;stroke:#000;stroke-linecap:round;stroke-linejoin:round;stroke-width:2px"/><polyline points="57.32 52.03 61.64 57.41 70.68 46.16" style="fill:none;stroke:#000;stroke-linecap:round;stroke-linejoin:round;stroke-width:2px"/></svg>