<svg id="Layer_1" data-name="Layer 1" xmlns="http://www.w3.org/2000/svg" viewBox="0 0 128 128"><title>iStar_Design_Business_LineIcons_Live-47</title><polyline points="21.01 67.45 21.01 62.31 106.96 62.31 106.96 67.45" style="fill:none;stroke:#000;stroke-linecap:round;stroke-linejoin:round;stroke-width:2px"/><line x1="28.19" y1="50.67" x2="99.78" y2="50.67" style="fill:none;stroke:#000;stroke-linecap:round;stroke-linejoin:round;stroke-width:2px"/><line x1="24.25" y1="56.51" x2="103.72" y2="56.51" style="fill:none;stroke:#000;stroke-linecap:round;stroke-linejoin:round;stroke-width:2px"/><polyline points="120.37 71.93 103.34 44.97 99.78 44.97" style="fill:none;stroke:#000;stroke-linecap:round;stroke-linejoin:round;stroke-width:2px"/><polyline points="7.63 71.93 24.66 44.97 28.22 44.97" style="fill:none;stroke:#000;stroke-linecap:round;stroke-linejoin:round;stroke-width:2px"/><polygon points="81.91 30.39 93.28 30.39 81.91 19.02 81.91 30.39" style="fill:none;stroke:#000;stroke-linecap:round;stroke-linejoin:round;stroke-width:2px"/><polyline points="81.91 19.02 34.69 19.02 34.69 50.17" style="fill:none;stroke:#000;stroke-linecap:round;stroke-linejoin:round;stroke-width:2px"/><line x1="93.28" y1="50.17" x2="93.28" y2="30.39" style="fill:none;stroke:#000;stroke-linecap:round;stroke-linejoin:round;stroke-width:2px"/><line x1="44.37" y1="31.73" x2="66.1" y2="31.73" style="fill:none;stroke:#000;stroke-linecap:round;stroke-linejoin:round;stroke-width:2px"/><line x1="44.37" y1="39.28" x2="83.6" y2="39.28" style="fill:none;stroke:#000;stroke-linecap:round;stroke-linejoin:round;stroke-width:2px"/><polygon points="84.75 72 84.75 78.06 43.25 78.06 43.25 72 7.63 72 7.63 108.98 120.34 108.98 120.34 72 84.75 72" style="fill:none;stroke:#000;stroke-linecap:round;stroke-linejoin:round;stroke-width:2px"/><polyline points="90.17 86.73 90.17 93.89 37.83 93.89 37.83 86.73" style="fill:none;stroke:#000;stroke-linecap:round;stroke-linejoin:round;stroke-width:2px"/><line x1="41.06" y1="86.73" x2="34.69" y2="86.73" style="fill:none;stroke:#000;stroke-linecap:round;stroke-linejoin:round;stroke-width:2px"/><line x1="93.35" y1="86.73" x2="86.98" y2="86.73" style="fill:none;stroke:#000;stroke-linecap:round;stroke-linejoin:round;stroke-width:2px"/></svg>