<svg id="Layer_1" data-name="Layer 1" xmlns="http://www.w3.org/2000/svg" viewBox="0 0 128 128"><title>iStar_Design_Business_LineIcons_Live-70</title><path d="M103.2,19.4H24.8a3.3,3.3,0,0,1-3.3-3.3h0a3.3,3.3,0,0,1,3.3-3.3h78.4a3.3,3.3,0,0,1,3.3,3.3h0A3.3,3.3,0,0,1,103.2,19.4Z" style="fill:none;stroke:#000;stroke-linecap:round;stroke-linejoin:round;stroke-width:2px"/><path d="M103.2,115.2H24.8a3.3,3.3,0,0,1-3.3-3.3h0a3.3,3.3,0,0,1,3.3-3.3h78.4a3.3,3.3,0,0,1,3.3,3.3h0A3.3,3.3,0,0,1,103.2,115.2Z" style="fill:none;stroke:#000;stroke-linecap:round;stroke-linejoin:round;stroke-width:2px"/><line x1="26.76" y1="19.4" x2="26.76" y2="48.21" style="fill:none;stroke:#000;stroke-linecap:round;stroke-linejoin:round;stroke-width:2px"/><line x1="26.76" y1="79.79" x2="26.76" y2="108.6" style="fill:none;stroke:#000;stroke-linecap:round;stroke-linejoin:round;stroke-width:2px"/><rect x="22.05" y="48.21" width="9" height="31.59" style="fill:none;stroke:#000;stroke-linecap:round;stroke-linejoin:round;stroke-width:2px"/><line x1="101.65" y1="19.4" x2="101.65" y2="48.21" style="fill:none;stroke:#000;stroke-linecap:round;stroke-linejoin:round;stroke-width:2px"/><line x1="101.65" y1="79.79" x2="101.65" y2="108.6" style="fill:none;stroke:#000;stroke-linecap:round;stroke-linejoin:round;stroke-width:2px"/><rect x="96.95" y="48.21" width="9" height="31.59" style="fill:none;stroke:#000;stroke-linecap:round;stroke-linejoin:round;stroke-width:2px"/><line x1="64" y1="68.07" x2="64" y2="69.07" style="fill:none;stroke:#000;stroke-linecap:round;stroke-linejoin:round;stroke-width:2px"/><line x1="64" y1="76.32" x2="64" y2="77.32" style="fill:none;stroke:#000;stroke-linecap:round;stroke-linejoin:round;stroke-width:2px"/><line x1="64" y1="84.57" x2="64" y2="85.57" style="fill:none;stroke:#000;stroke-linecap:round;stroke-linejoin:round;stroke-width:2px"/><path d="M89.9,42.57a46.51,46.51,0,0,0-19.54,4c-4.64,2.19-8.08,2.19-12.72,0a46.51,46.51,0,0,0-19.54-4" style="fill:none;stroke:#000;stroke-linecap:round;stroke-linejoin:round;stroke-width:2px"/><path d="M94.08,98.83C85.85,94.89,76,92.49,64,92.49s-21.85,2.4-30.08,6.34" style="fill:none;stroke:#000;stroke-linecap:round;stroke-linejoin:round;stroke-width:2px"/><path d="M94.91,108.6c0-.9.08-1.8.08-2.71,0-19.17-11.06-35.14-25.73-38.73V60.85C83.93,57.25,95,41.28,95,22.11c0-.91,0-1.81-.08-2.71" style="fill:none;stroke:#000;stroke-linecap:round;stroke-linejoin:round;stroke-width:2px"/><path d="M33.09,19.4c-.05.9-.08,1.8-.08,2.71,0,19.17,11.06,35.14,25.73,38.74v6.31C44.07,70.75,33,86.72,33,105.89c0,.91,0,1.81.08,2.71" style="fill:none;stroke:#000;stroke-linecap:round;stroke-linejoin:round;stroke-width:2px"/></svg>