<svg id="Layer_1" data-name="Layer 1" xmlns="http://www.w3.org/2000/svg" viewBox="0 0 128 128"><title>iStar_Design_Business_LineIcons_Live-13</title><line x1="10.66" y1="104.84" x2="5.27" y2="110.22" style="fill:none;stroke:#000;stroke-linecap:round;stroke-linejoin:round;stroke-width:2px"/><line x1="13.35" y1="115.23" x2="11.04" y2="117.54" style="fill:none;stroke:#000;stroke-linecap:round;stroke-linejoin:round;stroke-width:2px"/><path d="M85.74,29.06a11.55,11.55,0,0,1,6.06.21" style="fill:none;stroke:#000;stroke-linecap:round;stroke-linejoin:round;stroke-width:2px"/><path d="M80.31,48.26a11.43,11.43,0,0,1,0-16.16" style="fill:none;stroke:#000;stroke-linecap:round;stroke-linejoin:round;stroke-width:2px"/><circle cx="88.4" cy="40.18" r="17.08" style="fill:none;stroke:#000;stroke-linecap:round;stroke-linejoin:round;stroke-width:2px"/><path d="M46.47,46.17a32.09,32.09,0,0,0-34.55,19,79,79,0,0,1,23.82-.43A98.19,98.19,0,0,1,46.47,46.17Z" style="fill:none;stroke:#000;stroke-linecap:round;stroke-linejoin:round;stroke-width:2px"/><path d="M64.39,110.37c-.06.46-.61,4-.68,4.42-.1.63-.2,1.25-.32,1.87a32.13,32.13,0,0,0,19-34.56A97.71,97.71,0,0,1,63.82,92.84a92.12,92.12,0,0,1,.65,13.47" style="fill:none;stroke:#000;stroke-linecap:round;stroke-linejoin:round;stroke-width:2px"/><path d="M56.13,77.83a82.21,82.21,0,0,0,15.42,11.1" style="fill:none;stroke:#000;stroke-linecap:round;stroke-linejoin:round;stroke-width:2px"/><path d="M39.65,57a83.46,83.46,0,0,0,11.1,15.41" style="fill:none;stroke:#000;stroke-linecap:round;stroke-linejoin:round;stroke-width:2px"/><path d="M38,90.6h0a3.83,3.83,0,0,1,0-5.39l20-20a3.81,3.81,0,0,1,5.39,0h0a3.81,3.81,0,0,1,0,5.38l-20,20A3.83,3.83,0,0,1,38,90.6Z" style="fill:none;stroke:#000;stroke-linecap:round;stroke-linejoin:round;stroke-width:2px"/><path d="M50.75,83.22a83.79,83.79,0,0,0,12.92,9.69A100.2,100.2,0,0,0,94.54,71.73c19.35-19.35,29-43.9,28.13-65.83C100.75,5,76.19,14.69,56.85,34A100.19,100.19,0,0,0,35.67,64.91a83.63,83.63,0,0,0,9.69,12.92" style="fill:none;stroke:#000;stroke-linecap:round;stroke-linejoin:round;stroke-width:2px"/><path d="M98.81,8.9A61.3,61.3,0,0,0,108,20.62a59.68,59.68,0,0,0,11.72,9.12" style="fill:none;stroke:#000;stroke-linecap:round;stroke-linejoin:round;stroke-width:2px"/><path d="M59.82,98a90.7,90.7,0,0,1-10.14-7.4l-3.32,3.32a8,8,0,0,1-11.27,0h0a8,8,0,0,1,0-11.27l3.29-3.28a90.43,90.43,0,0,1-7.76-10.55,37.55,37.55,0,0,0-8.44,6.37c-7.55,7.55-11,17-9.58,24.12a17,17,0,0,0,4.76.25,25.89,25.89,0,0,0-.93,12.64,26,26,0,0,0,12.63-.93,17.34,17.34,0,0,0,.26,4.76c7.09,1.46,16.56-2,24.11-9.58A37.7,37.7,0,0,0,59.82,98Z" style="fill:none;stroke:#000;stroke-linecap:round;stroke-linejoin:round;stroke-width:2px"/><line x1="23.36" y1="59.04" x2="14.12" y2="68.28" style="fill:none;stroke:#000;stroke-linecap:round;stroke-linejoin:round;stroke-width:2px"/><line x1="20.28" y1="69.81" x2="13.35" y2="76.74" style="fill:none;stroke:#000;stroke-linecap:round;stroke-linejoin:round;stroke-width:2px"/><line x1="9.5" y1="72.89" x2="7.96" y2="74.43" style="fill:none;stroke:#000;stroke-linecap:round;stroke-linejoin:round;stroke-width:2px"/><line x1="69.54" y1="105.22" x2="54.68" y2="120.08" style="fill:none;stroke:#000;stroke-linecap:round;stroke-linejoin:round;stroke-width:2px"/><line x1="58.76" y1="108.3" x2="51.84" y2="115.23" style="fill:none;stroke:#000;stroke-linecap:round;stroke-linejoin:round;stroke-width:2px"/><line x1="47.22" y1="119.85" x2="44.91" y2="122.15" style="fill:none;stroke:#000;stroke-linecap:round;stroke-linejoin:round;stroke-width:2px"/></svg>