<svg id="Layer_1" data-name="Layer 1" xmlns="http://www.w3.org/2000/svg" viewBox="0 0 128 128"><title>iStar_Design_Business_LineIcons_Live-4</title><path d="M84.09,45.59a25.27,25.27,0,1,1-3.87-5" style="fill:none;stroke:#000;stroke-linecap:round;stroke-linejoin:round;stroke-width:2px"/><path d="M62.39,89.58a31,31,0,0,1-19.07-6.53" style="fill:none;stroke:#000;stroke-linecap:round;stroke-linejoin:round;stroke-width:2px;stroke-dasharray:6"/><path d="M43.32,83.05a31.13,31.13,0,1,1,19.07,6.53" style="fill:none;stroke:#000;stroke-linecap:round;stroke-linejoin:round;stroke-width:2px"/><path d="M119.43,115.83h0a6.65,6.65,0,0,1-9.41,0L88.74,94.56l9.41-9.41,21.28,21.27A6.67,6.67,0,0,1,119.43,115.83Z" style="fill:none;stroke:#000;stroke-linecap:round;stroke-linejoin:round;stroke-width:2px"/><line x1="103.41" y1="108.43" x2="105.57" y2="106.28" style="fill:none;stroke:#000;stroke-linecap:round;stroke-linejoin:round;stroke-width:2px"/><line x1="99.08" y1="104.1" x2="103.39" y2="99.8" style="fill:none;stroke:#000;stroke-linecap:round;stroke-linejoin:round;stroke-width:2px"/><line x1="90.98" y1="92.32" x2="81.76" y2="83.1" style="fill:none;stroke:#000;stroke-linecap:round;stroke-linejoin:round;stroke-width:2px"/><line x1="89.82" y1="81.3" x2="95.91" y2="87.39" style="fill:none;stroke:#000;stroke-linecap:round;stroke-linejoin:round;stroke-width:2px"/><path d="M117.19,113.26s1.26-1.59,0-4.54" style="fill:none;stroke:#000;stroke-linecap:round;stroke-linejoin:round;stroke-width:2px"/><path d="M57.33,40.61S46.79,41.21,44.8,52" style="fill:none;stroke:#000;stroke-linecap:round;stroke-linejoin:round;stroke-width:2px"/><path d="M40.82,86.59H11.4a4.79,4.79,0,0,1-4.77-4.78V15a4.79,4.79,0,0,1,4.77-4.77H113.67A4.79,4.79,0,0,1,118.45,15V81.81a4.79,4.79,0,0,1-4.78,4.78h-8.1" style="fill:none;stroke:#000;stroke-linecap:round;stroke-linejoin:round;stroke-width:2px"/><circle cx="39.47" cy="20.2" r="3.11" transform="translate(17.64 58.8) rotate(-87.62)" style="fill:none;stroke:#000;stroke-linecap:round;stroke-linejoin:round;stroke-width:2px"/><circle cx="27.92" cy="20.2" r="3.11" style="fill:none;stroke:#000;stroke-linecap:round;stroke-linejoin:round;stroke-width:2px"/><circle cx="16.38" cy="20.2" r="3.11" style="fill:none;stroke:#000;stroke-linecap:round;stroke-linejoin:round;stroke-width:2px"/><rect x="49.5" y="17.1" width="60.68" height="6.22" style="fill:none;stroke:#000;stroke-linecap:round;stroke-linejoin:round;stroke-width:2px"/><line x1="7.17" y1="31.53" x2="39.47" y2="31.53" style="fill:none;stroke:#000;stroke-linecap:round;stroke-linejoin:round;stroke-width:2px"/><polyline points="92.76 49.34 102.31 49.34 102.31 66 93.21 66" style="fill:none;stroke:#000;stroke-linecap:round;stroke-linejoin:round;stroke-width:2px"/><polyline points="60.33 46.52 73.69 46.52 73.69 68.82 51.39 68.82 51.39 55.34" style="fill:none;stroke:#000;stroke-linecap:round;stroke-linejoin:round;stroke-width:2px"/><polyline points="28.3 65.66 22.33 65.66 22.33 49.68 27.18 49.68" style="fill:none;stroke:#000;stroke-linecap:round;stroke-linejoin:round;stroke-width:2px"/><line x1="87.61" y1="31.53" x2="117.82" y2="31.53" style="fill:none;stroke:#000;stroke-linecap:round;stroke-linejoin:round;stroke-width:2px"/></svg>