<svg id="Layer_1" data-name="Layer 1" xmlns="http://www.w3.org/2000/svg" viewBox="0 0 128 128"><title>iStar_Design_Business_LineIcons_Live-54</title><line x1="82.76" y1="62.92" x2="82.76" y2="62.92" style="fill:none;stroke:#000;stroke-linecap:round;stroke-linejoin:round;stroke-width:2px"/><path d="M48.63,100.12V63.43a3.12,3.12,0,0,1,3.12-3.12h62a3.13,3.13,0,0,1,3.12,3.12v36.69" style="fill:none;stroke:#000;stroke-linecap:round;stroke-linejoin:round;stroke-width:2px"/><polyline points="53.31 100.32 53.31 65.45 112.22 65.45 112.22 100.32" style="fill:none;stroke:#000;stroke-linecap:round;stroke-linejoin:round;stroke-width:2px"/><path d="M92.46,100.36v1.73H73.07v-1.73H39.22s4.77,5.88,9,5.88h69.16c3.9,0,8-5.88,8-5.88Z" style="fill:none;stroke:#000;stroke-linecap:round;stroke-linejoin:round;stroke-width:2px"/><line x1="61.35" y1="69.91" x2="57.45" y2="73.81" style="fill:none;stroke:#000;stroke-linecap:round;stroke-linejoin:round;stroke-width:2px"/><line x1="108.44" y1="69.49" x2="106.32" y2="71.6" style="fill:none;stroke:#000;stroke-linecap:round;stroke-linejoin:round;stroke-width:2px"/><line x1="104.1" y1="74.48" x2="90.8" y2="87.78" style="fill:none;stroke:#000;stroke-linecap:round;stroke-linejoin:round;stroke-width:2px"/><line x1="53.48" y1="92.96" x2="65.32" y2="81.11" style="fill:none;stroke:#000;stroke-linecap:round;stroke-linejoin:round;stroke-width:2px"/><line x1="68.77" y1="77.89" x2="71.08" y2="75.58" style="fill:none;stroke:#000;stroke-linecap:round;stroke-linejoin:round;stroke-width:2px"/><line x1="99.43" y1="86.1" x2="105.91" y2="79.62" style="fill:none;stroke:#000;stroke-linecap:round;stroke-linejoin:round;stroke-width:2px"/><path d="M48.63,76.9H6.7a4,4,0,0,1-4-4V25.76a4,4,0,0,1,4-4H76.61a4,4,0,0,1,4,4V60" style="fill:none;stroke:#000;stroke-linecap:round;stroke-linejoin:round;stroke-width:2px"/><line x1="2.69" y1="64.75" x2="48.63" y2="64.75" style="fill:none;stroke:#000;stroke-linecap:round;stroke-linejoin:round;stroke-width:2px"/><path d="M43.39,71a1.74,1.74,0,1,1-1.73-1.74A1.73,1.73,0,0,1,43.39,71Z"/><line x1="38.53" y1="26.06" x2="44.78" y2="26.06" style="fill:none;stroke:#000;stroke-linecap:round;stroke-linejoin:round;stroke-width:2px"/><path d="M35.72,77.33h0c0,8.09-5.92,15.27-14.71,17.84h0c-.56.16-.42.88.17.88H43.39" style="fill:none;stroke:#000;stroke-linecap:round;stroke-linejoin:round;stroke-width:2px"/><line x1="28.52" y1="91.36" x2="38.53" y2="91.36" style="fill:none;stroke:#000;stroke-linecap:round;stroke-linejoin:round;stroke-width:2px"/><line x1="8.07" y1="35.25" x2="8.07" y2="53.28" style="fill:none;stroke:#000;stroke-linecap:round;stroke-linejoin:round;stroke-width:2px"/><line x1="8.07" y1="57.65" x2="8.07" y2="64.75" style="fill:none;stroke:#000;stroke-linecap:round;stroke-linejoin:round;stroke-width:2px"/><line x1="72.54" y1="30.99" x2="60.96" y2="42.58" style="fill:none;stroke:#000;stroke-linecap:round;stroke-linejoin:round;stroke-width:2px"/><line x1="57.01" y1="45.96" x2="53.53" y2="49.44" style="fill:none;stroke:#000;stroke-linecap:round;stroke-linejoin:round;stroke-width:2px"/><line x1="60.92" y1="50.08" x2="67.9" y2="43.1" style="fill:none;stroke:#000;stroke-linecap:round;stroke-linejoin:round;stroke-width:2px"/></svg>