<svg id="Layer_1" data-name="Layer 1" xmlns="http://www.w3.org/2000/svg" viewBox="0 0 128 128"><title>iStar_Design_Business_LineIcons_Live-38</title><polyline points="83.35 9.85 83.35 13.7 44.65 13.7 44.65 9.85" style="fill:none;stroke:#000;stroke-linecap:round;stroke-linejoin:round;stroke-width:2px"/><rect x="38.47" y="4.68" width="51.05" height="14.19" style="fill:none;stroke:#000;stroke-linecap:round;stroke-linejoin:round;stroke-width:2px"/><polyline points="86.58 68.11 86.58 54.18 74.82 54.18" style="fill:none;stroke:#000;stroke-linecap:round;stroke-linejoin:round;stroke-width:2px"/><polyline points="41.41 68.11 41.41 54.18 53.1 54.18" style="fill:none;stroke:#000;stroke-linecap:round;stroke-linejoin:round;stroke-width:2px"/><polyline points="41.41 81.08 41.41 95.01 47.55 95.01" style="fill:none;stroke:#000;stroke-linecap:round;stroke-linejoin:round;stroke-width:2px"/><polyline points="86.58 81.08 86.58 95.01 80.45 95.01" style="fill:none;stroke:#000;stroke-linecap:round;stroke-linejoin:round;stroke-width:2px"/><rect x="55.78" y="30.3" width="16.45" height="7.24" style="fill:none;stroke:#000;stroke-linecap:round;stroke-linejoin:round;stroke-width:2px"/><polygon points="74.23 54.18 64 61.97 53.77 54.18 64 46.39 74.23 54.18" style="fill:none;stroke:#000;stroke-linecap:round;stroke-linejoin:round;stroke-width:2px"/><line x1="64" y1="46.39" x2="64" y2="37.54" style="fill:none;stroke:#000;stroke-linecap:round;stroke-linejoin:round;stroke-width:2px"/><rect x="47.55" y="89.14" width="12.31" height="11.74" rx="1.34" ry="1.34" style="fill:none;stroke:#000;stroke-linecap:round;stroke-linejoin:round;stroke-width:2px"/><rect x="68.14" y="89.14" width="12.31" height="11.74" rx="1.34" ry="1.34" style="fill:none;stroke:#000;stroke-linecap:round;stroke-linejoin:round;stroke-width:2px"/><line x1="64" y1="68.12" x2="64" y2="61.97" style="fill:none;stroke:#000;stroke-linecap:round;stroke-linejoin:round;stroke-width:2px"/><rect x="33.71" y="68.12" width="16.45" height="11.74" rx="1.54" ry="1.54" style="fill:none;stroke:#000;stroke-linecap:round;stroke-linejoin:round;stroke-width:2px"/><rect x="55.78" y="68.12" width="16.45" height="11.74" rx="1.54" ry="1.54" style="fill:none;stroke:#000;stroke-linecap:round;stroke-linejoin:round;stroke-width:2px"/><rect x="77.85" y="68.12" width="16.45" height="11.74" rx="1.54" ry="1.54" style="fill:none;stroke:#000;stroke-linecap:round;stroke-linejoin:round;stroke-width:2px"/><line x1="50.15" y1="73.98" x2="55.78" y2="73.98" style="fill:none;stroke:#000;stroke-linecap:round;stroke-linejoin:round;stroke-width:2px"/><line x1="72.22" y1="73.98" x2="77.85" y2="73.98" style="fill:none;stroke:#000;stroke-linecap:round;stroke-linejoin:round;stroke-width:2px"/><line x1="68.14" y1="95.01" x2="59.86" y2="95.01" style="fill:none;stroke:#000;stroke-linecap:round;stroke-linejoin:round;stroke-width:2px"/><polyline points="38.47 13.79 27.03 13.79 27.03 114.1 100.97 114.1 100.97 13.79 89.53 13.79" style="fill:none;stroke:#000;stroke-linecap:round;stroke-linejoin:round;stroke-width:2px"/><polyline points="38.47 8.9 19.67 8.9 19.67 123.32 108.33 123.32 108.33 8.9 89.53 8.9" style="fill:none;stroke:#000;stroke-linecap:round;stroke-linejoin:round;stroke-width:2px"/></svg>