<svg id="Layer_1" data-name="Layer 1" xmlns="http://www.w3.org/2000/svg" viewBox="0 0 128 128"><title>iStar_Design_Business_LineIcons_Live-96</title><path d="M57.64,45.6a8.76,8.76,0,0,0-6.77,3.2v-17h-36A9.13,9.13,0,0,0,5.74,41V77H22.45a8.81,8.81,0,1,1,11.72,0h16.7V59.89A8.75,8.75,0,1,0,57.64,45.6Z" style="fill:none;stroke:#000;stroke-linecap:round;stroke-linejoin:round;stroke-width:2px"/><path d="M22.45,77H5.74v36a9.12,9.12,0,0,0,9.13,9.12h36v-16.7a8.82,8.82,0,1,1,0-11.72V77H34.17" style="fill:none;stroke:#000;stroke-linecap:round;stroke-linejoin:round;stroke-width:2px"/><path d="M50.87,105.38v16.7h36A9.12,9.12,0,0,0,96,113V77H79.3a8.82,8.82,0,1,1-11.72,0H50.87V93.66" style="fill:none;stroke:#000;stroke-linecap:round;stroke-linejoin:round;stroke-width:2px"/><path d="M112.27,12.51A9.13,9.13,0,0,0,101,6.28l-34.59,10L71,32.32a8.81,8.81,0,1,1,3.25,11.26L78.9,59.63,94.56,55.1a8.94,8.94,0,1,0,12.08-3.48l15.62-4.51Z" style="fill:none;stroke:#000;stroke-linecap:round;stroke-linejoin:round;stroke-width:2px"/></svg>