<svg id="Layer_1" data-name="Layer 1" xmlns="http://www.w3.org/2000/svg" viewBox="0 0 128 128"><title>iStar_Design_Business_LineIcons_Live-17</title><line x1="22.27" y1="65" x2="25.78" y2="65" style="fill:none;stroke:#000;stroke-linecap:round;stroke-linejoin:round;stroke-width:2px"/><line x1="30.99" y1="65" x2="41.72" y2="65" style="fill:none;stroke:#000;stroke-linecap:round;stroke-linejoin:round;stroke-width:2px"/><polyline points="41.72 44.65 41.72 74.92 16.82 74.92 16.82 44.65" style="fill:none;stroke:#000;stroke-linecap:round;stroke-linejoin:round;stroke-width:2px"/><path d="M36.34,104.72h0a6.88,6.88,0,0,0,6.88-6.87V88.72A8.56,8.56,0,0,0,42.35,85l-4.16-8.54V74.92" style="fill:none;stroke:#000;stroke-linecap:round;stroke-linejoin:round;stroke-width:2px"/><path d="M15.33,113.71V85.8a8.59,8.59,0,0,1,.74-3.5l2.69-6V74.92" style="fill:none;stroke:#000;stroke-linecap:round;stroke-linejoin:round;stroke-width:2px"/><line x1="22.2" y1="117.81" x2="22.2" y2="96.26" style="fill:none;stroke:#000;stroke-linecap:round;stroke-linejoin:round;stroke-width:2px"/><line x1="29.07" y1="121.51" x2="29.07" y2="96.39" style="fill:none;stroke:#000;stroke-linecap:round;stroke-linejoin:round;stroke-width:2px"/><line x1="35.95" y1="117.54" x2="35.95" y2="92.43" style="fill:none;stroke:#000;stroke-linecap:round;stroke-linejoin:round;stroke-width:2px"/><line x1="64.14" y1="108.85" x2="64.14" y2="105.34" style="fill:none;stroke:#000;stroke-linecap:round;stroke-linejoin:round;stroke-width:2px"/><line x1="64.14" y1="100.14" x2="64.14" y2="89.4" style="fill:none;stroke:#000;stroke-linecap:round;stroke-linejoin:round;stroke-width:2px"/><polyline points="43.22 89.4 74.06 89.4 74.06 114.3 43.22 114.3" style="fill:none;stroke:#000;stroke-linecap:round;stroke-linejoin:round;stroke-width:2px"/><path d="M103.86,94.78h0A6.87,6.87,0,0,0,97,87.91H87.85a8.47,8.47,0,0,0-3.74.86l-8.54,4.16H74.06" style="fill:none;stroke:#000;stroke-linecap:round;stroke-linejoin:round;stroke-width:2px"/><path d="M112.84,115.8H84.93a8.67,8.67,0,0,1-3.5-.75l-6-2.69H74.06" style="fill:none;stroke:#000;stroke-linecap:round;stroke-linejoin:round;stroke-width:2px"/><line x1="116.94" y1="108.92" x2="95.4" y2="108.92" style="fill:none;stroke:#000;stroke-linecap:round;stroke-linejoin:round;stroke-width:2px"/><line x1="120.64" y1="102.05" x2="95.53" y2="102.05" style="fill:none;stroke:#000;stroke-linecap:round;stroke-linejoin:round;stroke-width:2px"/><line x1="116.68" y1="95.18" x2="91.56" y2="95.18" style="fill:none;stroke:#000;stroke-linecap:round;stroke-linejoin:round;stroke-width:2px"/><line x1="105.73" y1="63" x2="102.22" y2="63" style="fill:none;stroke:#000;stroke-linecap:round;stroke-linejoin:round;stroke-width:2px"/><line x1="97.01" y1="63" x2="86.28" y2="63" style="fill:none;stroke:#000;stroke-linecap:round;stroke-linejoin:round;stroke-width:2px"/><polyline points="86.28 87.41 86.28 53.08 111.18 53.08 111.18 85.65" style="fill:none;stroke:#000;stroke-linecap:round;stroke-linejoin:round;stroke-width:2px"/><path d="M91.66,23.28h0a6.88,6.88,0,0,0-6.88,6.87v9.13A8.56,8.56,0,0,0,85.65,43l4.16,8.54v1.51" style="fill:none;stroke:#000;stroke-linecap:round;stroke-linejoin:round;stroke-width:2px"/><path d="M112.67,14.29V42.2a8.59,8.59,0,0,1-.74,3.5l-2.69,6v1.38" style="fill:none;stroke:#000;stroke-linecap:round;stroke-linejoin:round;stroke-width:2px"/><line x1="105.8" y1="10.19" x2="105.8" y2="31.74" style="fill:none;stroke:#000;stroke-linecap:round;stroke-linejoin:round;stroke-width:2px"/><line x1="98.93" y1="6.49" x2="98.93" y2="31.61" style="fill:none;stroke:#000;stroke-linecap:round;stroke-linejoin:round;stroke-width:2px"/><line x1="92.05" y1="10.46" x2="92.05" y2="35.57" style="fill:none;stroke:#000;stroke-linecap:round;stroke-linejoin:round;stroke-width:2px"/><line x1="63.86" y1="23.13" x2="63.86" y2="26.65" style="fill:none;stroke:#000;stroke-linecap:round;stroke-linejoin:round;stroke-width:2px"/><line x1="63.86" y1="31.85" x2="63.86" y2="42.58" style="fill:none;stroke:#000;stroke-linecap:round;stroke-linejoin:round;stroke-width:2px"/><polyline points="84.78 42.58 53.94 42.58 53.94 17.68 84.78 17.68" style="fill:none;stroke:#000;stroke-linecap:round;stroke-linejoin:round;stroke-width:2px"/><path d="M24.14,37.2h0A6.88,6.88,0,0,0,31,44.08h9.13a8.62,8.62,0,0,0,1.83-.2h0a8.67,8.67,0,0,0,1.91-.67l8.54-4.15h1.51" style="fill:none;stroke:#000;stroke-linecap:round;stroke-linejoin:round;stroke-width:2px"/><path d="M15.16,16.19H43.07a8.51,8.51,0,0,1,3.5.75l6,2.68h1.38" style="fill:none;stroke:#000;stroke-linecap:round;stroke-linejoin:round;stroke-width:2px"/><line x1="11.06" y1="23.06" x2="32.6" y2="23.06" style="fill:none;stroke:#000;stroke-linecap:round;stroke-linejoin:round;stroke-width:2px"/><line x1="7.36" y1="29.94" x2="32.47" y2="29.94" style="fill:none;stroke:#000;stroke-linecap:round;stroke-linejoin:round;stroke-width:2px"/><line x1="11.32" y1="36.81" x2="36.44" y2="36.81" style="fill:none;stroke:#000;stroke-linecap:round;stroke-linejoin:round;stroke-width:2px"/></svg>