<svg id="Layer_1" data-name="Layer 1" xmlns="http://www.w3.org/2000/svg" viewBox="0 0 128 128"><title>iStar_Design_Business_LineIcons_Live-24</title><path d="M17.4,83.7V32.86a4.34,4.34,0,0,1,4.32-4.32h85.94A4.33,4.33,0,0,1,112,32.86V83.7" style="fill:none;stroke:#000;stroke-linecap:round;stroke-linejoin:round;stroke-width:2px"/><polyline points="23.89 83.97 23.89 35.67 105.5 35.67 105.5 62.97" style="fill:none;stroke:#000;stroke-linecap:round;stroke-linejoin:round;stroke-width:2px"/><path d="M108.18,92.17h4.39c5.41,0,11.06-8.14,11.06-8.14H108.18" style="fill:none;stroke:#000;stroke-linecap:round;stroke-linejoin:round;stroke-width:2px"/><path d="M65.12,86.43H51.26V84H4.37s6.62,8.14,12.4,8.14H65.66" style="fill:none;stroke:#000;stroke-linecap:round;stroke-linejoin:round;stroke-width:2px"/><rect x="65.66" y="63.11" width="42.52" height="36.34" rx="4.16" ry="4.16" style="fill:none;stroke:#000;stroke-linecap:round;stroke-linejoin:round;stroke-width:2px"/><path d="M98.5,78a12,12,0,1,1-3.68-5.79" style="fill:none;stroke:#000;stroke-linecap:round;stroke-linejoin:round;stroke-width:2px"/><polyline points="82.08 79.91 86.92 84.87 100.7 71.09" style="fill:none;stroke:#000;stroke-linecap:round;stroke-linejoin:round;stroke-width:2px"/><path d="M79.37,63.11V56.79a7.57,7.57,0,0,1,7.55-7.54h0a7.57,7.57,0,0,1,7.55,7.54v6.32" style="fill:none;stroke:#000;stroke-linecap:round;stroke-linejoin:round;stroke-width:2px"/><path d="M74,63.11V56.45A13,13,0,0,1,86.92,43.53h0A13,13,0,0,1,99.83,56.45v6.66" style="fill:none;stroke:#000;stroke-linecap:round;stroke-linejoin:round;stroke-width:2px"/></svg>