<svg id="Layer_1" data-name="Layer 1" xmlns="http://www.w3.org/2000/svg" viewBox="0 0 128 128"><title>iStar_Design_Business_LineIcons_Live-6</title><polyline points="116.27 47.21 110.37 54.1 104.48 47.21" style="fill:none;stroke:#000;stroke-linecap:round;stroke-linejoin:round;stroke-width:2px"/><path d="M86.49,18.05H11.13A2.55,2.55,0,0,1,8.58,15.5h0a2.55,2.55,0,0,1,2.55-2.56H86.49a2.56,2.56,0,0,1,2.56,2.56h0A2.56,2.56,0,0,1,86.49,18.05Z" style="fill:none;stroke:#000;stroke-linecap:round;stroke-linejoin:round;stroke-width:2px"/><path d="M86.49,74.08H11.13a2.56,2.56,0,0,1-2.55-2.56h0A2.56,2.56,0,0,1,11.13,69H86.49a2.56,2.56,0,0,1,2.56,2.56h0A2.56,2.56,0,0,1,86.49,74.08Z" style="fill:none;stroke:#000;stroke-linecap:round;stroke-linejoin:round;stroke-width:2px"/><line x1="12.54" y1="68.96" x2="12.54" y2="18.33" style="fill:none;stroke:#000;stroke-linecap:round;stroke-linejoin:round;stroke-width:2px"/><line x1="86.05" y1="46.77" x2="86.05" y2="68.96" style="fill:none;stroke:#000;stroke-linecap:round;stroke-linejoin:round;stroke-width:2px"/><line x1="86.05" y1="18.33" x2="86.05" y2="39.15" style="fill:none;stroke:#000;stroke-linecap:round;stroke-linejoin:round;stroke-width:2px"/><line x1="54.43" y1="8.51" x2="49.27" y2="8.51" style="fill:none;stroke:#000;stroke-linecap:round;stroke-linejoin:round;stroke-width:2px"/><line x1="60.67" y1="29.76" x2="74.98" y2="29.76" style="fill:none;stroke:#000;stroke-linecap:round;stroke-linejoin:round;stroke-width:2px"/><line x1="60.67" y1="36.54" x2="74.98" y2="36.54" style="fill:none;stroke:#000;stroke-linecap:round;stroke-linejoin:round;stroke-width:2px"/><line x1="60.67" y1="50.15" x2="74.98" y2="50.15" style="fill:none;stroke:#000;stroke-linecap:round;stroke-linejoin:round;stroke-width:2px"/><line x1="60.67" y1="56.93" x2="67.83" y2="56.93" style="fill:none;stroke:#000;stroke-linecap:round;stroke-linejoin:round;stroke-width:2px"/><line x1="73.02" y1="56.93" x2="74.98" y2="56.93" style="fill:none;stroke:#000;stroke-linecap:round;stroke-linejoin:round;stroke-width:2px"/><path d="M34.72,27.23a16.24,16.24,0,0,0,0,32.23Z" style="fill:none;stroke:#000;stroke-linecap:round;stroke-linejoin:round;stroke-width:2px"/><path d="M38.77,40.62l12.79-3.94a16.27,16.27,0,0,0-12.79-9.45Z" style="fill:none;stroke:#000;stroke-linecap:round;stroke-linejoin:round;stroke-width:2px"/><path d="M38.77,44.87V59.46A16.25,16.25,0,0,0,53,43.35a16,16,0,0,0-.26-2.79Z" style="fill:none;stroke:#000;stroke-linecap:round;stroke-linejoin:round;stroke-width:2px"/><circle cx="110.37" cy="35.55" r="7.49" transform="translate(50.49 134.85) rotate(-76.76)" style="fill:none;stroke:#000;stroke-linecap:round;stroke-linejoin:round;stroke-width:2px"/><path d="M26,97.05a7.73,7.73,0,1,1-7.73-7.73A7.73,7.73,0,0,1,26,97.05Z" style="fill:none;stroke:#000;stroke-linecap:round;stroke-linejoin:round;stroke-width:2px"/><path d="M119.75,60.79V75.4A2.62,2.62,0,0,0,122.38,78h0A2.62,2.62,0,0,0,125,75.4V57.76a11.21,11.21,0,0,0-11.18-11.18h-12.4L86,39.43a3,3,0,0,0-3.71,1h0a3,3,0,0,0,.89,4.28l18.18,11v49.76h17.48V83.15" style="fill:none;stroke:#000;stroke-linecap:round;stroke-linejoin:round;stroke-width:2px"/><line x1="110.37" y1="104.58" x2="110.37" y2="78.02" style="fill:none;stroke:#000;stroke-linecap:round;stroke-linejoin:round;stroke-width:2px"/><circle cx="46.28" cy="97.05" r="7.73" style="fill:none;stroke:#000;stroke-linecap:round;stroke-linejoin:round;stroke-width:2px"/><path d="M82,97.05a7.73,7.73,0,1,1-7.73-7.73A7.73,7.73,0,0,1,82,97.05Z" style="fill:none;stroke:#000;stroke-linecap:round;stroke-linejoin:round;stroke-width:2px"/><path d="M89.56,119.49A10.32,10.32,0,0,0,79.27,109.2h-10a10.31,10.31,0,0,0-9,5.29,10.3,10.3,0,0,0-9-5.29h-10a10.3,10.3,0,0,0-9,5.29,10.31,10.31,0,0,0-9-5.29h-10A10.32,10.32,0,0,0,3,119.49" style="fill:none;stroke:#000;stroke-linecap:round;stroke-linejoin:round;stroke-width:2px"/><line x1="101.34" y1="67.65" x2="108.51" y2="67.65" style="fill:none;stroke:#000;stroke-linecap:round;stroke-linejoin:round;stroke-width:2px"/></svg>