<svg id="Layer_1" data-name="Layer 1" xmlns="http://www.w3.org/2000/svg" viewBox="0 0 128 128"><title>iStar_Design_Business_LineIcons_Live-85</title><polyline points="32.63 48.73 50.79 48.73 50.79 107.87 32.63 107.87" style="fill:none;stroke:#000;stroke-linecap:round;stroke-linejoin:round;stroke-width:2px"/><rect x="11.81" y="42.7" width="20.48" height="71.2" style="fill:none;stroke:#000;stroke-linecap:round;stroke-linejoin:round;stroke-width:2px"/><path d="M104.18,93.4a6.69,6.69,0,0,1,6.66,6.67h0a6.69,6.69,0,0,1-6.66,6.67l-26.79.73c-17.14,0-26.55-3.44-26.55-3.44" style="fill:none;stroke:#000;stroke-linecap:round;stroke-linejoin:round;stroke-width:2px"/><path d="M106.51,79.42a7,7,0,0,1,7,7h0c0,3.84-3.61,7-9.13,7" style="fill:none;stroke:#000;stroke-linecap:round;stroke-linejoin:round;stroke-width:2px"/><path d="M108.89,65.48a7,7,0,0,1,7,7h0c0,3.84-3.2,7-9.21,7" style="fill:none;stroke:#000;stroke-linecap:round;stroke-linejoin:round;stroke-width:2px"/><path d="M96,51.47H109.2a7,7,0,0,1,7,7h0a7,7,0,0,1-7,7" style="fill:none;stroke:#000;stroke-linecap:round;stroke-linejoin:round;stroke-width:2px"/><path d="M51.21,54.08S77.3,55.2,77.3,14.94c0,0,16.26-8.45,11.11,28.1a7.39,7.39,0,0,0,7.3,8.43" style="fill:none;stroke:#000;stroke-linecap:round;stroke-linejoin:round;stroke-width:2px"/><line x1="95.56" y1="59.11" x2="87.74" y2="59.11" style="fill:none;stroke:#000;stroke-linecap:round;stroke-linejoin:round;stroke-width:2px"/><line x1="95.56" y1="72.53" x2="87.74" y2="72.53" style="fill:none;stroke:#000;stroke-linecap:round;stroke-linejoin:round;stroke-width:2px"/><line x1="95.56" y1="85.95" x2="87.74" y2="85.95" style="fill:none;stroke:#000;stroke-linecap:round;stroke-linejoin:round;stroke-width:2px"/><line x1="95.56" y1="99.37" x2="87.74" y2="99.37" style="fill:none;stroke:#000;stroke-linecap:round;stroke-linejoin:round;stroke-width:2px"/><circle cx="20.83" cy="51.56" r="4.19" style="fill:none;stroke:#000;stroke-linecap:round;stroke-linejoin:round;stroke-width:2px"/><line x1="44.13" y1="91.82" x2="44.13" y2="101.79" style="fill:none;stroke:#000;stroke-linecap:round;stroke-linejoin:round;stroke-width:2px"/><line x1="38.54" y1="91.82" x2="38.54" y2="101.79" style="fill:none;stroke:#000;stroke-linecap:round;stroke-linejoin:round;stroke-width:2px"/><line x1="11.98" y1="79.33" x2="20.46" y2="70.85" style="fill:none;stroke:#000;stroke-linecap:round;stroke-linejoin:round;stroke-width:2px"/><line x1="11.98" y1="90.51" x2="20.46" y2="82.03" style="fill:none;stroke:#000;stroke-linecap:round;stroke-linejoin:round;stroke-width:2px"/></svg>