<svg id="Layer_1" data-name="Layer 1" xmlns="http://www.w3.org/2000/svg" viewBox="0 0 128 128"><title>iStar_Design_Business_LineIcons_Live-5</title><polyline points="53.91 89.78 53.91 101.86 33.54 98.67 33.54 75.77 49.43 78.25" style="fill:none;stroke:#000;stroke-linecap:round;stroke-linejoin:round;stroke-width:2px"/><polyline points="20.28 57.17 68.86 64.75 68.86 118.37 20.28 110.78 20.28 68.39" style="fill:none;stroke:#000;stroke-linecap:round;stroke-linejoin:round;stroke-width:2px"/><polyline points="100.18 68.24 100.18 110.78 68.86 118.37" style="fill:none;stroke:#000;stroke-linecap:round;stroke-linejoin:round;stroke-width:2px"/><line x1="89.6" y1="106.85" x2="77.33" y2="109.82" style="fill:none;stroke:#000;stroke-linecap:round;stroke-linejoin:round;stroke-width:2px"/><polyline points="93.55 105.89 95.25 105.48 95.25 101.55" style="fill:none;stroke:#000;stroke-linecap:round;stroke-linejoin:round;stroke-width:2px"/><line x1="68.86" y1="64.75" x2="100.18" y2="57.17" style="fill:none;stroke:#000;stroke-linecap:round;stroke-linejoin:round;stroke-width:2px"/><polyline points="51.1 49.28 62.28 41.6 110.86 49.19 99.69 56.87 110.96 65.01 79.64 72.59 68.86 64.75 54.38 72.98 5.8 65.39 20.28 57.17 8.61 50.28 39.93 42.69 51.1 49.13" style="fill:none;stroke:#000;stroke-linecap:round;stroke-linejoin:round;stroke-width:2px"/><polygon points="111.5 29.83 80.19 24.94 122.2 9.63 111.5 29.83" style="fill:none;stroke:#000;stroke-linecap:round;stroke-linejoin:round;stroke-width:2px"/><polyline points="20.28 57.12 51.6 49.53 100.18 57.17" style="fill:none;stroke:#000;stroke-linecap:round;stroke-linejoin:round;stroke-width:2px"/><polyline points="38.44 89.13 42.67 94.77 57.2 78.45" style="fill:none;stroke:#000;stroke-linecap:round;stroke-linejoin:round;stroke-width:2px"/><polyline points="103.12 28.52 96.21 34 96.21 27.44 122.2 9.63" style="fill:none;stroke:#000;stroke-linecap:round;stroke-linejoin:round;stroke-width:2px"/><line x1="85.5" y1="33" x2="87.82" y2="31.42" style="fill:none;stroke:#000;stroke-linecap:round;stroke-linejoin:round;stroke-width:2px"/><line x1="66.8" y1="45.82" x2="80.31" y2="36.56" style="fill:none;stroke:#000;stroke-linecap:round;stroke-linejoin:round;stroke-width:2px"/><line x1="63.75" y1="55.87" x2="91" y2="37.2" style="fill:none;stroke:#000;stroke-linecap:round;stroke-linejoin:round;stroke-width:2px"/><line x1="99.18" y1="40.06" x2="102.83" y2="37.56" style="fill:none;stroke:#000;stroke-linecap:round;stroke-linejoin:round;stroke-width:2px"/><line x1="101.01" y1="99.89" x2="111.91" y2="99.89" style="fill:none;stroke:#000;stroke-linecap:round;stroke-linejoin:round;stroke-width:2px"/><line x1="116.89" y1="99.89" x2="118.69" y2="99.89" style="fill:none;stroke:#000;stroke-linecap:round;stroke-linejoin:round;stroke-width:2px"/><line x1="11.83" y1="99.89" x2="20.28" y2="99.89" style="fill:none;stroke:#000;stroke-linecap:round;stroke-linejoin:round;stroke-width:2px"/></svg>