<svg id="Layer_1" data-name="Layer 1" xmlns="http://www.w3.org/2000/svg" viewBox="0 0 128 128"><title>iStar_Design_Business_LineIcons_Live-73</title><line x1="105.3" y1="116.82" x2="105.3" y2="110.78" style="fill:none;stroke:#000;stroke-linecap:round;stroke-linejoin:round;stroke-width:2px"/><polyline points="119.52 123.41 119.52 116.82 8.4 116.82 8.4 123.41" style="fill:none;stroke:#000;stroke-linecap:round;stroke-linejoin:round;stroke-width:2px"/><line x1="64" y1="116.82" x2="64" y2="110.78" style="fill:none;stroke:#000;stroke-linecap:round;stroke-linejoin:round;stroke-width:2px"/><line x1="22.61" y1="116.82" x2="22.61" y2="110.78" style="fill:none;stroke:#000;stroke-linecap:round;stroke-linejoin:round;stroke-width:2px"/><path d="M72.43,17.64a11.06,11.06,0,0,0,.51-3.34c0-5.56-4-9.71-8.94-9.71s-8.94,4.15-8.94,9.71a11.06,11.06,0,0,0,.51,3.34,2.63,2.63,0,0,0,.7,4.68c1.28,3.82,4.26,6.5,7.73,6.5s6.45-2.68,7.73-6.5a2.63,2.63,0,0,0,.7-4.68Z" style="fill:none;stroke:#000;stroke-linecap:round;stroke-linejoin:round;stroke-width:2px"/><polyline points="63.91 36.36 67.73 40.66 72.85 35.07 70.65 31.3" style="fill:none;stroke:#000;stroke-linecap:round;stroke-linejoin:round;stroke-width:2px"/><line x1="70.65" y1="31.3" x2="63.92" y2="36.36" style="fill:none;stroke:#000;stroke-linecap:round;stroke-linejoin:round;stroke-width:2px"/><path d="M72.85,35.07,80,37.4a4.19,4.19,0,0,1,2.2,4v6.12" style="fill:none;stroke:#000;stroke-linecap:round;stroke-linejoin:round;stroke-width:2px"/><polyline points="64.08 36.36 60.27 40.66 55.15 35.07 57.35 31.3" style="fill:none;stroke:#000;stroke-linecap:round;stroke-linejoin:round;stroke-width:2px"/><line x1="57.35" y1="31.3" x2="64.08" y2="36.36" style="fill:none;stroke:#000;stroke-linecap:round;stroke-linejoin:round;stroke-width:2px"/><path d="M55.15,35.07,48,37.4a4.19,4.19,0,0,0-2.2,4v6.12" style="fill:none;stroke:#000;stroke-linecap:round;stroke-linejoin:round;stroke-width:2px"/><path d="M82.23,47.47a38.65,38.65,0,0,1-36.46,0" style="fill:none;stroke:#000;stroke-linecap:round;stroke-linejoin:round;stroke-width:2px"/><path d="M72.43,70.45a11.06,11.06,0,0,0,.51-3.34c0-5.56-4-9.71-8.94-9.71s-8.94,4.15-8.94,9.71a11.06,11.06,0,0,0,.51,3.34,2.63,2.63,0,0,0-1.15,2.18,2.58,2.58,0,0,0,1.85,2.5c1.28,3.83,4.26,6.5,7.73,6.5s6.45-2.67,7.73-6.5a2.58,2.58,0,0,0,1.85-2.5A2.63,2.63,0,0,0,72.43,70.45Z" style="fill:none;stroke:#000;stroke-linecap:round;stroke-linejoin:round;stroke-width:2px"/><polyline points="63.91 89.17 67.73 93.47 72.85 87.89 70.65 84.12" style="fill:none;stroke:#000;stroke-linecap:round;stroke-linejoin:round;stroke-width:2px"/><line x1="70.65" y1="84.12" x2="63.92" y2="89.17" style="fill:none;stroke:#000;stroke-linecap:round;stroke-linejoin:round;stroke-width:2px"/><path d="M72.85,87.88,80,90.22a4.17,4.17,0,0,1,2.2,3.94v6.12" style="fill:none;stroke:#000;stroke-linecap:round;stroke-linejoin:round;stroke-width:2px"/><polyline points="64.08 89.17 60.27 93.47 55.15 87.89 57.35 84.12" style="fill:none;stroke:#000;stroke-linecap:round;stroke-linejoin:round;stroke-width:2px"/><line x1="57.35" y1="84.12" x2="64.08" y2="89.17" style="fill:none;stroke:#000;stroke-linecap:round;stroke-linejoin:round;stroke-width:2px"/><path d="M55.15,87.88,48,90.22a4.17,4.17,0,0,0-2.2,3.94v6.12" style="fill:none;stroke:#000;stroke-linecap:round;stroke-linejoin:round;stroke-width:2px"/><path d="M82.23,100.28a38.65,38.65,0,0,1-36.46,0" style="fill:none;stroke:#000;stroke-linecap:round;stroke-linejoin:round;stroke-width:2px"/><path d="M31.12,70.45a11.06,11.06,0,0,0,.51-3.34c0-5.56-4-9.71-8.93-9.71s-8.94,4.15-8.94,9.71a11.06,11.06,0,0,0,.51,3.34,2.63,2.63,0,0,0-1.15,2.18A2.57,2.57,0,0,0,15,75.13c1.28,3.83,4.26,6.5,7.73,6.5s6.45-2.67,7.73-6.5a2.58,2.58,0,0,0,1.85-2.5A2.62,2.62,0,0,0,31.12,70.45Z" style="fill:none;stroke:#000;stroke-linecap:round;stroke-linejoin:round;stroke-width:2px"/><polyline points="22.61 89.17 26.42 93.47 31.55 87.89 29.35 84.12" style="fill:none;stroke:#000;stroke-linecap:round;stroke-linejoin:round;stroke-width:2px"/><line x1="29.35" y1="84.12" x2="22.61" y2="89.17" style="fill:none;stroke:#000;stroke-linecap:round;stroke-linejoin:round;stroke-width:2px"/><path d="M31.55,87.88l7.18,2.34a4.17,4.17,0,0,1,2.2,3.94v6.12" style="fill:none;stroke:#000;stroke-linecap:round;stroke-linejoin:round;stroke-width:2px"/><polyline points="22.78 89.17 18.97 93.47 13.85 87.89 16.04 84.12" style="fill:none;stroke:#000;stroke-linecap:round;stroke-linejoin:round;stroke-width:2px"/><line x1="16.04" y1="84.12" x2="22.78" y2="89.17" style="fill:none;stroke:#000;stroke-linecap:round;stroke-linejoin:round;stroke-width:2px"/><path d="M13.85,87.88,6.66,90.22a4.16,4.16,0,0,0-2.19,3.94v6.12" style="fill:none;stroke:#000;stroke-linecap:round;stroke-linejoin:round;stroke-width:2px"/><path d="M40.93,100.28a37.47,37.47,0,0,1-18.23,4.57,37.44,37.44,0,0,1-18.23-4.57" style="fill:none;stroke:#000;stroke-linecap:round;stroke-linejoin:round;stroke-width:2px"/><path d="M113.73,70.45a11.06,11.06,0,0,0,.51-3.34c0-5.56-4-9.71-8.94-9.71s-8.93,4.15-8.93,9.71a11.06,11.06,0,0,0,.51,3.34,2.62,2.62,0,0,0-1.16,2.18,2.58,2.58,0,0,0,1.85,2.5c1.28,3.83,4.26,6.5,7.73,6.5s6.45-2.67,7.73-6.5a2.57,2.57,0,0,0,1.85-2.5A2.63,2.63,0,0,0,113.73,70.45Z" style="fill:none;stroke:#000;stroke-linecap:round;stroke-linejoin:round;stroke-width:2px"/><polyline points="105.22 89.17 109.03 93.47 114.16 87.89 111.96 84.12" style="fill:none;stroke:#000;stroke-linecap:round;stroke-linejoin:round;stroke-width:2px"/><line x1="111.96" y1="84.12" x2="105.22" y2="89.17" style="fill:none;stroke:#000;stroke-linecap:round;stroke-linejoin:round;stroke-width:2px"/><path d="M114.15,87.88l7.19,2.34a4.16,4.16,0,0,1,2.19,3.94v6.12" style="fill:none;stroke:#000;stroke-linecap:round;stroke-linejoin:round;stroke-width:2px"/><polyline points="105.39 89.17 101.58 93.47 96.45 87.89 98.65 84.12" style="fill:none;stroke:#000;stroke-linecap:round;stroke-linejoin:round;stroke-width:2px"/><line x1="98.65" y1="84.12" x2="105.39" y2="89.17" style="fill:none;stroke:#000;stroke-linecap:round;stroke-linejoin:round;stroke-width:2px"/><path d="M96.45,87.88l-7.18,2.34a4.17,4.17,0,0,0-2.2,3.94v6.12" style="fill:none;stroke:#000;stroke-linecap:round;stroke-linejoin:round;stroke-width:2px"/><path d="M123.53,100.28a38.65,38.65,0,0,1-36.46,0" style="fill:none;stroke:#000;stroke-linecap:round;stroke-linejoin:round;stroke-width:2px"/><polyline points="88.16 37.92 105.21 37.92 105.21 51.9" style="fill:none;stroke:#000;stroke-linecap:round;stroke-linejoin:round;stroke-width:2px"/><polyline points="39.84 37.92 22.79 37.92 22.79 51.9" style="fill:none;stroke:#000;stroke-linecap:round;stroke-linejoin:round;stroke-width:2px"/></svg>