<svg id="Layer_1" data-name="Layer 1" xmlns="http://www.w3.org/2000/svg" viewBox="0 0 128 128"><title>iStar_Design_Business_LineIcons_Live-82</title><path d="M5.68,108.56V19.69A9.7,9.7,0,0,1,15.37,10H79.08v91.19h-66a7.38,7.38,0,0,0-7.37,7.38h0a7.38,7.38,0,0,0,7.37,7.38h66" style="fill:none;stroke:#000;stroke-linecap:round;stroke-linejoin:round;stroke-width:2px"/><line x1="79.08" y1="106.09" x2="14.68" y2="106.09" style="fill:none;stroke:#000;stroke-linecap:round;stroke-linejoin:round;stroke-width:2px"/><line x1="79.08" y1="111.01" x2="14.68" y2="111.01" style="fill:none;stroke:#000;stroke-linecap:round;stroke-linejoin:round;stroke-width:2px"/><rect x="19.55" y="19.86" width="49.31" height="71.45" style="fill:none;stroke:#000;stroke-linecap:round;stroke-linejoin:round;stroke-width:2px"/><line x1="40.28" y1="43.38" x2="49.26" y2="43.38" style="fill:none;stroke:#000;stroke-linecap:round;stroke-linejoin:round;stroke-width:2px"/><line x1="32.35" y1="50.69" x2="57.19" y2="50.69" style="fill:none;stroke:#000;stroke-linecap:round;stroke-linejoin:round;stroke-width:2px"/><line x1="32.35" y1="58" x2="57.19" y2="58" style="fill:none;stroke:#000;stroke-linecap:round;stroke-linejoin:round;stroke-width:2px"/><line x1="32.35" y1="65.31" x2="57.19" y2="65.31" style="fill:none;stroke:#000;stroke-linecap:round;stroke-linejoin:round;stroke-width:2px"/><line x1="91.97" y1="35.45" x2="96.27" y2="35.45" style="fill:none;stroke:#000;stroke-linecap:round;stroke-linejoin:round;stroke-width:2px"/><line x1="91.97" y1="50.58" x2="96.27" y2="50.58" style="fill:none;stroke:#000;stroke-linecap:round;stroke-linejoin:round;stroke-width:2px"/><line x1="111.55" y1="35.45" x2="115.86" y2="35.45" style="fill:none;stroke:#000;stroke-linecap:round;stroke-linejoin:round;stroke-width:2px"/><line x1="111.55" y1="50.58" x2="115.86" y2="50.58" style="fill:none;stroke:#000;stroke-linecap:round;stroke-linejoin:round;stroke-width:2px"/><path d="M88.64,54.79h0a3.15,3.15,0,0,1-3.14-3.14V34.38a3.14,3.14,0,0,1,3.14-3.13h0a3.13,3.13,0,0,1,3.13,3.13V51.65A3.14,3.14,0,0,1,88.64,54.79Z" style="fill:none;stroke:#000;stroke-linecap:round;stroke-linejoin:round;stroke-width:2px"/><path d="M119.19,54.79h0a3.14,3.14,0,0,1-3.13-3.14V34.38a3.13,3.13,0,0,1,3.13-3.13h0a3.13,3.13,0,0,1,3.13,3.13V51.65A3.14,3.14,0,0,1,119.19,54.79Z" style="fill:none;stroke:#000;stroke-linecap:round;stroke-linejoin:round;stroke-width:2px"/><rect x="96.27" y="31.25" width="15.28" height="23.54" style="fill:none;stroke:#000;stroke-linecap:round;stroke-linejoin:round;stroke-width:2px"/><path d="M103.91,118h0a4.22,4.22,0,0,1-4.21-4.22V65.71h8.43v48.08A4.22,4.22,0,0,1,103.91,118Z" style="fill:none;stroke:#000;stroke-linecap:round;stroke-linejoin:round;stroke-width:2px"/><line x1="106.44" y1="54.79" x2="106.44" y2="65.71" style="fill:none;stroke:#000;stroke-linecap:round;stroke-linejoin:round;stroke-width:2px"/><line x1="101.38" y1="65.71" x2="101.38" y2="54.79" style="fill:none;stroke:#000;stroke-linecap:round;stroke-linejoin:round;stroke-width:2px"/></svg>