<svg id="Layer_1" data-name="Layer 1" xmlns="http://www.w3.org/2000/svg" viewBox="0 0 128 128"><title>iStar_Design_Business_LineIcons_Live-69</title><line x1="104.49" y1="40.34" x2="115.05" y2="40.34" style="fill:none;stroke:#000;stroke-linecap:round;stroke-linejoin:round;stroke-width:2px"/><line x1="104.49" y1="44.69" x2="106.9" y2="44.69" style="fill:none;stroke:#000;stroke-linecap:round;stroke-linejoin:round;stroke-width:2px"/><rect x="4.24" y="73.87" width="84.66" height="38.26" style="fill:none;stroke:#000;stroke-linecap:round;stroke-linejoin:round;stroke-width:2px"/><polyline points="88.01 74.56 46.91 96.08 5.14 73.89" style="fill:none;stroke:#000;stroke-linecap:round;stroke-linejoin:round;stroke-width:2px"/><rect x="97.83" y="34.49" width="23.89" height="16.05" style="fill:none;stroke:#000;stroke-linecap:round;stroke-linejoin:round;stroke-width:2px"/><polyline points="11.2 73.87 11.2 23.69 61.13 23.69 61.13 73.87" style="fill:none;stroke:#000;stroke-linecap:round;stroke-linejoin:round;stroke-width:2px"/><line x1="13.97" y1="32.29" x2="7.8" y2="32.29" style="fill:none;stroke:#000;stroke-linecap:round;stroke-linejoin:round;stroke-width:2px"/><line x1="13.97" y1="40.87" x2="7.8" y2="40.87" style="fill:none;stroke:#000;stroke-linecap:round;stroke-linejoin:round;stroke-width:2px"/><line x1="13.97" y1="49.45" x2="7.8" y2="49.45" style="fill:none;stroke:#000;stroke-linecap:round;stroke-linejoin:round;stroke-width:2px"/><line x1="13.97" y1="58.03" x2="7.8" y2="58.03" style="fill:none;stroke:#000;stroke-linecap:round;stroke-linejoin:round;stroke-width:2px"/><line x1="13.97" y1="66.61" x2="7.8" y2="66.61" style="fill:none;stroke:#000;stroke-linecap:round;stroke-linejoin:round;stroke-width:2px"/><line x1="116.56" y1="60.12" x2="116.56" y2="57.42" style="fill:none;stroke:#000;stroke-linecap:round;stroke-linejoin:round;stroke-width:2px"/><path d="M119,113.64l-2.39,4.54-2.39-4.54V62.51a2.39,2.39,0,0,1,2.39-2.39h0A2.39,2.39,0,0,1,119,62.51Z" style="fill:none;stroke:#000;stroke-linecap:round;stroke-linejoin:round;stroke-width:2px"/><path d="M114.17,66.37h5.7a2.56,2.56,0,0,1,2.56,2.56V82.79a5.14,5.14,0,0,0,1.33,3.46" style="fill:none;stroke:#000;stroke-linecap:round;stroke-linejoin:round;stroke-width:2px"/><line x1="118.95" y1="110.85" x2="114.17" y2="110.85" style="fill:none;stroke:#000;stroke-linecap:round;stroke-linejoin:round;stroke-width:2px"/><polygon points="91.01 25.17 107.41 25.17 91.01 8.76 91.01 25.17" style="fill:none;stroke:#000;stroke-linecap:round;stroke-linejoin:round;stroke-width:2px"/><polyline points="29.6 23.69 29.6 8.76 91.01 8.76" style="fill:none;stroke:#000;stroke-linecap:round;stroke-linejoin:round;stroke-width:2px"/><polyline points="107.41 50.54 107.41 119.24 29.6 119.24 29.6 112.14" style="fill:none;stroke:#000;stroke-linecap:round;stroke-linejoin:round;stroke-width:2px"/><line x1="107.41" y1="25.17" x2="107.41" y2="34.49" style="fill:none;stroke:#000;stroke-linecap:round;stroke-linejoin:round;stroke-width:2px"/><line x1="48" y1="23.69" x2="48" y2="73.87" style="fill:none;stroke:#000;stroke-linecap:round;stroke-linejoin:round;stroke-width:2px"/><line x1="52.5" y1="23.69" x2="52.5" y2="73.87" style="fill:none;stroke:#000;stroke-linecap:round;stroke-linejoin:round;stroke-width:2px"/><line x1="87.25" y1="48.78" x2="69.25" y2="48.78" style="fill:none;stroke:#000;stroke-linecap:round;stroke-linejoin:round;stroke-width:2px"/><line x1="87.25" y1="55.66" x2="69.25" y2="55.66" style="fill:none;stroke:#000;stroke-linecap:round;stroke-linejoin:round;stroke-width:2px"/><line x1="87.25" y1="62.55" x2="69.25" y2="62.55" style="fill:none;stroke:#000;stroke-linecap:round;stroke-linejoin:round;stroke-width:2px"/></svg>