<svg id="Layer_1" data-name="Layer 1" xmlns="http://www.w3.org/2000/svg" viewBox="0 0 128 128"><title>iStar_Design_Business_LineIcons_Live-77</title><path d="M123.06,86.08c0-4.16-3.37-6.53-7.53-6.53H44.24V35H115a8.06,8.06,0,0,1,8.06,8.06V86.55" style="fill:none;stroke:#000;stroke-linecap:round;stroke-linejoin:round;stroke-width:2px"/><path d="M82.6,64.16a5,5,0,1,0,4.07-8h-.06A3.9,3.9,0,1,1,89.75,50" style="fill:none;stroke:#000;stroke-linecap:round;stroke-linejoin:round;stroke-width:2px"/><line x1="86.61" y1="48.36" x2="86.61" y2="46.2" style="fill:none;stroke:#000;stroke-linecap:round;stroke-linejoin:round;stroke-width:2px"/><line x1="86.61" y1="68.39" x2="86.61" y2="66.23" style="fill:none;stroke:#000;stroke-linecap:round;stroke-linejoin:round;stroke-width:2px"/><path d="M114.58,40.76H55.72A6.33,6.33,0,0,1,50,46.44v21.7a6.34,6.34,0,0,1,5.77,5.68h58.86" style="fill:none;stroke:#000;stroke-linecap:round;stroke-linejoin:round;stroke-width:2px"/><line x1="58.32" y1="57.29" x2="49.95" y2="57.29" style="fill:none;stroke:#000;stroke-linecap:round;stroke-linejoin:round;stroke-width:2px"/><path d="M123.06,86.32A6.65,6.65,0,0,1,116.41,93h-17V79.55" style="fill:none;stroke:#000;stroke-linecap:round;stroke-linejoin:round;stroke-width:2px"/><line x1="31.18" y1="56.75" x2="4.94" y2="56.75" style="fill:none;stroke:#000;stroke-linecap:round;stroke-linejoin:round;stroke-width:2px"/><line x1="37.18" y1="67.31" x2="22.39" y2="67.31" style="fill:none;stroke:#000;stroke-linecap:round;stroke-linejoin:round;stroke-width:2px"/><line x1="89.66" y1="89.72" x2="82.27" y2="89.72" style="fill:none;stroke:#000;stroke-linecap:round;stroke-linejoin:round;stroke-width:2px"/><line x1="75.21" y1="89.72" x2="72.93" y2="89.72" style="fill:none;stroke:#000;stroke-linecap:round;stroke-linejoin:round;stroke-width:2px"/><line x1="14.79" y1="67.31" x2="10.99" y2="67.31" style="fill:none;stroke:#000;stroke-linecap:round;stroke-linejoin:round;stroke-width:2px"/><line x1="19.92" y1="46.2" x2="10.94" y2="46.2" style="fill:none;stroke:#000;stroke-linecap:round;stroke-linejoin:round;stroke-width:2px"/><line x1="31.67" y1="46.2" x2="26.69" y2="46.2" style="fill:none;stroke:#000;stroke-linecap:round;stroke-linejoin:round;stroke-width:2px"/><line x1="107.05" y1="86.26" x2="114.23" y2="86.26" style="fill:none;stroke:#000;stroke-linecap:round;stroke-linejoin:round;stroke-width:2px"/></svg>