<svg id="Layer_1" data-name="Layer 1" xmlns="http://www.w3.org/2000/svg" viewBox="0 0 128 128"><title>iStar_Design_Business_LineIcons_Live-62</title><path d="M59.7,107.4A4.08,4.08,0,1,0,64.94,105,4.08,4.08,0,0,0,59.7,107.4Z" style="fill:none;stroke:#000;stroke-linecap:round;stroke-linejoin:round;stroke-width:2px"/><path d="M66.54,100.61l.51.22,0,0L105.19,49a1.29,1.29,0,0,1,2.16,1.39l-17.73,32a4.32,4.32,0,0,1-5.48,2.39L70.26,103.26a8.71,8.71,0,1,1-3.72-2.65Z" style="fill:none;stroke:#000;stroke-linecap:round;stroke-linejoin:round;stroke-width:2px"/><circle cx="64" cy="34.31" r="3.99" style="fill:none;stroke:#000;stroke-linecap:round;stroke-linejoin:round;stroke-width:2px"/><path d="M73.17,53.81c0-6.31-4.11-11.43-9.17-11.43s-9.17,5.12-9.17,11.43" style="fill:none;stroke:#000;stroke-linecap:round;stroke-linejoin:round;stroke-width:2px"/><ellipse cx="64" cy="42.12" rx="13.08" ry="16.95" style="fill:none;stroke:#000;stroke-linecap:round;stroke-linejoin:round;stroke-width:2px"/><line x1="114.63" y1="41.95" x2="102.67" y2="41.95" style="fill:none;stroke:#000;stroke-linecap:round;stroke-linejoin:round;stroke-width:2px"/><line x1="25.33" y1="41.95" x2="13.37" y2="41.95" style="fill:none;stroke:#000;stroke-linecap:round;stroke-linejoin:round;stroke-width:2px"/><polyline points="81.16 73.44 5.21 73.44 5.21 10.46 122.79 10.46 122.79 73.44 94.54 73.44" style="fill:none;stroke:#000;stroke-linecap:round;stroke-linejoin:round;stroke-width:2px"/><path d="M99.61,64.3h6.77a9.08,9.08,0,0,1,8.25-8.11V27.71a9.08,9.08,0,0,1-8.25-8.11H21.62a9.08,9.08,0,0,1-8.25,8.11V56.19a9.08,9.08,0,0,1,8.25,8.11H93.54" style="fill:none;stroke:#000;stroke-linecap:round;stroke-linejoin:round;stroke-width:2px"/><line x1="84.32" y1="10.46" x2="84.32" y2="16.46" style="fill:none;stroke:#000;stroke-linecap:round;stroke-linejoin:round;stroke-width:2px"/><line x1="84.32" y1="24.71" x2="84.32" y2="30.71" style="fill:none;stroke:#000;stroke-linecap:round;stroke-linejoin:round;stroke-width:2px"/><line x1="84.32" y1="38.95" x2="84.32" y2="44.95" style="fill:none;stroke:#000;stroke-linecap:round;stroke-linejoin:round;stroke-width:2px"/><line x1="84.32" y1="53.2" x2="84.32" y2="59.2" style="fill:none;stroke:#000;stroke-linecap:round;stroke-linejoin:round;stroke-width:2px"/><line x1="84.32" y1="67.44" x2="84.32" y2="71.68" style="fill:none;stroke:#000;stroke-linecap:round;stroke-linejoin:round;stroke-width:2px"/><path d="M108.52,107.4a4.08,4.08,0,1,1-5.24-2.43A4.08,4.08,0,0,1,108.52,107.4Z" style="fill:none;stroke:#000;stroke-linecap:round;stroke-linejoin:round;stroke-width:2px"/><line x1="73.68" y1="73.44" x2="78.6" y2="82.32" style="fill:none;stroke:#000;stroke-linecap:round;stroke-linejoin:round;stroke-width:2px"/><line x1="84.11" y1="77.59" x2="81.16" y2="73.58" style="fill:none;stroke:#000;stroke-linecap:round;stroke-linejoin:round;stroke-width:2px"/><path d="M84.07,84.71,98,103.26a8.71,8.71,0,1,0,3.72-2.65l-.51.22,0,0-12.56-17" style="fill:none;stroke:#000;stroke-linecap:round;stroke-linejoin:round;stroke-width:2px"/></svg>