<svg id="Layer_1" data-name="Layer 1" xmlns="http://www.w3.org/2000/svg" viewBox="0 0 128 128"><title>iStar_Design_Business_LineIcons_Live-83</title><path d="M51.28,57.65V37.28c0-5.43,4.13-9.87,9.16-9.87" style="fill:none;stroke:#000;stroke-linecap:round;stroke-linejoin:round;stroke-width:2px"/><path d="M98.72,27.41c5,0,9.17,4.44,9.17,9.87v77c0,5.44-4.13,9.88-9.17,9.88H60.44c-5,0-9.16-4.44-9.16-9.88V84.87" style="fill:none;stroke:#000;stroke-linecap:round;stroke-linejoin:round;stroke-width:2px"/><rect x="61.26" y="39.97" width="36.65" height="20.07" rx="4.38" ry="4.38" style="fill:none;stroke:#000;stroke-linecap:round;stroke-linejoin:round;stroke-width:2px"/><rect x="89.1" y="97.06" width="10.29" height="6.82" style="fill:none;stroke:#000;stroke-linecap:round;stroke-linejoin:round;stroke-width:2px"/><rect x="74.44" y="97.06" width="10.29" height="6.82" style="fill:none;stroke:#000;stroke-linecap:round;stroke-linejoin:round;stroke-width:2px"/><rect x="59.78" y="97.06" width="10.29" height="6.82" style="fill:none;stroke:#000;stroke-linecap:round;stroke-linejoin:round;stroke-width:2px"/><rect x="89.1" y="84.23" width="10.29" height="6.82" style="fill:none;stroke:#000;stroke-linecap:round;stroke-linejoin:round;stroke-width:2px"/><rect x="74.44" y="84.23" width="10.29" height="6.82" style="fill:none;stroke:#000;stroke-linecap:round;stroke-linejoin:round;stroke-width:2px"/><rect x="59.78" y="84.23" width="10.29" height="6.82" style="fill:none;stroke:#000;stroke-linecap:round;stroke-linejoin:round;stroke-width:2px"/><rect x="89.1" y="72.32" width="10.29" height="6.82" style="fill:none;stroke:#000;stroke-linecap:round;stroke-linejoin:round;stroke-width:2px"/><rect x="74.44" y="72.32" width="10.29" height="6.82" style="fill:none;stroke:#000;stroke-linecap:round;stroke-linejoin:round;stroke-width:2px"/><rect x="59.78" y="72.32" width="10.29" height="6.82" style="fill:none;stroke:#000;stroke-linecap:round;stroke-linejoin:round;stroke-width:2px"/><polyline points="66.66 31.31 66.66 3.81 69.54 7.54 72.87 3.81 76.13 7.46 79.41 3.81 82.87 7.64 85.79 3.81 88.69 7.63 92.5 3.81 92.5 31.31" style="fill:none;stroke:#000;stroke-linecap:round;stroke-linejoin:round;stroke-width:2px"/><line x1="71.18" y1="24.82" x2="87.98" y2="24.82" style="fill:none;stroke:#000;stroke-linecap:round;stroke-linejoin:round;stroke-width:2px"/><line x1="71.18" y1="19.33" x2="87.98" y2="19.33" style="fill:none;stroke:#000;stroke-linecap:round;stroke-linejoin:round;stroke-width:2px"/><line x1="71.18" y1="13.83" x2="87.98" y2="13.83" style="fill:none;stroke:#000;stroke-linecap:round;stroke-linejoin:round;stroke-width:2px"/><line x1="89.1" y1="111.97" x2="99.39" y2="111.97" style="fill:none;stroke:#000;stroke-linecap:round;stroke-linejoin:round;stroke-width:2px"/><line x1="74.44" y1="111.97" x2="84.73" y2="111.97" style="fill:none;stroke:#000;stroke-linecap:round;stroke-linejoin:round;stroke-width:2px"/><line x1="59.78" y1="111.97" x2="70.07" y2="111.97" style="fill:none;stroke:#000;stroke-linecap:round;stroke-linejoin:round;stroke-width:2px"/><rect x="17.44" y="62.93" width="43.98" height="27.55" rx="4.38" ry="4.38" transform="translate(-46.2 86.98) rotate(-69.64)" style="fill:none;stroke:#000;stroke-linecap:round;stroke-linejoin:round;stroke-width:2px"/><line x1="38.04" y1="93.78" x2="43.78" y2="78.32" style="fill:none;stroke:#000;stroke-linecap:round;stroke-linejoin:round;stroke-width:2px"/><line x1="46.33" y1="71.45" x2="49.36" y2="63.29" style="fill:none;stroke:#000;stroke-linecap:round;stroke-linejoin:round;stroke-width:2px"/><line x1="24.1" y1="94.47" x2="39.41" y2="53.24" style="fill:none;stroke:#000;stroke-linecap:round;stroke-linejoin:round;stroke-width:2px"/><line x1="44.75" y1="55.23" x2="29.45" y2="96.46" style="fill:none;stroke:#000;stroke-linecap:round;stroke-linejoin:round;stroke-width:2px"/></svg>