<svg id="Layer_1" data-name="Layer 1" xmlns="http://www.w3.org/2000/svg" viewBox="0 0 128 128"><title>iStar_Design_Business_LineIcons_Live-34</title><path d="M116.55,17.43h3.78a1.78,1.78,0,0,1,1.78,1.78V40.86a1.78,1.78,0,0,1-1.78,1.78h-3.78" style="fill:none;stroke:#000;stroke-linecap:round;stroke-linejoin:round;stroke-width:2px"/><path d="M122.11,45.91v8.64a1.78,1.78,0,0,1-1.78,1.78h-3.78" style="fill:none;stroke:#000;stroke-linecap:round;stroke-linejoin:round;stroke-width:2px"/><path d="M122.11,60.58v8.64A1.78,1.78,0,0,1,120.33,71h-3.78" style="fill:none;stroke:#000;stroke-linecap:round;stroke-linejoin:round;stroke-width:2px"/><path d="M122.11,75.24v8.64a1.78,1.78,0,0,1-1.78,1.79h-3.78" style="fill:none;stroke:#000;stroke-linecap:round;stroke-linejoin:round;stroke-width:2px"/><path d="M122.11,89.91v8.64a1.77,1.77,0,0,1-1.78,1.78h-3.78" style="fill:none;stroke:#000;stroke-linecap:round;stroke-linejoin:round;stroke-width:2px"/><path d="M33.28,4.79H108a8.57,8.57,0,0,1,8.57,8.57v91A8.57,8.57,0,0,1,108,113H33.28a0,0,0,0,1,0,0V4.79A0,0,0,0,1,33.28,4.79Z" style="fill:none;stroke:#000;stroke-linecap:round;stroke-linejoin:round;stroke-width:2px"/><line x1="96.66" y1="4.79" x2="96.66" y2="112.97" style="fill:none;stroke:#000;stroke-linecap:round;stroke-linejoin:round;stroke-width:2px"/><line x1="90" y1="4.79" x2="90" y2="112.97" style="fill:none;stroke:#000;stroke-linecap:round;stroke-linejoin:round;stroke-width:2px"/><line x1="39.44" y1="4.79" x2="39.44" y2="112.97" style="fill:none;stroke:#000;stroke-linecap:round;stroke-linejoin:round;stroke-width:2px"/><polyline points="52.36 112.97 52.36 123.21 46.4 123.21 46.4 112.97" style="fill:none;stroke:#000;stroke-linecap:round;stroke-linejoin:round;stroke-width:2px"/><path d="M90,57H54.23a3.82,3.82,0,0,1-3.82-3.82V29.83A3.82,3.82,0,0,1,54.23,26H90" style="fill:none;stroke:#000;stroke-linecap:round;stroke-linejoin:round;stroke-width:2px"/><path d="M96.66,26h3.15a3.82,3.82,0,0,1,3.82,3.82V53.14A3.82,3.82,0,0,1,99.81,57H96.66" style="fill:none;stroke:#000;stroke-linecap:round;stroke-linejoin:round;stroke-width:2px"/><line x1="18.09" y1="109.57" x2="18.09" y2="113.76" style="fill:none;stroke:#000;stroke-linecap:round;stroke-linejoin:round;stroke-width:2px"/><path d="M14.37,26.27l3.72-5.42,3.71,5.42v79.59a3.71,3.71,0,0,1-3.71,3.71h0a3.72,3.72,0,0,1-3.72-3.71Z" style="fill:none;stroke:#000;stroke-linecap:round;stroke-linejoin:round;stroke-width:2px"/><line x1="14.37" y1="101.44" x2="21.8" y2="101.44" style="fill:none;stroke:#000;stroke-linecap:round;stroke-linejoin:round;stroke-width:2px"/><path d="M21.8,96.56H12.93a4,4,0,0,1-4-4V71a8.07,8.07,0,0,0-2.06-5.4" style="fill:none;stroke:#000;stroke-linecap:round;stroke-linejoin:round;stroke-width:2px"/><line x1="14.37" y1="30.62" x2="21.8" y2="30.62" style="fill:none;stroke:#000;stroke-linecap:round;stroke-linejoin:round;stroke-width:2px"/><line x1="52" y1="92.5" x2="66.08" y2="92.5" style="fill:none;stroke:#000;stroke-linecap:round;stroke-linejoin:round;stroke-width:2px"/><line x1="52" y1="99.97" x2="66.08" y2="99.97" style="fill:none;stroke:#000;stroke-linecap:round;stroke-linejoin:round;stroke-width:2px"/></svg>