<svg id="Layer_1" data-name="Layer 1" xmlns="http://www.w3.org/2000/svg" viewBox="0 0 128 128"><title>iStar_Design_Business_LineIcons_Live-67</title><path d="M43.34,119.2v2.9A2.36,2.36,0,0,1,41,124.46H30.33A2.36,2.36,0,0,1,28,122.1v-2.9" style="fill:none;stroke:#000;stroke-linecap:round;stroke-linejoin:round;stroke-width:2px"/><path d="M100,119.2v2.9a2.36,2.36,0,0,1-2.36,2.36H87a2.36,2.36,0,0,1-2.36-2.36v-2.9" style="fill:none;stroke:#000;stroke-linecap:round;stroke-linejoin:round;stroke-width:2px"/><path d="M69.08,38.26A5.08,5.08,0,1,1,64,33.19,5.08,5.08,0,0,1,69.08,38.26Z" style="fill:none;stroke:#000;stroke-linecap:round;stroke-linejoin:round;stroke-width:2px"/><circle cx="64" cy="38.26" r="17.44" transform="translate(15.93 95.27) rotate(-80.73)" style="fill:none;stroke:#000;stroke-linecap:round;stroke-linejoin:round;stroke-width:2px"/><circle cx="64" cy="38.26" r="12.81" transform="translate(13.62 93.24) rotate(-78.37)" style="fill:none;stroke:#000;stroke-linecap:round;stroke-linejoin:round;stroke-width:2px"/><line x1="73.06" y1="47.32" x2="70.44" y2="44.71" style="fill:none;stroke:#000;stroke-linecap:round;stroke-linejoin:round;stroke-width:2px"/><line x1="57.56" y1="31.82" x2="54.94" y2="29.21" style="fill:none;stroke:#000;stroke-linecap:round;stroke-linejoin:round;stroke-width:2px"/><line x1="54.94" y1="47.32" x2="57.56" y2="44.71" style="fill:none;stroke:#000;stroke-linecap:round;stroke-linejoin:round;stroke-width:2px"/><line x1="70.44" y1="31.82" x2="73.06" y2="29.21" style="fill:none;stroke:#000;stroke-linecap:round;stroke-linejoin:round;stroke-width:2px"/><line x1="64" y1="51.07" x2="64" y2="47.38" style="fill:none;stroke:#000;stroke-linecap:round;stroke-linejoin:round;stroke-width:2px"/><line x1="64" y1="29.15" x2="64" y2="25.46" style="fill:none;stroke:#000;stroke-linecap:round;stroke-linejoin:round;stroke-width:2px"/><line x1="51.19" y1="38.26" x2="54.89" y2="38.26" style="fill:none;stroke:#000;stroke-linecap:round;stroke-linejoin:round;stroke-width:2px"/><line x1="73.11" y1="38.26" x2="76.81" y2="38.26" style="fill:none;stroke:#000;stroke-linecap:round;stroke-linejoin:round;stroke-width:2px"/><path d="M57.32,93A9.71,9.71,0,0,0,71,93" style="fill:none;stroke:#000;stroke-linecap:round;stroke-linejoin:round;stroke-width:2px"/><path d="M61.6,76.79a9.7,9.7,0,0,0-7.15,9.35,9.56,9.56,0,0,0,.33,2.47" style="fill:none;stroke:#000;stroke-linecap:round;stroke-linejoin:round;stroke-width:2px"/><path d="M73.52,88.61a9.56,9.56,0,0,0,.33-2.47,9.7,9.7,0,0,0-7.15-9.35" style="fill:none;stroke:#000;stroke-linecap:round;stroke-linejoin:round;stroke-width:2px"/><path d="M66.14,90.24l14,8.08a2.55,2.55,0,0,0,2.55-4.42l-14-8.08" style="fill:none;stroke:#000;stroke-linecap:round;stroke-linejoin:round;stroke-width:2px"/><path d="M59.61,85.82l-14,8.08a2.55,2.55,0,1,0,2.55,4.42l14-8.08" style="fill:none;stroke:#000;stroke-linecap:round;stroke-linejoin:round;stroke-width:2px"/><path d="M66.7,82.35V66.07a2.55,2.55,0,0,0-5.1,0V82.35" style="fill:none;stroke:#000;stroke-linecap:round;stroke-linejoin:round;stroke-width:2px"/><path d="M68.72,86.14a4.58,4.58,0,1,1-4.57-4.57A4.58,4.58,0,0,1,68.72,86.14Z" style="fill:none;stroke:#000;stroke-linecap:round;stroke-linejoin:round;stroke-width:2px"/><polyline points="100.92 19.95 100.92 13.72 27.08 13.72 27.08 28.77" style="fill:none;stroke:#000;stroke-linecap:round;stroke-linejoin:round;stroke-width:2px"/><line x1="100.92" y1="30.51" x2="100.92" y2="27.3" style="fill:none;stroke:#000;stroke-linecap:round;stroke-linejoin:round;stroke-width:2px"/><polyline points="27.08 93.97 27.08 109.03 100.92 109.03 100.92 37.84" style="fill:none;stroke:#000;stroke-linecap:round;stroke-linejoin:round;stroke-width:2px"/><line x1="27.08" y1="43.81" x2="27.08" y2="78.93" style="fill:none;stroke:#000;stroke-linecap:round;stroke-linejoin:round;stroke-width:2px"/><rect x="18.05" y="3.54" width="91.89" height="115.66" rx="5.8" ry="5.8" style="fill:none;stroke:#000;stroke-linecap:round;stroke-linejoin:round;stroke-width:2px"/><rect x="22.47" y="28.77" width="9.53" height="15.04" style="fill:none;stroke:#000;stroke-linecap:round;stroke-linejoin:round;stroke-width:2px"/><rect x="22.47" y="78.93" width="9.53" height="15.04" style="fill:none;stroke:#000;stroke-linecap:round;stroke-linejoin:round;stroke-width:2px"/></svg>