<svg id="Layer_1" data-name="Layer 1" xmlns="http://www.w3.org/2000/svg" viewBox="0 0 128 128"><title>iStar_Design_Business_LineIcons_Live-14</title><polyline points="85.98 28.2 105.22 30.67 107.37 34.55 91.16 37.56" style="fill:none;stroke:#000;stroke-linecap:round;stroke-linejoin:round;stroke-width:2px"/><polyline points="80.4 31.29 72.27 48.9 74.41 52.78 85.58 40.65" style="fill:none;stroke:#000;stroke-linecap:round;stroke-linejoin:round;stroke-width:2px"/><path d="M98.73,46.28l-4.34-1.47A2.6,2.6,0,0,1,93.3,43a7.25,7.25,0,0,0-.86-2.68L82.85,22.93a7.45,7.45,0,0,0-5.5-3.75,7.45,7.45,0,0,0,.25,6.66l9.59,17.34A7.46,7.46,0,0,0,89,45.33a2.56,2.56,0,0,1,1,1.91l-1.06,4.45,1.38.56,3.45-3.38,4.7-1.13Z" style="fill:none;stroke:#000;stroke-linecap:round;stroke-linejoin:round;stroke-width:2px"/><ellipse cx="37.59" cy="64.32" rx="9.81" ry="17.43" style="fill:none;stroke:#000;stroke-linecap:round;stroke-linejoin:round;stroke-width:2px"/><circle cx="37.59" cy="64.32" r="17.43" style="fill:none;stroke:#000;stroke-linecap:round;stroke-linejoin:round;stroke-width:2px"/><line x1="21.2" y1="58.82" x2="53.97" y2="58.82" style="fill:none;stroke:#000;stroke-linecap:round;stroke-linejoin:round;stroke-width:2px"/><line x1="21.2" y1="69.82" x2="53.97" y2="69.82" style="fill:none;stroke:#000;stroke-linecap:round;stroke-linejoin:round;stroke-width:2px"/><line x1="37.59" y1="46.89" x2="37.59" y2="81.75" style="fill:none;stroke:#000;stroke-linecap:round;stroke-linejoin:round;stroke-width:2px"/><line x1="22.75" y1="94.47" x2="52.42" y2="94.47" style="fill:none;stroke:#000;stroke-linecap:round;stroke-linejoin:round;stroke-width:2px"/><line x1="28.9" y1="100.47" x2="46.27" y2="100.47" style="fill:none;stroke:#000;stroke-linecap:round;stroke-linejoin:round;stroke-width:2px"/><line x1="91.84" y1="92.33" x2="88.3" y2="91.32" style="fill:none;stroke:#000;stroke-linecap:round;stroke-linejoin:round;stroke-width:2px"/><line x1="73.89" y1="87.21" x2="70.35" y2="86.2" style="fill:none;stroke:#000;stroke-linecap:round;stroke-linejoin:round;stroke-width:2px"/><line x1="82.7" y1="89.73" x2="79.16" y2="88.71" style="fill:none;stroke:#000;stroke-linecap:round;stroke-linejoin:round;stroke-width:2px"/><rect x="80.24" y="98.64" width="6.5" height="12" transform="translate(31.94 -18.91) rotate(15.94)" style="fill:none;stroke:#000;stroke-linecap:round;stroke-linejoin:round;stroke-width:2px"/><rect x="85.13" y="63.48" width="10.74" height="17.79" transform="translate(23.36 -22.07) rotate(15.94)" style="fill:none;stroke:#000;stroke-linecap:round;stroke-linejoin:round;stroke-width:2px"/><line x1="76.41" y1="77.85" x2="81.42" y2="60.3" style="fill:none;stroke:#000;stroke-linecap:round;stroke-linejoin:round;stroke-width:2px"/><line x1="71.6" y1="76.47" x2="76.61" y2="58.93" style="fill:none;stroke:#000;stroke-linecap:round;stroke-linejoin:round;stroke-width:2px"/><rect x="11.79" y="33.23" width="51.6" height="80.19" style="fill:none;stroke:#000;stroke-linecap:round;stroke-linejoin:round;stroke-width:2px"/><path d="M63.39,107.33A6.42,6.42,0,0,1,73.71,114l0,.11,14.92,4.26,6-20.91a4.75,4.75,0,0,1,2.55-8.93l19.09-66.85-14.92-4.26s0,.07,0,.11A6.43,6.43,0,0,1,88.9,14s0-.08,0-.11L74,9.63,63.39,46.85" style="fill:none;stroke:#000;stroke-linecap:round;stroke-linejoin:round;stroke-width:2px"/></svg>