<svg id="Layer_1" data-name="Layer 1" xmlns="http://www.w3.org/2000/svg" viewBox="0 0 128 128"><title>iStar_Design_Business_LineIcons_Live-9</title><rect x="16.79" y="45.35" width="38.56" height="75.14" rx="4" ry="4" style="fill:none;stroke:#000;stroke-linecap:round;stroke-linejoin:round;stroke-width:2px"/><path d="M77.19,109.56a2.49,2.49,0,1,1-2.49-2.49A2.49,2.49,0,0,1,77.19,109.56Z" style="fill:none;stroke:#000;stroke-linecap:round;stroke-linejoin:round;stroke-width:2px"/><circle cx="36.76" cy="114.19" r="2.49" style="fill:none;stroke:#000;stroke-linecap:round;stroke-linejoin:round;stroke-width:2px"/><line x1="21.29" y1="54.04" x2="50.7" y2="54.04" style="fill:none;stroke:#000;stroke-linecap:round;stroke-linejoin:round;stroke-width:2px"/><line x1="50.7" y1="108.58" x2="21.29" y2="108.58" style="fill:none;stroke:#000;stroke-linecap:round;stroke-linejoin:round;stroke-width:2px"/><line x1="28.18" y1="49.43" x2="30.88" y2="49.43" style="fill:none;stroke:#000;stroke-linecap:round;stroke-linejoin:round;stroke-width:2px"/><line x1="34.27" y1="49.43" x2="46.14" y2="49.43" style="fill:none;stroke:#000;stroke-linecap:round;stroke-linejoin:round;stroke-width:2px"/><line x1="13.83" y1="55.16" x2="13.83" y2="60.29" style="fill:none;stroke:#000;stroke-linecap:round;stroke-linejoin:round;stroke-width:2px"/><line x1="13.83" y1="63.91" x2="13.83" y2="72.06" style="fill:none;stroke:#000;stroke-linecap:round;stroke-linejoin:round;stroke-width:2px"/><path d="M35,40V11.21A3.72,3.72,0,0,1,38.71,7.5h71.75a3.72,3.72,0,0,1,3.71,3.71V113.09a3.72,3.72,0,0,1-3.71,3.7H58.7" style="fill:none;stroke:#000;stroke-linecap:round;stroke-linejoin:round;stroke-width:2px"/><polyline points="42.55 39.98 42.55 16.85 106.85 16.85 106.85 71.58" style="fill:none;stroke:#000;stroke-linecap:round;stroke-linejoin:round;stroke-width:2px"/><polyline points="106.82 86.84 106.82 102.07 56.28 102.07" style="fill:none;stroke:#000;stroke-linecap:round;stroke-linejoin:round;stroke-width:2px"/><line x1="100.47" y1="24.1" x2="68.84" y2="65.45" style="fill:none;stroke:#000;stroke-linecap:round;stroke-linejoin:round;stroke-width:2px"/><line x1="78.66" y1="62.91" x2="88.85" y2="49.66" style="fill:none;stroke:#000;stroke-linecap:round;stroke-linejoin:round;stroke-width:2px"/><line x1="92.09" y1="45.4" x2="96.72" y2="39.55" style="fill:none;stroke:#000;stroke-linecap:round;stroke-linejoin:round;stroke-width:2px"/><line x1="46.4" y1="64.84" x2="24.69" y2="93.21" style="fill:none;stroke:#000;stroke-linecap:round;stroke-linejoin:round;stroke-width:2px"/><line x1="31.44" y1="91.47" x2="38.43" y2="82.37" style="fill:none;stroke:#000;stroke-linecap:round;stroke-linejoin:round;stroke-width:2px"/><line x1="40.65" y1="79.45" x2="43.83" y2="75.44" style="fill:none;stroke:#000;stroke-linecap:round;stroke-linejoin:round;stroke-width:2px"/><line x1="69.62" y1="12.37" x2="79.55" y2="12.37" style="fill:none;stroke:#000;stroke-linecap:round;stroke-linejoin:round;stroke-width:2px"/><line x1="61.28" y1="93.2" x2="72.16" y2="78.64" style="fill:none;stroke:#000;stroke-linecap:round;stroke-linejoin:round;stroke-width:2px"/></svg>