<svg id="Layer_1" data-name="Layer 1" xmlns="http://www.w3.org/2000/svg" viewBox="0 0 128 128"><title>iStar_Design_Business_LineIcons_Live-2</title><circle cx="74.47" cy="87.43" r="6.37" style="fill:none;stroke:#000;stroke-linecap:round;stroke-linejoin:round;stroke-width:2px"/><polyline points="27.54 22.09 31.66 17.97 35.77 22.09" style="fill:none;stroke:#000;stroke-linecap:round;stroke-linejoin:round;stroke-width:2px"/><line x1="37.41" y1="17.97" x2="41.53" y2="22.09" style="fill:none;stroke:#000;stroke-linecap:round;stroke-linejoin:round;stroke-width:2px"/><line x1="27.22" y1="94.35" x2="38.58" y2="94.35" style="fill:none;stroke:#000;stroke-linecap:round;stroke-linejoin:round;stroke-width:2px"/><line x1="27.22" y1="99.7" x2="38.58" y2="99.7" style="fill:none;stroke:#000;stroke-linecap:round;stroke-linejoin:round;stroke-width:2px"/><line x1="27.22" y1="36.45" x2="38.58" y2="36.45" style="fill:none;stroke:#000;stroke-linecap:round;stroke-linejoin:round;stroke-width:2px"/><line x1="27.22" y1="46.2" x2="84.97" y2="46.2" style="fill:none;stroke:#000;stroke-linecap:round;stroke-linejoin:round;stroke-width:2px"/><line x1="27.22" y1="54.2" x2="84.97" y2="54.2" style="fill:none;stroke:#000;stroke-linecap:round;stroke-linejoin:round;stroke-width:2px"/><line x1="27.22" y1="62.2" x2="84.97" y2="62.2" style="fill:none;stroke:#000;stroke-linecap:round;stroke-linejoin:round;stroke-width:2px"/><polygon points="79.36 24.75 95.99 24.75 79.36 8.11 79.36 24.75" style="fill:none;stroke:#000;stroke-linecap:round;stroke-linejoin:round;stroke-width:2px"/><polyline points="85.82 113.11 95.99 113.11 95.99 24.75" style="fill:none;stroke:#000;stroke-linecap:round;stroke-linejoin:round;stroke-width:2px"/><polyline points="79.36 8.11 17.11 8.11 17.11 113.11 64.19 113.11" style="fill:none;stroke:#000;stroke-linecap:round;stroke-linejoin:round;stroke-width:2px"/><polyline points="56.36 119.11 11.11 119.11 11.11 14.11" style="fill:none;stroke:#000;stroke-linecap:round;stroke-linejoin:round;stroke-width:2px"/><polyline points="79.6 107.69 79.6 119.89 72.06 115.84 64.53 119.89 64.53 103.8" style="fill:none;stroke:#000;stroke-linecap:round;stroke-linejoin:round;stroke-width:2px"/><line x1="84.8" y1="103.48" x2="84.8" y2="117.94" style="fill:none;stroke:#000;stroke-linecap:round;stroke-linejoin:round;stroke-width:2px"/><path d="M72.19,102.69h0a3.24,3.24,0,0,1-5.51-2h0a3.25,3.25,0,0,0-3.5-2.94h0a3.24,3.24,0,0,1-2.94-5.08h0a3.24,3.24,0,0,0-.79-4.5h0a3.24,3.24,0,0,1,1-5.78h0a3.23,3.23,0,0,0,2.28-3.95h0a3.24,3.24,0,0,1,4.5-3.77h0a3.24,3.24,0,0,0,4.29-1.57h0a3.25,3.25,0,0,1,5.87,0h0a3.24,3.24,0,0,0,4.29,1.57h0a3.24,3.24,0,0,1,4.5,3.77h0a3.23,3.23,0,0,0,2.28,3.95h0a3.24,3.24,0,0,1,1,5.78h0a3.24,3.24,0,0,0-.79,4.5h0a3.24,3.24,0,0,1-2.94,5.08h0a3.25,3.25,0,0,0-3.5,2.94h0a3.24,3.24,0,0,1-5.51,2h0A3.24,3.24,0,0,0,72.19,102.69Z" style="fill:none;stroke:#000;stroke-linecap:round;stroke-linejoin:round;stroke-width:2px"/><line x1="108.47" y1="28.01" x2="108.47" y2="24.14" style="fill:none;stroke:#000;stroke-linecap:round;stroke-linejoin:round;stroke-width:2px"/><path d="M111.89,104.85l-3.42,5-3.43-5V31.44A3.42,3.42,0,0,1,108.47,28h0a3.42,3.42,0,0,1,3.42,3.43Z" style="fill:none;stroke:#000;stroke-linecap:round;stroke-linejoin:round;stroke-width:2px"/><line x1="111.89" y1="35.51" x2="105.04" y2="35.51" style="fill:none;stroke:#000;stroke-linecap:round;stroke-linejoin:round;stroke-width:2px"/><path d="M105,40h8.18a3.67,3.67,0,0,1,3.67,3.67v19.9a7.42,7.42,0,0,0,1.91,5" style="fill:none;stroke:#000;stroke-linecap:round;stroke-linejoin:round;stroke-width:2px"/><line x1="111.89" y1="100.84" x2="105.04" y2="100.84" style="fill:none;stroke:#000;stroke-linecap:round;stroke-linejoin:round;stroke-width:2px"/></svg>