<svg id="Layer_1" data-name="Layer 1" xmlns="http://www.w3.org/2000/svg" viewBox="0 0 128 128"><title>iStar_Design_Business_LineIcons_Live-53</title><path d="M57.06,52a4.29,4.29,0,0,0-6.25,0" style="fill:none;stroke:#000;stroke-linecap:round;stroke-linejoin:round;stroke-width:2px"/><path d="M76.08,52a4.29,4.29,0,0,0-6.25,0" style="fill:none;stroke:#000;stroke-linecap:round;stroke-linejoin:round;stroke-width:2px"/><path d="M39.72,33.88a23.95,23.95,0,0,1,47.44,0" style="fill:none;stroke:#000;stroke-linecap:round;stroke-linejoin:round;stroke-width:2px"/><path d="M35,32.73a28.42,28.42,0,1,1,56.84,0" style="fill:none;stroke:#000;stroke-linecap:round;stroke-linejoin:round;stroke-width:2px"/><path d="M54.2,29.05c1.73,10.74,17.31,15.38,32,14.55" style="fill:none;stroke:#000;stroke-linecap:round;stroke-linejoin:round;stroke-width:2px"/><path d="M54.2,29.05c0,8-5.79,12.78-13.47,14.55" style="fill:none;stroke:#000;stroke-linecap:round;stroke-linejoin:round;stroke-width:2px"/><polyline points="62.07 70.64 35.06 66.78 34.75 59.06" style="fill:none;stroke:#000;stroke-linecap:round;stroke-linejoin:round;stroke-width:2px"/><polyline points="63.73 94.75 73.99 106.31 87.78 91.29 81.86 81.15" style="fill:none;stroke:#000;stroke-linecap:round;stroke-linejoin:round;stroke-width:2px"/><path d="M39.81,90.88,22.63,101.52a14.49,14.49,0,0,0-6.86,12.32v9.85" style="fill:none;stroke:#000;stroke-linecap:round;stroke-linejoin:round;stroke-width:2px"/><path d="M87.59,90.88,105.37,102a14.5,14.5,0,0,1,6.86,12.32v9.36" style="fill:none;stroke:#000;stroke-linecap:round;stroke-linejoin:round;stroke-width:2px"/><line x1="63.74" y1="116.41" x2="63.74" y2="123.69" style="fill:none;stroke:#000;stroke-linecap:round;stroke-linejoin:round;stroke-width:2px"/><line x1="63.74" y1="109.1" x2="63.74" y2="110.61" style="fill:none;stroke:#000;stroke-linecap:round;stroke-linejoin:round;stroke-width:2px"/><path d="M87.56,58l0,.2C86.21,68.18,80.65,78.5,71,82.47c-9.33,3.82-19.26-.23-25.16-8" style="fill:none;stroke:#000;stroke-linecap:round;stroke-linejoin:round;stroke-width:2px"/><polyline points="63.73 94.75 53.48 106.31 39.69 91.29 45.61 81.15" style="fill:none;stroke:#000;stroke-linecap:round;stroke-linejoin:round;stroke-width:2px"/><line x1="81.86" y1="81.15" x2="63.74" y2="94.76" style="fill:none;stroke:#000;stroke-linecap:round;stroke-linejoin:round;stroke-width:2px"/><line x1="45.61" y1="81.15" x2="63.74" y2="94.76" style="fill:none;stroke:#000;stroke-linecap:round;stroke-linejoin:round;stroke-width:2px"/><rect x="27.95" y="32.73" width="12.59" height="26.33" rx="5.79" ry="5.79" style="fill:none;stroke:#000;stroke-linecap:round;stroke-linejoin:round;stroke-width:2px"/><rect x="86.26" y="32.73" width="12.68" height="26.33" rx="5.83" ry="5.83" style="fill:none;stroke:#000;stroke-linecap:round;stroke-linejoin:round;stroke-width:2px"/><line x1="78.07" y1="77.85" x2="78.07" y2="83.91" style="fill:none;stroke:#000;stroke-linecap:round;stroke-linejoin:round;stroke-width:2px"/><line x1="49.93" y1="78.77" x2="49.93" y2="84.39" style="fill:none;stroke:#000;stroke-linecap:round;stroke-linejoin:round;stroke-width:2px"/></svg>