<svg id="Layer_1" data-name="Layer 1" xmlns="http://www.w3.org/2000/svg" viewBox="0 0 128 128"><title>iStar_Design_Business_LineIcons_Live-93</title><polyline points="30.62 74.2 37.95 74.2 37.95 107.2 30.62 107.2" style="fill:none;stroke:#000;stroke-linecap:round;stroke-linejoin:round;stroke-width:2px"/><path d="M90.94,91.71,108.16,87a4.12,4.12,0,0,1,5,2.67h0a4.11,4.11,0,0,1-2.06,5L77.6,111.39a14,14,0,0,1-11.71.37L47.33,103.9H37.94" style="fill:none;stroke:#000;stroke-linecap:round;stroke-linejoin:round;stroke-width:2px"/><path d="M37.94,77.5h9.39l19.79,6.13H78.71a4.91,4.91,0,0,1,4.91,4.91h0a4.52,4.52,0,0,1-4.52,4.52h-12a4.71,4.71,0,0,0-4.72,4.71h0" style="fill:none;stroke:#000;stroke-linecap:round;stroke-linejoin:round;stroke-width:2px"/><path d="M70.84,70.5a6.11,6.11,0,1,0,4.93-9.72H75.7a4.73,4.73,0,1,1,3.82-7.52" style="fill:none;stroke:#000;stroke-linecap:round;stroke-linejoin:round;stroke-width:2px"/><line x1="75.7" y1="51.32" x2="75.7" y2="48.69" style="fill:none;stroke:#000;stroke-linecap:round;stroke-linejoin:round;stroke-width:2px"/><line x1="75.7" y1="75.63" x2="75.7" y2="73.01" style="fill:none;stroke:#000;stroke-linecap:round;stroke-linejoin:round;stroke-width:2px"/><polygon points="63.41 11.73 89.32 11.73 84.07 24.1 68.66 24.1 63.41 11.73" style="fill:none;stroke:#000;stroke-linecap:round;stroke-linejoin:round;stroke-width:2px"/><path d="M100.69,89.05a12.64,12.64,0,0,0,1.85-6.59V56.56a26.28,26.28,0,0,0-18.5-25H68.69a26.28,26.28,0,0,0-18.51,25V78.39" style="fill:none;stroke:#000;stroke-linecap:round;stroke-linejoin:round;stroke-width:2px"/><line x1="68.67" y1="31.54" x2="68.67" y2="24.29" style="fill:none;stroke:#000;stroke-linecap:round;stroke-linejoin:round;stroke-width:2px"/><line x1="84.06" y1="24.29" x2="84.06" y2="31.54" style="fill:none;stroke:#000;stroke-linecap:round;stroke-linejoin:round;stroke-width:2px"/><line x1="78.92" y1="23.77" x2="81.08" y2="18.2" style="fill:none;stroke:#000;stroke-linecap:round;stroke-linejoin:round;stroke-width:2px"/><line x1="73.81" y1="23.77" x2="71.64" y2="18.2" style="fill:none;stroke:#000;stroke-linecap:round;stroke-linejoin:round;stroke-width:2px"/><line x1="87.82" y1="63.37" x2="89.34" y2="63.37" style="fill:none;stroke:#000;stroke-linecap:round;stroke-linejoin:round;stroke-width:2px"/><line x1="63.38" y1="63.37" x2="64.9" y2="63.37" style="fill:none;stroke:#000;stroke-linecap:round;stroke-linejoin:round;stroke-width:2px"/><polyline points="14.65 71.38 30.62 71.38 30.62 116.27 14.65 116.27" style="fill:none;stroke:#000;stroke-linecap:round;stroke-linejoin:round;stroke-width:2px"/></svg>