<svg id="Layer_1" data-name="Layer 1" xmlns="http://www.w3.org/2000/svg" viewBox="0 0 128 128"><title>iStar_Design_Business_LineIcons_Live-1</title><line x1="77.46" y1="49.44" x2="77.46" y2="47.38" style="fill:none;stroke:#000;stroke-linecap:round;stroke-linejoin:round;stroke-width:2px"/><line x1="77.46" y1="41.8" x2="77.46" y2="41.8" style="fill:none;stroke:#000;stroke-linecap:round;stroke-linejoin:round;stroke-width:2px"/><line x1="103.79" y1="30.89" x2="110.47" y2="28.12" style="fill:none;stroke:#000;stroke-linecap:round;stroke-linejoin:round;stroke-width:2px"/><line x1="51.12" y1="30.89" x2="44.44" y2="28.12" style="fill:none;stroke:#000;stroke-linecap:round;stroke-linejoin:round;stroke-width:2px"/><line x1="103.79" y1="52.7" x2="110.47" y2="55.47" style="fill:none;stroke:#000;stroke-linecap:round;stroke-linejoin:round;stroke-width:2px"/><line x1="51.12" y1="52.7" x2="44.44" y2="55.47" style="fill:none;stroke:#000;stroke-linecap:round;stroke-linejoin:round;stroke-width:2px"/><line x1="88.36" y1="15.46" x2="91.13" y2="8.79" style="fill:none;stroke:#000;stroke-linecap:round;stroke-linejoin:round;stroke-width:2px"/><line x1="63.78" y1="8.79" x2="66.55" y2="15.46" style="fill:none;stroke:#000;stroke-linecap:round;stroke-linejoin:round;stroke-width:2px"/><line x1="52.19" y1="16.53" x2="57.3" y2="21.64" style="fill:none;stroke:#000;stroke-linecap:round;stroke-linejoin:round;stroke-width:2px"/><line x1="102.72" y1="16.53" x2="97.61" y2="21.64" style="fill:none;stroke:#000;stroke-linecap:round;stroke-linejoin:round;stroke-width:2px"/><line x1="52.19" y1="67.06" x2="57.3" y2="61.95" style="fill:none;stroke:#000;stroke-linecap:round;stroke-linejoin:round;stroke-width:2px"/><line x1="102.72" y1="67.06" x2="97.61" y2="61.95" style="fill:none;stroke:#000;stroke-linecap:round;stroke-linejoin:round;stroke-width:2px"/><line x1="77.46" y1="6.07" x2="77.46" y2="13.29" style="fill:none;stroke:#000;stroke-linecap:round;stroke-linejoin:round;stroke-width:2px"/><line x1="105.96" y1="41.8" x2="113.19" y2="41.8" style="fill:none;stroke:#000;stroke-linecap:round;stroke-linejoin:round;stroke-width:2px"/><line x1="41.72" y1="41.8" x2="48.95" y2="41.8" style="fill:none;stroke:#000;stroke-linecap:round;stroke-linejoin:round;stroke-width:2px"/><polyline points="14.81 83.16 35.2 83.16 35.2 116.25 14.81 116.25" style="fill:none;stroke:#000;stroke-linecap:round;stroke-linejoin:round;stroke-width:2px"/><path d="M88.34,100.72,105.6,96a4.13,4.13,0,0,1,5,2.67h0a4.12,4.12,0,0,1-2.07,5L75,120.45a14,14,0,0,1-11.75.37L44.61,113H35.2" style="fill:none;stroke:#000;stroke-linecap:round;stroke-linejoin:round;stroke-width:2px"/><path d="M35.2,86.47h9.41l19.84,6.15H76.08A4.92,4.92,0,0,1,81,97.54h0a4.53,4.53,0,0,1-4.53,4.53h-12a4.72,4.72,0,0,0-4.72,4.73h0" style="fill:none;stroke:#000;stroke-linecap:round;stroke-linejoin:round;stroke-width:2px"/><path d="M88.09,66.62v-7.8a20.1,20.1,0,1,0-21.27,0v7.8" style="fill:none;stroke:#000;stroke-linecap:round;stroke-linejoin:round;stroke-width:2px"/><line x1="77.46" y1="55.76" x2="77.46" y2="73.71" style="fill:none;stroke:#000;stroke-linecap:round;stroke-linejoin:round;stroke-width:2px"/><line x1="88.09" y1="73.71" x2="66.82" y2="73.71" style="fill:none;stroke:#000;stroke-linecap:round;stroke-linejoin:round;stroke-width:2px"/><line x1="72.43" y1="81.93" x2="82.48" y2="81.93" style="fill:none;stroke:#000;stroke-linecap:round;stroke-linejoin:round;stroke-width:2px"/><line x1="25.84" y1="89.68" x2="25.84" y2="92.78" style="fill:none;stroke:#000;stroke-linecap:round;stroke-linejoin:round;stroke-width:2px"/><path d="M84.67,49.58a10.64,10.64,0,1,0-14.42,0" style="fill:none;stroke:#000;stroke-linecap:round;stroke-linejoin:round;stroke-width:2px"/></svg>