<svg id="Layer_1" data-name="Layer 1" xmlns="http://www.w3.org/2000/svg" viewBox="0 0 128 128"><title>iStar_Design_Business_LineIcons_Live-44</title><rect x="34.35" y="50.39" width="89.16" height="60" rx="6.24" ry="6.24" style="fill:none;stroke:#000;stroke-linecap:round;stroke-linejoin:round;stroke-width:2px"/><line x1="85.11" y1="29.89" x2="87.15" y2="37.25" style="fill:none;stroke:#000;stroke-linecap:round;stroke-linejoin:round;stroke-width:2px"/><line x1="30.25" y1="39.66" x2="35.46" y2="38.22" style="fill:none;stroke:#000;stroke-linecap:round;stroke-linejoin:round;stroke-width:2px"/><path d="M15.24,56.29l-2.16-7.82a3.91,3.91,0,0,1,2.72-4.81l8.26-2.29" style="fill:none;stroke:#000;stroke-linecap:round;stroke-linejoin:round;stroke-width:2px"/><line x1="123.51" y1="65.62" x2="34.35" y2="65.62" style="fill:none;stroke:#000;stroke-linecap:round;stroke-linejoin:round;stroke-width:2px"/><line x1="123.51" y1="80.39" x2="34.35" y2="80.39" style="fill:none;stroke:#000;stroke-linecap:round;stroke-linejoin:round;stroke-width:2px"/><line x1="55.91" y1="91.5" x2="46.35" y2="91.5" style="fill:none;stroke:#000;stroke-linecap:round;stroke-linejoin:round;stroke-width:2px"/><line x1="65.92" y1="98.19" x2="46.35" y2="98.19" style="fill:none;stroke:#000;stroke-linecap:round;stroke-linejoin:round;stroke-width:2px"/><path d="M98.45,50.39l-7.8-28.2A6.24,6.24,0,0,0,83,17.84L9.06,38.29A6.24,6.24,0,0,0,4.71,46L17.39,91.77a6.24,6.24,0,0,0,7.67,4.35l9.29-2.57" style="fill:none;stroke:#000;stroke-linecap:round;stroke-linejoin:round;stroke-width:2px"/><rect x="94.68" y="89.83" width="18.48" height="8.36" style="fill:none;stroke:#000;stroke-linecap:round;stroke-linejoin:round;stroke-width:2px"/></svg>