<svg id="Layer_1" data-name="Layer 1" xmlns="http://www.w3.org/2000/svg" viewBox="0 0 128 128"><title>iStar_Design_Business_LineIcons_Live-45</title><line x1="29.07" y1="96.71" x2="73.85" y2="96.71" style="fill:none;stroke:#000;stroke-linecap:round;stroke-linejoin:round;stroke-width:2px"/><line x1="31.46" y1="96.71" x2="31.46" y2="76.08" style="fill:none;stroke:#000;stroke-linecap:round;stroke-linejoin:round;stroke-width:2px"/><line x1="44.79" y1="96.71" x2="44.79" y2="76.08" style="fill:none;stroke:#000;stroke-linecap:round;stroke-linejoin:round;stroke-width:2px"/><line x1="51.46" y1="96.71" x2="51.46" y2="83.08" style="fill:none;stroke:#000;stroke-linecap:round;stroke-linejoin:round;stroke-width:2px"/><line x1="51.46" y1="77.8" x2="51.46" y2="75.61" style="fill:none;stroke:#000;stroke-linecap:round;stroke-linejoin:round;stroke-width:2px"/><line x1="64.8" y1="96.71" x2="64.8" y2="81.24" style="fill:none;stroke:#000;stroke-linecap:round;stroke-linejoin:round;stroke-width:2px"/><line x1="58.13" y1="96.71" x2="58.13" y2="69.1" style="fill:none;stroke:#000;stroke-linecap:round;stroke-linejoin:round;stroke-width:2px"/><line x1="71.46" y1="96.71" x2="71.46" y2="72.1" style="fill:none;stroke:#000;stroke-linecap:round;stroke-linejoin:round;stroke-width:2px"/><line x1="38.12" y1="96.71" x2="38.12" y2="70.47" style="fill:none;stroke:#000;stroke-linecap:round;stroke-linejoin:round;stroke-width:2px"/><line x1="45.03" y1="43.24" x2="72.89" y2="43.24" style="fill:none;stroke:#000;stroke-linecap:round;stroke-linejoin:round;stroke-width:2px"/><line x1="45.03" y1="50.1" x2="72.89" y2="50.1" style="fill:none;stroke:#000;stroke-linecap:round;stroke-linejoin:round;stroke-width:2px"/><line x1="30.03" y1="56.95" x2="58.96" y2="56.95" style="fill:none;stroke:#000;stroke-linecap:round;stroke-linejoin:round;stroke-width:2px"/><rect x="30.11" y="42.46" width="8.34" height="8.34" style="fill:none;stroke:#000;stroke-linecap:round;stroke-linejoin:round;stroke-width:2px"/><polyline points="42.71 23.23 42.71 10.9 116.17 10.9" style="fill:none;stroke:#000;stroke-linecap:round;stroke-linejoin:round;stroke-width:2px"/><line x1="104.65" y1="98.67" x2="87.08" y2="98.67" style="fill:none;stroke:#000;stroke-linecap:round;stroke-linejoin:round;stroke-width:2px"/><path d="M74.58,110.39v-6.68h-68v6.68a6.72,6.72,0,0,0,6.72,6.71h68A6.72,6.72,0,0,1,74.58,110.39Z" style="fill:none;stroke:#000;stroke-linecap:round;stroke-linejoin:round;stroke-width:2px"/><path d="M81,117.1a5.34,5.34,0,0,0,5.34-5.35V33.18a6,6,0,0,1,6-6h0a6,6,0,0,1,6,6V92.41a6.27,6.27,0,0,0,6.27,6.26h0a6.26,6.26,0,0,0,6.26-6.26V16.15a5.25,5.25,0,0,1,5.25-5.25h0a5.25,5.25,0,0,1,5.26,5.25v8.06H110.91" style="fill:none;stroke:#000;stroke-linecap:round;stroke-linejoin:round;stroke-width:2px"/><path d="M91.93,27.15H27.15a9,9,0,0,0-9,9v67.54" style="fill:none;stroke:#000;stroke-linecap:round;stroke-linejoin:round;stroke-width:2px"/></svg>