<svg id="Layer_1" data-name="Layer 1" xmlns="http://www.w3.org/2000/svg" viewBox="0 0 128 128"><title>iStar_Design_Business_LineIcons_Live-28</title><line x1="111.15" y1="78.17" x2="111.15" y2="87.35" style="fill:none;stroke:#000;stroke-linecap:round;stroke-linejoin:round;stroke-width:2px"/><path d="M16.51,87.35V36.49a4.34,4.34,0,0,1,4.33-4.33h86a4.34,4.34,0,0,1,4.32,4.33v9.64" style="fill:none;stroke:#000;stroke-linecap:round;stroke-linejoin:round;stroke-width:2px"/><line x1="104.66" y1="78.17" x2="104.66" y2="87.63" style="fill:none;stroke:#000;stroke-linecap:round;stroke-linejoin:round;stroke-width:2px"/><polyline points="23 87.63 23 39.29 104.66 39.29 104.66 46.13" style="fill:none;stroke:#000;stroke-linecap:round;stroke-linejoin:round;stroke-width:2px"/><path d="M77.27,87.68v2.41H50.39V87.68H3.47s6.62,8.16,12.41,8.16h95.86c5.42,0,11.07-8.16,11.07-8.16Z" style="fill:none;stroke:#000;stroke-linecap:round;stroke-linejoin:round;stroke-width:2px"/><line x1="33.21" y1="55.6" x2="59.41" y2="55.6" style="fill:none;stroke:#000;stroke-linecap:round;stroke-linejoin:round;stroke-width:2px"/><line x1="33.21" y1="62.45" x2="59.41" y2="62.45" style="fill:none;stroke:#000;stroke-linecap:round;stroke-linejoin:round;stroke-width:2px"/><line x1="33.21" y1="69.31" x2="44.5" y2="69.31" style="fill:none;stroke:#000;stroke-linecap:round;stroke-linejoin:round;stroke-width:2px"/><rect x="76.91" y="46.13" width="47.61" height="32.04" rx="3.33" ry="3.33" style="fill:none;stroke:#000;stroke-linecap:round;stroke-linejoin:round;stroke-width:2px"/><line x1="124.53" y1="53.52" x2="76.91" y2="53.52" style="fill:none;stroke:#000;stroke-linecap:round;stroke-linejoin:round;stroke-width:2px"/><line x1="124.53" y1="61.41" x2="76.91" y2="61.41" style="fill:none;stroke:#000;stroke-linecap:round;stroke-linejoin:round;stroke-width:2px"/><line x1="88.43" y1="67.19" x2="83.32" y2="67.19" style="fill:none;stroke:#000;stroke-linecap:round;stroke-linejoin:round;stroke-width:2px"/><line x1="93.77" y1="72.42" x2="83.32" y2="72.42" style="fill:none;stroke:#000;stroke-linecap:round;stroke-linejoin:round;stroke-width:2px"/><rect x="109.13" y="67.19" width="9.16" height="5.23" style="fill:none;stroke:#000;stroke-linecap:round;stroke-linejoin:round;stroke-width:2px"/></svg>