<svg id="Layer_1" data-name="Layer 1" xmlns="http://www.w3.org/2000/svg" viewBox="0 0 128 128"><title>iStar_Design_Business_LineIcons_Live-10</title><path d="M108.67,97.25a58.39,58.39,0,0,1-6.94,8.42" style="fill:none;stroke:#000;stroke-linecap:round;stroke-linejoin:round;stroke-width:2px"/><path d="M45.47,10.76A57.52,57.52,0,0,1,52,9.28" style="fill:none;stroke:#000;stroke-linecap:round;stroke-linejoin:round;stroke-width:2px"/><path d="M20.19,26.17A57.34,57.34,0,0,1,33,16.08" style="fill:none;stroke:#000;stroke-linecap:round;stroke-linejoin:round;stroke-width:2px"/><path d="M12.27,36.68c.82-1.41,1.71-2.78,2.65-4.1" style="fill:none;stroke:#000;stroke-linecap:round;stroke-linejoin:round;stroke-width:2px"/><path d="M61.42,122.39a56.63,56.63,0,0,1-27.14-6.88" style="fill:none;stroke:#000;stroke-linecap:round;stroke-linejoin:round;stroke-width:2px"/><path d="M86.38,116.64a57.25,57.25,0,0,1-5.82,2.45" style="fill:none;stroke:#000;stroke-linecap:round;stroke-linejoin:round;stroke-width:2px"/><line x1="48.65" y1="50.9" x2="80.71" y2="50.9" style="fill:none;stroke:#000;stroke-linecap:round;stroke-linejoin:round;stroke-width:2px"/><line x1="18.09" y1="50.9" x2="41.33" y2="50.9" style="fill:none;stroke:#000;stroke-linecap:round;stroke-linejoin:round;stroke-width:2px"/><line x1="18.09" y1="79.99" x2="78.94" y2="79.99" style="fill:none;stroke:#000;stroke-linecap:round;stroke-linejoin:round;stroke-width:2px"/><line x1="94.16" y1="79.99" x2="104.76" y2="79.99" style="fill:none;stroke:#000;stroke-linecap:round;stroke-linejoin:round;stroke-width:2px"/><line x1="61.42" y1="19.35" x2="61.42" y2="111.53" style="fill:none;stroke:#000;stroke-linecap:round;stroke-linejoin:round;stroke-width:2px"/><circle cx="95.05" cy="26.38" r="9.65" style="fill:none;stroke:#000;stroke-linecap:round;stroke-linejoin:round;stroke-width:2px"/><path d="M95.05,5.61A20.71,20.71,0,0,0,74.37,26.29c0,6.09,7.23,19.69,19,36a2.13,2.13,0,0,0,3.4,0c11.76-16.15,19-29.75,19-36A20.8,20.8,0,0,0,95.05,5.61Z" style="fill:none;stroke:#000;stroke-linecap:round;stroke-linejoin:round;stroke-width:2px"/><path d="M75,21.39a46.07,46.07,0,1,0,30,28.89" style="fill:none;stroke:#000;stroke-linecap:round;stroke-linejoin:round;stroke-width:2px"/><path d="M74.41,25.55A23.83,23.83,0,0,0,70.15,22a16.18,16.18,0,0,0-8.73-2.68C47.1,19.35,35.49,40,35.49,65.44s11.61,46.09,25.93,46.09S87.36,90.9,87.36,65.44a79.36,79.36,0,0,0-1.15-13.6" style="fill:none;stroke:#000;stroke-linecap:round;stroke-linejoin:round;stroke-width:2px"/></svg>