<svg id="Layer_1" data-name="Layer 1" xmlns="http://www.w3.org/2000/svg" viewBox="0 0 128 128"><title>iStar_Design_Business_LineIcons_Live-31</title><path d="M74.35,28.05a33.64,33.64,0,1,1-5.15-6.62" style="fill:none;stroke:#000;stroke-linecap:round;stroke-linejoin:round;stroke-width:2px"/><path d="M45.43,86.7A41.29,41.29,0,0,1,20,78" style="fill:none;stroke:#000;stroke-linecap:round;stroke-linejoin:round;stroke-width:2px;stroke-dasharray:6"/><path d="M20,78A41.49,41.49,0,1,1,45.43,86.7" style="fill:none;stroke:#000;stroke-linecap:round;stroke-linejoin:round;stroke-width:2px"/><path d="M121.47,121.7h0a8.88,8.88,0,0,1-12.55,0L80.56,93.34,93.11,80.79l28.36,28.36A8.88,8.88,0,0,1,121.47,121.7Z" style="fill:none;stroke:#000;stroke-linecap:round;stroke-linejoin:round;stroke-width:2px"/><line x1="100.12" y1="111.83" x2="102.99" y2="108.96" style="fill:none;stroke:#000;stroke-linecap:round;stroke-linejoin:round;stroke-width:2px"/><line x1="94.35" y1="106.06" x2="100.09" y2="100.32" style="fill:none;stroke:#000;stroke-linecap:round;stroke-linejoin:round;stroke-width:2px"/><line x1="83.55" y1="90.35" x2="71.26" y2="78.06" style="fill:none;stroke:#000;stroke-linecap:round;stroke-linejoin:round;stroke-width:2px"/><line x1="82" y1="75.65" x2="90.12" y2="83.78" style="fill:none;stroke:#000;stroke-linecap:round;stroke-linejoin:round;stroke-width:2px"/><path d="M118.49,118.26s1.68-2.11.06-6.05" style="fill:none;stroke:#000;stroke-linecap:round;stroke-linejoin:round;stroke-width:2px"/><path d="M54.81,38.88c0,6.92-4.38,12.53-9.78,12.53s-9.78-6.26-9.78-12.53" style="fill:none;stroke:#000;stroke-linecap:round;stroke-linejoin:round;stroke-width:2px"/><path d="M56,33.91c1.45,0,2,1.38,2,3.23s-1.17,3.35-2.62,3.35" style="fill:none;stroke:#000;stroke-linecap:round;stroke-linejoin:round;stroke-width:2px"/><path d="M35,40.38c-1.42,0-2.58-1.47-2.58-3.29s.59-3.29,2-3.29" style="fill:none;stroke:#000;stroke-linecap:round;stroke-linejoin:round;stroke-width:2px"/><line x1="38.45" y1="53.04" x2="38.45" y2="48.04" style="fill:none;stroke:#000;stroke-linecap:round;stroke-linejoin:round;stroke-width:2px"/><line x1="52.34" y1="47.45" x2="52.34" y2="53.04" style="fill:none;stroke:#000;stroke-linecap:round;stroke-linejoin:round;stroke-width:2px"/><path d="M52.38,53A138.69,138.69,0,0,0,66.3,57.93c3.1.8,4.76,4,5.68,7.38" style="fill:none;stroke:#000;stroke-linecap:round;stroke-linejoin:round;stroke-width:2px"/><path d="M38.45,53a138.26,138.26,0,0,1-13.93,4.89c-3.09.8-4.76,4-5.67,7.38" style="fill:none;stroke:#000;stroke-linecap:round;stroke-linejoin:round;stroke-width:2px"/><path d="M35.25,31.79s-2.39-8.62-.43-10.57a4.84,4.84,0,0,1,4-1.58S39.19,17.5,43,17.5c3.34,0,7.86.07,11.42,3.72a4.47,4.47,0,0,1,1.19,3.6l-.78,7s-1.17-7.15-16-7.15Z" style="fill:none;stroke:#000;stroke-linecap:round;stroke-linejoin:round;stroke-width:2px"/><path d="M53.75,53.73a8.32,8.32,0,0,1-16.64,0" style="fill:none;stroke:#000;stroke-linecap:round;stroke-linejoin:round;stroke-width:2px"/><line x1="54.81" y1="31.79" x2="54.81" y2="34.73" style="fill:none;stroke:#000;stroke-linecap:round;stroke-linejoin:round;stroke-width:2px"/><line x1="35.25" y1="31.79" x2="35.25" y2="34.73" style="fill:none;stroke:#000;stroke-linecap:round;stroke-linejoin:round;stroke-width:2px"/></svg>