<svg id="Layer_1" data-name="Layer 1" xmlns="http://www.w3.org/2000/svg" viewBox="0 0 128 128"><title>iStar_Design_Business_LineIcons_Live-27</title><rect x="82.36" y="29.92" width="7.6" height="7.6" style="fill:none;stroke:#000;stroke-linecap:round;stroke-linejoin:round;stroke-width:2px"/><line x1="96.39" y1="30.92" x2="108.89" y2="30.92" style="fill:none;stroke:#000;stroke-linecap:round;stroke-linejoin:round;stroke-width:2px"/><line x1="96.39" y1="36.51" x2="108.89" y2="36.51" style="fill:none;stroke:#000;stroke-linecap:round;stroke-linejoin:round;stroke-width:2px"/><rect x="82.36" y="49.61" width="7.6" height="7.6" style="fill:none;stroke:#000;stroke-linecap:round;stroke-linejoin:round;stroke-width:2px"/><line x1="96.39" y1="50.61" x2="108.89" y2="50.61" style="fill:none;stroke:#000;stroke-linecap:round;stroke-linejoin:round;stroke-width:2px"/><line x1="96.39" y1="56.2" x2="108.89" y2="56.2" style="fill:none;stroke:#000;stroke-linecap:round;stroke-linejoin:round;stroke-width:2px"/><rect x="82.36" y="69.3" width="7.6" height="7.6" style="fill:none;stroke:#000;stroke-linecap:round;stroke-linejoin:round;stroke-width:2px"/><line x1="96.39" y1="70.3" x2="108.89" y2="70.3" style="fill:none;stroke:#000;stroke-linecap:round;stroke-linejoin:round;stroke-width:2px"/><line x1="96.39" y1="75.89" x2="108.89" y2="75.89" style="fill:none;stroke:#000;stroke-linecap:round;stroke-linejoin:round;stroke-width:2px"/><path d="M43.43,55.83h0V33.16h0A22.68,22.68,0,1,0,66.1,55.83Z" style="fill:none;stroke:#000;stroke-linecap:round;stroke-linejoin:round;stroke-width:2px"/><path d="M48.38,28.2V50.88H71.06A22.79,22.79,0,0,0,48.38,28.2Z" style="fill:none;stroke:#000;stroke-linecap:round;stroke-linejoin:round;stroke-width:2px"/><line x1="43.43" y1="55.83" x2="43.43" y2="78.51" style="fill:none;stroke:#000;stroke-linecap:round;stroke-linejoin:round;stroke-width:2px"/><path d="M120.65,16.53H7.35a2.13,2.13,0,0,1-2.13-2.14h0a2.13,2.13,0,0,1,2.13-2.13h113.3a2.13,2.13,0,0,1,2.13,2.13h0A2.13,2.13,0,0,1,120.65,16.53Z" style="fill:none;stroke:#000;stroke-linecap:round;stroke-linejoin:round;stroke-width:2px"/><path d="M120.65,94.54H7.35a2.13,2.13,0,0,1-2.13-2.13h0a2.13,2.13,0,0,1,2.13-2.13h113.3a2.13,2.13,0,0,1,2.13,2.13h0A2.13,2.13,0,0,1,120.65,94.54Z" style="fill:none;stroke:#000;stroke-linecap:round;stroke-linejoin:round;stroke-width:2px"/><line x1="10.66" y1="90.28" x2="10.66" y2="16.53" style="fill:none;stroke:#000;stroke-linecap:round;stroke-linejoin:round;stroke-width:2px"/><line x1="118.66" y1="16.53" x2="118.66" y2="90.28" style="fill:none;stroke:#000;stroke-linecap:round;stroke-linejoin:round;stroke-width:2px"/><line x1="68.2" y1="8.17" x2="61.12" y2="8.17" style="fill:none;stroke:#000;stroke-linecap:round;stroke-linejoin:round;stroke-width:2px"/><polyline points="61.12 94.54 61.12 119.83 68.2 119.83 68.2 94.54" style="fill:none;stroke:#000;stroke-linecap:round;stroke-linejoin:round;stroke-width:2px"/><polyline points="77.29 94.54 87.29 119.83 94.37 119.83 84.37 94.54" style="fill:none;stroke:#000;stroke-linecap:round;stroke-linejoin:round;stroke-width:2px"/><polyline points="52.04 94.54 42.04 119.83 34.95 119.83 44.95 94.54" style="fill:none;stroke:#000;stroke-linecap:round;stroke-linejoin:round;stroke-width:2px"/><line x1="46.69" y1="108.06" x2="61.12" y2="108.06" style="fill:none;stroke:#000;stroke-linecap:round;stroke-linejoin:round;stroke-width:2px"/><line x1="68.2" y1="108.06" x2="82.63" y2="108.06" style="fill:none;stroke:#000;stroke-linecap:round;stroke-linejoin:round;stroke-width:2px"/><line x1="50.3" y1="55.86" x2="43.43" y2="62.73" style="fill:none;stroke:#000;stroke-linecap:round;stroke-linejoin:round;stroke-width:2px"/><line x1="59.28" y1="55.86" x2="43.43" y2="71.72" style="fill:none;stroke:#000;stroke-linecap:round;stroke-linejoin:round;stroke-width:2px"/><line x1="65.98" y1="58.14" x2="45.73" y2="78.39" style="fill:none;stroke:#000;stroke-linecap:round;stroke-linejoin:round;stroke-width:2px"/></svg>