<svg id="Layer_1" data-name="Layer 1" xmlns="http://www.w3.org/2000/svg" viewBox="0 0 128 128"><title>iStar_Design_Business_LineIcons_Live-71</title><path d="M89.45,117.05V84.25a8.53,8.53,0,0,0-1.68-2.34" style="fill:none;stroke:#000;stroke-linecap:round;stroke-linejoin:round;stroke-width:2px"/><line x1="111.48" y1="113.9" x2="111.48" y2="99.64" style="fill:none;stroke:#000;stroke-linecap:round;stroke-linejoin:round;stroke-width:2px"/><path d="M66.43,117.05c0,2.1,5.15,3.79,11.51,3.79s11.51-1.69,11.51-3.79" style="fill:none;stroke:#000;stroke-linecap:round;stroke-linejoin:round;stroke-width:2px"/><path d="M66.43,111.44c0,2.09,5.15,3.79,11.51,3.79s11.51-1.7,11.51-3.79" style="fill:none;stroke:#000;stroke-linecap:round;stroke-linejoin:round;stroke-width:2px"/><path d="M66.43,105.82c0,2.1,5.15,3.79,11.51,3.79s11.51-1.69,11.51-3.79" style="fill:none;stroke:#000;stroke-linecap:round;stroke-linejoin:round;stroke-width:2px"/><path d="M66.43,100.21c0,2.09,5.15,3.79,11.51,3.79s11.51-1.7,11.51-3.79" style="fill:none;stroke:#000;stroke-linecap:round;stroke-linejoin:round;stroke-width:2px"/><path d="M66.43,94.59c0,2.09,5.15,3.79,11.51,3.79s11.51-1.7,11.51-3.79" style="fill:none;stroke:#000;stroke-linecap:round;stroke-linejoin:round;stroke-width:2px"/><path d="M66.43,89c0,2.09,5.15,3.79,11.51,3.79S89.45,91.07,89.45,89" style="fill:none;stroke:#000;stroke-linecap:round;stroke-linejoin:round;stroke-width:2px"/><path d="M70,76.8a13.15,13.15,0,0,0,5.13.85" style="fill:none;stroke:#000;stroke-linecap:round;stroke-linejoin:round;stroke-width:2px"/><path d="M64.75,77.18c0,2.1,5.15,3.79,11.51,3.79s11.51-1.69,11.51-3.79-5.16-3.79-11.51-3.79S64.75,75.09,64.75,77.18Z" style="fill:none;stroke:#000;stroke-linecap:round;stroke-linejoin:round;stroke-width:2px"/><line x1="66.43" y1="85.34" x2="66.43" y2="117.05" style="fill:none;stroke:#000;stroke-linecap:round;stroke-linejoin:round;stroke-width:2px"/><path d="M90.5,91.3c0,2.1,5.16,3.79,11.51,3.79s11.52-1.69,11.52-3.79-5.16-3.79-11.52-3.79S90.5,89.21,90.5,91.3Z" style="fill:none;stroke:#000;stroke-linecap:round;stroke-linejoin:round;stroke-width:2px"/><path d="M64.75,77.18v6.18c0,2.09,5.15,3.79,11.51,3.79s11.51-1.7,11.51-3.79V77.49" style="fill:none;stroke:#000;stroke-linecap:round;stroke-linejoin:round;stroke-width:2px"/><path d="M90.5,91.3v6.18c0,2.09,5.16,3.79,11.51,3.79s11.52-1.7,11.52-3.79V91.3" style="fill:none;stroke:#000;stroke-linecap:round;stroke-linejoin:round;stroke-width:2px"/><path d="M108.36,90.87a9,9,0,0,1-5.44,1" style="fill:none;stroke:#000;stroke-linecap:round;stroke-linejoin:round;stroke-width:2px"/><path d="M111.48,108.28c0,2.09-5.16,3.79-11.51,3.79-4.69,0-8.72-.92-10.52-2.24" style="fill:none;stroke:#000;stroke-linecap:round;stroke-linejoin:round;stroke-width:2px"/><path d="M111.48,113.9c0,2.09-5.16,3.79-11.51,3.79-4.69,0-8.72-.92-10.52-2.25" style="fill:none;stroke:#000;stroke-linecap:round;stroke-linejoin:round;stroke-width:2px"/><path d="M111.48,102.54c0,2.09-5.16,3.79-11.51,3.79-4.69,0-8.72-.92-10.52-2.24" style="fill:none;stroke:#000;stroke-linecap:round;stroke-linejoin:round;stroke-width:2px"/><line x1="104.45" y1="59.78" x2="101.04" y2="61.94" style="fill:none;stroke:#000;stroke-linecap:round;stroke-linejoin:round;stroke-width:2px"/><line x1="100.59" y1="37.76" x2="97.97" y2="40.83" style="fill:none;stroke:#000;stroke-linecap:round;stroke-linejoin:round;stroke-width:2px"/><path d="M65.53,85.34A22.25,22.25,0,1,1,69.28,73" style="fill:none;stroke:#000;stroke-linecap:round;stroke-linejoin:round;stroke-width:2px"/><path d="M42.34,79.89a5.55,5.55,0,1,0,4.48-8.82h-.07a4.3,4.3,0,1,1,3.47-6.83" style="fill:none;stroke:#000;stroke-linecap:round;stroke-linejoin:round;stroke-width:2px"/><line x1="46.75" y1="62.48" x2="46.75" y2="60.1" style="fill:none;stroke:#000;stroke-linecap:round;stroke-linejoin:round;stroke-width:2px"/><line x1="46.75" y1="84.55" x2="46.75" y2="82.16" style="fill:none;stroke:#000;stroke-linecap:round;stroke-linejoin:round;stroke-width:2px"/><path d="M29.83,11.45h0a36.65,36.65,0,0,1,34.41,0h0l-7,14.4H36.8Z" style="fill:none;stroke:#000;stroke-linecap:round;stroke-linejoin:round;stroke-width:2px"/><path d="M81.8,73.86v-9A34.89,34.89,0,0,0,57.23,31.66H36.84A34.91,34.91,0,0,0,12.27,64.89V99.28A17,17,0,0,0,29.19,116.2H64.88c.52,0,1,0,1.54-.07" style="fill:none;stroke:#000;stroke-linecap:round;stroke-linejoin:round;stroke-width:2px"/><line x1="36.82" y1="31.66" x2="36.82" y2="26.09" style="fill:none;stroke:#000;stroke-linecap:round;stroke-linejoin:round;stroke-width:2px"/><line x1="57.26" y1="26.09" x2="57.26" y2="31.66" style="fill:none;stroke:#000;stroke-linecap:round;stroke-linejoin:round;stroke-width:2px"/><line x1="50.42" y1="25.41" x2="53.29" y2="18.01" style="fill:none;stroke:#000;stroke-linecap:round;stroke-linejoin:round;stroke-width:2px"/><line x1="43.63" y1="25.41" x2="40.76" y2="18.01" style="fill:none;stroke:#000;stroke-linecap:round;stroke-linejoin:round;stroke-width:2px"/><line x1="58.46" y1="73.42" x2="59.83" y2="73.42" style="fill:none;stroke:#000;stroke-linecap:round;stroke-linejoin:round;stroke-width:2px"/><line x1="36.27" y1="73.42" x2="37.65" y2="73.42" style="fill:none;stroke:#000;stroke-linecap:round;stroke-linejoin:round;stroke-width:2px"/><polyline points="105.61 51.76 113.84 42.13 94.21 25.35 76.34 46.25" style="fill:none;stroke:#000;stroke-linecap:round;stroke-linejoin:round;stroke-width:2px"/><path d="M102.76,47.48l2.07-2.43a3.06,3.06,0,0,1-.27-3.89l-7.94-6.8a3,3,0,0,1-3.89.34L78.86,50.93" style="fill:none;stroke:#000;stroke-linecap:round;stroke-linejoin:round;stroke-width:2px"/><path d="M87.94,79.69,106.36,68a3.07,3.07,0,0,1,.89-3.8l-5.61-8.83a3.05,3.05,0,0,1-3.81-.81l-16,10.16" style="fill:none;stroke:#000;stroke-linecap:round;stroke-linejoin:round;stroke-width:2px"/><polyline points="81.32 59.16 101.89 46.11 115.73 67.91 89.84 84.34" style="fill:none;stroke:#000;stroke-linecap:round;stroke-linejoin:round;stroke-width:2px"/><polyline points="72.61 41.4 83.12 28.5 87.77 32.76" style="fill:none;stroke:#000;stroke-linecap:round;stroke-linejoin:round;stroke-width:2px"/></svg>