<svg id="Layer_1" data-name="Layer 1" xmlns="http://www.w3.org/2000/svg" viewBox="0 0 128 128"><title>iStar_Design_Business_LineIcons_Live-84</title><line x1="64" y1="31.14" x2="64" y2="29.82" style="fill:none;stroke:#000;stroke-linecap:round;stroke-linejoin:round;stroke-width:2px"/><line x1="64" y1="26.26" x2="64" y2="26.26" style="fill:none;stroke:#000;stroke-linecap:round;stroke-linejoin:round;stroke-width:2px"/><line x1="80.83" y1="19.28" x2="85.1" y2="17.52" style="fill:none;stroke:#000;stroke-linecap:round;stroke-linejoin:round;stroke-width:2px"/><line x1="47.17" y1="19.28" x2="42.9" y2="17.52" style="fill:none;stroke:#000;stroke-linecap:round;stroke-linejoin:round;stroke-width:2px"/><line x1="80.83" y1="33.23" x2="85.1" y2="35" style="fill:none;stroke:#000;stroke-linecap:round;stroke-linejoin:round;stroke-width:2px"/><line x1="47.17" y1="33.23" x2="42.9" y2="35" style="fill:none;stroke:#000;stroke-linecap:round;stroke-linejoin:round;stroke-width:2px"/><line x1="70.97" y1="9.42" x2="72.74" y2="5.16" style="fill:none;stroke:#000;stroke-linecap:round;stroke-linejoin:round;stroke-width:2px"/><line x1="55.26" y1="5.16" x2="57.03" y2="9.42" style="fill:none;stroke:#000;stroke-linecap:round;stroke-linejoin:round;stroke-width:2px"/><line x1="47.85" y1="10.11" x2="51.12" y2="13.37" style="fill:none;stroke:#000;stroke-linecap:round;stroke-linejoin:round;stroke-width:2px"/><line x1="80.15" y1="10.11" x2="76.88" y2="13.37" style="fill:none;stroke:#000;stroke-linecap:round;stroke-linejoin:round;stroke-width:2px"/><line x1="47.85" y1="42.41" x2="51.12" y2="39.14" style="fill:none;stroke:#000;stroke-linecap:round;stroke-linejoin:round;stroke-width:2px"/><line x1="80.15" y1="42.41" x2="76.88" y2="39.14" style="fill:none;stroke:#000;stroke-linecap:round;stroke-linejoin:round;stroke-width:2px"/><line x1="64" y1="3.42" x2="64" y2="8.04" style="fill:none;stroke:#000;stroke-linecap:round;stroke-linejoin:round;stroke-width:2px"/><line x1="82.22" y1="26.26" x2="86.84" y2="26.26" style="fill:none;stroke:#000;stroke-linecap:round;stroke-linejoin:round;stroke-width:2px"/><line x1="41.16" y1="26.26" x2="45.78" y2="26.26" style="fill:none;stroke:#000;stroke-linecap:round;stroke-linejoin:round;stroke-width:2px"/><path d="M70.8,42.12v-5a12.84,12.84,0,1,0-13.6,0v5" style="fill:none;stroke:#000;stroke-linecap:round;stroke-linejoin:round;stroke-width:2px"/><line x1="64" y1="35.18" x2="64" y2="46.66" style="fill:none;stroke:#000;stroke-linecap:round;stroke-linejoin:round;stroke-width:2px"/><line x1="70.8" y1="46.66" x2="57.2" y2="46.66" style="fill:none;stroke:#000;stroke-linecap:round;stroke-linejoin:round;stroke-width:2px"/><line x1="60.79" y1="51.91" x2="67.21" y2="51.91" style="fill:none;stroke:#000;stroke-linecap:round;stroke-linejoin:round;stroke-width:2px"/><path d="M68.61,31.23a6.8,6.8,0,1,0-9.22,0" style="fill:none;stroke:#000;stroke-linecap:round;stroke-linejoin:round;stroke-width:2px"/><polyline points="101.08 75.62 101.08 124.58 27.63 124.58 27.63 75.62" style="fill:none;stroke:#000;stroke-linecap:round;stroke-linejoin:round;stroke-width:2px"/><path d="M43.92,75.63V97.44l2.31-1.88a2.17,2.17,0,0,1,2.74,0l.74.59a2.17,2.17,0,0,0,3-.21h0a2.17,2.17,0,0,1,3-.21l2.1,1.71V75.63" style="fill:none;stroke:#000;stroke-linecap:round;stroke-linejoin:round;stroke-width:2px"/><line x1="57.93" y1="114.56" x2="43.66" y2="114.56" style="fill:none;stroke:#000;stroke-linecap:round;stroke-linejoin:round;stroke-width:2px"/><line x1="57.93" y1="109.89" x2="53.33" y2="109.89" style="fill:none;stroke:#000;stroke-linecap:round;stroke-linejoin:round;stroke-width:2px"/><line x1="49.64" y1="109.89" x2="43.66" y2="109.89" style="fill:none;stroke:#000;stroke-linecap:round;stroke-linejoin:round;stroke-width:2px"/><line x1="47.37" y1="75.63" x2="47.37" y2="88.34" style="fill:none;stroke:#000;stroke-linecap:round;stroke-linejoin:round;stroke-width:2px"/><line x1="75.88" y1="75.62" x2="75.88" y2="108.36" style="fill:none;stroke:#000;stroke-linecap:round;stroke-linejoin:round;stroke-width:2px"/><line x1="75.88" y1="115.08" x2="75.88" y2="124.58" style="fill:none;stroke:#000;stroke-linecap:round;stroke-linejoin:round;stroke-width:2px"/><polyline points="68.55 75.62 27.64 75.62 19.24 57.69 67.43 57.69 75.84 75.62 90.83 75.62" style="fill:none;stroke:#000;stroke-linecap:round;stroke-linejoin:round;stroke-width:2px"/><line x1="82.5" y1="61.1" x2="69.05" y2="61.1" style="fill:none;stroke:#000;stroke-linecap:round;stroke-linejoin:round;stroke-width:2px"/><line x1="85.85" y1="119.88" x2="100.79" y2="119.88" style="fill:none;stroke:#000;stroke-linecap:round;stroke-linejoin:round;stroke-width:2px"/><line x1="64.28" y1="62.27" x2="27.92" y2="62.27" style="fill:none;stroke:#000;stroke-linecap:round;stroke-linejoin:round;stroke-width:2px"/><line x1="107.34" y1="62.27" x2="87.41" y2="62.27" style="fill:none;stroke:#000;stroke-linecap:round;stroke-linejoin:round;stroke-width:2px"/><path d="M95,75.62h6l8.38-17.94H84.26L75.88,75.62" style="fill:none;stroke:#000;stroke-linecap:round;stroke-linejoin:round;stroke-width:2px"/><path d="M23.3,37.74a32.21,32.21,0,0,0-4.7-.34" style="fill:none;stroke:#000;stroke-linecap:round;stroke-linejoin:round;stroke-width:2px"/><path d="M39.62,52.75a17.93,17.93,0,0,0-9.11-12.67" style="fill:none;stroke:#000;stroke-linecap:round;stroke-linejoin:round;stroke-width:2px"/><path d="M99.2,47.88a9.73,9.73,0,0,1,7.38-3.1" style="fill:none;stroke:#000;stroke-linecap:round;stroke-linejoin:round;stroke-width:2px"/><path d="M95.83,57.26a16.78,16.78,0,0,1,.36-2.91" style="fill:none;stroke:#000;stroke-linecap:round;stroke-linejoin:round;stroke-width:2px"/></svg>