<svg id="Layer_1" data-name="Layer 1" xmlns="http://www.w3.org/2000/svg" viewBox="0 0 128 128"><title>iStar_Design_Business_LineIcons_Live-37</title><path d="M87.19,5H17.13a5.77,5.77,0,0,0-5.75,5.76v19a5.77,5.77,0,0,0,5.75,5.76h4.8v9.37l14.73-9.37H87.19a5.77,5.77,0,0,0,5.75-5.76v-19A5.77,5.77,0,0,0,87.19,5Z" style="fill:none;stroke:#000;stroke-linecap:round;stroke-linejoin:round;stroke-width:2px"/><line x1="77.25" y1="16.1" x2="27.07" y2="16.1" style="fill:none;stroke:#000;stroke-linecap:round;stroke-linejoin:round;stroke-width:2px"/><line x1="77.25" y1="24.29" x2="27.07" y2="24.29" style="fill:none;stroke:#000;stroke-linecap:round;stroke-linejoin:round;stroke-width:2px"/><path d="M83.19,83.06H13.13a5.77,5.77,0,0,0-5.75,5.75v19a5.77,5.77,0,0,0,5.75,5.75h4.8V123l14.73-9.38H83.19a5.77,5.77,0,0,0,5.75-5.75v-19A5.77,5.77,0,0,0,83.19,83.06Z" style="fill:none;stroke:#000;stroke-linecap:round;stroke-linejoin:round;stroke-width:2px"/><line x1="73.25" y1="94.12" x2="23.07" y2="94.12" style="fill:none;stroke:#000;stroke-linecap:round;stroke-linejoin:round;stroke-width:2px"/><line x1="30.1" y1="102.31" x2="23.07" y2="102.31" style="fill:none;stroke:#000;stroke-linecap:round;stroke-linejoin:round;stroke-width:2px"/><line x1="46.1" y1="102.31" x2="36.07" y2="102.31" style="fill:none;stroke:#000;stroke-linecap:round;stroke-linejoin:round;stroke-width:2px"/><line x1="55.1" y1="102.31" x2="52.07" y2="102.31" style="fill:none;stroke:#000;stroke-linecap:round;stroke-linejoin:round;stroke-width:2px"/><path d="M44.81,44.05h70.06a5.77,5.77,0,0,1,5.75,5.75v19a5.76,5.76,0,0,1-5.75,5.75h-4.8V84L95.34,74.57H44.81a5.76,5.76,0,0,1-5.75-5.75v-19A5.77,5.77,0,0,1,44.81,44.05Z" style="fill:none;stroke:#000;stroke-linecap:round;stroke-linejoin:round;stroke-width:2px"/><line x1="54.75" y1="55.11" x2="104.93" y2="55.11" style="fill:none;stroke:#000;stroke-linecap:round;stroke-linejoin:round;stroke-width:2px"/><line x1="54.75" y1="63.3" x2="73.97" y2="63.3" style="fill:none;stroke:#000;stroke-linecap:round;stroke-linejoin:round;stroke-width:2px"/><line x1="79.52" y1="63.3" x2="83.73" y2="63.3" style="fill:none;stroke:#000;stroke-linecap:round;stroke-linejoin:round;stroke-width:2px"/></svg>