<svg id="Layer_1" data-name="Layer 1" xmlns="http://www.w3.org/2000/svg" viewBox="0 0 128 128"><title>iStar_Design_Business_LineIcons_Live-81</title><path d="M31.47,45.08a2.82,2.82,0,1,1-2.82-2.82A2.82,2.82,0,0,1,31.47,45.08Z" style="fill:none;stroke:#000;stroke-linecap:round;stroke-linejoin:round;stroke-width:2px"/><path d="M44.81,45.08A2.82,2.82,0,1,1,42,42.26,2.82,2.82,0,0,1,44.81,45.08Z" style="fill:none;stroke:#000;stroke-linecap:round;stroke-linejoin:round;stroke-width:2px"/><path d="M58.15,45.08a2.82,2.82,0,1,1-2.82-2.82A2.82,2.82,0,0,1,58.15,45.08Z" style="fill:none;stroke:#000;stroke-linecap:round;stroke-linejoin:round;stroke-width:2px"/><circle cx="99.35" cy="82.92" r="2.82" style="fill:none;stroke:#000;stroke-linecap:round;stroke-linejoin:round;stroke-width:2px"/><circle cx="86.01" cy="82.92" r="2.82" style="fill:none;stroke:#000;stroke-linecap:round;stroke-linejoin:round;stroke-width:2px"/><circle cx="72.67" cy="82.92" r="2.82" style="fill:none;stroke:#000;stroke-linecap:round;stroke-linejoin:round;stroke-width:2px"/><path d="M110.3,70a26.73,26.73,0,0,1,2,4.51" style="fill:none;stroke:#000;stroke-linecap:round;stroke-linejoin:round;stroke-width:2px"/><path d="M81,56.12a27.52,27.52,0,0,1,25.68,8.73" style="fill:none;stroke:#000;stroke-linecap:round;stroke-linejoin:round;stroke-width:2px"/><path d="M79.56,48.45a34.66,34.66,0,0,1,34.61,54.28L119.31,118,103,112.74A34.68,34.68,0,1,1,79.56,48.45Z" style="fill:none;stroke:#000;stroke-linecap:round;stroke-linejoin:round;stroke-width:2px"/><path d="M76.36,49.22A34.67,34.67,0,1,0,13.83,64.89L8.69,80.16,25,74.9A34.66,34.66,0,0,0,51.63,78" style="fill:none;stroke:#000;stroke-linecap:round;stroke-linejoin:round;stroke-width:2px"/></svg>