<svg id="Layer_1" data-name="Layer 1" xmlns="http://www.w3.org/2000/svg" viewBox="0 0 128 128"><title>iStar_Design_Business_LineIcons_Live-15</title><polyline points="28.61 75.08 11.58 75.08 11.58 22.69 116.42 22.69 116.42 75.08 98.32 75.08" style="fill:none;stroke:#000;stroke-linecap:round;stroke-linejoin:round;stroke-width:2px"/><line x1="69.99" y1="75.08" x2="56.95" y2="75.08" style="fill:none;stroke:#000;stroke-linecap:round;stroke-linejoin:round;stroke-width:2px"/><line x1="56.55" y1="67.65" x2="69.99" y2="67.65" style="fill:none;stroke:#000;stroke-linecap:round;stroke-linejoin:round;stroke-width:2px"/><line x1="27.82" y1="49.18" x2="20.98" y2="49.18" style="fill:none;stroke:#000;stroke-linecap:round;stroke-linejoin:round;stroke-width:2px"/><circle cx="37.95" cy="49.18" r="2.98" style="fill:none;stroke:#000;stroke-linecap:round;stroke-linejoin:round;stroke-width:2px"/><path d="M16.69,66.71a3,3,0,1,1,3,3A3,3,0,0,1,16.69,66.71Z" style="fill:none;stroke:#000;stroke-linecap:round;stroke-linejoin:round;stroke-width:2px"/><path d="M105.69,66.71a3,3,0,1,1,3,3A3,3,0,0,1,105.69,66.71Z" style="fill:none;stroke:#000;stroke-linecap:round;stroke-linejoin:round;stroke-width:2px"/><path d="M16.69,30.71a3,3,0,1,1,3,3A3,3,0,0,1,16.69,30.71Z" style="fill:none;stroke:#000;stroke-linecap:round;stroke-linejoin:round;stroke-width:2px"/><path d="M105.69,30.71a3,3,0,1,1,3,3A3,3,0,0,1,105.69,30.71Z" style="fill:none;stroke:#000;stroke-linecap:round;stroke-linejoin:round;stroke-width:2px"/><path d="M67.61,62.19a8.45,8.45,0,0,1-4.8,1.54c-6,0-10.87-6.72-10.87-15s4.87-15,10.87-15c5.45,0,10,5.54,10.75,12.78a20.6,20.6,0,0,1,.12,2.24" style="fill:none;stroke:#000;stroke-linecap:round;stroke-linejoin:round;stroke-width:2px"/><circle cx="62.87" cy="44.78" r="4.53" style="fill:none;stroke:#000;stroke-linecap:round;stroke-linejoin:round;stroke-width:2px"/><path d="M56.11,60.54c0-5.92,3-11.06,6.69-11.06,2.78,0,5.15,2.7,6.17,6.54" style="fill:none;stroke:#000;stroke-linecap:round;stroke-linejoin:round;stroke-width:2px"/><path d="M59.47,96.76c0,2.57-6.34,4.66-14.17,4.66s-14.16-2.09-14.16-4.66" style="fill:none;stroke:#000;stroke-linecap:round;stroke-linejoin:round;stroke-width:2px"/><path d="M59.47,89.85c0,2.57-6.34,4.66-14.17,4.66s-14.16-2.09-14.16-4.66" style="fill:none;stroke:#000;stroke-linecap:round;stroke-linejoin:round;stroke-width:2px"/><path d="M59.47,82.94c0,2.57-6.34,4.66-14.17,4.66s-14.16-2.09-14.16-4.66" style="fill:none;stroke:#000;stroke-linecap:round;stroke-linejoin:round;stroke-width:2px"/><line x1="59.47" y1="96.76" x2="59.47" y2="75.08" style="fill:none;stroke:#000;stroke-linecap:round;stroke-linejoin:round;stroke-width:2px"/><line x1="31.14" y1="96.76" x2="31.14" y2="79.21" style="fill:none;stroke:#000;stroke-linecap:round;stroke-linejoin:round;stroke-width:2px"/><path d="M98.32,100.64c0,2.58-6.34,4.67-14.16,4.67S70,103.22,70,100.64" style="fill:none;stroke:#000;stroke-linecap:round;stroke-linejoin:round;stroke-width:2px"/><path d="M98.32,93.73c0,2.58-6.34,4.67-14.16,4.67S70,96.31,70,93.73" style="fill:none;stroke:#000;stroke-linecap:round;stroke-linejoin:round;stroke-width:2px"/><path d="M98.32,86.82c0,2.58-6.34,4.67-14.16,4.67S70,89.4,70,86.82" style="fill:none;stroke:#000;stroke-linecap:round;stroke-linejoin:round;stroke-width:2px"/><path d="M98.32,79.91c0,2.58-6.34,4.67-14.16,4.67S70,82.49,70,79.91" style="fill:none;stroke:#000;stroke-linecap:round;stroke-linejoin:round;stroke-width:2px"/><path d="M98.32,73c0,2.58-6.34,4.67-14.16,4.67S70,75.58,70,73" style="fill:none;stroke:#000;stroke-linecap:round;stroke-linejoin:round;stroke-width:2px"/><path d="M98.32,66.09c0,2.58-6.34,4.67-14.16,4.67S70,68.67,70,66.09" style="fill:none;stroke:#000;stroke-linecap:round;stroke-linejoin:round;stroke-width:2px"/><path d="M93.89,51.1a16.07,16.07,0,0,1-6.33,1.06" style="fill:none;stroke:#000;stroke-linecap:round;stroke-linejoin:round;stroke-width:2px"/><ellipse cx="86.23" cy="51.58" rx="14.17" ry="4.66" style="fill:none;stroke:#000;stroke-linecap:round;stroke-linejoin:round;stroke-width:2px"/><line x1="98.32" y1="61.61" x2="98.32" y2="100.64" style="fill:none;stroke:#000;stroke-linecap:round;stroke-linejoin:round;stroke-width:2px"/><path d="M70,100.64V60.27a10.42,10.42,0,0,1,2.07-2.87" style="fill:none;stroke:#000;stroke-linecap:round;stroke-linejoin:round;stroke-width:2px"/><path d="M57,69c0,2.58-6.34,4.67-14.17,4.67S28.62,71.53,28.62,69,35,64.29,42.78,64.29,57,66.38,57,69Z" style="fill:none;stroke:#000;stroke-linecap:round;stroke-linejoin:round;stroke-width:2px"/><path d="M98.32,66.09c0-4.49,4.84-7.3,9.33-7.3l.38,0V38.87l-.38,0a8.14,8.14,0,0,1-8.14-8.14s0,0,0,0H28.25v0a8.12,8.12,0,0,1-7.8,8.12V58.81c4.33.17,7.63,2.8,7.63,6.45" style="fill:none;stroke:#000;stroke-linecap:round;stroke-linejoin:round;stroke-width:2px"/><line x1="79.83" y1="38.69" x2="93.83" y2="38.69" style="fill:none;stroke:#000;stroke-linecap:round;stroke-linejoin:round;stroke-width:2px"/><line x1="46.67" y1="59.69" x2="31.67" y2="59.69" style="fill:none;stroke:#000;stroke-linecap:round;stroke-linejoin:round;stroke-width:2px"/><line x1="46.67" y1="38.69" x2="31.67" y2="38.69" style="fill:none;stroke:#000;stroke-linecap:round;stroke-linejoin:round;stroke-width:2px"/><path d="M100.4,51.58v7.6c0,2.58-6.35,4.66-14.17,4.66s-14.17-2.08-14.17-4.66V52" style="fill:none;stroke:#000;stroke-linecap:round;stroke-linejoin:round;stroke-width:2px"/><path d="M57,69v7.61c0,2.57-6.34,4.66-14.17,4.66s-14.16-2.09-14.16-4.66V69" style="fill:none;stroke:#000;stroke-linecap:round;stroke-linejoin:round;stroke-width:2px"/><path d="M35,68.42a11.09,11.09,0,0,0,6.7,1.27" style="fill:none;stroke:#000;stroke-linecap:round;stroke-linejoin:round;stroke-width:2px"/></svg>