<svg id="Layer_1" data-name="Layer 1" xmlns="http://www.w3.org/2000/svg" viewBox="0 0 128 128"><title>iStar_Design_Business_LineIcons_Live-97</title><line x1="85.72" y1="79.4" x2="61.84" y2="103.28" style="fill:none;stroke:#000;stroke-linecap:round;stroke-linejoin:round;stroke-width:2px"/><circle cx="64.14" cy="83.28" r="6.36" style="fill:none;stroke:#000;stroke-linecap:round;stroke-linejoin:round;stroke-width:2px"/><circle cx="82.51" cy="100.07" r="6.36" style="fill:none;stroke:#000;stroke-linecap:round;stroke-linejoin:round;stroke-width:2px"/><circle cx="73.32" cy="40.83" r="6.88" style="fill:none;stroke:#000;stroke-linecap:round;stroke-linejoin:round;stroke-width:2px"/><line x1="53.7" y1="60.35" x2="55.94" y2="60.35" style="fill:none;stroke:#000;stroke-linecap:round;stroke-linejoin:round;stroke-width:2px"/><line x1="61.1" y1="60.35" x2="63.35" y2="60.35" style="fill:none;stroke:#000;stroke-linecap:round;stroke-linejoin:round;stroke-width:2px"/><line x1="68.5" y1="60.35" x2="70.75" y2="60.35" style="fill:none;stroke:#000;stroke-linecap:round;stroke-linejoin:round;stroke-width:2px"/><line x1="75.9" y1="60.35" x2="78.15" y2="60.35" style="fill:none;stroke:#000;stroke-linecap:round;stroke-linejoin:round;stroke-width:2px"/><line x1="83.3" y1="60.35" x2="85.55" y2="60.35" style="fill:none;stroke:#000;stroke-linecap:round;stroke-linejoin:round;stroke-width:2px"/><line x1="90.71" y1="60.35" x2="92.95" y2="60.35" style="fill:none;stroke:#000;stroke-linecap:round;stroke-linejoin:round;stroke-width:2px"/><path d="M97.38,60.35l3-3V44L86.83,23.47h-27L46.29,44V57.37l3,3-3,3V119.6a4.55,4.55,0,0,0,4.55,4.55h45a4.55,4.55,0,0,0,4.54-4.55V63.33Z" style="fill:none;stroke:#000;stroke-linecap:round;stroke-linejoin:round;stroke-width:2px"/><line x1="46.02" y1="78.81" x2="35.89" y2="74.78" style="fill:none;stroke:#000;stroke-linecap:round;stroke-linejoin:round;stroke-width:2px"/><line x1="46.02" y1="89.29" x2="32.29" y2="83.82" style="fill:none;stroke:#000;stroke-linecap:round;stroke-linejoin:round;stroke-width:2px"/><line x1="42.01" y1="98.17" x2="28.69" y2="92.86" style="fill:none;stroke:#000;stroke-linecap:round;stroke-linejoin:round;stroke-width:2px"/><line x1="40.06" y1="46.53" x2="42.15" y2="47.36" style="fill:none;stroke:#000;stroke-linecap:round;stroke-linejoin:round;stroke-width:2px"/><path d="M91.84,23.47A15.87,15.87,0,0,1,99.35,21c5.65-.47,11.86-2.13,15.08-6.15a11.34,11.34,0,0,0,2.64-6.78c0-4-3.5-6.36-8.37-1.68a21.48,21.48,0,0,0-6.24,14.08c-.68,8.2-6,13.24-14.22,13.48-5.67.16-10.67,1.92-14.41,5.46" style="fill:none;stroke:#000;stroke-linecap:round;stroke-linejoin:round;stroke-width:2px"/><path d="M81.82,23.47,59.4,14.53,39.22,28.63,34.29,41,36,44.89l-3.87,1.67L11.25,98.83a4.55,4.55,0,0,0,2.55,5.91l32.49,13" style="fill:none;stroke:#000;stroke-linecap:round;stroke-linejoin:round;stroke-width:2px"/></svg>