<svg id="Layer_1" data-name="Layer 1" xmlns="http://www.w3.org/2000/svg" viewBox="0 0 128 128"><title>iStar_Design_Business_LineIcons_Live-52</title><rect x="7.95" y="84.08" width="41.85" height="28.6" style="fill:none;stroke:#000;stroke-linecap:round;stroke-linejoin:round;stroke-width:2px"/><polyline points="14.44 84.08 14.44 101.35 16.93 103.27 19.43 101.35 19.43 84.08" style="fill:none;stroke:#000;stroke-linecap:round;stroke-linejoin:round;stroke-width:2px"/><polyline points="38.5 84.08 38.5 101.35 40.99 103.27 43.48 101.35 43.48 84.08" style="fill:none;stroke:#000;stroke-linecap:round;stroke-linejoin:round;stroke-width:2px"/><rect x="25.38" y="92.52" width="7.16" height="6.51" style="fill:none;stroke:#000;stroke-linecap:round;stroke-linejoin:round;stroke-width:2px"/><line x1="13.36" y1="95.75" x2="7.95" y2="95.75" style="fill:none;stroke:#000;stroke-linecap:round;stroke-linejoin:round;stroke-width:2px"/><line x1="49.8" y1="95.75" x2="44.57" y2="95.75" style="fill:none;stroke:#000;stroke-linecap:round;stroke-linejoin:round;stroke-width:2px"/><line x1="37.41" y1="95.75" x2="32.54" y2="95.75" style="fill:none;stroke:#000;stroke-linecap:round;stroke-linejoin:round;stroke-width:2px"/><line x1="25.38" y1="95.75" x2="20.51" y2="95.75" style="fill:none;stroke:#000;stroke-linecap:round;stroke-linejoin:round;stroke-width:2px"/><polyline points="35.06 84.08 35.06 77.84 22.69 77.84 22.69 84.08" style="fill:none;stroke:#000;stroke-linecap:round;stroke-linejoin:round;stroke-width:2px"/><line x1="87.54" y1="36.29" x2="84.37" y2="39.46" style="fill:none;stroke:#000;stroke-linecap:round;stroke-linejoin:round;stroke-width:2px"/><polyline points="87.58 53.18 115.79 24.97 122.1 31.27 122.1 10.2 101.02 10.2 107.33 16.5 90.89 32.95" style="fill:none;stroke:#000;stroke-linecap:round;stroke-linejoin:round;stroke-width:2px"/><line x1="42.54" y1="59.59" x2="40.83" y2="61.29" style="fill:none;stroke:#000;stroke-linecap:round;stroke-linejoin:round;stroke-width:2px"/><polyline points="37.62 47.58 60.58 24.62 54.27 18.31 75.35 18.31 75.35 39.39 69.05 33.08 46.44 55.68" style="fill:none;stroke:#000;stroke-linecap:round;stroke-linejoin:round;stroke-width:2px"/><polyline points="124.4 46.6 108.39 46.6 108.39 64.4 90.49 64.4 90.49 82.2 72.58 82.2 72.58 100 54.68 100 54.68 117.8 3.6 117.8" style="fill:none;stroke:#000;stroke-linecap:round;stroke-linejoin:round;stroke-width:2px"/></svg>