<svg id="Layer_1" data-name="Layer 1" xmlns="http://www.w3.org/2000/svg" viewBox="0 0 128 128"><title>iStar_Design_Business_LineIcons_Live-99</title><polyline points="75.9 54.97 85.55 54.97 85.55 45.32" style="fill:none;stroke:#000;stroke-linecap:round;stroke-linejoin:round;stroke-width:2px"/><polyline points="31.41 45.32 31.41 54.97 41.05 54.97" style="fill:none;stroke:#000;stroke-linecap:round;stroke-linejoin:round;stroke-width:2px"/><polyline points="41.05 4.83 31.41 4.83 31.41 14.47" style="fill:none;stroke:#000;stroke-linecap:round;stroke-linejoin:round;stroke-width:2px"/><polyline points="85.55 14.47 85.55 4.83 75.9 4.83" style="fill:none;stroke:#000;stroke-linecap:round;stroke-linejoin:round;stroke-width:2px"/><path d="M52.93,124.17v-7.34S42,108.93,39.14,97L31.25,71a6.19,6.19,0,0,1,2.8-7.15h0a6.19,6.19,0,0,1,8.49,2.23L52.79,85.92l-.26-55.09A6.42,6.42,0,0,1,59,24.37h0a6.43,6.43,0,0,1,6.43,6.42V71.84" style="fill:none;stroke:#000;stroke-linecap:round;stroke-linejoin:round;stroke-width:2px"/><path d="M75.73,30.19a16.69,16.69,0,0,1-5.86,12.72" style="fill:none;stroke:#000;stroke-linecap:round;stroke-linejoin:round;stroke-width:2px"/><path d="M42.27,30.19a16.73,16.73,0,0,1,31.16-8.47" style="fill:none;stroke:#000;stroke-linecap:round;stroke-linejoin:round;stroke-width:2px"/><path d="M47.17,42a16.69,16.69,0,0,1-4.46-8" style="fill:none;stroke:#000;stroke-linecap:round;stroke-linejoin:round;stroke-width:2px"/><path d="M47.68,30.19a11.32,11.32,0,1,1,22.64,0,11.18,11.18,0,0,1-1,4.63" style="fill:none;stroke:#000;stroke-linecap:round;stroke-linejoin:round;stroke-width:2px"/><path d="M65.37,64.17a5.58,5.58,0,0,1,4.84-2.79h0A5.59,5.59,0,0,1,75.8,67v7.71" style="fill:none;stroke:#000;stroke-linecap:round;stroke-linejoin:round;stroke-width:2px"/><path d="M75.8,69.6A5.69,5.69,0,0,1,81.51,64h0A5.59,5.59,0,0,1,87.1,69.6v8" style="fill:none;stroke:#000;stroke-linecap:round;stroke-linejoin:round;stroke-width:2px"/><path d="M92,124.17v-6.33s6-9.61,6-13.45V73.19a5.59,5.59,0,0,0-5.59-5.59h0a5.59,5.59,0,0,0-5.33,3.92" style="fill:none;stroke:#000;stroke-linecap:round;stroke-linejoin:round;stroke-width:2px"/></svg>