<svg id="Layer_1" data-name="Layer 1" xmlns="http://www.w3.org/2000/svg" viewBox="0 0 128 128"><title>iStar_Design_Business_LineIcons_Live-90</title><polyline points="90.82 9.05 90.82 13.02 50.8 13.02 50.8 9.05" style="fill:none;stroke:#000;stroke-linecap:round;stroke-linejoin:round;stroke-width:2px"/><polygon points="90.82 98.62 109.04 98.62 90.82 116.83 90.82 98.62" style="fill:none;stroke:#000;stroke-linecap:round;stroke-linejoin:round;stroke-width:2px"/><rect x="44.42" y="3.7" width="52.79" height="14.67" style="fill:none;stroke:#000;stroke-linecap:round;stroke-linejoin:round;stroke-width:2px"/><polyline points="32.59 111.79 32.59 116.83 90.82 116.83" style="fill:none;stroke:#000;stroke-linecap:round;stroke-linejoin:round;stroke-width:2px"/><polyline points="44.42 13.12 32.59 13.12 32.59 54.11" style="fill:none;stroke:#000;stroke-linecap:round;stroke-linejoin:round;stroke-width:2px"/><polyline points="109.04 98.62 109.04 13.12 97.21 13.12 97.2 13.12" style="fill:none;stroke:#000;stroke-linecap:round;stroke-linejoin:round;stroke-width:2px"/><polyline points="44.42 8.06 24.97 8.06 24.97 66.21" style="fill:none;stroke:#000;stroke-linecap:round;stroke-linejoin:round;stroke-width:2px"/><polyline points="24.97 109.59 24.97 124.3 116.65 124.3 116.65 8.06 97.21 8.06" style="fill:none;stroke:#000;stroke-linecap:round;stroke-linejoin:round;stroke-width:2px"/><line x1="57.76" y1="78.36" x2="82.07" y2="78.36" style="fill:none;stroke:#000;stroke-linecap:round;stroke-linejoin:round;stroke-width:2px"/><line x1="89.24" y1="78.36" x2="94.48" y2="78.36" style="fill:none;stroke:#000;stroke-linecap:round;stroke-linejoin:round;stroke-width:2px"/><line x1="47.14" y1="45.79" x2="94.48" y2="45.79" style="fill:none;stroke:#000;stroke-linecap:round;stroke-linejoin:round;stroke-width:2px"/><line x1="47.14" y1="56.65" x2="94.48" y2="56.65" style="fill:none;stroke:#000;stroke-linecap:round;stroke-linejoin:round;stroke-width:2px"/><line x1="53.05" y1="67.5" x2="94.48" y2="67.5" style="fill:none;stroke:#000;stroke-linecap:round;stroke-linejoin:round;stroke-width:2px"/><circle cx="35.42" cy="87.9" r="24.07" transform="translate(-51.78 50.79) rotate(-45)" style="fill:none;stroke:#000;stroke-linecap:round;stroke-linejoin:round;stroke-width:2px"/><circle cx="35.42" cy="87.82" r="19.5" transform="translate(-58.19 102.11) rotate(-76.72)" style="fill:none;stroke:#000;stroke-linecap:round;stroke-linejoin:round;stroke-width:2px"/><path d="M36.68,87.82a1.27,1.27,0,1,1-1.26-1.27A1.26,1.26,0,0,1,36.68,87.82Z" style="fill:none;stroke:#000;stroke-linecap:round;stroke-linejoin:round;stroke-width:2px"/><line x1="35.42" y1="87.82" x2="50.36" y2="81.27" style="fill:none;stroke:#000;stroke-linecap:round;stroke-linejoin:round;stroke-width:2px"/><rect x="28.62" y="54.6" width="13.6" height="4.12" rx="2.01" ry="2.01" style="fill:none;stroke:#000;stroke-linecap:round;stroke-linejoin:round;stroke-width:2px"/><line x1="38.3" y1="59.22" x2="38.3" y2="63.38" style="fill:none;stroke:#000;stroke-linecap:round;stroke-linejoin:round;stroke-width:2px"/><line x1="32.53" y1="63.38" x2="32.53" y2="59.22" style="fill:none;stroke:#000;stroke-linecap:round;stroke-linejoin:round;stroke-width:2px"/><polyline points="46.81 66.27 49.09 62.78 53.91 65.94 51.63 69.42" style="fill:none;stroke:#000;stroke-linecap:round;stroke-linejoin:round;stroke-width:2px"/><line x1="21.63" y1="74.03" x2="24.27" y2="76.67" style="fill:none;stroke:#000;stroke-linecap:round;stroke-linejoin:round;stroke-width:2px"/><line x1="46.57" y1="98.97" x2="49.21" y2="101.61" style="fill:none;stroke:#000;stroke-linecap:round;stroke-linejoin:round;stroke-width:2px"/><line x1="49.21" y1="74.03" x2="46.57" y2="76.67" style="fill:none;stroke:#000;stroke-linecap:round;stroke-linejoin:round;stroke-width:2px"/><line x1="24.27" y1="98.97" x2="21.63" y2="101.61" style="fill:none;stroke:#000;stroke-linecap:round;stroke-linejoin:round;stroke-width:2px"/><line x1="35.42" y1="68.32" x2="35.42" y2="72.05" style="fill:none;stroke:#000;stroke-linecap:round;stroke-linejoin:round;stroke-width:2px"/><line x1="35.42" y1="103.59" x2="35.42" y2="107.32" style="fill:none;stroke:#000;stroke-linecap:round;stroke-linejoin:round;stroke-width:2px"/><line x1="54.92" y1="87.82" x2="51.18" y2="87.82" style="fill:none;stroke:#000;stroke-linecap:round;stroke-linejoin:round;stroke-width:2px"/><line x1="19.65" y1="87.82" x2="15.92" y2="87.82" style="fill:none;stroke:#000;stroke-linecap:round;stroke-linejoin:round;stroke-width:2px"/></svg>