<svg id="Layer_1" data-name="Layer 1" xmlns="http://www.w3.org/2000/svg" viewBox="0 0 128 128"><title>iStar_Design_Business_LineIcons_Live-23</title><line x1="11.77" y1="8.12" x2="11.77" y2="115.69" style="fill:none;stroke:#000;stroke-linecap:round;stroke-linejoin:round;stroke-width:2px"/><line x1="11.77" y1="115.69" x2="119.34" y2="115.69" style="fill:none;stroke:#000;stroke-linecap:round;stroke-linejoin:round;stroke-width:2px"/><rect x="24.22" y="81.12" width="7.07" height="24.08" style="fill:none;stroke:#000;stroke-linecap:round;stroke-linejoin:round;stroke-width:2px"/><rect x="39.11" y="70.28" width="7.07" height="34.92" style="fill:none;stroke:#000;stroke-linecap:round;stroke-linejoin:round;stroke-width:2px"/><rect x="83.78" y="70.28" width="7.07" height="34.92" style="fill:none;stroke:#000;stroke-linecap:round;stroke-linejoin:round;stroke-width:2px"/><rect x="68.89" y="58.01" width="7.07" height="47.19" style="fill:none;stroke:#000;stroke-linecap:round;stroke-linejoin:round;stroke-width:2px"/><rect x="98.67" y="43.7" width="7.07" height="61.5" style="fill:none;stroke:#000;stroke-linecap:round;stroke-linejoin:round;stroke-width:2px"/><rect x="54" y="73.57" width="7.07" height="31.63" style="fill:none;stroke:#000;stroke-linecap:round;stroke-linejoin:round;stroke-width:2px"/><polyline points="18.28 73.57 44.41 49.18 54 56.44 73.78 35.52 83.78 43.7 112.57 12.89" style="fill:none;stroke:#000;stroke-linecap:round;stroke-linejoin:round;stroke-width:2px"/><line x1="112.57" y1="22.69" x2="112.57" y2="12.89" style="fill:none;stroke:#000;stroke-linecap:round;stroke-linejoin:round;stroke-width:2px"/><line x1="112.57" y1="12.89" x2="102.78" y2="12.89" style="fill:none;stroke:#000;stroke-linecap:round;stroke-linejoin:round;stroke-width:2px"/><line x1="11.77" y1="17.79" x2="8.66" y2="17.79" style="fill:none;stroke:#000;stroke-linecap:round;stroke-linejoin:round;stroke-width:2px"/><line x1="11.77" y1="42.27" x2="8.66" y2="42.27" style="fill:none;stroke:#000;stroke-linecap:round;stroke-linejoin:round;stroke-width:2px"/><line x1="11.77" y1="66.74" x2="8.66" y2="66.74" style="fill:none;stroke:#000;stroke-linecap:round;stroke-linejoin:round;stroke-width:2px"/><line x1="11.77" y1="91.21" x2="8.66" y2="91.21" style="fill:none;stroke:#000;stroke-linecap:round;stroke-linejoin:round;stroke-width:2px"/><line x1="11.77" y1="115.69" x2="8.66" y2="115.69" style="fill:none;stroke:#000;stroke-linecap:round;stroke-linejoin:round;stroke-width:2px"/><line x1="11.77" y1="116.78" x2="11.77" y2="119.88" style="fill:none;stroke:#000;stroke-linecap:round;stroke-linejoin:round;stroke-width:2px"/><line x1="36.24" y1="116.78" x2="36.24" y2="119.88" style="fill:none;stroke:#000;stroke-linecap:round;stroke-linejoin:round;stroke-width:2px"/><line x1="60.72" y1="116.78" x2="60.72" y2="119.88" style="fill:none;stroke:#000;stroke-linecap:round;stroke-linejoin:round;stroke-width:2px"/><line x1="85.19" y1="116.78" x2="85.19" y2="119.88" style="fill:none;stroke:#000;stroke-linecap:round;stroke-linejoin:round;stroke-width:2px"/><line x1="109.66" y1="116.78" x2="109.66" y2="119.88" style="fill:none;stroke:#000;stroke-linecap:round;stroke-linejoin:round;stroke-width:2px"/></svg>