<svg id="Layer_1" data-name="Layer 1" xmlns="http://www.w3.org/2000/svg" viewBox="0 0 128 128"><title>iStar_Design_Business_LineIcons_Live-35</title><path d="M37.79,48.84A30.16,30.16,0,0,1,63.93,33.76" style="fill:none;stroke:#000;stroke-linecap:round;stroke-linejoin:round;stroke-width:2px"/><path d="M33.76,63.93a30.41,30.41,0,0,1,1-7.56" style="fill:none;stroke:#000;stroke-linecap:round;stroke-linejoin:round;stroke-width:2px"/><path d="M63.93,94.1a30.1,30.1,0,0,1-21.34-8.84" style="fill:none;stroke:#000;stroke-linecap:round;stroke-linejoin:round;stroke-width:2px"/><path d="M94.1,63.93a30,30,0,0,1-2.37,11.74" style="fill:none;stroke:#000;stroke-linecap:round;stroke-linejoin:round;stroke-width:2px"/><path d="M56.65,74.9a8.05,8.05,0,1,0,6.5-12.8h-.1a6.23,6.23,0,1,1,5-9.9" style="fill:none;stroke:#000;stroke-linecap:round;stroke-linejoin:round;stroke-width:2px"/><line x1="63.05" y1="49.64" x2="63.05" y2="46.19" style="fill:none;stroke:#000;stroke-linecap:round;stroke-linejoin:round;stroke-width:2px"/><line x1="63.05" y1="81.66" x2="63.05" y2="78.2" style="fill:none;stroke:#000;stroke-linecap:round;stroke-linejoin:round;stroke-width:2px"/><path d="M27.4,67.71H8.66a55.14,55.14,0,0,0,13.52,32.63L35.43,87.08A36.59,36.59,0,0,1,27.4,67.71Z" style="fill:none;stroke:#000;stroke-linecap:round;stroke-linejoin:round;stroke-width:2px"/><path d="M67.71,8.66V27.4a36.59,36.59,0,0,1,19.37,8l13.26-13.25A55.14,55.14,0,0,0,67.71,8.66Z" style="fill:none;stroke:#000;stroke-linecap:round;stroke-linejoin:round;stroke-width:2px"/><path d="M105.68,27.52,92.42,40.78A36.71,36.71,0,0,1,40.78,92.42L27.52,105.68a55.39,55.39,0,0,0,78.16-78.16Z" style="fill:none;stroke:#000;stroke-linecap:round;stroke-linejoin:round;stroke-width:2px"/><path d="M27.4,60.15A36.75,36.75,0,0,1,60.15,27.4V8.66A55.4,55.4,0,0,0,8.66,60.15Z" style="fill:none;stroke:#000;stroke-linecap:round;stroke-linejoin:round;stroke-width:2px"/><line x1="77.91" y1="10.31" x2="67.71" y2="20.66" style="fill:none;stroke:#000;stroke-linecap:round;stroke-linejoin:round;stroke-width:2px"/><line x1="87.87" y1="13.96" x2="73.51" y2="28.53" style="fill:none;stroke:#000;stroke-linecap:round;stroke-linejoin:round;stroke-width:2px"/><line x1="96.41" y1="19.05" x2="83.06" y2="32.59" style="fill:none;stroke:#000;stroke-linecap:round;stroke-linejoin:round;stroke-width:2px"/><line x1="48.12" y1="117.05" x2="32.14" y2="101.06" style="fill:none;stroke:#000;stroke-linecap:round;stroke-linejoin:round;stroke-width:2px"/><line x1="69.14" y1="119.12" x2="46" y2="95.97" style="fill:none;stroke:#000;stroke-linecap:round;stroke-linejoin:round;stroke-width:2px"/><line x1="84.41" y1="115.43" x2="69.21" y2="100.23" style="fill:none;stroke:#000;stroke-linecap:round;stroke-linejoin:round;stroke-width:2px"/><line x1="96.61" y1="108.68" x2="83.15" y2="95.22" style="fill:none;stroke:#000;stroke-linecap:round;stroke-linejoin:round;stroke-width:2px"/><line x1="106.41" y1="99.51" x2="93.14" y2="86.25" style="fill:none;stroke:#000;stroke-linecap:round;stroke-linejoin:round;stroke-width:2px"/><line x1="113.85" y1="88" x2="99.38" y2="73.53" style="fill:none;stroke:#000;stroke-linecap:round;stroke-linejoin:round;stroke-width:2px"/><line x1="118.48" y1="73.68" x2="99.46" y2="54.66" style="fill:none;stroke:#000;stroke-linecap:round;stroke-linejoin:round;stroke-width:2px"/><line x1="118.6" y1="54.84" x2="98.48" y2="34.72" style="fill:none;stroke:#000;stroke-linecap:round;stroke-linejoin:round;stroke-width:2px"/></svg>