<svg id="Layer_1" data-name="Layer 1" xmlns="http://www.w3.org/2000/svg" viewBox="0 0 128 128"><title>iStar_Design_Business_LineIcons_Live-46</title><line x1="19.91" y1="90.84" x2="108.09" y2="90.84" style="fill:none;stroke:#000;stroke-linecap:round;stroke-linejoin:round;stroke-width:2px"/><rect x="8.26" y="14.83" width="68.54" height="48.51" rx="3.52" ry="3.52" style="fill:none;stroke:#000;stroke-linecap:round;stroke-linejoin:round;stroke-width:2px"/><line x1="8.26" y1="52.64" x2="76.8" y2="52.64" style="fill:none;stroke:#000;stroke-linecap:round;stroke-linejoin:round;stroke-width:2px"/><path d="M44.06,58.16a1.53,1.53,0,1,1-1.53-1.53A1.54,1.54,0,0,1,44.06,58.16Z"/><line x1="39.78" y1="18.61" x2="45.28" y2="18.61" style="fill:none;stroke:#000;stroke-linecap:round;stroke-linejoin:round;stroke-width:2px"/><line x1="12.98" y1="26.7" x2="12.98" y2="42.56" style="fill:none;stroke:#000;stroke-linecap:round;stroke-linejoin:round;stroke-width:2px"/><line x1="12.98" y1="46.4" x2="12.98" y2="52.64" style="fill:none;stroke:#000;stroke-linecap:round;stroke-linejoin:round;stroke-width:2px"/><line x1="69.7" y1="22.95" x2="59.51" y2="33.14" style="fill:none;stroke:#000;stroke-linecap:round;stroke-linejoin:round;stroke-width:2px"/><line x1="56.03" y1="36.11" x2="52.97" y2="39.17" style="fill:none;stroke:#000;stroke-linecap:round;stroke-linejoin:round;stroke-width:2px"/><line x1="59.48" y1="39.74" x2="65.62" y2="33.6" style="fill:none;stroke:#000;stroke-linecap:round;stroke-linejoin:round;stroke-width:2px"/><line x1="33.94" y1="63.34" x2="31.89" y2="72.94" style="fill:none;stroke:#000;stroke-linecap:round;stroke-linejoin:round;stroke-width:2px"/><line x1="51.11" y1="63.34" x2="53.17" y2="72.94" style="fill:none;stroke:#000;stroke-linecap:round;stroke-linejoin:round;stroke-width:2px"/><rect x="3.77" y="73.34" width="120.47" height="7.44" style="fill:none;stroke:#000;stroke-linecap:round;stroke-linejoin:round;stroke-width:2px"/><polyline points="104.03 73.34 104.03 69.46 118.33 69.46 118.33 73.34" style="fill:none;stroke:#000;stroke-linecap:round;stroke-linejoin:round;stroke-width:2px"/><polyline points="111.18 69.46 111.18 33.14 100.82 27.62" style="fill:none;stroke:#000;stroke-linecap:round;stroke-linejoin:round;stroke-width:2px"/><path d="M90.28,29.79h12.55a3,3,0,0,1,3,3v3.62a0,0,0,0,1,0,0H87.29a0,0,0,0,1,0,0V32.78A3,3,0,0,1,90.28,29.79Z" transform="translate(24.63 -39.33) rotate(26.28)" style="fill:none;stroke:#000;stroke-linecap:round;stroke-linejoin:round;stroke-width:2px"/><path d="M96.24,68.57H98a2.9,2.9,0,0,0,2.89-2.9h0A2.9,2.9,0,0,0,98,62.78H96.81" style="fill:none;stroke:#000;stroke-linecap:round;stroke-linejoin:round;stroke-width:2px"/><line x1="108.09" y1="113.17" x2="108.09" y2="80.78" style="fill:none;stroke:#000;stroke-linecap:round;stroke-linejoin:round;stroke-width:2px"/><line x1="114.37" y1="80.78" x2="114.37" y2="113.17" style="fill:none;stroke:#000;stroke-linecap:round;stroke-linejoin:round;stroke-width:2px"/><line x1="13.63" y1="113.17" x2="13.63" y2="80.78" style="fill:none;stroke:#000;stroke-linecap:round;stroke-linejoin:round;stroke-width:2px"/><line x1="19.91" y1="80.78" x2="19.91" y2="113.17" style="fill:none;stroke:#000;stroke-linecap:round;stroke-linejoin:round;stroke-width:2px"/><path d="M87.69,50a1.44,1.44,0,0,0,0,1.88,2.24,2.24,0,0,1,0,3" style="fill:none;stroke:#000;stroke-linecap:round;stroke-linejoin:round;stroke-width:2px"/><path d="M91.73,51.83a2.24,2.24,0,0,1,0,3" style="fill:none;stroke:#000;stroke-linecap:round;stroke-linejoin:round;stroke-width:2px"/><path d="M94.24,73.34a18.11,18.11,0,0,0,2.58-9.81,21.67,21.67,0,0,0-.45-4.43H83.16a21.65,21.65,0,0,0-.46,4.43,18.11,18.11,0,0,0,2.58,9.81" style="fill:none;stroke:#000;stroke-linecap:round;stroke-linejoin:round;stroke-width:2px"/><line x1="78.62" y1="80.78" x2="78.62" y2="90.84" style="fill:none;stroke:#000;stroke-linecap:round;stroke-linejoin:round;stroke-width:2px"/><line x1="49.26" y1="80.78" x2="49.26" y2="90.84" style="fill:none;stroke:#000;stroke-linecap:round;stroke-linejoin:round;stroke-width:2px"/><line x1="35.92" y1="86" x2="33.25" y2="86" style="fill:none;stroke:#000;stroke-linecap:round;stroke-linejoin:round;stroke-width:2px"/><line x1="65.33" y1="86" x2="62.67" y2="86" style="fill:none;stroke:#000;stroke-linecap:round;stroke-linejoin:round;stroke-width:2px"/><line x1="94.75" y1="86" x2="92.08" y2="86" style="fill:none;stroke:#000;stroke-linecap:round;stroke-linejoin:round;stroke-width:2px"/></svg>