<?xml version="1.0" encoding="utf-8"?>
<!-- Generator: Adobe Illustrator 22.1.0, SVG Export Plug-In . SVG Version: 6.00 Build 0)  -->
<svg version="1.1" id="Layer_1" xmlns="http://www.w3.org/2000/svg" xmlns:xlink="http://www.w3.org/1999/xlink" x="0px" y="0px"
	 viewBox="0 0 1600 800" style="enable-background:new 0 0 1600 800;" xml:space="preserve">
<style type="text/css">
	.st0{opacity:5.000000e-02;fill:#F5C26B;}
	.st1{opacity:5.000000e-02;fill:#F2545B;}
	.st2{opacity:5.000000e-02;fill:#49C39E;}
	.st3{opacity:5.000000e-02;fill:#6A78D1;}
</style>
<path class="st0" d="M979.7,81.4c-58.6,1.5-121.5-35.2-171.9-4.5c-64.4,39.3-112.6,5-183.7,2.7c-73.6-2.3-152.2-38.4-225.6-17.6
	c-38.8,11.1-74.5,43.5-77.1,83.2c-3.4,50.7,43.2,87.6,69.6,130.5c24.8,40.3,32.3,90.9,20.2,137.3c-7.8,30.2-23.5,58.9-25,89.8
	c-3.6,73.7,94,158.6,167.5,134.4c39.7-13.1,73.9-38.9,106.9-64.7c31.8-24.8,70.1-51.6,108.5-41.3c31.2,8.4,50,38.2,70.1,63.1
	c20.1,24.8,51.7,48.2,82.4,37c13.4-4.9,23.8-15.6,36.3-22.7c36.4-20.8,83.4-6.5,115.2,19.3c31.8,25.9,53.6,61.5,81.7,91.3
	c40.9,43.3,97.6,74.2,158.1,74.6c60.5,0.4,123.2-33.9,146.7-89.5c31.2-73.9-10.9-155.7-58-219c-47.1-63.4-103-129.4-101.7-208.9
	c0.7-41.4,17.4-82,15.4-123.3c-3.5-73.1-74.9-134.6-148.7-128.3C1101.5,30.3,1044.8,79.7,979.7,81.4z"/>
<path class="st1" d="M1392.8,178.4c3.4-8,6.7-16.2,6.9-24.9c0.2-8.7-3.4-17.9-10.9-22.3c-3.7-2.2-8.1-3.1-11.4-5.8
	c-5.4-4.5-6.2-13.1-2.7-19.2c3.5-6.1,10.3-9.8,17.2-10.9c11.4-1.8,23.9,2.4,34.1-2.9c5.3-2.8,9.2-7.8,14.9-9.7
	c6.3-2.1,13.9,0.6,17.4,6.2c4,6.4,2.5,14.8,4.8,22c2.2,7.1,8.1,12.8,15.2,14.8c8.5,2.4,17.6-0.4,26.3,0.5
	c14,1.4,26.1,13.5,27.7,27.4c1.1,9.6-2.3,19.2-3.3,28.8c-1,9.7,1.7,21.1,10.5,25.2c8.4,3.9,17.9,7.6,15.1,19.5
	c-3.4,14-26.5,13.7-21.3,33.2c0.8,3.2,2.7,5.9,4.4,8.7c6.3,10.1,11.8,21.2,12,33.1c0.3,11.9-5.7,24.6-16.8,29
	c-7.8,3.2-17.4,1.6-23.8-4c-11.3-9.8-12.7-29.8-26.9-34.6c-9.2-3.1-20.6,2.1-28.6-3.5c-6.2-4.3-7.1-13-6.8-20.6
	c0.2-6.4,0.8-12.7,1.9-19c1.2-7.2,2.8-15-0.9-21.3c-4-6.9-12.8-9.2-20.7-9.5c-7.9-0.3-16.2,0.6-23.6-2.3
	c-9.9-3.9-16.4-15.1-14.9-25.6C1389.2,186.6,1391.1,182.5,1392.8,178.4z"/>
<path class="st2" d="M718,610.8c22.6,13,37.2,40.5,38.9,66.1c2.2,33.9-16.1,65.7-47.9,78.2c-23,9.1-50.6,8-71.8-5.2
	c-17.7-11-28.2-29.7-30.2-50.3c-0.1-1.1-0.2-2.2-0.2-3.2c-2.3-44.4,33.9-95.1,81.3-93.8C699.4,602.9,709.4,605.9,718,610.8z"/>
<path class="st3" d="M1018,742.8c2.2-3.1,4.6-6.2,6.8-9.3c2.6-3.9,5.2-7.9,7.7-11.8c1.2-1.9,2.6-3.9,2.9-6.2
	c0.2-2.2-0.5-4.3-1.2-6.4c-1.1-3.3-1.9-6.7-3.1-9.9c-2.8-7.5-5.6-15-8.5-22.5c-1.4-3.8-2.9-7.7-5.6-10.7c-3.4-3.9-8-4.3-12.8-5.3
	c-5.1-1-10.3-1.8-15.4-2.6c-3.9-0.6-8-2.6-12.1-1.9c-2.9,0.5-5.1,2.7-6.8,5.1c-4.3,6-7.8,12.3-11.6,18.6c-1.4,2.3-3.2,4.1-4.1,6.8
	c-0.9,2.6-1.2,5.3-1,8.1c0.3,4.9,1.9,9.7,3.6,14.4c2.4,6.7,4.9,13.4,7.5,20c1.3,3.4,2.7,6.8,5.4,9.3c2.7,2.5,6.3,3.6,9.9,4.6
	c7.9,2.3,16,3.9,24,5.7c2.5,0.6,5.2,1.1,7.7,0.3C1014.3,747.9,1016.2,745.3,1018,742.8z"/>
</svg>
