<?xml version="1.0" encoding="utf-8"?>
<!-- Generator: Adobe Illustrator 22.1.0, SVG Export Plug-In . SVG Version: 6.00 Build 0)  -->
<svg version="1.1" id="Layer_1" xmlns="http://www.w3.org/2000/svg" xmlns:xlink="http://www.w3.org/1999/xlink" x="0px" y="0px"
	 viewBox="0 0 608.4 641.9" style="enable-background:new 0 0 608.4 641.9;" xml:space="preserve">
<style type="text/css">
	.st0{opacity:0.4;}
	.st1{enable-background:new    ;}
	.st2{fill:#8C98A4;}
</style>
<g>
	<g class="st0">
		<g>
			<g>
				<g class="st1">
					<path class="st2" d="M306.1,370.3V366h-4.3v-1.8h4.3v-4.3h1.8v4.3h4.3v1.8h-4.3v4.3H306.1z"/>
				</g>
				<g class="st1">
					<path class="st2" d="M330.7,370.3V366h-4.3v-1.8h4.3v-4.3h1.8v4.3h4.3v1.8h-4.3v4.3H330.7z"/>
				</g>
				<g class="st1">
					<path class="st2" d="M355.4,370.3V366h-4.3v-1.8h4.3v-4.3h1.8v4.3h4.3v1.8h-4.3v4.3H355.4z"/>
				</g>
				<g class="st1">
					<path class="st2" d="M380.1,370.3V366h-4.3v-1.8h4.3v-4.3h1.8v4.3h4.3v1.8h-4.3v4.3H380.1z"/>
				</g>
				<g class="st1">
					<path class="st2" d="M404.8,370.3V366h-4.3v-1.8h4.3v-4.3h1.8v4.3h4.3v1.8h-4.3v4.3H404.8z"/>
				</g>
				<g class="st1">
					<path class="st2" d="M429.5,370.3V366h-4.3v-1.8h4.3v-4.3h1.8v4.3h4.3v1.8h-4.3v4.3H429.5z"/>
				</g>
				<g class="st1">
					<path class="st2" d="M454.2,370.3V366h-4.3v-1.8h4.3v-4.3h1.8v4.3h4.3v1.8H456v4.3H454.2z"/>
				</g>
				<g class="st1">
					<path class="st2" d="M478.9,370.3V366h-4.3v-1.8h4.3v-4.3h1.8v4.3h4.3v1.8h-4.3v4.3H478.9z"/>
				</g>
				<g class="st1">
					<path class="st2" d="M528.2,370.3V366h-4.3v-1.8h4.3v-4.3h1.8v4.3h4.3v1.8H530v4.3H528.2z"/>
				</g>
				<g class="st1">
					<path class="st2" d="M503.6,370.3V366h-4.3v-1.8h4.3v-4.3h1.8v4.3h4.3v1.8h-4.3v4.3H503.6z"/>
				</g>
				<g class="st1">
					<path class="st2" d="M478.9,370.3V366h-4.3v-1.8h4.3v-4.3h1.8v4.3h4.3v1.8h-4.3v4.3H478.9z"/>
				</g>
				<g class="st1">
					<path class="st2" d="M552.9,370.3V366h-4.3v-1.8h4.3v-4.3h1.8v4.3h4.3v1.8h-4.2v4.3H552.9z"/>
				</g>
				<g class="st1">
					<path class="st2" d="M577.6,370.3V366h-4.3v-1.8h4.3v-4.3h1.8v4.3h4.3v1.8h-4.3v4.3H577.6z"/>
				</g>
				<g class="st1">
					<path class="st2" d="M602.3,370.3V366H598v-1.8h4.3v-4.3h1.8v4.3h4.3v1.8h-4.3v4.3H602.3z"/>
				</g>
			</g>
			<g>
				<g class="st1">
					<path class="st2" d="M306.1,395v-4.3h-4.3v-1.8h4.3v-4.3h1.8v4.3h4.3v1.8h-4.3v4.3H306.1z"/>
				</g>
				<g class="st1">
					<path class="st2" d="M330.7,395v-4.3h-4.3v-1.8h4.3v-4.3h1.8v4.3h4.3v1.8h-4.3v4.3H330.7z"/>
				</g>
				<g class="st1">
					<path class="st2" d="M355.4,395v-4.3h-4.3v-1.8h4.3v-4.3h1.8v4.3h4.3v1.8h-4.3v4.3H355.4z"/>
				</g>
				<g class="st1">
					<path class="st2" d="M380.1,395v-4.3h-4.3v-1.8h4.3v-4.3h1.8v4.3h4.3v1.8h-4.3v4.3H380.1z"/>
				</g>
				<g class="st1">
					<path class="st2" d="M404.8,395v-4.3h-4.3v-1.8h4.3v-4.3h1.8v4.3h4.3v1.8h-4.3v4.3H404.8z"/>
				</g>
				<g class="st1">
					<path class="st2" d="M429.5,395v-4.3h-4.3v-1.8h4.3v-4.3h1.8v4.3h4.3v1.8h-4.3v4.3H429.5z"/>
				</g>
				<g class="st1">
					<path class="st2" d="M454.2,395v-4.3h-4.3v-1.8h4.3v-4.3h1.8v4.3h4.3v1.8H456v4.3H454.2z"/>
				</g>
				<g class="st1">
					<path class="st2" d="M478.9,395v-4.3h-4.3v-1.8h4.3v-4.3h1.8v4.3h4.3v1.8h-4.3v4.3H478.9z"/>
				</g>
				<g class="st1">
					<path class="st2" d="M528.2,395v-4.3h-4.3v-1.8h4.3v-4.3h1.8v4.3h4.3v1.8H530v4.3H528.2z"/>
				</g>
				<g class="st1">
					<path class="st2" d="M503.6,395v-4.3h-4.3v-1.8h4.3v-4.3h1.8v4.3h4.3v1.8h-4.3v4.3H503.6z"/>
				</g>
				<g class="st1">
					<path class="st2" d="M478.9,395v-4.3h-4.3v-1.8h4.3v-4.3h1.8v4.3h4.3v1.8h-4.3v4.3H478.9z"/>
				</g>
				<g class="st1">
					<path class="st2" d="M552.9,395v-4.3h-4.3v-1.8h4.3v-4.3h1.8v4.3h4.3v1.8h-4.2v4.3H552.9z"/>
				</g>
				<g class="st1">
					<path class="st2" d="M577.6,395v-4.3h-4.3v-1.8h4.3v-4.3h1.8v4.3h4.3v1.8h-4.3v4.3H577.6z"/>
				</g>
				<g class="st1">
					<path class="st2" d="M602.3,395v-4.3H598v-1.8h4.3v-4.3h1.8v4.3h4.3v1.8h-4.3v4.3H602.3z"/>
				</g>
			</g>
			<g>
				<g class="st1">
					<path class="st2" d="M306.1,419.7v-4.3h-4.3v-1.8h4.3v-4.3h1.8v4.3h4.3v1.8h-4.3v4.3H306.1z"/>
				</g>
				<g class="st1">
					<path class="st2" d="M330.7,419.7v-4.3h-4.3v-1.8h4.3v-4.3h1.8v4.3h4.3v1.8h-4.3v4.3H330.7z"/>
				</g>
				<g class="st1">
					<path class="st2" d="M355.4,419.7v-4.3h-4.3v-1.8h4.3v-4.3h1.8v4.3h4.3v1.8h-4.3v4.3H355.4z"/>
				</g>
				<g class="st1">
					<path class="st2" d="M380.1,419.7v-4.3h-4.3v-1.8h4.3v-4.3h1.8v4.3h4.3v1.8h-4.3v4.3H380.1z"/>
				</g>
				<g class="st1">
					<path class="st2" d="M404.8,419.7v-4.3h-4.3v-1.8h4.3v-4.3h1.8v4.3h4.3v1.8h-4.3v4.3H404.8z"/>
				</g>
				<g class="st1">
					<path class="st2" d="M429.5,419.7v-4.3h-4.3v-1.8h4.3v-4.3h1.8v4.3h4.3v1.8h-4.3v4.3H429.5z"/>
				</g>
				<g class="st1">
					<path class="st2" d="M454.2,419.7v-4.3h-4.3v-1.8h4.3v-4.3h1.8v4.3h4.3v1.8H456v4.3H454.2z"/>
				</g>
				<g class="st1">
					<path class="st2" d="M478.9,419.7v-4.3h-4.3v-1.8h4.3v-4.3h1.8v4.3h4.3v1.8h-4.3v4.3H478.9z"/>
				</g>
				<g class="st1">
					<path class="st2" d="M528.2,419.7v-4.3h-4.3v-1.8h4.3v-4.3h1.8v4.3h4.3v1.8H530v4.3H528.2z"/>
				</g>
				<g class="st1">
					<path class="st2" d="M503.6,419.7v-4.3h-4.3v-1.8h4.3v-4.3h1.8v4.3h4.3v1.8h-4.3v4.3H503.6z"/>
				</g>
				<g class="st1">
					<path class="st2" d="M478.9,419.7v-4.3h-4.3v-1.8h4.3v-4.3h1.8v4.3h4.3v1.8h-4.3v4.3H478.9z"/>
				</g>
				<g class="st1">
					<path class="st2" d="M552.9,419.7v-4.3h-4.3v-1.8h4.3v-4.3h1.8v4.3h4.3v1.8h-4.2v4.3H552.9z"/>
				</g>
				<g class="st1">
					<path class="st2" d="M577.6,419.7v-4.3h-4.3v-1.8h4.3v-4.3h1.8v4.3h4.3v1.8h-4.3v4.3H577.6z"/>
				</g>
				<g class="st1">
					<path class="st2" d="M602.3,419.7v-4.3H598v-1.8h4.3v-4.3h1.8v4.3h4.3v1.8h-4.3v4.3H602.3z"/>
				</g>
			</g>
			<g>
				<g class="st1">
					<path class="st2" d="M306.1,444.4v-4.3h-4.3v-1.8h4.3V434h1.8v4.3h4.3v1.8h-4.3v4.3H306.1z"/>
				</g>
				<g class="st1">
					<path class="st2" d="M330.7,444.4v-4.3h-4.3v-1.8h4.3V434h1.8v4.3h4.3v1.8h-4.3v4.3H330.7z"/>
				</g>
				<g class="st1">
					<path class="st2" d="M355.4,444.4v-4.3h-4.3v-1.8h4.3V434h1.8v4.3h4.3v1.8h-4.3v4.3H355.4z"/>
				</g>
				<g class="st1">
					<path class="st2" d="M380.1,444.4v-4.3h-4.3v-1.8h4.3V434h1.8v4.3h4.3v1.8h-4.3v4.3H380.1z"/>
				</g>
				<g class="st1">
					<path class="st2" d="M404.8,444.4v-4.3h-4.3v-1.8h4.3V434h1.8v4.3h4.3v1.8h-4.3v4.3H404.8z"/>
				</g>
				<g class="st1">
					<path class="st2" d="M429.5,444.4v-4.3h-4.3v-1.8h4.3V434h1.8v4.3h4.3v1.8h-4.3v4.3H429.5z"/>
				</g>
				<g class="st1">
					<path class="st2" d="M454.2,444.4v-4.3h-4.3v-1.8h4.3V434h1.8v4.3h4.3v1.8H456v4.3H454.2z"/>
				</g>
				<g class="st1">
					<path class="st2" d="M478.9,444.4v-4.3h-4.3v-1.8h4.3V434h1.8v4.3h4.3v1.8h-4.3v4.3H478.9z"/>
				</g>
				<g class="st1">
					<path class="st2" d="M528.2,444.4v-4.3h-4.3v-1.8h4.3V434h1.8v4.3h4.3v1.8H530v4.3H528.2z"/>
				</g>
				<g class="st1">
					<path class="st2" d="M503.6,444.4v-4.3h-4.3v-1.8h4.3V434h1.8v4.3h4.3v1.8h-4.3v4.3H503.6z"/>
				</g>
				<g class="st1">
					<path class="st2" d="M478.9,444.4v-4.3h-4.3v-1.8h4.3V434h1.8v4.3h4.3v1.8h-4.3v4.3H478.9z"/>
				</g>
				<g class="st1">
					<path class="st2" d="M552.9,444.4v-4.3h-4.3v-1.8h4.3V434h1.8v4.3h4.3v1.8h-4.2v4.3H552.9z"/>
				</g>
				<g class="st1">
					<path class="st2" d="M577.6,444.4v-4.3h-4.3v-1.8h4.3V434h1.8v4.3h4.3v1.8h-4.3v4.3H577.6z"/>
				</g>
				<g class="st1">
					<path class="st2" d="M602.3,444.4v-4.3H598v-1.8h4.3V434h1.8v4.3h4.3v1.8h-4.3v4.3H602.3z"/>
				</g>
			</g>
			<g>
				<g class="st1">
					<path class="st2" d="M306.1,469.1v-4.3h-4.3V463h4.3v-4.3h1.8v4.3h4.3v1.8h-4.3v4.3H306.1z"/>
				</g>
				<g class="st1">
					<path class="st2" d="M330.7,469.1v-4.3h-4.3V463h4.3v-4.3h1.8v4.3h4.3v1.8h-4.3v4.3H330.7z"/>
				</g>
				<g class="st1">
					<path class="st2" d="M355.4,469.1v-4.3h-4.3V463h4.3v-4.3h1.8v4.3h4.3v1.8h-4.3v4.3H355.4z"/>
				</g>
				<g class="st1">
					<path class="st2" d="M380.1,469.1v-4.3h-4.3V463h4.3v-4.3h1.8v4.3h4.3v1.8h-4.3v4.3H380.1z"/>
				</g>
				<g class="st1">
					<path class="st2" d="M404.8,469.1v-4.3h-4.3V463h4.3v-4.3h1.8v4.3h4.3v1.8h-4.3v4.3H404.8z"/>
				</g>
				<g class="st1">
					<path class="st2" d="M429.5,469.1v-4.3h-4.3V463h4.3v-4.3h1.8v4.3h4.3v1.8h-4.3v4.3H429.5z"/>
				</g>
				<g class="st1">
					<path class="st2" d="M454.2,469.1v-4.3h-4.3V463h4.3v-4.3h1.8v4.3h4.3v1.8H456v4.3H454.2z"/>
				</g>
				<g class="st1">
					<path class="st2" d="M478.9,469.1v-4.3h-4.3V463h4.3v-4.3h1.8v4.3h4.3v1.8h-4.3v4.3H478.9z"/>
				</g>
				<g class="st1">
					<path class="st2" d="M528.2,469.1v-4.3h-4.3V463h4.3v-4.3h1.8v4.3h4.3v1.8H530v4.3H528.2z"/>
				</g>
				<g class="st1">
					<path class="st2" d="M503.6,469.1v-4.3h-4.3V463h4.3v-4.3h1.8v4.3h4.3v1.8h-4.3v4.3H503.6z"/>
				</g>
				<g class="st1">
					<path class="st2" d="M478.9,469.1v-4.3h-4.3V463h4.3v-4.3h1.8v4.3h4.3v1.8h-4.3v4.3H478.9z"/>
				</g>
				<g class="st1">
					<path class="st2" d="M552.9,469.1v-4.3h-4.3V463h4.3v-4.3h1.8v4.3h4.3v1.8h-4.2v4.3H552.9z"/>
				</g>
				<g class="st1">
					<path class="st2" d="M577.6,469.1v-4.3h-4.3V463h4.3v-4.3h1.8v4.3h4.3v1.8h-4.3v4.3H577.6z"/>
				</g>
				<g class="st1">
					<path class="st2" d="M602.3,469.1v-4.3H598V463h4.3v-4.3h1.8v4.3h4.3v1.8h-4.3v4.3H602.3z"/>
				</g>
			</g>
			<g>
				<g class="st1">
					<path class="st2" d="M306.1,493.7v-4.3h-4.3v-1.8h4.3v-4.3h1.8v4.3h4.3v1.8h-4.3v4.3H306.1z"/>
				</g>
				<g class="st1">
					<path class="st2" d="M330.7,493.7v-4.3h-4.3v-1.8h4.3v-4.3h1.8v4.3h4.3v1.8h-4.3v4.3H330.7z"/>
				</g>
				<g class="st1">
					<path class="st2" d="M355.4,493.7v-4.3h-4.3v-1.8h4.3v-4.3h1.8v4.3h4.3v1.8h-4.3v4.3H355.4z"/>
				</g>
				<g class="st1">
					<path class="st2" d="M380.1,493.7v-4.3h-4.3v-1.8h4.3v-4.3h1.8v4.3h4.3v1.8h-4.3v4.3H380.1z"/>
				</g>
				<g class="st1">
					<path class="st2" d="M404.8,493.7v-4.3h-4.3v-1.8h4.3v-4.3h1.8v4.3h4.3v1.8h-4.3v4.3H404.8z"/>
				</g>
				<g class="st1">
					<path class="st2" d="M429.5,493.7v-4.3h-4.3v-1.8h4.3v-4.3h1.8v4.3h4.3v1.8h-4.3v4.3H429.5z"/>
				</g>
				<g class="st1">
					<path class="st2" d="M454.2,493.7v-4.3h-4.3v-1.8h4.3v-4.3h1.8v4.3h4.3v1.8H456v4.3H454.2z"/>
				</g>
				<g class="st1">
					<path class="st2" d="M478.9,493.7v-4.3h-4.3v-1.8h4.3v-4.3h1.8v4.3h4.3v1.8h-4.3v4.3H478.9z"/>
				</g>
				<g class="st1">
					<path class="st2" d="M528.2,493.7v-4.3h-4.3v-1.8h4.3v-4.3h1.8v4.3h4.3v1.8H530v4.3H528.2z"/>
				</g>
				<g class="st1">
					<path class="st2" d="M503.6,493.7v-4.3h-4.3v-1.8h4.3v-4.3h1.8v4.3h4.3v1.8h-4.3v4.3H503.6z"/>
				</g>
				<g class="st1">
					<path class="st2" d="M478.9,493.7v-4.3h-4.3v-1.8h4.3v-4.3h1.8v4.3h4.3v1.8h-4.3v4.3H478.9z"/>
				</g>
				<g class="st1">
					<path class="st2" d="M552.9,493.7v-4.3h-4.3v-1.8h4.3v-4.3h1.8v4.3h4.3v1.8h-4.2v4.3H552.9z"/>
				</g>
				<g class="st1">
					<path class="st2" d="M577.6,493.7v-4.3h-4.3v-1.8h4.3v-4.3h1.8v4.3h4.3v1.8h-4.3v4.3H577.6z"/>
				</g>
				<g class="st1">
					<path class="st2" d="M602.3,493.7v-4.3H598v-1.8h4.3v-4.3h1.8v4.3h4.3v1.8h-4.3v4.3H602.3z"/>
				</g>
			</g>
		</g>
		<g>
			<g>
				<g class="st1">
					<path class="st2" d="M306.1,518.4v-4.3h-4.3v-1.8h4.3V508h1.8v4.3h4.3v1.8h-4.3v4.3H306.1z"/>
				</g>
				<g class="st1">
					<path class="st2" d="M330.7,518.4v-4.3h-4.3v-1.8h4.3V508h1.8v4.3h4.3v1.8h-4.3v4.3H330.7z"/>
				</g>
				<g class="st1">
					<path class="st2" d="M355.4,518.4v-4.3h-4.3v-1.8h4.3V508h1.8v4.3h4.3v1.8h-4.3v4.3H355.4z"/>
				</g>
				<g class="st1">
					<path class="st2" d="M380.1,518.4v-4.3h-4.3v-1.8h4.3V508h1.8v4.3h4.3v1.8h-4.3v4.3H380.1z"/>
				</g>
				<g class="st1">
					<path class="st2" d="M404.8,518.4v-4.3h-4.3v-1.8h4.3V508h1.8v4.3h4.3v1.8h-4.3v4.3H404.8z"/>
				</g>
				<g class="st1">
					<path class="st2" d="M429.5,518.4v-4.3h-4.3v-1.8h4.3V508h1.8v4.3h4.3v1.8h-4.3v4.3H429.5z"/>
				</g>
				<g class="st1">
					<path class="st2" d="M454.2,518.4v-4.3h-4.3v-1.8h4.3V508h1.8v4.3h4.3v1.8H456v4.3H454.2z"/>
				</g>
				<g class="st1">
					<path class="st2" d="M478.9,518.4v-4.3h-4.3v-1.8h4.3V508h1.8v4.3h4.3v1.8h-4.3v4.3H478.9z"/>
				</g>
				<g class="st1">
					<path class="st2" d="M528.2,518.4v-4.3h-4.3v-1.8h4.3V508h1.8v4.3h4.3v1.8H530v4.3H528.2z"/>
				</g>
				<g class="st1">
					<path class="st2" d="M503.6,518.4v-4.3h-4.3v-1.8h4.3V508h1.8v4.3h4.3v1.8h-4.3v4.3H503.6z"/>
				</g>
				<g class="st1">
					<path class="st2" d="M478.9,518.4v-4.3h-4.3v-1.8h4.3V508h1.8v4.3h4.3v1.8h-4.3v4.3H478.9z"/>
				</g>
				<g class="st1">
					<path class="st2" d="M552.9,518.4v-4.3h-4.3v-1.8h4.3V508h1.8v4.3h4.3v1.8h-4.2v4.3H552.9z"/>
				</g>
				<g class="st1">
					<path class="st2" d="M577.6,518.4v-4.3h-4.3v-1.8h4.3V508h1.8v4.3h4.3v1.8h-4.3v4.3H577.6z"/>
				</g>
				<g class="st1">
					<path class="st2" d="M602.3,518.4v-4.3H598v-1.8h4.3V508h1.8v4.3h4.3v1.8h-4.3v4.3H602.3z"/>
				</g>
			</g>
			<g>
				<g class="st1">
					<path class="st2" d="M306.1,543.1v-4.3h-4.3V537h4.3v-4.3h1.8v4.3h4.3v1.8h-4.3v4.3H306.1z"/>
				</g>
				<g class="st1">
					<path class="st2" d="M330.7,543.1v-4.3h-4.3V537h4.3v-4.3h1.8v4.3h4.3v1.8h-4.3v4.3H330.7z"/>
				</g>
				<g class="st1">
					<path class="st2" d="M355.4,543.1v-4.3h-4.3V537h4.3v-4.3h1.8v4.3h4.3v1.8h-4.3v4.3H355.4z"/>
				</g>
				<g class="st1">
					<path class="st2" d="M380.1,543.1v-4.3h-4.3V537h4.3v-4.3h1.8v4.3h4.3v1.8h-4.3v4.3H380.1z"/>
				</g>
				<g class="st1">
					<path class="st2" d="M404.8,543.1v-4.3h-4.3V537h4.3v-4.3h1.8v4.3h4.3v1.8h-4.3v4.3H404.8z"/>
				</g>
				<g class="st1">
					<path class="st2" d="M429.5,543.1v-4.3h-4.3V537h4.3v-4.3h1.8v4.3h4.3v1.8h-4.3v4.3H429.5z"/>
				</g>
				<g class="st1">
					<path class="st2" d="M454.2,543.1v-4.3h-4.3V537h4.3v-4.3h1.8v4.3h4.3v1.8H456v4.3H454.2z"/>
				</g>
				<g class="st1">
					<path class="st2" d="M478.9,543.1v-4.3h-4.3V537h4.3v-4.3h1.8v4.3h4.3v1.8h-4.3v4.3H478.9z"/>
				</g>
				<g class="st1">
					<path class="st2" d="M528.2,543.1v-4.3h-4.3V537h4.3v-4.3h1.8v4.3h4.3v1.8H530v4.3H528.2z"/>
				</g>
				<g class="st1">
					<path class="st2" d="M503.6,543.1v-4.3h-4.3V537h4.3v-4.3h1.8v4.3h4.3v1.8h-4.3v4.3H503.6z"/>
				</g>
				<g class="st1">
					<path class="st2" d="M478.9,543.1v-4.3h-4.3V537h4.3v-4.3h1.8v4.3h4.3v1.8h-4.3v4.3H478.9z"/>
				</g>
				<g class="st1">
					<path class="st2" d="M552.9,543.1v-4.3h-4.3V537h4.3v-4.3h1.8v4.3h4.3v1.8h-4.2v4.3H552.9z"/>
				</g>
				<g class="st1">
					<path class="st2" d="M577.6,543.1v-4.3h-4.3V537h4.3v-4.3h1.8v4.3h4.3v1.8h-4.3v4.3H577.6z"/>
				</g>
				<g class="st1">
					<path class="st2" d="M602.3,543.1v-4.3H598V537h4.3v-4.3h1.8v4.3h4.3v1.8h-4.3v4.3H602.3z"/>
				</g>
			</g>
			<g>
				<g class="st1">
					<path class="st2" d="M306.1,567.8v-4.3h-4.3v-1.8h4.3v-4.3h1.8v4.3h4.3v1.8h-4.3v4.3H306.1z"/>
				</g>
				<g class="st1">
					<path class="st2" d="M330.7,567.8v-4.3h-4.3v-1.8h4.3v-4.3h1.8v4.3h4.3v1.8h-4.3v4.3H330.7z"/>
				</g>
				<g class="st1">
					<path class="st2" d="M355.4,567.8v-4.3h-4.3v-1.8h4.3v-4.3h1.8v4.3h4.3v1.8h-4.3v4.3H355.4z"/>
				</g>
				<g class="st1">
					<path class="st2" d="M380.1,567.8v-4.3h-4.3v-1.8h4.3v-4.3h1.8v4.3h4.3v1.8h-4.3v4.3H380.1z"/>
				</g>
				<g class="st1">
					<path class="st2" d="M404.8,567.8v-4.3h-4.3v-1.8h4.3v-4.3h1.8v4.3h4.3v1.8h-4.3v4.3H404.8z"/>
				</g>
				<g class="st1">
					<path class="st2" d="M429.5,567.8v-4.3h-4.3v-1.8h4.3v-4.3h1.8v4.3h4.3v1.8h-4.3v4.3H429.5z"/>
				</g>
				<g class="st1">
					<path class="st2" d="M454.2,567.8v-4.3h-4.3v-1.8h4.3v-4.3h1.8v4.3h4.3v1.8H456v4.3H454.2z"/>
				</g>
				<g class="st1">
					<path class="st2" d="M478.9,567.8v-4.3h-4.3v-1.8h4.3v-4.3h1.8v4.3h4.3v1.8h-4.3v4.3H478.9z"/>
				</g>
				<g class="st1">
					<path class="st2" d="M528.2,567.8v-4.3h-4.3v-1.8h4.3v-4.3h1.8v4.3h4.3v1.8H530v4.3H528.2z"/>
				</g>
				<g class="st1">
					<path class="st2" d="M503.6,567.8v-4.3h-4.3v-1.8h4.3v-4.3h1.8v4.3h4.3v1.8h-4.3v4.3H503.6z"/>
				</g>
				<g class="st1">
					<path class="st2" d="M478.9,567.8v-4.3h-4.3v-1.8h4.3v-4.3h1.8v4.3h4.3v1.8h-4.3v4.3H478.9z"/>
				</g>
				<g class="st1">
					<path class="st2" d="M552.9,567.8v-4.3h-4.3v-1.8h4.3v-4.3h1.8v4.3h4.3v1.8h-4.2v4.3H552.9z"/>
				</g>
				<g class="st1">
					<path class="st2" d="M577.6,567.8v-4.3h-4.3v-1.8h4.3v-4.3h1.8v4.3h4.3v1.8h-4.3v4.3H577.6z"/>
				</g>
				<g class="st1">
					<path class="st2" d="M602.3,567.8v-4.3H598v-1.8h4.3v-4.3h1.8v4.3h4.3v1.8h-4.3v4.3H602.3z"/>
				</g>
			</g>
			<g>
				<g class="st1">
					<path class="st2" d="M306.1,592.5v-4.3h-4.3v-1.8h4.3v-4.3h1.8v4.3h4.3v1.8h-4.3v4.3L306.1,592.5L306.1,592.5z"/>
				</g>
				<g class="st1">
					<path class="st2" d="M330.7,592.5v-4.3h-4.3v-1.8h4.3v-4.3h1.8v4.3h4.3v1.8h-4.3v4.3L330.7,592.5L330.7,592.5z"/>
				</g>
				<g class="st1">
					<path class="st2" d="M355.4,592.5v-4.3h-4.3v-1.8h4.3v-4.3h1.8v4.3h4.3v1.8h-4.3v4.3L355.4,592.5L355.4,592.5z"/>
				</g>
				<g class="st1">
					<path class="st2" d="M380.1,592.5v-4.3h-4.3v-1.8h4.3v-4.3h1.8v4.3h4.3v1.8h-4.3v4.3L380.1,592.5L380.1,592.5z"/>
				</g>
				<g class="st1">
					<path class="st2" d="M404.8,592.5v-4.3h-4.3v-1.8h4.3v-4.3h1.8v4.3h4.3v1.8h-4.3v4.3L404.8,592.5L404.8,592.5z"/>
				</g>
				<g class="st1">
					<path class="st2" d="M429.5,592.5v-4.3h-4.3v-1.8h4.3v-4.3h1.8v4.3h4.3v1.8h-4.3v4.3L429.5,592.5L429.5,592.5z"/>
				</g>
				<g class="st1">
					<path class="st2" d="M454.2,592.5v-4.3h-4.3v-1.8h4.3v-4.3h1.8v4.3h4.3v1.8H456v4.3L454.2,592.5L454.2,592.5z"/>
				</g>
				<g class="st1">
					<path class="st2" d="M478.9,592.5v-4.3h-4.3v-1.8h4.3v-4.3h1.8v4.3h4.3v1.8h-4.3v4.3L478.9,592.5L478.9,592.5z"/>
				</g>
				<g class="st1">
					<path class="st2" d="M528.2,592.5v-4.3h-4.3v-1.8h4.3v-4.3h1.8v4.3h4.3v1.8H530v4.3L528.2,592.5L528.2,592.5z"/>
				</g>
				<g class="st1">
					<path class="st2" d="M503.6,592.5v-4.3h-4.3v-1.8h4.3v-4.3h1.8v4.3h4.3v1.8h-4.3v4.3L503.6,592.5L503.6,592.5z"/>
				</g>
				<g class="st1">
					<path class="st2" d="M478.9,592.5v-4.3h-4.3v-1.8h4.3v-4.3h1.8v4.3h4.3v1.8h-4.3v4.3L478.9,592.5L478.9,592.5z"/>
				</g>
				<g class="st1">
					<path class="st2" d="M552.9,592.5v-4.3h-4.3v-1.8h4.3v-4.3h1.8v4.3h4.3v1.8h-4.2v4.3L552.9,592.5L552.9,592.5z"/>
				</g>
				<g class="st1">
					<path class="st2" d="M577.6,592.5v-4.3h-4.3v-1.8h4.3v-4.3h1.8v4.3h4.3v1.8h-4.3v4.3L577.6,592.5L577.6,592.5z"/>
				</g>
				<g class="st1">
					<path class="st2" d="M602.3,592.5v-4.3H598v-1.8h4.3v-4.3h1.8v4.3h4.3v1.8h-4.3v4.3L602.3,592.5L602.3,592.5z"/>
				</g>
			</g>
			<g>
				<g class="st1">
					<path class="st2" d="M306.1,617.2v-4.3h-4.3v-1.8h4.3v-4.3h1.8v4.3h4.3v1.8h-4.3v4.3H306.1z"/>
				</g>
				<g class="st1">
					<path class="st2" d="M330.7,617.2v-4.3h-4.3v-1.8h4.3v-4.3h1.8v4.3h4.3v1.8h-4.3v4.3H330.7z"/>
				</g>
				<g class="st1">
					<path class="st2" d="M355.4,617.2v-4.3h-4.3v-1.8h4.3v-4.3h1.8v4.3h4.3v1.8h-4.3v4.3H355.4z"/>
				</g>
				<g class="st1">
					<path class="st2" d="M380.1,617.2v-4.3h-4.3v-1.8h4.3v-4.3h1.8v4.3h4.3v1.8h-4.3v4.3H380.1z"/>
				</g>
				<g class="st1">
					<path class="st2" d="M404.8,617.2v-4.3h-4.3v-1.8h4.3v-4.3h1.8v4.3h4.3v1.8h-4.3v4.3H404.8z"/>
				</g>
				<g class="st1">
					<path class="st2" d="M429.5,617.2v-4.3h-4.3v-1.8h4.3v-4.3h1.8v4.3h4.3v1.8h-4.3v4.3H429.5z"/>
				</g>
				<g class="st1">
					<path class="st2" d="M454.2,617.2v-4.3h-4.3v-1.8h4.3v-4.3h1.8v4.3h4.3v1.8H456v4.3H454.2z"/>
				</g>
				<g class="st1">
					<path class="st2" d="M478.9,617.2v-4.3h-4.3v-1.8h4.3v-4.3h1.8v4.3h4.3v1.8h-4.3v4.3H478.9z"/>
				</g>
				<g class="st1">
					<path class="st2" d="M528.2,617.2v-4.3h-4.3v-1.8h4.3v-4.3h1.8v4.3h4.3v1.8H530v4.3H528.2z"/>
				</g>
				<g class="st1">
					<path class="st2" d="M503.6,617.2v-4.3h-4.3v-1.8h4.3v-4.3h1.8v4.3h4.3v1.8h-4.3v4.3H503.6z"/>
				</g>
				<g class="st1">
					<path class="st2" d="M478.9,617.2v-4.3h-4.3v-1.8h4.3v-4.3h1.8v4.3h4.3v1.8h-4.3v4.3H478.9z"/>
				</g>
				<g class="st1">
					<path class="st2" d="M552.9,617.2v-4.3h-4.3v-1.8h4.3v-4.3h1.8v4.3h4.3v1.8h-4.2v4.3H552.9z"/>
				</g>
				<g class="st1">
					<path class="st2" d="M577.6,617.2v-4.3h-4.3v-1.8h4.3v-4.3h1.8v4.3h4.3v1.8h-4.3v4.3H577.6z"/>
				</g>
				<g class="st1">
					<path class="st2" d="M602.3,617.2v-4.3H598v-1.8h4.3v-4.3h1.8v4.3h4.3v1.8h-4.3v4.3H602.3z"/>
				</g>
			</g>
			<g>
				<g class="st1">
					<path class="st2" d="M306.1,641.9v-4.3h-4.3v-1.8h4.3v-4.3h1.8v4.3h4.3v1.8h-4.3v4.3H306.1z"/>
				</g>
				<g class="st1">
					<path class="st2" d="M330.7,641.9v-4.3h-4.3v-1.8h4.3v-4.3h1.8v4.3h4.3v1.8h-4.3v4.3H330.7z"/>
				</g>
				<g class="st1">
					<path class="st2" d="M355.4,641.9v-4.3h-4.3v-1.8h4.3v-4.3h1.8v4.3h4.3v1.8h-4.3v4.3H355.4z"/>
				</g>
				<g class="st1">
					<path class="st2" d="M380.1,641.9v-4.3h-4.3v-1.8h4.3v-4.3h1.8v4.3h4.3v1.8h-4.3v4.3H380.1z"/>
				</g>
				<g class="st1">
					<path class="st2" d="M404.8,641.9v-4.3h-4.3v-1.8h4.3v-4.3h1.8v4.3h4.3v1.8h-4.3v4.3H404.8z"/>
				</g>
				<g class="st1">
					<path class="st2" d="M429.5,641.9v-4.3h-4.3v-1.8h4.3v-4.3h1.8v4.3h4.3v1.8h-4.3v4.3H429.5z"/>
				</g>
				<g class="st1">
					<path class="st2" d="M454.2,641.9v-4.3h-4.3v-1.8h4.3v-4.3h1.8v4.3h4.3v1.8H456v4.3H454.2z"/>
				</g>
				<g class="st1">
					<path class="st2" d="M478.9,641.9v-4.3h-4.3v-1.8h4.3v-4.3h1.8v4.3h4.3v1.8h-4.3v4.3H478.9z"/>
				</g>
				<g class="st1">
					<path class="st2" d="M528.2,641.9v-4.3h-4.3v-1.8h4.3v-4.3h1.8v4.3h4.3v1.8H530v4.3H528.2z"/>
				</g>
				<g class="st1">
					<path class="st2" d="M503.6,641.9v-4.3h-4.3v-1.8h4.3v-4.3h1.8v4.3h4.3v1.8h-4.3v4.3H503.6z"/>
				</g>
				<g class="st1">
					<path class="st2" d="M478.9,641.9v-4.3h-4.3v-1.8h4.3v-4.3h1.8v4.3h4.3v1.8h-4.3v4.3H478.9z"/>
				</g>
				<g class="st1">
					<path class="st2" d="M552.9,641.9v-4.3h-4.3v-1.8h4.3v-4.3h1.8v4.3h4.3v1.8h-4.2v4.3H552.9z"/>
				</g>
				<g class="st1">
					<path class="st2" d="M577.6,641.9v-4.3h-4.3v-1.8h4.3v-4.3h1.8v4.3h4.3v1.8h-4.3v4.3H577.6z"/>
				</g>
				<g class="st1">
					<path class="st2" d="M602.3,641.9v-4.3H598v-1.8h4.3v-4.3h1.8v4.3h4.3v1.8h-4.3v4.3H602.3z"/>
				</g>
			</g>
		</g>
	</g>
</g>
<g>
	<g class="st0">
		<g>
			<g>
				<g class="st1">
					<path class="st2" d="M4.3,10.4V6.1H0V4.3h4.3V0h1.8v4.3h4.3v1.8H6.1v4.3H4.3z"/>
				</g>
				<g class="st1">
					<path class="st2" d="M29,10.4V6.1h-4.3V4.3H29V0h1.8v4.3h4.3v1.8h-4.3v4.3H29z"/>
				</g>
				<g class="st1">
					<path class="st2" d="M53.7,10.4V6.1h-4.3V4.3h4.3V0h1.8v4.3h4.3v1.8h-4.3v4.3H53.7z"/>
				</g>
				<g class="st1">
					<path class="st2" d="M78.4,10.4V6.1h-4.3V4.3h4.3V0h1.8v4.3h4.3v1.8h-4.3v4.3H78.4z"/>
				</g>
				<g class="st1">
					<path class="st2" d="M103.1,10.4V6.1h-4.3V4.3h4.3V0h1.8v4.3h4.3v1.8h-4.3v4.3H103.1z"/>
				</g>
				<g class="st1">
					<path class="st2" d="M127.7,10.4V6.1h-4.3V4.3h4.3V0h1.8v4.3h4.3v1.8h-4.3v4.3H127.7z"/>
				</g>
				<g class="st1">
					<path class="st2" d="M152.4,10.4V6.1h-4.3V4.3h4.3V0h1.8v4.3h4.3v1.8h-4.3v4.3H152.4z"/>
				</g>
				<g class="st1">
					<path class="st2" d="M177.1,10.4V6.1h-4.3V4.3h4.3V0h1.8v4.3h4.3v1.8h-4.3v4.3H177.1z"/>
				</g>
				<g class="st1">
					<path class="st2" d="M226.5,10.4V6.1h-4.3V4.3h4.3V0h1.8v4.3h4.3v1.8h-4.3v4.3H226.5z"/>
				</g>
				<g class="st1">
					<path class="st2" d="M201.8,10.4V6.1h-4.3V4.3h4.3V0h1.8v4.3h4.3v1.8h-4.3v4.3H201.8z"/>
				</g>
				<g class="st1">
					<path class="st2" d="M177.1,10.4V6.1h-4.3V4.3h4.3V0h1.8v4.3h4.3v1.8h-4.3v4.3H177.1z"/>
				</g>
				<g class="st1">
					<path class="st2" d="M251.2,10.4V6.1h-4.3V4.3h4.3V0h1.8v4.3h4.3v1.8H253v4.3H251.2z"/>
				</g>
				<g class="st1">
					<path class="st2" d="M275.9,10.4V6.1h-4.3V4.3h4.3V0h1.8v4.3h4.3v1.8h-4.3v4.3H275.9z"/>
				</g>
				<g class="st1">
					<path class="st2" d="M300.6,10.4V6.1h-4.3V4.3h4.3V0h1.8v4.3h4.3v1.8h-4.3v4.3H300.6z"/>
				</g>
			</g>
			<g>
				<g class="st1">
					<path class="st2" d="M4.3,35.1v-4.3H0V29h4.3v-4.3h1.8V29h4.3v1.8H6.1v4.3H4.3z"/>
				</g>
				<g class="st1">
					<path class="st2" d="M29,35.1v-4.3h-4.3V29H29v-4.3h1.8V29h4.3v1.8h-4.3v4.3H29z"/>
				</g>
				<g class="st1">
					<path class="st2" d="M53.7,35.1v-4.3h-4.3V29h4.3v-4.3h1.8V29h4.3v1.8h-4.3v4.3H53.7z"/>
				</g>
				<g class="st1">
					<path class="st2" d="M78.4,35.1v-4.3h-4.3V29h4.3v-4.3h1.8V29h4.3v1.8h-4.3v4.3H78.4z"/>
				</g>
				<g class="st1">
					<path class="st2" d="M103.1,35.1v-4.3h-4.3V29h4.3v-4.3h1.8V29h4.3v1.8h-4.3v4.3H103.1z"/>
				</g>
				<g class="st1">
					<path class="st2" d="M127.7,35.1v-4.3h-4.3V29h4.3v-4.3h1.8V29h4.3v1.8h-4.3v4.3H127.7z"/>
				</g>
				<g class="st1">
					<path class="st2" d="M152.4,35.1v-4.3h-4.3V29h4.3v-4.3h1.8V29h4.3v1.8h-4.3v4.3H152.4z"/>
				</g>
				<g class="st1">
					<path class="st2" d="M177.1,35.1v-4.3h-4.3V29h4.3v-4.3h1.8V29h4.3v1.8h-4.3v4.3H177.1z"/>
				</g>
				<g class="st1">
					<path class="st2" d="M226.5,35.1v-4.3h-4.3V29h4.3v-4.3h1.8V29h4.3v1.8h-4.3v4.3H226.5z"/>
				</g>
				<g class="st1">
					<path class="st2" d="M201.8,35.1v-4.3h-4.3V29h4.3v-4.3h1.8V29h4.3v1.8h-4.3v4.3H201.8z"/>
				</g>
				<g class="st1">
					<path class="st2" d="M177.1,35.1v-4.3h-4.3V29h4.3v-4.3h1.8V29h4.3v1.8h-4.3v4.3H177.1z"/>
				</g>
				<g class="st1">
					<path class="st2" d="M251.2,35.1v-4.3h-4.3V29h4.3v-4.3h1.8V29h4.3v1.8H253v4.3H251.2z"/>
				</g>
				<g class="st1">
					<path class="st2" d="M275.9,35.1v-4.3h-4.3V29h4.3v-4.3h1.8V29h4.3v1.8h-4.3v4.3H275.9z"/>
				</g>
				<g class="st1">
					<path class="st2" d="M300.6,35.1v-4.3h-4.3V29h4.3v-4.3h1.8V29h4.3v1.8h-4.3v4.3H300.6z"/>
				</g>
			</g>
			<g>
				<g class="st1">
					<path class="st2" d="M4.3,59.8v-4.3H0v-1.8h4.3v-4.3h1.8v4.3h4.3v1.8H6.1v4.3H4.3z"/>
				</g>
				<g class="st1">
					<path class="st2" d="M29,59.8v-4.3h-4.3v-1.8H29v-4.3h1.8v4.3h4.3v1.8h-4.3v4.3H29z"/>
				</g>
				<g class="st1">
					<path class="st2" d="M53.7,59.8v-4.3h-4.3v-1.8h4.3v-4.3h1.8v4.3h4.3v1.8h-4.3v4.3H53.7z"/>
				</g>
				<g class="st1">
					<path class="st2" d="M78.4,59.8v-4.3h-4.3v-1.8h4.3v-4.3h1.8v4.3h4.3v1.8h-4.3v4.3H78.4z"/>
				</g>
				<g class="st1">
					<path class="st2" d="M103.1,59.8v-4.3h-4.3v-1.8h4.3v-4.3h1.8v4.3h4.3v1.8h-4.3v4.3H103.1z"/>
				</g>
				<g class="st1">
					<path class="st2" d="M127.7,59.8v-4.3h-4.3v-1.8h4.3v-4.3h1.8v4.3h4.3v1.8h-4.3v4.3H127.7z"/>
				</g>
				<g class="st1">
					<path class="st2" d="M152.4,59.8v-4.3h-4.3v-1.8h4.3v-4.3h1.8v4.3h4.3v1.8h-4.3v4.3H152.4z"/>
				</g>
				<g class="st1">
					<path class="st2" d="M177.1,59.8v-4.3h-4.3v-1.8h4.3v-4.3h1.8v4.3h4.3v1.8h-4.3v4.3H177.1z"/>
				</g>
				<g class="st1">
					<path class="st2" d="M226.5,59.8v-4.3h-4.3v-1.8h4.3v-4.3h1.8v4.3h4.3v1.8h-4.3v4.3H226.5z"/>
				</g>
				<g class="st1">
					<path class="st2" d="M201.8,59.8v-4.3h-4.3v-1.8h4.3v-4.3h1.8v4.3h4.3v1.8h-4.3v4.3H201.8z"/>
				</g>
				<g class="st1">
					<path class="st2" d="M177.1,59.8v-4.3h-4.3v-1.8h4.3v-4.3h1.8v4.3h4.3v1.8h-4.3v4.3H177.1z"/>
				</g>
				<g class="st1">
					<path class="st2" d="M251.2,59.8v-4.3h-4.3v-1.8h4.3v-4.3h1.8v4.3h4.3v1.8H253v4.3H251.2z"/>
				</g>
				<g class="st1">
					<path class="st2" d="M275.9,59.8v-4.3h-4.3v-1.8h4.3v-4.3h1.8v4.3h4.3v1.8h-4.3v4.3H275.9z"/>
				</g>
				<g class="st1">
					<path class="st2" d="M300.6,59.8v-4.3h-4.3v-1.8h4.3v-4.3h1.8v4.3h4.3v1.8h-4.3v4.3H300.6z"/>
				</g>
			</g>
			<g>
				<g class="st1">
					<path class="st2" d="M4.3,84.5v-4.3H0v-1.8h4.3v-4.3h1.8v4.3h4.3v1.8H6.1v4.3C6.1,84.5,4.3,84.5,4.3,84.5z"/>
				</g>
				<g class="st1">
					<path class="st2" d="M29,84.5v-4.3h-4.3v-1.8H29v-4.3h1.8v4.3h4.3v1.8h-4.3v4.3C30.8,84.5,29,84.5,29,84.5z"/>
				</g>
				<g class="st1">
					<path class="st2" d="M53.7,84.5v-4.3h-4.3v-1.8h4.3v-4.3h1.8v4.3h4.3v1.8h-4.3v4.3C55.5,84.5,53.7,84.5,53.7,84.5z"/>
				</g>
				<g class="st1">
					<path class="st2" d="M78.4,84.5v-4.3h-4.3v-1.8h4.3v-4.3h1.8v4.3h4.3v1.8h-4.3v4.3C80.2,84.5,78.4,84.5,78.4,84.5z"/>
				</g>
				<g class="st1">
					<path class="st2" d="M103.1,84.5v-4.3h-4.3v-1.8h4.3v-4.3h1.8v4.3h4.3v1.8h-4.3v4.3C104.9,84.5,103.1,84.5,103.1,84.5z"/>
				</g>
				<g class="st1">
					<path class="st2" d="M127.7,84.5v-4.3h-4.3v-1.8h4.3v-4.3h1.8v4.3h4.3v1.8h-4.3v4.3C129.5,84.5,127.7,84.5,127.7,84.5z"/>
				</g>
				<g class="st1">
					<path class="st2" d="M152.4,84.5v-4.3h-4.3v-1.8h4.3v-4.3h1.8v4.3h4.3v1.8h-4.3v4.3C154.2,84.5,152.4,84.5,152.4,84.5z"/>
				</g>
				<g class="st1">
					<path class="st2" d="M177.1,84.5v-4.3h-4.3v-1.8h4.3v-4.3h1.8v4.3h4.3v1.8h-4.3v4.3C178.9,84.5,177.1,84.5,177.1,84.5z"/>
				</g>
				<g class="st1">
					<path class="st2" d="M226.5,84.5v-4.3h-4.3v-1.8h4.3v-4.3h1.8v4.3h4.3v1.8h-4.3v4.3C228.3,84.5,226.5,84.5,226.5,84.5z"/>
				</g>
				<g class="st1">
					<path class="st2" d="M201.8,84.5v-4.3h-4.3v-1.8h4.3v-4.3h1.8v4.3h4.3v1.8h-4.3v4.3C203.6,84.5,201.8,84.5,201.8,84.5z"/>
				</g>
				<g class="st1">
					<path class="st2" d="M177.1,84.5v-4.3h-4.3v-1.8h4.3v-4.3h1.8v4.3h4.3v1.8h-4.3v4.3C178.9,84.5,177.1,84.5,177.1,84.5z"/>
				</g>
				<g class="st1">
					<path class="st2" d="M251.2,84.5v-4.3h-4.3v-1.8h4.3v-4.3h1.8v4.3h4.3v1.8H253v4.3C253,84.5,251.2,84.5,251.2,84.5z"/>
				</g>
				<g class="st1">
					<path class="st2" d="M275.9,84.5v-4.3h-4.3v-1.8h4.3v-4.3h1.8v4.3h4.3v1.8h-4.3v4.3C277.7,84.5,275.9,84.5,275.9,84.5z"/>
				</g>
				<g class="st1">
					<path class="st2" d="M300.6,84.5v-4.3h-4.3v-1.8h4.3v-4.3h1.8v4.3h4.3v1.8h-4.3v4.3C302.4,84.5,300.6,84.5,300.6,84.5z"/>
				</g>
			</g>
			<g>
				<g class="st1">
					<path class="st2" d="M4.3,109.2v-4.3H0v-1.8h4.3v-4.3h1.8v4.3h4.3v1.8H6.1v4.3C6.1,109.2,4.3,109.2,4.3,109.2z"/>
				</g>
				<g class="st1">
					<path class="st2" d="M29,109.2v-4.3h-4.3v-1.8H29v-4.3h1.8v4.3h4.3v1.8h-4.3v4.3C30.8,109.2,29,109.2,29,109.2z"/>
				</g>
				<g class="st1">
					<path class="st2" d="M53.7,109.2v-4.3h-4.3v-1.8h4.3v-4.3h1.8v4.3h4.3v1.8h-4.3v4.3C55.5,109.2,53.7,109.2,53.7,109.2z"/>
				</g>
				<g class="st1">
					<path class="st2" d="M78.4,109.2v-4.3h-4.3v-1.8h4.3v-4.3h1.8v4.3h4.3v1.8h-4.3v4.3C80.2,109.2,78.4,109.2,78.4,109.2z"/>
				</g>
				<g class="st1">
					<path class="st2" d="M103.1,109.2v-4.3h-4.3v-1.8h4.3v-4.3h1.8v4.3h4.3v1.8h-4.3v4.3C104.9,109.2,103.1,109.2,103.1,109.2z"/>
				</g>
				<g class="st1">
					<path class="st2" d="M127.7,109.2v-4.3h-4.3v-1.8h4.3v-4.3h1.8v4.3h4.3v1.8h-4.3v4.3C129.5,109.2,127.7,109.2,127.7,109.2z"/>
				</g>
				<g class="st1">
					<path class="st2" d="M152.4,109.2v-4.3h-4.3v-1.8h4.3v-4.3h1.8v4.3h4.3v1.8h-4.3v4.3C154.2,109.2,152.4,109.2,152.4,109.2z"/>
				</g>
				<g class="st1">
					<path class="st2" d="M177.1,109.2v-4.3h-4.3v-1.8h4.3v-4.3h1.8v4.3h4.3v1.8h-4.3v4.3C178.9,109.2,177.1,109.2,177.1,109.2z"/>
				</g>
				<g class="st1">
					<path class="st2" d="M226.5,109.2v-4.3h-4.3v-1.8h4.3v-4.3h1.8v4.3h4.3v1.8h-4.3v4.3C228.3,109.2,226.5,109.2,226.5,109.2z"/>
				</g>
				<g class="st1">
					<path class="st2" d="M201.8,109.2v-4.3h-4.3v-1.8h4.3v-4.3h1.8v4.3h4.3v1.8h-4.3v4.3C203.6,109.2,201.8,109.2,201.8,109.2z"/>
				</g>
				<g class="st1">
					<path class="st2" d="M177.1,109.2v-4.3h-4.3v-1.8h4.3v-4.3h1.8v4.3h4.3v1.8h-4.3v4.3C178.9,109.2,177.1,109.2,177.1,109.2z"/>
				</g>
				<g class="st1">
					<path class="st2" d="M251.2,109.2v-4.3h-4.3v-1.8h4.3v-4.3h1.8v4.3h4.3v1.8H253v4.3C253,109.2,251.2,109.2,251.2,109.2z"/>
				</g>
				<g class="st1">
					<path class="st2" d="M275.9,109.2v-4.3h-4.3v-1.8h4.3v-4.3h1.8v4.3h4.3v1.8h-4.3v4.3C277.7,109.2,275.9,109.2,275.9,109.2z"/>
				</g>
				<g class="st1">
					<path class="st2" d="M300.6,109.2v-4.3h-4.3v-1.8h4.3v-4.3h1.8v4.3h4.3v1.8h-4.3v4.3C302.4,109.2,300.6,109.2,300.6,109.2z"/>
				</g>
			</g>
			<g>
				<g class="st1">
					<path class="st2" d="M4.3,133.9v-4.3H0v-1.8h4.3v-4.3h1.8v4.3h4.3v1.8H6.1v4.3H4.3z"/>
				</g>
				<g class="st1">
					<path class="st2" d="M29,133.9v-4.3h-4.3v-1.8H29v-4.3h1.8v4.3h4.3v1.8h-4.3v4.3H29z"/>
				</g>
				<g class="st1">
					<path class="st2" d="M53.7,133.9v-4.3h-4.3v-1.8h4.3v-4.3h1.8v4.3h4.3v1.8h-4.3v4.3H53.7z"/>
				</g>
				<g class="st1">
					<path class="st2" d="M78.4,133.9v-4.3h-4.3v-1.8h4.3v-4.3h1.8v4.3h4.3v1.8h-4.3v4.3H78.4z"/>
				</g>
				<g class="st1">
					<path class="st2" d="M103.1,133.9v-4.3h-4.3v-1.8h4.3v-4.3h1.8v4.3h4.3v1.8h-4.3v4.3H103.1z"/>
				</g>
				<g class="st1">
					<path class="st2" d="M127.7,133.9v-4.3h-4.3v-1.8h4.3v-4.3h1.8v4.3h4.3v1.8h-4.3v4.3H127.7z"/>
				</g>
				<g class="st1">
					<path class="st2" d="M152.4,133.9v-4.3h-4.3v-1.8h4.3v-4.3h1.8v4.3h4.3v1.8h-4.3v4.3H152.4z"/>
				</g>
				<g class="st1">
					<path class="st2" d="M177.1,133.9v-4.3h-4.3v-1.8h4.3v-4.3h1.8v4.3h4.3v1.8h-4.3v4.3H177.1z"/>
				</g>
				<g class="st1">
					<path class="st2" d="M226.5,133.9v-4.3h-4.3v-1.8h4.3v-4.3h1.8v4.3h4.3v1.8h-4.3v4.3H226.5z"/>
				</g>
				<g class="st1">
					<path class="st2" d="M201.8,133.9v-4.3h-4.3v-1.8h4.3v-4.3h1.8v4.3h4.3v1.8h-4.3v4.3H201.8z"/>
				</g>
				<g class="st1">
					<path class="st2" d="M177.1,133.9v-4.3h-4.3v-1.8h4.3v-4.3h1.8v4.3h4.3v1.8h-4.3v4.3H177.1z"/>
				</g>
				<g class="st1">
					<path class="st2" d="M251.2,133.9v-4.3h-4.3v-1.8h4.3v-4.3h1.8v4.3h4.3v1.8H253v4.3H251.2z"/>
				</g>
				<g class="st1">
					<path class="st2" d="M275.9,133.9v-4.3h-4.3v-1.8h4.3v-4.3h1.8v4.3h4.3v1.8h-4.3v4.3H275.9z"/>
				</g>
				<g class="st1">
					<path class="st2" d="M300.6,133.9v-4.3h-4.3v-1.8h4.3v-4.3h1.8v4.3h4.3v1.8h-4.3v4.3H300.6z"/>
				</g>
			</g>
		</g>
		<g>
			<g>
				<g class="st1">
					<path class="st2" d="M4.3,158.6v-4.3H0v-1.8h4.3v-4.4h1.8v4.3h4.3v1.8H6.1v4.3L4.3,158.6L4.3,158.6z"/>
				</g>
				<g class="st1">
					<path class="st2" d="M29,158.6v-4.3h-4.3v-1.8H29v-4.4h1.8v4.3h4.3v1.8h-4.3v4.3L29,158.6L29,158.6z"/>
				</g>
				<g class="st1">
					<path class="st2" d="M53.7,158.6v-4.3h-4.3v-1.8h4.3v-4.4h1.8v4.3h4.3v1.8h-4.3v4.3L53.7,158.6L53.7,158.6z"/>
				</g>
				<g class="st1">
					<path class="st2" d="M78.4,158.6v-4.3h-4.3v-1.8h4.3v-4.4h1.8v4.3h4.3v1.8h-4.3v4.3L78.4,158.6L78.4,158.6z"/>
				</g>
				<g class="st1">
					<path class="st2" d="M103.1,158.6v-4.3h-4.3v-1.8h4.3v-4.4h1.8v4.3h4.3v1.8h-4.3v4.3L103.1,158.6L103.1,158.6z"/>
				</g>
				<g class="st1">
					<path class="st2" d="M127.7,158.6v-4.3h-4.3v-1.8h4.3v-4.4h1.8v4.3h4.3v1.8h-4.3v4.3L127.7,158.6L127.7,158.6z"/>
				</g>
				<g class="st1">
					<path class="st2" d="M152.4,158.6v-4.3h-4.3v-1.8h4.3v-4.4h1.8v4.3h4.3v1.8h-4.3v4.3L152.4,158.6L152.4,158.6z"/>
				</g>
				<g class="st1">
					<path class="st2" d="M177.1,158.6v-4.3h-4.3v-1.8h4.3v-4.4h1.8v4.3h4.3v1.8h-4.3v4.3L177.1,158.6L177.1,158.6z"/>
				</g>
				<g class="st1">
					<path class="st2" d="M226.5,158.6v-4.3h-4.3v-1.8h4.3v-4.4h1.8v4.3h4.3v1.8h-4.3v4.3L226.5,158.6L226.5,158.6z"/>
				</g>
				<g class="st1">
					<path class="st2" d="M201.8,158.6v-4.3h-4.3v-1.8h4.3v-4.4h1.8v4.3h4.3v1.8h-4.3v4.3L201.8,158.6L201.8,158.6z"/>
				</g>
				<g class="st1">
					<path class="st2" d="M177.1,158.6v-4.3h-4.3v-1.8h4.3v-4.4h1.8v4.3h4.3v1.8h-4.3v4.3L177.1,158.6L177.1,158.6z"/>
				</g>
				<g class="st1">
					<path class="st2" d="M251.2,158.6v-4.3h-4.3v-1.8h4.3v-4.4h1.8v4.3h4.3v1.8H253v4.3L251.2,158.6L251.2,158.6z"/>
				</g>
				<g class="st1">
					<path class="st2" d="M275.9,158.6v-4.3h-4.3v-1.8h4.3v-4.4h1.8v4.3h4.3v1.8h-4.3v4.3L275.9,158.6L275.9,158.6z"/>
				</g>
				<g class="st1">
					<path class="st2" d="M300.6,158.6v-4.3h-4.3v-1.8h4.3v-4.4h1.8v4.3h4.3v1.8h-4.3v4.3L300.6,158.6L300.6,158.6z"/>
				</g>
			</g>
			<g>
				<g class="st1">
					<path class="st2" d="M4.3,183.2v-4.3H0v-1.8h4.3v-4.3h1.8v4.3h4.3v1.8H6.1v4.3H4.3z"/>
				</g>
				<g class="st1">
					<path class="st2" d="M29,183.2v-4.3h-4.3v-1.8H29v-4.3h1.8v4.3h4.3v1.8h-4.3v4.3H29z"/>
				</g>
				<g class="st1">
					<path class="st2" d="M53.7,183.2v-4.3h-4.3v-1.8h4.3v-4.3h1.8v4.3h4.3v1.8h-4.3v4.3H53.7z"/>
				</g>
				<g class="st1">
					<path class="st2" d="M78.4,183.2v-4.3h-4.3v-1.8h4.3v-4.3h1.8v4.3h4.3v1.8h-4.3v4.3H78.4z"/>
				</g>
				<g class="st1">
					<path class="st2" d="M103.1,183.2v-4.3h-4.3v-1.8h4.3v-4.3h1.8v4.3h4.3v1.8h-4.3v4.3H103.1z"/>
				</g>
				<g class="st1">
					<path class="st2" d="M127.7,183.2v-4.3h-4.3v-1.8h4.3v-4.3h1.8v4.3h4.3v1.8h-4.3v4.3H127.7z"/>
				</g>
				<g class="st1">
					<path class="st2" d="M152.4,183.2v-4.3h-4.3v-1.8h4.3v-4.3h1.8v4.3h4.3v1.8h-4.3v4.3H152.4z"/>
				</g>
				<g class="st1">
					<path class="st2" d="M177.1,183.2v-4.3h-4.3v-1.8h4.3v-4.3h1.8v4.3h4.3v1.8h-4.3v4.3H177.1z"/>
				</g>
				<g class="st1">
					<path class="st2" d="M226.5,183.2v-4.3h-4.3v-1.8h4.3v-4.3h1.8v4.3h4.3v1.8h-4.3v4.3H226.5z"/>
				</g>
				<g class="st1">
					<path class="st2" d="M201.8,183.2v-4.3h-4.3v-1.8h4.3v-4.3h1.8v4.3h4.3v1.8h-4.3v4.3H201.8z"/>
				</g>
				<g class="st1">
					<path class="st2" d="M177.1,183.2v-4.3h-4.3v-1.8h4.3v-4.3h1.8v4.3h4.3v1.8h-4.3v4.3H177.1z"/>
				</g>
				<g class="st1">
					<path class="st2" d="M251.2,183.2v-4.3h-4.3v-1.8h4.3v-4.3h1.8v4.3h4.3v1.8H253v4.3H251.2z"/>
				</g>
				<g class="st1">
					<path class="st2" d="M275.9,183.2v-4.3h-4.3v-1.8h4.3v-4.3h1.8v4.3h4.3v1.8h-4.3v4.3H275.9z"/>
				</g>
				<g class="st1">
					<path class="st2" d="M300.6,183.2v-4.3h-4.3v-1.8h4.3v-4.3h1.8v4.3h4.3v1.8h-4.3v4.3H300.6z"/>
				</g>
			</g>
			<g>
				<g class="st1">
					<path class="st2" d="M4.3,207.9v-4.3H0v-1.8h4.3v-4.3h1.8v4.3h4.3v1.8H6.1v4.3H4.3z"/>
				</g>
				<g class="st1">
					<path class="st2" d="M29,207.9v-4.3h-4.3v-1.8H29v-4.3h1.8v4.3h4.3v1.8h-4.3v4.3H29z"/>
				</g>
				<g class="st1">
					<path class="st2" d="M53.7,207.9v-4.3h-4.3v-1.8h4.3v-4.3h1.8v4.3h4.3v1.8h-4.3v4.3H53.7z"/>
				</g>
				<g class="st1">
					<path class="st2" d="M78.4,207.9v-4.3h-4.3v-1.8h4.3v-4.3h1.8v4.3h4.3v1.8h-4.3v4.3H78.4z"/>
				</g>
				<g class="st1">
					<path class="st2" d="M103.1,207.9v-4.3h-4.3v-1.8h4.3v-4.3h1.8v4.3h4.3v1.8h-4.3v4.3H103.1z"/>
				</g>
				<g class="st1">
					<path class="st2" d="M127.7,207.9v-4.3h-4.3v-1.8h4.3v-4.3h1.8v4.3h4.3v1.8h-4.3v4.3H127.7z"/>
				</g>
				<g class="st1">
					<path class="st2" d="M152.4,207.9v-4.3h-4.3v-1.8h4.3v-4.3h1.8v4.3h4.3v1.8h-4.3v4.3H152.4z"/>
				</g>
				<g class="st1">
					<path class="st2" d="M177.1,207.9v-4.3h-4.3v-1.8h4.3v-4.3h1.8v4.3h4.3v1.8h-4.3v4.3H177.1z"/>
				</g>
				<g class="st1">
					<path class="st2" d="M226.5,207.9v-4.3h-4.3v-1.8h4.3v-4.3h1.8v4.3h4.3v1.8h-4.3v4.3H226.5z"/>
				</g>
				<g class="st1">
					<path class="st2" d="M201.8,207.9v-4.3h-4.3v-1.8h4.3v-4.3h1.8v4.3h4.3v1.8h-4.3v4.3H201.8z"/>
				</g>
				<g class="st1">
					<path class="st2" d="M177.1,207.9v-4.3h-4.3v-1.8h4.3v-4.3h1.8v4.3h4.3v1.8h-4.3v4.3H177.1z"/>
				</g>
				<g class="st1">
					<path class="st2" d="M251.2,207.9v-4.3h-4.3v-1.8h4.3v-4.3h1.8v4.3h4.3v1.8H253v4.3H251.2z"/>
				</g>
				<g class="st1">
					<path class="st2" d="M275.9,207.9v-4.3h-4.3v-1.8h4.3v-4.3h1.8v4.3h4.3v1.8h-4.3v4.3H275.9z"/>
				</g>
				<g class="st1">
					<path class="st2" d="M300.6,207.9v-4.3h-4.3v-1.8h4.3v-4.3h1.8v4.3h4.3v1.8h-4.3v4.3H300.6z"/>
				</g>
			</g>
			<g>
				<g class="st1">
					<path class="st2" d="M4.3,232.6v-4.3H0v-1.8h4.3v-4.3h1.8v4.3h4.3v1.8H6.1v4.3H4.3z"/>
				</g>
				<g class="st1">
					<path class="st2" d="M29,232.6v-4.3h-4.3v-1.8H29v-4.3h1.8v4.3h4.3v1.8h-4.3v4.3H29z"/>
				</g>
				<g class="st1">
					<path class="st2" d="M53.7,232.6v-4.3h-4.3v-1.8h4.3v-4.3h1.8v4.3h4.3v1.8h-4.3v4.3H53.7z"/>
				</g>
				<g class="st1">
					<path class="st2" d="M78.4,232.6v-4.3h-4.3v-1.8h4.3v-4.3h1.8v4.3h4.3v1.8h-4.3v4.3H78.4z"/>
				</g>
				<g class="st1">
					<path class="st2" d="M103.1,232.6v-4.3h-4.3v-1.8h4.3v-4.3h1.8v4.3h4.3v1.8h-4.3v4.3H103.1z"/>
				</g>
				<g class="st1">
					<path class="st2" d="M127.7,232.6v-4.3h-4.3v-1.8h4.3v-4.3h1.8v4.3h4.3v1.8h-4.3v4.3H127.7z"/>
				</g>
				<g class="st1">
					<path class="st2" d="M152.4,232.6v-4.3h-4.3v-1.8h4.3v-4.3h1.8v4.3h4.3v1.8h-4.3v4.3H152.4z"/>
				</g>
				<g class="st1">
					<path class="st2" d="M177.1,232.6v-4.3h-4.3v-1.8h4.3v-4.3h1.8v4.3h4.3v1.8h-4.3v4.3H177.1z"/>
				</g>
				<g class="st1">
					<path class="st2" d="M226.5,232.6v-4.3h-4.3v-1.8h4.3v-4.3h1.8v4.3h4.3v1.8h-4.3v4.3H226.5z"/>
				</g>
				<g class="st1">
					<path class="st2" d="M201.8,232.6v-4.3h-4.3v-1.8h4.3v-4.3h1.8v4.3h4.3v1.8h-4.3v4.3H201.8z"/>
				</g>
				<g class="st1">
					<path class="st2" d="M177.1,232.6v-4.3h-4.3v-1.8h4.3v-4.3h1.8v4.3h4.3v1.8h-4.3v4.3H177.1z"/>
				</g>
				<g class="st1">
					<path class="st2" d="M251.2,232.6v-4.3h-4.3v-1.8h4.3v-4.3h1.8v4.3h4.3v1.8H253v4.3H251.2z"/>
				</g>
				<g class="st1">
					<path class="st2" d="M275.9,232.6v-4.3h-4.3v-1.8h4.3v-4.3h1.8v4.3h4.3v1.8h-4.3v4.3H275.9z"/>
				</g>
				<g class="st1">
					<path class="st2" d="M300.6,232.6v-4.3h-4.3v-1.8h4.3v-4.3h1.8v4.3h4.3v1.8h-4.3v4.3H300.6z"/>
				</g>
			</g>
			<g>
				<g class="st1">
					<path class="st2" d="M4.3,257.3V253H0v-1.8h4.3v-4.3h1.8v4.3h4.3v1.8H6.1v4.3H4.3z"/>
				</g>
				<g class="st1">
					<path class="st2" d="M29,257.3V253h-4.3v-1.8H29v-4.3h1.8v4.3h4.3v1.8h-4.3v4.3H29z"/>
				</g>
				<g class="st1">
					<path class="st2" d="M53.7,257.3V253h-4.3v-1.8h4.3v-4.3h1.8v4.3h4.3v1.8h-4.3v4.3H53.7z"/>
				</g>
				<g class="st1">
					<path class="st2" d="M78.4,257.3V253h-4.3v-1.8h4.3v-4.3h1.8v4.3h4.3v1.8h-4.3v4.3H78.4z"/>
				</g>
				<g class="st1">
					<path class="st2" d="M103.1,257.3V253h-4.3v-1.8h4.3v-4.3h1.8v4.3h4.3v1.8h-4.3v4.3H103.1z"/>
				</g>
				<g class="st1">
					<path class="st2" d="M127.7,257.3V253h-4.3v-1.8h4.3v-4.3h1.8v4.3h4.3v1.8h-4.3v4.3H127.7z"/>
				</g>
				<g class="st1">
					<path class="st2" d="M152.4,257.3V253h-4.3v-1.8h4.3v-4.3h1.8v4.3h4.3v1.8h-4.3v4.3H152.4z"/>
				</g>
				<g class="st1">
					<path class="st2" d="M177.1,257.3V253h-4.3v-1.8h4.3v-4.3h1.8v4.3h4.3v1.8h-4.3v4.3H177.1z"/>
				</g>
				<g class="st1">
					<path class="st2" d="M226.5,257.3V253h-4.3v-1.8h4.3v-4.3h1.8v4.3h4.3v1.8h-4.3v4.3H226.5z"/>
				</g>
				<g class="st1">
					<path class="st2" d="M201.8,257.3V253h-4.3v-1.8h4.3v-4.3h1.8v4.3h4.3v1.8h-4.3v4.3H201.8z"/>
				</g>
				<g class="st1">
					<path class="st2" d="M177.1,257.3V253h-4.3v-1.8h4.3v-4.3h1.8v4.3h4.3v1.8h-4.3v4.3H177.1z"/>
				</g>
				<g class="st1">
					<path class="st2" d="M251.2,257.3V253h-4.3v-1.8h4.3v-4.3h1.8v4.3h4.3v1.8H253v4.3H251.2z"/>
				</g>
				<g class="st1">
					<path class="st2" d="M275.9,257.3V253h-4.3v-1.8h4.3v-4.3h1.8v4.3h4.3v1.8h-4.3v4.3H275.9z"/>
				</g>
				<g class="st1">
					<path class="st2" d="M300.6,257.3V253h-4.3v-1.8h4.3v-4.3h1.8v4.3h4.3v1.8h-4.3v4.3H300.6z"/>
				</g>
			</g>
			<g>
				<g class="st1">
					<path class="st2" d="M4.3,282v-4.3H0v-1.8h4.3v-4.3h1.8v4.3h4.3v1.8H6.1v4.3H4.3z"/>
				</g>
				<g class="st1">
					<path class="st2" d="M29,282v-4.3h-4.3v-1.8H29v-4.3h1.8v4.3h4.3v1.8h-4.3v4.3H29z"/>
				</g>
				<g class="st1">
					<path class="st2" d="M53.7,282v-4.3h-4.3v-1.8h4.3v-4.3h1.8v4.3h4.3v1.8h-4.3v4.3H53.7z"/>
				</g>
				<g class="st1">
					<path class="st2" d="M78.4,282v-4.3h-4.3v-1.8h4.3v-4.3h1.8v4.3h4.3v1.8h-4.3v4.3H78.4z"/>
				</g>
				<g class="st1">
					<path class="st2" d="M103.1,282v-4.3h-4.3v-1.8h4.3v-4.3h1.8v4.3h4.3v1.8h-4.3v4.3H103.1z"/>
				</g>
				<g class="st1">
					<path class="st2" d="M127.7,282v-4.3h-4.3v-1.8h4.3v-4.3h1.8v4.3h4.3v1.8h-4.3v4.3H127.7z"/>
				</g>
				<g class="st1">
					<path class="st2" d="M152.4,282v-4.3h-4.3v-1.8h4.3v-4.3h1.8v4.3h4.3v1.8h-4.3v4.3H152.4z"/>
				</g>
				<g class="st1">
					<path class="st2" d="M177.1,282v-4.3h-4.3v-1.8h4.3v-4.3h1.8v4.3h4.3v1.8h-4.3v4.3H177.1z"/>
				</g>
				<g class="st1">
					<path class="st2" d="M226.5,282v-4.3h-4.3v-1.8h4.3v-4.3h1.8v4.3h4.3v1.8h-4.3v4.3H226.5z"/>
				</g>
				<g class="st1">
					<path class="st2" d="M201.8,282v-4.3h-4.3v-1.8h4.3v-4.3h1.8v4.3h4.3v1.8h-4.3v4.3H201.8z"/>
				</g>
				<g class="st1">
					<path class="st2" d="M177.1,282v-4.3h-4.3v-1.8h4.3v-4.3h1.8v4.3h4.3v1.8h-4.3v4.3H177.1z"/>
				</g>
				<g class="st1">
					<path class="st2" d="M251.2,282v-4.3h-4.3v-1.8h4.3v-4.3h1.8v4.3h4.3v1.8H253v4.3H251.2z"/>
				</g>
				<g class="st1">
					<path class="st2" d="M275.9,282v-4.3h-4.3v-1.8h4.3v-4.3h1.8v4.3h4.3v1.8h-4.3v4.3H275.9z"/>
				</g>
				<g class="st1">
					<path class="st2" d="M300.6,282v-4.3h-4.3v-1.8h4.3v-4.3h1.8v4.3h4.3v1.8h-4.3v4.3H300.6z"/>
				</g>
			</g>
		</g>
	</g>
</g>
</svg>
