<svg id="SvgjsSvg1001" width="650" height="380" xmlns="http://www.w3.org/2000/svg" version="1.1" xmlns:xlink="http://www.w3.org/1999/xlink" xmlns:svgjs="http://svgjs.com/svgjs" class="apexcharts-svg hovering-zoom" xmlns:data="ApexChartsNS" transform="translate(0, 0)"><g id="SvgjsG1004" class="apexcharts-legend"></g><g id="SvgjsG1003" class="apexcharts-inner apexcharts-graphical" transform="translate(55.015625, 57)"><defs id="SvgjsDefs1002"><clipPath id="gridRectMaskb20tjoc"><rect id="SvgjsRect1034" width="584.984375" height="277.348" x="0" y="0" rx="0" ry="0" fill="#ffffff" opacity="1" stroke-width="0" stroke="none" stroke-dasharray="0"></rect></clipPath></defs><rect id="SvgjsRect1008" width="1" height="276.348" x="-500" y="0" rx="0" ry="0" fill="#b1b9c4" opacity="1" stroke-width="0" stroke-dasharray="0" class="apexcharts-xcrosshairs" filter="none" fill-opacity="0.9"></rect><g id="SvgjsG1084" class="apexcharts-xaxis"><g id="SvgjsG1085" class="apexcharts-xaxis-texts-g" transform="translate(0, -4)"><text id="SvgjsText1086" font-family="Helvetica, Arial, sans-serif" x="8.496112410771488" y="305.348" text-anchor="middle" dominate-baseline="central" class="apexcharts-xaxis-label apexcharts-xaxis-label" style="font-size: 12px; fill: rgb(55, 61, 63);" svgjs:data="{&quot;leading&quot;:&quot;1.3&quot;}"><tspan id="SvgjsTspan1087">Feb '16</tspan><title>Feb '16</title></text><text id="SvgjsText1088" font-family="Helvetica, Arial, sans-serif" x="84.96112410771488" y="305.348" text-anchor="middle" dominate-baseline="central" class="apexcharts-xaxis-label apexcharts-xaxis-label" style="font-size: 12px; fill: rgb(55, 61, 63);" svgjs:data="{&quot;leading&quot;:&quot;1.3&quot;}"><tspan id="SvgjsTspan1089">May '16</tspan><title>May '16</title></text><text id="SvgjsText1090" font-family="Helvetica, Arial, sans-serif" x="163.12535828681254" y="305.348" text-anchor="middle" dominate-baseline="central" class="apexcharts-xaxis-label apexcharts-xaxis-label" style="font-size: 12px; fill: rgb(55, 61, 63);" svgjs:data="{&quot;leading&quot;:&quot;1.3&quot;}"><tspan id="SvgjsTspan1091">Aug '16</tspan><title>Aug '16</title></text><text id="SvgjsText1092" font-family="Helvetica, Arial, sans-serif" x="241.2895924659102" y="305.348" text-anchor="middle" dominate-baseline="central" class="apexcharts-xaxis-label apexcharts-xaxis-label" style="font-size: 12px; fill: rgb(55, 61, 63);" svgjs:data="{&quot;leading&quot;:&quot;1.3&quot;}"><tspan id="SvgjsTspan1093">Nov '16</tspan><title>Nov '16</title></text><text id="SvgjsText1094" font-family="Helvetica, Arial, sans-serif" x="319.45382664500795" y="305.348" text-anchor="middle" dominate-baseline="central" class="apexcharts-xaxis-label apexcharts-xaxis-label" style="font-size: 12px; fill: rgb(55, 61, 63);" svgjs:data="{&quot;leading&quot;:&quot;1.3&quot;}"><tspan id="SvgjsTspan1095">Feb '17</tspan><title>Feb '17</title></text><text id="SvgjsText1096" font-family="Helvetica, Arial, sans-serif" x="395.06922710087423" y="305.348" text-anchor="middle" dominate-baseline="central" class="apexcharts-xaxis-label apexcharts-xaxis-label" style="font-size: 12px; fill: rgb(55, 61, 63);" svgjs:data="{&quot;leading&quot;:&quot;1.3&quot;}"><tspan id="SvgjsTspan1097">May '17</tspan><title>May '17</title></text><text id="SvgjsText1098" font-family="Helvetica, Arial, sans-serif" x="473.23346127997195" y="305.348" text-anchor="middle" dominate-baseline="central" class="apexcharts-xaxis-label apexcharts-xaxis-label" style="font-size: 12px; fill: rgb(55, 61, 63);" svgjs:data="{&quot;leading&quot;:&quot;1.3&quot;}"><tspan id="SvgjsTspan1099">Aug '17</tspan><title>Aug '17</title></text><text id="SvgjsText1100" font-family="Helvetica, Arial, sans-serif" x="551.3976954590697" y="305.348" text-anchor="middle" dominate-baseline="central" class="apexcharts-xaxis-label apexcharts-xaxis-label" style="font-size: 12px; fill: rgb(55, 61, 63);" svgjs:data="{&quot;leading&quot;:&quot;1.3&quot;}"><tspan id="SvgjsTspan1101">Nov '17</tspan><title>Nov '17</title></text></g><line id="SvgjsLine1102" x1="0" y1="277.348" x2="584.984375" y2="277.348" stroke="#78909c" stroke-dasharray="0" stroke-width="1"></line></g><g id="SvgjsG1112" class="apexcharts-grid"><line id="SvgjsLine1113" x1="8.496112410771488" y1="277.348" x2="8.496112410771488" y2="283.348" stroke="#78909c" stroke-dasharray="0" class="apexcharts-xaxis-tick"></line><line id="SvgjsLine1114" x1="84.96112410771488" y1="277.348" x2="84.96112410771488" y2="283.348" stroke="#78909c" stroke-dasharray="0" class="apexcharts-xaxis-tick"></line><line id="SvgjsLine1115" x1="163.12535828681254" y1="277.348" x2="163.12535828681254" y2="283.348" stroke="#78909c" stroke-dasharray="0" class="apexcharts-xaxis-tick"></line><line id="SvgjsLine1116" x1="241.2895924659102" y1="277.348" x2="241.2895924659102" y2="283.348" stroke="#78909c" stroke-dasharray="0" class="apexcharts-xaxis-tick"></line><line id="SvgjsLine1117" x1="319.45382664500795" y1="277.348" x2="319.45382664500795" y2="283.348" stroke="#78909c" stroke-dasharray="0" class="apexcharts-xaxis-tick"></line><line id="SvgjsLine1118" x1="395.06922710087423" y1="277.348" x2="395.06922710087423" y2="283.348" stroke="#78909c" stroke-dasharray="0" class="apexcharts-xaxis-tick"></line><line id="SvgjsLine1119" x1="473.23346127997195" y1="277.348" x2="473.23346127997195" y2="283.348" stroke="#78909c" stroke-dasharray="0" class="apexcharts-xaxis-tick"></line><line id="SvgjsLine1120" x1="551.3976954590697" y1="277.348" x2="551.3976954590697" y2="283.348" stroke="#78909c" stroke-dasharray="0" class="apexcharts-xaxis-tick"></line><line id="SvgjsLine1121" x1="0" y1="0" x2="584.984375" y2="0" stroke="#e0e0e0" stroke-dasharray="0" class="apexcharts-gridline"></line><line id="SvgjsLine1122" x1="0" y1="46.058" x2="584.984375" y2="46.058" stroke="#e0e0e0" stroke-dasharray="0" class="apexcharts-gridline"></line><line id="SvgjsLine1123" x1="0" y1="92.116" x2="584.984375" y2="92.116" stroke="#e0e0e0" stroke-dasharray="0" class="apexcharts-gridline"></line><line id="SvgjsLine1124" x1="0" y1="138.174" x2="584.984375" y2="138.174" stroke="#e0e0e0" stroke-dasharray="0" class="apexcharts-gridline"></line><line id="SvgjsLine1125" x1="0" y1="184.232" x2="584.984375" y2="184.232" stroke="#e0e0e0" stroke-dasharray="0" class="apexcharts-gridline"></line><line id="SvgjsLine1126" x1="0" y1="230.29" x2="584.984375" y2="230.29" stroke="#e0e0e0" stroke-dasharray="0" class="apexcharts-gridline"></line><line id="SvgjsLine1127" x1="0" y1="276.348" x2="584.984375" y2="276.348" stroke="#e0e0e0" stroke-dasharray="0" class="apexcharts-gridline"></line><line id="SvgjsLine1129" x1="0" y1="276.348" x2="584.984375" y2="276.348" stroke="transparent" stroke-dasharray="0"></line><line id="SvgjsLine1128" x1="0" y1="1" x2="0" y2="276.348" stroke="transparent" stroke-dasharray="0"></line></g><g id="SvgjsG1035" class="apexcharts-candlestick-series apexcharts-plot-series" clip-path="url(#gridRectMaskb20tjoc)"><g id="SvgjsG1036" class="apexcharts-series" rel="1" data:realIndex="0"><path id="apexcharts-candlestick-area-0" d="M-0.29348705888521565 186.5349C-0.29348705888521565 186.5349 8.23753507653145 186.5349 8.23753507653145 186.5349C8.23753507653145 186.5349 8.23753507653145 149.07439333333343 8.23753507653145 149.07439333333343C8.23753507653145 149.07439333333343 8.23753507653145 186.5349 8.23753507653145 186.5349C8.23753507653145 186.5349 16.768557211948117 186.5349 16.768557211948117 186.5349C16.768557211948117 186.5349 16.768557211948117 215.24438666666674 16.768557211948117 215.24438666666674C16.768557211948117 215.24438666666674 8.23753507653145 215.24438666666674 8.23753507653145 215.24438666666674C8.23753507653145 215.24438666666674 8.23753507653145 221.2319266666667 8.23753507653145 221.2319266666667C8.23753507653145 221.2319266666667 8.23753507653145 215.24438666666674 8.23753507653145 215.24438666666674C8.23753507653145 215.24438666666674 -0.29348705888521565 215.24438666666674 -0.29348705888521565 215.24438666666674C-0.29348705888521565 215.24438666666674 -0.29348705888521565 186.0349 -0.29348705888521565 186.0349 " fill="#00b746" fill-opacity="1" stroke="#333333" stroke-opacity="1" stroke-linecap="butt" stroke-width="1" stroke-dasharray="0" class="apexcharts-candlestick-area" index="0" pathTo="M -0.29348705888521565 186.5349L 8.23753507653145 186.5349L 8.23753507653145 149.07439333333343L 8.23753507653145 186.5349L 16.768557211948117 186.5349L 16.768557211948117 215.24438666666674L 8.23753507653145 215.24438666666674L 8.23753507653145 221.2319266666667L 8.23753507653145 215.24438666666674L -0.29348705888521565 215.24438666666674L -0.29348705888521565 186.0349" pathFrom="M -0.29348705888521565 1013.2760000000001" cy="186.5349" cx="15.268557211948117" j="0" val="53.85" barWidth="17.062044270833333"></path><path id="apexcharts-candlestick-area-0" d="M24.345238932352093 189.4519066666668C24.345238932352093 189.4519066666668 32.87626106776876 189.4519066666668 32.87626106776876 189.4519066666668C32.87626106776876 189.4519066666668 32.87626106776876 169.03286000000003 32.87626106776876 169.03286000000003C32.87626106776876 169.03286000000003 32.87626106776876 189.4519066666668 32.87626106776876 189.4519066666668C32.87626106776876 189.4519066666668 41.40728320318543 189.4519066666668 41.40728320318543 189.4519066666668C41.40728320318543 189.4519066666668 41.40728320318543 200.3523 41.40728320318543 200.3523C41.40728320318543 200.3523 32.87626106776876 200.3523 32.87626106776876 200.3523C32.87626106776876 200.3523 32.87626106776876 224.91656666666665 32.87626106776876 224.91656666666665C32.87626106776876 224.91656666666665 32.87626106776876 200.3523 32.87626106776876 200.3523C32.87626106776876 200.3523 24.345238932352093 200.3523 24.345238932352093 200.3523C24.345238932352093 200.3523 24.345238932352093 188.9519066666668 24.345238932352093 188.9519066666668 " fill="#ef403c" fill-opacity="1" stroke="#333333" stroke-opacity="1" stroke-linecap="butt" stroke-width="1" stroke-dasharray="0" class="apexcharts-candlestick-area" index="0" pathTo="M 24.345238932352093 189.4519066666668L 32.87626106776876 189.4519066666668L 32.87626106776876 169.03286000000003L 32.87626106776876 189.4519066666668L 41.40728320318543 189.4519066666668L 41.40728320318543 200.3523L 32.87626106776876 200.3523L 32.87626106776876 224.91656666666665L 32.87626106776876 200.3523L 24.345238932352093 200.3523L 24.345238932352093 188.9519066666668" pathFrom="M 24.345238932352093 1013.2760000000001" cy="189.4519066666668" cx="39.90728320318543" j="1" val="52.95" barWidth="17.062044270833333"></path><path id="apexcharts-candlestick-area-0" d="M50.68318740574371 200.1987733333334C50.68318740574371 200.1987733333334 59.21420954116037 200.1987733333334 59.21420954116037 200.1987733333334C59.21420954116037 200.1987733333334 59.21420954116037 187.6095866666667 59.21420954116037 187.6095866666667C59.21420954116037 187.6095866666667 59.21420954116037 200.1987733333334 59.21420954116037 200.1987733333334C59.21420954116037 200.1987733333334 67.74523167657705 200.1987733333334 67.74523167657705 200.1987733333334C67.74523167657705 200.1987733333334 67.74523167657705 207.5680533333334 67.74523167657705 207.5680533333334C67.74523167657705 207.5680533333334 59.21420954116037 207.5680533333334 59.21420954116037 207.5680533333334C59.21420954116037 207.5680533333334 59.21420954116037 221.9995600000001 59.21420954116037 221.9995600000001C59.21420954116037 221.9995600000001 59.21420954116037 207.5680533333334 59.21420954116037 207.5680533333334C59.21420954116037 207.5680533333334 50.68318740574371 207.5680533333334 50.68318740574371 207.5680533333334C50.68318740574371 207.5680533333334 50.68318740574371 199.6987733333334 50.68318740574371 199.6987733333334 " fill="#ef403c" fill-opacity="1" stroke="#333333" stroke-opacity="1" stroke-linecap="butt" stroke-width="1" stroke-dasharray="0" class="apexcharts-candlestick-area" index="0" pathTo="M 50.68318740574371 200.1987733333334L 59.21420954116037 200.1987733333334L 59.21420954116037 187.6095866666667L 59.21420954116037 200.1987733333334L 67.74523167657705 200.1987733333334L 67.74523167657705 207.5680533333334L 59.21420954116037 207.5680533333334L 59.21420954116037 221.9995600000001L 59.21420954116037 207.5680533333334L 50.68318740574371 207.5680533333334L 50.68318740574371 199.6987733333334" pathFrom="M 50.68318740574371 1013.2760000000001" cy="200.1987733333334" cx="66.24523167657705" j="2" val="52.48" barWidth="17.062044270833333"></path><path id="apexcharts-candlestick-area-0" d="M76.17152463805817 206.64689333333342C76.17152463805817 206.64689333333342 84.70254677347484 206.64689333333342 84.70254677347484 206.64689333333342C84.70254677347484 206.64689333333342 84.70254677347484 202.80872666666676 84.70254677347484 202.80872666666676C84.70254677347484 202.80872666666676 84.70254677347484 206.64689333333342 84.70254677347484 206.64689333333342C84.70254677347484 206.64689333333342 93.2335689088915 206.64689333333342 93.2335689088915 206.64689333333342C93.2335689088915 206.64689333333342 93.2335689088915 257.31069333333335 93.2335689088915 257.31069333333335C93.2335689088915 257.31069333333335 84.70254677347484 257.31069333333335 84.70254677347484 257.31069333333335C84.70254677347484 257.31069333333335 84.70254677347484 278.19032000000004 84.70254677347484 278.19032000000004C84.70254677347484 278.19032000000004 84.70254677347484 257.31069333333335 84.70254677347484 257.31069333333335C84.70254677347484 257.31069333333335 76.17152463805817 257.31069333333335 76.17152463805817 257.31069333333335C76.17152463805817 257.31069333333335 76.17152463805817 206.14689333333342 76.17152463805817 206.14689333333342 " fill="#ef403c" fill-opacity="1" stroke="#333333" stroke-opacity="1" stroke-linecap="butt" stroke-width="1" stroke-dasharray="0" class="apexcharts-candlestick-area" index="0" pathTo="M 76.17152463805817 206.64689333333342L 84.70254677347484 206.64689333333342L 84.70254677347484 202.80872666666676L 84.70254677347484 206.64689333333342L 93.2335689088915 206.64689333333342L 93.2335689088915 257.31069333333335L 84.70254677347484 257.31069333333335L 84.70254677347484 278.19032000000004L 84.70254677347484 257.31069333333335L 76.17152463805817 257.31069333333335L 76.17152463805817 206.14689333333342" pathFrom="M 76.17152463805817 1013.2760000000001" cy="206.64689333333342" cx="91.7335689088915" j="3" val="49.24" barWidth="17.062044270833333"></path><path id="apexcharts-candlestick-area-0" d="M102.50947311144978 202.96225333333336C102.50947311144978 202.96225333333336 111.04049524686644 202.96225333333336 111.04049524686644 202.96225333333336C111.04049524686644 202.96225333333336 111.04049524686644 201.73404000000005 111.04049524686644 201.73404000000005C111.04049524686644 201.73404000000005 111.04049524686644 202.96225333333336 111.04049524686644 202.96225333333336C111.04049524686644 202.96225333333336 119.5715173822831 202.96225333333336 119.5715173822831 202.96225333333336C119.5715173822831 202.96225333333336 119.5715173822831 259.46006666666676 119.5715173822831 259.46006666666676C119.5715173822831 259.46006666666676 111.04049524686644 259.46006666666676 111.04049524686644 259.46006666666676C111.04049524686644 259.46006666666676 111.04049524686644 280.9538 111.04049524686644 280.9538C111.04049524686644 280.9538 111.04049524686644 259.46006666666676 111.04049524686644 259.46006666666676C111.04049524686644 259.46006666666676 102.50947311144978 259.46006666666676 102.50947311144978 259.46006666666676C102.50947311144978 259.46006666666676 102.50947311144978 202.46225333333336 102.50947311144978 202.46225333333336 " fill="#00b746" fill-opacity="1" stroke="#333333" stroke-opacity="1" stroke-linecap="butt" stroke-width="1" stroke-dasharray="0" class="apexcharts-candlestick-area" index="0" pathTo="M 102.50947311144978 202.96225333333336L 111.04049524686644 202.96225333333336L 111.04049524686644 201.73404000000005L 111.04049524686644 202.96225333333336L 119.5715173822831 202.96225333333336L 119.5715173822831 259.46006666666676L 111.04049524686644 259.46006666666676L 111.04049524686644 280.9538L 111.04049524686644 259.46006666666676L 102.50947311144978 259.46006666666676L 102.50947311144978 202.46225333333336" pathFrom="M 102.50947311144978 1013.2760000000001" cy="202.96225333333336" cx="118.0715173822831" j="4" val="52.78" barWidth="17.062044270833333"></path><path id="apexcharts-candlestick-area-0" d="M127.99781034376423 202.1946200000001C127.99781034376423 202.1946200000001 136.5288324791809 202.1946200000001 136.5288324791809 202.1946200000001C136.5288324791809 202.1946200000001 136.5288324791809 192.21538666666675 136.5288324791809 192.21538666666675C136.5288324791809 192.21538666666675 136.5288324791809 202.1946200000001 136.5288324791809 202.1946200000001C136.5288324791809 202.1946200000001 145.05985461459755 202.1946200000001 145.05985461459755 202.1946200000001C145.05985461459755 202.1946200000001 145.05985461459755 210.4850600000001 145.05985461459755 210.4850600000001C145.05985461459755 210.4850600000001 136.5288324791809 210.4850600000001 136.5288324791809 210.4850600000001C136.5288324791809 210.4850600000001 136.5288324791809 240.72981333333337 136.5288324791809 240.72981333333337C136.5288324791809 240.72981333333337 136.5288324791809 210.4850600000001 136.5288324791809 210.4850600000001C136.5288324791809 210.4850600000001 127.99781034376423 210.4850600000001 127.99781034376423 210.4850600000001C127.99781034376423 210.4850600000001 127.99781034376423 201.6946200000001 127.99781034376423 201.6946200000001 " fill="#ef403c" fill-opacity="1" stroke="#333333" stroke-opacity="1" stroke-linecap="butt" stroke-width="1" stroke-dasharray="0" class="apexcharts-candlestick-area" index="0" pathTo="M 127.99781034376423 202.1946200000001L 136.5288324791809 202.1946200000001L 136.5288324791809 192.21538666666675L 136.5288324791809 202.1946200000001L 145.05985461459755 202.1946200000001L 145.05985461459755 210.4850600000001L 136.5288324791809 210.4850600000001L 136.5288324791809 240.72981333333337L 136.5288324791809 210.4850600000001L 127.99781034376423 210.4850600000001L 127.99781034376423 201.6946200000001" pathFrom="M 127.99781034376423 1013.2760000000001" cy="202.1946200000001" cx="143.55985461459755" j="5" val="52.29" barWidth="17.062044270833333"></path><path id="apexcharts-candlestick-area-0" d="M154.33575881715583 206.03278666666677C154.33575881715583 206.03278666666677 162.8667809525725 206.03278666666677 162.8667809525725 206.03278666666677C162.8667809525725 206.03278666666677 162.8667809525725 176.86272000000008 162.8667809525725 176.86272000000008C162.8667809525725 176.86272000000008 162.8667809525725 206.03278666666677 162.8667809525725 206.03278666666677C162.8667809525725 206.03278666666677 171.39780308798916 206.03278666666677 171.39780308798916 206.03278666666677C171.39780308798916 206.03278666666677 171.39780308798916 211.8668 171.39780308798916 211.8668C171.39780308798916 211.8668 162.8667809525725 211.8668 162.8667809525725 211.8668C162.8667809525725 211.8668 162.8667809525725 220.46429333333344 162.8667809525725 220.46429333333344C162.8667809525725 220.46429333333344 162.8667809525725 211.8668 162.8667809525725 211.8668C162.8667809525725 211.8668 154.33575881715583 211.8668 154.33575881715583 211.8668C154.33575881715583 211.8668 154.33575881715583 205.53278666666677 154.33575881715583 205.53278666666677 " fill="#00b746" fill-opacity="1" stroke="#333333" stroke-opacity="1" stroke-linecap="butt" stroke-width="1" stroke-dasharray="0" class="apexcharts-candlestick-area" index="0" pathTo="M 154.33575881715583 206.03278666666677L 162.8667809525725 206.03278666666677L 162.8667809525725 176.86272000000008L 162.8667809525725 206.03278666666677L 171.39780308798916 206.03278666666677L 171.39780308798916 211.8668L 162.8667809525725 211.8668L 162.8667809525725 220.46429333333344L 162.8667809525725 211.8668L 154.33575881715583 211.8668L 154.33575881715583 205.53278666666677" pathFrom="M 154.33575881715583 1013.2760000000001" cy="206.03278666666677" cx="169.89780308798916" j="6" val="52.58" barWidth="17.062044270833333"></path><path id="apexcharts-candlestick-area-0" d="M180.67370729054747 137.71342000000004C180.67370729054747 137.71342000000004 189.20472942596413 137.71342000000004 189.20472942596413 137.71342000000004C189.20472942596413 137.71342000000004 189.20472942596413 132.80056666666667 189.20472942596413 132.80056666666667C189.20472942596413 132.80056666666667 189.20472942596413 137.71342000000004 189.20472942596413 137.71342000000004C189.20472942596413 137.71342000000004 197.7357515613808 137.71342000000004 197.7357515613808 137.71342000000004C197.7357515613808 137.71342000000004 197.7357515613808 203.2693066666668 197.7357515613808 203.2693066666668C197.7357515613808 203.2693066666668 189.20472942596413 203.2693066666668 189.20472942596413 203.2693066666668C189.20472942596413 203.2693066666668 189.20472942596413 212.6344333333334 189.20472942596413 212.6344333333334C189.20472942596413 212.6344333333334 189.20472942596413 203.2693066666668 189.20472942596413 203.2693066666668C189.20472942596413 203.2693066666668 180.67370729054747 203.2693066666668 180.67370729054747 203.2693066666668C180.67370729054747 203.2693066666668 180.67370729054747 137.21342000000004 180.67370729054747 137.21342000000004 " fill="#00b746" fill-opacity="1" stroke="#333333" stroke-opacity="1" stroke-linecap="butt" stroke-width="1" stroke-dasharray="0" class="apexcharts-candlestick-area" index="0" pathTo="M 180.67370729054747 137.71342000000004L 189.20472942596413 137.71342000000004L 189.20472942596413 132.80056666666667L 189.20472942596413 137.71342000000004L 197.7357515613808 137.71342000000004L 197.7357515613808 203.2693066666668L 189.20472942596413 203.2693066666668L 189.20472942596413 212.6344333333334L 189.20472942596413 203.2693066666668L 180.67370729054747 203.2693066666668L 180.67370729054747 137.21342000000004" pathFrom="M 180.67370729054747 1013.2760000000001" cy="137.71342000000004" cx="196.2357515613808" j="7" val="57.03" barWidth="17.062044270833333"></path><path id="apexcharts-candlestick-area-0" d="M206.16204452286192 137.55989333333343C206.16204452286192 137.55989333333343 214.69306665827858 137.55989333333343 214.69306665827858 137.55989333333343C214.69306665827858 137.55989333333343 214.69306665827858 120.5184333333334 214.69306665827858 120.5184333333334C214.69306665827858 120.5184333333334 214.69306665827858 137.55989333333343 214.69306665827858 137.55989333333343C214.69306665827858 137.55989333333343 223.22408879369524 137.55989333333343 223.22408879369524 137.55989333333343C223.22408879369524 137.55989333333343 223.22408879369524 150.60966000000008 223.22408879369524 150.60966000000008C223.22408879369524 150.60966000000008 214.69306665827858 150.60966000000008 214.69306665827858 150.60966000000008C214.69306665827858 150.60966000000008 214.69306665827858 262.8376533333334 214.69306665827858 262.8376533333334C214.69306665827858 262.8376533333334 214.69306665827858 150.60966000000008 214.69306665827858 150.60966000000008C214.69306665827858 150.60966000000008 206.16204452286192 150.60966000000008 206.16204452286192 150.60966000000008C206.16204452286192 150.60966000000008 206.16204452286192 137.05989333333343 206.16204452286192 137.05989333333343 " fill="#ef403c" fill-opacity="1" stroke="#333333" stroke-opacity="1" stroke-linecap="butt" stroke-width="1" stroke-dasharray="0" class="apexcharts-candlestick-area" index="0" pathTo="M 206.16204452286192 137.55989333333343L 214.69306665827858 137.55989333333343L 214.69306665827858 120.5184333333334L 214.69306665827858 137.55989333333343L 223.22408879369524 137.55989333333343L 223.22408879369524 150.60966000000008L 214.69306665827858 150.60966000000008L 214.69306665827858 262.8376533333334L 214.69306665827858 150.60966000000008L 206.16204452286192 150.60966000000008L 206.16204452286192 137.05989333333343" pathFrom="M 206.16204452286192 1013.2760000000001" cy="137.55989333333343" cx="221.72408879369524" j="8" val="56.19" barWidth="17.062044270833333"></path><path id="apexcharts-candlestick-area-0" d="M232.49999299625352 110.69272666666677C232.49999299625352 110.69272666666677 241.0310151316702 110.69272666666677 241.0310151316702 110.69272666666677C241.0310151316702 110.69272666666677 241.0310151316702 109.77156666666667 241.0310151316702 109.77156666666667C241.0310151316702 109.77156666666667 241.0310151316702 110.69272666666677 241.0310151316702 110.69272666666677C241.0310151316702 110.69272666666677 249.56203726708685 110.69272666666677 249.56203726708685 110.69272666666677C249.56203726708685 110.69272666666677 249.56203726708685 152.14492666666672 249.56203726708685 152.14492666666672C249.56203726708685 152.14492666666672 241.0310151316702 152.14492666666672 241.0310151316702 152.14492666666672C241.0310151316702 152.14492666666672 241.0310151316702 161.51005333333342 241.0310151316702 161.51005333333342C241.0310151316702 161.51005333333342 241.0310151316702 152.14492666666672 241.0310151316702 152.14492666666672C241.0310151316702 152.14492666666672 232.49999299625352 152.14492666666672 232.49999299625352 152.14492666666672C232.49999299625352 152.14492666666672 232.49999299625352 110.19272666666677 232.49999299625352 110.19272666666677 " fill="#00b746" fill-opacity="1" stroke="#333333" stroke-opacity="1" stroke-linecap="butt" stroke-width="1" stroke-dasharray="0" class="apexcharts-candlestick-area" index="0" pathTo="M 232.49999299625352 110.69272666666677L 241.0310151316702 110.69272666666677L 241.0310151316702 109.77156666666667L 241.0310151316702 110.69272666666677L 249.56203726708685 110.69272666666677L 249.56203726708685 152.14492666666672L 241.0310151316702 152.14492666666672L 241.0310151316702 161.51005333333342L 241.0310151316702 152.14492666666672L 232.49999299625352 152.14492666666672L 232.49999299625352 110.19272666666677" pathFrom="M 232.49999299625352 1013.2760000000001" cy="110.69272666666677" cx="248.06203726708685" j="9" val="58.79" barWidth="17.062044270833333"></path><path id="apexcharts-candlestick-area-0" d="M257.988330228568 106.70103333333338C257.988330228568 106.70103333333338 266.51935236398464 106.70103333333338 266.51935236398464 106.70103333333338C266.51935236398464 106.70103333333338 266.51935236398464 97.48943333333341 266.51935236398464 97.48943333333341C266.51935236398464 97.48943333333341 266.51935236398464 106.70103333333338 266.51935236398464 106.70103333333338C266.51935236398464 106.70103333333338 275.0503744994013 106.70103333333338 275.0503744994013 106.70103333333338C275.0503744994013 106.70103333333338 275.0503744994013 110.84625333333338 275.0503744994013 110.84625333333338C275.0503744994013 110.84625333333338 266.51935236398464 110.84625333333338 266.51935236398464 110.84625333333338C266.51935236398464 110.84625333333338 266.51935236398464 119.29022000000009 266.51935236398464 119.29022000000009C266.51935236398464 119.29022000000009 266.51935236398464 110.84625333333338 266.51935236398464 110.84625333333338C266.51935236398464 110.84625333333338 257.988330228568 110.84625333333338 257.988330228568 110.84625333333338C257.988330228568 110.84625333333338 257.988330228568 106.20103333333338 257.988330228568 106.20103333333338 " fill="#00b746" fill-opacity="1" stroke="#333333" stroke-opacity="1" stroke-linecap="butt" stroke-width="1" stroke-dasharray="0" class="apexcharts-candlestick-area" index="0" pathTo="M 257.988330228568 106.70103333333338L 266.51935236398464 106.70103333333338L 266.51935236398464 97.48943333333341L 266.51935236398464 106.70103333333338L 275.0503744994013 106.70103333333338L 275.0503744994013 110.84625333333338L 266.51935236398464 110.84625333333338L 266.51935236398464 119.29022000000009L 266.51935236398464 110.84625333333338L 257.988330228568 110.84625333333338L 257.988330228568 106.20103333333338" pathFrom="M 257.988330228568 1013.2760000000001" cy="106.70103333333338" cx="273.5503744994013" j="10" val="59.05" barWidth="17.062044270833333"></path><path id="apexcharts-candlestick-area-0" d="M284.3262787019596 86.8960933333334C284.3262787019596 86.8960933333334 292.8573008373763 86.8960933333334 292.8573008373763 86.8960933333334C292.8573008373763 86.8960933333334 292.8573008373763 75.07454000000007 292.8573008373763 75.07454000000007C292.8573008373763 75.07454000000007 292.8573008373763 86.8960933333334 292.8573008373763 86.8960933333334C292.8573008373763 86.8960933333334 301.38832297279293 86.8960933333334 301.38832297279293 86.8960933333334C301.38832297279293 86.8960933333334 301.38832297279293 101.78818000000012 301.38832297279293 101.78818000000012C301.38832297279293 101.78818000000012 292.8573008373763 101.78818000000012 292.8573008373763 101.78818000000012C292.8573008373763 101.78818000000012 292.8573008373763 102.09523333333334 292.8573008373763 102.09523333333334C292.8573008373763 102.09523333333334 292.8573008373763 101.78818000000012 292.8573008373763 101.78818000000012C292.8573008373763 101.78818000000012 284.3262787019596 101.78818000000012 284.3262787019596 101.78818000000012C284.3262787019596 101.78818000000012 284.3262787019596 86.3960933333334 284.3262787019596 86.3960933333334 " fill="#00b746" fill-opacity="1" stroke="#333333" stroke-opacity="1" stroke-linecap="butt" stroke-width="1" stroke-dasharray="0" class="apexcharts-candlestick-area" index="0" pathTo="M 284.3262787019596 86.8960933333334L 292.8573008373763 86.8960933333334L 292.8573008373763 75.07454000000007L 292.8573008373763 86.8960933333334L 301.38832297279293 86.8960933333334L 301.38832297279293 101.78818000000012L 292.8573008373763 101.78818000000012L 292.8573008373763 102.09523333333334L 292.8573008373763 101.78818000000012L 284.3262787019596 101.78818000000012L 284.3262787019596 86.3960933333334" pathFrom="M 284.3262787019596 1013.2760000000001" cy="86.8960933333334" cx="299.88832297279293" j="11" val="60.34" barWidth="17.062044270833333"></path><path id="apexcharts-candlestick-area-0" d="M310.6642271753512 85.97493333333341C310.6642271753512 85.97493333333341 319.19524931076785 85.97493333333341 319.19524931076785 85.97493333333341C319.19524931076785 85.97493333333341 319.19524931076785 84.13261333333332 319.19524931076785 84.13261333333332C319.19524931076785 84.13261333333332 319.19524931076785 85.97493333333341 319.19524931076785 85.97493333333341C319.19524931076785 85.97493333333341 327.7262714461845 85.97493333333341 327.7262714461845 85.97493333333341C327.7262714461845 85.97493333333341 327.7262714461845 139.24868666666669 327.7262714461845 139.24868666666669C327.7262714461845 139.24868666666669 319.19524931076785 139.24868666666669 319.19524931076785 139.24868666666669C319.19524931076785 139.24868666666669 319.19524931076785 142.62627333333342 319.19524931076785 142.62627333333342C319.19524931076785 142.62627333333342 319.19524931076785 139.24868666666669 319.19524931076785 139.24868666666669C319.19524931076785 139.24868666666669 310.6642271753512 139.24868666666669 310.6642271753512 139.24868666666669C310.6642271753512 139.24868666666669 310.6642271753512 85.47493333333341 310.6642271753512 85.47493333333341 " fill="#ef403c" fill-opacity="1" stroke="#333333" stroke-opacity="1" stroke-linecap="butt" stroke-width="1" stroke-dasharray="0" class="apexcharts-candlestick-area" index="0" pathTo="M 310.6642271753512 85.97493333333341L 319.19524931076785 85.97493333333341L 319.19524931076785 84.13261333333332L 319.19524931076785 85.97493333333341L 327.7262714461845 85.97493333333341L 327.7262714461845 139.24868666666669L 319.19524931076785 139.24868666666669L 319.19524931076785 142.62627333333342L 319.19524931076785 139.24868666666669L 310.6642271753512 139.24868666666669L 310.6642271753512 85.47493333333341" pathFrom="M 310.6642271753512 1013.2760000000001" cy="85.97493333333341" cx="326.2262714461845" j="12" val="56.93" barWidth="17.062044270833333"></path><path id="apexcharts-candlestick-area-0" d="M334.4533419255114 137.86694666666665C334.4533419255114 137.86694666666665 342.98436406092804 137.86694666666665 342.98436406092804 137.86694666666665C342.98436406092804 137.86694666666665 342.98436406092804 96.56827333333342 342.98436406092804 96.56827333333342C342.98436406092804 96.56827333333342 342.98436406092804 137.86694666666665 342.98436406092804 137.86694666666665C342.98436406092804 137.86694666666665 351.5153861963447 137.86694666666665 351.5153861963447 137.86694666666665C351.5153861963447 137.86694666666665 351.5153861963447 140.93748000000005 351.5153861963447 140.93748000000005C351.5153861963447 140.93748000000005 342.98436406092804 140.93748000000005 342.98436406092804 140.93748000000005C342.98436406092804 140.93748000000005 342.98436406092804 152.9125600000001 342.98436406092804 152.9125600000001C342.98436406092804 152.9125600000001 342.98436406092804 140.93748000000005 342.98436406092804 140.93748000000005C342.98436406092804 140.93748000000005 334.4533419255114 140.93748000000005 334.4533419255114 140.93748000000005C334.4533419255114 140.93748000000005 334.4533419255114 137.36694666666665 334.4533419255114 137.36694666666665 " fill="#ef403c" fill-opacity="1" stroke="#333333" stroke-opacity="1" stroke-linecap="butt" stroke-width="1" stroke-dasharray="0" class="apexcharts-candlestick-area" index="0" pathTo="M 334.4533419255114 137.86694666666665L 342.98436406092804 137.86694666666665L 342.98436406092804 96.56827333333342L 342.98436406092804 137.86694666666665L 351.5153861963447 137.86694666666665L 351.5153861963447 140.93748000000005L 342.98436406092804 140.93748000000005L 342.98436406092804 152.9125600000001L 342.98436406092804 140.93748000000005L 334.4533419255114 140.93748000000005L 334.4533419255114 137.36694666666665" pathFrom="M 334.4533419255114 1013.2760000000001" cy="137.86694666666665" cx="350.0153861963447" j="13" val="56.82" barWidth="17.062044270833333"></path><path id="apexcharts-candlestick-area-0" d="M360.79129039890296 102.86286666666672C360.79129039890296 102.86286666666672 369.3223125343196 102.86286666666672 369.3223125343196 102.86286666666672C369.3223125343196 102.86286666666672 369.3223125343196 97.95001333333346 369.3223125343196 97.95001333333346C369.3223125343196 97.95001333333346 369.3223125343196 102.86286666666672 369.3223125343196 102.86286666666672C369.3223125343196 102.86286666666672 377.8533346697363 102.86286666666672 377.8533346697363 102.86286666666672C377.8533346697363 102.86286666666672 377.8533346697363 138.63458000000003 377.8533346697363 138.63458000000003C377.8533346697363 138.63458000000003 369.3223125343196 138.63458000000003 369.3223125343196 138.63458000000003C369.3223125343196 138.63458000000003 369.3223125343196 172.41044666666664 369.3223125343196 172.41044666666664C369.3223125343196 172.41044666666664 369.3223125343196 138.63458000000003 369.3223125343196 138.63458000000003C369.3223125343196 138.63458000000003 360.79129039890296 138.63458000000003 360.79129039890296 138.63458000000003C360.79129039890296 138.63458000000003 360.79129039890296 102.36286666666672 360.79129039890296 102.36286666666672 " fill="#00b746" fill-opacity="1" stroke="#333333" stroke-opacity="1" stroke-linecap="butt" stroke-width="1" stroke-dasharray="0" class="apexcharts-candlestick-area" index="0" pathTo="M 360.79129039890296 102.86286666666672L 369.3223125343196 102.86286666666672L 369.3223125343196 97.95001333333346L 369.3223125343196 102.86286666666672L 377.8533346697363 102.86286666666672L 377.8533346697363 138.63458000000003L 369.3223125343196 138.63458000000003L 369.3223125343196 172.41044666666664L 369.3223125343196 138.63458000000003L 360.79129039890296 138.63458000000003L 360.79129039890296 102.36286666666672" pathFrom="M 360.79129039890296 1013.2760000000001" cy="102.86286666666672" cx="376.3533346697363" j="14" val="59.3" barWidth="17.062044270833333"></path><path id="apexcharts-candlestick-area-0" d="M386.2796276312174 94.41890000000001C386.2796276312174 94.41890000000001 394.81064976663407 94.41890000000001 394.81064976663407 94.41890000000001C394.81064976663407 94.41890000000001 394.81064976663407 56.95839333333345 394.81064976663407 56.95839333333345C394.81064976663407 56.95839333333345 394.81064976663407 94.41890000000001 394.81064976663407 94.41890000000001C394.81064976663407 94.41890000000001 403.34167190205073 94.41890000000001 403.34167190205073 94.41890000000001C403.34167190205073 94.41890000000001 403.34167190205073 105.7798733333334 403.34167190205073 105.7798733333334C403.34167190205073 105.7798733333334 394.81064976663407 105.7798733333334 394.81064976663407 105.7798733333334C394.81064976663407 105.7798733333334 394.81064976663407 105.9334 394.81064976663407 105.9334C394.81064976663407 105.9334 394.81064976663407 105.7798733333334 394.81064976663407 105.7798733333334C394.81064976663407 105.7798733333334 386.2796276312174 105.7798733333334 386.2796276312174 105.7798733333334C386.2796276312174 105.7798733333334 386.2796276312174 93.91890000000001 386.2796276312174 93.91890000000001 " fill="#00b746" fill-opacity="1" stroke="#333333" stroke-opacity="1" stroke-linecap="butt" stroke-width="1" stroke-dasharray="0" class="apexcharts-candlestick-area" index="0" pathTo="M 386.2796276312174 94.41890000000001L 394.81064976663407 94.41890000000001L 394.81064976663407 56.95839333333345L 394.81064976663407 94.41890000000001L 403.34167190205073 94.41890000000001L 403.34167190205073 105.7798733333334L 394.81064976663407 105.7798733333334L 394.81064976663407 105.9334L 394.81064976663407 105.7798733333334L 386.2796276312174 105.7798733333334L 386.2796276312174 93.91890000000001" pathFrom="M 386.2796276312174 1013.2760000000001" cy="94.41890000000001" cx="401.84167190205073" j="15" val="59.85" barWidth="17.062044270833333"></path><path id="apexcharts-candlestick-area-0" d="M412.61757610460904 92.57658000000004C412.61757610460904 92.57658000000004 421.1485982400257 92.57658000000004 421.1485982400257 92.57658000000004C421.1485982400257 92.57658000000004 421.1485982400257 90.42720666666673 421.1485982400257 90.42720666666673C421.1485982400257 90.42720666666673 421.1485982400257 92.57658000000004 421.1485982400257 92.57658000000004C421.1485982400257 92.57658000000004 429.67962037544237 92.57658000000004 429.67962037544237 92.57658000000004C429.67962037544237 92.57658000000004 429.67962037544237 116.37321333333341 429.67962037544237 116.37321333333341C429.67962037544237 116.37321333333341 421.1485982400257 116.37321333333341 421.1485982400257 116.37321333333341C421.1485982400257 116.37321333333341 421.1485982400257 158.74657333333346 421.1485982400257 158.74657333333346C421.1485982400257 158.74657333333346 421.1485982400257 116.37321333333341 421.1485982400257 116.37321333333341C421.1485982400257 116.37321333333341 412.61757610460904 116.37321333333341 412.61757610460904 116.37321333333341C412.61757610460904 116.37321333333341 412.61757610460904 92.07658000000004 412.61757610460904 92.07658000000004 " fill="#ef403c" fill-opacity="1" stroke="#333333" stroke-opacity="1" stroke-linecap="butt" stroke-width="1" stroke-dasharray="0" class="apexcharts-candlestick-area" index="0" pathTo="M 412.61757610460904 92.57658000000004L 421.1485982400257 92.57658000000004L 421.1485982400257 90.42720666666673L 421.1485982400257 92.57658000000004L 429.67962037544237 92.57658000000004L 429.67962037544237 116.37321333333341L 421.1485982400257 116.37321333333341L 421.1485982400257 158.74657333333346L 421.1485982400257 116.37321333333341L 412.61757610460904 116.37321333333341L 412.61757610460904 92.07658000000004" pathFrom="M 412.61757610460904 1013.2760000000001" cy="92.57658000000004" cx="428.17962037544237" j="16" val="58.42" barWidth="17.062044270833333"></path><path id="apexcharts-candlestick-area-0" d="M438.1059133369235 117.60142666666673C438.1059133369235 117.60142666666673 446.63693547234016 117.60142666666673 446.63693547234016 117.60142666666673C446.63693547234016 117.60142666666673 446.63693547234016 77.83802000000003 446.63693547234016 77.83802000000003C446.63693547234016 77.83802000000003 446.63693547234016 117.60142666666673 446.63693547234016 117.60142666666673C446.63693547234016 117.60142666666673 455.1679576077568 117.60142666666673 455.1679576077568 117.60142666666673C455.1679576077568 117.60142666666673 455.1679576077568 131.72588000000007 455.1679576077568 131.72588000000007C455.1679576077568 131.72588000000007 446.63693547234016 131.72588000000007 446.63693547234016 131.72588000000007C446.63693547234016 131.72588000000007 446.63693547234016 142.01216666666676 446.63693547234016 142.01216666666676C446.63693547234016 142.01216666666676 446.63693547234016 131.72588000000007 446.63693547234016 131.72588000000007C446.63693547234016 131.72588000000007 438.1059133369235 131.72588000000007 438.1059133369235 131.72588000000007C438.1059133369235 131.72588000000007 438.1059133369235 117.10142666666673 438.1059133369235 117.10142666666673 " fill="#ef403c" fill-opacity="1" stroke="#333333" stroke-opacity="1" stroke-linecap="butt" stroke-width="1" stroke-dasharray="0" class="apexcharts-candlestick-area" index="0" pathTo="M 438.1059133369235 117.60142666666673L 446.63693547234016 117.60142666666673L 446.63693547234016 77.83802000000003L 446.63693547234016 117.60142666666673L 455.1679576077568 117.60142666666673L 455.1679576077568 131.72588000000007L 446.63693547234016 131.72588000000007L 446.63693547234016 142.01216666666676L 446.63693547234016 131.72588000000007L 438.1059133369235 131.72588000000007L 438.1059133369235 117.10142666666673" pathFrom="M 438.1059133369235 1013.2760000000001" cy="117.60142666666673" cx="453.6679576077568" j="17" val="57.42" barWidth="17.062044270833333"></path><path id="apexcharts-candlestick-area-0" d="M464.4438618103151 126.50597333333337C464.4438618103151 126.50597333333337 472.9748839457318 126.50597333333337 472.9748839457318 126.50597333333337C472.9748839457318 126.50597333333337 472.9748839457318 121.59312000000011 472.9748839457318 121.59312000000011C472.9748839457318 121.59312000000011 472.9748839457318 126.50597333333337 472.9748839457318 126.50597333333337C472.9748839457318 126.50597333333337 481.50590608114845 126.50597333333337 481.50590608114845 126.50597333333337C481.50590608114845 126.50597333333337 481.50590608114845 173.33160666666674 481.50590608114845 173.33160666666674C481.50590608114845 173.33160666666674 472.9748839457318 173.33160666666674 472.9748839457318 173.33160666666674C472.9748839457318 173.33160666666674 472.9748839457318 227.52652000000012 472.9748839457318 227.52652000000012C472.9748839457318 227.52652000000012 472.9748839457318 173.33160666666674 472.9748839457318 173.33160666666674C472.9748839457318 173.33160666666674 464.4438618103151 173.33160666666674 464.4438618103151 173.33160666666674C464.4438618103151 173.33160666666674 464.4438618103151 126.00597333333337 464.4438618103151 126.00597333333337 " fill="#ef403c" fill-opacity="1" stroke="#333333" stroke-opacity="1" stroke-linecap="butt" stroke-width="1" stroke-dasharray="0" class="apexcharts-candlestick-area" index="0" pathTo="M 464.4438618103151 126.50597333333337L 472.9748839457318 126.50597333333337L 472.9748839457318 121.59312000000011L 472.9748839457318 126.50597333333337L 481.50590608114845 126.50597333333337L 481.50590608114845 173.33160666666674L 472.9748839457318 173.33160666666674L 472.9748839457318 227.52652000000012L 472.9748839457318 173.33160666666674L 464.4438618103151 173.33160666666674L 464.4438618103151 126.00597333333337" pathFrom="M 464.4438618103151 1013.2760000000001" cy="126.50597333333337" cx="480.00590608114845" j="18" val="54.71" barWidth="17.062044270833333"></path><path id="apexcharts-candlestick-area-0" d="M490.7818102837067 132.80056666666667C490.7818102837067 132.80056666666667 499.31283241912337 132.80056666666667 499.31283241912337 132.80056666666667C499.31283241912337 132.80056666666667 499.31283241912337 70.31521333333342 499.31283241912337 70.31521333333342C499.31283241912337 70.31521333333342 499.31283241912337 132.80056666666667 499.31283241912337 132.80056666666667C499.31283241912337 132.80056666666667 507.84385455454003 132.80056666666667 507.84385455454003 132.80056666666667C507.84385455454003 132.80056666666667 507.84385455454003 171.94986666666682 507.84385455454003 171.94986666666682C507.84385455454003 171.94986666666682 499.31283241912337 171.94986666666682 499.31283241912337 171.94986666666682C499.31283241912337 171.94986666666682 499.31283241912337 196.8211866666668 499.31283241912337 196.8211866666668C499.31283241912337 196.8211866666668 499.31283241912337 171.94986666666682 499.31283241912337 171.94986666666682C499.31283241912337 171.94986666666682 490.7818102837067 171.94986666666682 490.7818102837067 171.94986666666682C490.7818102837067 171.94986666666682 490.7818102837067 132.30056666666667 490.7818102837067 132.30056666666667 " fill="#00b746" fill-opacity="1" stroke="#333333" stroke-opacity="1" stroke-linecap="butt" stroke-width="1" stroke-dasharray="0" class="apexcharts-candlestick-area" index="0" pathTo="M 490.7818102837067 132.80056666666667L 499.31283241912337 132.80056666666667L 499.31283241912337 70.31521333333342L 499.31283241912337 132.80056666666667L 507.84385455454003 132.80056666666667L 507.84385455454003 171.94986666666682L 499.31283241912337 171.94986666666682L 499.31283241912337 196.8211866666668L 499.31283241912337 171.94986666666682L 490.7818102837067 171.94986666666682L 490.7818102837067 132.30056666666667" pathFrom="M 490.7818102837067 1013.2760000000001" cy="132.80056666666667" cx="506.34385455454003" j="19" val="57.35" barWidth="17.062044270833333"></path><path id="apexcharts-candlestick-area-0" d="M516.2701475160211 46.211526666666714C516.2701475160211 46.211526666666714 524.8011696514378 46.211526666666714 524.8011696514378 46.211526666666714C524.8011696514378 46.211526666666714 524.8011696514378 44.67625999999996 524.8011696514378 44.67625999999996C524.8011696514378 44.67625999999996 524.8011696514378 46.211526666666714 524.8011696514378 46.211526666666714C524.8011696514378 46.211526666666714 533.3321917868544 46.211526666666714 533.3321917868544 46.211526666666714C533.3321917868544 46.211526666666714 533.3321917868544 129.57650666666666 533.3321917868544 129.57650666666666C533.3321917868544 129.57650666666666 524.8011696514378 129.57650666666666 524.8011696514378 129.57650666666666C524.8011696514378 129.57650666666666 524.8011696514378 138.1740000000001 524.8011696514378 138.1740000000001C524.8011696514378 138.1740000000001 524.8011696514378 129.57650666666666 524.8011696514378 129.57650666666666C524.8011696514378 129.57650666666666 516.2701475160211 129.57650666666666 516.2701475160211 129.57650666666666C516.2701475160211 129.57650666666666 516.2701475160211 45.711526666666714 516.2701475160211 45.711526666666714 " fill="#00b746" fill-opacity="1" stroke="#333333" stroke-opacity="1" stroke-linecap="butt" stroke-width="1" stroke-dasharray="0" class="apexcharts-candlestick-area" index="0" pathTo="M 516.2701475160211 46.211526666666714L 524.8011696514378 46.211526666666714L 524.8011696514378 44.67625999999996L 524.8011696514378 46.211526666666714L 533.3321917868544 46.211526666666714L 533.3321917868544 129.57650666666666L 524.8011696514378 129.57650666666666L 524.8011696514378 138.1740000000001L 524.8011696514378 129.57650666666666L 516.2701475160211 129.57650666666666L 516.2701475160211 45.711526666666714" pathFrom="M 516.2701475160211 1013.2760000000001" cy="46.211526666666714" cx="531.8321917868544" j="20" val="62.99" barWidth="17.062044270833333"></path><path id="apexcharts-candlestick-area-0" d="M542.6080959894127 47.74679333333336C542.6080959894127 47.74679333333336 551.1391181248295 47.74679333333336 551.1391181248295 47.74679333333336C551.1391181248295 47.74679333333336 551.1391181248295 39.60988000000009 551.1391181248295 39.60988000000009C551.1391181248295 39.60988000000009 551.1391181248295 47.74679333333336 551.1391181248295 47.74679333333336C551.1391181248295 47.74679333333336 559.6701402602461 47.74679333333336 559.6701402602461 47.74679333333336C559.6701402602461 47.74679333333336 559.6701402602461 65.09530666666672 559.6701402602461 65.09530666666672C559.6701402602461 65.09530666666672 551.1391181248295 65.09530666666672 551.1391181248295 65.09530666666672C551.1391181248295 65.09530666666672 551.1391181248295 96.4147466666667 551.1391181248295 96.4147466666667C551.1391181248295 96.4147466666667 551.1391181248295 65.09530666666672 551.1391181248295 65.09530666666672C551.1391181248295 65.09530666666672 542.6080959894127 65.09530666666672 542.6080959894127 65.09530666666672C542.6080959894127 65.09530666666672 542.6080959894127 47.24679333333336 542.6080959894127 47.24679333333336 " fill="#ef403c" fill-opacity="1" stroke="#333333" stroke-opacity="1" stroke-linecap="butt" stroke-width="1" stroke-dasharray="0" class="apexcharts-candlestick-area" index="0" pathTo="M 542.6080959894127 47.74679333333336L 551.1391181248295 47.74679333333336L 551.1391181248295 39.60988000000009L 551.1391181248295 47.74679333333336L 559.6701402602461 47.74679333333336L 559.6701402602461 65.09530666666672L 551.1391181248295 65.09530666666672L 551.1391181248295 96.4147466666667L 551.1391181248295 65.09530666666672L 542.6080959894127 65.09530666666672L 542.6080959894127 47.24679333333336" pathFrom="M 542.6080959894127 1013.2760000000001" cy="47.74679333333336" cx="558.1701402602461" j="21" val="61.76" barWidth="17.062044270833333"></path><path id="apexcharts-candlestick-area-0" d="M568.0964332217272 45.44389333333345C568.0964332217272 45.44389333333345 576.627455357144 45.44389333333345 576.627455357144 45.44389333333345C576.627455357144 45.44389333333345 576.627455357144 28.402433333333306 576.627455357144 28.402433333333306C576.627455357144 28.402433333333306 576.627455357144 45.44389333333345 576.627455357144 45.44389333333345C576.627455357144 45.44389333333345 585.1584774925606 45.44389333333345 585.1584774925606 45.44389333333345C585.1584774925606 45.44389333333345 585.1584774925606 65.8629400000001 585.1584774925606 65.8629400000001C585.1584774925606 65.8629400000001 576.627455357144 65.8629400000001 576.627455357144 65.8629400000001C576.627455357144 65.8629400000001 576.627455357144 72.31106000000011 576.627455357144 72.31106000000011C576.627455357144 72.31106000000011 576.627455357144 65.8629400000001 576.627455357144 65.8629400000001C576.627455357144 65.8629400000001 568.0964332217272 65.8629400000001 568.0964332217272 65.8629400000001C568.0964332217272 65.8629400000001 568.0964332217272 44.94389333333345 568.0964332217272 44.94389333333345 " fill="#00b746" fill-opacity="1" stroke="#333333" stroke-opacity="1" stroke-linecap="butt" stroke-width="1" stroke-dasharray="0" class="apexcharts-candlestick-area" index="0" pathTo="M 568.0964332217272 45.44389333333345L 576.627455357144 45.44389333333345L 576.627455357144 28.402433333333306L 576.627455357144 45.44389333333345L 585.1584774925606 45.44389333333345L 585.1584774925606 65.8629400000001L 576.627455357144 65.8629400000001L 576.627455357144 72.31106000000011L 576.627455357144 65.8629400000001L 568.0964332217272 65.8629400000001L 568.0964332217272 44.94389333333345" pathFrom="M 568.0964332217272 1013.2760000000001" cy="45.44389333333345" cx="583.6584774925606" j="22" val="63.04" barWidth="17.062044270833333"></path><g id="SvgjsG1037" class="apexcharts-datalabels"></g></g></g><line id="SvgjsLine1130" x1="0" y1="-100" x2="584.984375" y2="-100" stroke="#b6b6b6" stroke-dasharray="0" stroke-width="1" class="apexcharts-ycrosshairs"></line><line id="SvgjsLine1131" x1="0" y1="0" x2="584.984375" y2="0" stroke-dasharray="0" stroke-width="0" class="apexcharts-ycrosshairs-hidden"></line><g id="SvgjsG1132" class="apexcharts-yaxis-annotations apexcharts-showAfterDelay" style="animation-delay: 0.992105s;"></g><g id="SvgjsG1133" class="apexcharts-xaxis-annotations apexcharts-showAfterDelay" style="animation-delay: 0.992105s;"></g><g id="SvgjsG1134" class="apexcharts-point-annotations apexcharts-showAfterDelay" style="animation-delay: 0.992105s;"></g><rect id="SvgjsRect1135" width="0" height="0" x="0" y="0" rx="0" ry="0" fill="#fefefe" opacity="1" stroke-width="0" stroke="none" stroke-dasharray="0" class="apexcharts-zoom-rect"></rect><rect id="SvgjsRect1136" width="0" height="0" x="0" y="0" rx="0" ry="0" fill="#fefefe" opacity="1" stroke-width="0" stroke="none" stroke-dasharray="0" class="apexcharts-selection-rect"></rect></g><text id="SvgjsText1005" font-family="Helvetica, Arial, sans-serif" x="10" y="18" text-anchor="start" dominate-baseline="central" class="apexcharts-title-text" style="font-size: 16px; fill: rgb(38, 50, 56); opacity: 1;" svgjs:data="{&quot;leading&quot;:&quot;1.3&quot;}">CandleStick Chart</text><g id="SvgjsG1103" class="apexcharts-yaxis" rel="0" transform="translate(22.015625, 0)"><g id="SvgjsG1104" class="apexcharts-yaxis-texts-g"><text id="SvgjsText1105" font-family="Helvetica, Arial, sans-serif" x="20" y="58.6" text-anchor="end" dominate-baseline="central" class="apexcharts-yaxis-label apexcharts-yaxis-label" style="font-size: 12px; fill: rgb(55, 61, 63);" svgjs:data="{&quot;leading&quot;:&quot;1.3&quot;}">66.00</text><text id="SvgjsText1106" font-family="Helvetica, Arial, sans-serif" x="20" y="104.758" text-anchor="end" dominate-baseline="central" class="apexcharts-yaxis-label apexcharts-yaxis-label" style="font-size: 12px; fill: rgb(55, 61, 63);" svgjs:data="{&quot;leading&quot;:&quot;1.3&quot;}">63.00</text><text id="SvgjsText1107" font-family="Helvetica, Arial, sans-serif" x="20" y="150.916" text-anchor="end" dominate-baseline="central" class="apexcharts-yaxis-label apexcharts-yaxis-label" style="font-size: 12px; fill: rgb(55, 61, 63);" svgjs:data="{&quot;leading&quot;:&quot;1.3&quot;}">60.00</text><text id="SvgjsText1108" font-family="Helvetica, Arial, sans-serif" x="20" y="197.07399999999998" text-anchor="end" dominate-baseline="central" class="apexcharts-yaxis-label apexcharts-yaxis-label" style="font-size: 12px; fill: rgb(55, 61, 63);" svgjs:data="{&quot;leading&quot;:&quot;1.3&quot;}">57.00</text><text id="SvgjsText1109" font-family="Helvetica, Arial, sans-serif" x="20" y="243.232" text-anchor="end" dominate-baseline="central" class="apexcharts-yaxis-label apexcharts-yaxis-label" style="font-size: 12px; fill: rgb(55, 61, 63);" svgjs:data="{&quot;leading&quot;:&quot;1.3&quot;}">54.00</text><text id="SvgjsText1110" font-family="Helvetica, Arial, sans-serif" x="20" y="289.39000000000004" text-anchor="end" dominate-baseline="central" class="apexcharts-yaxis-label apexcharts-yaxis-label" style="font-size: 12px; fill: rgb(55, 61, 63);" svgjs:data="{&quot;leading&quot;:&quot;1.3&quot;}">51.00</text><text id="SvgjsText1111" font-family="Helvetica, Arial, sans-serif" x="20" y="335.54800000000006" text-anchor="end" dominate-baseline="central" class="apexcharts-yaxis-label apexcharts-yaxis-label" style="font-size: 12px; fill: rgb(55, 61, 63);" svgjs:data="{&quot;leading&quot;:&quot;1.3&quot;}">48.00</text></g></g></svg>