<?xml version="1.0" encoding="utf-8"?>
<!-- Generator: Adobe Illustrator 23.0.3, SVG Export Plug-In . SVG Version: 6.00 Build 0)  -->
<svg version="1.1" id="Layer_1" xmlns="http://www.w3.org/2000/svg" xmlns:xlink="http://www.w3.org/1999/xlink" x="0px" y="0px"
	 viewBox="0 0 1600 600" style="enable-background:new 0 0 1600 600;" xml:space="preserve">
<style type="text/css">
	.st0{fill:#F5C26B;}
	.st1{fill:#49C39E;}
	.st2{fill-rule:evenodd;clip-rule:evenodd;fill:#F2545B;}
	.st3{fill-rule:evenodd;clip-rule:evenodd;fill:#6A78D1;}
	.st4{opacity:0.1;}
	.st5{fill:#172B4D;}
</style>
<g>
	<path class="st0" d="M383.9,401.7c-13-54.5-64.5-99.1-121.2-100.6c-52-1.4-129.5,40.1-144.4,91.7c-14.5,50.3,3.6,114.2,38.5,151.2
		c45.1,47.7,110.2,58.3,163.7,18.3C369,526.2,398.3,461.8,383.9,401.7z M355.3,468.5c-16.6,55.1-75.1,110.8-135.9,87.3
		c-32.4-12.5-57.9-41-71.1-72.6C112.5,398,190.4,301.7,284,329.4C343.5,347.1,372.6,411,355.3,468.5z"/>
	<path class="st1" d="M261.4,70.9c-14.5-6.3-31.7-7.2-47.3-8.2c-16.6-1-33-1.2-49.1,3.2c-6.3,1.7-5.4,11.6,0.9,12.6
		c15.6,2.5,31.4,2.4,47,4.4c15,1.8,29.9,6.4,44.9,7.1C268,90.5,270.2,74.7,261.4,70.9z"/>
	<path class="st1" d="M272.8,128.1c-13.7-11.2-37.9-11-54.9-12.4c-16.7-1.4-36.4-3.8-51.6,4.4c-3.8,2-2.8,7.9,0.7,9.6
		c14.7,6.9,33.5,5.3,49.4,7.3c15.7,2,35.5,10.6,50.9,7.6C274.8,143,279.7,133.7,272.8,128.1z"/>
	<path class="st1" d="M299,200.4c2.7-3,2-7.6-0.8-10.3c-11.4-10.5-30.3-3.9-44.5-2.8c-17.5,1.5-35.5,2-52.3,7.5
		c-5.6,1.8-4.8,10,0.8,11.1c17.3,3.7,35.3,2.3,52.9,2C269.6,207.7,288.7,212.1,299,200.4z"/>
</g>
<g>
	<path class="st2" d="M1409,527.4c-0.5-0.4-1.2-0.7-1.5-1.1c-1.3-1.7-3.5-2.9-5.6-4.1c-1.1-0.7-2.4-1.8-3.5-2.2v0.1l0,0l0,0
		c-0.9-0.7-2.1-1.3-2.6-2.1l0,0l0,0l0,0c1.5,0.9,3,1.9,4.5,2.8c1.8,1.1,3.3,1.8,3.5,1.2c-1.2-1.2-3.3-2.2-4.3-3.4l0.3,0.2l0.3,0.2
		c0.3,0.1,0.1-0.1,0.1-0.2c0,0,0,0,0.2,0.1c0,0.1-0.2,0-0.3,0c0.6,0.4,1.2,0.8,1.6,0.9l-0.1-0.1l0.1,0.1l0,0c0.7,0.5,1.4,1,2.1,1.4
		c0.8,0.5,0.4,0,0.5,0c0.2,0.1,0.3,0.2,0.3,0.1c0.1,0,0.2,0,0.2-0.1c-0.1-0.1,0.1,0.1,0,0c-0.8-0.7-1.9-1.3-2.8-1.9l0,0
		c-1.3-1.1-2.7-2-4.2-2.9c-1.1-0.8-2.3-1.6-3.5-2.4c-0.1,0,0,0.2,0,0.2l-0.1-0.1l0.1-0.1c-0.7-0.5-1.4-1-2.1-1.5l0,0l0,0
		c-0.7-0.5-1.3-0.9-2-1.4c-0.7-0.2-1.7-1.2-2.4-1.4l0,0c0.8,0.4,1.7,1.2,2.4,1.4c-0.9-0.6-1.9-1.3-2.8-2c2.2,1.1,0.8-0.4,1-0.7
		c0.1-0.4-1-1.3-2.3-2.1c-0.7-0.5-1.3-0.9-1.9-1.3c0.1-0.4-0.7-1.1-1.9-2.1c-3.5-2.7-7.2-5.2-10.9-7.8c-1.3-1.3-3.4-2.7-4.4-4
		c1.6,0.9,3.3,2.5,4.9,3.2c0.7,0.5,1.4,1,2.1,1.5c0.2,0.2,0.5,0.4,0.7,0.4c0.7,0.5,1.4,1,2.1,1.5c0.7,0.6,1.3,1.1,2.1,1.4
		c0.2,0.2,0.5,0.3,0.7,0.5c0.4,0.2,0.6,0.1,0.2-0.3c-0.2-0.2-0.5-0.3-0.7-0.5c-0.2-0.1-0.5-0.3-0.7-0.5c-0.8-0.5-1.4-1-2.1-1.5
		c-2-1.6-3.6-3.2-5.9-4.8c-0.2-0.2-0.4-0.4-0.6-0.6c-0.4-0.3-0.9-0.6-1.3-0.9c-0.3-0.1-0.5-0.3-0.7-0.5c-2.6-1.8-5.2-3.7-7.8-5.4
		c-0.2-0.1-0.4-0.3-0.6-0.4c-1.8-1.7-4-3.2-6.3-4.6c-0.4-0.3-0.8-0.6-1.2-0.9c-0.2-0.2-0.4-0.4-0.7-0.5c-0.7-0.5-1.4-1-2.1-1.5
		c0.3-0.2,1.2,0.1,2.3,0.9c3.4,2.4,6.8,4.3,10.1,6.7c2.8,2,5.7,3.9,8.6,5.8c2.2,1.5,4.5,2.6,6.7,4.4c0.7,0.5,1.3,0.9,2.1,1.4
		c0.9,0.4,2,1.4,2.9,1.7c0.1,0.1,0.2,0.1,0.2,0.1c0.1,0,0.1-0.1-0.1-0.2c-1.1-0.8-2.3-1.6-3.4-2.4c-0.9-0.6-1.6-1.2-1.8-1.7
		c0.5,0.3,0.9,0.6,1.4,0.9c0-0.1,0.1-0.1,0.1-0.2l0.1,0.1c-0.2,0-0.3,0-0.3,0.1c3,2,5.9,4.1,9,6c3.2,2,6.3,4.3,9.5,6.6
		c1.8,1.3,3.6,2.5,5.4,3.3c0.4,0.3,0.9,0.6,1.2,0.8c2,1.3,3.8,2.9,5.8,3.8l-0.1-0.1c0.5,0.2,1.2,0.8,1.6,0.8v-0.1
		c-0.9-1-2.2-1.7-3.4-2.4c-0.2-0.2-0.4-0.3-0.7-0.4c-0.3-0.2-0.5-0.3-0.8-0.6c0.1,0.1,0,0.2,0.1,0.2c-0.1,0-0.2-0.1-0.2-0.1
		s0.3,0.1,0.1-0.1c-0.2-0.1-0.4-0.3-0.5-0.4c-1.2-1.3-3.1-2.3-4.5-3.4c-0.5-0.4-1.5-1.1-0.6-0.9c1,0.2,1,0.2-0.4-0.8
		c-3.5-2.4-6.5-5-9.6-7.4c0.3,0.1,0.5,0.2,0.8,0.3c0.5,0.3,1,0.7,1.5,1c1.3,1,2.7,2.1,4.2,2.8h-0.1c1.8,1.3,3.8,2.8,6.2,3.7
		c-2.9-1.8-4.6-3.5-6.5-4.8c-5.1-3.6-10.1-7.2-15.1-10.7c-0.4-0.3-0.9-0.6-1.3-0.9c0.2-0.4-1-1.2-1.8-2l0,0
		c-0.2-0.2-0.4-0.4-0.5-0.6c0-0.1,0.1-0.1,0.1-0.2c0.2,0.1,0.4,0.3,0.6,0.4c0.3,0.2,0.6,0.3,0.9,0.4c0.9,0.5,1.8,0.8,2.4,0.9l0,0
		c0.3,0.1,0.5,0.2,0.8,0.3c0.4,0.3,0.9,0.6,1.4,0.9c0.5,0.2,1.1,0.7,1.6,0.9c0.4,0.3,0.9,0.6,1.4,1c0.7,0.2,1.5,1,2.2,1.3
		c0.2,0.1,0.1-0.1,0.1-0.1s0,0,0.1,0c0,0-0.1,0.1-0.2,0.1c1,0.7,2,1.5,2.8,1.9c1.6,0.9,3.8,2.7,5.1,2.8l0,0c0.3,0.2,0.6,0.2,0.8,0.4
		h-0.1c2.7,0.9,2.5,0.3-0.5-2.1c-0.4-0.3-0.9-0.6-1.3-0.9c-0.2-0.2-1.1-0.8-0.5-0.5c0.5,0.2,1.5,0.7,2,1.2c3.1,2.3,5.6,3.4,8.6,5.2
		c-1.6-2-4.3-3.5-6.6-5.2c2.1,0.6,2,0.4-0.5-1.7c-1.3-1.1-2.5-1.6-3.8-2.5c-0.2-0.1-0.4-0.3-0.6-0.4c0.1-0.1,0.1-0.2,0.2-0.4
		c0.3,0.1,0.6,0.2,0.8,0.4l0.3,0.1l0.3,0.2c0.8,0.5,1.7,1,2.3,0.9c-2.5-1.7-4.4-3.4-6.8-4.5c-0.2-0.1-0.5-0.3-0.7-0.5
		c0.2-0.1-1.7-1.6,0.2-0.4c1.9,1.1,3.6,2,5.7,3.2c-1.7-1.6-3.3-2.2-4.7-3.3c-0.4-0.6-1.2-1.1-2-1.6c-2.3-1.5-4.1-2.9-5.1-4.3
		c-0.8-1-2.2-1.7-3.4-2.6c-0.2-0.2-0.4-0.3-0.6-0.5c-0.6-0.6-1.7-1.3-1.9-1.8c-0.3-0.4-1-0.8-1.3-1.2l0,0c-1-0.9-2.2-1.7-3.4-2.4
		c-0.3-0.2-0.6-0.4-0.8-0.6c-0.6-0.9-0.8-1.6-3.2-2.9h0.1c-0.3-0.2-0.5-0.3-0.7-0.5c-0.7-0.5-1.3-0.9-2-1.4c-1-0.7-1.9-1.3-2.9-2
		c-0.1,0,0,0.1,0,0.2l0,0v-0.2c-0.2-0.1-0.4-0.3-0.6-0.4c-0.3-0.2-0.5-0.4-0.8-0.5c0,0.1-0.1,0.1-0.1,0.2l0,0c0.1,0,0.3,0,0.1-0.2
		c-0.4-0.3-0.9-0.6-1.3-0.9c-1-0.5-2-1.2-2.8-1.9l0,0c0-0.2,0-0.4-0.1-0.6c0-0.3-0.4-0.9-1.3-1.4c-1.6-0.9,0.3,0.7-0.6,0.3
		c-1.1-0.8-2.2-1.9-3.4-2.3c-0.5-0.4-0.9-0.7-1.4-1c-0.2-0.2-0.4-0.4-0.6-0.6h0.1c-2.3-2.6-6-4.9-9.4-7.3c-0.4-0.3-0.9-0.6-1.4-1
		c-1.5-1.3-3.4-2.3-4.9-3.6l0.1,0.1c-1.7-1.7-4.2-3.3-6.2-4.9c-1.2-0.9-2.2-1.8-3.6-2.7c-5.9-3.8-11.8-7.9-17.4-12.1
		c-2.9-2.2-5.9-4.5-9.1-6.5l0,0c-0.9-0.9-1.6-1.8-3.3-2.5c-0.2-0.2-0.5-0.4-0.7-0.5c-0.6-0.6-1.5-1.1-2.3-1.8l-0.2-0.1l-0.2-0.2
		c-0.4-0.6-1.2-1.2-2.1-1.7c-1.7-1-4.2-3.5-4.9-2.7c-0.1,0.1-1.1-0.5-1.6-0.9c-1.1-0.9-2.2-1.6-3.4-2.3c-3.5-2.2-7.1-4.5-10.5-7
		c-4.8-3.6-9.8-7-14.7-10.4l0,0c-0.1-0.1-0.1-0.1-0.1-0.1h0.1c-1.2-1.3-3.2-2.3-4.8-3.6l0,0c0,0,0,0-0.1-0.1h0.1
		c-0.7-0.9-2.1-1.7-3.2-2.5c-1.4-1.3-3.3-2.6-5-3.9c-2.5-1.8-4.3-2.6-5.2-2.3c-0.2,0-0.4,0.1-0.8-0.1c-2.3-1.1-2.5-0.6-2.1,0.4
		c0.2,0.5-0.1,0.6-1,0.2c-1.1-0.4-1.5-0.3-1.6,0c-0.2,0.5-0.7,0.6-2.8-0.8c-1-0.7-1.6-0.8-1.3-0.3c0.9,1.6-1.3,0.7-2.6,0.6
		c-0.9-0.1-1.7-0.6-3.2-1.5c-3.2-2.1-6.5-4.3-9.7-6.4c-1.3-0.8-2.5-1.6-3.7-2.6c-2.7-2.1-7.9-5-9.9-5.6c-0.3-0.1-0.4-0.1-0.5,0
		c-0.3,0.9-2.2,0.7-2.8,1.4c-0.2,0.3-0.5,0.4-1.7-0.2c-0.8-0.4-1.4-0.6-0.8,0.2c-0.2,0.3,0.2,1-1.4,0.1c-2.5-1.4-4.9-2.7-7.5-4.5
		c-4.1-2.9-8.5-5.7-12.4-7.6c-2.2-1.1-4.6-2.1-5.2-1.4c-0.4,0.3-1.3,0.3-2,0.5c-0.4,0.1-0.8,0.2-0.5,0.7c0.3,0.8-0.2,1-0.4,1.3
		c0.1,0.1,0.1,0.1,0.2,0.2l0,0l-0.2-0.2c-0.5-0.3-0.5-0.2-0.1,0.2l0.2,0.1l0.1,0.1c-0.1-0.1-0.1-0.1-0.2-0.2c0,0.3-0.3,0.3,0.4,1
		l0.2,0.1l0,0c0,0-0.1-0.1-0.2-0.1c-0.1,0.3,0.2,0.8,1.1,1.5h0.1c0.1,0.1,0,0,0,0l-0.1-0.1c-0.6,0.1-1,0.2-1.7,0.1
		c-1-0.1-1.7,0-1.7,0.6l0,0l0,0c0.2,0.1,0.4,0.3,0.5,0.3l0,0c-0.1-0.1-0.3-0.2-0.5-0.3c-1.2,0.1-1.4,1-1.5,1.9
		c0.2,0.1,0.2,0.2,0,0.2c-0.1,0.1-0.2,0.3,0.2,0.8l0.1,0.1l0,0c0,0-0.1,0-0.1-0.1c0,0.2,0,0.4,0.6,0.9c0.2,0.2,0.4,0.4,0.6,0.6l0,0
		h0.1c-0.1,0-0.1,0-0.1,0c0.2,0.2,0.4,0.4,0.6,0.6h0.1c0.1,0,0.1,0,0.1,0.1c-0.1,0-0.1-0.1-0.1-0.1c0.2,0.2,0.3,0.4,0.5,0.6h0.1l0,0
		c-0.1,0-0.1,0-0.1,0c0.2,0.2,0.4,0.4,0.6,0.7c0.2,0.2,0.4,0.4,0.6,0.7c0.2,0.2,0.4,0.5,0.6,0.7l0.3,0.1l0,0
		c-0.1-0.1-0.2-0.1-0.3-0.1c2.6,2.5,5.8,5,9.2,7.5c5,3.7,10.3,7.1,15.2,10.9c2.3,1.8,4.6,3.5,7.1,5.2c6.9,4.8,13.9,9.4,20.8,14
		c6.8,4.5,13.5,9.2,20.2,13.9c12.3,8.7,24.7,17.2,37.2,25.5c1.4,0.9,2.7,1.9,4.1,2.9c6.4,4.1,12.7,8.5,19.1,12.8
		c6.6,4.4,13.1,9,19.6,13.6c9.1,6.4,18.2,12.7,27.4,19c5.6,3.9,11.2,7.7,16.9,11.5c0.6,0.4,1.2,0.7,1.6,0.9c0.2,0.2,0.5,0.3,0.7,0.5
		s0.4,0.4,0.7,0.5h-0.1c1.5,1.3,3.1,2.4,4.9,3.4s3.6,2.3,5.5,3.5c2,1.4,4,2.7,6,3.7c0.4,0.3,0.7,0.7,1.1,1c5.4,3.6,10.7,6.9,16,10
		c0,0-0.1-0.1-0.1-0.2l0,0l0.1,0.1c0.6,0.4,1.1,0.7,1.5,0.8l-0.1-0.1c0,0,0.1,0,0.1,0.1l0,0c3.7,2,7.8,5,11.4,6.7
		C1410.7,528.4,1409.8,527.9,1409,527.4z M1361.7,464.7c-0.1,0-0.1,0-0.1,0.1C1361.6,464.7,1361.6,464.7,1361.7,464.7L1361.7,464.7z
		 M1362.9,488.2c-0.2-0.1-0.3-0.2-0.5-0.3C1362.6,488,1362.7,488,1362.9,488.2L1362.9,488.2z M1182.4,373.3
		c-0.1-0.1-0.1-0.1-0.2-0.2C1182.3,373.2,1182.3,373.2,1182.4,373.3L1182.4,373.3z M1290.4,417l0.1,0.1L1290.4,417L1290.4,417z
		 M1368.9,470.4L1368.9,470.4L1368.9,470.4C1368.8,470.3,1368.9,470.4,1368.9,470.4z M1358.2,493.3c-0.1-0.1,0-0.1-0.1-0.1l0,0
		c0.1,0.1,0-0.1,0.1,0C1358.2,493.3,1358.1,493.3,1358.2,493.3z M1207.6,366.5c0,0,0,0,0.1,0.1c0,0.1,0.1,0.2,0,0.2l0.1,0.1l0,0
		l-0.1-0.1C1207.7,366.7,1207.7,366.6,1207.6,366.5c0-0.2-0.2-0.4-0.1-0.5C1207.5,366.1,1207.2,366.1,1207.6,366.5z M1258.4,396.7
		c0.1,0.1,0.1,0.1,0.1,0.1c0,0.1-0.5,0-0.1,0.3c0,0,0,0-0.1-0.1c-0.2-0.3-0.3-0.5,0-0.4L1258.4,396.7z M1359,481.5
		C1358.9,481.5,1359,481.5,1359,481.5L1359,481.5C1359.2,481.5,1359.1,481.5,1359,481.5z M1361.9,496.4c-0.1-0.1-0.2-0.1-0.3-0.2
		c-0.1-0.1-0.2-0.2-0.2-0.2c-0.3-0.5,0.6,0.1,1,0.3c0.3,0.2,0.6,0.3,0.9,0.6C1362.4,496.3,1361.7,495.9,1361.9,496.4z M1261.6,426.4
		c-0.1-0.1,0,0-0.1-0.1L1261.6,426.4L1261.6,426.4z M1170.6,352.5c0,0,0,0,0.1,0.1c0,0-0.1,0,0,0.1c-0.1-0.1-0.2-0.2-0.3-0.3
		C1170.5,352.4,1170.5,352.4,1170.6,352.5z M1338.4,469.7c-0.1,0-0.1-0.1-0.1-0.1L1338.4,469.7c0.2,0,0.2,0,0.2,0l0,0
		C1338.6,469.7,1338.5,469.7,1338.4,469.7L1338.4,469.7z M1342.3,477.8L1342.3,477.8L1342.3,477.8L1342.3,477.8z M1354.1,484.1
		c0.2,0.3,0.3,0.4,0.5,0.7c-0.2-0.2-0.5-0.4-0.7-0.6C1353.9,484.1,1354.1,484.1,1354.1,484.1z M1372.6,499.3L1372.6,499.3
		L1372.6,499.3C1372.6,499.4,1372.6,499.3,1372.6,499.3z M1359.8,491.1c0.1,0,0.2,0.1,0.3,0.2c-0.1-0.1,0,0-0.1,0
		C1359.8,491.2,1359.9,491.2,1359.8,491.1z M1362.5,494.4c0.1-0.1,0.3-0.2,0.1-0.5c-0.5-0.1-0.9-0.3-1.3-0.4c0,0,0.1,0,0,0
		c1.1,0.8,1,0.3,1.3,0.4C1362.5,494,1362.4,494.1,1362.5,494.4L1362.5,494.4z M1349.5,485c0.6,0.4,1.3,0.9,1.9,1
		c-0.3-0.1-0.4-0.1-0.6-0.2C1350.2,485.6,1349.6,485.4,1349.5,485z M1349.5,482.3c0.1,0,0.1,0,0.2,0.1c0.1,0,0.1,0.1,0.2,0.1
		C1349.7,482.5,1349.6,482.3,1349.5,482.3z M1349.4,482.3c-0.4-0.1-0.7-0.2-1-0.3C1348.8,482.1,1349.3,482.4,1349.4,482.3
		L1349.4,482.3z M1348.2,482l0.1,0.1L1348.2,482L1348.2,482z M1351,486.9c0,0.1-0.2-0.1-0.2-0.1s-0.4-0.3-0.5-0.5
		C1350.5,486.5,1350.6,486.7,1351,486.9z M1193.4,365.5c-0.1-0.1,0,0-0.1-0.1c0.1,0.1,0.2,0.1,0.4,0.2
		C1193.5,365.5,1193.4,365.5,1193.4,365.5z M1200,376.1L1200,376.1L1200,376.1L1200,376.1z M1208,374.5c0,0-0.2-0.1-0.2,0
		c0-0.1,0-0.1,0-0.1C1207.9,374.4,1207.9,374.4,1208,374.5z M1199.6,381.7c0.2,0.1-0.1-0.1,0.3,0.1c1,0.5,2.1,1.2,2.8,1.4h0.1
		C1201.3,382.3,1200.6,382.2,1199.6,381.7z M1245,394.1l0.1,0.1c-0.1-0.1-0.1-0.1-0.2-0.2L1245,394.1z M1263.3,400.4L1263.3,400.4
		L1263.3,400.4L1263.3,400.4z M1304.7,453.8c-0.1,0-0.1,0-0.2-0.1C1304.5,453.6,1304.6,453.7,1304.7,453.8
		C1304.6,453.7,1304.6,453.7,1304.7,453.8z M1234.8,403C1234.7,403,1234.7,403,1234.8,403L1234.8,403L1234.8,403z M1315,439.5
		c0,0.1,0,0.2,0.2,0.4c0.6,0.5,1.2,1,0.3,0.6c-0.2-0.1-0.4-0.1-0.6-0.2C1315.4,440.3,1315.4,440,1315,439.5z M1324.8,447.1
		L1324.8,447.1L1324.8,447.1L1324.8,447.1z M1322.4,449.5L1322.4,449.5L1322.4,449.5L1322.4,449.5z M1302.4,437.6
		c0.4,0.3,0.4,0.1,0.7,0.3c-0.5-0.2-0.5-0.1-0.7-0.1C1302.4,437.7,1302.4,437.7,1302.4,437.6z M1306,442.1L1306,442.1
		c0.2,0.2,0.6,0.4,0.8,0.6C1306.6,442.4,1306.3,442.3,1306,442.1z M1300.9,439.1c0.8,0.3,1.7,0.8,2.4,1.1
		C1301.8,439.3,1301.3,439.1,1300.9,439.1C1301,439.1,1300.9,439.1,1300.9,439.1z M1303.5,440.2L1303.5,440.2L1303.5,440.2
		c0.1,0.1,0.1,0.1,0.2,0.2c-0.2-0.1-0.2-0.2-0.5-0.3C1303.4,440.2,1303.5,440.2,1303.5,440.2L1303.5,440.2z M1295.1,440.9l-0.1-0.1
		c-0.1,0,0-0.1,0-0.1C1295,440.8,1295,440.8,1295.1,440.9z M1304,446.9C1304,446.9,1304.1,446.9,1304,446.9c0.1,0.1,0.1,0.2,0.1,0.3
		C1304.1,447.1,1304.1,447,1304,446.9z M1299,440.8C1299,440.8,1299,440.9,1299,440.8c0.1,0.1,0.1,0.1,0.1,0.1
		C1299,440.9,1299,440.9,1299,440.8L1299,440.8z M1299.3,445c0.1,0.1,0.3,0.3,0.4,0.3C1299.6,445.2,1299.5,445.1,1299.3,445
		L1299.3,445z M1328.3,453.6L1328.3,453.6c0.1,0,0.3,0.1,0.3,0l0,0C1328.4,453.5,1328.4,453.6,1328.3,453.6z M1326.3,448.7
		c0.4,0.3,0.7,0.6,1,0.9c-0.4-0.3-0.8-0.6-1.3-0.9C1326.2,448.7,1326.2,448.8,1326.3,448.7z M1311.6,439.3
		C1311.6,439.3,1311.6,439.2,1311.6,439.3C1311.6,439.2,1311.6,439.3,1311.6,439.3L1311.6,439.3z M1297.5,439.3
		c0.1,0.1,0.3,0.2,0.4,0.3c0.1,0.1,0.2,0.2,0.2,0.2C1298,439.6,1297.7,439.5,1297.5,439.3z M1293.6,439.8
		C1293.5,439.8,1293.5,439.8,1293.6,439.8L1293.6,439.8C1293.5,439.8,1293.5,439.8,1293.6,439.8z M1265.1,420.9
		c-0.3-0.1-0.2,0-0.3,0.1C1264.8,420.8,1264.7,420.7,1265.1,420.9z M1236.5,401.9c0,0.1,0.1,0.1,0.1,0.2
		C1236.6,402.1,1236.5,402,1236.5,401.9L1236.5,401.9z M1236.7,399c0.1,0,0.2-0.2,0.4,0c0.1,0.1,0.4,0.2,0.5,0.2
		c-0.4-0.1-0.7-0.2-0.8,0C1236.9,399.2,1236.7,399.1,1236.7,399z M1252.8,406.7c-0.1,0-0.1,0-0.2,0
		C1252.7,406.7,1252.7,406.7,1252.8,406.7z M1263,414.7C1263,414.7,1262.9,414.7,1263,414.7C1262.9,414.6,1263,414.7,1263,414.7
		L1263,414.7z M1252.2,410.5l0.1,0.1c-0.1-0.1-0.1-0.1-0.2-0.2C1252.1,410.5,1252.2,410.5,1252.2,410.5z M1253.2,408.1
		c0.1,0.1,0.2,0.1,0.3,0.2C1253.4,408.2,1253.3,408.2,1253.2,408.1z M1240.5,400.9c-0.3-0.2-0.5-0.5-1-0.8c0.1,0.1,0.2,0.1,0.4,0.2
		C1240.4,400.6,1240.4,400.7,1240.5,400.9z M1243.3,401.4L1243.3,401.4L1243.3,401.4L1243.3,401.4z M1243,401.2
		c-0.4-0.4-1.2-1.1-1.6-1.5C1242,400.3,1242.3,400.7,1243,401.2z M1259.5,417.7L1259.5,417.7L1259.5,417.7L1259.5,417.7z
		 M1271.3,408L1271.3,408L1271.3,408L1271.3,408z M1276.3,414.4L1276.3,414.4L1276.3,414.4L1276.3,414.4z M1273.4,421.8
		L1273.4,421.8L1273.4,421.8L1273.4,421.8z M1275.2,421.1c0.1,0,0.3,0.1,0.3,0c-0.4,0.1-0.2,0.7,0,1.2
		C1275.4,422,1275.3,421.6,1275.2,421.1z M1280.3,419.9c-0.1-0.1-0.3-0.2-0.4-0.2l0,0C1280,419.7,1280.1,419.8,1280.3,419.9
		L1280.3,419.9z M1268.6,414.4c0.1,0.1,0.6,0.5,0.8,0.7c0,0,0,0,0,0.1c-0.4-0.3-0.7-0.7-1.3-1.1
		C1268.3,414.3,1268.4,414.4,1268.6,414.4z M1284,437.5c0,0.2,0.1,0.4,0.3,0.7c-0.2-0.2-0.6-0.5-0.4-0.5
		C1284,437.7,1283.8,437.5,1284,437.5z M1277.4,411.4L1277.4,411.4L1277.4,411.4L1277.4,411.4z M1244.5,399.8L1244.5,399.8
		L1244.5,399.8L1244.5,399.8z M1238.9,396.7c-0.2-0.3-0.4-0.4-0.7-0.8c0.2,0,0.5,0.1,0.8,0.2
		C1238.8,396.1,1238.9,396.5,1238.9,396.7z M1248.7,412.7c-0.1-0.1-0.2-0.2-0.3-0.3c0.7,0.5,1.2,0.9,1.4,1.2
		C1249.5,413.4,1249.1,413,1248.7,412.7z M1259.1,418.9c0,0.1-0.2,0.1,0,0.3c-0.1-0.1-0.1-0.1-0.2-0.2
		C1259,418.9,1259.1,419,1259.1,418.9z M1276,428.8c-0.1-0.1-0.1-0.1-0.1-0.1C1275.9,428.7,1276,428.8,1276,428.8L1276,428.8z
		 M1279.3,430.1c-0.2-0.3-0.7-0.6-0.4-0.7c0.3,0.3,0.6,0.6,0.9,0.8C1279.7,430.2,1279.4,430.1,1279.3,430.1z M1294.6,444
		c0.2,0.2,0.1,0.2,0.3,0.3c-1.4-1-2.8-1.9-4.3-2.5C1291.9,442.3,1293.2,443.1,1294.6,444z M1295.8,448.9L1295.8,448.9L1295.8,448.9
		L1295.8,448.9z M1300.7,449.8L1300.7,449.8C1300.6,449.8,1300.6,449.8,1300.7,449.8C1300.6,449.8,1300.6,449.7,1300.7,449.8z
		 M1313.5,454.5c0.8,0.5,0.6,0.6,0.8,0.9l0,0c-0.3-0.5-0.8-1-1.7-1.6C1313,454,1313.2,454.3,1313.5,454.5z M1325.5,446.3
		c0.3-0.2,1,0,2,0.4l0,0C1326,445.8,1325.9,446.2,1325.5,446.3z M1279.3,413c-0.4-0.3-0.9-0.6-1.4-0.9
		C1278.4,412.4,1278.8,412.8,1279.3,413L1279.3,413L1279.3,413L1279.3,413z M1211.5,380.6c0.4,0.3,0.4,0.5,0.9,0.8
		c0,0-0.3-0.1-0.4-0.1C1212,381.2,1211.7,380.9,1211.5,380.6z M1216,385.6c0.1,0.1,0.1,0.1,0.1,0.1
		C1216.1,385.6,1216.1,385.6,1216,385.6L1216,385.6z M1218.2,389.2c0.1,0,0.2,0.1,0.3,0.2C1218.3,389.3,1218.3,389.3,1218.2,389.2
		C1218.2,389.3,1218.1,389.2,1218.2,389.2z M1221.1,387.3c-0.2-0.1-0.5-0.3-0.6-0.3c-0.2-0.2-0.6-0.6-0.6-0.6
		C1220.3,386.7,1220.7,387,1221.1,387.3z M1238.7,407.8c-0.2,0-0.1,0.1-0.3,0c0,0-0.1-0.1-0.2-0.1
		C1238.3,407.8,1238.5,407.8,1238.7,407.8z M1248.2,415.1c0,0,0.1,0,0.2,0C1248.4,415.1,1248.2,415.1,1248.2,415.1z M1264.2,423.1
		c0.8,0.3,1.8,0.8,1.6,0.2c0,0,0,0,0,0.1v-0.1c0,0,0.1,0,0.1,0.1l0,0C1265.4,423.3,1264.6,423,1264.2,423.1L1264.2,423.1z
		 M1279.2,431.9c0.1,0,0.2,0.1,0.3,0.2h-0.2C1279.3,432.1,1279.1,431.9,1279.2,431.9z M1287.6,443.9L1287.6,443.9L1287.6,443.9
		L1287.6,443.9L1287.6,443.9z M1314.2,456.1c-0.1,0-0.3-0.1-0.4-0.1C1313.9,456.1,1314.1,456.2,1314.2,456.1z M1315.3,455.4
		L1315.3,455.4L1315.3,455.4z M1344.2,463.3C1344.1,463.3,1344.1,463.3,1344.2,463.3c0,0,0.2,0,0.3,0
		C1344.3,463.3,1344.4,463.5,1344.2,463.3z M1346.1,460.6c0.1,0.2,0.2,0.2,0.2,0.2c0.5,0.3-0.1,0-0.1-0.1c-0.3-0.3-0.1-0.4-0.2-0.6
		l0,0C1346,460.3,1345.9,460.4,1346.1,460.6z M1343.9,465L1343.9,465L1343.9,465L1343.9,465z M1369,474.4L1369,474.4L1369,474.4
		L1369,474.4z M1367.5,472.2c-0.1-0.3-0.8-0.7-1-1c0.1,0.1,0.2,0.1,0.3,0.2C1367.1,471.7,1367.4,471.9,1367.5,472.2L1367.5,472.2z
		 M1332,455.8L1332,455.8L1332,455.8L1332,455.8z M1319.8,441.7C1319.7,441.7,1319.7,441.7,1319.8,441.7c-0.3-0.5-0.3-0.8-0.6-1.2
		h0.1C1319.1,440.8,1319.6,441.3,1319.8,441.7z M1261.8,401.4l-0.2-0.2c0.1,0.1,0.2,0.2,0.3,0.3
		C1261.9,401.5,1261.8,401.4,1261.8,401.4z M1231.3,383.4c-0.4-0.1-0.2,0.3-0.4,0.3c0.8,0.1,0-0.7-0.9-1.5
		C1230.6,382.7,1231.1,383.1,1231.3,383.4z M1219.9,393.2l-0.1-0.1L1219.9,393.2z M1230.9,401.1L1230.9,401.1
		c-0.1,0-0.1-0.1-0.1-0.1L1230.9,401.1z M1229.5,401.1c0.1,0,0.3,0.1,0.3,0.1S1229.6,401.1,1229.5,401.1z M1303.8,454.4
		c-0.6-0.6-0.4-0.8-0.1-0.9c0.1,0,0.2,0,0.3,0.1c-0.9-0.2-0.8,0.2-0.1,0.8C1303.9,454.4,1303.8,454.4,1303.8,454.4z M1309.2,454
		c0,0,0.2,0.2,0.3,0.3l0,0c-0.2-0.2-0.4-0.4-0.6-0.6c0.3,0.3,0.7,0.5,1.1,0.7c-0.1,0-0.1-0.1-0.2-0.1
		C1309.6,454.2,1309.2,453.9,1309.2,454z M1339,476.3c0.1-0.1,0.9,0.2,1.5,0.6C1339.9,476.5,1339.3,476.3,1339,476.3z M1341.2,481.5
		c0.1,0,0.1,0.1,0.2,0.2c0.4,0.4,0.6,0.7,0.9,1.1c0.5,0.6,1.1,1.3,1.4,1.8c-0.1,0-0.1,0-0.1,0
		C1343.1,483.7,1342.1,482.6,1341.2,481.5z M1359.6,477c0.2,0.1,0.3,0.1,0.4,0.2c-0.1,0,0,0.1,0,0.1c-0.2-0.1-0.6-0.3-1-0.6
		C1359.3,476.9,1359.5,476.9,1359.6,477z M1366.9,478.3c0,0,0.2,0.2,0.3,0.2c-0.1-0.1-0.3-0.1-0.5-0.2
		C1366.9,478.4,1366.7,478.2,1366.9,478.3z M1359.9,468.3c0.3-0.1-0.1-0.6-0.7-1.1c0.1,0.1,0.3,0.2,0.4,0.3
		C1359.7,467.8,1359.9,468.1,1359.9,468.3L1359.9,468.3z M1302.9,426.3L1302.9,426.3L1302.9,426.3L1302.9,426.3z M1262.9,399.5
		c0.1,0,0,0.1,0.1,0.1c0,0.1,0,0.1,0,0.1C1263.1,399.6,1263,399.5,1262.9,399.5z M1231.8,394.2
		C1231.9,394.3,1231.8,394.3,1231.8,394.2C1231.8,394.3,1231.8,394.2,1231.8,394.2L1231.8,394.2z M1206,371.9L1206,371.9L1206,371.9
		L1206,371.9z M1172.6,354.2L1172.6,354.2l-0.1-0.1C1172.6,354.2,1172.6,354.2,1172.6,354.2z M1191.2,376.3c-0.2,0-0.2,0.1-0.5,0.1
		c-0.1,0-0.3-0.2-0.4-0.2C1190.7,376.2,1191,376.3,1191.2,376.3z M1199.7,384.5C1199.7,384.4,1199.7,384.4,1199.7,384.5
		L1199.7,384.5C1199.8,384.5,1199.8,384.5,1199.7,384.5z M1210.6,387.4L1210.6,387.4L1210.6,387.4L1210.6,387.4z M1221,395.3
		C1221,395.3,1221,395.2,1221,395.3C1221,395.2,1221,395.3,1221,395.3z M1305.8,456.8c-0.2,0-0.1,0.2-0.1,0.3
		C1305.3,456.7,1305.5,456.7,1305.8,456.8z M1312.3,455.8L1312.3,455.8c-0.1-0.1-0.3-0.1-0.4-0.1l0,0
		C1312,455.7,1312.1,455.7,1312.3,455.8z M1322.3,463.8L1322.3,463.8c0,0-0.1,0-0.1-0.1C1322.2,463.8,1322.3,463.8,1322.3,463.8z
		 M1346.1,486.6c0,0,0.1,0,0.3,0c0,0-0.1,0,0,0C1346.3,486.7,1346.2,486.7,1346.1,486.6C1346.2,486.7,1346.2,486.7,1346.1,486.6z
		 M1351.8,486.3C1351.8,486.2,1351.8,486.2,1351.8,486.3C1351.8,486.2,1351.9,486.2,1351.8,486.3c0.2,0.1,0.3,0.2,0.4,0.3
		C1352.1,486.5,1351.9,486.3,1351.8,486.3z M1377.7,503.4L1377.7,503.4C1377.9,503.4,1377.8,503.4,1377.7,503.4L1377.7,503.4
		L1377.7,503.4z M1374.8,500.4L1374.8,500.4L1374.8,500.4L1374.8,500.4C1374.8,500.4,1374.9,500.4,1374.8,500.4
		c0.3,0.2,0.5,0.4,0.9,0.6C1375.4,500.8,1375.1,500.6,1374.8,500.4z M1358.8,488.8C1358.7,488.7,1358.7,488.7,1358.8,488.8
		c0,0,0.1,0.1,0.2,0.1L1358.8,488.8z M1348.2,480.4l-0.1-0.1L1348.2,480.4C1348.1,480.4,1348.2,480.4,1348.2,480.4z M1365.7,479.2
		C1365.7,479.3,1365.7,479.3,1365.7,479.2c0.1,0.1,0.2,0.1,0.3,0.2C1365.9,479.4,1365.8,479.3,1365.7,479.2z M1376.2,484.6
		c0.1,0.3-0.2,0.3-0.6,0.3l0,0C1376.3,485.2,1376.2,484.8,1376.2,484.6z M1380.7,485.6c0.1,0.1,0.2,0.2,0.2,0.2
		c-0.6-0.3-1.4-0.8-1.9-1.1C1379.7,485.2,1380.3,485.6,1380.7,485.6z M1350.9,458.4c0,0,0,0-0.1-0.1
		C1351,458.3,1351,458.4,1350.9,458.4C1351,458.4,1351,458.4,1350.9,458.4z M1335.2,449c-0.1-0.1-0.4-0.2-0.5-0.3
		c-0.3-0.2,0,0,0-0.1C1334.9,448.7,1334.9,448.9,1335.2,449L1335.2,449z M1321.4,437.7c0.1-0.2-0.2-0.6-0.4-0.9l0,0
		C1321.1,437.1,1321.2,437.5,1321.4,437.7C1321.5,437.8,1321.5,437.8,1321.4,437.7z M1298.7,422c-0.2-0.2-0.6-0.6-0.8-0.8
		C1298.2,421.5,1298.5,421.8,1298.7,422C1298.8,422,1298.8,422,1298.7,422z M1280.5,408.1c-0.4-0.3-1-0.7-1-0.8
		c1,0.5,1.2,0.5,1.7,0.8C1280.9,408,1280.7,408.1,1280.5,408.1z M1264.6,399C1264.7,399,1264.7,399,1264.6,399c0.1,0,0.1,0,0.1,0.1
		C1264.7,399,1264.7,399,1264.6,399z M1247.7,393.3c0.2,0.1,0.4,0.2,0.6,0.3C1248.1,393.5,1247.9,393.5,1247.7,393.3z M1230.2,380.1
		L1230.2,380.1c0,0,0-0.1,0.1-0.1h0.1C1230.4,380.1,1230.2,380,1230.2,380.1z M1228.6,379.6c0.1,0.1,0.2,0.2,0.4,0.2
		C1228.7,379.8,1228.6,379.7,1228.6,379.6z M1217.3,378.9c0.2,0.1,0.4,0.2,0.6,0.4c0,0.1,0.1,0.1,0.2,0.2
		C1217.8,379.2,1217.6,379.1,1217.3,378.9z M1198.5,366.3L1198.5,366.3c-0.2-0.3,0.2-0.3-0.3-0.8l0,0
		C1198.3,365.8,1198.3,366,1198.5,366.3z M1196.5,364.8L1196.5,364.8L1196.5,364.8L1196.5,364.8z M1175.4,354.1
		c0.2,0.2,0.5,0.4,0.5,0.5c-0.2-0.1-0.3-0.1-0.4-0.2C1175.6,354.4,1175.5,354.3,1175.4,354.1z M1174.5,363.2L1174.5,363.2
		L1174.5,363.2z M1187.3,376.7c0.4,0.3,0.5,0.4,0.7,0.6l-0.1-0.1C1187.7,377,1187.7,376.9,1187.3,376.7z M1209.1,391.6
		c0,0.2-0.3,0.2,0.2,0.7l0,0C1209.2,392,1209,391.8,1209.1,391.6z M1264.7,430.4L1264.7,430.4L1264.7,430.4L1264.7,430.4z
		 M1360.8,495.8c-0.1,0-0.2-0.1-0.3-0.1c-0.1-0.1,0-0.1-0.1-0.1C1360.6,495.6,1360.6,495.7,1360.8,495.8z M1342.4,472.2
		c0,0-0.1-0.1-0.2-0.2l0,0c-0.3-0.2-0.5-0.2-0.7-0.2c0-0.1-0.1-0.1-0.1-0.1c0.3,0.1,0.5,0.2,0.8,0.3c0,0-0.1-0.1-0.2-0.1
		c0.1,0.1,0.1,0,0.2,0.1c0.3,0.1,0.5,0.2,0.8,0.3l0,0C1342.5,472,1342.3,472,1342.4,472.2z M1387.1,499.2c0.1,0,0.2,0.1,0.3,0.2
		l0.1,0.1C1387.3,499.3,1387.1,499.3,1387.1,499.2z M1381.5,492.7c0,0,0.2,0.1,0.3,0.1c0.1,0,0.1,0,0.1,0c0.4,0.2,0.8,0.4,1.2,0.7
		C1382.4,493,1382,493,1381.5,492.7z M1380.5,487c0.1,0,0.2,0,0.2,0s0.3,0.2,0.4,0.3C1380.8,487.2,1380.7,487.2,1380.5,487z
		 M1369,470.6L1369,470.6c0-0.1-0.1-0.1,0-0.2l0,0C1368.9,470.5,1369,470.6,1369,470.6z M1333,443.2c-0.1,0-0.1,0-0.2-0.1
		c0,0-0.1-0.1,0,0c0,0.2-0.5-0.4-0.1-0.1l0.1,0.1C1332.9,443.1,1332.9,443.1,1333,443.2L1333,443.2z M1289.7,417.6
		C1289.7,417.6,1289.6,417.5,1289.7,417.6C1289.6,417.5,1289.6,417.5,1289.7,417.6L1289.7,417.6z M1282.2,407.9L1282.2,407.9
		C1282.2,407.9,1282.3,408,1282.2,407.9C1282.3,407.9,1282.2,408,1282.2,407.9z M1260.3,397.9C1260.4,398,1260.2,397.9,1260.3,397.9
		c-0.2-0.1-0.2-0.1-0.4-0.2C1260,397.7,1260.3,397.9,1260.3,397.9z M1256.2,394.5c0,0,0.1,0,0.1,0.1
		C1256.3,394.5,1256.3,394.5,1256.2,394.5c0.1,0,0.1,0,0.2,0c0.4,0.1,0.8,0.3,1.4,0.6c-0.6-0.4-1-0.5-1.4-0.6c-0.1,0,0,0,0,0
		C1256.3,394.5,1256.2,394.5,1256.2,394.5z M1224.4,376.5c-0.1-0.1-0.1-0.1-0.2-0.1C1224.2,376.3,1224.2,376.3,1224.4,376.5
		C1224.3,376.4,1224.4,376.4,1224.4,376.5z M1190.3,361.9c-0.2-0.2-0.3-0.2-0.6-0.4c0.4,0.2,0.7,0.4,1.1,0.5
		C1190.7,362,1190.4,361.9,1190.3,361.9z M1172.1,352.8c-0.1-0.1,0,0-0.1-0.2C1172.1,352.7,1172.1,352.7,1172.1,352.8L1172.1,352.8z
		 M1167.2,355.2L1167.2,355.2L1167.2,355.2L1167.2,355.2z M1168.9,358.1c-0.2-0.2-0.5-0.5-0.7-0.6
		C1168.4,357.6,1168.7,357.9,1168.9,358.1z M1172.4,363.8c0.1,0.2-0.3,0.2-0.6,0.2c-0.1,0-0.1,0-0.1,0c0.8,0,0.8-0.5,0.5-1.3
		C1172.4,363.2,1172.3,363.4,1172.4,363.8z M1396.1,516.8c-0.1,0-0.1-0.1-0.1-0.2c0.2,0.1,0.4,0.3,0.5,0.3l0,0
		C1396.4,516.8,1396.3,516.8,1396.1,516.8z M1395.1,515.7c0,0,0.1,0,0.2,0.1c0,0.1,0,0.1,0.1,0.2
		C1395.3,515.9,1395.1,515.7,1395.1,515.7z M1348.7,477.3L1348.7,477.3L1348.7,477.3L1348.7,477.3z M1390.8,502.1
		c-0.4-0.3-0.9-0.7-1.2-0.9c0.6,0.4,1.2,0.9,2,1.4h0.1c-0.2-0.2,0.1,0,0.2,0.2l0,0c-0.1-0.1-0.2-0.2-0.3-0.2h-0.1
		C1391.3,502.4,1391.1,502.3,1390.8,502.1z M1384.2,483.8c0.1,0,0.3,0.2,0.5,0.3c0,0,0,0.1,0.1,0.1
		C1384.6,484.1,1384.4,484,1384.2,483.8z M1295.8,417.4c0,0,0,0-0.2-0.1c0,0,0,0-0.1-0.1C1295.7,417.3,1295.8,417.4,1295.8,417.4z
		 M1249.6,391.5c0.1,0,0.3,0.1,0.5,0.3c-0.1,0-0.1,0-0.1,0.1C1250,391.8,1249.7,391.6,1249.6,391.5z M1249,420.4
		c0.6,0.4,1.2,0.7,1.7,1.1c0.4,0.3,0.8,0.5,1.2,0.8l0,0c0.1,0,0.1,0.1,0.1,0.1c0.1,0.1,0.1,0.1,0.1,0.1c0-0.1,0-0.1-0.3-0.2
		c-0.8-0.6-1.7-1.2-2.6-1.7C1249.2,420.5,1249.1,420.4,1249,420.4z M1382.3,509.5c0.3,0.3,0.4,0.2,0.6,0.5
		C1382.7,509.8,1382.4,509.7,1382.3,509.5C1382.3,509.6,1382.2,509.5,1382.3,509.5z M1399.9,521.6
		C1400,521.6,1400,521.7,1399.9,521.6C1400.1,521.8,1400,521.7,1399.9,521.6C1400,521.7,1400,521.7,1399.9,521.6z M1390.7,514.8
		c-0.1,0-0.1-0.1-0.2-0.1L1390.7,514.8C1390.7,514.7,1390.7,514.8,1390.7,514.8C1390.7,514.7,1390.6,514.8,1390.7,514.8z
		 M1402,519.3c-0.1-0.1-0.2-0.1-0.2-0.2l0,0C1401.9,519.2,1401.9,519.2,1402,519.3z M1387.8,509.9L1387.8,509.9L1387.8,509.9
		L1387.8,509.9z M1350,477.5c-0.1,0-0.2-0.1-0.2-0.1c-0.1-0.1,0.1,0.1,0-0.1C1349.8,477.4,1349.9,477.5,1350,477.5z M1368.4,487.5
		L1368.4,487.5L1368.4,487.5L1368.4,487.5z M1406.9,513.2L1406.9,513.2c0,0,0.1,0.1,0.1,0.1C1407,513.2,1406.9,513.2,1406.9,513.2z
		 M1377.4,487.8c-0.2-0.2-0.4-0.4-0.7-0.6l0,0C1376.9,487.4,1377.2,487.5,1377.4,487.8z M1361.3,464c-0.6-0.4-1.3-0.8-1.9-1.2
		c-0.6-0.4-1-0.8-1.6-1.3C1358.9,462.4,1360.1,463.3,1361.3,464z M1323.9,436.2L1323.9,436.2L1323.9,436.2L1323.9,436.2z
		 M1248.2,382.7c-0.1-0.1-0.1-0.1-0.1-0.1c-0.1-0.1,0-0.2-0.1-0.3l0,0C1247.9,382.4,1248,382.5,1248.2,382.7z"/>
	<path class="st2" d="M1402.1,501.2c0.1,0.1,0.2,0.2,0.3,0.2c0.5,0.5,1,1,1.7,1.2l0,0l0,0l0,0c0.5,0.3,0.5,0.2,0.1-0.2
		c-0.3-0.4-0.9-0.9-1.6-1.4C1401.6,500.4,1401.6,500.6,1402.1,501.2L1402.1,501.2z"/>
	<path class="st2" d="M1391.1,511.3c0.1,0,0.3,0.1,0.4,0.1c-0.2-0.1-0.4-0.3-0.5-0.4c-0.1,0-0.3-0.1-0.3,0
		C1390.7,511,1390.9,511.2,1391.1,511.3z"/>
	<path class="st2" d="M1390.2,485.4c0,0-0.2-0.2-0.3-0.2c-0.1,0-0.1,0-0.1,0.1c0,0,0.1,0.1,0.2,0.2
		C1390.1,485.3,1390.2,485.4,1390.2,485.4z"/>
	<path class="st2" d="M1405.5,509.2c0,0-0.1-0.1-0.2-0.2c-0.1,0-0.1-0.1-0.2,0c0,0,0.2,0.1,0.2,0.2
		C1405.4,509.2,1405.5,509.2,1405.5,509.2z"/>
</g>
<g>
	<path class="st3" d="M1294.2,141.4c0.5-0.1,1-0.2,1.5-0.2c1-0.3,2.2-0.3,3.1-0.6l0,0c0.5-0.1,1-0.1,1.5-0.2
		c0.5-0.2,1.1-0.2,1.5-0.3c0.9-0.1,1.8-0.3,2.6-0.4c0.4-0.1,0.8-0.1,1-0.2c0.8-0.1,1.4-0.2,2.2-0.3c0.2-0.1,0.8-0.2,1-0.3
		s0.3-0.1,0.5-0.2c-0.5-0.1-1,0.1-1.5,0.2c-0.8,0.1-1.7,0.3-2.5,0.4c-0.7,0.1-1.5,0.1-2.1,0.4c-0.5,0.1-1,0.2-1.5,0.3
		c-0.8,0.3-1.9,0.2-2.6,0.5c-0.3,0-0.6,0.1-1,0.1c-0.6,0.1-1.2,0.1-1.6,0.3c-0.2,0-0.4,0.1-0.6,0.1s-0.4,0-0.5,0.1
		c-0.2,0.1-0.3,0.1-0.5,0.1c-1.5,0.2-2.9,0.4-4.4,0.6c-0.4,0.1-0.6,0.2-0.6,0.3s0.3,0.1,0.7,0.1
		C1291.7,141.9,1293,141.8,1294.2,141.4z M1304.6,139.5L1304.6,139.5c0.2,0,0.4-0.1,0.6-0.1l0,0l0,0
		C1305,139.5,1304.8,139.5,1304.6,139.5z M1291.8,141.7L1291.8,141.7c-0.2,0-0.4,0.1-0.6,0.1
		C1291.4,141.7,1291.6,141.7,1291.8,141.7z"/>
	<path class="st3" d="M1417.2,137.7c-0.1,0-0.1,0-0.1,0.1c-0.1,0-0.3-0.1-0.4-0.1c0,0,0,0-0.1,0c0.1,0,0.1,0,0.2,0
		c-0.2,0-0.3,0-0.5-0.1h-0.1c-0.1,0-0.1,0-0.1,0s0.1,0,0.2,0c-0.4-0.3,0.3-0.8-0.7-1h-0.1l0,0h0.1c0-0.2-0.4-0.2-1-0.1
		c0,0-0.1,0-0.1,0.1l0,0h0.1c-0.2,0-0.4,0-0.6-0.1l-0.2,0.1l0,0c0.1,0,0.1,0,0.2,0c-0.2,0-0.3,0-0.5-0.1c-0.8-0.2-1.7-0.3-2.7-0.3
		c-0.2,0-0.3,0-0.5,0c-0.5-0.1-1.3,0-1.9,0.1c-2.1,0.5-4.5,0.8-6.5,1.3c-0.2,0-0.3,0-0.5,0.1c-0.1,0-0.3,0-0.4,0.1
		c-0.6,0.1-1.2,0.1-1.7,0.3h0.1h-0.1h-0.1c-0.7,0.1-1.6,0.2-2.1,0.4c0,0,0.1,0,0.2,0l0,0h-0.2c-0.4,0.1-0.8,0.1-1,0.3h0.1l0,0
		c0,0,0,0-0.1,0c-0.5,0-1.5,0.3-1.1-0.1c0.8-0.8,0.6-1.4-0.3-1.9c-0.5-0.3-0.5-0.5,1.2-0.9c-1.1,0-2.1,0.2-2.8,0.1
		c-0.8-0.3-1.8-0.5-3.7-0.3h-0.1l0,0c0,0,0,0,0.1,0c-0.1-0.2-1.3-0.2-1.1-0.4c0.2-0.3-0.4-0.3-1.3-0.2c-3.5,0.4-6.8,1.2-10.2,1.6
		c-0.2,0-0.4,0.1-0.6,0.2c-0.2,0-0.4,0.1-0.5,0.1c-0.4,0-0.8,0-1,0.2c0,0,0,0,0.1,0c-1.7,0.2-3.6,0.6-4.8,0.2
		c-0.4-0.1-1.2,0-1.9,0.2h-0.2h-0.1c-0.4-0.1-1.1,0.1-1.7,0.1c-0.2-0.2-1.1-0.2-1.2-0.4c0.3-0.1,0.5-0.1,0.6-0.2
		c1.1-0.1,1.6-0.4,2.2-0.7c0.7-0.2,1-0.5,2-0.7c1.8-0.4,3.2-0.9,4.9-1.4c1.7-0.5,2.5-1.1,1.4-1.3s-1.2-0.7-2-1
		c-0.1-0.1-0.2-0.2-0.5-0.2h-0.1l0,0c0,0,0,0,0.1,0c-0.1-0.4-0.5-0.7-1.2-0.9c0-0.1-0.2-0.2-0.6-0.2l-0.2,0.1l0,0c0,0,0.1,0,0.2,0
		c-0.2-0.3-0.6-0.5-1.6-0.5c-0.1-0.1-0.2-0.2-0.6-0.2c-0.1,0-0.1,0-0.2,0.1l0,0l0.2-0.1c-0.2,0-0.3,0-0.5-0.1h-0.1
		c-0.1,0-0.1,0-0.1,0c0.1,0,0.1,0,0.2,0c-0.1-0.1-0.3-0.1-0.7-0.1l0,0h-0.1l0,0l0,0l0,0l0,0c-0.1-0.1-0.2-0.1-0.5-0.1
		c-0.1,0-0.3,0.1-0.4,0c-1.7,0.3-3.5,0.5-5.2,0.9h0.1c-0.7,0.1-1.4,0.2-2,0.3c-0.7,0.2-1.3,0.2-1.8,0.1c-1.9,0.4-4,0.8-5.7,1.4
		c-0.8,0.1-1.9,0.1-2.5,0.5l0,0c-1.2,0.2-2.6,0.4-3.7,0.8l0,0c-0.6,0.2-1.5,0.2-2.1,0.5l0,0c-0.3,0.1-0.8,0.1-1.1,0.3l-0.1,0.1h-0.2
		c-0.7,0.1-1.5,0.2-2.3,0.3c-0.1,0.1-0.3,0.1-0.4,0.2c-2.2,0.5-4.5,0.9-6.8,1.4c-0.2,0.1-0.3,0.1-0.5,0.2c-1.9,0.3-3.8,0.8-5.8,1
		c-0.1,0.1-0.3,0.1-0.5,0.2c-0.2,0-0.3,0-0.5,0.1c-0.4,0-0.7,0-1,0.1c-1.3,0.2-2.7,0.3-3.7,0.7c-1.7,0.6-3.7,0.8-5.6,1.3
		c-0.9,0.2-1.7,0-2.6,0.2c-0.8,0.2-0.7,0.5-1.9,0.8c-1.3,0.3-2.5,0.5-3.8,0.7c-0.2,0.1-0.1,0.1,0,0.1l0,0v-0.1
		c-0.2,0-0.4,0.1-0.5,0.1v0.1c-0.6,0.1-1.1,0.1-1.6,0.2c-0.2,0.1-0.3,0.1-0.5,0.2l-0.2,0.1h-0.2c-0.4,0-1,0.2-1.3,0.1
		c0.1-0.2,1.1-0.3,1.1-0.5c-1.7,0.2-2.7,0.5-3.2,1c-0.4,0.1-0.8,0.1-0.8,0c0-0.4-0.6-0.2-1.5,0c-0.7,0.2-0.8,0.4-0.8,0.5
		c-0.2,0-0.3,0-0.5,0.1c-0.2,0-0.4,0-0.5,0.1h0.1c-0.2,0-0.4,0-0.6,0.1c-0.6,0.1-1.6,0.3-1.4-0.1c0.1-0.2-0.3-0.3-1-0.2
		c-0.6,0.1-1.2,0.1-1.7,0.4c0.7,0,1.6,0,1.5,0.3c-0.6,0.2-1.4,0.2-2,0.4c-0.3,0-0.7,0.1-1.1,0.2c-1.1-0.1-1.1-0.1-1.3-0.7
		c-0.1-0.4,1.1-0.7,2.2-1c1.1-0.2,2.2-0.3,3.2-0.3c0.6,0,1.4,0,2.1-0.3c1-0.1,2-0.3,3-0.4c2.5-0.4,5-0.9,7.3-1.5l0,0
		c1.3-0.3,2.8-0.4,4.2-0.7c0.5-0.2,1.2-0.3,1.9-0.4c0.2,0,0.5-0.1,0.7-0.1c0.5-0.1,1.1-0.2,1.5-0.3c1.7-0.2,3.2-0.6,4.7-0.9
		c-0.1,0-0.1,0-0.2,0l0,0h0.1c0.6-0.1,1.2-0.1,1.5-0.3l0.3-0.1h0.2c0.9-0.1,1.9-0.2,2.6-0.5c0.2,0,0.2-0.1,0.4-0.1
		c0.6-0.1,1.2-0.2,1.7-0.4c0.1,0,0.1,0,0.1-0.1c0,0,0,0-0.1-0.1c-1.4,0-2.8,0-4.4,0.5c-0.4,0.1-1,0.2-1.5,0.3
		c-3.3,0.3-6,0.9-8.7,1.7c0.1,0,0.1,0,0.1,0l0,0h-0.1c-0.4,0.1-0.8,0.1-1,0.3c-0.4,0.1-0.7,0.1-1,0.3c-0.3,0.1-0.6,0.1-1,0.2
		c-0.5,0.1-1,0.2-1.6,0.2c-2.4,0.1-4.7,0.6-7,1.1c-1,0.2-2.1,0.5-3.3,0.5c-0.9,0-2,0.1-1.4,0.5c0.1,0.1-0.6,0.2-1,0.3
		c-0.8,0.1-1.7,0.3-2.6,0.4c-0.1,0-0.2,0-0.3,0c-0.2,0-0.3,0-0.5,0.1c-0.1,0-0.3,0.1-0.4,0.1c-2.3,0-4.6,0.1-6.9,0.9
		c-0.4,0.1-0.8,0.1-1.1,0.1c-0.5-0.1-1.2,0.1-1.9,0.2c-2,0.3-3.9,0.5-5.9,0.8c0,0,0,0,0,0.1l0,0l0,0c-0.9-0.1-2.1,0.2-3.1,0.3
		c-0.4-0.1-1,0-1.5,0.1c-0.3,0-0.7,0-1.2,0c-0.6,0.1-0.4,0.2-0.7,0.3c-0.3,0.1-0.5,0.2-0.6,0.2c-0.2,0.1-0.9,0.2-0.8,0.3
		s0.2,0.2,0.6,0.2c0.1,0.2,0.5,0.3,1.1,0.3l0.1-0.1l0,0h-0.1c0.4,0.2,0.8,0.4,1.2,0.7c0,0.2,0.2,0.4,1.1,0.4c0.1,0,0.1,0,0.2-0.1
		l0,0l-0.2,0.1c0.2,0.1,0.4,0.2,0.5,0.3c-0.6,0.1-1.2,0.2-1.8,0.3c-0.6,0.1-0.9,0.4-0.9,0.5c0,0.2,0.6,0.1,1.1,0c0.5,0,0.9,0,1,0.1
		c0.1,0.2-0.6,0.3-0.9,0.4c-1.1,0.4-2.8,0.5-4.1,0.9c0.1,0,0.1,0,0.2,0l0,0h-0.2c-0.7,0.1-1.5,0.2-2,0.4l0,0l0,0l0,0
		c-0.9,0.2-1.9,0.2-2.7,0.5c0.1,0,0.2,0,0.2,0l0,0h-0.2c-0.8,0.2-1.9,0.2-2.5,0.5h0.1h-0.1l0,0c-1.3,0.4-2.8,0.1-4.3,0.7
		c-1.1,0.4-3.2,0.6-4.6,1c-1.5,0.3-3.2,0.3-4.6,0.8h0.1h-0.1l0,0c-2.9,0.4-5.9,0.8-8.8,1.2l-0.1,0.1l0,0c0.1,0,0.1,0,0.1-0.1
		c-2.2,0.2-4.3,0.4-6.6,0.7c-1.2,0.1-2.2,0.3-3.1,0.6c-0.2,0.1-0.3,0.1-0.4,0c-0.2-0.1-0.6-0.1-1,0c-1-0.1-2.1,0.2-3.2,0.3h-0.1l0,0
		h0.1c-0.4-0.1-1.1,0-1.7,0.1l0,0c-0.4-0.1-1.2,0.1-1.7,0.1c-0.1,0-0.2,0-0.3,0c-0.2-0.1-0.6-0.1-1.1,0c-0.7,0-1.4,0-2,0.3l0,0
		c0.1,0.1,0.7,0,1,0.1c-0.2,0.1-0.4,0.2-0.7,0.3c-0.3,0-0.6,0.1-0.9,0.1c-0.5,0-1,0.1-1.5,0.3l0,0c-0.1,0-0.2,0.1-0.3,0.1
		c0.1,0,0.2,0,0.3,0l0,0c0.1,0.1,0.3,0.1,0.5,0.1c0.2,0.1,0.6,0,1.1,0l0,0l0,0l0,0c0.2,0.1,0.6,0,1,0l0.2-0.1l0,0
		c-0.1,0-0.1,0-0.2,0.1c0.4,0.1,0.9,0.1,1.6,0l0.1-0.1l0,0c0,0-0.1,0-0.2,0.1c0.8,0.2-0.4,0.3-0.9,0.4c0,0,0,0-0.1,0l0,0h0.1
		c-0.3-0.1-0.6,0-1,0c-0.7-0.1-1.4,0.3-2.2,0.3c-2,0-3.9,0.3-5.7,0.9c-0.3-0.1-0.8,0-1.1,0h0.1c-0.6-0.1-1.5,0.2-2.1,0.1l0,0
		c-0.3,0-0.8,0.1-1.3,0.1c-0.1,0-0.2,0.1-0.2,0.1c-1.5,0.1-3,0.3-4.6,0.6c0.5,0.2,1.2,0.1,2,0.1c0.4,0.1,1,0,1.6-0.1
		c-0.1,0-0.1-0.1-0.1-0.1h0.1c-0.1,0-0.1,0.1,0,0.1l0,0c0.3,0,0.8-0.1,1.2,0c0.2,0,0.3,0,0.4,0c0.3,0,0.8-0.1,1,0l0,0
		c0.4,0,0.8-0.1,1.1,0l0,0c0.3,0.1,1,0,1.5,0c0.4,0.1,1,0.1,1.7,0l0.2-0.1l0,0c-0.1,0-0.1,0-0.2,0.1c0.4,0.1,0.9,0.1,1.6,0h0.1l0,0
		h-0.1c1.2,0.1,2.5,0.2,4.3,0.1l0,0l0,0h-0.1c0.2,0.1,0.6,0.1,1,0c1.2,0.2,2.6,0.1,4.3-0.1l0,0l0,0l0,0c0.2,0.1,0.6,0,1,0l0,0l0,0
		h-0.1c0.3,0.1,0.6,0,1,0l0.1-0.1l0,0c-0.1,0-0.1,0-0.1,0.1c0.4,0.1,1,0,1.6-0.1l0.1-0.1l0,0c0,0-0.1,0-0.1,0.1
		c1.8,0.2,4.1-0.1,6.2-0.2c2-0.1,4.1-0.4,6.1-0.6c0.7-0.1,1.2-0.1,1.4,0.1c0.2,0.2-0.5,0.3-1,0.5c-0.3,0.1-0.6,0.2-0.4,0.2
		c0.3,0.1,0.9-0.1,1.1,0c-0.5,0.2-1.1,0.2-1.7,0.3c0,0.1,0.1,0.1,0.2,0.1l0,0c0-0.1-0.1-0.1-0.2-0.1s-0.2,0-0.4,0
		c-0.6-0.1-1.5,0.2-2.2,0.2c-1,0-1.9,0.2-2.9,0.4h-0.1h-0.1c0.1,0,0.1,0,0.1,0c-0.9,0.4,0.1,0.2,0.6,0.2h0.2h0.2
		c0.4,0.1,1.2-0.1,1.6,0c-2,0.3-4,0.6-5.9,0.8c-0.6,0.1-1.4,0.1-1.6,0.4c-0.4,0.3-1.2,0.4-2.1,0.6c-0.7,0.1-1.3,0.3-1.3,0.5
		c0.6,0,1.2-0.1,1.9-0.2l0.2-0.1h0.2c0.4,0.1,1.2-0.1,1.7-0.1h-0.1c1.4,0,3.1-0.2,4.7-0.4c0.3,0,0.8,0,0.7,0.1
		c-0.1,0.2-0.8,0.2-1.2,0.3l0,0l0,0l0,0c-1.8,0-3.8,0.5-5.7,0.7l0,0c0,0,0,0-0.1,0l0,0c-0.7-0.1-1.7,0.2-2.6,0.2l-0.1,0.1l0,0
		c0,0,0,0,0.1-0.1c-2.4-0.1-4.4,0.5-5.9,1.1c-1.1,0.4-2.3,0.6-3.6,0.9c-0.6,0.1-1.3,0.2-1.9,0.2c-0.2,0-0.4,0-0.6,0
		c-0.5,0.1-1,0.1-1.6,0.2c-0.2,0-0.4,0-0.6,0c-0.5,0.1-1,0.1-1.5,0.2c-0.2-0.1-0.5,0-0.9,0c-0.3,0-0.8,0.1-0.8,0.2
		c0,0.1,0.4,0.1,0.7,0.1c0.2,0,0.3,0,0.5-0.1c0.3,0,0.7-0.1,1-0.1c0.2,0,0.4,0,0.5,0.1c0.2,0,0.4-0.1,0.6-0.1s0.3,0,0.5,0.1
		c0.4-0.1,0.7-0.1,1.1-0.2h-0.1c0.2,0,0.4,0,0.8,0c0.1,0,0.3,0,0.3,0c1.7,0.3,3.9,0.1,6.4-0.2l0,0l0,0h-0.1c0.8,0.1,1.7,0,2.6-0.1
		h0.1l0,0h-0.1c2,0.1,4.2-0.1,6.4-0.3c0.4,0,0.8-0.1,1-0.3c0.2,0,0.3,0,0.5-0.1c0.2,0.1,0.6,0.1,1,0h0.1l0,0h-0.1
		c-0.5,0.4-1.8,0.5-2.8,0.8c-0.8,0.2-1.1,0.5-2.4,0.6c-5.2,0.7-10.4,1.4-15.5,2.2c-0.8,0.1-1.7,0.2-2.4,0.4c0.2,0,0.2,0.1,0.3,0.1
		c0.3,0,0.7-0.1,1-0.1c0.5,0.1,1.3-0.1,1.9-0.1c1.5-0.2,2.9-0.4,4.3-0.6l0,0h0.1h-0.1c2,0,4-0.5,6-0.7h0.2h0.2c0.3,0.1,0.7,0,1.1,0
		c4.3-0.4,8.7-0.9,13-1.1h0.1c0,0,0,0,0.1,0h-0.1c0,0.2-0.5,0.3-1.1,0.4c-1.2,0.1-2.3,0.4-3.5,0.7c1.2,0,2.2-0.3,3.3-0.5
		c-1.1,0.2-2.3,0.3-3.3,0.5l0,0c-0.4-0.1-0.9,0-1.6,0.1c-1.3,0.2-2.6,0.4-3.9,0.6c-0.2,0.1-0.5,0.1-0.8,0.1c-1,0-2.2,0.3-3.2,0.3
		l0,0c-0.4-0.1-1.2,0-1.8,0.1c-2,0.3-4,0.6-6.1,0.9c-0.8,0.1-1.7,0.2-2.5,0.3c-2.9,0.2-5.8,0.7-8.7,1.2c-1,0.1-0.3,0.3-0.2,0.4
		c-0.1,0.1,0.1,0.1,0.1,0.1l0,0c0,0,0-0.1-0.1-0.1c-1.9,0.3-3.8,0.5-5.8,0.8c-0.5,0.1-1,0.1-1.6,0.2c-0.4,0-0.9,0.1-1.2,0.1
		c-0.9,0.1-1.8,0.2-2.9,0.3c0.7,0.2,1.4,0.1,2.1,0.1h0.1c0.4,0.1,1.1-0.1,1.6-0.1c0.5-0.1,1-0.1,1.5-0.2c1.4,0,2.9-0.3,4.3-0.5
		c-0.5,0-1.1,0.1-1.7,0.1l0,0c0.5,0,1.2-0.1,1.7-0.1c0.3,0,0.6-0.1,0.9-0.1c1.7,0,3.5-0.4,5.3-0.6h0.2h0.2c1.2,0.1,2.5-0.3,3.8-0.4
		h0.2h0.2c1.1,0.1,2.4-0.3,3.6-0.4c0.4,0.1,1,0,1.5-0.1c0.8,0.1,1.8-0.2,2.7-0.2l0,0l0,0l0,0c0.8,0.1,1.8-0.2,2.8-0.3l0.2-0.1h0.2
		c0.5,0,1.2-0.1,1.7-0.1h-0.1c1.7-0.1,3.6-0.3,5.3-0.4l0,0c1.7-0.1,3.5-0.3,5.3-0.5l0,0c0.3,0.1,0.9,0,1.5-0.1c0.2,0,0.3,0,0.5,0.1
		l0.2-0.1h0.1c-0.1,0-0.2,0-0.2,0c0.2,0,0.4,0.1,0.5,0.1h0.1l0,0c0,0,0,0-0.1,0c0,0.1,0,0.2-0.4,0.3c-1.6-0.1-1.6-0.1-2.7,0.5
		c-0.9,0.4,0,0.3,0.6,0.3c0.1,0,0.1,0,0.1-0.1l0,0h-0.1c0.2,0,0.3,0.1,0.5,0.1h0.1l0,0c0,0,0,0-0.1,0c0.3,0.2,0.7,0.5,1.7,0.4
		c0.1,0,0.1,0,0.1,0l0,0h-0.1c0.2,0.1,0.7,0,1,0c0,0,0,0,0.1,0l0,0h-0.1c0.2,0,0.3,0,0.6,0l0.1-0.1l0,0c-0.1,0-0.2,0-0.2,0.1
		c0.7,0.2,1.4,0.3,2.7,0.2c0,0,0.1,0,0.1-0.1c0,0,0,0,0.1,0l-0.2,0.1c0.7,0.1,1.4,0.3,2.7,0.2c0,0,0.1,0,0.1-0.1h0.1l-0.1,0.1
		c0.3,0.1,0.9,0.1,1.6,0.1l0,0l0,0l0,0c0.2,0,0.3,0,0.6,0l0,0h0.1h-0.1c0.2,0,0.3,0,0.5,0.1s0.4,0.1,0.8,0c0.3,0,0.9,0,0.3,0.2
		c-0.6,0.1-1.1,0.1-1.6,0.3c-0.2,0.1-0.4,0.2-0.6,0.2c-0.2,0.1-0.3,0.1-0.4,0.2l0,0c-0.3,0.1-0.2,0.2-0.5,0.4l0,0
		c-0.2,0.1-0.4,0.1-0.5,0.2c-0.2,0.1-0.3,0.1-0.5,0.2c0,0.2,0.1,0.4,0.1,0.7c0.2,0,0.3,0,0.5,0.1l0,0c0.2,0,0.4,0,0.6,0h-0.1
		c0.1,0,0.2,0.1,0.4,0.1c0.2,0,0.5,0,0.7,0.1c0.3,0,0.8-0.1,1.1,0c0.1,0,0.3-0.1,0.5-0.1h-0.1c0.2,0,0.3,0,0.5-0.1
		c0.2,0,0.3-0.1,0.5-0.1s0.3,0,0.5-0.1s0.4-0.1,0.5-0.2l0,0c0.9-0.2,1.3-0.4,0.4-0.4c-1,0-1.9,0-2.6-0.1c-0.3,0-0.3-0.1,0-0.3
		c0.2-0.1,0.4-0.1,0.6-0.1s0.3,0,0.6,0.1c0.1-0.1,0.3-0.1,0.5-0.2c0.2-0.1,0.1-0.1,0.1-0.2c0,0,0,0-0.1,0c0.2-0.2,0.3-0.4-0.1-0.5
		c-0.1,0-0.1,0-0.1,0l0,0c0,0,0,0,0.1,0v-0.1l0,0c0.8-0.1,1.4-0.1,1.9,0c1.6,0.1,5.8,0.1,7.9-0.1h0.2h0.2c0.6,0,1.4,0,2.2-0.1l0,0
		c0.3,0.1,0.8,0,1.1,0l0,0c0.3,0.1,0.7,0,1.2,0h-0.1c0.3,0.1,0.8,0,1.1,0h-0.1c0.4,0.1,1,0,1.4-0.1c0.1,0,0.1,0,0.2,0
		c1.5,0,3.1,0,4.8-0.3l0,0c0.8,0.1,1.9,0,3-0.1c1.5-0.2,3.1-0.4,4.6-0.4c3.5-0.2,7-0.6,10.5-1c4.7-0.6,9.5-1.1,14.2-1.8
		c1.3-0.2,2.6-0.3,3.8-0.5c1.6-0.2,3.3-0.4,4.6-0.9c0.2-0.1,0.6-0.1,0.8-0.1c1.1-0.2,2.3-0.3,3.3-0.5c1.4-0.4,2.8-0.8,4.3-0.6
		c0.3,0,1.1-0.2,1.7-0.2c2.3-0.2,4.5-0.8,6.7-1.1c4-0.5,7.4-1.4,10.6-2.3c1-0.2,2-0.2,2.9-0.5c2.3-0.5,4.7-0.7,6.9-1.2
		c0.2,0,0.5-0.1,0.7-0.1s-0.1,0.3,0.5,0.2c0.5-0.1,0.3-0.2,0.6-0.4c0.6-0.3,2.2-0.6,2.4-0.5c0.4,0.3,1.3,0,1.5-0.1
		c0.6-0.4,1.9-0.5,2.7-0.8c0,0-0.1,0-0.2,0c0,0,0,0,0.1,0h0.1c3-0.5,5.8-0.9,8.3-1.7c0,0-0.1,0-0.2,0h0.1h0.2c2-0.3,3.9-0.6,5.1-1.3
		h-0.1l0,0h0.1c1-0.1,2.1-0.3,2.5-0.6h-0.1l0,0v0.1c1-0.1,1.9-0.3,2.6-0.7h-0.1l0,0h0.1c2.1-0.5,4.1-1,5.7-1.6c-0.1,0-0.2,0-0.2,0
		l0,0h0.2c1.2-0.3,2.3-0.6,3-1c-0.1,0-0.1,0-0.2,0l0,0h0.2c0.7-0.1,1.2-0.3,1.5-0.5h-0.1l0,0c0.1,0,0.1,0,0.1,0
		c1.1-0.2,2-0.4,2.5-0.8c0.2-0.1,0.3-0.1,0.5-0.2h-0.1c0,0,0,0,0.1,0l0,0c1-0.2,1.5-0.4,2.1-0.7c0,0-0.1,0-0.2,0l0,0h0.2
		c0.4-0.1,0.8-0.1,1-0.3c0.2-0.1,0.4-0.2,0.6-0.2c0.1-0.1,0.3-0.1,0.4-0.2c0.2-0.1,0.4-0.1,0.5-0.2c0.2-0.1,0.3-0.1,0.5-0.2v-0.1
		c0.5-0.1,0.9-0.3,1-0.4l0,0c0.4-0.2,1.2-0.2,1.6-0.4h-0.1c0.3-0.1,0.8-0.2,1.1-0.3h0.1h0.2c0.5-0.1,1-0.1,1.2-0.3h-0.1l0,0l0,0
		c1.5-0.3,3-0.6,4.2-1h-0.2h0.1c0,0,0,0,0.1,0c1.2-0.2,2.5-0.4,3.8-0.6c0.8-0.1,1.3-0.2,1.4-0.5l0,0l0,0l0,0
		c0.2-0.1,0.3-0.1,0.5-0.2l0,0l0,0l0,0c0.6-0.1,1.2-0.1,1.5-0.3c0.2,0,0.3-0.1,0.5-0.1c0.4-0.2,1.1-0.2,1.5-0.3
		c0.6-0.1,1.1-0.2,0.9-0.4c-0.1-0.1-0.5-0.1-0.9,0c-0.6,0.1-1.2,0.2-1.6,0.3c0.3,0,0.8-0.1,1.2-0.2c-0.4,0.1-0.8,0.1-1.2,0.2h-0.1
		c-0.1,0.1-0.2,0.1-0.4,0.2c-0.2,0-0.3,0.1-0.5,0.1c-1.1,0,0-0.4-0.1-0.5h-0.2l0,0c0,0,0.1,0,0.2,0.1c0.5-0.2,1.6-0.4,1.4-0.6
		c-0.3-0.2,0.2-0.6-0.1-0.8c-0.6-0.4,0.2-0.9,1.5-1.5c1.1-0.5,2.6-0.8,4.1-1l0.2-0.1h0.2c0.3,0,0.4,0,0.5-0.1h-0.1
		c0.3-0.1,0.4-0.1,0.6-0.2c1-0.1,1.5-0.4,1.8-0.6C1417.9,138.4,1418.1,138,1417.2,137.7z M1318.7,137.9
		C1318.7,137.9,1318.7,138,1318.7,137.9C1318.7,138,1318.7,137.9,1318.7,137.9L1318.7,137.9L1318.7,137.9L1318.7,137.9L1318.7,137.9
		z M1204.7,171.7L1204.7,171.7L1204.7,171.7L1204.7,171.7z M1210.1,171.4c-0.2,0-0.3,0.1-0.5,0.1c0.1,0,0.1,0,0.2-0.1
		C1209.9,171.4,1210.1,171.4,1210.1,171.4z M1215.3,170.8c-0.3,0-0.5,0.1-0.8,0.1c0,0,0.1,0,0.2,0
		C1214.9,170.8,1215.2,170.8,1215.3,170.8z M1269.4,145.7v-0.1c0.1,0,0.2,0,0.2,0C1269.5,145.6,1269.4,145.6,1269.4,145.7z
		 M1211.6,160L1211.6,160c0,0,0.1-0.1,0.2-0.1C1211.7,160,1211.6,160,1211.6,160z M1220,159.1L1220,159.1
		C1219.9,159.1,1219.9,159.1,1220,159.1L1220,159.1z M1275.5,145.2L1275.5,145.2L1275.5,145.2L1275.5,145.2z M1389.4,136.6
		c-0.2,0-0.2-0.1-0.2-0.1c0.1,0,0.2,0.1,0.3,0.1C1389.4,136.6,1389.4,136.6,1389.4,136.6z M1403.8,144.9L1403.8,144.9
		C1403.8,144.8,1403.9,144.8,1403.8,144.9C1403.9,144.8,1403.8,144.8,1403.8,144.9z M1250.1,171.8
		C1250.2,171.8,1250.2,171.8,1250.1,171.8C1250.2,171.8,1250.2,171.8,1250.1,171.8L1250.1,171.8z M1249.8,153.9
		c0.1-0.1,0.2-0.1,0.2-0.2l0,0C1249.9,153.9,1249.9,153.9,1249.8,153.9c0,0-0.1-0.1-0.2-0.1l0,0
		C1249.8,153.9,1249.8,153.9,1249.8,153.9z M1260.3,154.4c0.3,0,0.5,0.1,0.8,0.1c-0.2,0-0.5,0.1-0.8,0.2
		C1260.1,154.6,1260,154.5,1260.3,154.4z M1379.8,137.1c-0.3,0-0.4,0.1-0.5,0.2c0,0-0.1-0.1,0-0.1
		C1379.5,137.1,1379.6,137.1,1379.8,137.1z M1382.9,136.5c-0.1,0-0.1,0-0.2,0C1382.8,136.5,1382.9,136.5,1382.9,136.5L1382.9,136.5z
		 M1341.9,160.1L1341.9,160.1C1342,160.1,1342,160.1,1341.9,160.1L1341.9,160.1z M1275.6,169.1L1275.6,169.1L1275.6,169.1
		L1275.6,169.1z M1237.1,168.6L1237.1,168.6L1237.1,168.6L1237.1,168.6z M1229,158.1L1229,158.1L1229,158.1L1229,158.1z
		 M1364.6,153.6L1364.6,153.6L1364.6,153.6L1364.6,153.6z M1332.7,160.4c-0.2,0-0.3,0.1-0.5,0.1c0.3-0.1,0.2-0.1,0.3-0.1
		C1332.5,160.4,1332.6,160.4,1332.7,160.4z M1258.3,165.9l-0.1,0.1C1258.2,166,1258.2,165.9,1258.3,165.9
		C1258.3,165.9,1258.2,165.9,1258.3,165.9c0.9-0.3,1.8-0.6,2.6-1l0,0C1259.8,165.2,1258.7,165.5,1258.3,165.9z M1267.2,151.5
		L1267.2,151.5L1267.2,151.5L1267.2,151.5z M1340.4,137.8C1340.4,137.8,1340.5,137.8,1340.4,137.8L1340.4,137.8
		C1340.5,137.8,1340.4,137.8,1340.4,137.8z M1386.3,147.4L1386.3,147.4L1386.3,147.4L1386.3,147.4z M1357.7,153.3L1357.7,153.3
		C1357.8,153.3,1357.8,153.3,1357.7,153.3C1357.8,153.3,1357.7,153.3,1357.7,153.3z M1273.9,152.7c0.1,0,0.1-0.1,0.3-0.1
		C1274.1,152.6,1274,152.6,1273.9,152.7L1273.9,152.7L1273.9,152.7z M1334.9,138.3C1334.9,138.3,1335,138.4,1334.9,138.3
		C1335,138.4,1334.9,138.4,1334.9,138.3L1334.9,138.3z M1358.5,140.7L1358.5,140.7L1358.5,140.7c0.1,0,0.4,0,0.2,0
		C1358.6,140.7,1358.5,140.7,1358.5,140.7L1358.5,140.7L1358.5,140.7C1358.4,140.7,1358.5,140.7,1358.5,140.7z M1358.8,140.4
		c0.1-0.1,0.3,0,0.5-0.1c-0.2,0-0.3,0.1-0.3,0.1C1359,140.5,1358.7,140.5,1358.8,140.4z M1379.2,140.6c-0.3,0-0.6,0.1-0.9,0.1
		c0.1-0.1,0.3-0.1,0.3-0.2C1378.8,140.5,1379.1,140.5,1379.2,140.6z M1392.1,141.4L1392.1,141.4L1392.1,141.4L1392.1,141.4z
		 M1304.3,163.5C1304.3,163.5,1304.1,163.5,1304.3,163.5C1304.2,163.5,1304.3,163.5,1304.3,163.5L1304.3,163.5z M1268.1,165.2
		c0.1,0,0.2,0,0.3,0C1268.4,165.2,1268.2,165.2,1268.1,165.2C1268.1,165.2,1268,165.2,1268.1,165.2z M1287.2,149
		c-0.1,0-0.2,0.1-0.2,0.1l0,0c0.2-0.1,0.4-0.2,0.7-0.2C1287.7,148.9,1287.3,148.9,1287.2,149C1287.2,149,1287.3,149,1287.2,149z
		 M1362.1,144.8c0.1-0.1,0.1-0.1,0-0.2C1362.5,144.6,1362.4,144.7,1362.1,144.8z M1374.9,144L1374.9,144L1374.9,144L1374.9,144z
		 M1298.1,162.3L1298.1,162.3L1298.1,162.3z M1265.9,164.3c-0.1,0-0.1,0-0.2,0C1265.8,164.2,1265.8,164.2,1265.9,164.3
		C1265.9,164.2,1265.9,164.2,1265.9,164.3z M1334.3,145.3L1334.3,145.3L1334.3,145.3z M1334.4,150.7
		C1334.5,150.7,1334.5,150.7,1334.4,150.7c-0.5,0-0.7,0.1-1,0.3C1333.7,150.9,1334.1,150.8,1334.4,150.7z M1331.9,150.5
		C1331.9,150.5,1332,150.5,1331.9,150.5C1332,150.4,1332,150.5,1331.9,150.5C1332,150.5,1332,150.5,1331.9,150.5z M1332.9,149.8
		c-0.1,0-0.1,0-0.2,0C1332.8,149.8,1332.7,149.8,1332.9,149.8C1332.8,149.8,1332.8,149.8,1332.9,149.8z M1329.3,151.1
		C1329.4,151.1,1329.4,151.1,1329.3,151.1L1329.3,151.1C1329.2,151.1,1329.3,151.1,1329.3,151.1z M1330.3,151.9L1330.3,151.9
		L1330.3,151.9L1330.3,151.9z M1333.8,149.4c0.3-0.1,0.5-0.2,0.8-0.3C1334.4,149.2,1334.1,149.3,1333.8,149.4z M1338.5,149.1
		L1338.5,149.1L1338.5,149.1L1338.5,149.1L1338.5,149.1z M1338.5,149c-0.2,0-0.3,0-0.4-0.1s-0.2-0.1-0.4-0.1l0,0
		c0.2,0,0.3,0,0.4,0.1S1338.3,149,1338.5,149L1338.5,149z M1327.5,147.3C1327.5,147.3,1327.3,147.3,1327.5,147.3
		c0.1,0,0.2-0.1,0.4-0.1C1327.7,147.2,1327.6,147.3,1327.5,147.3z M1273.9,158.4c0.2,0,0.2-0.1,0.4-0.2c-0.1,0-0.1,0.1-0.1,0.1
		C1274.1,158.4,1274.1,158.4,1273.9,158.4z M1278.3,157L1278.3,157L1278.3,157C1278.3,157,1278.4,157,1278.3,157L1278.3,157
		c0,0-0.1,0-0.2,0c0,0,0,0,0-0.1l0,0C1278.2,156.9,1278,157,1278.3,157z M1279.9,156.3c0.1,0,0.2,0,0.3,0c0,0-0.1,0-0.2,0.1
		C1280,156.3,1279.9,156.3,1279.9,156.3z M1277.2,160L1277.2,160c0,0.1-0.1,0.1-0.2,0.1C1277.1,160.1,1277.2,160,1277.2,160z
		 M1283,158.1L1283,158.1L1283,158.1L1283,158.1z M1290.2,155.4c-0.1,0.1-0.4,0.1-0.6,0.1C1289.8,155.5,1290,155.5,1290.2,155.4z
		 M1293.9,156.5L1293.9,156.5L1293.9,156.5L1293.9,156.5z M1292.1,160.6C1292.5,160.5,1292,160.5,1292.1,160.6
		c0.2-0.1,0.4-0.1,0.4-0.1C1292.3,160.5,1292.3,160.6,1292.1,160.6C1292.2,160.6,1292.1,160.6,1292.1,160.6z M1294.1,160.9
		c0,0,0.1,0,0.2,0C1294.1,161,1294.2,160.9,1294.1,160.9L1294.1,160.9z M1299.2,153.5L1299.2,153.5c0.3-0.1,0.1-0.1,0.4-0.2
		C1299.6,153.4,1299.2,153.4,1299.2,153.5C1299.2,153.5,1299.1,153.5,1299.2,153.5C1299.1,153.5,1299.2,153.5,1299.2,153.5z
		 M1297.6,154.3L1297.6,154.3L1297.6,154.3L1297.6,154.3z M1299.7,154L1299.7,154L1299.7,154L1299.7,154z M1313.9,147.8
		L1313.9,147.8C1313.9,147.8,1313.9,147.8,1313.9,147.8S1313.8,147.8,1313.9,147.8z M1311.4,150.1
		C1311.5,150.1,1311.4,150.1,1311.4,150.1L1311.4,150.1C1311.4,150.1,1311.3,150.1,1311.4,150.1z M1312.1,150.2
		C1312.1,150.2,1312.2,150.2,1312.1,150.2c0,0.1-0.1,0.1-0.1,0.1C1312,150.2,1312.1,150.2,1312.1,150.2z M1310.9,152.3
		c0,0,0,0.1-0.1,0.1c-0.2,0-0.2,0-0.3-0.1C1310.7,152.4,1310.8,152.4,1310.9,152.3z M1314.1,149L1314.1,149
		C1314.1,149,1314.2,149,1314.1,149z M1301.3,153.8c-0.1,0-0.1,0-0.2,0C1301.2,153.8,1301.3,153.8,1301.3,153.8L1301.3,153.8z
		 M1289,153.6L1289,153.6L1289,153.6L1289,153.6L1289,153.6L1289,153.6L1289,153.6z M1284.6,157.2L1284.6,157.2
		C1284.7,157.2,1284.7,157.2,1284.6,157.2C1284.7,157.2,1284.7,157.2,1284.6,157.2C1284.7,157.2,1284.7,157.2,1284.6,157.2
		C1284.7,157.2,1284.7,157.2,1284.6,157.2z M1291.1,161.4C1291.2,161.4,1291.1,161.4,1291.1,161.4c-0.1,0-0.1,0-0.1,0.1
		C1291,161.4,1291.1,161.4,1291.1,161.4z M1328,152.4L1328,152.4c0,0-0.2,0-0.3,0C1327.8,152.4,1327.9,152.4,1328,152.4z
		 M1327.5,146L1327.5,146C1327.5,146,1327.5,145.9,1327.5,146C1327.5,145.9,1327.5,145.9,1327.5,146z M1292.6,151.4
		C1292.6,151.4,1292.6,151.4,1292.6,151.4L1292.6,151.4C1292.5,151.5,1292.5,151.5,1292.6,151.4z M1280.8,159.4L1280.8,159.4
		L1280.8,159.4L1280.8,159.4z M1284.8,157.2c0.2,0,0.4-0.1,0.6-0.1s0.4,0,0.5,0C1285.6,157.1,1285.2,157.1,1284.8,157.2z
		 M1297.9,158.9l-0.1-0.1C1297.9,158.8,1298,158.8,1297.9,158.9z M1302.7,159.4C1302.8,159.4,1302.8,159.4,1302.7,159.4
		c0,0-0.1,0-0.2,0C1302.7,159.5,1302.6,159.5,1302.7,159.4z M1343.6,144.2L1343.6,144.2L1343.6,144.2L1343.6,144.2z M1344.1,145
		C1344.1,145.1,1344.1,145.1,1344.1,145C1344.1,145.1,1344.1,145.1,1344.1,145L1344.1,145z M1305.9,149.4L1305.9,149.4L1305.9,149.4
		L1305.9,149.4z M1304.6,149L1304.6,149L1304.6,149C1304.7,149,1304.6,149,1304.6,149z M1297.8,149c-0.6,0-0.1-0.2,0.2-0.4
		c-0.1,0.2,0.2,0.4,0.8,0.4C1298.5,149,1298.2,149,1297.8,149z M1287.9,153.3L1287.9,153.3L1287.9,153.3
		C1288,153.3,1287.9,153.3,1287.9,153.3z M1258.6,163.4c-0.1,0-0.1,0.1-0.2,0.1l0,0c-0.1,0,0,0-0.1,0
		C1258.4,163.4,1258.4,163.4,1258.6,163.4c-0.1,0-0.2,0-0.2,0.1C1258.5,163.4,1258.5,163.4,1258.6,163.4z M1264.7,163
		c0,0-0.1,0-0.2,0C1264.6,163,1264.6,163,1264.7,163C1264.6,163,1264.7,163,1264.7,163z M1300.6,160.4L1300.6,160.4h0.2
		c0,0,0,0-0.1,0.1h-0.1C1300.7,160.5,1300.6,160.4,1300.6,160.4z M1338.2,141.7C1338.2,141.8,1338.3,141.8,1338.2,141.7
		C1338.2,141.8,1338.2,141.8,1338.2,141.7C1338.2,141.8,1338.2,141.8,1338.2,141.7z M1334,144.7c0.2,0,0.4-0.1,0.7-0.1
		C1334.5,144.6,1334.3,144.6,1334,144.7z M1325.8,141.1L1325.8,141.1C1325.8,141.1,1325.8,141.1,1325.8,141.1c-0.2,0-0.2,0-0.2,0
		C1325.6,141,1325.7,141.1,1325.8,141.1z M1315.5,141.8L1315.5,141.8L1315.5,141.8L1315.5,141.8L1315.5,141.8
		C1315.5,141.8,1315.5,141.8,1315.5,141.8z M1304.7,144.6L1304.7,144.6c-0.1,0-0.2,0.1-0.2,0.1
		C1304.5,144.7,1304.6,144.7,1304.7,144.6L1304.7,144.6z M1305.9,147.8L1305.9,147.8C1305.8,147.8,1305.8,147.8,1305.9,147.8
		C1305.8,147.8,1305.8,147.8,1305.9,147.8z M1302.2,147.9c0.4-0.3-0.1-0.4-0.4-0.5c0.2,0.2,0.5,0.4,1,0.5
		C1302.6,148,1302.5,147.9,1302.2,147.9z M1290,148.8c0,0-0.3,0.1-0.2,0.1C1289.8,148.8,1290,148.8,1290,148.8
		C1290,148.7,1289.9,148.8,1290,148.8z M1287.9,149.3L1287.9,149.3L1287.9,149.3L1287.9,149.3z M1257.3,163.6L1257.3,163.6
		L1257.3,163.6L1257.3,163.6z M1294.6,163.4C1294.6,163.5,1294.7,163.4,1294.6,163.4C1294.7,163.4,1294.6,163.4,1294.6,163.4
		L1294.6,163.4z M1372.2,151.9c-0.1,0-0.3,0.1-0.3,0.1h-0.1C1371.8,151.9,1372.1,151.9,1372.2,151.9z M1384.1,147.5
		C1384.1,147.5,1384.2,147.5,1384.1,147.5c-0.1,0.1-0.2,0.1-0.2,0.1C1384.1,147.5,1384,147.5,1384.1,147.5z M1385.2,146
		C1385.3,146,1385.3,146,1385.2,146C1385.3,146,1385.3,146,1385.2,146L1385.2,146z M1388.1,144.5
		C1388.2,144.5,1388.1,144.5,1388.1,144.5c0.1-0.1,0.1-0.1,0.2-0.1C1388.2,144.5,1388.2,144.5,1388.1,144.5z M1386.3,144.1
		C1386.2,144.1,1386.2,144.1,1386.3,144.1C1386.2,144.1,1386.3,144.1,1386.3,144.1C1386.4,144.1,1386.3,144.1,1386.3,144.1z
		 M1369.5,140C1369.5,140,1369.5,140.1,1369.5,140h-0.2C1369.3,140,1369.4,140,1369.5,140z M1362.8,142.4L1362.8,142.4
		c-0.1,0-0.2,0-0.3,0h-0.1c-0.6,0-1.1,0.1-1.5,0.3h-0.1c0,0,0.1,0,0.2,0c0.5-0.1,0.9-0.1,1.4-0.2l0,0l0,0
		C1362.6,142.4,1362.7,142.4,1362.8,142.4z M1359.6,144.2c0.2-0.1,0-0.2-0.1-0.2C1359.5,144,1359.6,144,1359.6,144.2z M1350.3,143.1
		c0.1,0.1,0.2,0.1,0.3,0.2C1350.4,143.3,1350.3,143.2,1350.3,143.1z M1340.1,140.4c0,0,0-0.1-0.2-0.1c0.2,0,0.3-0.1,0.4-0.1
		C1340.6,140.3,1340.2,140.4,1340.1,140.4z M1306.2,144.1c0.2-0.1,0.4-0.2,0.8-0.2C1306.6,144,1306.4,144,1306.2,144.1z
		 M1304.1,144.2c0.2,0,0.5,0,0.5,0.1C1304.6,144.3,1304.4,144.3,1304.1,144.2z M1287.8,149.4L1287.8,149.4L1287.8,149.4
		L1287.8,149.4C1287.8,149.4,1287.7,149.4,1287.8,149.4c-0.8,0.2-1.1,0.6-2.2,0.7C1286.4,149.8,1287.4,149.7,1287.8,149.4z
		 M1282.8,151.8c-0.1,0.1-0.2,0.1-0.3,0.2c0.1,0-0.1-0.1-0.1-0.1C1282.5,151.9,1282.7,151.8,1282.8,151.8z M1277.8,149.8
		C1277.8,149.8,1277.7,149.8,1277.8,149.8L1277.8,149.8L1277.8,149.8z M1253.9,161.6L1253.9,161.6
		C1253.8,161.6,1253.9,161.6,1253.9,161.6L1253.9,161.6z M1263.5,165.7L1263.5,165.7C1263.6,165.7,1263.6,165.7,1263.5,165.7
		L1263.5,165.7z M1271,167.7L1271,167.7C1270.9,167.7,1270.9,167.7,1271,167.7L1271,167.7z M1305,162.9c-0.2,0.1-0.3,0.3-0.3,0.4
		C1304.6,163.2,1304.8,163,1305,162.9z M1350.8,146.7L1350.8,146.7C1350.8,146.8,1350.8,146.7,1350.8,146.7L1350.8,146.7z
		 M1351.6,148.4c0.1,0,0.2,0,0.3,0C1351.8,148.4,1351.7,148.4,1351.6,148.4L1351.6,148.4z M1375.8,149.9
		C1375.8,149.9,1375.6,149.9,1375.8,149.9c0.1-0.1,0.1-0.1,0.1-0.1C1375.8,149.9,1375.8,149.9,1375.8,149.9z M1390.1,143.4
		L1390.1,143.4c-0.1,0-0.2,0.1-0.3,0.1C1389.9,143.4,1390,143.4,1390.1,143.4z M1346.1,141.4c-0.1,0-0.1,0-0.1-0.1
		c0.1,0,0.2,0,0.3,0C1346.2,141.3,1346.2,141.4,1346.1,141.4z M1346,139.9C1346.1,139.9,1346,139.9,1346,139.9L1346,139.9
		L1346,139.9z M1337.9,137.7L1337.9,137.7L1337.9,137.7L1337.9,137.7z M1299.9,144.9c-0.2,0-0.3,0.1-0.6,0.1c0.2,0,0.2-0.1,0.3-0.1
		C1299.7,144.9,1299.8,144.9,1299.9,144.9z M1271.8,152.9L1271.8,152.9c0.6-0.2,0.8-0.5,1.6-0.6c0.1,0,0.2,0,0.3-0.1
		C1272.9,152.4,1272,152.5,1271.8,152.9c-0.2,0.2,0.3,0.2,0.7,0.2l0,0c0.3,0.1,0.8,0.2,1.6,0l0,0c0.5,0,1.1-0.1,1.1-0.1
		s-0.5,0.1-1,0.1l0,0l0,0c-0.1,0-0.1,0-0.1,0c-0.5-0.1-1.1,0-1.7,0c0,0,0,0,0.1,0C1272.2,153,1272,152.9,1271.8,152.9L1271.8,152.9
		L1271.8,152.9z M1271.3,153.2c-0.2,0-0.4,0.1-0.6,0.1c0,0,0,0,0.1,0C1271,153.3,1271.1,153.2,1271.3,153.2z M1257.6,157.9
		L1257.6,157.9c-0.1,0-0.2,0-0.3,0c-0.1,0-0.1,0-0.2,0l0,0c0.1,0,0.2,0,0.2,0C1257.4,157.9,1257.5,157.9,1257.6,157.9L1257.6,157.9z
		 M1257.3,157.2L1257.3,157.2c-0.1,0-0.2,0.1-0.2,0.1l0,0C1257.1,157.3,1257.2,157.2,1257.3,157.2z M1252.3,157.7L1252.3,157.7
		C1252.2,157.7,1252.3,157.7,1252.3,157.7L1252.3,157.7L1252.3,157.7z M1236.5,162.7L1236.5,162.7L1236.5,162.7L1236.5,162.7
		C1236.4,162.7,1236.5,162.7,1236.5,162.7z M1252.9,162.5c-0.4,0-1,0-1.5,0.1C1251.9,162.5,1252.3,162.5,1252.9,162.5z
		 M1287.1,168.2C1287.1,168.2,1287.2,168.2,1287.1,168.2L1287.1,168.2L1287.1,168.2z M1296.4,164.4c0.2,0,0.2-0.1,0.3-0.1
		c0,0,0,0,0.1,0l0,0c0,0,0,0,0.1,0c0,0,0,0-0.1,0C1296.7,164.3,1296.6,164.4,1296.4,164.4L1296.4,164.4z M1304.7,163.9L1304.7,163.9
		C1304.8,163.8,1304.8,163.8,1304.7,163.9L1304.7,163.9z M1308.2,162c0.2,0-0.1,0.1,0,0.1c-0.1,0-0.1,0-0.2-0.1
		C1308.1,162.1,1308.1,162,1308.2,162z M1309.5,160c0,0,0-0.1,0.1-0.1C1309.5,160,1309.5,160,1309.5,160z M1312.5,159.4
		C1312.5,159.4,1312.6,159.5,1312.5,159.4C1312.5,159.4,1312.4,159.5,1312.5,159.4C1312.4,159.5,1312.5,159.5,1312.5,159.4z
		 M1336.7,157c0.1,0,0.3,0,0.3,0C1336.9,157,1336.8,157,1336.7,157z M1342.9,156.3c0.1,0,0.3,0,0.3,0
		C1343.1,156.3,1343.1,156.3,1342.9,156.3L1342.9,156.3z M1348.6,152c0.1-0.1,0-0.2-0.2-0.2c0.3,0,0.5,0,0.7,0
		C1349,151.8,1348.7,151.9,1348.6,152z M1399.1,143.7c0.2,0.1,0.5,0.2,0.6,0.2c-0.2-0.1-0.5-0.2-0.9-0.2
		C1398.9,143.7,1399,143.7,1399.1,143.7z M1401.2,143.2c0.1,0,0.1,0,0.2,0C1401.2,143.2,1401.2,143.2,1401.2,143.2z M1376.7,138.8
		c0.1-0.1,0.2-0.1,0.2-0.2C1376.9,138.7,1376.9,138.7,1376.7,138.8z M1368.9,138.6C1368.9,138.6,1369,138.6,1368.9,138.6
		C1369,138.6,1369,138.6,1368.9,138.6L1368.9,138.6z M1362.7,139.6C1362.6,139.6,1362.6,139.6,1362.7,139.6
		C1362.6,139.6,1362.6,139.6,1362.7,139.6C1362.6,139.6,1362.7,139.6,1362.7,139.6z M1359.2,138.3L1359.2,138.3
		C1359.3,138.3,1359.3,138.3,1359.2,138.3C1359.3,138.3,1359.3,138.3,1359.2,138.3z M1342.8,138.9L1342.8,138.9L1342.8,138.9
		L1342.8,138.9z M1335.2,137.4L1335.2,137.4L1335.2,137.4L1335.2,137.4z M1322.2,139.7L1322.2,139.7L1322.2,139.7
		C1322.3,139.6,1322.3,139.6,1322.2,139.7z M1321.6,140L1321.6,140L1321.6,140L1321.6,140z M1291.1,146
		C1291.1,146.1,1291.3,146.1,1291.1,146c-0.1,0.2-0.1,0.1-0.2,0.1C1291,146.1,1291.1,146.1,1291.1,146z M1265.7,154.8L1265.7,154.8
		L1265.7,154.8L1265.7,154.8z M1246,158.7L1246,158.7c0,0,0,0-0.1,0.1C1246,158.7,1246,158.7,1246,158.7z M1246.5,158.2v-0.1
		c0-0.1-0.4,0-0.5,0l0,0c0.1,0,0.2,0,0.3,0c0.1,0,0.2,0,0.3,0C1246.6,158.1,1246.5,158.1,1246.5,158.2
		C1246.6,158.2,1246.6,158.2,1246.5,158.2z M1236.7,166.5c-0.1,0-0.2,0-0.3,0C1236.5,166.5,1236.6,166.5,1236.7,166.5z
		 M1244.9,168.5c-0.1,0-0.1-0.1-0.3-0.1h0.1C1244.7,168.4,1244.9,168.4,1244.9,168.5z M1250.1,168L1250.1,168
		C1250.1,168,1250.2,168,1250.1,168C1250.2,168,1250.1,168,1250.1,168z M1259.2,166.5L1259.2,166.5L1259.2,166.5L1259.2,166.5z
		 M1280.6,167.3L1280.6,167.3L1280.6,167.3L1280.6,167.3z M1279.7,169.2c-0.1,0.1-0.3,0.1-0.5,0.2c0.1-0.1-0.1,0-0.1-0.1
		C1279.2,169.3,1279.5,169.2,1279.7,169.2z M1294.9,166.8C1295,166.7,1295,166.7,1294.9,166.8C1295,166.8,1294.9,166.8,1294.9,166.8
		L1294.9,166.8z M1313.5,159.9c0.1,0.1,0.2,0.1,0.3,0.2c-0.2,0-0.4,0-0.5,0.1C1313.3,160,1313.4,159.9,1313.5,159.9z M1402.8,138.5
		L1402.8,138.5L1402.8,138.5C1402.9,138.5,1402.9,138.5,1402.8,138.5C1402.9,138.5,1402.8,138.5,1402.8,138.5L1402.8,138.5z
		 M1393.8,140.6C1393.8,140.6,1393.9,140.6,1393.8,140.6c0,0.1-0.1,0-0.2,0.1C1393.8,140.6,1393.8,140.6,1393.8,140.6z
		 M1373.6,138.5C1373.6,138.5,1373.6,138.4,1373.6,138.5c0.1-0.1,0.1-0.1,0.2-0.1C1373.6,138.5,1373.7,138.5,1373.6,138.5z
		 M1358.7,133.7c0.1,0,0.2-0.1,0.4-0.1c0,0,0.1,0,0.1,0.1C1359.1,133.7,1358.8,133.7,1358.7,133.7z M1343.2,137.7
		c0.7-0.2,1.5-0.4,2.3-0.6C1344.7,137.2,1343.8,137.4,1343.2,137.7z M1265.6,153.6L1265.6,153.6c0,0,0,0-0.2,0
		C1265.6,153.6,1265.6,153.6,1265.6,153.6z M1262.4,154.1L1262.4,154.1L1262.4,154.1L1262.4,154.1z M1248.6,154.2L1248.6,154.2
		L1248.6,154.2L1248.6,154.2z M1228.8,158C1228.9,158,1228.9,158,1228.8,158C1228.9,158,1228.9,158,1228.8,158L1228.8,158
		L1228.8,158L1228.8,158z M1230.1,167c0.3-0.1,0.6-0.2,0.9-0.2c0.2,0,0.3,0,0.4,0C1231,166.8,1230.5,166.9,1230.1,167L1230.1,167z
		 M1271.4,170.7L1271.4,170.7c-0.2,0-0.3-0.1-0.4-0.1C1271.1,170.6,1271.3,170.7,1271.4,170.7z M1274.7,169
		C1274.8,169,1274.8,169,1274.7,169C1274.8,169,1274.7,169,1274.7,169L1274.7,169z M1279.1,166.5c0,0,0.1,0,0.2-0.1l0,0
		C1279.2,166.5,1279.1,166.5,1279.1,166.5L1279.1,166.5c-0.1,0-0.2,0-0.3,0C1279,166.5,1278.9,166.6,1279.1,166.5z M1279.2,169.5
		c0.4-0.1,1-0.1,0.8,0.2C1279.7,169.6,1279.5,169.6,1279.2,169.5C1279.1,169.5,1279.1,169.5,1279.2,169.5z M1315.7,164.6
		C1315.6,164.6,1315.6,164.6,1315.7,164.6C1315.5,164.6,1315.6,164.6,1315.7,164.6C1315.6,164.6,1315.6,164.6,1315.7,164.6z
		 M1324,163.1c-0.1,0.1,0.2,0.1,0.2,0.2c-0.3,0-0.6,0-0.9,0C1323.5,163.3,1323.8,163.2,1324,163.1z M1343.1,159.5c0.1,0,0.1,0,0.2,0
		l0,0C1343.2,159.5,1343.1,159.5,1343.1,159.5z M1368.2,154.5l-0.2,0.1h-0.1C1368,154.6,1368.1,154.6,1368.2,154.5z M1371.5,154.3
		C1371.5,154.2,1371.5,154.2,1371.5,154.3L1371.5,154.3C1371.6,154.2,1371.6,154.2,1371.5,154.3z M1384.2,149L1384.2,149L1384.2,149
		L1384.2,149L1384.2,149c-0.2,0.3,0,0.4,0.8,0.4c0,0-0.1,0-0.2,0C1384.6,149.3,1384.4,149.2,1384.2,149z M1402.6,144.6
		C1402.6,144.6,1402.5,144.7,1402.6,144.6C1402.5,144.7,1402.5,144.6,1402.6,144.6L1402.6,144.6z M1386.2,137.5c0.4,0,0.7,0,1,0
		C1387,137.5,1386.6,137.5,1386.2,137.5z M1330,137.4c-0.1,0-0.2,0-0.3,0c0.2,0,0.4-0.1,0.6-0.2
		C1330.2,137.3,1330.1,137.3,1330,137.4z M1295.8,144.4L1295.8,144.4c-0.2,0.1-0.5,0.1-0.7,0.2l0,0
		C1295.3,144.5,1295.5,144.5,1295.8,144.4L1295.8,144.4z M1227.2,158L1227.2,158c-0.2,0-0.6,0-0.9,0c0.1,0,0.1,0,0.1,0
		C1226.6,158,1226.9,158,1227.2,158z M1234.8,159.3h-0.2c-0.2,0-0.3,0-0.5,0C1234.3,159.3,1234.6,159.2,1234.8,159.3z M1248.8,158.8
		L1248.8,158.8C1248.8,158.8,1248.8,158.9,1248.8,158.8L1248.8,158.8C1248.8,158.9,1248.8,158.8,1248.8,158.8z M1231,165.3
		c-0.3,0.1-0.4,0.2-0.7,0.3l0,0C1230.6,165.5,1230.8,165.4,1231,165.3C1230.9,165.2,1230.9,165.3,1231,165.3z M1231.5,166.9
		c0.2,0,0.4-0.1,0.7-0.1c-0.3,0.1-0.7,0.1-0.9,0.2C1231.4,167,1231.4,167,1231.5,166.9z M1229.5,169.6
		C1229.4,169.6,1229.4,169.6,1229.5,169.6L1229.5,169.6C1229.4,169.6,1229.5,169.6,1229.5,169.6L1229.5,169.6z M1253.8,171.7
		c-0.1,0.1-0.1,0.2-0.4,0.2c-0.1,0-0.1,0-0.2,0C1253.6,171.9,1253.8,171.8,1253.8,171.7z M1265.8,170.7c0,0,0.2,0,0.1,0.1
		c-0.1-0.1-0.2-0.1-0.4-0.1C1265.6,170.6,1265.7,170.6,1265.8,170.7z M1267.6,170.9c-0.2,0.1-0.3,0.2-0.6,0.3
		C1267.3,171.1,1267.5,171,1267.6,170.9z M1309.2,165.5L1309.2,165.5L1309.2,165.5L1309.2,165.5z M1404.2,144.8L1404.2,144.8
		L1404.2,144.8L1404.2,144.8L1404.2,144.8z M1405.9,142.5C1405.9,142.6,1406,142.6,1405.9,142.5c0.1,0.1,0.1,0.1,0.1,0.1
		S1405.9,142.6,1405.9,142.5z M1406.6,137.6C1406.7,137.6,1406.7,137.6,1406.6,137.6c0.2-0.2,0.6-0.1,0.8-0.2
		C1407.2,137.5,1406.9,137.5,1406.6,137.6z M1411.9,138c-0.1,0-0.1,0-0.2,0l0,0C1411.8,138,1411.8,138,1411.9,138z M1409,137.1
		C1409,137.1,1409.1,137.1,1409,137.1L1409,137.1L1409,137.1z M1410.9,139.1c0.3-0.1,0.4,0,0.6,0c-0.3,0-0.6,0.1-0.8,0.1
		C1410.8,139.2,1410.7,139.1,1410.9,139.1z M1407.4,136.7L1407.4,136.7c-0.2,0-0.3,0.1-0.4,0.1
		C1407.2,136.8,1407.3,136.8,1407.4,136.7L1407.4,136.7z M1393.8,139.1c0,0,0.1,0,0.2,0C1393.9,139.1,1393.9,139.1,1393.8,139.1z
		 M1357.9,132c-0.1-0.1-0.2-0.3-0.5-0.3c0.2,0,0.3,0,0.5-0.1C1357.5,131.7,1357.8,131.8,1357.9,132z M1282,145.9
		c-0.4,0-0.7-0.1-1.2-0.1c0.1,0,0.1,0,0.2,0l0,0l0,0C1281,145.9,1281.2,146,1282,145.9C1282,145.9,1282.1,145.9,1282,145.9
		C1282.1,145.9,1282.1,145.9,1282,145.9C1282.1,145.9,1282.1,145.9,1282,145.9z M1229.8,156.5L1229.8,156.5L1229.8,156.5
		L1229.8,156.5L1229.8,156.5z M1224,157.1c0-0.1-0.2-0.1-0.1-0.1l0,0C1223.8,157,1224,157,1224,157.1z M1216.3,159.1L1216.3,159.1
		L1216.3,159.1L1216.3,159.1z M1211.6,160.4L1211.6,160.4C1211.6,160.5,1211.6,160.5,1211.6,160.4L1211.6,160.4
		C1211.6,160.5,1211.7,160.4,1211.6,160.4z M1215.9,159.7c0.2,0,0,0.1,0,0.2c-0.1-0.1-0.3-0.1-0.6,0
		C1215.5,159.7,1215.6,159.6,1215.9,159.7z M1233.8,162.7L1233.8,162.7C1233.8,162.7,1233.8,162.6,1233.8,162.7L1233.8,162.7z
		 M1221,166.3c0.1,0,0.1,0,0.2,0C1221.1,166.3,1221.1,166.3,1221,166.3L1221,166.3z M1229.4,165.8L1229.4,165.8L1229.4,165.8
		L1229.4,165.8z M1261.8,169.8c0.3-0.1,0.4,0,0.6,0c-0.3,0-0.5,0.1-0.7,0.2C1261.8,169.8,1261.7,169.8,1261.8,169.8z M1394.5,147.3
		L1394.5,147.3L1394.5,147.3L1394.5,147.3L1394.5,147.3z M1400.7,145.8C1400.7,145.9,1400.7,145.9,1400.7,145.8
		C1400.7,145.9,1400.7,145.9,1400.7,145.8L1400.7,145.8z M1407.6,141.6L1407.6,141.6L1407.6,141.6L1407.6,141.6L1407.6,141.6
		c0,0,0.1,0,0.2,0l0,0C1407.7,141.6,1407.7,141.6,1407.6,141.6z M1416.1,138C1416.2,138,1416.1,138,1416.1,138
		c-0.2,0.1-0.4,0.1-0.7,0.2C1415.7,138.1,1416,138.1,1416.1,138z M1407.4,136.5L1407.4,136.5c-0.1,0.1-0.1,0-0.2,0
		C1407.3,136.5,1407.3,136.5,1407.4,136.5z M1373.8,137.3C1373.8,137.3,1373.9,137.3,1373.8,137.3c0.1-0.1,0.1-0.1,0.2-0.1
		C1373.9,137.3,1373.8,137.3,1373.8,137.3z M1371.7,137.5c-0.1,0-0.2,0-0.3,0C1371.5,137.5,1371.6,137.5,1371.7,137.5z
		 M1365.2,136.9c1.4-0.4,2.7-0.8,3-1.3c0,0,0.1,0,0.2,0l0,0l0,0C1367.4,136,1366.1,136.5,1365.2,136.9z M1373.7,133.7
		c-0.1,0-0.1,0-0.3,0.1c0.3,0.1,0.1,0.2,0,0.3l0,0c0.2-0.1,0.4-0.3-0.1-0.3c0.1,0,0.1,0,0.1,0c-0.1,0-0.1-0.1-0.1-0.1
		C1373.5,133.6,1373.6,133.7,1373.7,133.7z M1281.5,143.9c-0.1,0-0.3,0-0.4,0C1281.2,144,1281.3,143.9,1281.5,143.9
		C1281.4,143.9,1281.4,143.9,1281.5,143.9z M1220.4,157.7c0.3-0.1,0.6-0.3,0.7-0.5c-0.2,0.2-0.5,0.3-0.4,0.5
		C1220.7,157.7,1220.6,157.7,1220.4,157.7z M1223.6,158.2L1223.6,158.2c-0.5-0.1-1.3,0-2,0C1222.3,158.2,1223,158.1,1223.6,158.2z
		 M1234.7,161.4C1234.6,161.4,1234.6,161.4,1234.7,161.4L1234.7,161.4C1234.6,161.4,1234.6,161.4,1234.7,161.4z M1226.2,162.8
		c0,0-0.1,0-0.2,0c0,0-0.1,0-0.2,0C1226,162.8,1226.1,162.8,1226.2,162.8z M1232.2,163.4c-0.1,0-0.2,0.1-0.3,0.1c-0.2,0-0.4,0-0.5,0
		C1231.6,163.5,1231.9,163.4,1232.2,163.4z M1196.4,173.1L1196.4,173.1C1196.5,173.1,1196.4,173.1,1196.4,173.1L1196.4,173.1z
		 M1233.6,169.6c0.1-0.1-0.2,0-0.2-0.1C1233.5,169.5,1233.6,169.6,1233.6,169.6L1233.6,169.6
		C1233.7,169.6,1233.6,169.6,1233.6,169.6z M1240.5,171.4c0,0.1-0.1,0.1-0.1,0.2l0,0C1240.4,171.5,1240.4,171.4,1240.5,171.4z
		 M1330.3,163.5c0.7-0.1,1.2-0.3,1.8-0.5c-0.4,0.1-0.8,0.3-1.4,0.4C1330.6,163.5,1330.5,163.5,1330.3,163.5z M1334.3,162.5
		c-0.1,0-0.1,0-0.2,0c0.1,0,0.2,0,0.3,0C1334.4,162.4,1334.3,162.5,1334.3,162.5z"/>
	<path class="st3" d="M1254.7,151.6c-0.3,0.3-1.8,0.4-2.2,0.8C1254.9,152.1,1254.9,152.1,1254.7,151.6z"/>
	<path class="st3" d="M1226.4,155.4c0.2,0,0.3,0.1,0.6,0.1l0,0c0.2,0.1,0.8,0,1.1,0c0.2,0,0.3,0,0.4,0c0.3,0.1,0.7,0,1.1,0
		c-0.2,0-0.4,0-0.6-0.1l0,0c0.1,0,0.3,0.1,0.5,0.1l0,0c0.5,0.1,1.5-0.2,2.1-0.2h-0.1c0.5,0.1,1.2-0.1,1.6-0.1l0,0
		c1,0.1,2.2-0.2,3.3-0.3c0.3,0,0.6-0.1,0.9-0.1c0.6,0,1.5-0.2,2.1-0.2c0.3,0,0.6-0.1,0.8-0.1c1.1-0.3,2.3-0.4,3.4-0.5h0.2h0.1
		c3.4-0.2,5.7-1.1,8.1-1.9c-4.6,0.8-9.2,1.5-13.9,2.2c-0.4,0-0.7,0.1-1,0.1c-0.8-0.1-1.8,0.1-2.7,0.3c-0.5,0.1-1,0.1-1.5,0.2
		c-0.5,0-1.1,0.2-1.6,0.1c-0.2,0-0.3,0-0.5,0c-0.4-0.1-1,0-1.6,0.1c-0.2,0-0.4,0-0.5,0c-0.2,0-0.4,0-0.6,0c-0.6,0.1-1.2,0.2-1.9,0.3
		C1226.4,155.3,1226.3,155.3,1226.4,155.4C1226.3,155.4,1226.3,155.4,1226.4,155.4L1226.4,155.4z"/>
	<path class="st3" d="M1313.2,137.9c0.9-0.3,2.3-0.2,3-0.7C1314.8,137.3,1314,137.6,1313.2,137.9z"/>
	<path class="st3" d="M1390.9,134.8c0.2-0.1-0.1-0.1-0.3-0.1c-0.5,0-0.8,0.1-1,0.3c-0.2,0.1,0.2,0.1,0.4,0.1
		C1390.3,134.9,1390.7,134.9,1390.9,134.8z"/>
	<path class="st3" d="M1322.7,136.1c0.5-0.1,1-0.2,1.5-0.2c0.3-0.1,0.5-0.1,0.7-0.2c0.3-0.2,0-0.2-0.4-0.1c-1,0.1-2.1,0.2-2.9,0.5
		c-0.1,0-0.2,0.1-0.4,0.1c-0.3,0.1-0.7,0.2-0.7,0.3s0.3,0,0.6,0C1321.6,136.4,1322.3,136.3,1322.7,136.1z"/>
	<path class="st3" d="M1259.1,150.8c-0.1-0.1-0.3,0-0.4,0c-0.2,0.1-0.4,0.1-0.6,0.2c0.2,0,0.4,0,0.5,0
		C1258.9,151,1259.1,150.9,1259.1,150.8z"/>
	<path class="st3" d="M1257,151.2c-0.1,0-0.3,0-0.5,0l-0.1,0.1c0,0,0.3,0,0.4,0C1256.8,151.3,1256.9,151.2,1257,151.2z"/>
	<path class="st3" d="M1187.2,174c0,0,0.3,0,0.4,0l0.2-0.1c-0.1,0-0.3,0-0.4,0C1187.2,173.9,1187.1,174,1187.2,174z"/>
	<path class="st3" d="M1358.5,130.8c-0.1,0-0.3,0-0.4,0c-0.2,0-0.3,0.1-0.1,0.1c0.1,0-0.1,0.2,0.4,0
		C1358.4,130.8,1358.5,130.8,1358.5,130.8z"/>
	<path class="st3" d="M1334.9,134.8c0-0.1-0.4,0-0.7,0c-0.5,0.1-1,0.1-1.5,0.2c-0.3,0.1-0.3,0.2,0,0.3c0.5-0.1,1-0.1,1.5-0.2
		C1334.6,135,1334.9,134.9,1334.9,134.8z"/>
	<path class="st3" d="M1367.3,137c0,0,0,0.1,0.1,0.1s0.3-0.1,0.4-0.1c0.1-0.1,0-0.1-0.2,0C1367.4,137,1367.3,137,1367.3,137z"/>
	<path class="st3" d="M1371.5,136.4C1371.5,136.4,1371.6,136.3,1371.5,136.4c0.1-0.1-0.1-0.1-0.1-0.1S1371.4,136.3,1371.5,136.4
		C1371.4,136.4,1371.4,136.4,1371.5,136.4z"/>
	<path class="st3" d="M1342.7,161.3c0.1,0,0.2,0,0.2,0C1342.9,161.2,1342.8,161.2,1342.7,161.3
		C1342.6,161.3,1342.7,161.3,1342.7,161.3z"/>
	<polygon class="st3" points="1306.7,141.5 1306.9,141.5 1306.8,141.5 	"/>
</g>
<g class="st4">
	<circle class="st5" cx="1469.7" cy="241" r="3"/>
	<path class="st5" d="M1453.9,259.7c1.6,0,3-1.3,3-3c0-1.6-1.3-3-3-3c-1.6,0-3,1.3-3,3C1450.9,258.4,1452.2,259.7,1453.9,259.7z"/>
	<path class="st5" d="M1469.7,259.7c1.6,0,3-1.3,3-3c0-1.6-1.3-3-3-3c-1.6,0-3,1.3-3,3C1466.7,258.4,1468,259.7,1469.7,259.7z"/>
	<path class="st5" d="M1438.1,275.5c1.6,0,3-1.3,3-3c0-1.6-1.3-3-3-3c-1.6,0-3,1.3-3,3S1436.5,275.5,1438.1,275.5z"/>
	<path class="st5" d="M1453.9,275.5c1.6,0,3-1.3,3-3c0-1.6-1.3-3-3-3c-1.6,0-3,1.3-3,3S1452.2,275.5,1453.9,275.5z"/>
	<path class="st5" d="M1469.7,275.5c1.6,0,3-1.3,3-3c0-1.6-1.3-3-3-3c-1.6,0-3,1.3-3,3S1468,275.5,1469.7,275.5z"/>
	<path class="st5" d="M1422.4,291.2c1.6,0,3-1.3,3-3c0-1.6-1.3-3-3-3c-1.6,0-3,1.3-3,3C1419.4,289.9,1420.7,291.2,1422.4,291.2z"/>
	<circle class="st5" cx="1438.1" cy="288.3" r="3"/>
	<path class="st5" d="M1453.9,291.2c1.6,0,3-1.3,3-3c0-1.6-1.3-3-3-3c-1.6,0-3,1.3-3,3C1450.9,289.9,1452.2,291.2,1453.9,291.2z"/>
	<circle class="st5" cx="1469.7" cy="288.3" r="3"/>
	<path class="st5" d="M1406.6,307c1.6,0,3-1.3,3-3c0-1.6-1.3-3-3-3c-1.6,0-3,1.3-3,3S1404.9,307,1406.6,307z"/>
	<path class="st5" d="M1422.4,307c1.6,0,3-1.3,3-3c0-1.6-1.3-3-3-3c-1.6,0-3,1.3-3,3S1420.7,307,1422.4,307z"/>
	<path class="st5" d="M1438.1,307c1.6,0,3-1.3,3-3c0-1.6-1.3-3-3-3c-1.6,0-3,1.3-3,3S1436.5,307,1438.1,307z"/>
	<path class="st5" d="M1453.9,307c1.6,0,3-1.3,3-3c0-1.6-1.3-3-3-3c-1.6,0-3,1.3-3,3S1452.2,307,1453.9,307z"/>
	<path class="st5" d="M1469.7,307c1.6,0,3-1.3,3-3c0-1.6-1.3-3-3-3c-1.6,0-3,1.3-3,3S1468,307,1469.7,307z"/>
	<circle class="st5" cx="1390.8" cy="319.8" r="3"/>
	<path class="st5" d="M1406.6,322.8c1.6,0,3-1.3,3-3c0-1.6-1.3-3-3-3c-1.6,0-3,1.3-3,3S1404.9,322.8,1406.6,322.8z"/>
	<path class="st5" d="M1422.4,322.8c1.6,0,3-1.3,3-3c0-1.6-1.3-3-3-3c-1.6,0-3,1.3-3,3S1420.7,322.8,1422.4,322.8z"/>
	<circle class="st5" cx="1438.1" cy="319.8" r="3"/>
	<path class="st5" d="M1453.9,322.8c1.6,0,3-1.3,3-3c0-1.6-1.3-3-3-3c-1.6,0-3,1.3-3,3S1452.2,322.8,1453.9,322.8z"/>
	<circle class="st5" cx="1469.7" cy="319.8" r="3"/>
	<path class="st5" d="M1375,338.6c1.6,0,3-1.3,3-3c0-1.6-1.3-3-3-3c-1.6,0-3,1.3-3,3C1372.1,337.2,1373.4,338.6,1375,338.6z"/>
	<path class="st5" d="M1390.8,338.6c1.6,0,3-1.3,3-3c0-1.6-1.3-3-3-3c-1.6,0-3,1.3-3,3C1387.8,337.2,1389.2,338.6,1390.8,338.6z"/>
	<path class="st5" d="M1406.6,338.6c1.6,0,3-1.3,3-3c0-1.6-1.3-3-3-3c-1.6,0-3,1.3-3,3C1403.6,337.2,1404.9,338.6,1406.6,338.6z"/>
	<path class="st5" d="M1422.4,338.6c1.6,0,3-1.3,3-3c0-1.6-1.3-3-3-3c-1.6,0-3,1.3-3,3C1419.4,337.2,1420.7,338.6,1422.4,338.6z"/>
	<path class="st5" d="M1438.1,338.6c1.6,0,3-1.3,3-3c0-1.6-1.3-3-3-3c-1.6,0-3,1.3-3,3C1435.1,337.2,1436.5,338.6,1438.1,338.6z"/>
	<path class="st5" d="M1453.9,338.6c1.6,0,3-1.3,3-3c0-1.6-1.3-3-3-3c-1.6,0-3,1.3-3,3C1450.9,337.2,1452.2,338.6,1453.9,338.6z"/>
	<path class="st5" d="M1469.7,338.6c1.6,0,3-1.3,3-3c0-1.6-1.3-3-3-3c-1.6,0-3,1.3-3,3C1466.7,337.2,1468,338.6,1469.7,338.6z"/>
	<path class="st5" d="M1359.3,354.3c1.6,0,3-1.3,3-3c0-1.6-1.3-3-3-3c-1.6,0-3,1.3-3,3S1357.6,354.3,1359.3,354.3z"/>
	<path class="st5" d="M1375,354.3c1.6,0,3-1.3,3-3c0-1.6-1.3-3-3-3c-1.6,0-3,1.3-3,3C1372.1,353,1373.4,354.3,1375,354.3z"/>
	<path class="st5" d="M1390.8,354.3c1.6,0,3-1.3,3-3c0-1.6-1.3-3-3-3c-1.6,0-3,1.3-3,3S1389.2,354.3,1390.8,354.3z"/>
	<path class="st5" d="M1406.6,354.3c1.6,0,3-1.3,3-3c0-1.6-1.3-3-3-3c-1.6,0-3,1.3-3,3S1404.9,354.3,1406.6,354.3z"/>
	<path class="st5" d="M1422.4,354.3c1.6,0,3-1.3,3-3c0-1.6-1.3-3-3-3c-1.6,0-3,1.3-3,3S1420.7,354.3,1422.4,354.3z"/>
	<path class="st5" d="M1438.1,354.3c1.6,0,3-1.3,3-3c0-1.6-1.3-3-3-3c-1.6,0-3,1.3-3,3S1436.5,354.3,1438.1,354.3z"/>
	<path class="st5" d="M1453.9,354.3c1.6,0,3-1.3,3-3c0-1.6-1.3-3-3-3c-1.6,0-3,1.3-3,3S1452.2,354.3,1453.9,354.3z"/>
	<path class="st5" d="M1469.7,354.3c1.6,0,3-1.3,3-3c0-1.6-1.3-3-3-3c-1.6,0-3,1.3-3,3S1468,354.3,1469.7,354.3z"/>
	<path class="st5" d="M1343.5,370.1c1.6,0,3-1.3,3-3c0-1.6-1.3-3-3-3c-1.6,0-3,1.3-3,3C1340.5,368.8,1341.9,370.1,1343.5,370.1z"/>
	<circle class="st5" cx="1359.3" cy="367.1" r="3"/>
	<path class="st5" d="M1375,370.1c1.6,0,3-1.3,3-3c0-1.6-1.3-3-3-3c-1.6,0-3,1.3-3,3C1372.1,368.8,1373.4,370.1,1375,370.1z"/>
	<circle class="st5" cx="1390.8" cy="367.1" r="3"/>
	<path class="st5" d="M1406.6,370.1c1.6,0,3-1.3,3-3c0-1.6-1.3-3-3-3c-1.6,0-3,1.3-3,3C1403.6,368.8,1404.9,370.1,1406.6,370.1z"/>
	<path class="st5" d="M1422.4,370.1c1.6,0,3-1.3,3-3c0-1.6-1.3-3-3-3c-1.6,0-3,1.3-3,3C1419.4,368.8,1420.7,370.1,1422.4,370.1z"/>
	<circle class="st5" cx="1438.1" cy="367.1" r="3"/>
	<path class="st5" d="M1453.9,370.1c1.6,0,3-1.3,3-3c0-1.6-1.3-3-3-3c-1.6,0-3,1.3-3,3C1450.9,368.8,1452.2,370.1,1453.9,370.1z"/>
	<circle class="st5" cx="1469.7" cy="367.1" r="3"/>
	<path class="st5" d="M1327.7,385.9c1.6,0,3-1.3,3-3c0-1.6-1.3-3-3-3c-1.6,0-3,1.3-3,3C1324.8,384.5,1326.1,385.9,1327.7,385.9z"/>
	<path class="st5" d="M1343.5,385.9c1.6,0,3-1.3,3-3c0-1.6-1.3-3-3-3c-1.6,0-3,1.3-3,3C1340.5,384.5,1341.9,385.9,1343.5,385.9z"/>
	<path class="st5" d="M1359.3,385.9c1.6,0,3-1.3,3-3c0-1.6-1.3-3-3-3c-1.6,0-3,1.3-3,3C1356.3,384.5,1357.6,385.9,1359.3,385.9z"/>
	<path class="st5" d="M1375,385.9c1.6,0,3-1.3,3-3c0-1.6-1.3-3-3-3c-1.6,0-3,1.3-3,3C1372.1,384.5,1373.4,385.9,1375,385.9z"/>
	<path class="st5" d="M1390.8,385.9c1.6,0,3-1.3,3-3c0-1.6-1.3-3-3-3c-1.6,0-3,1.3-3,3C1387.8,384.5,1389.2,385.9,1390.8,385.9z"/>
	<path class="st5" d="M1406.6,385.9c1.6,0,3-1.3,3-3c0-1.6-1.3-3-3-3c-1.6,0-3,1.3-3,3C1403.6,384.5,1404.9,385.9,1406.6,385.9z"/>
	<path class="st5" d="M1422.4,385.9c1.6,0,3-1.3,3-3c0-1.6-1.3-3-3-3c-1.6,0-3,1.3-3,3C1419.4,384.5,1420.7,385.9,1422.4,385.9z"/>
	<path class="st5" d="M1438.1,385.9c1.6,0,3-1.3,3-3c0-1.6-1.3-3-3-3c-1.6,0-3,1.3-3,3C1435.1,384.5,1436.5,385.9,1438.1,385.9z"/>
	<path class="st5" d="M1453.9,385.9c1.6,0,3-1.3,3-3c0-1.6-1.3-3-3-3c-1.6,0-3,1.3-3,3C1450.9,384.5,1452.2,385.9,1453.9,385.9z"/>
	<path class="st5" d="M1469.7,385.9c1.6,0,3-1.3,3-3c0-1.6-1.3-3-3-3c-1.6,0-3,1.3-3,3C1466.7,384.5,1468,385.9,1469.7,385.9z"/>
	<circle class="st5" cx="1312" cy="398.6" r="3"/>
	<path class="st5" d="M1327.7,401.6c1.6,0,3-1.3,3-3c0-1.6-1.3-3-3-3c-1.6,0-3,1.3-3,3C1324.8,400.3,1326.1,401.6,1327.7,401.6z"/>
	<path class="st5" d="M1343.5,401.6c1.6,0,3-1.3,3-3c0-1.6-1.3-3-3-3c-1.6,0-3,1.3-3,3C1340.5,400.3,1341.9,401.6,1343.5,401.6z"/>
	<circle class="st5" cx="1359.3" cy="398.6" r="3"/>
	<path class="st5" d="M1375,401.6c1.6,0,3-1.3,3-3c0-1.6-1.3-3-3-3c-1.6,0-3,1.3-3,3C1372.1,400.3,1373.4,401.6,1375,401.6z"/>
	<circle class="st5" cx="1390.8" cy="398.6" r="3"/>
	<path class="st5" d="M1406.6,401.6c1.6,0,3-1.3,3-3c0-1.6-1.3-3-3-3c-1.6,0-3,1.3-3,3C1403.6,400.3,1404.9,401.6,1406.6,401.6z"/>
	<path class="st5" d="M1422.4,401.6c1.6,0,3-1.3,3-3c0-1.6-1.3-3-3-3c-1.6,0-3,1.3-3,3C1419.4,400.3,1420.7,401.6,1422.4,401.6z"/>
	<circle class="st5" cx="1438.1" cy="398.6" r="3"/>
	<path class="st5" d="M1453.9,401.6c1.6,0,3-1.3,3-3c0-1.6-1.3-3-3-3c-1.6,0-3,1.3-3,3C1450.9,400.3,1452.2,401.6,1453.9,401.6z"/>
	<circle class="st5" cx="1469.7" cy="398.6" r="3"/>
	<path class="st5" d="M1296.2,417.4c1.6,0,3-1.3,3-3c0-1.6-1.3-3-3-3c-1.6,0-3,1.3-3,3S1294.6,417.4,1296.2,417.4z"/>
	<circle class="st5" cx="1312" cy="414.4" r="3"/>
	<path class="st5" d="M1327.7,417.4c1.6,0,3-1.3,3-3c0-1.6-1.3-3-3-3c-1.6,0-3,1.3-3,3C1324.8,416.1,1326.1,417.4,1327.7,417.4z"/>
	<path class="st5" d="M1343.5,417.4c1.6,0,3-1.3,3-3c0-1.6-1.3-3-3-3c-1.6,0-3,1.3-3,3S1341.9,417.4,1343.5,417.4z"/>
	<circle class="st5" cx="1359.3" cy="414.4" r="3"/>
	<path class="st5" d="M1375,417.4c1.6,0,3-1.3,3-3c0-1.6-1.3-3-3-3c-1.6,0-3,1.3-3,3C1372.1,416.1,1373.4,417.4,1375,417.4z"/>
	<circle class="st5" cx="1390.8" cy="414.4" r="3"/>
	<path class="st5" d="M1406.6,417.4c1.6,0,3-1.3,3-3c0-1.6-1.3-3-3-3c-1.6,0-3,1.3-3,3S1404.9,417.4,1406.6,417.4z"/>
	<path class="st5" d="M1422.4,417.4c1.6,0,3-1.3,3-3c0-1.6-1.3-3-3-3c-1.6,0-3,1.3-3,3S1420.7,417.4,1422.4,417.4z"/>
	<circle class="st5" cx="1438.1" cy="414.4" r="3"/>
	<path class="st5" d="M1453.9,417.4c1.6,0,3-1.3,3-3c0-1.6-1.3-3-3-3c-1.6,0-3,1.3-3,3S1452.2,417.4,1453.9,417.4z"/>
	<circle class="st5" cx="1469.7" cy="414.4" r="3"/>
	<path class="st5" d="M1280.4,433.2c1.6,0,3-1.3,3-3c0-1.6-1.3-3-3-3c-1.6,0-3,1.3-3,3C1277.5,431.8,1278.8,433.2,1280.4,433.2z"/>
	<path class="st5" d="M1296.2,433.2c1.6,0,3-1.3,3-3c0-1.6-1.3-3-3-3c-1.6,0-3,1.3-3,3C1293.2,431.8,1294.6,433.2,1296.2,433.2z"/>
	<path class="st5" d="M1312,433.2c1.6,0,3-1.3,3-3c0-1.6-1.3-3-3-3c-1.6,0-3,1.3-3,3C1309,431.8,1310.3,433.2,1312,433.2z"/>
	<path class="st5" d="M1327.7,433.2c1.6,0,3-1.3,3-3c0-1.6-1.3-3-3-3c-1.6,0-3,1.3-3,3C1324.8,431.8,1326.1,433.2,1327.7,433.2z"/>
	<path class="st5" d="M1343.5,433.2c1.6,0,3-1.3,3-3c0-1.6-1.3-3-3-3c-1.6,0-3,1.3-3,3C1340.5,431.8,1341.9,433.2,1343.5,433.2z"/>
	<path class="st5" d="M1359.3,433.2c1.6,0,3-1.3,3-3c0-1.6-1.3-3-3-3c-1.6,0-3,1.3-3,3C1356.3,431.8,1357.6,433.2,1359.3,433.2z"/>
	<path class="st5" d="M1375,433.2c1.6,0,3-1.3,3-3c0-1.6-1.3-3-3-3c-1.6,0-3,1.3-3,3C1372.1,431.8,1373.4,433.2,1375,433.2z"/>
	<path class="st5" d="M1390.8,433.2c1.6,0,3-1.3,3-3c0-1.6-1.3-3-3-3c-1.6,0-3,1.3-3,3C1387.8,431.8,1389.2,433.2,1390.8,433.2z"/>
	<path class="st5" d="M1406.6,433.2c1.6,0,3-1.3,3-3c0-1.6-1.3-3-3-3c-1.6,0-3,1.3-3,3C1403.6,431.8,1404.9,433.2,1406.6,433.2z"/>
	<path class="st5" d="M1422.4,433.2c1.6,0,3-1.3,3-3c0-1.6-1.3-3-3-3c-1.6,0-3,1.3-3,3C1419.4,431.8,1420.7,433.2,1422.4,433.2z"/>
	<path class="st5" d="M1438.1,433.2c1.6,0,3-1.3,3-3c0-1.6-1.3-3-3-3c-1.6,0-3,1.3-3,3C1435.1,431.8,1436.5,433.2,1438.1,433.2z"/>
	<path class="st5" d="M1453.9,433.2c1.6,0,3-1.3,3-3c0-1.6-1.3-3-3-3c-1.6,0-3,1.3-3,3C1450.9,431.8,1452.2,433.2,1453.9,433.2z"/>
	<path class="st5" d="M1469.7,433.2c1.6,0,3-1.3,3-3c0-1.6-1.3-3-3-3c-1.6,0-3,1.3-3,3C1466.7,431.8,1468,433.2,1469.7,433.2z"/>
	<path class="st5" d="M1264.7,448.9c1.6,0,3-1.3,3-3c0-1.6-1.3-3-3-3c-1.6,0-3,1.3-3,3S1263,448.9,1264.7,448.9z"/>
	<circle class="st5" cx="1280.4" cy="445.9" r="3"/>
	<path class="st5" d="M1296.2,448.9c1.6,0,3-1.3,3-3c0-1.6-1.3-3-3-3c-1.6,0-3,1.3-3,3S1294.6,448.9,1296.2,448.9z"/>
	<circle class="st5" cx="1312" cy="445.9" r="3"/>
	<path class="st5" d="M1327.7,448.9c1.6,0,3-1.3,3-3c0-1.6-1.3-3-3-3c-1.6,0-3,1.3-3,3C1324.8,447.6,1326.1,448.9,1327.7,448.9z"/>
	<path class="st5" d="M1343.5,448.9c1.6,0,3-1.3,3-3c0-1.6-1.3-3-3-3c-1.6,0-3,1.3-3,3S1341.9,448.9,1343.5,448.9z"/>
	<circle class="st5" cx="1359.3" cy="445.9" r="3"/>
	<path class="st5" d="M1375,448.9c1.6,0,3-1.3,3-3c0-1.6-1.3-3-3-3c-1.6,0-3,1.3-3,3C1372.1,447.6,1373.4,448.9,1375,448.9z"/>
	<circle class="st5" cx="1390.8" cy="445.9" r="3"/>
	<path class="st5" d="M1406.6,448.9c1.6,0,3-1.3,3-3c0-1.6-1.3-3-3-3c-1.6,0-3,1.3-3,3S1404.9,448.9,1406.6,448.9z"/>
	<path class="st5" d="M1422.4,448.9c1.6,0,3-1.3,3-3c0-1.6-1.3-3-3-3c-1.6,0-3,1.3-3,3S1420.7,448.9,1422.4,448.9z"/>
	<circle class="st5" cx="1438.1" cy="445.9" r="3"/>
	<path class="st5" d="M1453.9,448.9c1.6,0,3-1.3,3-3c0-1.6-1.3-3-3-3c-1.6,0-3,1.3-3,3S1452.2,448.9,1453.9,448.9z"/>
	<circle class="st5" cx="1469.7" cy="445.9" r="3"/>
	<path class="st5" d="M1248.9,464.7c1.6,0,3-1.3,3-3c0-1.6-1.3-3-3-3c-1.6,0-3,1.3-3,3C1245.9,463.4,1247.3,464.7,1248.9,464.7z"/>
	<path class="st5" d="M1264.7,464.7c1.6,0,3-1.3,3-3c0-1.6-1.3-3-3-3c-1.6,0-3,1.3-3,3C1261.7,463.4,1263,464.7,1264.7,464.7z"/>
	<path class="st5" d="M1280.4,464.7c1.6,0,3-1.3,3-3c0-1.6-1.3-3-3-3c-1.6,0-3,1.3-3,3C1277.5,463.4,1278.8,464.7,1280.4,464.7z"/>
	<path class="st5" d="M1296.2,464.7c1.6,0,3-1.3,3-3c0-1.6-1.3-3-3-3c-1.6,0-3,1.3-3,3C1293.2,463.4,1294.6,464.7,1296.2,464.7z"/>
	<path class="st5" d="M1312,464.7c1.6,0,3-1.3,3-3c0-1.6-1.3-3-3-3c-1.6,0-3,1.3-3,3C1309,463.4,1310.3,464.7,1312,464.7z"/>
	<path class="st5" d="M1327.7,464.7c1.6,0,3-1.3,3-3c0-1.6-1.3-3-3-3c-1.6,0-3,1.3-3,3C1324.8,463.4,1326.1,464.7,1327.7,464.7z"/>
	<path class="st5" d="M1343.5,464.7c1.6,0,3-1.3,3-3c0-1.6-1.3-3-3-3c-1.6,0-3,1.3-3,3C1340.5,463.4,1341.9,464.7,1343.5,464.7z"/>
	<path class="st5" d="M1359.3,464.7c1.6,0,3-1.3,3-3c0-1.6-1.3-3-3-3c-1.6,0-3,1.3-3,3C1356.3,463.4,1357.6,464.7,1359.3,464.7z"/>
	<path class="st5" d="M1375,464.7c1.6,0,3-1.3,3-3c0-1.6-1.3-3-3-3c-1.6,0-3,1.3-3,3C1372.1,463.4,1373.4,464.7,1375,464.7z"/>
	<path class="st5" d="M1390.8,464.7c1.6,0,3-1.3,3-3c0-1.6-1.3-3-3-3c-1.6,0-3,1.3-3,3C1387.8,463.4,1389.2,464.7,1390.8,464.7z"/>
	<path class="st5" d="M1406.6,464.7c1.6,0,3-1.3,3-3c0-1.6-1.3-3-3-3c-1.6,0-3,1.3-3,3C1403.6,463.4,1404.9,464.7,1406.6,464.7z"/>
	<path class="st5" d="M1422.4,464.7c1.6,0,3-1.3,3-3c0-1.6-1.3-3-3-3c-1.6,0-3,1.3-3,3C1419.4,463.4,1420.7,464.7,1422.4,464.7z"/>
	<path class="st5" d="M1438.1,464.7c1.6,0,3-1.3,3-3c0-1.6-1.3-3-3-3c-1.6,0-3,1.3-3,3C1435.1,463.4,1436.5,464.7,1438.1,464.7z"/>
	<path class="st5" d="M1453.9,464.7c1.6,0,3-1.3,3-3c0-1.6-1.3-3-3-3c-1.6,0-3,1.3-3,3C1450.9,463.4,1452.2,464.7,1453.9,464.7z"/>
	<path class="st5" d="M1469.7,464.7c1.6,0,3-1.3,3-3c0-1.6-1.3-3-3-3c-1.6,0-3,1.3-3,3C1466.7,463.4,1468,464.7,1469.7,464.7z"/>
	<path class="st5" d="M1233.1,480.5c1.6,0,3-1.3,3-3c0-1.6-1.3-3-3-3c-1.6,0-3,1.3-3,3C1230.2,479.1,1231.5,480.5,1233.1,480.5z"/>
	<path class="st5" d="M1248.9,480.5c1.6,0,3-1.3,3-3c0-1.6-1.3-3-3-3c-1.6,0-3,1.3-3,3C1245.9,479.1,1247.3,480.5,1248.9,480.5z"/>
	<path class="st5" d="M1264.7,480.5c1.6,0,3-1.3,3-3c0-1.6-1.3-3-3-3c-1.6,0-3,1.3-3,3C1261.7,479.1,1263,480.5,1264.7,480.5z"/>
	<path class="st5" d="M1280.4,480.5c1.6,0,3-1.3,3-3c0-1.6-1.3-3-3-3c-1.6,0-3,1.3-3,3C1277.5,479.1,1278.8,480.5,1280.4,480.5z"/>
	<path class="st5" d="M1296.2,480.5c1.6,0,3-1.3,3-3c0-1.6-1.3-3-3-3c-1.6,0-3,1.3-3,3C1293.2,479.1,1294.6,480.5,1296.2,480.5z"/>
	<path class="st5" d="M1312,480.5c1.6,0,3-1.3,3-3c0-1.6-1.3-3-3-3c-1.6,0-3,1.3-3,3C1309,479.1,1310.3,480.5,1312,480.5z"/>
	<path class="st5" d="M1327.7,480.5c1.6,0,3-1.3,3-3c0-1.6-1.3-3-3-3c-1.6,0-3,1.3-3,3C1324.8,479.1,1326.1,480.5,1327.7,480.5z"/>
	<path class="st5" d="M1343.5,480.5c1.6,0,3-1.3,3-3c0-1.6-1.3-3-3-3c-1.6,0-3,1.3-3,3C1340.5,479.1,1341.9,480.5,1343.5,480.5z"/>
	<path class="st5" d="M1359.3,480.5c1.6,0,3-1.3,3-3c0-1.6-1.3-3-3-3c-1.6,0-3,1.3-3,3C1356.3,479.1,1357.6,480.5,1359.3,480.5z"/>
	<path class="st5" d="M1375,480.5c1.6,0,3-1.3,3-3c0-1.6-1.3-3-3-3c-1.6,0-3,1.3-3,3C1372.1,479.1,1373.4,480.5,1375,480.5z"/>
	<path class="st5" d="M1390.8,480.5c1.6,0,3-1.3,3-3c0-1.6-1.3-3-3-3c-1.6,0-3,1.3-3,3C1387.8,479.1,1389.2,480.5,1390.8,480.5z"/>
	<path class="st5" d="M1406.6,480.5c1.6,0,3-1.3,3-3c0-1.6-1.3-3-3-3c-1.6,0-3,1.3-3,3C1403.6,479.1,1404.9,480.5,1406.6,480.5z"/>
	<path class="st5" d="M1422.4,480.5c1.6,0,3-1.3,3-3c0-1.6-1.3-3-3-3c-1.6,0-3,1.3-3,3C1419.4,479.1,1420.7,480.5,1422.4,480.5z"/>
	<path class="st5" d="M1438.1,480.5c1.6,0,3-1.3,3-3c0-1.6-1.3-3-3-3c-1.6,0-3,1.3-3,3C1435.1,479.1,1436.5,480.5,1438.1,480.5z"/>
	<path class="st5" d="M1453.9,480.5c1.6,0,3-1.3,3-3c0-1.6-1.3-3-3-3c-1.6,0-3,1.3-3,3C1450.9,479.1,1452.2,480.5,1453.9,480.5z"/>
	<path class="st5" d="M1469.7,480.5c1.6,0,3-1.3,3-3c0-1.6-1.3-3-3-3c-1.6,0-3,1.3-3,3C1466.7,479.1,1468,480.5,1469.7,480.5z"/>
	<path class="st5" d="M1217.4,496.2c1.6,0,3-1.3,3-3c0-1.6-1.3-3-3-3c-1.6,0-3,1.3-3,3C1214.4,494.9,1215.7,496.2,1217.4,496.2z"/>
	<circle class="st5" cx="1233.1" cy="493.3" r="3"/>
	<path class="st5" d="M1248.9,496.2c1.6,0,3-1.3,3-3c0-1.6-1.3-3-3-3c-1.6,0-3,1.3-3,3C1245.9,494.9,1247.3,496.2,1248.9,496.2z"/>
	<path class="st5" d="M1264.7,496.2c1.6,0,3-1.3,3-3c0-1.6-1.3-3-3-3c-1.6,0-3,1.3-3,3C1261.7,494.9,1263,496.2,1264.7,496.2z"/>
	<circle class="st5" cx="1280.4" cy="493.3" r="3"/>
	<path class="st5" d="M1296.2,496.2c1.6,0,3-1.3,3-3c0-1.6-1.3-3-3-3c-1.6,0-3,1.3-3,3C1293.2,494.9,1294.6,496.2,1296.2,496.2z"/>
	<circle class="st5" cx="1312" cy="493.3" r="3"/>
	<path class="st5" d="M1327.7,496.2c1.6,0,3-1.3,3-3c0-1.6-1.3-3-3-3c-1.6,0-3,1.3-3,3C1324.8,494.9,1326.1,496.2,1327.7,496.2z"/>
	<path class="st5" d="M1343.5,496.2c1.6,0,3-1.3,3-3c0-1.6-1.3-3-3-3c-1.6,0-3,1.3-3,3C1340.5,494.9,1341.9,496.2,1343.5,496.2z"/>
	<circle class="st5" cx="1359.3" cy="493.3" r="3"/>
	<path class="st5" d="M1375,496.2c1.6,0,3-1.3,3-3c0-1.6-1.3-3-3-3c-1.6,0-3,1.3-3,3C1372.1,494.9,1373.4,496.2,1375,496.2z"/>
	<circle class="st5" cx="1390.8" cy="493.3" r="3"/>
	<path class="st5" d="M1406.6,496.2c1.6,0,3-1.3,3-3c0-1.6-1.3-3-3-3c-1.6,0-3,1.3-3,3C1403.6,494.9,1404.9,496.2,1406.6,496.2z"/>
	<path class="st5" d="M1422.4,496.2c1.6,0,3-1.3,3-3c0-1.6-1.3-3-3-3c-1.6,0-3,1.3-3,3C1419.4,494.9,1420.7,496.2,1422.4,496.2z"/>
	<circle class="st5" cx="1438.1" cy="493.3" r="3"/>
	<path class="st5" d="M1453.9,496.2c1.6,0,3-1.3,3-3c0-1.6-1.3-3-3-3c-1.6,0-3,1.3-3,3C1450.9,494.9,1452.2,496.2,1453.9,496.2z"/>
	<circle class="st5" cx="1469.7" cy="493.3" r="3"/>
	<path class="st5" d="M1201.6,512c1.6,0,3-1.3,3-3c0-1.6-1.3-3-3-3c-1.6,0-3,1.3-3,3S1200,512,1201.6,512z"/>
	<path class="st5" d="M1217.4,512c1.6,0,3-1.3,3-3c0-1.6-1.3-3-3-3c-1.6,0-3,1.3-3,3S1215.7,512,1217.4,512z"/>
	<path class="st5" d="M1233.1,512c1.6,0,3-1.3,3-3c0-1.6-1.3-3-3-3c-1.6,0-3,1.3-3,3C1230.2,510.7,1231.5,512,1233.1,512z"/>
	<path class="st5" d="M1248.9,512c1.6,0,3-1.3,3-3c0-1.6-1.3-3-3-3c-1.6,0-3,1.3-3,3S1247.3,512,1248.9,512z"/>
	<path class="st5" d="M1264.7,512c1.6,0,3-1.3,3-3c0-1.6-1.3-3-3-3c-1.6,0-3,1.3-3,3S1263,512,1264.7,512z"/>
	<path class="st5" d="M1280.4,512c1.6,0,3-1.3,3-3c0-1.6-1.3-3-3-3c-1.6,0-3,1.3-3,3C1277.5,510.7,1278.8,512,1280.4,512z"/>
	<path class="st5" d="M1296.2,512c1.6,0,3-1.3,3-3c0-1.6-1.3-3-3-3c-1.6,0-3,1.3-3,3S1294.6,512,1296.2,512z"/>
	<path class="st5" d="M1312,512c1.6,0,3-1.3,3-3c0-1.6-1.3-3-3-3c-1.6,0-3,1.3-3,3S1310.3,512,1312,512z"/>
	<path class="st5" d="M1327.7,512c1.6,0,3-1.3,3-3c0-1.6-1.3-3-3-3c-1.6,0-3,1.3-3,3C1324.8,510.7,1326.1,512,1327.7,512z"/>
	<path class="st5" d="M1343.5,512c1.6,0,3-1.3,3-3c0-1.6-1.3-3-3-3c-1.6,0-3,1.3-3,3S1341.9,512,1343.5,512z"/>
	<path class="st5" d="M1359.3,512c1.6,0,3-1.3,3-3c0-1.6-1.3-3-3-3c-1.6,0-3,1.3-3,3S1357.6,512,1359.3,512z"/>
	<path class="st5" d="M1375,512c1.6,0,3-1.3,3-3c0-1.6-1.3-3-3-3c-1.6,0-3,1.3-3,3C1372.1,510.7,1373.4,512,1375,512z"/>
	<path class="st5" d="M1390.8,512c1.6,0,3-1.3,3-3c0-1.6-1.3-3-3-3c-1.6,0-3,1.3-3,3S1389.2,512,1390.8,512z"/>
	<path class="st5" d="M1406.6,512c1.6,0,3-1.3,3-3c0-1.6-1.3-3-3-3c-1.6,0-3,1.3-3,3S1404.9,512,1406.6,512z"/>
	<path class="st5" d="M1422.4,512c1.6,0,3-1.3,3-3c0-1.6-1.3-3-3-3c-1.6,0-3,1.3-3,3S1420.7,512,1422.4,512z"/>
	<path class="st5" d="M1438.1,512c1.6,0,3-1.3,3-3c0-1.6-1.3-3-3-3c-1.6,0-3,1.3-3,3S1436.5,512,1438.1,512z"/>
	<path class="st5" d="M1453.9,512c1.6,0,3-1.3,3-3c0-1.6-1.3-3-3-3c-1.6,0-3,1.3-3,3S1452.2,512,1453.9,512z"/>
	<path class="st5" d="M1469.7,512c1.6,0,3-1.3,3-3c0-1.6-1.3-3-3-3c-1.6,0-3,1.3-3,3S1468,512,1469.7,512z"/>
	<path class="st5" d="M1185.8,527.8c1.6,0,3-1.3,3-3c0-1.6-1.3-3-3-3c-1.6,0-3,1.3-3,3C1182.9,526.4,1184.2,527.8,1185.8,527.8z"/>
	<circle class="st5" cx="1201.6" cy="524.8" r="3"/>
	<path class="st5" d="M1217.4,527.8c1.6,0,3-1.3,3-3c0-1.6-1.3-3-3-3c-1.6,0-3,1.3-3,3C1214.4,526.4,1215.7,527.8,1217.4,527.8z"/>
	<circle class="st5" cx="1233.1" cy="524.8" r="3"/>
	<path class="st5" d="M1248.9,527.8c1.6,0,3-1.3,3-3c0-1.6-1.3-3-3-3c-1.6,0-3,1.3-3,3C1245.9,526.4,1247.3,527.8,1248.9,527.8z"/>
	<path class="st5" d="M1264.7,527.8c1.6,0,3-1.3,3-3c0-1.6-1.3-3-3-3c-1.6,0-3,1.3-3,3C1261.7,526.4,1263,527.8,1264.7,527.8z"/>
	<circle class="st5" cx="1280.4" cy="524.8" r="3"/>
	<path class="st5" d="M1296.2,527.8c1.6,0,3-1.3,3-3c0-1.6-1.3-3-3-3c-1.6,0-3,1.3-3,3C1293.2,526.4,1294.6,527.8,1296.2,527.8z"/>
	<circle class="st5" cx="1312" cy="524.8" r="3"/>
	<path class="st5" d="M1327.7,527.8c1.6,0,3-1.3,3-3c0-1.6-1.3-3-3-3c-1.6,0-3,1.3-3,3C1324.8,526.4,1326.1,527.8,1327.7,527.8z"/>
	<path class="st5" d="M1343.5,527.8c1.6,0,3-1.3,3-3c0-1.6-1.3-3-3-3c-1.6,0-3,1.3-3,3C1340.5,526.4,1341.9,527.8,1343.5,527.8z"/>
	<circle class="st5" cx="1359.3" cy="524.8" r="3"/>
	<path class="st5" d="M1375,527.8c1.6,0,3-1.3,3-3c0-1.6-1.3-3-3-3c-1.6,0-3,1.3-3,3C1372.1,526.4,1373.4,527.8,1375,527.8z"/>
	<circle class="st5" cx="1390.8" cy="524.8" r="3"/>
	<path class="st5" d="M1406.6,527.8c1.6,0,3-1.3,3-3c0-1.6-1.3-3-3-3c-1.6,0-3,1.3-3,3C1403.6,526.4,1404.9,527.8,1406.6,527.8z"/>
	<path class="st5" d="M1422.4,527.8c1.6,0,3-1.3,3-3c0-1.6-1.3-3-3-3c-1.6,0-3,1.3-3,3C1419.4,526.4,1420.7,527.8,1422.4,527.8z"/>
	<circle class="st5" cx="1438.1" cy="524.8" r="3"/>
	<path class="st5" d="M1453.9,527.8c1.6,0,3-1.3,3-3c0-1.6-1.3-3-3-3c-1.6,0-3,1.3-3,3C1450.9,526.4,1452.2,527.8,1453.9,527.8z"/>
	<circle class="st5" cx="1469.7" cy="524.8" r="3"/>
	<path class="st5" d="M1170.1,543.5c1.6,0,3-1.3,3-3c0-1.6-1.3-3-3-3c-1.6,0-3,1.3-3,3S1168.4,543.5,1170.1,543.5z"/>
	<path class="st5" d="M1185.8,543.5c1.6,0,3-1.3,3-3c0-1.6-1.3-3-3-3c-1.6,0-3,1.3-3,3C1182.9,542.2,1184.2,543.5,1185.8,543.5z"/>
	<path class="st5" d="M1201.6,543.5c1.6,0,3-1.3,3-3c0-1.6-1.3-3-3-3c-1.6,0-3,1.3-3,3S1200,543.5,1201.6,543.5z"/>
	<path class="st5" d="M1217.4,543.5c1.6,0,3-1.3,3-3c0-1.6-1.3-3-3-3c-1.6,0-3,1.3-3,3S1215.7,543.5,1217.4,543.5z"/>
	<path class="st5" d="M1233.1,543.5c1.6,0,3-1.3,3-3c0-1.6-1.3-3-3-3c-1.6,0-3,1.3-3,3C1230.2,542.2,1231.5,543.5,1233.1,543.5z"/>
	<path class="st5" d="M1248.9,543.5c1.6,0,3-1.3,3-3c0-1.6-1.3-3-3-3c-1.6,0-3,1.3-3,3S1247.3,543.5,1248.9,543.5z"/>
	<path class="st5" d="M1264.7,543.5c1.6,0,3-1.3,3-3c0-1.6-1.3-3-3-3c-1.6,0-3,1.3-3,3S1263,543.5,1264.7,543.5z"/>
	<path class="st5" d="M1280.4,543.5c1.6,0,3-1.3,3-3c0-1.6-1.3-3-3-3c-1.6,0-3,1.3-3,3C1277.5,542.2,1278.8,543.5,1280.4,543.5z"/>
	<path class="st5" d="M1296.2,543.5c1.6,0,3-1.3,3-3c0-1.6-1.3-3-3-3c-1.6,0-3,1.3-3,3S1294.6,543.5,1296.2,543.5z"/>
	<path class="st5" d="M1312,543.5c1.6,0,3-1.3,3-3c0-1.6-1.3-3-3-3c-1.6,0-3,1.3-3,3S1310.3,543.5,1312,543.5z"/>
	<path class="st5" d="M1327.7,543.5c1.6,0,3-1.3,3-3c0-1.6-1.3-3-3-3c-1.6,0-3,1.3-3,3C1324.8,542.2,1326.1,543.5,1327.7,543.5z"/>
	<path class="st5" d="M1343.5,543.5c1.6,0,3-1.3,3-3c0-1.6-1.3-3-3-3c-1.6,0-3,1.3-3,3S1341.9,543.5,1343.5,543.5z"/>
	<path class="st5" d="M1359.3,543.5c1.6,0,3-1.3,3-3c0-1.6-1.3-3-3-3c-1.6,0-3,1.3-3,3S1357.6,543.5,1359.3,543.5z"/>
	<path class="st5" d="M1375,543.5c1.6,0,3-1.3,3-3c0-1.6-1.3-3-3-3c-1.6,0-3,1.3-3,3C1372.1,542.2,1373.4,543.5,1375,543.5z"/>
	<path class="st5" d="M1390.8,543.5c1.6,0,3-1.3,3-3c0-1.6-1.3-3-3-3c-1.6,0-3,1.3-3,3S1389.2,543.5,1390.8,543.5z"/>
	<path class="st5" d="M1406.6,543.5c1.6,0,3-1.3,3-3c0-1.6-1.3-3-3-3c-1.6,0-3,1.3-3,3S1404.9,543.5,1406.6,543.5z"/>
	<path class="st5" d="M1422.4,543.5c1.6,0,3-1.3,3-3c0-1.6-1.3-3-3-3c-1.6,0-3,1.3-3,3S1420.7,543.5,1422.4,543.5z"/>
	<path class="st5" d="M1438.1,543.5c1.6,0,3-1.3,3-3c0-1.6-1.3-3-3-3c-1.6,0-3,1.3-3,3S1436.5,543.5,1438.1,543.5z"/>
	<path class="st5" d="M1453.9,543.5c1.6,0,3-1.3,3-3c0-1.6-1.3-3-3-3c-1.6,0-3,1.3-3,3S1452.2,543.5,1453.9,543.5z"/>
	<path class="st5" d="M1469.7,543.5c1.6,0,3-1.3,3-3c0-1.6-1.3-3-3-3c-1.6,0-3,1.3-3,3S1468,543.5,1469.7,543.5z"/>
</g>
</svg>
