<?xml version="1.0" encoding="utf-8"?>
<!-- Generator: Adobe Illustrator 22.1.0, SVG Export Plug-In . SVG Version: 6.00 Build 0)  -->
<svg version="1.1" id="Layer_1" xmlns="http://www.w3.org/2000/svg" xmlns:xlink="http://www.w3.org/1999/xlink" x="0px" y="0px"
	 viewBox="0 0 745.8 658" style="enable-background:new 0 0 745.8 658;" xml:space="preserve">
<style type="text/css">
	.st0{opacity:0.4;}
	.st1{enable-background:new    ;}
	.st2{fill:#8C98A4;}
	.st3{opacity:0.75;fill:none;stroke:#796EFF;stroke-width:20;stroke-miterlimit:10;}
	.st4{opacity:0.75;fill:#21C87A;}
</style>
<g>
	<g class="st0">
		<g>
			<g>
				<g class="st1">
					<path class="st2" d="M442.3,376.2v-4.3H438v-1.8h4.3v-4.3h1.8v4.3h4.3v1.8h-4.3v4.3H442.3z"/>
				</g>
				<g class="st1">
					<path class="st2" d="M466.9,376.2v-4.3h-4.3v-1.8h4.3v-4.3h1.8v4.3h4.3v1.8h-4.3v4.3H466.9z"/>
				</g>
				<g class="st1">
					<path class="st2" d="M491.6,376.2v-4.3h-4.3v-1.8h4.3v-4.3h1.8v4.3h4.3v1.8h-4.3v4.3H491.6z"/>
				</g>
				<g class="st1">
					<path class="st2" d="M516.3,376.2v-4.3H512v-1.8h4.3v-4.3h1.8v4.3h4.3v1.8h-4.3v4.3H516.3z"/>
				</g>
				<g class="st1">
					<path class="st2" d="M541,376.2v-4.3h-4.3v-1.8h4.3v-4.3h1.8v4.3h4.3v1.8h-4.3v4.3H541z"/>
				</g>
				<g class="st1">
					<path class="st2" d="M565.7,376.2v-4.3h-4.3v-1.8h4.3v-4.3h1.8v4.3h4.3v1.8h-4.3v4.3H565.7z"/>
				</g>
				<g class="st1">
					<path class="st2" d="M590.4,376.2v-4.3h-4.3v-1.8h4.3v-4.3h1.8v4.3h4.3v1.8h-4.3v4.3H590.4z"/>
				</g>
				<g class="st1">
					<path class="st2" d="M615.1,376.2v-4.3h-4.3v-1.8h4.3v-4.3h1.8v4.3h4.3v1.8h-4.3v4.3H615.1z"/>
				</g>
				<g class="st1">
					<path class="st2" d="M664.4,376.2v-4.3h-4.3v-1.8h4.3v-4.3h1.8v4.3h4.3v1.8h-4.3v4.3H664.4z"/>
				</g>
				<g class="st1">
					<path class="st2" d="M639.8,376.2v-4.3h-4.3v-1.8h4.3v-4.3h1.8v4.3h4.3v1.8h-4.3v4.3H639.8z"/>
				</g>
				<g class="st1">
					<path class="st2" d="M615.1,376.2v-4.3h-4.3v-1.8h4.3v-4.3h1.8v4.3h4.3v1.8h-4.3v4.3H615.1z"/>
				</g>
				<g class="st1">
					<path class="st2" d="M689.1,376.2v-4.3h-4.3v-1.8h4.3v-4.3h1.8v4.3h4.3v1.8H691v4.3H689.1z"/>
				</g>
				<g class="st1">
					<path class="st2" d="M713.8,376.2v-4.3h-4.3v-1.8h4.3v-4.3h1.8v4.3h4.3v1.8h-4.3v4.3H713.8z"/>
				</g>
				<g class="st1">
					<path class="st2" d="M738.5,376.2v-4.3h-4.3v-1.8h4.3v-4.3h1.8v4.3h4.3v1.8h-4.3v4.3H738.5z"/>
				</g>
			</g>
			<g>
				<g class="st1">
					<path class="st2" d="M442.3,400.9v-4.3H438v-1.8h4.3v-4.3h1.8v4.3h4.3v1.8h-4.3v4.3H442.3z"/>
				</g>
				<g class="st1">
					<path class="st2" d="M466.9,400.9v-4.3h-4.3v-1.8h4.3v-4.3h1.8v4.3h4.3v1.8h-4.3v4.3H466.9z"/>
				</g>
				<g class="st1">
					<path class="st2" d="M491.6,400.9v-4.3h-4.3v-1.8h4.3v-4.3h1.8v4.3h4.3v1.8h-4.3v4.3H491.6z"/>
				</g>
				<g class="st1">
					<path class="st2" d="M516.3,400.9v-4.3H512v-1.8h4.3v-4.3h1.8v4.3h4.3v1.8h-4.3v4.3H516.3z"/>
				</g>
				<g class="st1">
					<path class="st2" d="M541,400.9v-4.3h-4.3v-1.8h4.3v-4.3h1.8v4.3h4.3v1.8h-4.3v4.3H541z"/>
				</g>
				<g class="st1">
					<path class="st2" d="M565.7,400.9v-4.3h-4.3v-1.8h4.3v-4.3h1.8v4.3h4.3v1.8h-4.3v4.3H565.7z"/>
				</g>
				<g class="st1">
					<path class="st2" d="M590.4,400.9v-4.3h-4.3v-1.8h4.3v-4.3h1.8v4.3h4.3v1.8h-4.3v4.3H590.4z"/>
				</g>
				<g class="st1">
					<path class="st2" d="M615.1,400.9v-4.3h-4.3v-1.8h4.3v-4.3h1.8v4.3h4.3v1.8h-4.3v4.3H615.1z"/>
				</g>
				<g class="st1">
					<path class="st2" d="M664.4,400.9v-4.3h-4.3v-1.8h4.3v-4.3h1.8v4.3h4.3v1.8h-4.3v4.3H664.4z"/>
				</g>
				<g class="st1">
					<path class="st2" d="M639.8,400.9v-4.3h-4.3v-1.8h4.3v-4.3h1.8v4.3h4.3v1.8h-4.3v4.3H639.8z"/>
				</g>
				<g class="st1">
					<path class="st2" d="M615.1,400.9v-4.3h-4.3v-1.8h4.3v-4.3h1.8v4.3h4.3v1.8h-4.3v4.3H615.1z"/>
				</g>
				<g class="st1">
					<path class="st2" d="M689.1,400.9v-4.3h-4.3v-1.8h4.3v-4.3h1.8v4.3h4.3v1.8H691v4.3H689.1z"/>
				</g>
				<g class="st1">
					<path class="st2" d="M713.8,400.9v-4.3h-4.3v-1.8h4.3v-4.3h1.8v4.3h4.3v1.8h-4.3v4.3H713.8z"/>
				</g>
				<g class="st1">
					<path class="st2" d="M738.5,400.9v-4.3h-4.3v-1.8h4.3v-4.3h1.8v4.3h4.3v1.8h-4.3v4.3H738.5z"/>
				</g>
			</g>
			<g>
				<g class="st1">
					<path class="st2" d="M442.3,425.6v-4.3H438v-1.8h4.3v-4.3h1.8v4.3h4.3v1.8h-4.3v4.3H442.3z"/>
				</g>
				<g class="st1">
					<path class="st2" d="M466.9,425.6v-4.3h-4.3v-1.8h4.3v-4.3h1.8v4.3h4.3v1.8h-4.3v4.3H466.9z"/>
				</g>
				<g class="st1">
					<path class="st2" d="M491.6,425.6v-4.3h-4.3v-1.8h4.3v-4.3h1.8v4.3h4.3v1.8h-4.3v4.3H491.6z"/>
				</g>
				<g class="st1">
					<path class="st2" d="M516.3,425.6v-4.3H512v-1.8h4.3v-4.3h1.8v4.3h4.3v1.8h-4.3v4.3H516.3z"/>
				</g>
				<g class="st1">
					<path class="st2" d="M541,425.6v-4.3h-4.3v-1.8h4.3v-4.3h1.8v4.3h4.3v1.8h-4.3v4.3H541z"/>
				</g>
				<g class="st1">
					<path class="st2" d="M565.7,425.6v-4.3h-4.3v-1.8h4.3v-4.3h1.8v4.3h4.3v1.8h-4.3v4.3H565.7z"/>
				</g>
				<g class="st1">
					<path class="st2" d="M590.4,425.6v-4.3h-4.3v-1.8h4.3v-4.3h1.8v4.3h4.3v1.8h-4.3v4.3H590.4z"/>
				</g>
				<g class="st1">
					<path class="st2" d="M615.1,425.6v-4.3h-4.3v-1.8h4.3v-4.3h1.8v4.3h4.3v1.8h-4.3v4.3H615.1z"/>
				</g>
				<g class="st1">
					<path class="st2" d="M664.4,425.6v-4.3h-4.3v-1.8h4.3v-4.3h1.8v4.3h4.3v1.8h-4.3v4.3H664.4z"/>
				</g>
				<g class="st1">
					<path class="st2" d="M639.8,425.6v-4.3h-4.3v-1.8h4.3v-4.3h1.8v4.3h4.3v1.8h-4.3v4.3H639.8z"/>
				</g>
				<g class="st1">
					<path class="st2" d="M615.1,425.6v-4.3h-4.3v-1.8h4.3v-4.3h1.8v4.3h4.3v1.8h-4.3v4.3H615.1z"/>
				</g>
				<g class="st1">
					<path class="st2" d="M689.1,425.6v-4.3h-4.3v-1.8h4.3v-4.3h1.8v4.3h4.3v1.8H691v4.3H689.1z"/>
				</g>
				<g class="st1">
					<path class="st2" d="M713.8,425.6v-4.3h-4.3v-1.8h4.3v-4.3h1.8v4.3h4.3v1.8h-4.3v4.3H713.8z"/>
				</g>
				<g class="st1">
					<path class="st2" d="M738.5,425.6v-4.3h-4.3v-1.8h4.3v-4.3h1.8v4.3h4.3v1.8h-4.3v4.3H738.5z"/>
				</g>
			</g>
			<g>
				<g class="st1">
					<path class="st2" d="M442.3,450.3V446H438v-1.8h4.3v-4.3h1.8v4.3h4.3v1.8h-4.3v4.3H442.3z"/>
				</g>
				<g class="st1">
					<path class="st2" d="M466.9,450.3V446h-4.3v-1.8h4.3v-4.3h1.8v4.3h4.3v1.8h-4.3v4.3H466.9z"/>
				</g>
				<g class="st1">
					<path class="st2" d="M491.6,450.3V446h-4.3v-1.8h4.3v-4.3h1.8v4.3h4.3v1.8h-4.3v4.3H491.6z"/>
				</g>
				<g class="st1">
					<path class="st2" d="M516.3,450.3V446H512v-1.8h4.3v-4.3h1.8v4.3h4.3v1.8h-4.3v4.3H516.3z"/>
				</g>
				<g class="st1">
					<path class="st2" d="M541,450.3V446h-4.3v-1.8h4.3v-4.3h1.8v4.3h4.3v1.8h-4.3v4.3H541z"/>
				</g>
				<g class="st1">
					<path class="st2" d="M565.7,450.3V446h-4.3v-1.8h4.3v-4.3h1.8v4.3h4.3v1.8h-4.3v4.3H565.7z"/>
				</g>
				<g class="st1">
					<path class="st2" d="M590.4,450.3V446h-4.3v-1.8h4.3v-4.3h1.8v4.3h4.3v1.8h-4.3v4.3H590.4z"/>
				</g>
				<g class="st1">
					<path class="st2" d="M615.1,450.3V446h-4.3v-1.8h4.3v-4.3h1.8v4.3h4.3v1.8h-4.3v4.3H615.1z"/>
				</g>
				<g class="st1">
					<path class="st2" d="M664.4,450.3V446h-4.3v-1.8h4.3v-4.3h1.8v4.3h4.3v1.8h-4.3v4.3H664.4z"/>
				</g>
				<g class="st1">
					<path class="st2" d="M639.8,450.3V446h-4.3v-1.8h4.3v-4.3h1.8v4.3h4.3v1.8h-4.3v4.3H639.8z"/>
				</g>
				<g class="st1">
					<path class="st2" d="M615.1,450.3V446h-4.3v-1.8h4.3v-4.3h1.8v4.3h4.3v1.8h-4.3v4.3H615.1z"/>
				</g>
				<g class="st1">
					<path class="st2" d="M689.1,450.3V446h-4.3v-1.8h4.3v-4.3h1.8v4.3h4.3v1.8H691v4.3H689.1z"/>
				</g>
				<g class="st1">
					<path class="st2" d="M713.8,450.3V446h-4.3v-1.8h4.3v-4.3h1.8v4.3h4.3v1.8h-4.3v4.3H713.8z"/>
				</g>
				<g class="st1">
					<path class="st2" d="M738.5,450.3V446h-4.3v-1.8h4.3v-4.3h1.8v4.3h4.3v1.8h-4.3v4.3H738.5z"/>
				</g>
			</g>
			<g>
				<g class="st1">
					<path class="st2" d="M442.3,475v-4.3H438v-1.8h4.3v-4.3h1.8v4.3h4.3v1.8h-4.3v4.3H442.3z"/>
				</g>
				<g class="st1">
					<path class="st2" d="M466.9,475v-4.3h-4.3v-1.8h4.3v-4.3h1.8v4.3h4.3v1.8h-4.3v4.3H466.9z"/>
				</g>
				<g class="st1">
					<path class="st2" d="M491.6,475v-4.3h-4.3v-1.8h4.3v-4.3h1.8v4.3h4.3v1.8h-4.3v4.3H491.6z"/>
				</g>
				<g class="st1">
					<path class="st2" d="M516.3,475v-4.3H512v-1.8h4.3v-4.3h1.8v4.3h4.3v1.8h-4.3v4.3H516.3z"/>
				</g>
				<g class="st1">
					<path class="st2" d="M541,475v-4.3h-4.3v-1.8h4.3v-4.3h1.8v4.3h4.3v1.8h-4.3v4.3H541z"/>
				</g>
				<g class="st1">
					<path class="st2" d="M565.7,475v-4.3h-4.3v-1.8h4.3v-4.3h1.8v4.3h4.3v1.8h-4.3v4.3H565.7z"/>
				</g>
				<g class="st1">
					<path class="st2" d="M590.4,475v-4.3h-4.3v-1.8h4.3v-4.3h1.8v4.3h4.3v1.8h-4.3v4.3H590.4z"/>
				</g>
				<g class="st1">
					<path class="st2" d="M615.1,475v-4.3h-4.3v-1.8h4.3v-4.3h1.8v4.3h4.3v1.8h-4.3v4.3H615.1z"/>
				</g>
				<g class="st1">
					<path class="st2" d="M664.4,475v-4.3h-4.3v-1.8h4.3v-4.3h1.8v4.3h4.3v1.8h-4.3v4.3H664.4z"/>
				</g>
				<g class="st1">
					<path class="st2" d="M639.8,475v-4.3h-4.3v-1.8h4.3v-4.3h1.8v4.3h4.3v1.8h-4.3v4.3H639.8z"/>
				</g>
				<g class="st1">
					<path class="st2" d="M615.1,475v-4.3h-4.3v-1.8h4.3v-4.3h1.8v4.3h4.3v1.8h-4.3v4.3H615.1z"/>
				</g>
				<g class="st1">
					<path class="st2" d="M689.1,475v-4.3h-4.3v-1.8h4.3v-4.3h1.8v4.3h4.3v1.8H691v4.3H689.1z"/>
				</g>
				<g class="st1">
					<path class="st2" d="M713.8,475v-4.3h-4.3v-1.8h4.3v-4.3h1.8v4.3h4.3v1.8h-4.3v4.3H713.8z"/>
				</g>
				<g class="st1">
					<path class="st2" d="M738.5,475v-4.3h-4.3v-1.8h4.3v-4.3h1.8v4.3h4.3v1.8h-4.3v4.3H738.5z"/>
				</g>
			</g>
			<g>
				<g class="st1">
					<path class="st2" d="M442.3,499.6v-4.3H438v-1.8h4.3v-4.3h1.8v4.3h4.3v1.8h-4.3v4.3H442.3z"/>
				</g>
				<g class="st1">
					<path class="st2" d="M466.9,499.6v-4.3h-4.3v-1.8h4.3v-4.3h1.8v4.3h4.3v1.8h-4.3v4.3H466.9z"/>
				</g>
				<g class="st1">
					<path class="st2" d="M491.6,499.6v-4.3h-4.3v-1.8h4.3v-4.3h1.8v4.3h4.3v1.8h-4.3v4.3H491.6z"/>
				</g>
				<g class="st1">
					<path class="st2" d="M516.3,499.6v-4.3H512v-1.8h4.3v-4.3h1.8v4.3h4.3v1.8h-4.3v4.3H516.3z"/>
				</g>
				<g class="st1">
					<path class="st2" d="M541,499.6v-4.3h-4.3v-1.8h4.3v-4.3h1.8v4.3h4.3v1.8h-4.3v4.3H541z"/>
				</g>
				<g class="st1">
					<path class="st2" d="M565.7,499.6v-4.3h-4.3v-1.8h4.3v-4.3h1.8v4.3h4.3v1.8h-4.3v4.3H565.7z"/>
				</g>
				<g class="st1">
					<path class="st2" d="M590.4,499.6v-4.3h-4.3v-1.8h4.3v-4.3h1.8v4.3h4.3v1.8h-4.3v4.3H590.4z"/>
				</g>
				<g class="st1">
					<path class="st2" d="M615.1,499.6v-4.3h-4.3v-1.8h4.3v-4.3h1.8v4.3h4.3v1.8h-4.3v4.3H615.1z"/>
				</g>
				<g class="st1">
					<path class="st2" d="M664.4,499.6v-4.3h-4.3v-1.8h4.3v-4.3h1.8v4.3h4.3v1.8h-4.3v4.3H664.4z"/>
				</g>
				<g class="st1">
					<path class="st2" d="M639.8,499.6v-4.3h-4.3v-1.8h4.3v-4.3h1.8v4.3h4.3v1.8h-4.3v4.3H639.8z"/>
				</g>
				<g class="st1">
					<path class="st2" d="M615.1,499.6v-4.3h-4.3v-1.8h4.3v-4.3h1.8v4.3h4.3v1.8h-4.3v4.3H615.1z"/>
				</g>
				<g class="st1">
					<path class="st2" d="M689.1,499.6v-4.3h-4.3v-1.8h4.3v-4.3h1.8v4.3h4.3v1.8H691v4.3H689.1z"/>
				</g>
				<g class="st1">
					<path class="st2" d="M713.8,499.6v-4.3h-4.3v-1.8h4.3v-4.3h1.8v4.3h4.3v1.8h-4.3v4.3H713.8z"/>
				</g>
				<g class="st1">
					<path class="st2" d="M738.5,499.6v-4.3h-4.3v-1.8h4.3v-4.3h1.8v4.3h4.3v1.8h-4.3v4.3H738.5z"/>
				</g>
			</g>
		</g>
		<g>
			<g>
				<g class="st1">
					<path class="st2" d="M442.3,524.3V520H438v-1.8h4.3v-4.3h1.8v4.3h4.3v1.8h-4.3v4.3H442.3z"/>
				</g>
				<g class="st1">
					<path class="st2" d="M466.9,524.3V520h-4.3v-1.8h4.3v-4.3h1.8v4.3h4.3v1.8h-4.3v4.3H466.9z"/>
				</g>
				<g class="st1">
					<path class="st2" d="M491.6,524.3V520h-4.3v-1.8h4.3v-4.3h1.8v4.3h4.3v1.8h-4.3v4.3H491.6z"/>
				</g>
				<g class="st1">
					<path class="st2" d="M516.3,524.3V520H512v-1.8h4.3v-4.3h1.8v4.3h4.3v1.8h-4.3v4.3H516.3z"/>
				</g>
				<g class="st1">
					<path class="st2" d="M541,524.3V520h-4.3v-1.8h4.3v-4.3h1.8v4.3h4.3v1.8h-4.3v4.3H541z"/>
				</g>
				<g class="st1">
					<path class="st2" d="M565.7,524.3V520h-4.3v-1.8h4.3v-4.3h1.8v4.3h4.3v1.8h-4.3v4.3H565.7z"/>
				</g>
				<g class="st1">
					<path class="st2" d="M590.4,524.3V520h-4.3v-1.8h4.3v-4.3h1.8v4.3h4.3v1.8h-4.3v4.3H590.4z"/>
				</g>
				<g class="st1">
					<path class="st2" d="M615.1,524.3V520h-4.3v-1.8h4.3v-4.3h1.8v4.3h4.3v1.8h-4.3v4.3H615.1z"/>
				</g>
				<g class="st1">
					<path class="st2" d="M664.4,524.3V520h-4.3v-1.8h4.3v-4.3h1.8v4.3h4.3v1.8h-4.3v4.3H664.4z"/>
				</g>
				<g class="st1">
					<path class="st2" d="M639.8,524.3V520h-4.3v-1.8h4.3v-4.3h1.8v4.3h4.3v1.8h-4.3v4.3H639.8z"/>
				</g>
				<g class="st1">
					<path class="st2" d="M615.1,524.3V520h-4.3v-1.8h4.3v-4.3h1.8v4.3h4.3v1.8h-4.3v4.3H615.1z"/>
				</g>
				<g class="st1">
					<path class="st2" d="M689.1,524.3V520h-4.3v-1.8h4.3v-4.3h1.8v4.3h4.3v1.8H691v4.3H689.1z"/>
				</g>
				<g class="st1">
					<path class="st2" d="M713.8,524.3V520h-4.3v-1.8h4.3v-4.3h1.8v4.3h4.3v1.8h-4.3v4.3H713.8z"/>
				</g>
				<g class="st1">
					<path class="st2" d="M738.5,524.3V520h-4.3v-1.8h4.3v-4.3h1.8v4.3h4.3v1.8h-4.3v4.3H738.5z"/>
				</g>
			</g>
			<g>
				<g class="st1">
					<path class="st2" d="M442.3,549v-4.3H438v-1.8h4.3v-4.3h1.8v4.3h4.3v1.8h-4.3v4.3H442.3z"/>
				</g>
				<g class="st1">
					<path class="st2" d="M466.9,549v-4.3h-4.3v-1.8h4.3v-4.3h1.8v4.3h4.3v1.8h-4.3v4.3H466.9z"/>
				</g>
				<g class="st1">
					<path class="st2" d="M491.6,549v-4.3h-4.3v-1.8h4.3v-4.3h1.8v4.3h4.3v1.8h-4.3v4.3H491.6z"/>
				</g>
				<g class="st1">
					<path class="st2" d="M516.3,549v-4.3H512v-1.8h4.3v-4.3h1.8v4.3h4.3v1.8h-4.3v4.3H516.3z"/>
				</g>
				<g class="st1">
					<path class="st2" d="M541,549v-4.3h-4.3v-1.8h4.3v-4.3h1.8v4.3h4.3v1.8h-4.3v4.3H541z"/>
				</g>
				<g class="st1">
					<path class="st2" d="M565.7,549v-4.3h-4.3v-1.8h4.3v-4.3h1.8v4.3h4.3v1.8h-4.3v4.3H565.7z"/>
				</g>
				<g class="st1">
					<path class="st2" d="M590.4,549v-4.3h-4.3v-1.8h4.3v-4.3h1.8v4.3h4.3v1.8h-4.3v4.3H590.4z"/>
				</g>
				<g class="st1">
					<path class="st2" d="M615.1,549v-4.3h-4.3v-1.8h4.3v-4.3h1.8v4.3h4.3v1.8h-4.3v4.3H615.1z"/>
				</g>
				<g class="st1">
					<path class="st2" d="M664.4,549v-4.3h-4.3v-1.8h4.3v-4.3h1.8v4.3h4.3v1.8h-4.3v4.3H664.4z"/>
				</g>
				<g class="st1">
					<path class="st2" d="M639.8,549v-4.3h-4.3v-1.8h4.3v-4.3h1.8v4.3h4.3v1.8h-4.3v4.3H639.8z"/>
				</g>
				<g class="st1">
					<path class="st2" d="M615.1,549v-4.3h-4.3v-1.8h4.3v-4.3h1.8v4.3h4.3v1.8h-4.3v4.3H615.1z"/>
				</g>
				<g class="st1">
					<path class="st2" d="M689.1,549v-4.3h-4.3v-1.8h4.3v-4.3h1.8v4.3h4.3v1.8H691v4.3H689.1z"/>
				</g>
				<g class="st1">
					<path class="st2" d="M713.8,549v-4.3h-4.3v-1.8h4.3v-4.3h1.8v4.3h4.3v1.8h-4.3v4.3H713.8z"/>
				</g>
				<g class="st1">
					<path class="st2" d="M738.5,549v-4.3h-4.3v-1.8h4.3v-4.3h1.8v4.3h4.3v1.8h-4.3v4.3H738.5z"/>
				</g>
			</g>
			<g>
				<g class="st1">
					<path class="st2" d="M442.3,573.7v-4.3H438v-1.8h4.3v-4.3h1.8v4.3h4.3v1.8h-4.3v4.3H442.3z"/>
				</g>
				<g class="st1">
					<path class="st2" d="M466.9,573.7v-4.3h-4.3v-1.8h4.3v-4.3h1.8v4.3h4.3v1.8h-4.3v4.3H466.9z"/>
				</g>
				<g class="st1">
					<path class="st2" d="M491.6,573.7v-4.3h-4.3v-1.8h4.3v-4.3h1.8v4.3h4.3v1.8h-4.3v4.3H491.6z"/>
				</g>
				<g class="st1">
					<path class="st2" d="M516.3,573.7v-4.3H512v-1.8h4.3v-4.3h1.8v4.3h4.3v1.8h-4.3v4.3H516.3z"/>
				</g>
				<g class="st1">
					<path class="st2" d="M541,573.7v-4.3h-4.3v-1.8h4.3v-4.3h1.8v4.3h4.3v1.8h-4.3v4.3H541z"/>
				</g>
				<g class="st1">
					<path class="st2" d="M565.7,573.7v-4.3h-4.3v-1.8h4.3v-4.3h1.8v4.3h4.3v1.8h-4.3v4.3H565.7z"/>
				</g>
				<g class="st1">
					<path class="st2" d="M590.4,573.7v-4.3h-4.3v-1.8h4.3v-4.3h1.8v4.3h4.3v1.8h-4.3v4.3H590.4z"/>
				</g>
				<g class="st1">
					<path class="st2" d="M615.1,573.7v-4.3h-4.3v-1.8h4.3v-4.3h1.8v4.3h4.3v1.8h-4.3v4.3H615.1z"/>
				</g>
				<g class="st1">
					<path class="st2" d="M664.4,573.7v-4.3h-4.3v-1.8h4.3v-4.3h1.8v4.3h4.3v1.8h-4.3v4.3H664.4z"/>
				</g>
				<g class="st1">
					<path class="st2" d="M639.8,573.7v-4.3h-4.3v-1.8h4.3v-4.3h1.8v4.3h4.3v1.8h-4.3v4.3H639.8z"/>
				</g>
				<g class="st1">
					<path class="st2" d="M615.1,573.7v-4.3h-4.3v-1.8h4.3v-4.3h1.8v4.3h4.3v1.8h-4.3v4.3H615.1z"/>
				</g>
				<g class="st1">
					<path class="st2" d="M689.1,573.7v-4.3h-4.3v-1.8h4.3v-4.3h1.8v4.3h4.3v1.8H691v4.3H689.1z"/>
				</g>
				<g class="st1">
					<path class="st2" d="M713.8,573.7v-4.3h-4.3v-1.8h4.3v-4.3h1.8v4.3h4.3v1.8h-4.3v4.3H713.8z"/>
				</g>
				<g class="st1">
					<path class="st2" d="M738.5,573.7v-4.3h-4.3v-1.8h4.3v-4.3h1.8v4.3h4.3v1.8h-4.3v4.3H738.5z"/>
				</g>
			</g>
			<g>
				<g class="st1">
					<path class="st2" d="M442.3,598.4v-4.3H438v-1.8h4.3V588h1.8v4.3h4.3v1.8h-4.3v4.3H442.3z"/>
				</g>
				<g class="st1">
					<path class="st2" d="M466.9,598.4v-4.3h-4.3v-1.8h4.3V588h1.8v4.3h4.3v1.8h-4.3v4.3H466.9z"/>
				</g>
				<g class="st1">
					<path class="st2" d="M491.6,598.4v-4.3h-4.3v-1.8h4.3V588h1.8v4.3h4.3v1.8h-4.3v4.3H491.6z"/>
				</g>
				<g class="st1">
					<path class="st2" d="M516.3,598.4v-4.3H512v-1.8h4.3V588h1.8v4.3h4.3v1.8h-4.3v4.3H516.3z"/>
				</g>
				<g class="st1">
					<path class="st2" d="M541,598.4v-4.3h-4.3v-1.8h4.3V588h1.8v4.3h4.3v1.8h-4.3v4.3H541z"/>
				</g>
				<g class="st1">
					<path class="st2" d="M565.7,598.4v-4.3h-4.3v-1.8h4.3V588h1.8v4.3h4.3v1.8h-4.3v4.3H565.7z"/>
				</g>
				<g class="st1">
					<path class="st2" d="M590.4,598.4v-4.3h-4.3v-1.8h4.3V588h1.8v4.3h4.3v1.8h-4.3v4.3H590.4z"/>
				</g>
				<g class="st1">
					<path class="st2" d="M615.1,598.4v-4.3h-4.3v-1.8h4.3V588h1.8v4.3h4.3v1.8h-4.3v4.3H615.1z"/>
				</g>
				<g class="st1">
					<path class="st2" d="M664.4,598.4v-4.3h-4.3v-1.8h4.3V588h1.8v4.3h4.3v1.8h-4.3v4.3H664.4z"/>
				</g>
				<g class="st1">
					<path class="st2" d="M639.8,598.4v-4.3h-4.3v-1.8h4.3V588h1.8v4.3h4.3v1.8h-4.3v4.3H639.8z"/>
				</g>
				<g class="st1">
					<path class="st2" d="M615.1,598.4v-4.3h-4.3v-1.8h4.3V588h1.8v4.3h4.3v1.8h-4.3v4.3H615.1z"/>
				</g>
				<g class="st1">
					<path class="st2" d="M689.1,598.4v-4.3h-4.3v-1.8h4.3V588h1.8v4.3h4.3v1.8H691v4.3H689.1z"/>
				</g>
				<g class="st1">
					<path class="st2" d="M713.8,598.4v-4.3h-4.3v-1.8h4.3V588h1.8v4.3h4.3v1.8h-4.3v4.3H713.8z"/>
				</g>
				<g class="st1">
					<path class="st2" d="M738.5,598.4v-4.3h-4.3v-1.8h4.3V588h1.8v4.3h4.3v1.8h-4.3v4.3H738.5z"/>
				</g>
			</g>
			<g>
				<g class="st1">
					<path class="st2" d="M442.3,623.1v-4.3H438V617h4.3v-4.3h1.8v4.3h4.3v1.8h-4.3v4.3H442.3z"/>
				</g>
				<g class="st1">
					<path class="st2" d="M466.9,623.1v-4.3h-4.3V617h4.3v-4.3h1.8v4.3h4.3v1.8h-4.3v4.3H466.9z"/>
				</g>
				<g class="st1">
					<path class="st2" d="M491.6,623.1v-4.3h-4.3V617h4.3v-4.3h1.8v4.3h4.3v1.8h-4.3v4.3H491.6z"/>
				</g>
				<g class="st1">
					<path class="st2" d="M516.3,623.1v-4.3H512V617h4.3v-4.3h1.8v4.3h4.3v1.8h-4.3v4.3H516.3z"/>
				</g>
				<g class="st1">
					<path class="st2" d="M541,623.1v-4.3h-4.3V617h4.3v-4.3h1.8v4.3h4.3v1.8h-4.3v4.3H541z"/>
				</g>
				<g class="st1">
					<path class="st2" d="M565.7,623.1v-4.3h-4.3V617h4.3v-4.3h1.8v4.3h4.3v1.8h-4.3v4.3H565.7z"/>
				</g>
				<g class="st1">
					<path class="st2" d="M590.4,623.1v-4.3h-4.3V617h4.3v-4.3h1.8v4.3h4.3v1.8h-4.3v4.3H590.4z"/>
				</g>
				<g class="st1">
					<path class="st2" d="M615.1,623.1v-4.3h-4.3V617h4.3v-4.3h1.8v4.3h4.3v1.8h-4.3v4.3H615.1z"/>
				</g>
				<g class="st1">
					<path class="st2" d="M664.4,623.1v-4.3h-4.3V617h4.3v-4.3h1.8v4.3h4.3v1.8h-4.3v4.3H664.4z"/>
				</g>
				<g class="st1">
					<path class="st2" d="M639.8,623.1v-4.3h-4.3V617h4.3v-4.3h1.8v4.3h4.3v1.8h-4.3v4.3H639.8z"/>
				</g>
				<g class="st1">
					<path class="st2" d="M615.1,623.1v-4.3h-4.3V617h4.3v-4.3h1.8v4.3h4.3v1.8h-4.3v4.3H615.1z"/>
				</g>
				<g class="st1">
					<path class="st2" d="M689.1,623.1v-4.3h-4.3V617h4.3v-4.3h1.8v4.3h4.3v1.8H691v4.3H689.1z"/>
				</g>
				<g class="st1">
					<path class="st2" d="M713.8,623.1v-4.3h-4.3V617h4.3v-4.3h1.8v4.3h4.3v1.8h-4.3v4.3H713.8z"/>
				</g>
				<g class="st1">
					<path class="st2" d="M738.5,623.1v-4.3h-4.3V617h4.3v-4.3h1.8v4.3h4.3v1.8h-4.3v4.3H738.5z"/>
				</g>
			</g>
			<g>
				<g class="st1">
					<path class="st2" d="M442.3,647.8v-4.3H438v-1.8h4.3v-4.3h1.8v4.3h4.3v1.8h-4.3v4.3H442.3z"/>
				</g>
				<g class="st1">
					<path class="st2" d="M466.9,647.8v-4.3h-4.3v-1.8h4.3v-4.3h1.8v4.3h4.3v1.8h-4.3v4.3H466.9z"/>
				</g>
				<g class="st1">
					<path class="st2" d="M491.6,647.8v-4.3h-4.3v-1.8h4.3v-4.3h1.8v4.3h4.3v1.8h-4.3v4.3H491.6z"/>
				</g>
				<g class="st1">
					<path class="st2" d="M516.3,647.8v-4.3H512v-1.8h4.3v-4.3h1.8v4.3h4.3v1.8h-4.3v4.3H516.3z"/>
				</g>
				<g class="st1">
					<path class="st2" d="M541,647.8v-4.3h-4.3v-1.8h4.3v-4.3h1.8v4.3h4.3v1.8h-4.3v4.3H541z"/>
				</g>
				<g class="st1">
					<path class="st2" d="M565.7,647.8v-4.3h-4.3v-1.8h4.3v-4.3h1.8v4.3h4.3v1.8h-4.3v4.3H565.7z"/>
				</g>
				<g class="st1">
					<path class="st2" d="M590.4,647.8v-4.3h-4.3v-1.8h4.3v-4.3h1.8v4.3h4.3v1.8h-4.3v4.3H590.4z"/>
				</g>
				<g class="st1">
					<path class="st2" d="M615.1,647.8v-4.3h-4.3v-1.8h4.3v-4.3h1.8v4.3h4.3v1.8h-4.3v4.3H615.1z"/>
				</g>
				<g class="st1">
					<path class="st2" d="M664.4,647.8v-4.3h-4.3v-1.8h4.3v-4.3h1.8v4.3h4.3v1.8h-4.3v4.3H664.4z"/>
				</g>
				<g class="st1">
					<path class="st2" d="M639.8,647.8v-4.3h-4.3v-1.8h4.3v-4.3h1.8v4.3h4.3v1.8h-4.3v4.3H639.8z"/>
				</g>
				<g class="st1">
					<path class="st2" d="M615.1,647.8v-4.3h-4.3v-1.8h4.3v-4.3h1.8v4.3h4.3v1.8h-4.3v4.3H615.1z"/>
				</g>
				<g class="st1">
					<path class="st2" d="M689.1,647.8v-4.3h-4.3v-1.8h4.3v-4.3h1.8v4.3h4.3v1.8H691v4.3H689.1z"/>
				</g>
				<g class="st1">
					<path class="st2" d="M713.8,647.8v-4.3h-4.3v-1.8h4.3v-4.3h1.8v4.3h4.3v1.8h-4.3v4.3H713.8z"/>
				</g>
				<g class="st1">
					<path class="st2" d="M738.5,647.8v-4.3h-4.3v-1.8h4.3v-4.3h1.8v4.3h4.3v1.8h-4.3v4.3H738.5z"/>
				</g>
			</g>
		</g>
	</g>
</g>
<g>
	<g class="st0">
		<g>
			<g>
				<g class="st1">
					<path class="st2" d="M5.5,16.3V12H1.2v-1.8h4.3V5.9h1.8v4.3h4.3V12H7.3v4.3H5.5z"/>
				</g>
				<g class="st1">
					<path class="st2" d="M30.2,16.3V12h-4.3v-1.8h4.3V5.9H32v4.3h4.3V12H32v4.3H30.2z"/>
				</g>
				<g class="st1">
					<path class="st2" d="M54.9,16.3V12h-4.3v-1.8h4.3V5.9h1.8v4.3H61V12h-4.3v4.3H54.9z"/>
				</g>
				<g class="st1">
					<path class="st2" d="M79.6,16.3V12h-4.3v-1.8h4.3V5.9h1.8v4.3h4.3V12h-4.3v4.3H79.6z"/>
				</g>
				<g class="st1">
					<path class="st2" d="M104.3,16.3V12H100v-1.8h4.3V5.9h1.8v4.3h4.3V12h-4.3v4.3H104.3z"/>
				</g>
				<g class="st1">
					<path class="st2" d="M128.9,16.3V12h-4.3v-1.8h4.3V5.9h1.8v4.3h4.3V12h-4.3v4.3H128.9z"/>
				</g>
				<g class="st1">
					<path class="st2" d="M153.6,16.3V12h-4.3v-1.8h4.3V5.9h1.8v4.3h4.3V12h-4.3v4.3H153.6z"/>
				</g>
				<g class="st1">
					<path class="st2" d="M178.3,16.3V12H174v-1.8h4.3V5.9h1.8v4.3h4.3V12h-4.3v4.3H178.3z"/>
				</g>
				<g class="st1">
					<path class="st2" d="M227.7,16.3V12h-4.3v-1.8h4.3V5.9h1.8v4.3h4.3V12h-4.3v4.3H227.7z"/>
				</g>
				<g class="st1">
					<path class="st2" d="M203,16.3V12h-4.3v-1.8h4.3V5.9h1.8v4.3h4.3V12h-4.3v4.3H203z"/>
				</g>
				<g class="st1">
					<path class="st2" d="M178.3,16.3V12H174v-1.8h4.3V5.9h1.8v4.3h4.3V12h-4.3v4.3H178.3z"/>
				</g>
				<g class="st1">
					<path class="st2" d="M252.4,16.3V12h-4.3v-1.8h4.3V5.9h1.8v4.3h4.3V12h-4.3v4.3H252.4z"/>
				</g>
				<g class="st1">
					<path class="st2" d="M277.1,16.3V12h-4.3v-1.8h4.3V5.9h1.8v4.3h4.3V12h-4.3v4.3H277.1z"/>
				</g>
				<g class="st1">
					<path class="st2" d="M301.8,16.3V12h-4.3v-1.8h4.3V5.9h1.8v4.3h4.3V12h-4.3v4.3H301.8z"/>
				</g>
			</g>
			<g>
				<g class="st1">
					<path class="st2" d="M5.5,41v-4.3H1.2v-1.8h4.3v-4.3h1.8v4.3h4.3v1.8H7.3V41H5.5z"/>
				</g>
				<g class="st1">
					<path class="st2" d="M30.2,41v-4.3h-4.3v-1.8h4.3v-4.3H32v4.3h4.3v1.8H32V41H30.2z"/>
				</g>
				<g class="st1">
					<path class="st2" d="M54.9,41v-4.3h-4.3v-1.8h4.3v-4.3h1.8v4.3H61v1.8h-4.3V41H54.9z"/>
				</g>
				<g class="st1">
					<path class="st2" d="M79.6,41v-4.3h-4.3v-1.8h4.3v-4.3h1.8v4.3h4.3v1.8h-4.3V41H79.6z"/>
				</g>
				<g class="st1">
					<path class="st2" d="M104.3,41v-4.3H100v-1.8h4.3v-4.3h1.8v4.3h4.3v1.8h-4.3V41H104.3z"/>
				</g>
				<g class="st1">
					<path class="st2" d="M128.9,41v-4.3h-4.3v-1.8h4.3v-4.3h1.8v4.3h4.3v1.8h-4.3V41H128.9z"/>
				</g>
				<g class="st1">
					<path class="st2" d="M153.6,41v-4.3h-4.3v-1.8h4.3v-4.3h1.8v4.3h4.3v1.8h-4.3V41H153.6z"/>
				</g>
				<g class="st1">
					<path class="st2" d="M178.3,41v-4.3H174v-1.8h4.3v-4.3h1.8v4.3h4.3v1.8h-4.3V41H178.3z"/>
				</g>
				<g class="st1">
					<path class="st2" d="M227.7,41v-4.3h-4.3v-1.8h4.3v-4.3h1.8v4.3h4.3v1.8h-4.3V41H227.7z"/>
				</g>
				<g class="st1">
					<path class="st2" d="M203,41v-4.3h-4.3v-1.8h4.3v-4.3h1.8v4.3h4.3v1.8h-4.3V41H203z"/>
				</g>
				<g class="st1">
					<path class="st2" d="M178.3,41v-4.3H174v-1.8h4.3v-4.3h1.8v4.3h4.3v1.8h-4.3V41H178.3z"/>
				</g>
				<g class="st1">
					<path class="st2" d="M252.4,41v-4.3h-4.3v-1.8h4.3v-4.3h1.8v4.3h4.3v1.8h-4.3V41H252.4z"/>
				</g>
				<g class="st1">
					<path class="st2" d="M277.1,41v-4.3h-4.3v-1.8h4.3v-4.3h1.8v4.3h4.3v1.8h-4.3V41H277.1z"/>
				</g>
				<g class="st1">
					<path class="st2" d="M301.8,41v-4.3h-4.3v-1.8h4.3v-4.3h1.8v4.3h4.3v1.8h-4.3V41H301.8z"/>
				</g>
			</g>
			<g>
				<g class="st1">
					<path class="st2" d="M5.5,65.7v-4.3H1.2v-1.8h4.3v-4.3h1.8v4.3h4.3v1.8H7.3v4.3H5.5z"/>
				</g>
				<g class="st1">
					<path class="st2" d="M30.2,65.7v-4.3h-4.3v-1.8h4.3v-4.3H32v4.3h4.3v1.8H32v4.3H30.2z"/>
				</g>
				<g class="st1">
					<path class="st2" d="M54.9,65.7v-4.3h-4.3v-1.8h4.3v-4.3h1.8v4.3H61v1.8h-4.3v4.3H54.9z"/>
				</g>
				<g class="st1">
					<path class="st2" d="M79.6,65.7v-4.3h-4.3v-1.8h4.3v-4.3h1.8v4.3h4.3v1.8h-4.3v4.3H79.6z"/>
				</g>
				<g class="st1">
					<path class="st2" d="M104.3,65.7v-4.3H100v-1.8h4.3v-4.3h1.8v4.3h4.3v1.8h-4.3v4.3H104.3z"/>
				</g>
				<g class="st1">
					<path class="st2" d="M128.9,65.7v-4.3h-4.3v-1.8h4.3v-4.3h1.8v4.3h4.3v1.8h-4.3v4.3H128.9z"/>
				</g>
				<g class="st1">
					<path class="st2" d="M153.6,65.7v-4.3h-4.3v-1.8h4.3v-4.3h1.8v4.3h4.3v1.8h-4.3v4.3H153.6z"/>
				</g>
				<g class="st1">
					<path class="st2" d="M178.3,65.7v-4.3H174v-1.8h4.3v-4.3h1.8v4.3h4.3v1.8h-4.3v4.3H178.3z"/>
				</g>
				<g class="st1">
					<path class="st2" d="M227.7,65.7v-4.3h-4.3v-1.8h4.3v-4.3h1.8v4.3h4.3v1.8h-4.3v4.3H227.7z"/>
				</g>
				<g class="st1">
					<path class="st2" d="M203,65.7v-4.3h-4.3v-1.8h4.3v-4.3h1.8v4.3h4.3v1.8h-4.3v4.3H203z"/>
				</g>
				<g class="st1">
					<path class="st2" d="M178.3,65.7v-4.3H174v-1.8h4.3v-4.3h1.8v4.3h4.3v1.8h-4.3v4.3H178.3z"/>
				</g>
				<g class="st1">
					<path class="st2" d="M252.4,65.7v-4.3h-4.3v-1.8h4.3v-4.3h1.8v4.3h4.3v1.8h-4.3v4.3H252.4z"/>
				</g>
				<g class="st1">
					<path class="st2" d="M277.1,65.7v-4.3h-4.3v-1.8h4.3v-4.3h1.8v4.3h4.3v1.8h-4.3v4.3H277.1z"/>
				</g>
				<g class="st1">
					<path class="st2" d="M301.8,65.7v-4.3h-4.3v-1.8h4.3v-4.3h1.8v4.3h4.3v1.8h-4.3v4.3H301.8z"/>
				</g>
			</g>
			<g>
				<g class="st1">
					<path class="st2" d="M5.5,90.4v-4.3H1.2v-1.8h4.3V80h1.8v4.3h4.3v1.8H7.3v4.3H5.5z"/>
				</g>
				<g class="st1">
					<path class="st2" d="M30.2,90.4v-4.3h-4.3v-1.8h4.3V80H32v4.3h4.3v1.8H32v4.3H30.2z"/>
				</g>
				<g class="st1">
					<path class="st2" d="M54.9,90.4v-4.3h-4.3v-1.8h4.3V80h1.8v4.3H61v1.8h-4.3v4.3H54.9z"/>
				</g>
				<g class="st1">
					<path class="st2" d="M79.6,90.4v-4.3h-4.3v-1.8h4.3V80h1.8v4.3h4.3v1.8h-4.3v4.3H79.6z"/>
				</g>
				<g class="st1">
					<path class="st2" d="M104.3,90.4v-4.3H100v-1.8h4.3V80h1.8v4.3h4.3v1.8h-4.3v4.3H104.3z"/>
				</g>
				<g class="st1">
					<path class="st2" d="M128.9,90.4v-4.3h-4.3v-1.8h4.3V80h1.8v4.3h4.3v1.8h-4.3v4.3H128.9z"/>
				</g>
				<g class="st1">
					<path class="st2" d="M153.6,90.4v-4.3h-4.3v-1.8h4.3V80h1.8v4.3h4.3v1.8h-4.3v4.3H153.6z"/>
				</g>
				<g class="st1">
					<path class="st2" d="M178.3,90.4v-4.3H174v-1.8h4.3V80h1.8v4.3h4.3v1.8h-4.3v4.3H178.3z"/>
				</g>
				<g class="st1">
					<path class="st2" d="M227.7,90.4v-4.3h-4.3v-1.8h4.3V80h1.8v4.3h4.3v1.8h-4.3v4.3H227.7z"/>
				</g>
				<g class="st1">
					<path class="st2" d="M203,90.4v-4.3h-4.3v-1.8h4.3V80h1.8v4.3h4.3v1.8h-4.3v4.3H203z"/>
				</g>
				<g class="st1">
					<path class="st2" d="M178.3,90.4v-4.3H174v-1.8h4.3V80h1.8v4.3h4.3v1.8h-4.3v4.3H178.3z"/>
				</g>
				<g class="st1">
					<path class="st2" d="M252.4,90.4v-4.3h-4.3v-1.8h4.3V80h1.8v4.3h4.3v1.8h-4.3v4.3H252.4z"/>
				</g>
				<g class="st1">
					<path class="st2" d="M277.1,90.4v-4.3h-4.3v-1.8h4.3V80h1.8v4.3h4.3v1.8h-4.3v4.3H277.1z"/>
				</g>
				<g class="st1">
					<path class="st2" d="M301.8,90.4v-4.3h-4.3v-1.8h4.3V80h1.8v4.3h4.3v1.8h-4.3v4.3H301.8z"/>
				</g>
			</g>
			<g>
				<g class="st1">
					<path class="st2" d="M5.5,115.1v-4.3H1.2V109h4.3v-4.3h1.8v4.3h4.3v1.8H7.3v4.3H5.5z"/>
				</g>
				<g class="st1">
					<path class="st2" d="M30.2,115.1v-4.3h-4.3V109h4.3v-4.3H32v4.3h4.3v1.8H32v4.3H30.2z"/>
				</g>
				<g class="st1">
					<path class="st2" d="M54.9,115.1v-4.3h-4.3V109h4.3v-4.3h1.8v4.3H61v1.8h-4.3v4.3H54.9z"/>
				</g>
				<g class="st1">
					<path class="st2" d="M79.6,115.1v-4.3h-4.3V109h4.3v-4.3h1.8v4.3h4.3v1.8h-4.3v4.3H79.6z"/>
				</g>
				<g class="st1">
					<path class="st2" d="M104.3,115.1v-4.3H100V109h4.3v-4.3h1.8v4.3h4.3v1.8h-4.3v4.3H104.3z"/>
				</g>
				<g class="st1">
					<path class="st2" d="M128.9,115.1v-4.3h-4.3V109h4.3v-4.3h1.8v4.3h4.3v1.8h-4.3v4.3H128.9z"/>
				</g>
				<g class="st1">
					<path class="st2" d="M153.6,115.1v-4.3h-4.3V109h4.3v-4.3h1.8v4.3h4.3v1.8h-4.3v4.3H153.6z"/>
				</g>
				<g class="st1">
					<path class="st2" d="M178.3,115.1v-4.3H174V109h4.3v-4.3h1.8v4.3h4.3v1.8h-4.3v4.3H178.3z"/>
				</g>
				<g class="st1">
					<path class="st2" d="M227.7,115.1v-4.3h-4.3V109h4.3v-4.3h1.8v4.3h4.3v1.8h-4.3v4.3H227.7z"/>
				</g>
				<g class="st1">
					<path class="st2" d="M203,115.1v-4.3h-4.3V109h4.3v-4.3h1.8v4.3h4.3v1.8h-4.3v4.3H203z"/>
				</g>
				<g class="st1">
					<path class="st2" d="M178.3,115.1v-4.3H174V109h4.3v-4.3h1.8v4.3h4.3v1.8h-4.3v4.3H178.3z"/>
				</g>
				<g class="st1">
					<path class="st2" d="M252.4,115.1v-4.3h-4.3V109h4.3v-4.3h1.8v4.3h4.3v1.8h-4.3v4.3H252.4z"/>
				</g>
				<g class="st1">
					<path class="st2" d="M277.1,115.1v-4.3h-4.3V109h4.3v-4.3h1.8v4.3h4.3v1.8h-4.3v4.3H277.1z"/>
				</g>
				<g class="st1">
					<path class="st2" d="M301.8,115.1v-4.3h-4.3V109h4.3v-4.3h1.8v4.3h4.3v1.8h-4.3v4.3H301.8z"/>
				</g>
			</g>
			<g>
				<g class="st1">
					<path class="st2" d="M5.5,139.8v-4.3H1.2v-1.8h4.3v-4.3h1.8v4.3h4.3v1.8H7.3v4.3H5.5z"/>
				</g>
				<g class="st1">
					<path class="st2" d="M30.2,139.8v-4.3h-4.3v-1.8h4.3v-4.3H32v4.3h4.3v1.8H32v4.3H30.2z"/>
				</g>
				<g class="st1">
					<path class="st2" d="M54.9,139.8v-4.3h-4.3v-1.8h4.3v-4.3h1.8v4.3H61v1.8h-4.3v4.3H54.9z"/>
				</g>
				<g class="st1">
					<path class="st2" d="M79.6,139.8v-4.3h-4.3v-1.8h4.3v-4.3h1.8v4.3h4.3v1.8h-4.3v4.3H79.6z"/>
				</g>
				<g class="st1">
					<path class="st2" d="M104.3,139.8v-4.3H100v-1.8h4.3v-4.3h1.8v4.3h4.3v1.8h-4.3v4.3H104.3z"/>
				</g>
				<g class="st1">
					<path class="st2" d="M128.9,139.8v-4.3h-4.3v-1.8h4.3v-4.3h1.8v4.3h4.3v1.8h-4.3v4.3H128.9z"/>
				</g>
				<g class="st1">
					<path class="st2" d="M153.6,139.8v-4.3h-4.3v-1.8h4.3v-4.3h1.8v4.3h4.3v1.8h-4.3v4.3H153.6z"/>
				</g>
				<g class="st1">
					<path class="st2" d="M178.3,139.8v-4.3H174v-1.8h4.3v-4.3h1.8v4.3h4.3v1.8h-4.3v4.3H178.3z"/>
				</g>
				<g class="st1">
					<path class="st2" d="M227.7,139.8v-4.3h-4.3v-1.8h4.3v-4.3h1.8v4.3h4.3v1.8h-4.3v4.3H227.7z"/>
				</g>
				<g class="st1">
					<path class="st2" d="M203,139.8v-4.3h-4.3v-1.8h4.3v-4.3h1.8v4.3h4.3v1.8h-4.3v4.3H203z"/>
				</g>
				<g class="st1">
					<path class="st2" d="M178.3,139.8v-4.3H174v-1.8h4.3v-4.3h1.8v4.3h4.3v1.8h-4.3v4.3H178.3z"/>
				</g>
				<g class="st1">
					<path class="st2" d="M252.4,139.8v-4.3h-4.3v-1.8h4.3v-4.3h1.8v4.3h4.3v1.8h-4.3v4.3H252.4z"/>
				</g>
				<g class="st1">
					<path class="st2" d="M277.1,139.8v-4.3h-4.3v-1.8h4.3v-4.3h1.8v4.3h4.3v1.8h-4.3v4.3H277.1z"/>
				</g>
				<g class="st1">
					<path class="st2" d="M301.8,139.8v-4.3h-4.3v-1.8h4.3v-4.3h1.8v4.3h4.3v1.8h-4.3v4.3H301.8z"/>
				</g>
			</g>
		</g>
		<g>
			<g>
				<g class="st1">
					<path class="st2" d="M5.5,164.5v-4.3H1.2v-1.8h4.3V154h1.8v4.3h4.3v1.8H7.3v4.3H5.5z"/>
				</g>
				<g class="st1">
					<path class="st2" d="M30.2,164.5v-4.3h-4.3v-1.8h4.3V154H32v4.3h4.3v1.8H32v4.3H30.2z"/>
				</g>
				<g class="st1">
					<path class="st2" d="M54.9,164.5v-4.3h-4.3v-1.8h4.3V154h1.8v4.3H61v1.8h-4.3v4.3H54.9z"/>
				</g>
				<g class="st1">
					<path class="st2" d="M79.6,164.5v-4.3h-4.3v-1.8h4.3V154h1.8v4.3h4.3v1.8h-4.3v4.3H79.6z"/>
				</g>
				<g class="st1">
					<path class="st2" d="M104.3,164.5v-4.3H100v-1.8h4.3V154h1.8v4.3h4.3v1.8h-4.3v4.3H104.3z"/>
				</g>
				<g class="st1">
					<path class="st2" d="M128.9,164.5v-4.3h-4.3v-1.8h4.3V154h1.8v4.3h4.3v1.8h-4.3v4.3H128.9z"/>
				</g>
				<g class="st1">
					<path class="st2" d="M153.6,164.5v-4.3h-4.3v-1.8h4.3V154h1.8v4.3h4.3v1.8h-4.3v4.3H153.6z"/>
				</g>
				<g class="st1">
					<path class="st2" d="M178.3,164.5v-4.3H174v-1.8h4.3V154h1.8v4.3h4.3v1.8h-4.3v4.3H178.3z"/>
				</g>
				<g class="st1">
					<path class="st2" d="M227.7,164.5v-4.3h-4.3v-1.8h4.3V154h1.8v4.3h4.3v1.8h-4.3v4.3H227.7z"/>
				</g>
				<g class="st1">
					<path class="st2" d="M203,164.5v-4.3h-4.3v-1.8h4.3V154h1.8v4.3h4.3v1.8h-4.3v4.3H203z"/>
				</g>
				<g class="st1">
					<path class="st2" d="M178.3,164.5v-4.3H174v-1.8h4.3V154h1.8v4.3h4.3v1.8h-4.3v4.3H178.3z"/>
				</g>
				<g class="st1">
					<path class="st2" d="M252.4,164.5v-4.3h-4.3v-1.8h4.3V154h1.8v4.3h4.3v1.8h-4.3v4.3H252.4z"/>
				</g>
				<g class="st1">
					<path class="st2" d="M277.1,164.5v-4.3h-4.3v-1.8h4.3V154h1.8v4.3h4.3v1.8h-4.3v4.3H277.1z"/>
				</g>
				<g class="st1">
					<path class="st2" d="M301.8,164.5v-4.3h-4.3v-1.8h4.3V154h1.8v4.3h4.3v1.8h-4.3v4.3H301.8z"/>
				</g>
			</g>
			<g>
				<g class="st1">
					<path class="st2" d="M5.5,189.1v-4.3H1.2V183h4.3v-4.3h1.8v4.3h4.3v1.8H7.3v4.3H5.5z"/>
				</g>
				<g class="st1">
					<path class="st2" d="M30.2,189.1v-4.3h-4.3V183h4.3v-4.3H32v4.3h4.3v1.8H32v4.3H30.2z"/>
				</g>
				<g class="st1">
					<path class="st2" d="M54.9,189.1v-4.3h-4.3V183h4.3v-4.3h1.8v4.3H61v1.8h-4.3v4.3H54.9z"/>
				</g>
				<g class="st1">
					<path class="st2" d="M79.6,189.1v-4.3h-4.3V183h4.3v-4.3h1.8v4.3h4.3v1.8h-4.3v4.3H79.6z"/>
				</g>
				<g class="st1">
					<path class="st2" d="M104.3,189.1v-4.3H100V183h4.3v-4.3h1.8v4.3h4.3v1.8h-4.3v4.3H104.3z"/>
				</g>
				<g class="st1">
					<path class="st2" d="M128.9,189.1v-4.3h-4.3V183h4.3v-4.3h1.8v4.3h4.3v1.8h-4.3v4.3H128.9z"/>
				</g>
				<g class="st1">
					<path class="st2" d="M153.6,189.1v-4.3h-4.3V183h4.3v-4.3h1.8v4.3h4.3v1.8h-4.3v4.3H153.6z"/>
				</g>
				<g class="st1">
					<path class="st2" d="M178.3,189.1v-4.3H174V183h4.3v-4.3h1.8v4.3h4.3v1.8h-4.3v4.3H178.3z"/>
				</g>
				<g class="st1">
					<path class="st2" d="M227.7,189.1v-4.3h-4.3V183h4.3v-4.3h1.8v4.3h4.3v1.8h-4.3v4.3H227.7z"/>
				</g>
				<g class="st1">
					<path class="st2" d="M203,189.1v-4.3h-4.3V183h4.3v-4.3h1.8v4.3h4.3v1.8h-4.3v4.3H203z"/>
				</g>
				<g class="st1">
					<path class="st2" d="M178.3,189.1v-4.3H174V183h4.3v-4.3h1.8v4.3h4.3v1.8h-4.3v4.3H178.3z"/>
				</g>
				<g class="st1">
					<path class="st2" d="M252.4,189.1v-4.3h-4.3V183h4.3v-4.3h1.8v4.3h4.3v1.8h-4.3v4.3H252.4z"/>
				</g>
				<g class="st1">
					<path class="st2" d="M277.1,189.1v-4.3h-4.3V183h4.3v-4.3h1.8v4.3h4.3v1.8h-4.3v4.3H277.1z"/>
				</g>
				<g class="st1">
					<path class="st2" d="M301.8,189.1v-4.3h-4.3V183h4.3v-4.3h1.8v4.3h4.3v1.8h-4.3v4.3H301.8z"/>
				</g>
			</g>
			<g>
				<g class="st1">
					<path class="st2" d="M5.5,213.8v-4.3H1.2v-1.8h4.3v-4.3h1.8v4.3h4.3v1.8H7.3v4.3H5.5z"/>
				</g>
				<g class="st1">
					<path class="st2" d="M30.2,213.8v-4.3h-4.3v-1.8h4.3v-4.3H32v4.3h4.3v1.8H32v4.3H30.2z"/>
				</g>
				<g class="st1">
					<path class="st2" d="M54.9,213.8v-4.3h-4.3v-1.8h4.3v-4.3h1.8v4.3H61v1.8h-4.3v4.3H54.9z"/>
				</g>
				<g class="st1">
					<path class="st2" d="M79.6,213.8v-4.3h-4.3v-1.8h4.3v-4.3h1.8v4.3h4.3v1.8h-4.3v4.3H79.6z"/>
				</g>
				<g class="st1">
					<path class="st2" d="M104.3,213.8v-4.3H100v-1.8h4.3v-4.3h1.8v4.3h4.3v1.8h-4.3v4.3H104.3z"/>
				</g>
				<g class="st1">
					<path class="st2" d="M128.9,213.8v-4.3h-4.3v-1.8h4.3v-4.3h1.8v4.3h4.3v1.8h-4.3v4.3H128.9z"/>
				</g>
				<g class="st1">
					<path class="st2" d="M153.6,213.8v-4.3h-4.3v-1.8h4.3v-4.3h1.8v4.3h4.3v1.8h-4.3v4.3H153.6z"/>
				</g>
				<g class="st1">
					<path class="st2" d="M178.3,213.8v-4.3H174v-1.8h4.3v-4.3h1.8v4.3h4.3v1.8h-4.3v4.3H178.3z"/>
				</g>
				<g class="st1">
					<path class="st2" d="M227.7,213.8v-4.3h-4.3v-1.8h4.3v-4.3h1.8v4.3h4.3v1.8h-4.3v4.3H227.7z"/>
				</g>
				<g class="st1">
					<path class="st2" d="M203,213.8v-4.3h-4.3v-1.8h4.3v-4.3h1.8v4.3h4.3v1.8h-4.3v4.3H203z"/>
				</g>
				<g class="st1">
					<path class="st2" d="M178.3,213.8v-4.3H174v-1.8h4.3v-4.3h1.8v4.3h4.3v1.8h-4.3v4.3H178.3z"/>
				</g>
				<g class="st1">
					<path class="st2" d="M252.4,213.8v-4.3h-4.3v-1.8h4.3v-4.3h1.8v4.3h4.3v1.8h-4.3v4.3H252.4z"/>
				</g>
				<g class="st1">
					<path class="st2" d="M277.1,213.8v-4.3h-4.3v-1.8h4.3v-4.3h1.8v4.3h4.3v1.8h-4.3v4.3H277.1z"/>
				</g>
				<g class="st1">
					<path class="st2" d="M301.8,213.8v-4.3h-4.3v-1.8h4.3v-4.3h1.8v4.3h4.3v1.8h-4.3v4.3H301.8z"/>
				</g>
			</g>
			<g>
				<g class="st1">
					<path class="st2" d="M5.5,238.5v-4.3H1.2v-1.8h4.3v-4.3h1.8v4.3h4.3v1.8H7.3v4.3H5.5z"/>
				</g>
				<g class="st1">
					<path class="st2" d="M30.2,238.5v-4.3h-4.3v-1.8h4.3v-4.3H32v4.3h4.3v1.8H32v4.3H30.2z"/>
				</g>
				<g class="st1">
					<path class="st2" d="M54.9,238.5v-4.3h-4.3v-1.8h4.3v-4.3h1.8v4.3H61v1.8h-4.3v4.3H54.9z"/>
				</g>
				<g class="st1">
					<path class="st2" d="M79.6,238.5v-4.3h-4.3v-1.8h4.3v-4.3h1.8v4.3h4.3v1.8h-4.3v4.3H79.6z"/>
				</g>
				<g class="st1">
					<path class="st2" d="M104.3,238.5v-4.3H100v-1.8h4.3v-4.3h1.8v4.3h4.3v1.8h-4.3v4.3H104.3z"/>
				</g>
				<g class="st1">
					<path class="st2" d="M128.9,238.5v-4.3h-4.3v-1.8h4.3v-4.3h1.8v4.3h4.3v1.8h-4.3v4.3H128.9z"/>
				</g>
				<g class="st1">
					<path class="st2" d="M153.6,238.5v-4.3h-4.3v-1.8h4.3v-4.3h1.8v4.3h4.3v1.8h-4.3v4.3H153.6z"/>
				</g>
				<g class="st1">
					<path class="st2" d="M178.3,238.5v-4.3H174v-1.8h4.3v-4.3h1.8v4.3h4.3v1.8h-4.3v4.3H178.3z"/>
				</g>
				<g class="st1">
					<path class="st2" d="M227.7,238.5v-4.3h-4.3v-1.8h4.3v-4.3h1.8v4.3h4.3v1.8h-4.3v4.3H227.7z"/>
				</g>
				<g class="st1">
					<path class="st2" d="M203,238.5v-4.3h-4.3v-1.8h4.3v-4.3h1.8v4.3h4.3v1.8h-4.3v4.3H203z"/>
				</g>
				<g class="st1">
					<path class="st2" d="M178.3,238.5v-4.3H174v-1.8h4.3v-4.3h1.8v4.3h4.3v1.8h-4.3v4.3H178.3z"/>
				</g>
				<g class="st1">
					<path class="st2" d="M252.4,238.5v-4.3h-4.3v-1.8h4.3v-4.3h1.8v4.3h4.3v1.8h-4.3v4.3H252.4z"/>
				</g>
				<g class="st1">
					<path class="st2" d="M277.1,238.5v-4.3h-4.3v-1.8h4.3v-4.3h1.8v4.3h4.3v1.8h-4.3v4.3H277.1z"/>
				</g>
				<g class="st1">
					<path class="st2" d="M301.8,238.5v-4.3h-4.3v-1.8h4.3v-4.3h1.8v4.3h4.3v1.8h-4.3v4.3H301.8z"/>
				</g>
			</g>
			<g>
				<g class="st1">
					<path class="st2" d="M5.5,263.2v-4.3H1.2v-1.8h4.3v-4.3h1.8v4.3h4.3v1.8H7.3v4.3H5.5z"/>
				</g>
				<g class="st1">
					<path class="st2" d="M30.2,263.2v-4.3h-4.3v-1.8h4.3v-4.3H32v4.3h4.3v1.8H32v4.3H30.2z"/>
				</g>
				<g class="st1">
					<path class="st2" d="M54.9,263.2v-4.3h-4.3v-1.8h4.3v-4.3h1.8v4.3H61v1.8h-4.3v4.3H54.9z"/>
				</g>
				<g class="st1">
					<path class="st2" d="M79.6,263.2v-4.3h-4.3v-1.8h4.3v-4.3h1.8v4.3h4.3v1.8h-4.3v4.3H79.6z"/>
				</g>
				<g class="st1">
					<path class="st2" d="M104.3,263.2v-4.3H100v-1.8h4.3v-4.3h1.8v4.3h4.3v1.8h-4.3v4.3H104.3z"/>
				</g>
				<g class="st1">
					<path class="st2" d="M128.9,263.2v-4.3h-4.3v-1.8h4.3v-4.3h1.8v4.3h4.3v1.8h-4.3v4.3H128.9z"/>
				</g>
				<g class="st1">
					<path class="st2" d="M153.6,263.2v-4.3h-4.3v-1.8h4.3v-4.3h1.8v4.3h4.3v1.8h-4.3v4.3H153.6z"/>
				</g>
				<g class="st1">
					<path class="st2" d="M178.3,263.2v-4.3H174v-1.8h4.3v-4.3h1.8v4.3h4.3v1.8h-4.3v4.3H178.3z"/>
				</g>
				<g class="st1">
					<path class="st2" d="M227.7,263.2v-4.3h-4.3v-1.8h4.3v-4.3h1.8v4.3h4.3v1.8h-4.3v4.3H227.7z"/>
				</g>
				<g class="st1">
					<path class="st2" d="M203,263.2v-4.3h-4.3v-1.8h4.3v-4.3h1.8v4.3h4.3v1.8h-4.3v4.3H203z"/>
				</g>
				<g class="st1">
					<path class="st2" d="M178.3,263.2v-4.3H174v-1.8h4.3v-4.3h1.8v4.3h4.3v1.8h-4.3v4.3H178.3z"/>
				</g>
				<g class="st1">
					<path class="st2" d="M252.4,263.2v-4.3h-4.3v-1.8h4.3v-4.3h1.8v4.3h4.3v1.8h-4.3v4.3H252.4z"/>
				</g>
				<g class="st1">
					<path class="st2" d="M277.1,263.2v-4.3h-4.3v-1.8h4.3v-4.3h1.8v4.3h4.3v1.8h-4.3v4.3H277.1z"/>
				</g>
				<g class="st1">
					<path class="st2" d="M301.8,263.2v-4.3h-4.3v-1.8h4.3v-4.3h1.8v4.3h4.3v1.8h-4.3v4.3H301.8z"/>
				</g>
			</g>
			<g>
				<g class="st1">
					<path class="st2" d="M5.5,287.9v-4.3H1.2v-1.8h4.3v-4.3h1.8v4.3h4.3v1.8H7.3v4.3H5.5z"/>
				</g>
				<g class="st1">
					<path class="st2" d="M30.2,287.9v-4.3h-4.3v-1.8h4.3v-4.3H32v4.3h4.3v1.8H32v4.3H30.2z"/>
				</g>
				<g class="st1">
					<path class="st2" d="M54.9,287.9v-4.3h-4.3v-1.8h4.3v-4.3h1.8v4.3H61v1.8h-4.3v4.3H54.9z"/>
				</g>
				<g class="st1">
					<path class="st2" d="M79.6,287.9v-4.3h-4.3v-1.8h4.3v-4.3h1.8v4.3h4.3v1.8h-4.3v4.3H79.6z"/>
				</g>
				<g class="st1">
					<path class="st2" d="M104.3,287.9v-4.3H100v-1.8h4.3v-4.3h1.8v4.3h4.3v1.8h-4.3v4.3H104.3z"/>
				</g>
				<g class="st1">
					<path class="st2" d="M128.9,287.9v-4.3h-4.3v-1.8h4.3v-4.3h1.8v4.3h4.3v1.8h-4.3v4.3H128.9z"/>
				</g>
				<g class="st1">
					<path class="st2" d="M153.6,287.9v-4.3h-4.3v-1.8h4.3v-4.3h1.8v4.3h4.3v1.8h-4.3v4.3H153.6z"/>
				</g>
				<g class="st1">
					<path class="st2" d="M178.3,287.9v-4.3H174v-1.8h4.3v-4.3h1.8v4.3h4.3v1.8h-4.3v4.3H178.3z"/>
				</g>
				<g class="st1">
					<path class="st2" d="M227.7,287.9v-4.3h-4.3v-1.8h4.3v-4.3h1.8v4.3h4.3v1.8h-4.3v4.3H227.7z"/>
				</g>
				<g class="st1">
					<path class="st2" d="M203,287.9v-4.3h-4.3v-1.8h4.3v-4.3h1.8v4.3h4.3v1.8h-4.3v4.3H203z"/>
				</g>
				<g class="st1">
					<path class="st2" d="M178.3,287.9v-4.3H174v-1.8h4.3v-4.3h1.8v4.3h4.3v1.8h-4.3v4.3H178.3z"/>
				</g>
				<g class="st1">
					<path class="st2" d="M252.4,287.9v-4.3h-4.3v-1.8h4.3v-4.3h1.8v4.3h4.3v1.8h-4.3v4.3H252.4z"/>
				</g>
				<g class="st1">
					<path class="st2" d="M277.1,287.9v-4.3h-4.3v-1.8h4.3v-4.3h1.8v4.3h4.3v1.8h-4.3v4.3H277.1z"/>
				</g>
				<g class="st1">
					<path class="st2" d="M301.8,287.9v-4.3h-4.3v-1.8h4.3v-4.3h1.8v4.3h4.3v1.8h-4.3v4.3H301.8z"/>
				</g>
			</g>
		</g>
	</g>
</g>
<circle class="st3" cx="67.3" cy="591.5" r="56.5"/>
<polygon class="st4" points="690.2,0 634.2,96.9 746.1,96.9 "/>
<g>
</g>
<g>
</g>
<g>
</g>
<g>
</g>
<g>
</g>
</svg>
