<?xml version="1.0" encoding="utf-8"?>
<!-- Generator: Adobe Illustrator 22.1.0, SVG Export Plug-In . SVG Version: 6.00 Build 0)  -->
<svg version="1.1" id="Layer_1" xmlns="http://www.w3.org/2000/svg" xmlns:xlink="http://www.w3.org/1999/xlink" x="0px" y="0px"
	 viewBox="0 0 800 182" style="enable-background:new 0 0 800 182;" xml:space="preserve">
<style type="text/css">
	.st0{enable-background:new    ;}
	.st1{fill:#172B4D;}
	.st2{fill:#6A78D1;}
	.st3{fill:#49C39E;}
	.st4{fill:#F2545B;}
	.st5{fill:#F5C26B;}
</style>
<g>
	<g>
		<g>
			<g class="st0">
				<path class="st1" d="M264.3,86.1c2.9,1.6,5.5,3.7,7.8,6.3c2,2.2,3.8,5,5.4,8.3c1.6,3.3,2.4,7.5,2.4,12.3c0,4.2-0.9,8.2-2.6,12
					c-1.7,3.8-4.2,7.1-7.3,10c-3.1,2.9-6.8,5.2-11.1,6.9c-4.2,1.7-8.8,2.6-13.8,2.6h-44.4V34.7h43.6c4.3,0,8.4,0.8,12.2,2.4
					c3.8,1.6,7.2,3.8,10,6.6c2.8,2.8,5.1,6,6.7,9.7c1.6,3.7,2.4,7.6,2.4,11.8c0,3.5-0.6,6.5-1.8,9.1c-1.2,2.6-2.5,4.8-3.9,6.5
					C268.3,82.9,266.4,84.7,264.3,86.1z M217.3,80h27.1c4.4,0,8.1-1.5,11.1-4.4c3-2.9,4.5-6.4,4.5-10.4c0-4-1.5-7.4-4.6-10.4
					c-3-2.9-6.7-4.4-11.1-4.4h-27.1V80z M245.2,128.8c2.6,0,5-0.5,7.2-1.4c2.3-0.9,4.2-2.2,5.8-3.7c1.6-1.6,2.9-3.4,3.8-5.5
					c0.9-2.1,1.4-4.4,1.4-6.8c0-2.4-0.5-4.7-1.4-6.8c-0.9-2.1-2.2-3.9-3.8-5.5c-1.6-1.6-3.6-2.8-5.8-3.7c-2.3-0.9-4.7-1.4-7.2-1.4
					h-27.9v34.9H245.2z"/>
				<path class="st1" d="M324.2,145.3c-4.4,0-8.5-0.8-12.3-2.5c-3.8-1.7-7.1-4-10-7c-2.9-3-5.1-6.6-6.7-10.7
					c-1.6-4.2-2.4-8.8-2.4-13.7V66h15.7v45.4c0,2.7,0.5,5.2,1.5,7.5c1,2.3,2.3,4.4,4,6.1c1.7,1.7,3.6,3.1,5.8,4.1
					c2.2,1,4.5,1.5,7,1.5c2.6,0,5-0.5,7.3-1.5c2.3-1,4.4-2.4,6.1-4.1c1.8-1.7,3.2-3.8,4.2-6.1c1-2.3,1.6-4.8,1.6-7.5V66h15.7v78.5
					h-11.3l-3.5-7.8c-1.5,1.6-3.3,3.1-5.4,4.3c-1.9,1.1-4.2,2.1-7,3C331.5,144.9,328.1,145.3,324.2,145.3z"/>
				<path class="st1" d="M411.7,145.3c-5.2,0-10.1-1-14.6-2.9s-8.5-4.7-12-8.3c-3.4-3.5-6.1-7.8-8-12.6c-1.9-4.9-2.9-10.3-2.9-16.3
					c0-5.9,0.9-11.3,2.9-16.2c1.9-4.9,4.6-9.1,8-12.6c3.4-3.5,7.4-6.3,12-8.3c4.5-2,9.4-3,14.6-3c3.7,0,6.9,0.5,9.6,1.4
					c2.7,0.9,4.9,1.9,6.8,2.9c2.1,1.3,3.9,2.8,5.4,4.4V34.7h15.7v109.8h-11.3l-3.5-7.8c-1.5,1.6-3.3,3.1-5.4,4.3
					c-1.9,1.1-4.2,2.1-7.1,3S415.7,145.3,411.7,145.3z M412.6,80c-3,0-5.9,0.6-8.6,1.8c-2.7,1.2-5.1,3-7.2,5.2c-2.1,2.3-3.8,5-5,8
					c-1.2,3.1-1.8,6.5-1.8,10.2c0,3.7,0.6,7.1,1.8,10.2c1.2,3.1,2.9,5.7,5,8c2.1,2.3,4.5,4,7.2,5.2c2.7,1.2,5.6,1.8,8.6,1.8
					s5.9-0.6,8.6-1.8c2.8-1.2,5.2-3,7.2-5.2c2.1-2.3,3.7-4.9,4.9-8c1.2-3.1,1.8-6.5,1.8-10.2c0-3.7-0.6-7.1-1.8-10.2
					c-1.2-3.1-2.9-5.7-4.9-8c-2.1-2.3-4.5-4-7.2-5.2C418.5,80.6,415.6,80,412.6,80z"/>
				<path class="st1" d="M474.9,53.9c-2.7,0-4.9-0.9-6.8-2.8c-1.9-1.8-2.8-4.1-2.8-6.9c0-2.7,0.9-4.9,2.8-6.8
					c1.9-1.8,4.1-2.8,6.8-2.8c2.7,0,4.9,0.9,6.8,2.8c1.9,1.8,2.8,4.1,2.8,6.8c0,2.7-0.9,4.9-2.8,6.8
					C479.9,52.9,477.6,53.9,474.9,53.9z M482.8,144.5h-15.7V66h15.7V144.5z"/>
				<path class="st1" d="M538.2,145.3c-4,0-7.4-0.4-10.2-1.3c-2.8-0.9-5.2-1.9-7-3.1c-2.1-1.3-3.9-2.8-5.4-4.3l-3.5,7.8h-11.3V34.7
					h15.7v39.2c1.5-1.6,3.3-3.1,5.4-4.4c1.9-1,4.1-2,6.8-2.9c2.7-0.9,5.8-1.4,9.5-1.4c5.2,0,10.1,1,14.6,3c4.5,2,8.5,4.8,12,8.3
					c3.4,3.5,6.1,7.8,8,12.6c1.9,4.9,2.9,10.3,2.9,16.2c0,5.9-1,11.3-2.9,16.2c-1.9,4.9-4.6,9.1-8,12.7c-3.4,3.5-7.4,6.3-12,8.3
					C548.3,144.4,543.4,145.3,538.2,145.3z M537.3,80c-3,0-5.9,0.6-8.6,1.8c-2.7,1.2-5.1,3-7.2,5.2c-2.1,2.3-3.8,5-5,8
					c-1.2,3.1-1.8,6.5-1.8,10.2c0,3.7,0.6,7.1,1.8,10.2c1.2,3.1,2.9,5.7,5,8c2.1,2.3,4.5,4,7.2,5.2c2.7,1.2,5.6,1.8,8.6,1.8
					c3,0,5.9-0.6,8.6-1.8c2.8-1.2,5.2-3,7.2-5.2c2.1-2.3,3.7-4.9,4.9-8c1.2-3.1,1.8-6.5,1.8-10.2c0-3.7-0.6-7.1-1.8-10.2
					c-1.2-3.1-2.9-5.7-4.9-8c-2.1-2.3-4.5-4-7.2-5.2C543.2,80.6,540.3,80,537.3,80z"/>
				<path class="st1" d="M618.8,65.2c4.5,0,8.7,0.7,12.5,2.2c3.8,1.4,7,3.4,9.7,5.9c2.7,2.5,4.7,5.4,6.2,8.8c1.5,3.4,2.2,7,2.2,11
					v51.4h-11.3l-3.5-7.8c-1.5,1.6-3.3,3.1-5.4,4.3c-1.9,1.1-4.2,2.1-7.1,3c-2.8,0.9-6.2,1.3-10.2,1.3c-8.7,0-15.4-2.2-20-6.5
					c-4.6-4.3-6.9-10-6.9-17c0-4,0.8-7.6,2.3-10.8c1.5-3.2,4.1-5.9,7.7-8.2c3.7-2.2,8.6-4,14.9-5.3c6.3-1.3,14.2-1.9,23.9-1.9v-2.6
					c0-4-1.2-7.1-3.7-9.5c-2.5-2.4-6.2-3.6-11.1-3.6c-5.2,0-9,0.9-11.4,2.8c-2.4,1.9-3.8,4.1-4.3,6.8h-15.7c0.5-7,3.4-12.8,8.8-17.4
					C601.7,67.5,609.2,65.2,618.8,65.2z M612.8,131.4c6.6,0,11.8-1.7,15.4-5.1s5.4-7.5,5.4-12.4v-4.3c-7,0-12.6,0.3-16.9,1
					c-4.3,0.7-7.6,1.5-10.1,2.6c-2.4,1.1-4.1,2.5-4.9,4.1c-0.8,1.6-1.2,3.4-1.2,5.4c0,2.2,1,4.2,3.1,6
					C605.8,130.5,608.8,131.4,612.8,131.4z"/>
				<path class="st1" d="M676.9,119.2c0.5,3.5,1.8,6.2,4,8.3c2.2,2,5.5,3.1,10,3.1c4.9,0,8.4-0.9,10.6-2.8c2.2-1.8,3.3-4.1,3.3-6.8
					c0-2.3-1-4.1-3.1-5.3c-2.1-1.2-4.7-2.2-7.8-3.1c-3.1-0.8-6.4-1.7-10-2.6c-3.6-0.9-6.9-2.1-10-3.7s-5.6-3.8-7.7-6.5
					c-2.1-2.7-3.1-6.4-3.1-11.1c0-3.2,0.6-6.3,1.9-9.1c1.3-2.9,3.1-5.4,5.4-7.5c2.3-2.2,5.1-3.8,8.5-5.1c3.3-1.2,7.1-1.8,11.3-1.8
					c9.2,0,16.2,2.2,20.9,6.6c4.7,4.4,7.4,10.4,7.9,17.8H703c-0.5-2.7-1.8-4.9-3.9-6.8c-2.2-1.9-5.2-2.8-9.1-2.8c-4,0-7,0.9-9.1,2.7
					c-2.1,1.8-3.1,3.8-3.1,6c0,2.3,1,4.1,3.1,5.3c2.1,1.2,4.7,2.2,7.8,3c3.1,0.8,6.4,1.6,10,2.5c3.6,0.9,6.9,2.1,10,3.7
					c3.1,1.6,5.7,3.8,7.8,6.6c2.1,2.8,3.1,6.5,3.1,11.1c0,7-2.5,12.8-7.5,17.4c-5,4.6-12.1,6.9-21.3,6.9c-9.6,0-16.9-2.3-21.7-6.8
					c-4.8-4.5-7.5-11-7.9-19.3H676.9z"/>
				<path class="st1" d="M800.3,121.9c-1.3,3.2-3,6.3-4.9,9.1c-2,2.8-4.4,5.3-7.1,7.5c-2.8,2.2-6,3.8-9.7,5.1
					c-3.7,1.2-7.8,1.8-12.3,1.8c-5.2,0-10.1-1-14.6-2.9c-4.5-2-8.5-4.7-11.9-8.3c-3.4-3.5-6.1-7.8-8-12.6
					c-1.9-4.9-2.9-10.3-2.9-16.3c0-5.9,1-11.3,2.9-16.2c1.9-4.9,4.5-9.1,7.8-12.6c3.3-3.5,7.2-6.3,11.7-8.3c4.5-2,9.2-3,14.2-3
					c5,0,9.7,1,14.2,3c4.5,2,8.4,4.8,11.7,8.3c3.3,3.5,5.9,7.8,7.8,12.6c1.9,4.9,2.9,10.3,2.9,16.2c0,0.9-0.1,1.8-0.2,2.7
					c-0.1,0.9-0.2,1.6-0.3,2.3c-0.1,0.8-0.2,1.5-0.3,2h-55.8c0.2,2.4,0.9,4.8,2.1,7s2.7,4.2,4.5,5.8c1.8,1.7,3.9,3,6.4,4
					c2.5,1,5.1,1.5,7.9,1.5c4.8,0,8.6-1,11.4-3.1c2.8-2,4.8-3.9,6.1-5.6H800.3z M765.4,80c-5.2,0-9.6,1.8-13.2,5.3
					c-3.6,3.5-5.9,8.2-6.9,13.9h41.9c-0.9-5.7-3.2-10.3-6.9-13.9C776.5,81.8,771.6,80,765.4,80z"/>
			</g>
		</g>
	</g>
	<g>
		<g>
			<path class="st1" d="M86.9,5.1l63.1,37c4.3,2.5,7,7.2,7,12.2v73.9c0,5-2.7,9.7-7,12.2l-63.1,36.9c-4.3,2.5-9.6,2.5-13.9,0
				l-63-36.9c-4.3-2.5-7-7.2-7-12.2V54.3c0-5,2.7-9.7,7-12.2l63-37C77.3,2.6,82.6,2.6,86.9,5.1z"/>
		</g>
		<g>
			<path class="st2" d="M121.1,125.4l-38.5,20.2c-1.7,0.9-3.7,0.9-5.4,0l-38.5-20.2c-3.8-2-3.8-7.2,0-9.2L77.3,96
				c1.7-0.9,3.7-0.9,5.4,0l38.5,20.2C124.9,118.2,124.9,123.4,121.1,125.4z"/>
			<path class="st3" d="M121.1,105.6l-38.5,20.2c-1.7,0.9-3.7,0.9-5.4,0l-38.5-20.2c-3.8-2-3.8-7.2,0-9.2l38.5-20.2
				c1.7-0.9,3.7-0.9,5.4,0l38.5,20.2C124.9,98.5,124.9,103.6,121.1,105.6z"/>
			<path class="st4" d="M121.1,85.9l-38.5,20.2c-1.7,0.9-3.7,0.9-5.4,0L38.8,85.9c-3.8-2-3.8-7.2,0-9.2l38.5-20.2
				c1.7-0.9,3.7-0.9,5.4,0l38.5,20.2C124.9,78.8,124.9,83.9,121.1,85.9z"/>
			<path class="st5" d="M121.1,66.2L82.7,86.4c-1.7,0.9-3.7,0.9-5.4,0L38.8,66.2c-3.8-2-3.8-7.2,0-9.2l38.5-20.2
				c1.7-0.9,3.7-0.9,5.4,0L121.2,57C124.9,59.1,124.9,64.2,121.1,66.2z"/>
		</g>
	</g>
</g>
</svg>
