<svg xmlns="http://www.w3.org/2000/svg" enable-background="new 0 0 24 24" viewBox="0 0 24 24"><path d="M19.367,3.11l-6.233,15.085l-1.719-3.87l3.176-8.866c0.239-0.685,1.075-1.004,2.484-1.004l0.502-1.347h-7.403L9.696,4.457c1.051,0,1.481,0.319,1.313,1.004L9.433,9.968L6.328,3.11C5.755,2.375,6.042,2.008,7.164,2.008V0.417H0v1.592c1.337,0,2.173,0.368,2.531,1.102l5.254,11.461l-2.46,6.734c-0.048,0.906-1.433,1.347-4.107,1.347L0.716,24h20.442L24,17.804h-1.481c-1.385,3.208-2.985,4.849-4.776,4.849H8.358l1.385-3.796l1.194,2.449h2.675L21.158,3.11c0.358-1.102,1.29-1.69,2.746-1.69V0h-6.161v1.421C19.606,1.421,20.131,2.008,19.367,3.11L19.367,3.11z"/></svg>