<?xml version="1.0" encoding="utf-8"?>
<!-- Generator: Adobe Illustrator 25.4.1, SVG Export Plug-In . SVG Version: 6.00 Build 0)  -->
<svg version="1.1" id="Layer_1" xmlns="http://www.w3.org/2000/svg" xmlns:xlink="http://www.w3.org/1999/xlink" x="0px" y="0px"
	 viewBox="0 0 486 346" style="enable-background:new 0 0 486 346;" xml:space="preserve">
<style type="text/css">
	.st0{fill:#099CEC;}
</style>
<g id="_x39_7-docker">
	<g>
		<g>
			<rect x="217" y="63.2" class="st0" width="47.5" height="43.2"/>
			<rect x="217" y="115.1" class="st0" width="47.5" height="42.7"/>
			<rect x="160.9" y="63.2" class="st0" width="47.5" height="43.2"/>
			<rect x="273.2" y="115" class="st0" width="47.5" height="42.7"/>
			<rect x="217" y="11" class="st0" width="47.5" height="43.6"/>
			<rect x="104.7" y="63.2" class="st0" width="47.5" height="43.2"/>
			<rect x="160.9" y="115" class="st0" width="47.5" height="42.7"/>
			<path class="st0" d="M463.4,135.1c-10.4-7-34.2-9.5-52.5-6c-2.4-17.2-12-32.3-29.5-45.8l-10.1-6.7l-6.7,10.1
				c-13.2,20-16.8,52.9-2.7,74.6c-6.3,3.4-18.5,8-34.8,7.7H14.8c-6.3,36.5,4.2,83.9,31.6,116.5C73,317,113,333,165.3,333
				c113.1,0,196.9-52.1,236-146.8c15.4,0.3,48.6,0.1,65.6-32.5c1.1-1.8,4.7-9.5,6.1-12.3L463.4,135.1z"/>
			<polygon class="st0" points="96.2,115 96.1,115 48.7,115 48.7,157.7 96.2,157.7 			"/>
			<rect x="104.7" y="115" class="st0" width="47.5" height="42.7"/>
		</g>
	</g>
</g>
<g id="Layer_1_00000168089042259750401110000001895401958320306588_">
</g>
</svg>
