<svg width="40" height="40" viewBox="0 0 40 40" fill="none" xmlns="http://www.w3.org/2000/svg" alt="Github"><g clip-path="url(#clip0)"><path fill-rule="evenodd" clip-rule="evenodd" d="M20 0C8.95705 4.14414e-08 -7.69149e-08 9.18239 0 20.5031C6.15313e-08 29.5597 5.76688 37.2327 13.6196 40C14.6013 40.1258 14.9694 39.4969 14.9694 38.9938C14.9694 38.4906 14.9694 37.2327 14.9694 35.4717C9.44785 36.7296 8.22086 32.7044 8.22086 32.7044C7.36196 30.3145 6.01228 29.6855 6.01228 29.6855C4.17178 28.4276 6.13497 28.4276 6.13497 28.4276C8.09816 28.5535 9.20245 30.566 9.20245 30.566C11.0429 33.7108 13.865 32.8302 14.9694 32.327C15.092 30.9434 15.7055 30.0629 16.1964 29.5597C11.7791 29.0566 7.11656 27.2956 7.11656 19.3711C7.11656 17.1069 7.85276 15.3459 9.20245 13.8365C9.07975 13.4591 8.34356 11.3208 9.44785 8.55346C9.44785 8.55346 11.1657 8.05031 14.9694 10.6918C16.5644 10.1887 18.2822 10.0629 20 10.0629C21.7178 10.0629 23.4356 10.3145 25.0306 10.6918C28.8344 8.05031 30.5521 8.55346 30.5521 8.55346C31.6565 11.3208 30.9202 13.4591 30.7975 13.9622C32.0245 15.3459 32.8835 17.2327 32.8835 19.4969C32.8835 27.4214 28.2209 29.0566 23.8036 29.5597C24.5399 30.1886 25.1534 31.4465 25.1534 33.3334C25.1534 36.1006 25.1534 38.239 25.1534 38.9938C25.1534 39.4969 25.5215 40.1258 26.5031 40C34.4785 37.2327 40.1228 29.5597 40.1228 20.5031C40 9.18239 31.043 -4.14415e-08 20 0Z" fill="#000"></path></g><defs><clipPath id="clip0"><rect width="40" height="40" fill="#000"></rect></clipPath></defs></svg>