<?xml version="1.0" encoding="utf-8"?>
<!-- Generator: Adobe Illustrator 23.0.1, SVG Export Plug-In . SVG Version: 6.00 Build 0)  -->
<svg version="1.1" id="Lineart" xmlns="http://www.w3.org/2000/svg" xmlns:xlink="http://www.w3.org/1999/xlink" x="0px" y="0px"
	 viewBox="0 0 1200 864" style="enable-background:new 0 0 1200 864;" xml:space="preserve">
<style type="text/css">
	.st0{fill:none;stroke:#000333;stroke-linecap:round;stroke-linejoin:round;}
	.st1{fill:none;stroke:#6A78D1;stroke-linecap:round;stroke-linejoin:round;}
	.st2{fill:none;stroke:#F2545B;stroke-linecap:round;stroke-linejoin:round;}
	.st3{fill:none;stroke:#000000;stroke-linecap:round;stroke-linejoin:round;}
	.st4{fill:none;stroke:#000333;stroke-linecap:round;stroke-miterlimit:10;}
	.st5{fill:#000333;}
	.st6{fill:none;stroke:#000000;stroke-linecap:round;stroke-miterlimit:10;}
	.st7{fill:#F5C26B;stroke:#000333;stroke-linecap:round;stroke-miterlimit:10;}
	.st8{fill:#49C39E;stroke:#000333;stroke-linecap:round;stroke-miterlimit:10;}
	.st9{fill:none;stroke:#000333;stroke-width:2.39;stroke-linecap:round;stroke-linejoin:round;}
	.st10{fill:#49C39E;stroke:#000333;stroke-width:2.39;stroke-linecap:round;stroke-linejoin:round;}
	.st11{fill:#F5C26B;stroke:#000333;stroke-linecap:round;stroke-linejoin:round;}
	.st12{fill:#1AAFD0;}
	.st13{fill:#F2545B;stroke:#000333;stroke-linecap:round;stroke-linejoin:round;}
	.st14{fill:#6A78D1;stroke:#000000;stroke-linecap:round;stroke-linejoin:round;}
	.st15{fill:#6A78D1;stroke:#000333;stroke-linecap:round;stroke-linejoin:round;}
	.st16{fill:#F2545B;stroke:#000333;stroke-miterlimit:10;}
	.st17{fill:#49C39E;stroke:#000333;stroke-linecap:round;stroke-linejoin:round;}
</style>
<title>Artboard 1</title>
<path class="st0" d="M231.8,294.6c-9.9,11.7-17.6,23.7-22.3,35.6"/>
<path class="st1" d="M677.8,288.5c-15.6-13.8-34.4-24.5-51.3-24.5c-28.9,0-29.4,15.3-57.6,15.3c-43.5,0-75.7-72.7-159.3-72.7
	c-38.9,0-83,16-120.4,39.4"/>
<path class="st2" d="M868.2,248.5c-19-12.2-41.2-20-66.3-20c-101.3,0-151.3,116.2-217.6,116.2c-60.8,0-65.5-30.8-140.7-30.8
	c-32.7,0-88.4,27.9-121.9,65.6"/>
<path class="st3" d="M597.8,496.6c-0.4-2-0.6-4-0.5-6.1c0.3-6.5,2.9-11.6,5.8-11.5c1,0.1,1.8,0.7,2.4,1.5"/>
<path class="st4" d="M590.3,548.6c0.7-8.5,4.6-41.7,7.8-53.2"/>
<path class="st5" d="M542.9,615.8v194.9H559l18.5-104.3C577.5,706.4,580.1,650,542.9,615.8z"/>
<path class="st5" d="M596,612c0.5,5.6,6.1,107.9,6.1,107.9v93.1l-16.5,1.8l-10.6-99l-32-99.9C547.7,613.1,583.2,608.1,596,612z"/>
<path class="st4" d="M595,569.3c3.5,20.2,2.9,40.3,1.1,42.7c-3.8,4.9-49,8.2-53.2,3.8c-3.8-3.9-13.8-73.8,13.6-87.3"/>
<path class="st4" d="M568.8,526.4c9.6,1.3,16.3,10.3,20.7,22.1"/>
<path class="st6" d="M603.9,499.1c-1-2.7-1.4-5.7-1.2-8.6c0.3-6.5,2.9-11.6,5.8-11.5s5,5.5,4.7,12c-0.1,2.8-0.7,5.5-1.9,8.1"/>
<rect x="585.5" y="492.2" transform="matrix(0.9879 -0.1551 0.1551 0.9879 -69.508 97.0629)" width="3.9" height="3.9"/>
<path class="st0" d="M568.8,519v7.3"/>
<path class="st0" d="M566.4,535c-3.6,0.9-10,0.4-10-1.7v-26.5"/>
<path class="st4" d="M579.6,488.8c1.3,3.3,1.9,6.8,1.9,10.3c0,11-5.8,19.9-13,19.9c-2.3,0-4.4-0.9-6.2-2.3"/>
<path class="st0" d="M557.9,506.6c-0.4,0.1-0.8,0.2-1.2,0.2c-2.4,0-4.3-1.9-4.3-4.3c0-2.4,1.9-4.3,4.3-4.3c0.8,0,1.5,0.2,2.2,0.6"/>
<path class="st5" d="M525.4,529.1L525.4,529.1c6.9,0,12.6,5.6,12.6,12.6v59.5c0,6.9-5.6,12.6-12.6,12.6l0,0
	c-6.9,0-12.6-5.6-12.6-12.6v-59.5C512.8,534.8,518.4,529.1,525.4,529.1z"/>
<path class="st4" d="M574.8,568c-2.6,15.3-15,27-29.9,27c-16.8,0-30.4-14.7-30.4-32.9s13.6-32.9,30.4-32.9c9.3,0.1,17.9,4.5,23.4,12
	"/>
<path class="st0" d="M581,547.8c4.9,0.3,12.6,0.9,16.3,2.3c0.4-2.5,2.7-38.8,6.5-50.9"/>
<path class="st0" d="M611.3,499.1c0,1.4,8.5,60.9,0,67.9c-6.7,5.5-25.8,0.9-34.4-1.8"/>
<path class="st4" d="M549.7,545.5c2.8-11.5,28.4-1.9,30.7,0.7c2.8,3.1-2.2,20.8-6,21.7C568.1,569.2,546,560.4,549.7,545.5z"/>
<polygon class="st7" points="325.9,660.5 390.1,660.5 266.4,152.4 216,359.4 245.4,660.5 "/>
<g>
	<polyline class="st8" points="257.6,545.1 169.6,152.4 45.9,704.7 197.6,704.7 	"/>
	<line class="st9" x1="170.3" y1="702.2" x2="170.3" y2="206.2"/>
	<line class="st9" x1="170.3" y1="369.7" x2="197.2" y2="340.5"/>
	<line class="st9" x1="170.3" y1="509.7" x2="210.7" y2="465.8"/>
	<line class="st9" x1="170.3" y1="655.8" x2="190" y2="634.3"/>
	<line class="st9" x1="170.3" y1="369.7" x2="143.4" y2="340.5"/>
	<line class="st9" x1="170.3" y1="509.7" x2="129.9" y2="465.8"/>
	<line class="st9" x1="170.3" y1="655.8" x2="107.4" y2="587.5"/>
</g>
<path class="st10" d="M258.2,545.1L258.2,545.1c37.4,0,67.7,30.3,67.7,67.7v61.8c0,37.4-30.3,67.7-67.7,67.7h0
	c-37.4,0-67.7-30.3-67.7-67.7v-61.8C190.5,575.4,220.8,545.1,258.2,545.1z"/>
<line class="st9" x1="258.2" y1="793.7" x2="258.2" y2="606.6"/>
<path class="st9" d="M258.2,686.2c37,0,37-22.3,37-56"/>
<path class="st9" d="M258.2,652.1c-25.6,0-25.6-15.5-25.6-38.8"/>
<path class="st0" d="M750.9,660.5h91.9"/>
<path class="st11" d="M921.4,660.5h231V478.4c-0.1-44.8-36.4-81.1-81.3-81.3l0,0c-4.4,0-8.7,0.4-13.1,1.1V188.6
	c0-30.7-24.9-55.6-55.6-55.6l0,0c-30.7,0-55.6,24.9-55.6,55.6v0v44.9c-8.4-2.9-17.2-4.3-26-4.3l0,0c-44.8,0.1-81.2,36.5-81.3,81.3
	v149.4h-35.4c-30.6,0.1-55.4,24.9-55.5,55.5v129.3c0,5.4,0.8,10.7,2.3,15.8"/>
<path class="st9" d="M1000.2,551.6c91.6,0,91.6-41,91.6-103"/>
<path class="st9" d="M1000.3,606.3c-50.4,0-50.4-22.6-50.4-56.7"/>
<line class="st9" x1="1000.2" y1="660.5" x2="1000.2" y2="175"/>
<line class="st9" x1="1000.2" y1="448.6" x2="949.9" y2="398.4"/>
<line class="st9" x1="1000.2" y1="345" x2="1030.6" y2="314.6"/>
<path class="st12" d="M750.5,152.4c6.2-25.3-9.3-50.9-34.6-57c-20.1-4.9-41,3.8-51.6,21.5c-18.8-8.5-41-0.1-49.5,18.7
	c-2.2,4.8-3.3,10.1-3.3,15.4c0,0.5,0,1,0,1.5L750.5,152.4z"/>
<path class="st12" d="M291.9,79.1c-6.2-25.3,9.3-50.9,34.6-57c20.1-4.9,41,3.8,51.6,21.5c18.8-8.5,41-0.2,49.5,18.6
	c2.2,4.9,3.3,10.1,3.3,15.5c0,0.5,0,1,0,1.5H291.9z"/>
<path class="st13" d="M1014.1,786.9c-7.1-22.7-44.6-40.1-89.8-40.1c-50.3,0-91,21.5-91,48h163.3"/>
<path class="st14" d="M502.8,817.7c-12.5,0-22.7,8.8-22.7,19.6h45.5C525.5,826.5,515.3,817.7,502.8,817.7z"/>
<path class="st15" d="M833.3,713.2c-12.6,0-22.7,13-22.7,29.1H856C856,726.2,845.8,713.2,833.3,713.2z"/>
<path class="st16" d="M120.9,785.4c-20,0-36.2,6.5-36.2,14.5H157C157,791.9,140.8,785.4,120.9,785.4z"/>
<path class="st15" d="M1030.6,785.4c-20,0-36.2,6.5-36.2,14.5h72.3C1066.7,791.9,1050.5,785.4,1030.6,785.4z"/>
<path class="st17" d="M882,557.3L882,557.3c24.2,0,43.8,19.6,43.8,43.8v40c0,24.2-19.6,43.8-43.8,43.8h0
	c-24.2,0-43.8-19.6-43.8-43.8v-40C838.2,577,857.8,557.3,882,557.3z"/>
<line class="st9" x1="882.1" y1="718.3" x2="882.1" y2="597.2"/>
<path class="st9" d="M882.1,648.7c23.9,0,23.9-14.4,23.9-36.3"/>
<path class="st9" d="M882.1,626.6c-16.6,0-16.6-10-16.6-25.2"/>
<line class="st9" x1="331.7" y1="758.4" x2="412.8" y2="758.4"/>
<line class="st9" x1="668.4" y1="704.7" x2="722.1" y2="704.7"/>
<line class="st9" x1="627.9" y1="718.3" x2="681.6" y2="718.3"/>
<line class="st9" x1="116.9" y1="729.4" x2="170.6" y2="729.4"/>
<line class="st9" x1="748.5" y1="810" x2="824.1" y2="810"/>
<path class="st4" d="M552.3,496.1c-2.1-1.7-2.3-14,2.9-18.2s20.6-7.5,27.3-13.2"/>
<path class="st4" d="M578,475.9c1.5-1.3,6.3-8.8,7.2-10.8"/>
<path class="st4" d="M582.5,478.7c1.7-2.4,2.9-5.1,3.5-8"/>
<path class="st5" d="M613.1,491c-0.1,1.3-0.2,2.7-0.5,4l8.1-0.7l-2.2-13.2l-6.4,2C612.9,485.7,613.3,488.4,613.1,491z"/>
<path class="st5" d="M602.6,490.5c0.1-1.5,0.3-3,0.6-4.5l-15,4.7l1,6.2l13.7-1.1C602.6,494.1,602.5,492.3,602.6,490.5z"/>
<polyline class="st3" points="544.3,810.7 544.3,833.3 576.6,833.3 553.5,819 553.5,809.9 "/>
<polyline class="st3" points="588.8,810.7 588.8,833.3 621.1,833.3 598,819 598,809.9 "/>
<path class="st4" d="M574.1,496.1c0,1.2,0.5,4.9,3.1,6.8"/>
<path class="st4" d="M570.5,506.2c0.6,1.2,1.8,1.9,3.1,1.9"/>
</svg>
