<?xml version="1.0" encoding="utf-8"?>
<!-- Generator: Adobe Illustrator 22.1.0, SVG Export Plug-In . SVG Version: 6.00 Build 0)  -->
<svg version="1.1" id="Layer_1" xmlns="http://www.w3.org/2000/svg" xmlns:xlink="http://www.w3.org/1999/xlink" x="0px" y="0px"
	 viewBox="0 0 150 150" style="enable-background:new 0 0 150 150;" xml:space="preserve">
<style type="text/css">
	.st0{fill:none;stroke:#21C87A;stroke-width:2;stroke-linecap:round;stroke-linejoin:round;stroke-miterlimit:10;}
</style>
<g>
	<circle class="st0" cx="75" cy="72.2" r="10"/>
	<ellipse class="st0" cx="75" cy="72.2" rx="24" ry="24"/>
	<circle class="st0" cx="75" cy="72.2" r="40"/>
	<path class="st0" d="M121.8,43.6c5.1,8.3,8,18.1,8,28.5c0,30.3-24.5,54.8-54.8,54.8s-54.8-24.5-54.8-54.8S44.7,17.3,75,17.3
		c10.3,0,19.9,2.8,28.2,7.8"/>
	<polyline class="st0" points="75,72.2 113,34.1 114.5,32.6 	"/>
	<g>
		<polyline class="st0" points="108.6,38.6 118.8,38.6 129.8,27.5 121.1,26.1 119.6,17.3 108.6,28.4 108.6,38.6 		"/>
	</g>
	<g>
		<line class="st0" x1="116.2" y1="27.2" x2="115.3" y2="21.7"/>
	</g>
	<polyline class="st0" points="43.4,117 32.6,132.7 24.4,132.7 35,109.7 	"/>
	<polyline class="st0" points="106.6,117 117.4,132.7 125.6,132.7 115,109.7 	"/>
	<path class="st0" d="M54.7,29c0.6-0.3,1.2-0.5,1.7-0.8"/>
	<path class="st0" d="M39.1,40.7c3.4-3.9,7.4-7.2,11.9-9.8"/>
</g>
</svg>
