<?xml version="1.0" encoding="utf-8"?>
<!-- Generator: Adobe Illustrator 22.1.0, SVG Export Plug-In . SVG Version: 6.00 Build 0)  -->
<svg version="1.1" id="Layer_1" xmlns="http://www.w3.org/2000/svg" xmlns:xlink="http://www.w3.org/1999/xlink" x="0px" y="0px"
	 viewBox="0 0 150 150" style="enable-background:new 0 0 150 150;" xml:space="preserve">
<style type="text/css">
	.st0{fill:none;stroke:#151B26;stroke-width:2;stroke-linecap:round;stroke-linejoin:round;stroke-miterlimit:10;}
</style>
<g>
	<polyline class="st0" points="111.8,61.4 111.8,110.4 38.3,110.4 38.3,61.4 	"/>
	<path class="st0" d="M54.6,61.4v21.8l2.3-1.9c0.8-0.6,1.9-0.6,2.7,0l0.7,0.6c0.9,0.7,2.2,0.6,3-0.2l0,0c0.8-0.8,2.1-0.9,3-0.2
		l2.1,1.7V61.4"/>
	<line class="st0" x1="68.6" y1="100.3" x2="54.4" y2="100.3"/>
	<line class="st0" x1="68.6" y1="95.7" x2="64" y2="95.7"/>
	<line class="st0" x1="60.4" y1="95.7" x2="54.4" y2="95.7"/>
	<line class="st0" x1="58.1" y1="61.4" x2="58.1" y2="74.1"/>
	<line class="st0" x1="86.6" y1="61.4" x2="86.6" y2="94.1"/>
	<line class="st0" x1="86.6" y1="100.9" x2="86.6" y2="110.4"/>
	<polyline class="st0" points="79.3,61.4 38.4,61.4 30,43.5 78.1,43.5 86.6,61.4 101.5,61.4 	"/>
	<line class="st0" x1="93.2" y1="46.9" x2="79.8" y2="46.9"/>
	<line class="st0" x1="96.6" y1="105.7" x2="111.5" y2="105.7"/>
	<line class="st0" x1="75" y1="48.1" x2="38.6" y2="48.1"/>
	<line class="st0" x1="118.1" y1="48.1" x2="98.1" y2="48.1"/>
	<path class="st0" d="M105.7,61.4c0,0,5.2,0,6,0l8.4-17.9H95l-8.4,17.9"/>
</g>
</svg>
