<?xml version="1.0" encoding="utf-8"?>
<!-- Generator: Adobe Illustrator 22.1.0, SVG Export Plug-In . SVG Version: 6.00 Build 0)  -->
<svg version="1.1" id="Layer_1" xmlns="http://www.w3.org/2000/svg" xmlns:xlink="http://www.w3.org/1999/xlink" x="0px" y="0px"
	 viewBox="0 0 150 150" style="enable-background:new 0 0 150 150;" xml:space="preserve">
<style type="text/css">
	.st0{fill:none;stroke:#FFFFFF;stroke-width:2;stroke-linecap:round;stroke-linejoin:round;stroke-miterlimit:10;}
</style>
<g>
	<polygon class="st0" points="82.8,33.6 67.2,33.6 62.2,38.9 68.8,56.4 81.2,56.4 87.8,38.9 	"/>
	<polyline class="st0" points="81.3,56.4 92.2,112.6 75,134.4 57.8,112.6 68.7,56.4 	"/>
	<line class="st0" x1="90" y1="101" x2="69.3" y2="127.2"/>
	<line class="st0" x1="86.8" y1="84.5" x2="61.2" y2="116.9"/>
	<line class="st0" x1="83.6" y1="68" x2="60.8" y2="96.9"/>
	<line class="st0" x1="76.5" y1="56.4" x2="66.1" y2="69.6"/>
	<line class="st0" x1="86.1" y1="37.1" x2="70.9" y2="56.4"/>
	<line class="st0" x1="72.7" y1="33.6" x2="64.2" y2="44.3"/>
	<g>
		<polyline class="st0" points="67.1,33.6 46.5,15.6 41.6,20.9 62.2,38.9 		"/>
		<polyline class="st0" points="82.9,33.6 103.5,15.6 108.4,20.9 87.8,38.9 		"/>
	</g>
	<line class="st0" x1="103.5" y1="15.6" x2="46.5" y2="15.6"/>
	<line class="st0" x1="95.6" y1="22.4" x2="54.4" y2="22.4"/>
</g>
</svg>
