<?xml version="1.0" encoding="utf-8"?>
<!-- Generator: Adobe Illustrator 22.1.0, SVG Export Plug-In . SVG Version: 6.00 Build 0)  -->
<svg version="1.1" id="_x37_40546cb-34ca-4331-8221-ac3d3fc9ee67"
	 xmlns="http://www.w3.org/2000/svg" xmlns:xlink="http://www.w3.org/1999/xlink" x="0px" y="0px" viewBox="0 0 890.2 584.5"
	 style="enable-background:new 0 0 890.2 584.5;" xml:space="preserve">
<style type="text/css">
	.st0{opacity:0.5;fill:#E3E6F0;enable-background:new    ;}
	.st1{opacity:0.1;fill:#796EFF;enable-background:new    ;}
	.st2{fill:#D6D6E3;}
	.st3{fill:#AEBEE1;}
	.st4{fill:#535461;}
	.st5{opacity:0.1;enable-background:new    ;}
	.st6{fill:#E3EDF9;}
	.st7{fill:url(#SVGID_1_);}
	.st8{fill:#F8B9BF;}
	.st9{fill:#D9DFE8;}
	.st10{fill:#796EFF;}
	.st11{opacity:0.1;}
	.st12{fill:#68739D;}
	.st13{fill:#6394E2;}
	.st14{fill:#B96B6B;}
	.st15{fill:none;stroke:#535461;stroke-width:2;stroke-miterlimit:10;}
	.st16{fill:url(#SVGID_2_);}
	.st17{fill:#FA595F;}
	.st18{fill:#F37291;}
	.st19{fill:#96A2D0;}
</style>
<ellipse class="st0" cx="445.5" cy="524.3" rx="444.7" ry="60.2"/>
<title>co-working</title>
<rect x="739.2" y="78.3" class="st1" width="40.9" height="61.9"/>
<rect x="743.2" y="84.3" class="st1" width="32.9" height="49.9"/>
<rect x="656.2" y="35.3" class="st1" width="62.8" height="61.9"/>
<rect x="662.3" y="41.3" class="st1" width="50.6" height="49.9"/>
<rect x="246.8" y="274.5" class="st2" width="19.6" height="219.1"/>
<path class="st3" d="M839.3,297.5V95.4c0-11.7,9.5-21.2,21.3-21.2l0,0c11.7,0,21.2,9.5,21.2,21.2V340c0,11.7-9.5,21.3-21.3,21.3l0,0
	H728.9c-11.7,0-21.3-9.5-21.3-21.3l0,0l0,0c0-11.7,9.5-21.3,21.3-21.3l0,0H818C829.7,318.7,839.3,309.2,839.3,297.5z"/>
<path class="st4" d="M839.3,297.5V95.4c0-11.7,9.5-21.2,21.3-21.2l0,0c11.7,0,21.2,9.5,21.2,21.2V340c0,11.7-9.5,21.3-21.3,21.3l0,0
	H728.9c-11.7,0-21.3-9.5-21.3-21.3l0,0l0,0c0-11.7,9.5-21.3,21.3-21.3l0,0H818C829.7,318.7,839.3,309.2,839.3,297.5z"/>
<path class="st2" d="M707.6,338.9c0.6-11.3,9.9-20.1,21.2-20.1H818c11.7,0,21.3-9.5,21.3-21.3l0,0V95.4c0-11.3,8.9-20.7,20.2-21.2
	v264.7H707.6z"/>
<path class="st3" d="M50.9,304.3V102.2c0-11.7-9.5-21.2-21.2-21.3l0,0c-11.7,0-21.3,9.5-21.3,21.3v244.6c0,11.7,9.5,21.3,21.2,21.3
	c0,0,0,0,0.1,0h131.6c11.7,0,21.3-9.5,21.3-21.3l0,0c0-11.7-9.5-21.3-21.3-21.3H72.2C60.4,325.6,50.9,316.1,50.9,304.3
	C50.9,304.4,50.9,304.3,50.9,304.3z"/>
<path class="st4" d="M50.9,304.3V102.2c0-11.7-9.5-21.2-21.2-21.3l0,0c-11.7,0-21.3,9.5-21.3,21.3v244.6c0,11.7,9.5,21.3,21.2,21.3
	c0,0,0,0,0.1,0h131.6c11.7,0,21.3-9.5,21.3-21.3l0,0c0-11.7-9.5-21.3-21.3-21.3H72.2C60.4,325.6,50.9,316.1,50.9,304.3
	C50.9,304.4,50.9,304.3,50.9,304.3z"/>
<path class="st2" d="M182.5,345.7c-0.6-11.3-9.9-20.1-21.2-20.1H72.2c-11.7,0-21.3-9.5-21.3-21.2c0,0,0,0,0,0V102.2
	c0-11.3-8.9-20.7-20.2-21.2v264.7H182.5z"/>
<rect x="634.8" y="274.5" class="st2" width="19.6" height="224.3"/>
<rect x="246.8" y="274.5" class="st5" width="19.6" height="16.2"/>
<rect x="634.8" y="274.5" class="st5" width="19.6" height="16.2"/>
<path class="st5" d="M316.9,141c-0.3,3.5-0.7,7-1.2,10.5h-2.8V141H316.9z"/>
<path class="st4" d="M397.2,250.1c0.1,3.5-2.5,6.5-5.7,6.5h-59.9v-6.2h49.8c2.2,0,3.5-2.6,2.4-4.7l-45.2-91.9
	c-0.7-1.3-2-2.2-3.5-2.3h-22.3V141h28.2c1,0,2,0.6,2.5,1.6l51.8,100C396.6,244.9,397.2,247.5,397.2,250.1z"/>
<path class="st4" d="M287.3,233.5l-0.8,1.4l-7.7-5.1l23.7-182.5h6.1c0,0,0.3,0.8,0.7,2.4C313.4,65.5,333.5,154.8,287.3,233.5z"/>
<path class="st5" d="M309.3,49.7l-22,183.8l-0.8,1.4l-7.7-5.1l23.7-182.5h6.1C308.7,47.2,308.9,48.1,309.3,49.7z"/>
<rect x="195.7" y="132.9" transform="matrix(0.1189 -0.9929 0.9929 0.1189 116.6176 411.8041)" class="st2" width="189.3" height="14.5"/>
<path class="st6" d="M222.5,250.2c0,0.9-0.8,1.7-1.7,1.7h-2.6c-0.9,0-1.7-0.8-1.7-1.7c0-0.1,0-0.1,0-0.2c0.1-0.9,0.8-1.5,1.7-1.5
	h2.6c0.8,0,1.5,0.5,1.6,1.3C222.5,249.9,222.5,250,222.5,250.2z"/>
<path class="st6" d="M230.2,250.2c0,0.9-0.8,1.7-1.7,1.7H226c-0.9,0-1.7-0.8-1.7-1.7c0-0.2,0-0.3,0.1-0.5c0.1-0.3,0.2-0.5,0.4-0.7
	c0.3-0.3,0.7-0.5,1.2-0.5h2.6c0.7,0,1.3,0.4,1.6,1C230.2,249.7,230.2,249.9,230.2,250.2z"/>
<path class="st6" d="M237,250.2c0,0.9-0.8,1.7-1.7,1.7h-2.6c-0.9,0-1.7-0.8-1.7-1.7c0-0.2,0-0.5,0.1-0.7c0.3-0.6,0.9-1,1.5-1h2.6
	C236.3,248.5,237,249.2,237,250.2C237,250.2,237,250.2,237,250.2L237,250.2z"/>
<path class="st6" d="M244.7,250.2c0,0.9-0.8,1.7-1.7,1.7h-2.6c-0.9,0-1.7-0.8-1.7-1.7c0-0.4,0.1-0.7,0.3-1l0.2-0.2
	c0.3-0.3,0.7-0.5,1.2-0.5h2.6c0.5,0,0.9,0.2,1.2,0.5C244.6,249.3,244.7,249.8,244.7,250.2z"/>
<path class="st5" d="M222.5,249.8c0,0.1,0.1,0.3,0,0.4c0,0.9-0.8,1.7-1.7,1.7h-2.6c-0.9,0-1.7-0.8-1.7-1.7c0-0.1,0-0.1,0-0.2
	L222.5,249.8z"/>
<path class="st5" d="M230.1,249.5c0.1,0.2,0.1,0.4,0.1,0.7c0,0.9-0.8,1.7-1.7,1.7H226c-0.9,0-1.7-0.8-1.7-1.7c0-0.2,0-0.3,0.1-0.5
	L230.1,249.5z"/>
<path class="st5" d="M236.8,249.3c0.2,0.3,0.3,0.6,0.3,0.9c0,0.9-0.8,1.7-1.7,1.7h-2.6c-0.9,0-1.7-0.8-1.7-1.7c0-0.2,0-0.5,0.1-0.7
	L236.8,249.3z"/>
<path class="st5" d="M244.7,250.2c0,0.9-0.8,1.7-1.7,1.7h-2.6c-0.9,0-1.7-0.8-1.7-1.7c0-0.4,0.1-0.7,0.3-1l5.2-0.2
	C244.6,249.3,244.7,249.8,244.7,250.2z"/>
<path class="st2" d="M260.1,257h-49.4v-2.3c0-2.1,1.6-3.8,3.7-3.9l39.7-1.4c3.2-0.1,6,2.4,6.1,5.7c0,0.1,0,0.1,0,0.2L260.1,257z"/>
<path class="st4" d="M504,250.1c-0.1,3.5,2.5,6.5,5.7,6.5h59.9v-6.2h-49.9c-2.2,0-3.5-2.6-2.4-4.7l45.2-91.9c0.7-1.3,2-2.2,3.5-2.3
	h22.3V141h-28.2c-1,0-2,0.6-2.4,1.6l-51.8,100C504.7,244.9,504.1,247.5,504,250.1z"/>
<path class="st4" d="M614,233.5l0.8,1.4l7.7-5.1L598.7,47.2h-6.1c0,0-0.3,0.8-0.7,2.4C587.8,65.5,567.7,154.8,614,233.5z"/>
<path class="st5" d="M591.9,49.7l22,183.8l0.8,1.4l7.7-5.1L598.7,47.2h-6.1C592.6,47.2,592.4,48.1,591.9,49.7z"/>
<rect x="603.7" y="45.5" transform="matrix(0.9929 -0.1189 0.1189 0.9929 -12.3344 73.6506)" class="st2" width="14.5" height="189.3"/>
<path class="st6" d="M678.7,250.2c0,0.9,0.8,1.7,1.7,1.7h2.6c0.9,0,1.7-0.8,1.7-1.7l0,0c0-0.1,0-0.1,0-0.2c-0.1-0.9-0.8-1.5-1.7-1.5
	h-2.6c-0.8,0-1.5,0.5-1.7,1.3C678.8,249.9,678.7,250,678.7,250.2z"/>
<path class="st6" d="M671.1,250.2c0,0.9,0.8,1.7,1.7,1.7h2.6c0.9,0,1.7-0.8,1.7-1.7l0,0c0-0.2,0-0.3-0.1-0.5
	c-0.1-0.3-0.2-0.5-0.4-0.7c-0.3-0.3-0.7-0.5-1.2-0.5h-2.6c-0.7,0-1.3,0.4-1.6,1C671.1,249.7,671,249.9,671.1,250.2z"/>
<path class="st6" d="M664.2,250.2c0,0.9,0.8,1.7,1.7,1.7h2.6c0.9,0,1.7-0.8,1.7-1.7l0,0c0-0.2,0-0.5-0.2-0.7c-0.3-0.6-0.9-1-1.6-1
	H666C665,248.5,664.2,249.2,664.2,250.2C664.2,250.2,664.2,250.2,664.2,250.2L664.2,250.2z"/>
<path class="st6" d="M656.6,250.2c0,0.9,0.8,1.7,1.7,1.7h2.6c0.9,0,1.7-0.8,1.7-1.7c0-0.4-0.1-0.7-0.3-1L662,249
	c-0.3-0.3-0.7-0.5-1.2-0.5h-2.6c-0.5,0-0.9,0.2-1.2,0.5C656.7,249.3,656.6,249.8,656.6,250.2z"/>
<path class="st5" d="M678.8,249.8c0,0.1-0.1,0.3-0.1,0.4c0,0.9,0.8,1.7,1.7,1.7h2.6c0.9,0,1.7-0.8,1.7-1.7l0,0c0-0.1,0-0.1,0-0.2
	L678.8,249.8z"/>
<path class="st5" d="M671.2,249.5c-0.1,0.2-0.1,0.4-0.1,0.7c0,0.9,0.8,1.7,1.7,1.7h2.6c0.9,0,1.7-0.8,1.7-1.7l0,0
	c0-0.2,0-0.3-0.1-0.5L671.2,249.5z"/>
<path class="st5" d="M664.5,249.3c-0.2,0.3-0.3,0.6-0.3,0.9c0,0.9,0.8,1.7,1.7,1.7h2.6c0.9,0,1.7-0.8,1.7-1.7l0,0
	c0-0.2,0-0.5-0.2-0.7L664.5,249.3z"/>
<path class="st5" d="M656.6,250.2c0,0.9,0.8,1.7,1.7,1.7h2.6c0.9,0,1.7-0.8,1.7-1.7c0-0.4-0.1-0.7-0.3-1L657,249
	C656.7,249.3,656.5,249.8,656.6,250.2z"/>
<path class="st2" d="M641.2,257h49.5v-2.3c0-2.1-1.6-3.8-3.7-3.9l-39.7-1.4c-3.2-0.1-6,2.4-6.1,5.7c0,0.1,0,0.1,0,0.2L641.2,257z"/>
<linearGradient id="SVGID_1_" gradientUnits="userSpaceOnUse" x1="748.7869" y1="-76.5847" x2="748.7869" y2="438.2254" gradientTransform="matrix(1 9.000000e-02 9.000000e-02 -1 -24.077 371.4423)">
	<stop  offset="0" style="stop-color:#808080;stop-opacity:0.25"/>
	<stop  offset="0.54" style="stop-color:#808080;stop-opacity:0.12"/>
	<stop  offset="1" style="stop-color:#808080;stop-opacity:0.1"/>
</linearGradient>
<path class="st7" d="M848.2,284.1c23.1-39.1,14.7-118.1,15.6-119.6c0.8-1.3-2.3-38.5-23.5-47.6c-3.8-7.6-7.6-16.1-7.6-16.1
	c-0.4,0.3-0.8,0.7-1.2,0.9c-0.2-0.5-0.3-0.9-0.5-1.4c-0.3-0.8-0.5-1.6-0.8-2.4c0.6,0.2,1.2,0.3,1.8,0.5c1.6,0.4,3.3,0.2,4.8-0.4
	c0.5-0.3,1-0.6,1.4-1.1c1.7-1.1,2.6-3.1,3.4-5l6.2-14.8c2.8-6.7,5.6-13.4,7.1-20.4c2.2-10.6,1.3-21.7-2.5-31.9
	c-1.5-3.9-3.5-7.8-6.9-10.1c-6.9-4.7-16.4-1.4-24.3-4.2c-2.6-0.9-4.9-2.4-7.5-3.3c-5.6-2-11.9-0.9-17.2,1.6s-9.7,6.4-14.4,10
	c-2.3,1.8-6,3.6-8.7,6c-2.6,2.1-4.7,4.6-4.3,7.8c0.4,3.8,4.4,6,8.1,6.9c0.6,0.1,1.2,0.3,1.9,0.4c-14,14.1-13.8,36.9,0.3,50.9
	c4.2,4.2,9.4,7.2,15,8.9c1.9,3.5,3.5,7.2,4.9,10.9c0.2,0.5,0.4,1,0.5,1.5c-6.1,1.7-10.8,3.1-11.8,3.9c-2.9,2.4,3.1,23.2,3.1,23.2
	c-1.5,1.9-3.1,4.1-4.7,6.5c-12,18.2-19.6,38.9-22.2,60.6c-1,7.9-2.3,16-4,23.7l-71.7-14.4l-0.2,1.8l-1.7-0.4l0,0l-5.4-1.3l-0.2,1.2
	l-0.8-0.4c-13.3-6.3-35.8-14.2-51-6c-16.1,8.6,18.6,20.1,40.8,26.2c-7.4,0.4-14.4,2.1-20,6.3c-16.1,12.1,29.5,18.4,51,20.6l0.9,0.1
	v0.5l7.5,0.7l1.8,0.2l0.2,2.7c0,0,10.7,1.8,25,3.9c-16.3,4.1-36.4,6.9-50.4,8.5c-14.8,1.7-27.4,12.1-31.4,26.5
	c-1.3,4.1-1.4,8.5-0.4,12.7c4.2,14.5-0.9,121.4-2.1,144.4l-26.3,15.2c0,0-41,5-13.7,14.6c2.5,0.8,5,1.5,7.5,2
	c-3.6,2.3-3.3,5.3,7.3,9.1c27.3,9.6,90.9-0.4,90.9-0.4s-1.4-11.3-3.7-20.6l0.7,0.1c0,0-6.6-24.4,3.4-36.7c10-12.3-1.7-106-1.7-106
	s17.4-7.2,69.5-7.7c42,10.8,62.5-27.8,62.2-47.8C848.2,285,848.2,284.5,848.2,284.1z"/>
<path class="st8" d="M693,223.5l-4.4,18c0,0-4-0.9-10-2.4c-20.3-5.3-63.2-17.9-46-27.2c14.8-8,36.6-0.2,49.6,5.9
	c4.7,2.2,8.3,4.2,9.9,5.2C692.7,223.3,693,223.5,693,223.5z"/>
<path class="st5" d="M691.7,228.6l-3.2,13c0,0-4-0.9-10-2.4l3.6-21.3c4.7,2.2,8.3,4.2,9.9,5.2L691.7,228.6z"/>
<polygon class="st9" points="691.7,242.8 679.3,239.7 683.2,217 693.1,219.4 "/>
<polygon class="st5" points="691.7,242.8 686.4,241.5 688.4,218.2 693.1,219.4 "/>
<path class="st10" d="M811.6,148.5c0,0-23.8-13.8-34.4,25.8S765.5,232,765.5,232l-75.3-15.1l-2.4,27.5c0,0,80.5,26,90.7,24.1
	s43-57,43-57S851.3,168.9,811.6,148.5z"/>
<g class="st11">
	<path d="M693,223.5l-4.4,18c0,0-4-0.9-10-2.4c-20.3-5.3-63.2-17.9-46-27.2c14.8-8,36.6-0.2,49.6,5.9c4.7,2.2,8.3,4.2,9.9,5.2
		C692.7,223.3,693,223.5,693,223.5z"/>
	<path class="st5" d="M691.7,228.6l-3.2,13c0,0-4-0.9-10-2.4l3.6-21.3c4.7,2.2,8.3,4.2,9.9,5.2L691.7,228.6z"/>
	<polygon points="691.7,242.8 679.3,239.7 683.2,217 693.1,219.4 	"/>
	<polygon class="st5" points="691.7,242.8 686.4,241.5 688.4,218.2 693.1,219.4 	"/>
	<path d="M811.6,149.5c0,0-23.8-13.8-34.4,25.8S765.5,233,765.5,233l-75.3-15.1l-2.4,27.5c0,0,80.5,26,90.7,24.1s43-57,43-57
		S851.3,169.9,811.6,149.5z"/>
</g>
<path class="st12" d="M659.9,454.8l-30.8,17.7c0,0-39.8,4.9-13.3,14.2s88.2-0.4,88.2-0.4s-3.4-27.7-8.2-31.6
	S659.9,454.8,659.9,454.8z"/>
<path class="st13" d="M779.7,256.1c0,0-15.3,8-42.5,14.9c-15.9,4-35.9,6.8-49.7,8.5c-14.4,1.6-26.5,11.7-30.5,25.6
	c-1.3,4-1.4,8.3-0.3,12.4c4.5,15.8-2.2,144.5-2.2,144.5l46.7,4.3c0,0-6.4-23.7,3.3-35.7c9.7-11.9-1.6-102.9-1.6-102.9
	s16.9-7,67.5-7.5c46.8,12,66.1-39.3,58.9-53.6C822,252.3,779.7,256.1,779.7,256.1z"/>
<g class="st11">
	<path d="M659.9,454.8l-30.8,17.7c0,0-39.8,4.9-13.3,14.2s88.2-0.4,88.2-0.4s-3.4-27.7-8.2-31.6S659.9,454.8,659.9,454.8z"/>
	<path d="M779.7,256.1c0,0-15.3,8-42.5,14.9c-15.9,4-35.9,6.8-49.7,8.5c-14.4,1.6-26.5,11.7-30.5,25.6c-1.3,4-1.4,8.3-0.3,12.4
		c4.5,15.8-2.2,144.5-2.2,144.5l46.7,4.3c0,0-6.4-23.7,3.3-35.7c9.7-11.9-1.6-102.9-1.6-102.9s16.9-7,67.5-7.5
		c46.8,12,66.1-39.3,58.9-53.6C822,252.3,779.7,256.1,779.7,256.1z"/>
</g>
<path class="st12" d="M674.3,465.6l-30.8,17.7c0,0-39.8,4.8-13.3,14.2s88.2-0.4,88.2-0.4s-3.4-27.7-8.2-31.6
	S674.3,465.6,674.3,465.6z"/>
<path class="st13" d="M784.7,331.1c-50.6,0.5-67.5,7.5-67.5,7.5s11.3,91,1.6,102.9c-9.7,11.9-3.3,35.7-3.3,35.7l-46.7-4.3
	c0,0,0.1-1.5,0.2-4.2c1.1-22.4,6-126.2,2-140.3c-1-4.1-0.9-8.4,0.3-12.4c4-14,16.1-24.1,30.5-25.7c13.8-1.6,33.7-4.4,49.6-8.5
	l0.8-0.2c26.7-6.9,41.7-14.7,41.7-14.7s42.3-3.8,49.5,10.6c1,2.3,1.5,4.8,1.5,7.3C845.4,304.1,825.5,341.5,784.7,331.1z"/>
<path class="st8" d="M714.3,245.9l-1.7,18.5c0,0-4.1-0.3-10.2-0.9c-20.9-2.2-65.1-8.3-49.5-20c13.5-10.1,36.2-5.7,49.9-1.6
	c5,1.5,8.8,3,10.6,3.6C713.9,245.8,714.3,245.9,714.3,245.9z"/>
<path class="st8" d="M838.5,125c0,0-6.3,4.9-13.9,10.3c-8.4,1.9-18.1,3.5-25.2,4.5c2.5-8,1-17-1.8-24.9c-3.1-8.2-7.3-16-12.5-23.1
	l42.3-13.2c-3.3,8.4-1.8,18,1,26.3C830.9,112,834.3,118.7,838.5,125z"/>
<path class="st5" d="M713.8,251.1l-1.2,13.3c0,0-4.1-0.3-10.2-0.9l0.4-21.6c5,1.5,8.8,3,10.5,3.6L713.8,251.1z"/>
<polygon class="st9" points="715.9,265.2 703.2,264 703.6,240.9 713.8,241.9 "/>
<path class="st5" d="M838.5,125c0,0-6.3,4.9-13.9,10.3c-8.4,1.9-18.1,3.5-25.2,4.5c2.5-8,1-17-1.8-24.9c10.3-3,25.1-6.9,30.8-10
	C830.9,112,834.3,118.7,838.5,125z"/>
<path class="st9" d="M830,105.3c0,0,7.1,16.1,11.5,23.3s-51.8,14-51.8,14s-5.8-20.2-3.1-22.5S825.3,110,830,105.3z"/>
<path class="st5" d="M845.2,284.7c-2.4,4.2-5.3,8-8.8,11.3c-24.9,23.6-65.6-1-84-14.5c26.7-6.9,41.7-14.7,41.7-14.7
	s42.3-3.8,49.5,10.6C844.7,279.7,845.2,282.2,845.2,284.7z"/>
<path class="st10" d="M836.6,294.3c-28.3,26.8-77-8.7-90.1-19.2c-2.1-1.7-3.3-2.8-3.3-2.8c5.2-4.9,9.8-15.2,13.4-27.8
	c3.4-12.1,5.8-24.4,7.3-36.8c2.5-21,9.9-41.2,21.5-58.8c1.5-2.3,3-4.5,4.5-6.3c10.7-13.6,28.6-22.2,28.6-22.2
	c37.8-11.1,42.9,45.1,41.9,46.7S869.4,263.1,836.6,294.3z"/>
<path class="st5" d="M840.2,217.6c0,0-24.3,59.4-34.1,62.8c-5.6,1.9-35.3-1.7-59.7-5.2c-2.1-1.7-3.3-2.8-3.3-2.8
	c5.2-4.9,9.8-15.2,13.4-27.8l31.5,1.5c0,0-1.8-18.1,2.9-58.8s30.2-30.6,30.2-30.6C863.4,170.9,840.2,217.6,840.2,217.6z"/>
<polygon class="st5" points="715.9,265.2 710.4,264.7 709,241.4 713.8,241.9 "/>
<path class="st10" d="M820.4,154.1c0,0-25.6-10.1-30.2,30.6s-2.9,58.8-2.9,58.8l-76.7-3.7l1.7,27.6c0,0,83.5,13.7,93.2,10.3
	s34.1-62.8,34.1-62.8S862.7,168.3,820.4,154.1z"/>
<path class="st5" d="M822.1,93.9c-1.1-6.1,5.2-6,7.5-11.7l-42.3,13.2c2.9,3.9,5.6,8.1,7.8,12.5c2.2,0.7,4.4,1.1,6.7,1.3
	C812,110.1,815.1,100.2,822.1,93.9z"/>
<ellipse transform="matrix(9.202298e-02 -0.9958 0.9958 9.202298e-02 658.5434 863.5995)" class="st8" cx="802.8" cy="70.7" rx="35" ry="35"/>
<path class="st5" d="M768.3,39.1c0.4,3.6,4.3,5.9,7.8,6.7c3.6,0.8,7.4,0.9,10.6,2.8c5,3.1,6.3,9.9,5.7,15.8
	c-0.3,3.3-0.8,7.4,1.9,9.3c0.9,0.5,1.8,0.9,2.8,1c2.8,0.6,5.7,0.7,8.6,0.3c1.7-0.2,3.4-0.6,5-0.1c2.6,0.8,4.2,3.5,4.7,6.2
	s0.2,5.5,0.6,8.1c1.2,6.9,6.5,12.4,13.3,13.7c1.6,0.4,3.2,0.2,4.7-0.4c1.9-1,2.9-3.1,3.7-5.1l6-14.4c2.7-6.5,5.4-13,6.9-19.9
	c2.1-10.3,1.3-21.1-2.4-30.9c-1.4-3.8-3.4-7.5-6.7-9.8c-6.7-4.5-16-1.4-23.6-4c-2.5-0.9-4.8-2.4-7.3-3.2c-5.4-1.9-11.5-0.9-16.7,1.5
	s-9.4,6.3-14,9.8C776,29.6,767.6,32.8,768.3,39.1z"/>
<path class="st14" d="M769.2,38.3c0.4,3.6,4.3,5.9,7.8,6.7c3.6,0.8,7.4,0.9,10.6,2.8c5,3.1,6.3,9.9,5.7,15.8
	c-0.3,3.3-0.8,7.4,1.9,9.3c0.9,0.5,1.8,0.9,2.8,1c2.8,0.6,5.7,0.7,8.6,0.3c1.7-0.2,3.4-0.6,5-0.1c2.6,0.8,4.2,3.5,4.7,6.2
	s0.2,5.5,0.6,8.1c1.2,6.9,6.5,12.4,13.3,13.7c1.6,0.4,3.2,0.2,4.7-0.4c1.9-1,2.9-3.1,3.7-5.1l6-14.4c2.7-6.5,5.4-13,6.9-19.9
	c2.1-10.3,1.3-21.1-2.4-30.9c-1.4-3.8-3.4-7.5-6.7-9.8c-6.7-4.5-16-1.4-23.6-4c-2.5-0.9-4.8-2.4-7.3-3.2c-5.4-1.9-11.5-0.9-16.7,1.5
	s-9.4,6.3-14,9.8C776.9,28.8,768.5,32.1,769.2,38.3z"/>
<path class="st5" d="M798.2,176.5c0,0-13.3,51.9-26.6,56.7c-13.3,4.8-7.4,6.2-7.4,6.2"/>
<rect x="784.3" y="366.4" class="st2" width="14.5" height="95.4"/>
<rect x="784.3" y="366.4" class="st5" width="14.5" height="7.1"/>
<path class="st2" d="M755.3,365.9v2c0,2.6,2.1,4.7,4.7,4.7l0,0h63.2c2.6,0,4.7-2.1,4.7-4.7l0,0v-2c0-2.6-2.1-4.7-4.7-4.7l0,0H760
	C757.4,361.2,755.3,363.3,755.3,365.9L755.3,365.9z"/>
<path class="st5" d="M756.4,363h70.4c-0.9-1.1-2.2-1.7-3.6-1.7H760C758.6,361.2,757.3,361.9,756.4,363z"/>
<path class="st2" d="M737.5,456.6h108.2c3,0,5.5,2.5,5.5,5.5v0.4c0,3-2.5,5.5-5.5,5.5H737.5c-3,0-5.5-2.5-5.5-5.5v-0.4
	C732,459.1,734.4,456.6,737.5,456.6z"/>
<circle class="st4" cx="844.5" cy="475.3" r="7.3"/>
<circle class="st4" cx="738.7" cy="475.3" r="7.3"/>
<circle class="st4" cx="791.6" cy="475.3" r="7.3"/>
<path class="st2" d="M784.7,249.3h97c4.7,0,8.5,3.8,8.5,8.5v0.6c0,4.7-3.8,8.5-8.5,8.5h-97c-4.7,0-8.5-3.8-8.5-8.5v-0.6
	C776.2,253.1,780,249.3,784.7,249.3z"/>
<path class="st5" d="M798.8,456.6c0,0-5.7,5.6-14.5,0"/>
<path class="st5" d="M890.2,258.3v1.4c0,4-3.2,7.3-7.3,7.3h-99.5c-4,0-7.3-3.2-7.3-7.3v-1.4H890.2z"/>
<rect x="680.9" y="274.5" class="st2" width="19.6" height="249.9"/>
<rect x="680.9" y="274.5" class="st5" width="19.6" height="16.2"/>
<rect x="91.4" y="373.3" class="st2" width="14.5" height="95.4"/>
<rect x="91.4" y="373.3" class="st5" width="14.5" height="7.1"/>
<path class="st2" d="M134.9,372.8v2c0,2.6-2.1,4.7-4.7,4.7l0,0H67c-2.6,0-4.7-2.1-4.7-4.7l0,0v-2c0-2.6,2.1-4.7,4.7-4.7h63.2
	C132.8,368.1,134.9,370.2,134.9,372.8L134.9,372.8L134.9,372.8z"/>
<path class="st5" d="M133.8,369.8H63.4c0.9-1.1,2.2-1.7,3.6-1.7h63.2C131.6,368.1,132.9,368.7,133.8,369.8z"/>
<path class="st2" d="M44.5,463.4h108.2c3,0,5.5,2.5,5.5,5.5v0.4c0,3-2.5,5.5-5.5,5.5H44.5c-3,0-5.5-2.5-5.5-5.5v-0.4
	C39,465.9,41.5,463.4,44.5,463.4z"/>
<circle class="st4" cx="45.8" cy="482.1" r="7.3"/>
<circle class="st4" cx="151.5" cy="482.1" r="7.3"/>
<circle class="st4" cx="98.6" cy="482.1" r="7.3"/>
<path class="st5" d="M91.4,463.4c0,0,5.7,5.6,14.5,0"/>
<path class="st15" d="M461.5,176.3c0,0-16.3-29.6-10.3-55.3c2.6-10.8,1.6-22.1-2.8-32.2c-2.1-4.8-4.7-9.4-7.6-13.7"/>
<path class="st10" d="M444.3,58.8c0.8,3.9-3.7,16.7-3.7,16.7s-9.5-9.7-10.3-13.6c-1.2-3.8,1-7.8,4.8-9s7.8,1,9,4.8
	C444.1,58.1,444.2,58.4,444.3,58.8L444.3,58.8z"/>
<path class="st10" d="M460.7,77.7c-1.4,3.7-12.2,12-12.2,12s-2.7-13.3-1.3-17c1.2-3.8,5.3-5.8,9.1-4.6c3.8,1.2,5.8,5.3,4.6,9.1
	C460.8,77.4,460.7,77.6,460.7,77.7L460.7,77.7z"/>
<path class="st10" d="M468.2,114.6c-3.1,2.5-16.5,4.2-16.5,4.2s4.4-12.8,7.5-15.4c3.1-2.5,7.6-2.1,10.1,0.9
	C471.8,107.4,471.4,111.9,468.2,114.6C468.3,114.5,468.3,114.5,468.2,114.6z"/>
<path class="st10" d="M467.7,143.7c-2.6,3-15.6,6.9-15.6,6.9s2.2-13.4,4.8-16.4c2.5-3.1,7-3.5,10.1-1s3.5,7,1,10.1
	C467.9,143.5,467.8,143.6,467.7,143.7L467.7,143.7z"/>
<path class="st10" d="M433.9,93.7c3.4,2.1,17,2,17,2s-6-12.2-9.4-14.3c-3.3-2.2-7.8-1.3-10,2.1c-2.2,3.3-1.3,7.8,2.1,10
	C433.7,93.5,433.8,93.6,433.9,93.7L433.9,93.7z"/>
<path class="st10" d="M433.7,127.8c3.8,1,16.8-3.1,16.8-3.1s-9.4-9.8-13.2-10.8c-3.9-0.8-7.7,1.7-8.5,5.5
	C428,123.1,430.1,126.7,433.7,127.8z"/>
<path class="st10" d="M438.1,161c3.6,1.6,17.1-0.2,17.1-0.2s-7.6-11.3-11.2-12.9c-3.6-1.6-7.9,0-9.5,3.6S434.4,159.4,438.1,161
	L438.1,161z"/>
<path class="st10" d="M444.3,58.8c0.8,3.9-3.7,16.7-3.7,16.7s-9.5-9.7-10.3-13.6c-1.2-3.8,1-7.8,4.8-9s7.8,1,9,4.8
	C444.1,58.1,444.2,58.4,444.3,58.8L444.3,58.8z"/>
<path class="st10" d="M460.7,77.7c-1.4,3.7-12.2,12-12.2,12s-2.7-13.3-1.3-17c1.2-3.8,5.3-5.8,9.1-4.6c3.8,1.2,5.8,5.3,4.6,9.1
	C460.8,77.4,460.7,77.6,460.7,77.7L460.7,77.7z"/>
<path class="st10" d="M468.2,114.6c-3.1,2.5-16.5,4.2-16.5,4.2s4.4-12.8,7.5-15.4c3.1-2.5,7.6-2.1,10.1,0.9
	C471.8,107.4,471.4,111.9,468.2,114.6C468.3,114.5,468.3,114.5,468.2,114.6z"/>
<path class="st10" d="M467.7,143.7c-2.6,3-15.6,6.9-15.6,6.9s2.2-13.4,4.8-16.4c2.5-3.1,7-3.5,10.1-1s3.5,7,1,10.1
	C467.9,143.5,467.8,143.6,467.7,143.7L467.7,143.7z"/>
<path class="st10" d="M433.9,93.7c3.4,2.1,17,2,17,2s-6-12.2-9.4-14.3c-3.3-2.2-7.8-1.3-10,2.1c-2.2,3.3-1.3,7.8,2.1,10
	C433.7,93.5,433.8,93.6,433.9,93.7L433.9,93.7z"/>
<path class="st10" d="M433.7,127.8c3.8,1,16.8-3.1,16.8-3.1s-9.4-9.8-13.2-10.8c-3.9-0.8-7.7,1.7-8.5,5.5
	C428,123.1,430.1,126.7,433.7,127.8z"/>
<path class="st10" d="M438.1,161c3.6,1.6,17.1-0.2,17.1-0.2s-7.6-11.3-11.2-12.9c-3.6-1.6-7.9,0-9.5,3.6S434.4,159.4,438.1,161
	L438.1,161z"/>
<path class="st10" d="M454.9,258.4L454.9,258.4c-9.5,0-17.1-7.7-17.1-17.1c0-0.4,0-0.7,0-1.1l4.8-75.9h24.6l4.8,75.9
	c0.6,9.4-6.6,17.6-16,18.2C455.6,258.4,455.3,258.4,454.9,258.4z"/>
<linearGradient id="SVGID_2_" gradientUnits="userSpaceOnUse" x1="187.9047" y1="-24.5584" x2="187.9047" y2="486.9701" gradientTransform="matrix(1 0 0 -1 -39.7 486.9701)">
	<stop  offset="0" style="stop-color:#808080;stop-opacity:0.25"/>
	<stop  offset="0.54" style="stop-color:#808080;stop-opacity:0.12"/>
	<stop  offset="1" style="stop-color:#808080;stop-opacity:0.1"/>
</linearGradient>
<path class="st16" d="M247.6,483.3l-25.4-16.2c-0.1-22.8-0.5-128.8,4.3-143c1.2-4.1,1.3-8.5,0.2-12.6c-3.3-14.4-15.3-25.2-29.9-27.5
	c-13.8-2.2-33.6-5.9-49.5-10.6c14.2-1.5,24.9-2.7,24.9-2.7l0.3-2.6l9.1-0.4v-0.4l0.9,0c21.4-1.3,66.8-5.5,51.3-18.2
	c-5.3-4.3-12.2-6.4-19.5-7.1c22.3-5.1,57-14.9,41.5-24.2c-14.7-8.8-37.3-1.9-50.8,3.7l-0.8,0.4l-0.1-1.2l-5.4,1.1l0,0l-1.7,0.3
	l-0.1-1.8l-75.5,11.7c-0.6-8.6-1.6-17.3-3.1-25.8c1.7-11.3,9.5-27.7,6.8-36.5c-3.2-10.2-16.4-13.6-22-22.8c-1.5-2.4-2.9-4.7-4.3-6.6
	c-3.1-4.2-6.7-8.1-10.6-11.5c0.2-5.9,1.6-11.8,3.9-17.3c1.5-3.7,3.3-7.2,5.3-10.6c18.3-4.5,29.8-22.5,26.4-41
	c4.8,2,10.6,2.3,13.6-1.7l-1.4-0.6c0.1-0.1,0.3-0.3,0.4-0.5c-2.9-1.1-6-2.4-8.3-4.4c-0.6-0.6-1.1-1.4-1.5-2.1
	c-1.4-2.8-1.2-6.2-2.5-9c-0.6-1.3-1.5-2.4-2.6-3.4c-2.3-2.4-5.2-4-8.5-4.8c-3.6-1.1-7.4-1.6-10.9-3c-9.6-11.2-25-15.5-39.1-11
	l-1.3,0.4C63.5,10.8,57.9,2.2,49,0.3C40.4-1.4,32,3.9,29.9,12.4c0.3-3.6,1.9-7.1,4.4-9.7c-0.3,0.2-0.5,0.4-0.8,0.7
	c-6.6,6.2-6.9,16.5-0.7,23.1c0,0,0,0,0,0l0.3,0.3c1.2,1.4,2.5,2.6,4.1,3.6c-5.8-2.1-10-7.2-10.8-13.4c0,0.3,0,0.7,0,1
	c0.5,9,8.2,15.9,17.2,15.3c0,0,0.1,0,0.1,0l0.4-0.1l-0.2,0.3c-9.6,14.1-8.2,32.9,3.3,45.5c0.7,1.5,1.5,2.9,2.6,4.2
	c0.4,0.4,0.8,0.8,1.2,1.2c2.7,2.9,6.5,4.6,10.5,4.8c0.7,0.8,1.4,1.6,2.1,2.3c-0.7,2.8-1.5,5.6-2.6,8.2c-2.1,5.3-4.8,10.5-7.9,15.3
	c-21.6,6.1-23.5,42.8-22.7,44.2c0.9,1.7-3.2,59.3,12.8,128.8c-0.7,19.9,10.9,52.8,52.1,44.1c51.5,2.8,68.4,10.6,68.4,10.6
	s-4.9,89.6,2.1,102.6c4.4,8.2,1.3,20.2-2,28.6c-1.2,2.1-2.2,4.3-2.9,6.6c-1,2.1-1.7,3.4-1.7,3.4h0.7c-2.6,9.2-4.5,20.2-4.5,20.2
	s62.4,12.7,89.9,4.4c10.7-3.2,11.1-6.2,7.6-8.7c2.5-0.4,5.1-0.9,7.5-1.7C287.9,490.1,247.6,483.3,247.6,483.3z"/>
<path class="st17" d="M111.7,58.1c0,19.9-16.1,36-36,36s-36-16.1-36-36s16.1-36,36-36S111.7,38.2,111.7,58.1z"/>
<path class="st8" d="M192.8,227.2l3.6,18.2c0,0,4.1-0.7,10.1-2c20.5-4.4,63.9-15.1,47.1-25.1c-14.5-8.6-36.6-1.8-49.8,3.7
	c-4.8,2-8.5,3.9-10.1,4.7C193.1,227.1,192.8,227.2,192.8,227.2z"/>
<path class="st5" d="M193.8,232.4l2.6,13.1c0,0,4.1-0.7,10.1-2l-2.7-21.5c-4.8,2-8.5,3.9-10.1,4.7L193.8,232.4z"/>
<polygon class="st9" points="193.2,246.6 205.7,244.1 202.9,221.2 192.9,223.2 "/>
<polygon class="st5" points="193.2,246.6 198.6,245.5 197.6,222.2 192.9,223.2 "/>
<path class="st10" d="M77.6,147.1c0,0,24.4-12.7,33.3,27.3s9,58.2,9,58.2l75.9-11.7l1.2,27.6c0,0-81.6,22.4-91.6,20.1
	s-40.5-58.9-40.5-58.9S37,165.7,77.6,147.1z"/>
<g class="st11">
	<path d="M192.8,227.2l3.6,18.2c0,0,4.1-0.7,10.1-2c20.5-4.4,63.9-15.1,47.1-25.1c-14.5-8.6-36.6-1.8-49.8,3.7
		c-4.8,2-8.5,3.9-10.1,4.7C193.1,227.1,192.8,227.2,192.8,227.2z"/>
	<path class="st5" d="M193.8,232.4l2.6,13.1c0,0,4.1-0.7,10.1-2l-2.7-21.5c-4.8,2-8.5,3.9-10.1,4.7L193.8,232.4z"/>
	<polygon points="193.2,246.6 205.7,244.1 202.9,221.2 192.9,223.2 	"/>
	<polygon class="st5" points="193.2,246.6 198.6,245.5 197.6,222.2 192.9,223.2 	"/>
	<path d="M79.6,149.1c0,0,24.4-12.7,33.3,27.3s9,58.2,9,58.2l75.9-11.7l1.2,27.6c0,0-81.6,22.4-91.6,20.1s-40.5-58.9-40.5-58.9
		S39,167.7,79.6,149.1z"/>
</g>
<path class="st18" d="M215.7,459.8l29.9,19c0,0,39.6,6.6,12.7,14.8s-88.1-4.3-88.1-4.3s4.6-27.5,9.6-31.2S215.7,459.8,215.7,459.8z"
	/>
<path class="st19" d="M104.7,256c0,0,14.9,8.7,41.8,16.8c15.7,4.8,35.5,8.4,49.2,10.6c14.4,2.2,25.9,12.9,29.4,27
	c1.1,4.1,1,8.3-0.2,12.4c-5.2,15.6-4.2,144.5-4.2,144.5l-46.8,2.3c0,0,7.4-23.4-1.7-35.8s6.2-102.7,6.2-102.7s-16.6-7.7-67.1-10.4
	c-47.3,10-64.3-42.1-56.5-56.2S104.7,256,104.7,256z"/>
<g class="st11">
	<path d="M215.7,459.8l29.9,19c0,0,39.6,6.6,12.7,14.8s-88.1-4.3-88.1-4.3s4.6-27.5,9.6-31.2S215.7,459.8,215.7,459.8z"/>
	<path d="M104.7,256c0,0,14.9,8.7,41.8,16.8c15.7,4.8,35.5,8.4,49.2,10.6c14.4,2.2,25.9,12.9,29.4,27c1.1,4.1,1,8.3-0.2,12.4
		c-5.2,15.6-4.2,144.5-4.2,144.5l-46.8,2.3c0,0,7.4-23.4-1.7-35.8s6.2-102.7,6.2-102.7s-16.6-7.7-67.1-10.4
		c-47.3,10-64.3-42.1-56.5-56.2S104.7,256,104.7,256z"/>
</g>
<path class="st18" d="M200.8,469.9l29.9,19c0,0,39.6,6.6,12.7,14.8s-88.1-4.3-88.1-4.3s4.6-27.5,9.6-31.2S200.8,469.9,200.8,469.9z"
	/>
<path class="st19" d="M96.4,330.7c50.5,2.7,67.1,10.4,67.1,10.4s-4.8,87.8,2,100.6c7.3,13.6-6.5,37.9-6.5,37.9l46.8-2.3
	c0,0,0-1.5,0-4.2c-0.1-22.4-0.5-126.3,4.2-140.2c1.2-4,1.3-8.3,0.2-12.4c-3.4-14.1-15-24.8-29.4-27c-13.7-2.2-33.5-5.9-49.2-10.6
	l-0.8-0.2c-26.4-8-41-16.5-41-16.5s-31.2-2.2-39,11.9c-1,1.8-5.3,5.4-5.5,8.3C44.2,305.6,55.2,339.4,96.4,330.7z"/>
<path class="st8" d="M170.5,248.7l0.9,18.6c0,0,4.1-0.1,10.3-0.5c21-1.3,65.5-5.4,50.3-17.8c-13-10.7-35.9-7.3-49.8-3.8
	c-5.1,1.3-9,2.6-10.7,3.2C170.9,248.6,170.5,248.7,170.5,248.7z"/>
<path class="st8" d="M51.7,122.4c0,0,6,5.2,13.4,10.9c8.3,2.3,18,4.3,24.9,5.6c-2.1-8.1-0.2-17,2.9-24.8c3.4-8.1,8-15.7,13.6-22.5
	L64.9,76.5c2.9,8.5,1,18.1-2.2,26.3C59.9,109.8,56.2,116.4,51.7,122.4z"/>
<path class="st5" d="M170.8,253.9l0.6,13.3c0,0,4.1-0.1,10.3-0.5l0.6-21.6c-5.1,1.3-9,2.6-10.7,3.2L170.8,253.9z"/>
<polygon class="st9" points="168,267.9 180.8,267.3 181.4,244.2 171.2,244.7 "/>
<path class="st10" d="M46.3,291.7c27,28.1,77.4-5.3,90.9-15.2c2.2-1.6,3.4-2.6,3.4-2.6c-5-5.1-13-9.8-16.1-22.5
	c-2.9-13-4.9-26.2-5.9-39.5c-0.8-10.5,10.1-30.6,6.9-40.7s-16.1-13.3-21.6-22.4c-1.4-2.4-2.9-4.6-4.3-6.5
	c-10.1-14-27.6-23.4-27.6-23.4c-37.3-12.8-40.3,40.6-39.3,42.3S29.4,221.6,46.3,291.7z"/>
<path class="st5" d="M46,214.9c0,0,21.7,60.4,31.3,64.2c5.5,2.2,35.4-0.2,59.9-2.6c2.2-1.6,3.4-2.6,3.4-2.6
	c-5-5.1-9.1-15.6-12.1-28.3L97,245.7c0,0,2.5-18-0.3-58.9s-28.9-31.9-28.9-31.9C24.9,167.2,46,214.9,46,214.9z"/>
<polygon class="st5" points="168,267.9 173.6,267.6 176,244.5 171.2,244.7 "/>
<path class="st10" d="M68.6,152.3c0,0,26-8.9,28.9,31.9s0.3,58.9,0.3,58.9l76.8-0.3l-3,27.5c0,0-84,10-93.6,6.2
	s-31.3-64.2-31.3-64.2S25.6,164.6,68.6,152.3z"/>
<path class="st5" d="M69.5,92.1c1.4-6-5-6.2-7-12l41.7,15c-3.1,3.8-5.9,7.9-8.4,12.1c-2.2,0.6-4.5,0.9-6.8,1
	C78.9,108.7,76.2,98.7,69.5,92.1z"/>
<circle class="st8" cx="89.8" cy="69.8" r="35"/>
<path class="st5" d="M71.7,178.3c0,0,11.1,52.4,24.1,57.7s7.1,6.5,7.1,6.5"/>
<path class="st5" d="M117.3,207.8c0,0-9.2,2.9-20-10.9"/>
<circle class="st17" cx="47.7" cy="21.1" r="16"/>
<path class="st17" d="M36.5,29.6c-5.8-6.2-5.8-15.7,0-21.9c-0.3,0.2-0.5,0.4-0.8,0.6C29.3,14.4,29,24.5,35,30.9
	c6.1,6.4,16.2,6.8,22.6,0.7l0,0c0.3-0.2,0.5-0.5,0.7-0.7C51.8,36.3,42.3,35.7,36.5,29.6z"/>
<path class="st17" d="M45.6,35.6c-8.4,0.5-15.8-5.6-16.8-14c0,0.3,0,0.7,0,1c0.6,8.8,8.2,15.5,17,15s15.5-8.2,15-17
	c0-0.3-0.1-0.7-0.1-1C60.6,28.1,54.1,35.1,45.6,35.6z"/>
<path class="st5" d="M102.7,35c3.7,1.8,8,2.4,12,3.5s8.1,3.3,9.8,7.1c1.3,2.8,1.1,6.1,2.5,8.8c1.9,4,6.4,5.8,10.5,7.4
	c-3.5,4.8-11.1,3.5-16.1,0.2s-9.2-8-15-9.3c-5.8-1.2-11.8,1.5-14.8,6.6c-1.6,2.8-2.1,6-2.9,9.1c-2,8.1-6,16.2-13,20.8
	s-17.4,4.6-22.9-1.7c-3.2-3.7-4.3-8.7-5.2-13.5c-0.5-2.2-0.8-4.5-0.8-6.8c0.3-5.7,4.1-10.6,8-14.9c4.6-5,9.4-9.8,14.2-14.6
	c4.2-4.1,9-11.1,15.3-11.6C91.6,25.6,96.7,32.1,102.7,35z"/>
<path class="st17" d="M101.7,34c3.7,1.8,8,2.4,12,3.5s8.1,3.3,9.8,7.1c1.3,2.8,1.1,6.1,2.5,8.8c1.9,4,6.4,5.8,10.5,7.4
	c-3.5,4.8-11.1,3.5-16.1,0.2s-9.2-8-15-9.3c-5.8-1.2-11.8,1.5-14.8,6.6c-1.6,2.8-2.1,6-2.9,9.1c-2,8.1-6,16.2-13,20.8
	s-17.4,4.6-22.9-1.7c-3.2-3.7-4.3-8.7-5.2-13.5c-0.5-2.2-0.8-4.5-0.8-6.8c0.3-5.7,4.1-10.6,8-14.9c4.6-5,9.4-9.8,14.2-14.6
	c4.2-4.1,9-11.1,15.3-11.6C90.6,24.6,95.7,31.1,101.7,34z"/>
<path class="st2" d="M8.5,256.1h97c4.7,0,8.5,3.8,8.5,8.5v0.6c0,4.7-3.8,8.5-8.5,8.5h-97c-4.7,0-8.5-3.8-8.5-8.5v-0.6
	C0,259.9,3.8,256.1,8.5,256.1z"/>
<path class="st5" d="M0,265.1v1.4c0,4,3.2,7.3,7.3,7.3h99.5c4,0,7.3-3.2,7.3-7.3v-1.4H0z"/>
<rect x="200.8" y="274.5" class="st2" width="19.6" height="249.8"/>
<rect x="200.8" y="274.5" class="st5" width="19.6" height="16.2"/>
<rect x="191.4" y="256.6" class="st2" width="518.4" height="32.4"/>
</svg>
