<?xml version="1.0" encoding="utf-8"?>
<!-- Generator: Adobe Illustrator 22.1.0, SVG Export Plug-In . SVG Version: 6.00 Build 0)  -->
<svg version="1.1" id="Layer_1" xmlns="http://www.w3.org/2000/svg" xmlns:xlink="http://www.w3.org/1999/xlink" x="0px" y="0px"
	 viewBox="0 0 150 150" style="enable-background:new 0 0 150 150;" xml:space="preserve">
<style type="text/css">
	.st0{fill:none;stroke:#151B26;stroke-width:2;stroke-linecap:round;stroke-linejoin:round;stroke-miterlimit:10;}
</style>
<g>
	<g>
		<path class="st0" d="M42.4,56.1c0,1.6-1.3,2.8-2.8,2.8c-1.6,0-2.8-1.3-2.8-2.8c0-1.6,1.3-2.8,2.8-2.8
			C41.1,53.3,42.4,54.6,42.4,56.1z"/>
		<path class="st0" d="M55.7,56.1c0,1.6-1.3,2.8-2.8,2.8c-1.6,0-2.8-1.3-2.8-2.8c0-1.6,1.3-2.8,2.8-2.8
			C54.5,53.3,55.7,54.6,55.7,56.1z"/>
		<path class="st0" d="M69.1,56.1c0,1.6-1.3,2.8-2.8,2.8s-2.8-1.3-2.8-2.8c0-1.6,1.3-2.8,2.8-2.8S69.1,54.6,69.1,56.1z"/>
	</g>
	<g>
		<circle class="st0" cx="110.3" cy="94" r="2.8"/>
		<circle class="st0" cx="96.9" cy="94" r="2.8"/>
		<circle class="st0" cx="83.6" cy="94" r="2.8"/>
	</g>
	<path class="st0" d="M121.2,81c0.8,1.4,1.4,2.9,2,4.5"/>
	<path class="st0" d="M91.9,67.2c9.8-1.9,19.5,1.8,25.7,8.7"/>
	<path class="st0" d="M90.5,59.5c18.8-3.6,37,8.8,40.5,27.6c1.8,9.7-0.6,19.2-5.9,26.7l5.1,15.3l-16.3-5.3
		c-3.2,1.8-6.7,3.1-10.6,3.9c-18.8,3.6-37-8.8-40.5-27.6C59.3,81.2,71.7,63.1,90.5,59.5z"/>
	<path class="st0" d="M87.3,60.3c2.4-18.1-9.7-35.2-27.9-38.6c-18.8-3.6-37,8.8-40.5,27.6C17,59,19.4,68.5,24.8,76l-5.1,15.3
		L35.9,86c3.2,1.8,6.7,3.1,10.6,3.9c5.5,1,11,0.7,16.1-0.8"/>
</g>
</svg>
