<?xml version="1.0" encoding="utf-8"?>
<!-- Generator: Adobe Illustrator 22.1.0, SVG Export Plug-In . SVG Version: 6.00 Build 0)  -->
<svg version="1.1" id="Layer_1" xmlns="http://www.w3.org/2000/svg" xmlns:xlink="http://www.w3.org/1999/xlink" x="0px" y="0px"
	 viewBox="0 0 150 150" style="enable-background:new 0 0 150 150;" xml:space="preserve">
<style type="text/css">
	.st0{fill:none;stroke:#21C87A;stroke-width:2;stroke-linecap:round;stroke-linejoin:round;stroke-miterlimit:10;}
</style>
<g>
	<g>
		<line class="st0" x1="75" y1="42.1" x2="75" y2="40.8"/>
		<line class="st0" x1="75" y1="37.3" x2="75" y2="37.3"/>
		<line class="st0" x1="91.8" y1="30.3" x2="96.1" y2="28.5"/>
		<line class="st0" x1="58.2" y1="30.3" x2="53.9" y2="28.5"/>
		<line class="st0" x1="91.8" y1="44.2" x2="96.1" y2="46"/>
		<line class="st0" x1="58.2" y1="44.2" x2="53.9" y2="46"/>
		<g>
			<line class="st0" x1="82" y1="20.4" x2="83.7" y2="16.2"/>
		</g>
		<g>
			<line class="st0" x1="66.3" y1="16.2" x2="68" y2="20.4"/>
		</g>
		<g>
			<line class="st0" x1="58.9" y1="21.1" x2="62.1" y2="24.4"/>
		</g>
		<g>
			<line class="st0" x1="91.2" y1="21.1" x2="87.9" y2="24.4"/>
		</g>
		<line class="st0" x1="58.9" y1="53.4" x2="62.1" y2="50.1"/>
		<line class="st0" x1="91.2" y1="53.4" x2="87.9" y2="50.1"/>
		<g>
			<line class="st0" x1="75" y1="14.4" x2="75" y2="19"/>
		</g>
		<g>
			<line class="st0" x1="93.2" y1="37.3" x2="97.8" y2="37.3"/>
		</g>
		<g>
			<line class="st0" x1="52.2" y1="37.3" x2="56.8" y2="37.3"/>
		</g>
		<path class="st0" d="M81.8,53.1v-5c3.6-2.3,6-6.3,6-10.9c0-7.1-5.8-12.8-12.8-12.8s-12.8,5.8-12.8,12.8c0,4.6,2.4,8.6,6,10.9v5"/>
		<line class="st0" x1="75" y1="46.2" x2="75" y2="57.7"/>
		<line class="st0" x1="81.8" y1="57.7" x2="68.2" y2="57.7"/>
		<line class="st0" x1="71.8" y1="62.9" x2="78.2" y2="62.9"/>
		<path class="st0" d="M79.6,42.2c1.3-1.2,2.2-3,2.2-5c0-3.8-3-6.8-6.8-6.8c-3.8,0-6.8,3-6.8,6.8c0,2,0.9,3.7,2.2,5"/>
	</g>
	<polyline class="st0" points="112.1,86.6 112.1,135.6 38.6,135.6 38.6,86.6 	"/>
	<path class="st0" d="M54.9,86.6v21.8l2.3-1.9c0.8-0.6,1.9-0.6,2.7,0l0.7,0.6c0.9,0.7,2.2,0.6,3-0.2l0,0c0.8-0.8,2.1-0.9,3-0.2
		l2.1,1.7V86.6"/>
	<line class="st0" x1="68.9" y1="125.6" x2="54.7" y2="125.6"/>
	<line class="st0" x1="68.9" y1="120.9" x2="64.3" y2="120.9"/>
	<line class="st0" x1="60.6" y1="120.9" x2="54.7" y2="120.9"/>
	<line class="st0" x1="58.4" y1="86.6" x2="58.4" y2="99.3"/>
	<line class="st0" x1="86.9" y1="86.6" x2="86.9" y2="119.4"/>
	<line class="st0" x1="86.9" y1="126.1" x2="86.9" y2="135.6"/>
	<polyline class="st0" points="79.6,86.6 38.6,86.6 30.2,68.7 78.4,68.7 86.8,86.6 101.8,86.6 	"/>
	<line class="st0" x1="93.5" y1="72.1" x2="80.1" y2="72.1"/>
	<line class="st0" x1="96.8" y1="130.9" x2="111.8" y2="130.9"/>
	<line class="st0" x1="75.3" y1="73.3" x2="38.9" y2="73.3"/>
	<line class="st0" x1="118.3" y1="73.3" x2="98.4" y2="73.3"/>
	<path class="st0" d="M106,86.6c0,0,5.2,0,6,0l8.4-17.9H95.3l-8.4,17.9"/>
	<path class="st0" d="M34.3,48.7c-1.6-0.2-3.1-0.3-4.7-0.3"/>
	<path class="st0" d="M50.6,63.7c-0.8-5.3-4.4-10.1-9.1-12.7"/>
	<path class="st0" d="M110.2,58.9c1.9-2.1,4.6-3.1,7.4-3.1"/>
	<path class="st0" d="M106.8,68.3c0-1,0.2-1.9,0.4-2.9"/>
</g>
</svg>
