<?xml version="1.0" encoding="utf-8"?>
<!-- Generator: Adobe Illustrator 22.1.0, SVG Export Plug-In . SVG Version: 6.00 Build 0)  -->
<svg version="1.1" id="Layer_1" xmlns="http://www.w3.org/2000/svg" xmlns:xlink="http://www.w3.org/1999/xlink" x="0px" y="0px"
	 viewBox="0 0 150 150" style="enable-background:new 0 0 150 150;" xml:space="preserve">
<style type="text/css">
	.st0{fill:none;stroke:#21C87A;stroke-width:2;stroke-linecap:round;stroke-linejoin:round;stroke-miterlimit:10;}
</style>
<g>
	<g>
		<polyline class="st0" points="116,90.1 116,64.8 100.4,64.8 		"/>
		<polyline class="st0" points="119.5,86.5 115.8,90.1 112.2,86.5 		"/>
		<g>
			<polyline class="st0" points="35.3,90.1 35.3,64.8 50.9,64.8 			"/>
			<polyline class="st0" points="31.7,86.5 35.3,90.1 39,86.5 			"/>
		</g>
	</g>
	<line class="st0" x1="35.7" y1="133.7" x2="35.7" y2="118.9"/>
	<polyline class="st0" points="39.3,130.1 35.7,133.7 32,130.1 	"/>
	<g>
		<line class="st0" x1="115.5" y1="133.7" x2="115.5" y2="118.9"/>
		<polyline class="st0" points="119.1,130.1 115.5,133.7 111.8,130.1 		"/>
	</g>
	<rect x="60" y="16.3" class="st0" width="31.2" height="13.7"/>
	<polygon class="st0" points="95,64.8 75.6,79.5 56.2,64.8 75.6,50 	"/>
	<line class="st0" x1="75.6" y1="45.2" x2="75.6" y2="31.4"/>
	<path class="st0" d="M48.3,118.2H23c-1.6,0-2.9-1.3-2.9-2.9V98.9c0-1.6,1.3-2.9,2.9-2.9h25.3c1.6,0,2.9,1.3,2.9,2.9v16.4
		C51.3,116.9,50,118.2,48.3,118.2z"/>
	<path class="st0" d="M88.2,118.2H62.9c-1.6,0-2.9-1.3-2.9-2.9V98.9c0-1.6,1.3-2.9,2.9-2.9h25.3c1.6,0,2.9,1.3,2.9,2.9v16.4
		C91.2,116.9,89.9,118.2,88.2,118.2z"/>
	<path class="st0" d="M128.1,118.2h-25.3c-1.6,0-2.9-1.3-2.9-2.9V98.9c0-1.6,1.3-2.9,2.9-2.9h25.3c1.6,0,2.9,1.3,2.9,2.9v16.4
		C131.1,116.9,129.8,118.2,128.1,118.2z"/>
	<g>
		<line class="st0" x1="69.7" y1="23.1" x2="70.5" y2="23.1"/>
		<line class="st0" x1="75.2" y1="23.1" x2="76" y2="23.1"/>
		<line class="st0" x1="80.7" y1="23.1" x2="81.4" y2="23.1"/>
	</g>
	<polyline class="st0" points="79.2,41.5 75.6,45.2 71.9,41.5 	"/>
	<line class="st0" x1="75.6" y1="90.1" x2="75.6" y2="79.5"/>
	<polyline class="st0" points="79.2,86.5 75.6,90.1 71.9,86.5 	"/>
	<line class="st0" x1="52.1" y1="107.1" x2="60" y2="107.1"/>
	<line class="st0" x1="91.7" y1="107.1" x2="99.5" y2="107.1"/>
</g>
</svg>
