<?xml version="1.0" encoding="utf-8"?>
<!-- Generator: Adobe Illustrator 22.1.0, SVG Export Plug-In . SVG Version: 6.00 Build 0)  -->
<svg version="1.1" id="d26dba8d-8282-42fd-a478-7c8636ce52fe"
	 xmlns="http://www.w3.org/2000/svg" xmlns:xlink="http://www.w3.org/1999/xlink" x="0px" y="0px" viewBox="0 0 888 708.8"
	 style="enable-background:new 0 0 888 708.8;" xml:space="preserve">
<style type="text/css">
	.st0{opacity:0.5;fill:#E3E6F0;enable-background:new    ;}
	.st1{fill:url(#SVGID_1_);}
	.st2{fill:#EEEEEE;}
	.st3{fill:url(#SVGID_2_);}
	.st4{fill:#F5F5F5;}
	.st5{fill:url(#SVGID_3_);}
	.st6{fill:url(#SVGID_4_);}
	.st7{fill:url(#SVGID_5_);}
	.st8{fill:url(#SVGID_6_);}
	.st9{fill:url(#SVGID_7_);}
	.st10{fill:url(#SVGID_8_);}
	.st11{fill:url(#SVGID_9_);}
	.st12{fill:url(#SVGID_10_);}
	.st13{fill:#7CFCFF;}
	.st14{fill:url(#SVGID_11_);}
	.st15{fill:url(#SVGID_12_);}
	.st16{fill:url(#SVGID_13_);}
	.st17{fill:#FFFFA5;}
	.st18{fill:url(#SVGID_14_);}
	.st19{fill:url(#SVGID_15_);}
	.st20{fill:url(#SVGID_16_);}
	.st21{fill:url(#SVGID_17_);}
	.st22{fill:url(#SVGID_18_);}
	.st23{fill:url(#SVGID_19_);}
	.st24{fill:#FF69B4;}
	.st25{opacity:0.1;enable-background:new    ;}
	.st26{fill:url(#SVGID_20_);}
	.st27{fill:url(#SVGID_21_);}
	.st28{fill:url(#SVGID_22_);}
	.st29{fill:none;}
	.st30{fill:#FDA57D;}
	.st31{fill:#EDEEF9;}
	.st32{fill:#796EFF;}
	.st33{fill:#333333;}
	.st34{fill:#72351C;}
</style>
<ellipse class="st0" cx="444.3" cy="649.1" rx="441" ry="59.7"/>
<title>creation process</title>
<linearGradient id="SVGID_1_" gradientUnits="userSpaceOnUse" x1="444" y1="278.79" x2="444" y2="656" gradientTransform="matrix(1 0 0 -1 0 656)">
	<stop  offset="0" style="stop-color:#808080;stop-opacity:0.25"/>
	<stop  offset="0.54" style="stop-color:#808080;stop-opacity:0.12"/>
	<stop  offset="1" style="stop-color:#808080;stop-opacity:0.1"/>
</linearGradient>
<rect class="st1" width="888" height="377.2"/>
<rect x="9.9" y="2.7" class="st2" width="869.4" height="370"/>
<linearGradient id="SVGID_2_" gradientUnits="userSpaceOnUse" x1="565.575" y1="471.37" x2="565.575" y2="516.03" gradientTransform="matrix(1 0 0 -1 0 656)">
	<stop  offset="0" style="stop-color:#808080;stop-opacity:0.25"/>
	<stop  offset="0.54" style="stop-color:#808080;stop-opacity:0.12"/>
	<stop  offset="1" style="stop-color:#808080;stop-opacity:0.1"/>
</linearGradient>
<rect x="542.5" y="140" class="st3" width="46.1" height="44.7"/>
<rect x="543.3" y="140.7" class="st4" width="44.5" height="43.1"/>
<linearGradient id="SVGID_3_" gradientUnits="userSpaceOnUse" x1="296.265" y1="324.89" x2="296.265" y2="369.55" gradientTransform="matrix(1 0 0 -1 0 656)">
	<stop  offset="0" style="stop-color:#808080;stop-opacity:0.25"/>
	<stop  offset="0.54" style="stop-color:#808080;stop-opacity:0.12"/>
	<stop  offset="1" style="stop-color:#808080;stop-opacity:0.1"/>
</linearGradient>
<rect x="273.2" y="286.5" class="st5" width="46.1" height="44.7"/>
<rect x="274" y="287.2" class="st4" width="44.5" height="43.1"/>
<linearGradient id="SVGID_4_" gradientUnits="userSpaceOnUse" x1="698.585" y1="481.87" x2="698.585" y2="526.53" gradientTransform="matrix(1 0 0 -1 0 656)">
	<stop  offset="0" style="stop-color:#808080;stop-opacity:0.25"/>
	<stop  offset="0.54" style="stop-color:#808080;stop-opacity:0.12"/>
	<stop  offset="1" style="stop-color:#808080;stop-opacity:0.1"/>
</linearGradient>
<rect x="675.5" y="129.5" class="st6" width="46.1" height="44.7"/>
<rect x="676.3" y="130.2" class="st4" width="44.5" height="43.1"/>
<linearGradient id="SVGID_5_" gradientUnits="userSpaceOnUse" x1="565.745" y1="353.59" x2="565.745" y2="398.25" gradientTransform="matrix(1 0 0 -1 0 656)">
	<stop  offset="0" style="stop-color:#808080;stop-opacity:0.25"/>
	<stop  offset="0.54" style="stop-color:#808080;stop-opacity:0.12"/>
	<stop  offset="1" style="stop-color:#808080;stop-opacity:0.1"/>
</linearGradient>
<rect x="542.7" y="257.8" class="st7" width="46.1" height="44.7"/>
<rect x="543.5" y="258.5" class="st4" width="44.5" height="43.1"/>
<linearGradient id="SVGID_6_" gradientUnits="userSpaceOnUse" x1="272.775" y1="578.32" x2="272.775" y2="622.98" gradientTransform="matrix(1 0 0 -1 0 656)">
	<stop  offset="0" style="stop-color:#808080;stop-opacity:0.25"/>
	<stop  offset="0.54" style="stop-color:#808080;stop-opacity:0.12"/>
	<stop  offset="1" style="stop-color:#808080;stop-opacity:0.1"/>
</linearGradient>
<rect x="249.7" y="33" class="st8" width="46.1" height="44.7"/>
<rect x="250.5" y="33.8" class="st4" width="44.5" height="43.1"/>
<linearGradient id="SVGID_7_" gradientUnits="userSpaceOnUse" x1="721.325" y1="588.32" x2="721.325" y2="632.98" gradientTransform="matrix(1 0 0 -1 0 656)">
	<stop  offset="0" style="stop-color:#808080;stop-opacity:0.25"/>
	<stop  offset="0.54" style="stop-color:#808080;stop-opacity:0.12"/>
	<stop  offset="1" style="stop-color:#808080;stop-opacity:0.1"/>
</linearGradient>
<rect x="698.3" y="23" class="st9" width="46.1" height="44.7"/>
<rect x="699.1" y="23.8" class="st4" width="44.5" height="43.1"/>
<linearGradient id="SVGID_8_" gradientUnits="userSpaceOnUse" x1="830.505" y1="427.28" x2="830.505" y2="471.94" gradientTransform="matrix(1 0 0 -1 0 656)">
	<stop  offset="0" style="stop-color:#808080;stop-opacity:0.25"/>
	<stop  offset="0.54" style="stop-color:#808080;stop-opacity:0.12"/>
	<stop  offset="1" style="stop-color:#808080;stop-opacity:0.1"/>
</linearGradient>
<rect x="807.4" y="184.1" class="st10" width="46.1" height="44.7"/>
<rect x="808.2" y="184.8" class="st4" width="44.5" height="43.1"/>
<linearGradient id="SVGID_9_" gradientUnits="userSpaceOnUse" x1="107.185" y1="594.69" x2="107.185" y2="639.35" gradientTransform="matrix(1 0 0 -1 0 656)">
	<stop  offset="0" style="stop-color:#808080;stop-opacity:0.25"/>
	<stop  offset="0.54" style="stop-color:#808080;stop-opacity:0.12"/>
	<stop  offset="1" style="stop-color:#808080;stop-opacity:0.1"/>
</linearGradient>
<rect x="84.1" y="16.6" class="st11" width="46.1" height="44.7"/>
<rect x="84.9" y="17.4" class="st4" width="44.5" height="43.1"/>
<linearGradient id="SVGID_10_" gradientUnits="userSpaceOnUse" x1="627.605" y1="555.18" x2="627.605" y2="599.84" gradientTransform="matrix(1 0 0 -1 0 656)">
	<stop  offset="0" style="stop-color:#808080;stop-opacity:0.25"/>
	<stop  offset="0.54" style="stop-color:#808080;stop-opacity:0.12"/>
	<stop  offset="1" style="stop-color:#808080;stop-opacity:0.1"/>
</linearGradient>
<rect x="604.5" y="56.2" class="st12" width="46.1" height="44.7"/>
<rect x="605.3" y="56.9" class="st13" width="44.5" height="43.1"/>
<linearGradient id="SVGID_11_" gradientUnits="userSpaceOnUse" x1="348.285" y1="460.56" x2="348.285" y2="505.22" gradientTransform="matrix(1 0 0 -1 0 656)">
	<stop  offset="0" style="stop-color:#808080;stop-opacity:0.25"/>
	<stop  offset="0.54" style="stop-color:#808080;stop-opacity:0.12"/>
	<stop  offset="1" style="stop-color:#808080;stop-opacity:0.1"/>
</linearGradient>
<rect x="325.2" y="150.8" class="st14" width="46.1" height="44.7"/>
<rect x="326" y="151.6" class="st13" width="44.5" height="43.1"/>
<linearGradient id="SVGID_12_" gradientUnits="userSpaceOnUse" x1="503.865" y1="411.43" x2="503.865" y2="456.09" gradientTransform="matrix(1 0 0 -1 0 656)">
	<stop  offset="0" style="stop-color:#808080;stop-opacity:0.25"/>
	<stop  offset="0.54" style="stop-color:#808080;stop-opacity:0.12"/>
	<stop  offset="1" style="stop-color:#808080;stop-opacity:0.1"/>
</linearGradient>
<rect x="480.8" y="199.9" class="st15" width="46.1" height="44.7"/>
<rect x="481.6" y="200.7" class="st13" width="44.5" height="43.1"/>
<linearGradient id="SVGID_13_" gradientUnits="userSpaceOnUse" x1="557.795" y1="578.12" x2="557.795" y2="622.78" gradientTransform="matrix(1 0 0 -1 0 656)">
	<stop  offset="0" style="stop-color:#808080;stop-opacity:0.25"/>
	<stop  offset="0.54" style="stop-color:#808080;stop-opacity:0.12"/>
	<stop  offset="1" style="stop-color:#808080;stop-opacity:0.1"/>
</linearGradient>
<rect x="534.7" y="33.2" class="st16" width="46.1" height="44.7"/>
<rect x="535.5" y="34" class="st17" width="44.5" height="43.1"/>
<linearGradient id="SVGID_14_" gradientUnits="userSpaceOnUse" x1="638.775" y1="382.51" x2="638.775" y2="427.17" gradientTransform="matrix(1 0 0 -1 0 656)">
	<stop  offset="0" style="stop-color:#808080;stop-opacity:0.25"/>
	<stop  offset="0.54" style="stop-color:#808080;stop-opacity:0.12"/>
	<stop  offset="1" style="stop-color:#808080;stop-opacity:0.1"/>
</linearGradient>
<rect x="615.7" y="228.8" class="st18" width="46.1" height="44.7"/>
<rect x="616.5" y="229.6" class="st17" width="44.5" height="43.1"/>
<linearGradient id="SVGID_15_" gradientUnits="userSpaceOnUse" x1="360.365" y1="578.12" x2="360.365" y2="622.78" gradientTransform="matrix(1 0 0 -1 0 656)">
	<stop  offset="0" style="stop-color:#808080;stop-opacity:0.25"/>
	<stop  offset="0.54" style="stop-color:#808080;stop-opacity:0.12"/>
	<stop  offset="1" style="stop-color:#808080;stop-opacity:0.1"/>
</linearGradient>
<rect x="337.3" y="33.2" class="st19" width="46.1" height="44.7"/>
<rect x="338.1" y="34" class="st17" width="44.5" height="43.1"/>
<linearGradient id="SVGID_16_" gradientUnits="userSpaceOnUse" x1="421.325" y1="334.28" x2="421.325" y2="378.94" gradientTransform="matrix(1 0 0 -1 0 656)">
	<stop  offset="0" style="stop-color:#808080;stop-opacity:0.25"/>
	<stop  offset="0.54" style="stop-color:#808080;stop-opacity:0.12"/>
	<stop  offset="1" style="stop-color:#808080;stop-opacity:0.1"/>
</linearGradient>
<rect x="398.3" y="277.1" class="st20" width="46.1" height="44.7"/>
<rect x="399" y="277.8" class="st17" width="44.5" height="43.1"/>
<linearGradient id="SVGID_17_" gradientUnits="userSpaceOnUse" x1="428.6868" y1="319.94" x2="428.6868" y2="395.0156" gradientTransform="matrix(1 0 0 -1 -156 534.26)">
	<stop  offset="0" style="stop-color:#808080;stop-opacity:0.25"/>
	<stop  offset="0.54" style="stop-color:#808080;stop-opacity:0.12"/>
	<stop  offset="1" style="stop-color:#808080;stop-opacity:0.1"/>
</linearGradient>
<path class="st21" d="M278.7,148.4v2.7l-7.7-0.7v16.6l-20.2,28.7l-1.3-0.7l-2.8,3.3l26.1,16v-6l-1.5-0.8c1.8-6.6,9.3-32.9,13.6-36.4
	c0,0,7.7-5.3,11.9-12.6S299,125.8,278.7,148.4z"/>
<linearGradient id="SVGID_18_" gradientUnits="userSpaceOnUse" x1="329.2414" y1="-122.27" x2="329.2414" y2="440.0296" gradientTransform="matrix(1 0 0 -1 -156 534.26)">
	<stop  offset="0" style="stop-color:#808080;stop-opacity:0.25"/>
	<stop  offset="0.54" style="stop-color:#808080;stop-opacity:0.12"/>
	<stop  offset="1" style="stop-color:#808080;stop-opacity:0.1"/>
</linearGradient>
<path class="st22" d="M237.8,211.2c0,0-28-5.7-43.4-11.8c-7.2-2.8-14.8-4.4-22.6-4.7l-16.8-0.5l-8.4-4.9l2.6-6.5
	c0.3-0.1,0.5-0.2,0.8-0.4l0.2-1.4c1.4-0.3,2.7-0.7,4-1.2c-0.4,3.3,20.1-13.6,20.1-13.6l-0.6,0.3l-0.1-1l-0.2,0.1
	c9.5-12.9,9.8-30.5,0.7-43.7l0.6-0.6v-16.2l-0.7-0.6v-0.1c-13.9-12.5-32.9-11.5-46.7-8.3C117,98.5,109.3,107,108,117.5
	c-18.4,4.9-12.3,14.2-12.5,17.8c-1.4,17.6,4.4,27.9,10.8,33.9c2.7,2.6,5.7,4.8,9.1,6.4l-4,7.8h-1.2l-3.3,9.3h-0.2l-3.6,2.3
	c-22.2,14.4-33.3,40.1-28.5,65.5l0,0c0,0,20,37.7,13.8,75.5c-2.1,12.7-1.2,20.4,0.9,25.2c-0.6,5.1-2.1,10.1-4.3,14.7
	c-7.6,15.3-7.6,31.3,2.1,49.9l2.8,96.4c0,0,3.4,45.2,0,54.5s1.4,53.9,1.4,53.9h-0.7v24.6l51.6,1.3c0,0,12-5.5,14.2-9.7l25.9,7.7
	c0,0,28.5-4.8,11.8-11.3c-12.5-4.9-15.5-11.9-16.3-15.1l40.8-113.3c0,0-7.6-96.4-35.1-129.7l-2.8-19.6h0.4l5.9-114.5l0.5,0.1h-0.1
	c15.1,2.3,30.4,2.1,45.4-0.7c4.5-0.8,8.9-2,13.1-3.6l0.8-0.3h0.1h0.1c3.2-1.3,6.2-2.9,9-4.9l17.2-25.4l-26.2-17.4L237.8,211.2z
	 M129.8,600.7l13-88.4V467l23.4,47.2L141,616.5l-1.3-0.4l-5.8,20.2c-1.9-1.5-3.3-3.5-4.2-5.7L129.8,600.7z"/>
<linearGradient id="SVGID_19_" gradientUnits="userSpaceOnUse" x1="494.795" y1="516.87" x2="494.795" y2="561.53" gradientTransform="matrix(1 0 0 -1 0 656)">
	<stop  offset="0" style="stop-color:#808080;stop-opacity:0.25"/>
	<stop  offset="0.54" style="stop-color:#808080;stop-opacity:0.12"/>
	<stop  offset="1" style="stop-color:#808080;stop-opacity:0.1"/>
</linearGradient>
<rect x="471.7" y="94.5" class="st23" width="46.1" height="44.7"/>
<rect x="472.5" y="95.2" class="st24" width="44.5" height="43.1"/>
<rect x="244.3" y="112.7" class="st25" width="46.1" height="44.7"/>
<linearGradient id="SVGID_20_" gradientUnits="userSpaceOnUse" x1="261.885" y1="502.32" x2="261.885" y2="546.98" gradientTransform="matrix(1 0 0 -1 0 656)">
	<stop  offset="0" style="stop-color:#808080;stop-opacity:0.25"/>
	<stop  offset="0.54" style="stop-color:#808080;stop-opacity:0.12"/>
	<stop  offset="1" style="stop-color:#808080;stop-opacity:0.1"/>
</linearGradient>
<rect x="238.8" y="109" class="st26" width="46.1" height="44.7"/>
<rect x="239.6" y="109.8" class="st24" width="44.5" height="43.1"/>
<linearGradient id="SVGID_21_" gradientUnits="userSpaceOnUse" x1="830.525" y1="545.08" x2="830.525" y2="589.74" gradientTransform="matrix(1 0 0 -1 0 656)">
	<stop  offset="0" style="stop-color:#808080;stop-opacity:0.25"/>
	<stop  offset="0.54" style="stop-color:#808080;stop-opacity:0.12"/>
	<stop  offset="1" style="stop-color:#808080;stop-opacity:0.1"/>
</linearGradient>
<rect x="807.5" y="66.3" class="st27" width="46.1" height="44.7"/>
<rect x="808.3" y="67" class="st24" width="44.5" height="43.1"/>
<linearGradient id="SVGID_22_" gradientUnits="userSpaceOnUse" x1="744.095" y1="334" x2="744.095" y2="378.66" gradientTransform="matrix(1 0 0 -1 0 656)">
	<stop  offset="0" style="stop-color:#808080;stop-opacity:0.25"/>
	<stop  offset="0.54" style="stop-color:#808080;stop-opacity:0.12"/>
	<stop  offset="1" style="stop-color:#808080;stop-opacity:0.1"/>
</linearGradient>
<rect x="721" y="277.3" class="st28" width="46.1" height="44.7"/>
<rect x="721.8" y="278.1" class="st24" width="44.5" height="43.1"/>
<line class="st29" x1="72.2" y1="220.3" x2="78.2" y2="256.1"/>
<path class="st30" d="M266.7,153.1v16.4l-19.6,28.7l19.6,12.7c0,0,8.7-33.5,13.4-37.5c0,0,7.4-5.3,11.4-12.5s2-32.2-17.4-9.9v1.7
	L266.7,153.1z"/>
<path class="st30" d="M111,192.3l7.7-15.5c0.5-0.9,1.4-1.5,2.4-1.6l29.4-1.5c1.6-0.1,2.9,1.1,3,2.7c0,0.4,0,0.8-0.2,1.2l-7.6,19.6
	c-0.5,1.2-1.7,1.9-2.9,1.8l-29.6-2.6c-1.6-0.1-2.7-1.5-2.6-3.1C110.7,192.9,110.8,192.6,111,192.3z"/>
<polygon class="st31" points="113.1,185.6 108.1,200.3 159.4,198.4 139.7,186.6 "/>
<polygon class="st31" points="243.5,200.4 246.2,197.1 268.5,210.3 268.5,216.2 "/>
<path class="st32" d="M92.6,345.7c2.1,10.1,0.8,20.7-3.5,30.1c-7.2,15.1-7.2,30.9,2,49.3l2.6,95.3c0,0,3.3,44.7,0,53.9
	s1.3,53.2,1.3,53.2h36.8v-29.6l12.5-87.4v-44.7l22.3,46.6L141,620.2l33.5,13.8l42-120.9c0,0-7.2-95.3-33.5-128.1l-4.9-35.8
	L92.6,345.7z"/>
<path class="st33" d="M94.4,651.7v-24.3h37.5c0,0,2.6,9.9,19.7,11.9s-7.9,13.8-7.9,13.8L94.4,651.7z"/>
<path class="st33" d="M134.9,636.6l6.5-23.4l36.1,10c0,0-0.1,10.2,15.8,16.7S182,651.1,182,651.1L134.9,636.6z"/>
<path class="st25" d="M178.2,351.2l-85.6-3.5c1.1,5.1,1.3,10.3,0.6,15.5c3.9,9.2,12.3,6.7,12.3,6.7l74.9-2.3L178.2,351.2z"/>
<path class="st33" d="M109.8,194.8l-3.4,2.3c-21.1,14.3-31.7,39.7-27.1,64.7l0,0c0,0,19.1,37.3,13.1,74.5s13.1,31.5,13.1,31.5
	l75.2-2.3l5.6-113.1c0,0,45.3,6.5,65.7-9.3l16.4-25.1l-25-17.2l-8.5,12.2c0,0-26.8-5.6-41.4-11.6c-6.9-2.8-14.2-4.4-21.6-4.6
	L109.8,194.8z"/>
<path class="st25" d="M110.5,376.8c0,0-4.6,23,21.7,61.1"/>
<path class="st25" d="M186.7,252.6c0,0,31.5-10.5,45.3-10.5s11.5,6,11.5,6S221.5,257.9,186.7,252.6z"/>
<path class="st25" d="M151,175l-12.5,1.5c-0.4,0-0.8,0.5-1,1.3c2.8,5,6.2,7.9,10,7.9c1.3,0,2.6-0.4,3.8-1l1-5.8
	C152.5,177,151.8,174.9,151,175z"/>
<ellipse transform="matrix(8.248051e-02 -0.9966 0.9966 8.248051e-02 -15.18 275.7918)" class="st30" cx="142.2" cy="146.1" rx="38.3" ry="38.3"/>
<path class="st25" d="M174.8,108.5v16l-1.9,1.8c-2.7,2.5-2.9,6.7-0.4,9.4c0.6,0.7,1.4,1.3,2.3,1.6l0,0c0,0-3.2,25.5-7.2,35.1
	c0,0-6.2,0.7-4.8-4c5.2-17.2-5.2-14-7.6-10.8s0.4,11.6,0.4,11.6s7.6,14-32.3,10.8c0,0-26.3-5.6-23.6-41.1c0.3-3.6-5.6-12.8,12-17.6
	l0,0c1.1-10.2,8.5-18.6,18.5-21C143.3,97.1,161.5,96.2,174.8,108.5z"/>
<path class="st34" d="M174.1,107.8v16l-1.9,1.8c-2.7,2.5-2.9,6.7-0.4,9.4c0.6,0.7,1.4,1.3,2.3,1.6l0,0c0,0-3.2,25.5-7.2,35.1
	c0,0-6.2,0.7-4.8-4c5.2-17.2-5.2-14-7.6-10.8s0.4,11.6,0.4,11.6s7.6,14-32.3,10.8c0,0-26.3-5.6-23.6-41.1c0.3-3.6-5.6-12.8,12-17.6
	l0,0c1.1-10.2,8.5-18.6,18.5-21C142.7,96.5,160.9,95.5,174.1,107.8z"/>
</svg>
