<?xml version="1.0" encoding="utf-8"?>
<!-- Generator: Adobe Illustrator 22.1.0, SVG Export Plug-In . SVG Version: 6.00 Build 0)  -->
<svg version="1.1" id="Layer_1" xmlns="http://www.w3.org/2000/svg" xmlns:xlink="http://www.w3.org/1999/xlink" x="0px" y="0px"
	 viewBox="0 0 150 150" style="enable-background:new 0 0 150 150;" xml:space="preserve">
<style type="text/css">
	.st0{fill:none;stroke:#21C87A;stroke-width:2;stroke-linecap:round;stroke-linejoin:round;stroke-miterlimit:10;}
</style>
<g>
	<g>
		<g>
			<g>
				<polyline class="st0" points="113.4,62.3 118.4,67.3 123.3,62.3 				"/>
				<path class="st0" d="M102.2,43.9h8.1c4.5,0,8.1,3.6,8.1,8.1v15.3"/>
			</g>
		</g>
		<g>
			<g>
				<polyline class="st0" points="38.2,87.7 33.3,82.7 28.3,87.7 				"/>
				<path class="st0" d="M49.4,106.1h-8.1c-4.5,0-8.1-3.6-8.1-8.1V82.7"/>
			</g>
		</g>
	</g>
	<g>
		<g>
			<g>
				<path class="st0" d="M25.1,63.1V26.4c0-1.7,1.4-3.1,3.1-3.1h62c1.7,0,3.1,1.4,3.1,3.1v36.7"/>
				<polyline class="st0" points="29.8,63.3 29.8,28.4 88.7,28.4 88.7,63.3 				"/>
				<path class="st0" d="M68.9,63.3V65H49.6v-1.7H15.7c0,0,4.8,5.9,9,5.9h69.2c3.9,0,8-5.9,8-5.9S68.9,63.3,68.9,63.3z"/>
			</g>
		</g>
		<g>
			<g>
				<path class="st0" d="M57.6,120.6V83.9c0-1.7,1.4-3.1,3.1-3.1h62c1.7,0,3.1,1.4,3.1,3.1v36.7"/>
				<polyline class="st0" points="62.3,120.8 62.3,86 121.2,86 121.2,120.8 				"/>
				<path class="st0" d="M101.4,120.9v1.7H82.1v-1.7H48.2c0,0,4.8,5.9,9,5.9h69.2c3.9,0,8-5.9,8-5.9H101.4z"/>
			</g>
		</g>
		<line class="st0" x1="55.8" y1="38.7" x2="75.7" y2="38.7"/>
		<line class="st0" x1="55.8" y1="42.3" x2="75.7" y2="42.3"/>
		<rect x="42.5" y="37.2" class="st0" width="6.8" height="6.8"/>
		<line class="st0" x1="55.8" y1="51.3" x2="75.7" y2="51.3"/>
		<line class="st0" x1="69.1" y1="93.4" x2="79.6" y2="93.4"/>
		<line class="st0" x1="69.1" y1="98.3" x2="79.6" y2="98.3"/>
		<line class="st0" x1="69.1" y1="103.3" x2="73.6" y2="103.3"/>
		<line class="st0" x1="55.8" y1="55" x2="75.7" y2="55"/>
		<rect x="42.5" y="49.8" class="st0" width="6.8" height="6.8"/>
		<line class="st0" x1="87.4" y1="115.2" x2="87.4" y2="109.4"/>
		<line class="st0" x1="92.6" y1="115.2" x2="92.6" y2="97.4"/>
		<line class="st0" x1="97.9" y1="115.2" x2="97.9" y2="103.4"/>
		<line class="st0" x1="103.1" y1="115.2" x2="103.1" y2="95.4"/>
		<line class="st0" x1="113.6" y1="115.2" x2="113.6" y2="101.4"/>
		<line class="st0" x1="108.3" y1="115.2" x2="108.3" y2="106.4"/>
	</g>
</g>
</svg>
