<?xml version="1.0" encoding="utf-8"?>
<!-- Generator: Adobe Illustrator 22.1.0, SVG Export Plug-In . SVG Version: 6.00 Build 0)  -->
<svg version="1.1" id="Layer_1" xmlns="http://www.w3.org/2000/svg" xmlns:xlink="http://www.w3.org/1999/xlink" x="0px" y="0px"
	 viewBox="0 0 150 150" style="enable-background:new 0 0 150 150;" xml:space="preserve">
<style type="text/css">
	.st0{fill:none;stroke:#21C87A;stroke-width:2;stroke-linecap:round;stroke-linejoin:round;stroke-miterlimit:10;}
</style>
<g>
	<g>
		<line class="st0" x1="42.5" y1="84.7" x2="53.4" y2="84.7"/>
		<line class="st0" x1="61.9" y1="95.3" x2="50.6" y2="95.3"/>
		<line class="st0" x1="45.2" y1="95.3" x2="39.5" y2="95.3"/>
		<line class="st0" x1="23.4" y1="105" x2="28.9" y2="105"/>
		<line class="st0" x1="34.3" y1="105" x2="50.6" y2="105"/>
		<line class="st0" x1="34.3" y1="95.3" x2="18.7" y2="95.3"/>
		<line class="st0" x1="36.3" y1="84.7" x2="32.5" y2="84.7"/>
		<path class="st0" d="M129.3,90.8v27.8c0,2.2-1.8,4-4,4H46.2c-2.2,0-4-1.8-4-4V113"/>
		<path class="st0" d="M42.2,76.1V68c0-2.2,1.8-4,4-4h79.2c2.2,0,4,1.8,4,4v14.2"/>
		<g>
			<line class="st0" x1="96.7" y1="100.6" x2="128.5" y2="121.2"/>
			<line class="st0" x1="74.8" y1="100.6" x2="43" y2="121.2"/>
			<line class="st0" x1="43" y1="65.8" x2="85.7" y2="97.5"/>
			<line class="st0" x1="128.5" y1="65.8" x2="85.7" y2="97.5"/>
		</g>
		<line class="st0" x1="88.2" y1="114.5" x2="73.7" y2="114.5"/>
		<line class="st0" x1="94.4" y1="114.5" x2="100.9" y2="114.5"/>
		<path class="st0" d="M108.4,127.8"/>
	</g>
	<g>
		<line class="st0" x1="90.7" y1="53.7" x2="108.9" y2="53.7"/>
		<line class="st0" x1="127.6" y1="45" x2="122.1" y2="45"/>
		<line class="st0" x1="116.7" y1="45" x2="100.4" y2="45"/>
		<line class="st0" x1="115.7" y1="53.7" x2="131.3" y2="53.7"/>
		<path class="st0" d="M21.9,59.2V31.4c0-2.2,1.8-4,4-4h79.2c2.2,0,4,1.8,4,4V37"/>
		<g>
			<line class="st0" x1="34.7" y1="37.2" x2="65.1" y2="56.7"/>
			<line class="st0" x1="96.3" y1="36.9" x2="65.3" y2="56.7"/>
		</g>
		<path class="st0" d="M42.6,22.2"/>
	</g>
</g>
</svg>
