<?xml version="1.0" encoding="utf-8"?>
<!-- Generator: Adobe Illustrator 22.1.0, SVG Export Plug-In . SVG Version: 6.00 Build 0)  -->
<svg version="1.1" id="e1a9485c-0f43-4303-9e0d-5e4a75181bc4"
	 xmlns="http://www.w3.org/2000/svg" xmlns:xlink="http://www.w3.org/1999/xlink" x="0px" y="0px" viewBox="0 0 858.1 804.6"
	 style="enable-background:new 0 0 858.1 804.6;" xml:space="preserve">
<style type="text/css">
	.st0{opacity:0.5;}
	.st1{fill:#47E6B1;}
	.st2{opacity:0.5;fill:#4D8AF0;enable-background:new    ;}
	.st3{opacity:0.5;fill:#F55F44;enable-background:new    ;}
	.st4{opacity:0.5;fill:#47E6B1;enable-background:new    ;}
	.st5{fill:url(#SVGID_1_);}
	.st6{fill:#21C87A;}
	.st7{fill:none;stroke:#21C87A;stroke-width:4;stroke-miterlimit:10;}
	.st8{fill:#F5F5F5;}
	.st9{opacity:0.1;enable-background:new    ;}
	.st10{fill:url(#SVGID_2_);}
	.st11{fill:#FDA57D;}
	.st12{fill:#333333;}
	.st13{fill:#4D8AF0;}
	.st14{fill:#3AD29F;}
</style>
<title>gift1</title>
<g class="st0">
	<rect x="107.3" y="37.8" class="st1" width="3.3" height="18.9"/>
	<rect x="99.5" y="45.6" class="st1" width="18.9" height="3.3"/>
</g>
<g class="st0">
	<rect x="811.7" y="769.5" class="st1" width="3.3" height="18.9"/>
	<rect x="803.9" y="777.3" class="st1" width="18.9" height="3.3"/>
</g>
<g class="st0">
	<rect x="813" y="215.3" class="st1" width="3.3" height="18.9"/>
	<rect x="805.2" y="223.1" class="st1" width="18.9" height="3.3"/>
</g>
<g class="st0">
	<rect x="847" y="45.3" class="st1" width="3.3" height="18.9"/>
	<rect x="839.2" y="53.1" class="st1" width="18.9" height="3.3"/>
</g>
<g class="st0">
	<rect x="267.1" y="36.3" class="st1" width="3.3" height="18.9"/>
	<rect x="259.3" y="44" class="st1" width="18.9" height="3.3"/>
</g>
<path class="st2" d="M61.2,318.2c-1.9-0.8-2.9-2.9-2.3-4.9c0-0.1,0.1-0.3,0.1-0.5l0,0c0.2-1.1-0.6-2.1-1.7-2.3
	c-0.8-0.1-1.6,0.2-2,0.9l0,0c-0.1,0.1-0.2,0.3-0.2,0.4c-0.8,1.9-2.9,2.9-4.9,2.3c-0.1,0-0.3-0.1-0.4-0.1l0,0
	c-1.1-0.2-2.1,0.6-2.3,1.7c-0.1,0.8,0.2,1.6,0.9,2l0,0c0.1,0.1,0.3,0.2,0.4,0.2c1.9,0.8,2.9,2.9,2.3,4.9c0,0.1-0.1,0.3-0.1,0.5l0,0
	c-0.2,1.1,0.6,2.1,1.7,2.3c0.8,0.1,1.6-0.2,2-0.9l0,0c0.1-0.1,0.2-0.3,0.2-0.4c0.8-1.9,2.9-2.9,4.9-2.3c0.1,0,0.3,0.1,0.4,0.1l0,0
	c1.1,0.2,2.1-0.6,2.3-1.7c0.1-0.8-0.2-1.6-0.9-2l0,0C61.5,318.3,61.4,318.3,61.2,318.2z"/>
<path class="st2" d="M122.7,696.5c-1.9-0.8-2.9-2.9-2.3-4.9c0-0.1,0.1-0.3,0.1-0.5l0,0c0.2-1.1-0.6-2.1-1.7-2.3
	c-0.8-0.1-1.6,0.2-2,0.9l0,0c-0.1,0.1-0.2,0.3-0.2,0.4c-0.8,1.9-2.9,2.9-4.9,2.3c-0.1,0-0.3-0.1-0.5-0.1l0,0
	c-1.1-0.2-2.1,0.6-2.3,1.7c-0.1,0.8,0.2,1.6,0.9,2l0,0c0.1,0.1,0.3,0.2,0.4,0.2c1.9,0.8,2.9,2.9,2.3,4.9c0,0.1-0.1,0.3-0.1,0.5l0,0
	c-0.2,1.1,0.6,2.1,1.7,2.3c0.8,0.1,1.6-0.2,2-0.9l0,0c0.1-0.1,0.2-0.3,0.2-0.4c0.8-1.9,2.9-2.9,4.9-2.3c0.1,0,0.3,0.1,0.5,0.1l0,0
	c1.1,0.2,2.1-0.6,2.3-1.7c0.1-0.8-0.2-1.6-0.9-2l0,0C123,696.7,122.8,696.6,122.7,696.5z"/>
<path class="st2" d="M681.7,195.5c-1.9-0.8-2.9-2.9-2.3-4.9c0-0.1,0.1-0.3,0.1-0.5l0,0c0.2-1.1-0.6-2.1-1.7-2.3
	c-0.8-0.1-1.6,0.2-2,0.9l0,0c-0.1,0.1-0.2,0.3-0.2,0.4c-0.8,1.9-2.9,2.9-4.9,2.3c-0.1,0-0.3-0.1-0.5-0.1l0,0
	c-1.1-0.2-2.1,0.6-2.3,1.7c-0.1,0.8,0.2,1.6,0.9,2l0,0c0.1,0.1,0.3,0.2,0.4,0.2c1.9,0.8,2.9,2.9,2.3,4.9c0,0.1-0.1,0.3-0.1,0.5l0,0
	c-0.2,1.1,0.6,2.1,1.7,2.3c0.8,0.1,1.6-0.2,2-0.9l0,0c0.1-0.1,0.2-0.3,0.2-0.4c0.8-1.9,2.9-2.9,4.9-2.3c0.1,0,0.3,0.1,0.5,0.1l0,0
	c1.1,0.2,2.1-0.6,2.3-1.7c0.1-0.8-0.2-1.6-0.9-2l0,0C682,195.7,681.8,195.6,681.7,195.5z"/>
<path class="st2" d="M674.2,285.9c-1.9-0.8-2.9-2.9-2.3-4.9c0-0.1,0.1-0.3,0.1-0.5l0,0c0.2-1.1-0.6-2.1-1.7-2.3
	c-0.8-0.1-1.6,0.2-2,0.9l0,0c-0.1,0.1-0.2,0.3-0.2,0.4c-0.8,1.9-2.9,2.9-4.9,2.3c-0.1,0-0.3-0.1-0.5-0.1l0,0
	c-1.1-0.2-2.1,0.6-2.3,1.7c-0.1,0.8,0.2,1.6,0.9,2l0,0c0.1,0.1,0.3,0.2,0.4,0.2c1.9,0.8,2.9,2.9,2.3,4.9c0,0.1-0.1,0.3-0.1,0.5l0,0
	c-0.2,1.1,0.6,2.1,1.7,2.3c0.8,0.1,1.6-0.2,2-0.9l0,0c0.1-0.1,0.2-0.3,0.2-0.4c0.8-1.9,2.9-2.9,4.9-2.3c0.1,0,0.3,0.1,0.5,0.1l0,0
	c1.1,0.2,2.1-0.6,2.3-1.7c0.1-0.8-0.2-1.6-0.9-2l0,0C674.5,286.1,674.4,286,674.2,285.9z"/>
<path class="st2" d="M674.8,7.6c-1.9-0.8-2.9-2.9-2.3-4.9c0-0.1,0.1-0.3,0.1-0.5l0,0c0.2-1.1-0.6-2.1-1.7-2.3
	c-0.8-0.1-1.6,0.2-2,0.9l0,0c-0.1,0.1-0.2,0.3-0.2,0.4c-0.8,1.9-2.9,2.9-4.9,2.3c-0.1,0-0.3-0.1-0.5-0.1l0,0
	c-1.1-0.2-2.1,0.6-2.3,1.7c-0.1,0.8,0.2,1.6,0.9,2l0,0c0.1,0.1,0.3,0.2,0.4,0.2c1.9,0.8,2.9,2.9,2.3,4.9c0,0.1-0.1,0.3-0.1,0.5l0,0
	c-0.2,1.1,0.6,2.1,1.7,2.3c0.8,0.1,1.6-0.2,2-0.9l0,0c0.1-0.1,0.2-0.3,0.2-0.4c0.8-1.9,2.9-2.9,4.9-2.3c0.1,0,0.3,0.1,0.5,0.1l0,0
	c1.1,0.2,2.1-0.6,2.3-1.7c0.1-0.8-0.2-1.6-0.9-2l0,0C675,7.7,674.9,7.6,674.8,7.6z"/>
<path class="st2" d="M842.9,464.6c-1.9-0.8-2.9-2.9-2.3-4.9c0-0.1,0.1-0.3,0.1-0.5l0,0c0.2-1.1-0.6-2.1-1.7-2.3
	c-0.8-0.1-1.6,0.2-2,0.9l0,0c-0.1,0.1-0.2,0.3-0.2,0.4c-0.8,1.9-2.9,2.9-4.9,2.3c-0.1,0-0.3-0.1-0.5-0.1l0,0
	c-1.1-0.2-2.1,0.6-2.3,1.7c-0.1,0.8,0.2,1.6,0.9,2l0,0c0.1,0.1,0.3,0.2,0.4,0.2c1.9,0.8,2.9,3,2.3,5c0,0.1-0.1,0.3-0.1,0.5l0,0
	c-0.2,1.1,0.6,2.1,1.7,2.3c0.8,0.1,1.6-0.2,2-0.9l0,0c0.1-0.1,0.2-0.3,0.2-0.4c0.8-1.9,2.9-2.9,4.9-2.3c0.1,0,0.3,0.1,0.5,0.1l0,0
	c1.1,0.2,2.1-0.6,2.3-1.7c0.1-0.8-0.2-1.6-0.9-2l0,0C843.2,464.8,843.1,464.7,842.9,464.6z"/>
<circle class="st3" cx="61.8" cy="166.1" r="6.7"/>
<ellipse transform="matrix(1 -4.587002e-03 4.587002e-03 1 -2.9559 6.613544e-02)" class="st3" cx="12.9" cy="644.4" rx="6.7" ry="6.7"/>
<circle class="st3" cx="439.7" cy="45.7" r="6.7"/>
<circle class="st3" cx="506.7" cy="172.7" r="6.7"/>
<circle class="st3" cx="6.7" cy="478.7" r="6.7"/>
<circle class="st4" cx="267.5" cy="155.3" r="6.7"/>
<circle class="st3" cx="725.6" cy="597.8" r="6.7"/>
<linearGradient id="SVGID_1_" gradientUnits="userSpaceOnUse" x1="592.8996" y1="428.8902" x2="592.8996" y2="577.6561" gradientTransform="matrix(1 0 0 -1 -169.23 764.32)">
	<stop  offset="0" style="stop-color:#808080;stop-opacity:0.25"/>
	<stop  offset="0.54" style="stop-color:#808080;stop-opacity:0.12"/>
	<stop  offset="1" style="stop-color:#808080;stop-opacity:0.1"/>
</linearGradient>
<path class="st5" d="M544.5,204.1c-12.9-12.9-31.7-18.1-53-14.5c-19.9,3.4-39.8,14.1-56,30.3c-4.7,4.7-8.7,10.2-11.7,16.1
	c-3-6.1-6.9-11.7-11.6-16.7l0,0c-16-16.5-35.7-27.6-55.5-31.3c-21.2-4-40.1,0.9-53.2,13.6c-13.1,12.7-18.5,31.5-15.3,52.7
	c3.1,20,13.5,40,29.5,56.5c33.6,34.6,100.6,21.1,103.4,20.5l0.8-0.2l2.6,0.6c2.8,0.6,69.6,15.3,103.8-18.7
	c16.3-16.2,27.1-36.1,30.5-55.9C562.5,235.8,557.4,217,544.5,204.1z M409.9,311.3c-16.2,2.2-56.5,5.1-76.6-15.5
	c-12.9-13.3-21.3-29.2-23.7-44.8c-2.2-14.2,1-26.3,8.9-34c3.1-3,6.8-5.3,10.9-6.7c6.7-2.4,14.6-2.8,23.3-1.2
	c15.5,2.9,31.1,11.8,44,25.1C416.8,255,412.5,295.2,409.9,311.3z M537.6,253.4c-2.7,15.5-11.4,31.3-24.5,44.3
	c-20.4,20.3-60.7,16.7-76.8,14.2c-2.4-16.2-5.9-56.5,14.5-76.8c13.1-13.1,28.9-21.7,44.4-24.3c8.7-1.5,16.7-0.9,23.3,1.6
	c4.1,1.5,7.7,3.8,10.8,6.9C537.1,227.1,540.1,239.3,537.6,253.4L537.6,253.4z"/>
<path class="st6" d="M427.7,327l-6.4,1.4c-2.7,0.6-66.8,13.5-99-19.6c-15.3-15.8-25.3-35-28.3-54c-3.2-20.4,2-38.3,14.6-50.5
	c12.6-12.2,30.6-16.8,50.9-13c19,3.6,37.8,14.2,53.1,29.9l0,0c32.1,33.1,17.2,96.8,16.5,99.5L427.7,327z M333.5,212.6
	c-3.9,1.4-7.5,3.5-10.5,6.4c-7.6,7.4-10.7,18.9-8.6,32.5c2.3,14.9,10.4,30.1,22.7,42.8c19.2,19.8,57.8,17,73.3,14.9
	c2.6-15.4,6.6-53.9-12.6-73.7l0,0c-12.3-12.7-27.3-21.3-42.1-24C347.5,209.9,339.9,210.3,333.5,212.6z"/>
<path class="st6" d="M418.2,327.3l-1.5-6.4c-0.6-2.7-14.5-66.6,18.2-99.2l0,0c15.5-15.5,34.6-25.8,53.6-29
	c20.3-3.4,38.3,1.5,50.7,13.9c12.3,12.4,17.2,30.4,13.7,50.7c-3.3,19-13.7,38-29.2,53.5c-32.7,32.5-96.5,18.5-99.3,17.9L418.2,327.3
	z M514.4,214.5c-6.4-2.4-14-2.9-22.3-1.5c-14.9,2.5-30,10.8-42.5,23.3l0,0c-19.5,19.5-16.1,58-13.8,73.5c15.5,2.4,54,5.9,73.5-13.6
	c12.5-12.5,20.9-27.6,23.4-42.4c2.3-13.5-0.5-25.1-8-32.7C521.8,218.2,518.3,215.9,514.4,214.5L514.4,214.5z"/>
<polygon class="st7" points="730.9,320.2 109.2,320.2 109.2,444.6 141.5,444.6 141.5,804.6 698.6,804.6 698.6,444.6 730.9,444.6 "/>
<rect x="148.6" y="357.8" class="st8" width="543" height="440.7"/>
<rect x="368.9" y="436.5" class="st6" width="102.3" height="362"/>
<rect x="148.6" y="334.2" class="st9" width="543" height="110.2"/>
<rect x="117.1" y="326.3" class="st8" width="605.9" height="110.2"/>
<rect x="368.9" y="326.3" class="st6" width="102.3" height="110.2"/>
<linearGradient id="SVGID_2_" gradientUnits="userSpaceOnUse" x1="811.8279" y1="332.4625" x2="811.8279" y2="618.1982" gradientTransform="matrix(1 0 0 -1 -169.23 764.32)">
	<stop  offset="0" style="stop-color:#808080;stop-opacity:0.25"/>
	<stop  offset="0.54" style="stop-color:#808080;stop-opacity:0.12"/>
	<stop  offset="1" style="stop-color:#808080;stop-opacity:0.1"/>
</linearGradient>
<path class="st10" d="M782.7,336.2c-1.9-5.6-22.9,10.1-22.9,10.1l-4.8-0.3l-9.3-8.6l6.5-6.5l-54.6-46.8c-2.9-2.5-6.8-3.7-10.7-3.2
	l-45.4,5.7c-0.2-2.6-1.8-5.7-4.1-8.8c-4.7-7.6-14.5-16.3-18.1-19.3l-5.5-37.3l4.7-7.1c-0.9-0.2-1.7-0.5-2.6-0.9l1-1.5l-0.4-0.1
	l0.5-0.5H617l11.8-13.6c1.8-2.1,1.6-5.2-0.4-7.1l-26.2-19.9c0.8-1.9,1.2-3.9,1.1-6c0.2-4-1.6-8-7.5-10.9c-3.7-1.7-7.5-3.1-11.5-4.1
	c-6.5-1.7-13.4-1.6-19.8,0.3l-0.3-0.4c-8.1-9.2-18.6,4-19,4.5l-41.3,46c-2.3,3.7-1.5,8.6,2,11.2l21.9,16.4l-0.1,0.1l1.2,0.9
	c-0.9,1.8-2.2,3.1-3.9,3.3l3.3,1.7c-0.5,0.4-1.1,0.6-1.8,0.7l15.3,7.7c0,8,0.8,44.5,13.8,62.4c1.3,2.2,2.9,4.2,4.7,6
	c0,0,1.1-0.6,3.1-1.6l2.3,4.6c5.2,10.4,16.5,16.4,28.1,14.7l72-10.3l-0.8,2.3l0.4-0.1l-23.3,70l3.9,1.3l-0.1,0.1l0.5,0.2l-4.8,9.2
	l-15.3,11.8c0,0,44.7,22.4,49.4,18.9s-16.5-18.8-16.5-18.8l-1.2-4.7l5.1-10.9l4.3,1.4l34.6-69.2l0,0l1.2-2.4l23.4,29.3l6.6-6.6
	l0.7,0.7l0.1-0.1l9.2,9.3l6.6,18.1C749.9,377.7,784.6,341.8,782.7,336.2z M601,201.6l-0.5-0.5c-3.7,4.4-8.2,7.9-13.2,10.6v-3.9
	l0.3-0.2v-1.7c7.1-6.5,9.9-16.5,7.2-25.8l15.2,11.7L601,201.6z M549.4,158.2l-0.4-0.4L549.4,158.2L549.4,158.2z M537.3,182.7
	c-0.1,1.2-0.1,2.4-0.1,3.7c0,1.8,0.1,3.6,0.3,5.4c0.8,6.2,3,11.3,7.6,13.7c4,2.1,6.6,2,8.3,0.6l0.2,0.2c0.1,2.4,0.8,4.8,1.9,7
	c-8.6-1.8-16.8-5.1-24.2-9.7c0,0,0,0.3,0.1,0.9L525,198L537.3,182.7z"/>
<polygon class="st11" points="652,378.3 641.7,397.7 657.7,404.6 668,382.9 "/>
<path class="st12" d="M657.7,404.6l1.1,4.6c0,0,20.5,14.8,16,18.3s-48-18.3-48-18.3l14.8-11.4L657.7,404.6z"/>
<polygon class="st9" points="666.9,384.9 650.7,379.5 645.9,388.6 661.9,395.4 "/>
<polygon class="st11" points="725,341.9 740.4,357.6 751.8,344.4 734.2,328.1 "/>
<polygon class="st9" points="734.8,328.8 725.6,342.7 731.5,348.6 743.3,336.8 "/>
<path class="st12" d="M751.8,344.4l4.7,0.3c0,0,20.3-15.1,22.2-9.8s-31.8,40.3-31.8,40.3l-6.4-17.6L751.8,344.4z"/>
<path class="st11" d="M605.4,227.5l23.7-27.4c1.7-2,1.6-5.1-0.4-6.9L577.2,154l-6.3,9.8l40,30.8l-17,18.6L605.4,227.5z"/>
<path class="st9" d="M602.7,203.6l-8.3,9.1l11.5,14.3l11.9-13.7C612,211.5,606.8,208.1,602.7,203.6z"/>
<path class="st11" d="M536.6,233.5l-26.9-20.2c-3.4-2.6-4.3-7.3-2-10.9l40.2-44.7l8.2,8.2l-27.8,34.6l16.4,16.5L536.6,233.5z"/>
<path class="st9" d="M530.9,229.5l4.4,3.3l8.2-16.4L533.2,206C533.4,209.5,534,223.1,530.9,229.5z"/>
<polygon class="st13" points="666.9,313.3 642.2,387.2 666.9,395.4 708,313.3 675.1,305 "/>
<polygon class="st9" points="665.7,315.5 664.5,319.2 690.4,315.5 700.5,328.2 706.8,315.5 673.9,307.3 "/>
<path class="st11" d="M547.8,157.8c0,0,10.5-13.6,18.5-4.4c8,9.1-12.6,10.3-12.6,10.3L547.8,157.8z"/>
<path class="st13" d="M560.1,296.8l7.9,15.9c5.1,10.1,16.1,15.9,27.3,14.3l96.2-13.8l32.9,41.1l24.7-24.6l-53-45.5
	c-2.9-2.5-6.6-3.6-10.4-3.1L560.1,296.8z"/>
<path class="st9" d="M535.9,208.2c0,0,2.2,26.7-6,27.6l16.4,8.2c0,0-0.9,48.4,16.4,65.7c0,0,32-17.3,65.7-16.4s-8.2-32.9-8.2-32.9
	l-5.5-37.4l4.6-6.9c-6.2-1.9-11.7-5.4-16-10.3l0,0c-4.6,5.7-15,13.5-24.1,13.5h-3.9c-13.5,0-27.9-2.7-39.3-10L535.9,208.2z"/>
<path class="st14" d="M534.4,205.9c0,0,2.2,26.7-6,27.6l16.4,8.2c0,0-0.9,48.4,16.4,65.7c0,0,32-17.3,65.7-16.4s-8.2-32.9-8.2-32.9
	l-5.5-37.4l4.6-6.9c-6.2-1.9-11.7-5.4-16-10.3l0,0c-4.6,5.7-15,13.5-24.1,13.5h-3.9C559.8,217.1,546.2,213.2,534.4,205.9
	L534.4,205.9z"/>
<path class="st11" d="M556,198.4v9.2c0,4.6,1.8,9.1,5.1,12.4l19.5,19.5l6.5-13c1.1-2.3,1.7-4.8,1.7-7.3v-20.8L556,198.4z"/>
<path class="st9" d="M556.3,209c0,0.3,0,0.7,0,1c9.3,8.4,23.5,8.4,32.8,0v-10.2h-32.8V209z"/>
<circle class="st11" cx="572.5" cy="190.2" r="24.7"/>
<path class="st9" d="M556,183.2h41.1c0,0,16.4-16.4,0-24.6c-3.6-1.7-7.3-3-11.2-3.9c-25-6.3-48.7,14.3-45.5,39.9
	c0.8,6,2.9,11,7.4,13.3C565.2,217,556,183.2,556,183.2z"/>
<path class="st12" d="M556,182.1h41.1c0,0,16.4-16.4,0-24.6c-3.6-1.7-7.3-3-11.2-3.9c-25-6.3-48.7,14.3-45.5,39.9
	c0.8,6,2.9,11,7.4,13.3C565.2,215.9,556,182.1,556,182.1z"/>
<ellipse class="st11" cx="557.2" cy="190.5" rx="2.3" ry="4"/>
<polygon class="st9" points="544.7,241.3 545.8,237.9 549.2,240.2 "/>
<path class="st9" d="M618.8,258.2c0,0-12.4,6-15.9,11.7"/>
<polygon class="st9" points="613.2,220.8 612,224.2 609.7,220.8 "/>
<path class="st12" d="M556,182.1h41.1c0,0,16.4-16.4,0-24.6c-3.6-1.7-7.3-3-11.2-3.9c-25-6.3-48.7,14.3-45.5,39.9
	c0.8,6,2.9,11,7.4,13.3C565.2,215.9,556,182.1,556,182.1z"/>
</svg>
