<?xml version="1.0" encoding="utf-8"?>
<!-- Generator: Adobe Illustrator 22.1.0, SVG Export Plug-In . SVG Version: 6.00 Build 0)  -->
<svg version="1.1" id="Layer_1" xmlns="http://www.w3.org/2000/svg" xmlns:xlink="http://www.w3.org/1999/xlink" x="0px" y="0px"
	 viewBox="0 0 150 150" style="enable-background:new 0 0 150 150;" xml:space="preserve">
<style type="text/css">
	.st0{fill:none;stroke:#21C87A;stroke-width:2;stroke-linecap:round;stroke-linejoin:round;stroke-miterlimit:10;}
</style>
<g>
	<line class="st0" x1="88.5" y1="60.4" x2="88.5" y2="58.4"/>
	<line class="st0" x1="88.5" y1="52.8" x2="88.5" y2="52.8"/>
	<line class="st0" x1="114.8" y1="41.9" x2="121.5" y2="39.1"/>
	<line class="st0" x1="62.1" y1="41.9" x2="55.4" y2="39.1"/>
	<line class="st0" x1="114.8" y1="63.7" x2="121.5" y2="66.5"/>
	<line class="st0" x1="62.1" y1="63.7" x2="55.4" y2="66.5"/>
	<g>
		<line class="st0" x1="99.4" y1="26.5" x2="102.1" y2="19.8"/>
	</g>
	<g>
		<line class="st0" x1="74.8" y1="19.8" x2="77.5" y2="26.5"/>
	</g>
	<g>
		<line class="st0" x1="63.2" y1="27.5" x2="68.3" y2="32.6"/>
	</g>
	<g>
		<line class="st0" x1="113.7" y1="27.5" x2="108.6" y2="32.6"/>
	</g>
	<line class="st0" x1="63.2" y1="78.1" x2="68.3" y2="73"/>
	<line class="st0" x1="113.7" y1="78.1" x2="108.6" y2="73"/>
	<g>
		<line class="st0" x1="88.5" y1="17.1" x2="88.5" y2="24.3"/>
	</g>
	<g>
		<line class="st0" x1="117" y1="52.8" x2="124.2" y2="52.8"/>
	</g>
	<g>
		<line class="st0" x1="52.7" y1="52.8" x2="60" y2="52.8"/>
	</g>
	<polyline class="st0" points="25.8,94.2 46.2,94.2 46.2,127.3 25.8,127.3 	"/>
	<path class="st0" d="M99.3,111.7l17.3-4.7c2.1-0.6,4.3,0.6,5,2.7l0,0c0.6,1.9-0.2,4.1-2.1,5L86,131.5c-3.7,1.8-8,2-11.7,0.4
		l-18.6-7.9h-9.4"/>
	<path class="st0" d="M46.2,97.5h9.4l19.8,6.1h11.6c2.7,0,4.9,2.2,4.9,4.9l0,0c0,2.5-2,4.5-4.5,4.5h-12c-2.6,0-4.7,2.1-4.7,4.7l0,0"
		/>
	<path class="st0" d="M99.1,77.6v-7.8c5.7-3.6,9.5-9.8,9.5-17c0-11.1-9-20.1-20.1-20.1c-11.1,0-20.1,9-20.1,20.1
		c0,7.2,3.8,13.5,9.5,17v7.8"/>
	<line class="st0" x1="88.5" y1="66.8" x2="88.5" y2="84.7"/>
	<line class="st0" x1="99.1" y1="84.7" x2="77.8" y2="84.7"/>
	<line class="st0" x1="83.4" y1="92.9" x2="93.5" y2="92.9"/>
	<line class="st0" x1="36.8" y1="100.7" x2="36.8" y2="103.8"/>
	<path class="st0" d="M95.7,60.6c2.1-1.9,3.4-4.7,3.4-7.8c0-5.9-4.8-10.6-10.6-10.6c-5.9,0-10.6,4.8-10.6,10.6
		c0,3.1,1.3,5.8,3.4,7.8"/>
</g>
</svg>
