<?xml version="1.0" encoding="utf-8"?>
<!-- Generator: Adobe Illustrator 22.1.0, SVG Export Plug-In . SVG Version: 6.00 Build 0)  -->
<svg version="1.1" id="Layer_1" xmlns="http://www.w3.org/2000/svg" xmlns:xlink="http://www.w3.org/1999/xlink" x="0px" y="0px"
	 viewBox="0 0 150 150" style="enable-background:new 0 0 150 150;" xml:space="preserve">
<style type="text/css">
	.st0{fill:none;stroke:#151B26;stroke-width:2;stroke-linecap:round;stroke-linejoin:round;stroke-miterlimit:10;}
</style>
<g>
	<g>
		<g>
			<path class="st0" d="M125.4,73.6h-9.8c-1.3,0-2.4,1.1-2.4,2.4l0,0c0,1.3,1.1,2.4,2.4,2.4H131"/>
			<line class="st0" x1="87.7" y1="83.7" x2="135.9" y2="83.7"/>
			<polygon class="st0" points="66.8,83.7 53.5,103.7 65.1,103.7 88.5,83.7 			"/>
			<polyline class="st0" points="66.2,68.3 59.1,57.8 70.2,57.8 82.2,68.3 			"/>
			<path class="st0" d="M26.5,75c0,0,1.4,4,7.4,7.5C44,88.2,64,88,64,88"/>
			<polygon class="st0" points="21.3,46.3 13.9,46.3 22.1,68.4 36.4,68.4 			"/>
			<polyline class="st0" points="22.1,68.4 13.9,78.3 21.5,78.4 36.4,68.4 			"/>
			<path class="st0" d="M66.8,83.7c0,0-16,0.2-25.3-2.3s-11.4-8.8-11.4-8.8"/>
			<path class="st0" d="M58.4,73.4c1.4,0,2.5,1.1,2.5,2.5s-1.1,2.5-2.5,2.5s-2.5-1.1-2.5-2.5S57,73.3,58.4,73.4z"/>
			<path class="st0" d="M68.5,73.4c1.4,0,2.5,1.1,2.5,2.5s-1.1,2.5-2.5,2.5S66,77.3,66,75.9S67.1,73.3,68.5,73.4z"/>
			<circle class="st0" cx="78.6" cy="75.9" r="2.5"/>
			<path class="st0" d="M88.7,73.4c1.4,0,2.5,1.1,2.5,2.5s-1.1,2.5-2.5,2.5s-2.5-1.1-2.5-2.5S87.3,73.3,88.7,73.4z"/>
			<path class="st0" d="M98.8,73.4c1.4,0,2.5,1.1,2.5,2.5s-1.1,2.5-2.5,2.5s-2.5-1.1-2.5-2.5S97.4,73.3,98.8,73.4z"/>
			<path class="st0" d="M36.8,68.4c0,0-6,0,34.7,0c40.6,0,48,2,51.2,3.2c3.2,1.2,1.6,2.3,8.3,6.9c2.3,1.6,3.7,3.1,4.6,4.5
				c1.3,2-0.3,5.2-2.7,5.2H83.4"/>
		</g>
	</g>
	<path class="st0" d="M32.2,81.5c3.1,20.6,20.8,36.6,42.3,36.8c19.5,0.2,36.1-12.5,41.7-30.1"/>
	<path class="st0" d="M118,70c-2.4-21.3-20.5-38-42.5-38.3c-19.9-0.2-36.9,13-42.1,31.3"/>
	<path class="st0" d="M40.2,49.4c9.6,2.4,21.3,3.9,34.1,4c13.4,0.1,25.7-1.4,35.6-3.9"/>
	<path class="st0" d="M109.8,100.6c-9.6-2.4-21.3-3.9-34.1-4c-0.8,0-1.5,0-2.3,0"/>
	<path class="st0" d="M57.6,97.5c-6.3,0.6-12.3,1.7-17.5,3"/>
	<path class="st0" d="M50.3,87.4C51,91.2,52,94.7,53.2,98"/>
	<path class="st0" d="M100.4,68.5C98.6,47.9,88.1,32,75.3,31.8c-12.9-0.3-23.7,15.6-25.7,36.4"/>
	<line class="st0" x1="75" y1="117.4" x2="75" y2="96.6"/>
	<line class="st0" x1="75" y1="61.6" x2="75" y2="32.6"/>
	<path class="st0" d="M55.9,104c4.6,8.7,11.3,14.2,18.8,14.3C86.2,118.5,96,106,99.4,88.6"/>
</g>
</svg>
