<?xml version="1.0" encoding="utf-8"?>
<!-- Generator: Adobe Illustrator 22.1.0, SVG Export Plug-In . SVG Version: 6.00 Build 0)  -->
<svg version="1.1" id="Layer_1" xmlns="http://www.w3.org/2000/svg" xmlns:xlink="http://www.w3.org/1999/xlink" x="0px" y="0px"
	 viewBox="0 0 64 64" style="enable-background:new 0 0 64 64;" xml:space="preserve">
<style type="text/css">
	.st0{fill:#FFFFFF;stroke:#000333;stroke-miterlimit:10;}
	.st1{fill:#F5C26B;}
	.st2{fill:none;stroke:#000333;stroke-miterlimit:10;}
</style>
<g>
	<path class="st0" d="M23.3,32.2c0-6.5,3.6-12.2,8.9-15.1c-2.5-1.4-5.4-2.2-8.5-2.2c-9.6,0-17.4,7.8-17.4,17.4
		c0,9.6,7.8,17.4,17.4,17.4c3.1,0,6-0.8,8.5-2.2C26.9,44.4,23.3,38.7,23.3,32.2z"/>
	<path class="st1" d="M40.6,14.9c-3.1,0-6,0.8-8.5,2.2c5.3,3,8.9,8.6,8.9,15.1c0,6.5-3.6,12.2-8.9,15.1c2.5,1.4,5.4,2.2,8.5,2.2
		c9.6,0,17.4-7.8,17.4-17.4C58,22.6,50.2,14.9,40.6,14.9z"/>
	<ellipse class="st2" cx="32.1" cy="32.2" rx="8.9" ry="15.1"/>
</g>
</svg>
