<?xml version="1.0" encoding="utf-8"?>
<!-- Generator: Adobe Illustrator 22.1.0, SVG Export Plug-In . SVG Version: 6.00 Build 0)  -->
<svg version="1.1" id="Layer_1" xmlns="http://www.w3.org/2000/svg" xmlns:xlink="http://www.w3.org/1999/xlink" x="0px" y="0px"
	 viewBox="0 0 150 150" style="enable-background:new 0 0 150 150;" xml:space="preserve">
<style type="text/css">
	.st0{fill:none;stroke:#796EFF;stroke-width:2;stroke-linecap:round;stroke-linejoin:round;stroke-miterlimit:10;}
</style>
<g>
	<path class="st0" d="M16.7,119.6V30.7c0-5.4,4.3-9.7,9.7-9.7h63.7v91.2h-66C20,112.2,16.7,115.5,16.7,119.6L16.7,119.6
		c0,4.1,3.3,7.4,7.4,7.4h66"/>
	<line class="st0" x1="90.1" y1="117.1" x2="25.7" y2="117.1"/>
	<line class="st0" x1="90.1" y1="122" x2="25.7" y2="122"/>
	<rect x="30.6" y="30.9" class="st0" width="49.3" height="71.5"/>
	<line class="st0" x1="51.3" y1="54.4" x2="60.3" y2="54.4"/>
	<line class="st0" x1="43.3" y1="61.7" x2="68.2" y2="61.7"/>
	<line class="st0" x1="43.3" y1="69" x2="68.2" y2="69"/>
	<line class="st0" x1="43.3" y1="76.3" x2="68.2" y2="76.3"/>
	<g>
		<g>
			<line class="st0" x1="103" y1="46.5" x2="107.3" y2="46.5"/>
			<line class="st0" x1="103" y1="61.6" x2="107.3" y2="61.6"/>
		</g>
		<g>
			<line class="st0" x1="122.6" y1="46.5" x2="126.9" y2="46.5"/>
			<line class="st0" x1="122.6" y1="61.6" x2="126.9" y2="61.6"/>
		</g>
	</g>
	<g>
		<path class="st0" d="M99.6,65.8L99.6,65.8c-1.7,0-3.1-1.4-3.1-3.1V45.4c0-1.7,1.4-3.1,3.1-3.1l0,0c1.7,0,3.1,1.4,3.1,3.1v17.3
			C102.8,64.4,101.4,65.8,99.6,65.8z"/>
		<path class="st0" d="M130.2,65.8L130.2,65.8c-1.7,0-3.1-1.4-3.1-3.1V45.4c0-1.7,1.4-3.1,3.1-3.1l0,0c1.7,0,3.1,1.4,3.1,3.1v17.3
			C133.3,64.4,131.9,65.8,130.2,65.8z"/>
	</g>
	<rect x="107.3" y="42.2" class="st0" width="15.3" height="23.5"/>
	<path class="st0" d="M114.9,129L114.9,129c-2.3,0-4.2-1.9-4.2-4.2V76.7h8.4v48.1C119.1,127.1,117.2,129,114.9,129z"/>
	<g>
		<line class="st0" x1="117.4" y1="65.8" x2="117.4" y2="76.7"/>
		<line class="st0" x1="112.4" y1="76.7" x2="112.4" y2="65.8"/>
	</g>
</g>
</svg>
