<?xml version="1.0" encoding="utf-8"?>
<!-- Generator: Adobe Illustrator 22.1.0, SVG Export Plug-In . SVG Version: 6.00 Build 0)  -->
<svg version="1.1" id="Layer_1" xmlns="http://www.w3.org/2000/svg" xmlns:xlink="http://www.w3.org/1999/xlink" x="0px" y="0px"
	 viewBox="0 0 450 450" style="enable-background:new 0 0 450 450;" xml:space="preserve">
<style type="text/css">
	.st0{opacity:0.1;fill:url(#SVGID_1_);stroke:#21C87A;stroke-miterlimit:10;enable-background:new    ;}
	.st1{fill:#FFFFFF;stroke:#21C87A;stroke-miterlimit:10;stroke-opacity:0.3;}
	.st2{fill:none;stroke:#21C87A;stroke-width:2;stroke-linecap:round;stroke-linejoin:round;stroke-miterlimit:10;}
	.st3{fill:#796EFF;}
	.st4{fill:none;stroke:#FFBC42;stroke-linecap:round;stroke-linejoin:round;stroke-miterlimit:10;}
	.st5{fill:none;stroke:#FFBC42;stroke-linecap:round;stroke-linejoin:round;stroke-miterlimit:10;stroke-dasharray:6;}
	.st6{fill:none;stroke:#DA4B48;stroke-linecap:round;stroke-linejoin:round;stroke-miterlimit:10;}
	.st7{fill:none;stroke:#1C6BE1;stroke-linecap:round;stroke-linejoin:round;stroke-miterlimit:10;}
	.st8{fill:#FFFFFF;stroke:#1C6BE1;stroke-linecap:round;stroke-linejoin:round;stroke-miterlimit:10;}
</style>
<g>
	
		<radialGradient id="SVGID_1_" cx="225" cy="-122" r="176.2" gradientTransform="matrix(1 0 0 1 0 300)" gradientUnits="userSpaceOnUse">
		<stop  offset="0.6992" style="stop-color:#FFFFFF"/>
		<stop  offset="0.7181" style="stop-color:#F6FDFA;stop-opacity:0.9069"/>
		<stop  offset="0.7483" style="stop-color:#DFF7EC;stop-opacity:0.7581"/>
		<stop  offset="0.786" style="stop-color:#B9EED5;stop-opacity:0.5722"/>
		<stop  offset="0.8297" style="stop-color:#84E1B6;stop-opacity:0.3564"/>
		<stop  offset="0.878" style="stop-color:#42D08E;stop-opacity:0.1185"/>
		<stop  offset="0.9" style="stop-color:#21C87A;stop-opacity:1.000000e-02"/>
	</radialGradient>
	<circle class="st0" cx="225" cy="178" r="176.2"/>
	<circle class="st1" cx="225" cy="178" r="139.6"/>
</g>
<g>
	<path class="st2" d="M308.2,181.5c0-0.7,0-1.4-0.1-2.1l-10-4l9.1-6.2c-1.2-8-3.6-15.6-6.9-22.6l-11.4,0.4l6.1-9.8
		c-4.3-6.6-9.5-12.5-15.4-17.5l-10.7,5.2l1.7-11.9c-6.5-4.1-13.5-7.4-21.1-9.6l-7.8,9.3l-3.4-11.7c-3.8-0.5-7.6-0.8-11.5-0.8
		s-7.8,0.3-11.5,0.8l-3.4,11.7l-7.8-9.3c-7.5,2.2-14.6,5.4-21.1,9.6l1.7,11.9l-10.7-5.2c-5.9,5.1-11.1,11-15.4,17.5l6.1,9.8
		l-11.4-0.4c-3.3,7-5.7,14.6-6.9,22.6l9.1,6.2l-10,4c0,0.7-0.1,1.4-0.1,2.1c0,7.5,1,14.8,2.9,21.7l10.2,1.8l-7.1,7.4
		c3.1,7.6,7.3,14.6,12.5,20.8l9.5-2.4l-3.3,9.1c5.9,5.7,12.6,10.5,20,14.2l7.4-5.8l0.7,9.4c7.6,2.8,15.7,4.6,24.1,5l4.4-8.2l4.4,8.2
		c8.5-0.4,16.6-2.2,24.1-5l0.7-9.4l7.4,5.8c7.4-3.7,14.1-8.5,20-14.2l-3.3-9.1l9.5,2.4c5.1-6.2,9.3-13.3,12.5-20.8l-7-7.4l10.2-1.8
		C307.2,196.3,308.2,189,308.2,181.5z"/>
	<path class="st2" d="M261.1,164.8l-10.3-0.8l2.4-10c-2.5-2.4-5.3-4.5-8.4-6.1l-8.8,5.4l-3.9-9.5c-1.7-0.2-3.4-0.4-5.2-0.4
		s-3.5,0.1-5.2,0.4l-3.9,9.5l-8.8-5.4c-3.1,1.7-5.9,3.7-8.4,6.1l2.4,10l-10.3,0.8c-1.5,3.1-2.6,6.4-3.2,9.9l7.8,6.7l-7.8,6.7
		c0.6,3.5,1.7,6.8,3.2,9.9l10.3,0.8l-2.4,10c2.5,2.4,5.3,4.5,8.4,6.1l8.8-5.4l3.9,9.5c1.7,0.2,3.4,0.4,5.2,0.4s3.5-0.1,5.2-0.4
		l3.9-9.5l8.8,5.4c3.1-1.7,5.9-3.7,8.4-6.1l-2.4-10l10.3-0.8c1.5-3.1,2.6-6.4,3.2-9.9l-7.8-6.7l7.8-6.7
		C263.6,171.2,262.6,167.9,261.1,164.8z"/>
	<path class="st2" d="M282.7,180.8c0,0.2,0,0.4,0,0.6"/>
	<path class="st2" d="M281.6,170.2c0.3,1.3,0.5,2.7,0.7,4"/>
	<path class="st2" d="M226.8,125.5c23.4,0,43.5,14.4,51.8,34.9"/>
	<path class="st2" d="M172.7,195.3c-1.1-4.4-1.7-9.1-1.7-13.9"/>
	<path class="st2" d="M226.8,237.3c-21.9,0-40.8-12.6-50-30.9"/>
	<path class="st2" d="M317.8,214.6c-3.8,10.3-9.2,19.9-16.1,28.2c-4.2,5.1-8.9,9.8-14.1,14"/>
	<path class="st2" d="M322.2,198c-0.4,2.5-1,5-1.6,7.5"/>
	<path class="st2" d="M149.2,123.5c1.8-2.3,3.6-4.6,5.6-6.8"/>
	<path class="st2" d="M130.6,170.2c1.3-11.3,4.5-21.9,9.4-31.7"/>
	<path class="st2" d="M243.2,178.6c1.9,11.4-7.8,21-19.2,19.2c-6.9-1.1-12.4-6.7-13.6-13.5c-1.9-11.4,7.8-21,19.2-19.2
		C236.5,166.2,242.1,171.7,243.2,178.6z"/>
	<polyline class="st2" points="236.3,133.4 226.8,125.5 237.7,119.7 	"/>
	<polyline class="st2" points="216.6,230.4 226.8,237.4 216.6,244.2 	"/>
</g>
<g id="Shapes">
	<polygon class="st3" points="74.2,76.9 70.5,76.9 70.5,76.3 73.6,76.3 73.6,73.2 76.8,73.2 76.8,70.4 77.4,70.4 77.4,73.8 
		74.2,73.8 	"/>
	<path class="st3" d="M288.8,191.7H281v-7.8h7.8V191.7z M282.2,190.5h5.5V185h-5.5V190.5z"/>
	<path class="st3" d="M148.2,109.7h-5.5l-2.8-4.8l2.8-4.8h5.5l2.8,4.8L148.2,109.7z M143.3,108.6h4.2l2.1-3.6l-2.1-3.6h-4.2
		l-2.1,3.6L143.3,108.6z"/>
	<path class="st3" d="M317.5,381.8h-7.8V374h7.8V381.8z M310.8,380.7h5.5v-5.5h-5.5V380.7z"/>
	<path class="st3" d="M367.2,220.8c0,1.1-0.9,2.1-2.1,2.1c-1.1,0-2.1-0.9-2.1-2.1c0-1.1,0.9-2.1,2.1-2.1
		C366.3,218.7,367.2,219.6,367.2,220.8z"/>
	<path class="st3" d="M436.6,174.1H427l4.8-8L436.6,174.1z M428.2,173.4h7.1l-3.6-6L428.2,173.4z"/>
	<path class="st3" d="M104.5,319.4l-3.2-3.2l3.2-3.2l3.2,3.2L104.5,319.4z M102.2,316.2l2.2,2.2l2.2-2.2l-2.2-2.2L102.2,316.2z"/>
</g>
<g>
	<path class="st4" d="M84.2,67.6c1.2,2,1.8,4.4,1.7,6.7c-0.1,3-1.3,5.9-3.6,8.1c-4.8,4.8-12.5,4.8-17.2,0c-4.8-4.8-4.8-12.5,0-17.2
		c4.8-4.8,12.5-4.8,17.2,0"/>
	<path class="st5" d="M73.7,88.9c-3.5,0-6.7-1.2-9.2-3.1"/>
	<path class="st4" d="M64.5,85.7c-3.5-2.7-5.8-7-5.8-11.9c0-8.3,6.7-15,15-15s15,6.7,15,15s-6.7,15-15,15"/>
	<path class="st4" d="M101.3,101.5L101.3,101.5c-1.3,1.3-3.3,1.3-4.5,0L86.5,91.3l4.5-4.5L101.3,97
		C102.5,98.2,102.5,100.3,101.3,101.5z"/>
	<line class="st4" x1="93.5" y1="98" x2="94.6" y2="96.9"/>
	<line class="st4" x1="91.4" y1="95.9" x2="93.5" y2="93.8"/>
	<line class="st4" x1="87.5" y1="90.2" x2="83.1" y2="85.7"/>
	<line class="st4" x1="87" y1="84.9" x2="89.9" y2="87.8"/>
	<path class="st4" d="M100.2,100.3c0,0,0.6-0.8,0-2.2"/>
</g>
<g>
	<g>
		<path class="st6" d="M389.6,0.6h-47.7c-2.2,0-3.9,1.8-3.9,3.9v12.9c0,2.2,1.8,3.9,3.9,3.9h3.3v6.4l10-6.4h34.4
			c2.2,0,3.9-1.8,3.9-3.9V4.5C393.5,2.4,391.7,0.6,389.6,0.6z"/>
		<line class="st6" x1="382.8" y1="8.1" x2="348.7" y2="8.1"/>
		<line class="st6" x1="382.8" y1="13.7" x2="348.7" y2="13.7"/>
	</g>
	<g>
		<path class="st6" d="M391.5,71h-25.7c-1.2,0-2.1,0.9-2.1,2.1v7c0,1.2,0.9,2.1,2.1,2.1h1.8v3.4l5.4-3.4h18.5c1.2,0,2.1-0.9,2.1-2.1
			v-7C393.6,71.9,392.6,71,391.5,71z"/>
		<g>
			<line class="st6" x1="387.8" y1="75" x2="369.5" y2="75"/>
			<line class="st6" x1="372" y1="78" x2="369.5" y2="78"/>
			<line class="st6" x1="377.9" y1="78" x2="374.2" y2="78"/>
			<line class="st6" x1="381.2" y1="78" x2="380.1" y2="78"/>
		</g>
	</g>
	<g>
		<path class="st7" d="M373.1,38.3h40.6c1.8,0,3.3,1.5,3.3,3.3v11c0,1.8-1.5,3.3-3.3,3.3h-2.8v5.4l-8.5-5.4h-29.3
			c-1.8,0-3.3-1.5-3.3-3.3v-11C369.7,39.8,371.2,38.3,373.1,38.3z"/>
		<line class="st7" x1="378.8" y1="44.7" x2="407.9" y2="44.7"/>
		<line class="st7" x1="378.8" y1="49.4" x2="390" y2="49.4"/>
		<line class="st7" x1="393.2" y1="49.4" x2="395.6" y2="49.4"/>
	</g>
</g>
<g>
	<g>
		<g>
			<line class="st7" x1="271.9" y1="448.3" x2="271.9" y2="403.9"/>
			<line class="st7" x1="278.2" y1="403.9" x2="278.2" y2="448.3"/>
		</g>
		<g>
			<line class="st7" x1="176.7" y1="448.3" x2="176.7" y2="403.9"/>
			<line class="st7" x1="183.1" y1="403.9" x2="183.1" y2="448.3"/>
		</g>
	</g>
	<g>
		<g>
			<g>
				<path class="st8" d="M199,387.2h-27c-1.8,0-3.2-1.5-3.2-3.2v-38.1c0-1.8,1.5-3.2,3.2-3.2h56.4c1.8,0,3.2,1.5,3.2,3.2v14.4"/>
				<path class="st7" d="M225.5,377.4"/>
				<line class="st7" x1="168.8" y1="377.4" x2="204.6" y2="377.4"/>
				<line class="st7" x1="198.7" y1="346.6" x2="201.7" y2="346.6"/>
				<path class="st7" d="M173.1,377.4"/>
				<line class="st7" x1="173.1" y1="357.7" x2="173.1" y2="368.1"/>
				<line class="st7" x1="173.1" y1="373.7" x2="173.1" y2="377.4"/>
			</g>
		</g>
		<g>
			<line class="st7" x1="192.3" y1="387.2" x2="190.4" y2="396"/>
		</g>
	</g>
	<g>
		<ellipse class="st7" cx="200.5" cy="445.9" rx="3" ry="3"/>
		<path class="st7" d="M214,446c0,1.7-1.3,3-3,3s-3-1.3-3-3s1.3-3,3-3C212.6,443,214,444.3,214,446z"/>
		<ellipse class="st7" cx="244" cy="446" rx="3" ry="3"/>
		<path class="st7" d="M257.5,446c0,1.7-1.3,3-3,3c-1.7,0-3-1.3-3-3s1.3-3,3-3C256.2,443,257.5,444.3,257.5,446z"/>
	</g>
	<path class="st7" d="M230.5,446c0,1.7-1.3,3-3,3s-3-1.3-3-3s1.3-3,3-3S230.5,444.3,230.5,446z"/>
	<g>
		<polyline class="st7" points="200.5,443 200.5,438.2 227.5,431 		"/>
		<polyline class="st7" points="254.5,443 254.5,438.2 227.5,431 		"/>
	</g>
	<line class="st7" x1="227.5" y1="443" x2="227.5" y2="431"/>
	<polyline class="st7" points="224.8,431.6 224.8,426.2 230.2,426.2 230.2,431.6 	"/>
	<line class="st7" x1="227.5" y1="426.1" x2="227.5" y2="421.1"/>
	<polyline class="st7" points="247,410.8 237.2,416.4 237.2,419.3 227.5,421.1 217.8,419.3 217.8,416.4 208,410.8 	"/>
	<path class="st7" d="M249.5,409.9c-0.4-2.5-3.2-3.8-4.9-4c-2.6-0.4-8.9,0.2-13.1,0.6c-2.6,0.3-5.3,0.3-7.9,0
		c-4.3-0.4-10.5-1-13.1-0.6c-1.7,0.2-4.4,1.6-4.9,4c-0.1,0.7,0.5,1.2,1.1,1.1c2.3-0.5,7.6-1.1,14.7,1.6c2.4,0.9,4.4,1.2,6.2,1.2
		s3.8-0.3,6.2-1.2c7.1-2.6,12.4-2,14.7-1.6C249,411.1,249.6,410.6,249.5,409.9z"/>
	<path class="st8" d="M244.4,362.5c-5.6-2.6-9.2-2.2-16.9-2.2c-7.6,0-11.3-0.4-16.9,2.2c-7,3.3-3.6,11.4-2.4,14.2
		c2.4,5.8,3.5,8.3,3.7,14.5c0.4,12,5.7,9.8,8.6,9.2c2-0.4,4.9-0.6,7-0.6s5,0.2,7,0.6c2.9,0.6,8.2,2.7,8.6-9.2
		c0.2-6.1,1.3-8.7,3.7-14.5C248,373.9,251.4,365.8,244.4,362.5z"/>
	<path class="st7" d="M222.5,406.2v-17.6c0-2.8,2.3-5,5-5l0,0c2.8,0,5,2.3,5,5v17.6"/>
	<g>
		<path class="st7" d="M253,391.2h-3.2c-1.7,0-3.1-1.4-3.1-3.1l0,0c0-1.7,1.4-3.1,3.1-3.1h3.2c1.7,0,3.1,1.4,3.1,3.1l0,0
			C256.1,389.8,254.7,391.2,253,391.2z"/>
		<polyline class="st7" points="251.5,391.2 251.5,399.2 242.8,405.8 		"/>
		<path class="st7" d="M201.9,391.2h3.2c1.7,0,3.1-1.4,3.1-3.1l0,0c0-1.7-1.4-3.1-3.1-3.1h-3.2c-1.7,0-3.1,1.4-3.1,3.1l0,0
			C198.8,389.8,200.2,391.2,201.9,391.2z"/>
		<polyline class="st7" points="203.5,391.2 203.5,399.2 212.1,405.8 		"/>
	</g>
	<g>
		<line class="st7" x1="244" y1="443" x2="244" y2="435.5"/>
		<line class="st7" x1="211" y1="443" x2="211" y2="435.5"/>
	</g>
	<g>
		<polyline class="st8" points="203.5,403.5 167.2,403.5 167.2,396 212.4,396 		"/>
		<polyline class="st8" points="251.4,403.5 287.8,403.5 287.8,396 242.5,396 		"/>
	</g>
	<g>
		<line class="st7" x1="286.7" y1="448.3" x2="264.1" y2="448.3"/>
		<line class="st7" x1="190.9" y1="448.3" x2="168.3" y2="448.3"/>
	</g>
</g>
</svg>
