<?xml version="1.0" encoding="utf-8"?>
<!-- Generator: Adobe Illustrator 22.1.0, SVG Export Plug-In . SVG Version: 6.00 Build 0)  -->
<svg version="1.1" id="Layer_1" xmlns="http://www.w3.org/2000/svg" xmlns:xlink="http://www.w3.org/1999/xlink" x="0px" y="0px"
	 viewBox="0 0 150 150" style="enable-background:new 0 0 150 150;" xml:space="preserve">
<style type="text/css">
	.st0{fill:none;stroke:#21C87A;stroke-width:2;stroke-linecap:round;stroke-linejoin:round;stroke-miterlimit:10;}
</style>
<g>
	<g>
		<g>
			<polyline class="st0" points="101.8,20.1 101.8,24.1 61.8,24.1 61.8,20.1 			"/>
			<polygon class="st0" points="101.8,109.6 120,109.6 101.8,127.9 			"/>
			<rect x="55.4" y="14.7" class="st0" width="52.8" height="14.7"/>
			<polyline class="st0" points="43.6,122.8 43.6,127.9 101.8,127.9 			"/>
			<polyline class="st0" points="55.4,24.2 43.6,24.2 43.6,65.1 			"/>
			<polyline class="st0" points="120,109.6 120,24.2 108.2,24.2 108.2,24.2 			"/>
			<polyline class="st0" points="55.4,19.1 36,19.1 36,77.2 			"/>
			<polyline class="st0" points="36,120.6 36,135.3 127.7,135.3 127.7,19.1 108.2,19.1 			"/>
			<g>
				<line class="st0" x1="68.8" y1="89.4" x2="93.1" y2="89.4"/>
				<line class="st0" x1="100.2" y1="89.4" x2="105.5" y2="89.4"/>
				<line class="st0" x1="58.1" y1="56.8" x2="105.5" y2="56.8"/>
				<line class="st0" x1="58.1" y1="67.7" x2="105.5" y2="67.7"/>
				<line class="st0" x1="64.1" y1="78.5" x2="105.5" y2="78.5"/>
			</g>
		</g>
	</g>
	<g>
		<ellipse class="st0" cx="46.4" cy="98.9" rx="24.1" ry="24.1"/>
		<ellipse class="st0" cx="46.4" cy="98.9" rx="19.5" ry="19.5"/>
		<path class="st0" d="M47.7,98.8c0,0.7-0.6,1.3-1.3,1.3s-1.3-0.6-1.3-1.3c0-0.7,0.6-1.3,1.3-1.3C47.1,97.6,47.7,98.1,47.7,98.8z"/>
		<line class="st0" x1="46.4" y1="98.8" x2="61.4" y2="92.3"/>
		<path class="st0" d="M51.2,69.7h-9.6c-1.1,0-2-0.9-2-2v-0.1c0-1.1,0.9-2,2-2h9.6c1.1,0,2,0.9,2,2v0.1
			C53.2,68.8,52.3,69.7,51.2,69.7z"/>
		<line class="st0" x1="49.3" y1="70.3" x2="49.3" y2="74.4"/>
		<line class="st0" x1="43.5" y1="74.4" x2="43.5" y2="70.3"/>
		<polyline class="st0" points="57.8,77.3 60.1,73.8 64.9,77 62.6,80.5 		"/>
		<path class="st0" d="M54,86.5"/>
		<line class="st0" x1="32.6" y1="85.1" x2="35.3" y2="87.7"/>
		<line class="st0" x1="57.6" y1="110" x2="60.2" y2="112.6"/>
		<line class="st0" x1="60.2" y1="85.1" x2="57.6" y2="87.7"/>
		<line class="st0" x1="35.3" y1="110" x2="32.6" y2="112.6"/>
		<line class="st0" x1="46.4" y1="79.3" x2="46.4" y2="83.1"/>
		<line class="st0" x1="46.4" y1="114.6" x2="46.4" y2="118.3"/>
		<line class="st0" x1="65.9" y1="98.8" x2="62.2" y2="98.8"/>
		<line class="st0" x1="30.6" y1="98.8" x2="26.9" y2="98.8"/>
	</g>
</g>
</svg>
