<?xml version="1.0" encoding="utf-8"?>
<!-- Generator: Adobe Illustrator 22.1.0, SVG Export Plug-In . SVG Version: 6.00 Build 0)  -->
<svg version="1.1" id="Layer_1" xmlns="http://www.w3.org/2000/svg" xmlns:xlink="http://www.w3.org/1999/xlink" x="0px" y="0px"
	 viewBox="0 0 150 150" style="enable-background:new 0 0 150 150;" xml:space="preserve">
<style type="text/css">
	.st0{fill:none;stroke:#FFFFFF;stroke-width:2;stroke-linecap:round;stroke-linejoin:round;stroke-miterlimit:10;}
</style>
<g>
	<g>
		<rect x="14.6" y="96.6" class="st0" width="45.1" height="30.8"/>
		<polyline class="st0" points="21.6,96.6 21.6,115.2 24.3,117.3 27,115.2 27,96.6 		"/>
		<polyline class="st0" points="47.6,96.6 47.6,115.2 50.2,117.3 53,115.2 53,96.6 		"/>
		<rect x="33.5" y="105.7" class="st0" width="7.8" height="7"/>
		<line class="st0" x1="20.5" y1="109.1" x2="14.6" y2="109.1"/>
		<line class="st0" x1="59.7" y1="109.1" x2="54.1" y2="109.1"/>
		<line class="st0" x1="46.3" y1="109.1" x2="41.1" y2="109.1"/>
		<line class="st0" x1="33.5" y1="109.1" x2="28.2" y2="109.1"/>
		<polyline class="st0" points="43.9,96.6 43.9,89.8 30.5,89.8 30.5,96.6 		"/>
	</g>
	<g>
		<line class="st0" x1="100.3" y1="45.2" x2="97" y2="48.6"/>
		<polyline class="st0" points="100.4,63.4 130.7,33 137.5,39.8 137.5,17.1 114.9,17.1 121.7,23.8 103.9,41.5 		"/>
	</g>
	<g>
		<line class="st0" x1="51.9" y1="70.2" x2="50" y2="72.1"/>
		<polyline class="st0" points="46.6,57.4 71.4,32.6 64.6,25.8 87.2,25.8 87.2,48.5 80.4,41.8 56,66.1 		"/>
	</g>
	<polyline class="st0" points="140,56.3 122.8,56.3 122.8,75.4 103.5,75.4 103.5,94.6 84.3,94.6 84.3,113.7 64.9,113.7 64.9,132.9 
		10,132.9 	"/>
</g>
</svg>
