<?xml version="1.0" encoding="utf-8"?>
<!-- Generator: Adobe Illustrator 22.1.0, SVG Export Plug-In . SVG Version: 6.00 Build 0)  -->
<svg version="1.1" id="Layer_1" xmlns="http://www.w3.org/2000/svg" xmlns:xlink="http://www.w3.org/1999/xlink" x="0px" y="0px"
	 viewBox="0 0 150 150" style="enable-background:new 0 0 150 150;" xml:space="preserve">
<style type="text/css">
	.st0{fill:none;stroke:#21C87A;stroke-width:2;stroke-linecap:round;stroke-linejoin:round;stroke-miterlimit:10;}
</style>
<g>
	<path class="st0" d="M51.7,126.1H27.4c-3.7,0-6.7-3-6.7-6.7v-31h37.7v31C58.3,123.1,55.4,126.1,51.7,126.1z"/>
	<line class="st0" x1="20.7" y1="115.4" x2="58.3" y2="115.4"/>
	<path class="st0" d="M58.3,97.9h4.3c2.8,0,5.2,2.3,5.2,5.2v7.2c0,2.8-2.3,5.2-5.2,5.2h-4.3"/>
	<path class="st0" d="M32.9,69.3c-1,0.8-1.6,1.6-1.6,2.5c0,0.9,0.6,1.7,1.6,2.5c3.3,2.5,3.3,5.3,0,7.9"/>
	<path class="st0" d="M44.8,75.5c1.9,2.2,1.9,4.5,0,6.7"/>
	<path class="st0" d="M124.1,126.1"/>
	<path class="st0" d="M40,88.4V23.8l4.4-4.3l4.3,4.3l4.3-4.3l4.3,4.3l4.3-4.3l4.3,4.3l4.3-4.3l4.3,4.3l4.3-4.3l4.3,4.3l4.3-4.3
		l4.3,4.3l4.3-4.3l4.3,4.3l4.3-4.3l4.3,4.3l4.3-4.3l4.4,4.3v96.5c0,3.2,2.6,5.8,5.8,5.8l0,0c3.2,0,5.8-2.6,5.8-5.8V26h-5.8v93.1"/>
	<line class="st0" x1="124.1" y1="126.1" x2="51" y2="126.1"/>
	<rect x="51.8" y="36.1" class="st0" width="53.6" height="14.7"/>
	<g>
		<line class="st0" x1="55.1" y1="60.8" x2="84.4" y2="60.8"/>
		<line class="st0" x1="55.1" y1="68.3" x2="84.4" y2="68.3"/>
		<line class="st0" x1="55.1" y1="75.9" x2="69.6" y2="75.9"/>
		<line class="st0" x1="78.6" y1="75.9" x2="84.4" y2="75.9"/>
	</g>
	<rect x="92.9" y="59.7" class="st0" width="10.4" height="10.2"/>
	<line class="st0" x1="92.9" y1="75.9" x2="103.3" y2="75.9"/>
	<line class="st0" x1="97" y1="43.5" x2="60.2" y2="43.5"/>
	<line class="st0" x1="79.3" y1="103.4" x2="79.3" y2="115.6"/>
	<line class="st0" x1="87.3" y1="99.9" x2="87.3" y2="115.6"/>
	<line class="st0" x1="95.2" y1="102.5" x2="95.2" y2="115.6"/>
	<line class="st0" x1="103.2" y1="94.7" x2="103.2" y2="115.6"/>
	<line class="st0" x1="106.5" y1="115.6" x2="76" y2="115.6"/>
	<polyline class="st0" points="75.5,98.8 89.1,88.4 93.9,94.1 105.9,84.1 	"/>
	<line class="st0" x1="25.5" y1="94.7" x2="35.4" y2="94.7"/>
	<line class="st0" x1="40.7" y1="94.7" x2="43.1" y2="94.7"/>
</g>
</svg>
