<?xml version="1.0" encoding="utf-8"?>
<!-- Generator: Adobe Illustrator 22.1.0, SVG Export Plug-In . SVG Version: 6.00 Build 0)  -->
<svg version="1.1" id="Layer_1" xmlns="http://www.w3.org/2000/svg" xmlns:xlink="http://www.w3.org/1999/xlink" x="0px" y="0px"
	 viewBox="0 0 64 64" style="enable-background:new 0 0 64 64;" xml:space="preserve">
<style type="text/css">
	.st0{fill:#6A78D1;}
	.st1{fill:#FFFFFF;}
	.st2{fill:none;stroke:#172B4D;stroke-miterlimit:10;}
</style>
<g>
	<circle class="st0" cx="33.1" cy="30.7" r="17.4"/>
	<path class="st1" d="M33.6,43.5l-0.1-0.2c1.7-1.1,2.8-3.1,2.8-5.5c0-3.5-2.6-6.4-5.8-6.4c-3.2,0-5.8,2.9-5.8,6.4
		c0,2.5,1.3,4.6,3.1,5.7l0,0L25.1,51h5.7h5.7L33.6,43.5z"/>
	<path class="st2" d="M30.9,17.4c-9.6,0-17.4,7.8-17.4,17.4c0,7.7,5,14.2,11.9,16.5l2.5-6.5l0,0c-2-1.2-3.4-3.5-3.4-6.3
		c0-3.9,2.9-7.1,6.4-7.1c3.5,0,6.4,3.2,6.4,7.1c0,2.6-1.2,4.8-3.1,6.1l0.1,0.2l2.4,6.4c6.8-2.4,11.6-8.8,11.6-16.4
		C48.3,25.1,40.5,17.4,30.9,17.4z"/>
</g>
</svg>
