<?xml version="1.0" encoding="utf-8"?>
<!-- Generator: Adobe Illustrator 22.1.0, SVG Export Plug-In . SVG Version: 6.00 Build 0)  -->
<svg version="1.1" id="Layer_1" xmlns="http://www.w3.org/2000/svg" xmlns:xlink="http://www.w3.org/1999/xlink" x="0px" y="0px"
	 viewBox="0 0 150 150" style="enable-background:new 0 0 150 150;" xml:space="preserve">
<style type="text/css">
	.st0{fill:none;stroke:#21C87A;stroke-width:2;stroke-linecap:round;stroke-linejoin:round;stroke-miterlimit:10;}
</style>
<g>
	<path class="st0" d="M118.8,18.8H31.2c-3.3,0-6,2.7-6,6v22.9c0,3.3,2.7,6,6,6h5v9.8l15.3-9.8h13.3L75,63.8l10.1-10.1h13.3l15.3,9.8
		v-9.8h5c3.3,0,6-2.7,6-6V24.8C124.8,21.5,122.1,18.8,118.8,18.8z"/>
	<g>
		<g>
			<path class="st0" d="M120.4,91.5c0.4-1.2,0.6-2.5,0.6-3.9c0-6.4-4.6-11.2-10.3-11.2c-5.7,0-10.3,4.8-10.3,11.2
				c0,1.4,0.2,2.7,0.6,3.9c-0.8,0.5-1.3,1.5-1.3,2.5c0,1.4,0.9,2.5,2.1,2.9c1.5,4.4,4.9,7.5,8.9,7.5s7.4-3.1,8.9-7.5
				c1.2-0.3,2.1-1.5,2.1-2.9C121.7,92.9,121.2,92,120.4,91.5z"/>
			<path class="st0" d="M115.8,85.8l-0.5-2.6c0,0-1,0-2.8,1.6c-3.7,3.3-7.7,0.7-7.7,0.7"/>
			<path class="st0" d="M101,89.5"/>
			<polyline class="st0" points="110.8,111.6 114.6,115.9 119.7,110.3 117.5,106.6 			"/>
			<path class="st0" d="M102,110.2l-9.6,3.9c-0.6,0.4-1.1,0.9-1.5,1.4c-0.6,0.9-1,2-1,3.1v7.2"/>
			<path class="st0" d="M101.4,95"/>
			<polyline class="st0" points="110.8,111.6 107,115.9 101.9,110.3 104.1,106.6 			"/>
			<line class="st0" x1="117.5" y1="106.6" x2="110.8" y2="111.6"/>
			<line class="st0" x1="104.1" y1="106.6" x2="110.8" y2="111.6"/>
			<path class="st0" d="M119.6,110.2l9.8,4.1c1.8,0.9,2.5,2.7,2.5,4.6v0.4v6.7"/>
			<path class="st0" d="M132,125.9c-6,3.3-13.2,5.3-21.1,5.3c-7.8,0-15.1-2-21.1-5.3"/>
		</g>
		<g>
			<path class="st0" d="M84.5,85c0.4-1.2,0.6-2.5,0.6-3.9c0-6.4-4.6-11.2-10.3-11.2c-5.7,0-10.3,4.8-10.3,11.2
				c0,1.4,0.2,2.7,0.6,3.9c-0.8,0.5-1.3,1.5-1.3,2.5c0,1.4,0.9,2.5,2.1,2.9c1.5,4.4,4.9,7.5,8.9,7.5s7.4-3.1,8.9-7.5
				c1.2-0.3,2.1-1.5,2.1-2.9C85.8,86.4,85.3,85.5,84.5,85z"/>
			<path class="st0" d="M79.9,79.3l-0.5-2.6c0,0-1,0-2.8,1.6c-3.7,3.3-7.7,0.7-7.7,0.7"/>
			<path class="st0" d="M65.1,83"/>
			<polyline class="st0" points="74.9,105.1 78.7,109.4 83.8,103.8 81.6,100.1 			"/>
			<path class="st0" d="M66.1,103.7l-9.6,3.9c-0.6,0.4-1.1,0.9-1.5,1.4c-0.6,0.9-1,2-1,3.1"/>
			<path class="st0" d="M65.5,88.5"/>
			<polyline class="st0" points="74.9,105.1 71.1,109.4 66,103.8 68.2,100.1 			"/>
			<line class="st0" x1="81.6" y1="100.1" x2="74.9" y2="105.1"/>
			<line class="st0" x1="68.2" y1="100.1" x2="74.9" y2="105.1"/>
			<path class="st0" d="M83.7,103.7l9.8,4.1c1.8,0.9,2.5,2.7,2.5,4.6"/>
			<path class="st0" d="M89.8,122.2c-4.5,1.6-9.6,2.5-14.8,2.5c-5.3,0-10.4-0.9-15-2.5"/>
		</g>
		<g>
			<path class="st0" d="M48.6,91.5c0.4-1.2,0.6-2.5,0.6-3.9c0-6.4-4.6-11.2-10.3-11.2s-10.3,4.8-10.3,11.2c0,1.4,0.2,2.7,0.6,3.9
				C28.4,92,27.9,93,27.9,94c0,1.4,0.9,2.5,2.1,2.9c1.5,4.4,4.9,7.5,8.9,7.5s7.4-3.1,8.9-7.5c1.2-0.3,2.1-1.5,2.1-2.9
				C49.9,92.9,49.4,92,48.6,91.5z"/>
			<path class="st0" d="M43.9,85.8l-0.5-2.6c0,0-1,0-2.8,1.6c-3.7,3.3-7.7,0.7-7.7,0.7"/>
			<path class="st0" d="M29.2,89.5"/>
			<polyline class="st0" points="39,111.6 42.8,115.9 47.9,110.3 45.7,106.6 			"/>
			<path class="st0" d="M30.2,110.2l-9.6,3.9c-0.6,0.4-1.1,0.9-1.5,1.4c-0.6,0.9-1,2-1,3.1v7.2"/>
			<path class="st0" d="M29.6,95"/>
			<polyline class="st0" points="39,111.6 35.2,115.9 30.1,110.3 32.3,106.6 			"/>
			<line class="st0" x1="45.7" y1="106.6" x2="39" y2="111.6"/>
			<line class="st0" x1="32.3" y1="106.6" x2="39" y2="111.6"/>
			<path class="st0" d="M47.8,110.2l9.8,4.1c1.8,0.9,2.5,2.7,2.5,4.6v0.4v6.7"/>
			<path class="st0" d="M60.2,125.9c-6,3.3-13.2,5.3-21.1,5.3c-7.8,0-15.1-2-21.1-5.3"/>
		</g>
	</g>
	<polygon class="st0" points="75.4,25.1 64.4,41.5 74.5,41.5 73.1,52.4 85.6,35.9 74.5,35.9 	"/>
	<g>
		<g>
			<line class="st0" x1="96.1" y1="30.6" x2="110.9" y2="30.6"/>
			<line class="st0" x1="96.1" y1="37" x2="110.9" y2="37"/>
			<line class="st0" x1="96.1" y1="43.5" x2="102.2" y2="43.5"/>
		</g>
		<g>
			<line class="st0" x1="39.1" y1="30.6" x2="53.9" y2="30.6"/>
			<line class="st0" x1="39.1" y1="37" x2="53.9" y2="37"/>
			<line class="st0" x1="39.1" y1="43.5" x2="45.2" y2="43.5"/>
		</g>
	</g>
</g>
</svg>
