<?xml version="1.0" encoding="utf-8"?>
<!-- Generator: Adobe Illustrator 22.1.0, SVG Export Plug-In . SVG Version: 6.00 Build 0)  -->
<svg version="1.1" id="f505141c-f814-4615-8df2-52dee1c7b14b"
	 xmlns="http://www.w3.org/2000/svg" xmlns:xlink="http://www.w3.org/1999/xlink" x="0px" y="0px" viewBox="0 0 1180.6 853.7"
	 style="enable-background:new 0 0 1180.6 853.7;" xml:space="preserve">
<style type="text/css">
	.st0{opacity:0.5;fill:#E3E6F0;enable-background:new    ;}
	.st1{fill:none;stroke:#535461;stroke-width:2;stroke-miterlimit:10;}
	.st2{fill:#21C87A;}
	.st3{opacity:0.1;fill:#FFFFFF;enable-background:new    ;}
	.st4{opacity:0.2;enable-background:new    ;}
	.st5{fill:none;stroke:#21C87A;stroke-miterlimit:10;}
	.st6{opacity:0.5;fill:#FFFFFF;enable-background:new    ;}
	.st7{fill:url(#SVGID_1_);}
	.st8{fill:#FFFFFF;}
	.st9{fill:#EEEEEE;}
	.st10{fill:#FF5252;}
	.st11{fill:#FFFF00;}
	.st12{fill:#69F0AE;}
	.st13{opacity:0.5;fill:#21C87A;enable-background:new    ;}
	.st14{opacity:0.1;}
	.st15{fill:#F4F4F4;}
	.st16{fill:url(#SVGID_2_);}
	.st17{fill:#72351C;}
	.st18{fill:#333333;}
	.st19{fill:#4D8AF0;}
	.st20{fill:#F55F44;}
	.st21{opacity:0.1;enable-background:new    ;}
	.st22{fill:#FDB797;}
	.st23{fill:#F0E4E4;}
	.st24{opacity:0.2;fill:#21C87A;enable-background:new    ;}
	.st25{fill:url(#SVGID_3_);}
	.st26{fill:#565171;}
	.st27{fill:#8F5A6A;}
	.st28{fill:#B45181;}
	.st29{opacity:0.7;}
	.st30{fill:url(#SVGID_4_);}
	.st31{fill:#E0E0E0;}
	.st32{fill:#535461;}
	.st33{fill:url(#SVGID_5_);}
	.st34{fill:#3E3F49;}
</style>
<ellipse class="st0" cx="405.6" cy="788.1" rx="405.6" ry="65.6"/>
<title>blogging</title>
<path class="st1" d="M150.9,591.8c0,0-3.3-97.8-56.2-153c-22.2-23.2-36.8-52.6-40.6-84.5c-1.8-15.1-2.2-30.4-1.2-45.6"/>
<path class="st2" d="M19.7,273.8c3.6,10.9,33.9,36,33.9,36s9.3-38.2,5.6-49.1c-3.6-10.9-15.4-16.8-26.3-13.2
	C22,251.1,16.1,262.9,19.7,273.8L19.7,273.8z"/>
<path class="st2" d="M7.2,345.1c9,7.2,48,11.8,48,11.8s-13-37.1-22-44.3c-9.3-6.8-22.3-4.8-29.1,4.4C-2.4,325.8-1,338,7.2,345.1z"/>
<path class="st2" d="M42.8,447.9c11.4,1.7,47.4-14,47.4-14s-29.9-25.5-41.3-27.2c-11.4-1.7-22,6.2-23.6,17.6S31.4,446.3,42.8,447.9
	L42.8,447.9L42.8,447.9z"/>
<path class="st2" d="M87.3,519.7c10.9,3.6,49.1-5.8,49.1-5.8s-25.2-30.2-36.1-33.7c-10.9-3.6-22.7,2.4-26.3,13.3
	C70.4,504.3,76.4,516.1,87.3,519.7L87.3,519.7z"/>
<path class="st2" d="M97.3,345.3c-5.3,10.2-39.2,30.2-39.2,30.2s-3.1-39.2,2.2-49.4c5.3-10.2,17.9-14.2,28.1-8.9
	C98.7,322.5,102.6,335,97.3,345.3L97.3,345.3z"/>
<path class="st2" d="M148.3,429.8c-8.1,8.1-46.4,17.1-46.4,17.1s8.8-38.3,16.9-46.5c8.1-8.1,21.3-8.2,29.4-0.1
	C156.4,408.5,156.4,421.7,148.3,429.8L148.3,429.8L148.3,429.8z"/>
<path class="st2" d="M186.6,518.8c-6.6,9.4-42.9,24.7-42.9,24.7s2.2-39.2,8.8-48.7c6.3-9.6,19.2-12.3,28.8-6
	c9.6,6.3,12.3,19.2,6,28.8C187.1,518.1,186.9,518.4,186.6,518.8L186.6,518.8z"/>
<path class="st2" d="M615.7,525.4c0,0-15.9-5.4-23.5,8.6c-4.1,7.7-4,17,0.3,24.6c5,9.1,15.4,20.8,35,19.8
	c16.6-0.9,22.1-13.6,23.6-25.4c1.9-14.3-8.2-27.3-22.5-29.2c-4.1-0.5-8.2-0.1-12.1,1.3L615.7,525.4z"/>
<path class="st3" d="M595.9,559.9c-4.3-7.6-4.4-16.9-0.3-24.6c7.6-14,23.5-8.6,23.5-8.6l0.8-0.3c6.1-2.2,12.7-2,18.7,0.4
	c-6.6-4-14.7-4.7-22-2.1l-0.8,0.3c0,0-15.9-5.4-23.5,8.6c-4.1,7.7-4,17,0.3,24.6c3.3,6,8.9,13.1,18,17
	C604.4,571.5,599.3,566.2,595.9,559.9z"/>
<path class="st4" d="M607.5,532.2c0,0,5.9,4.6,20.2,0"/>
<path class="st2" d="M606.3,498.5c0,0,10.1,27.3,9.3,34.5l8-0.8c0,0-13.5-24-10.1-33.6L606.3,498.5z"/>
<path class="st4" d="M606.3,498.5c0,0,10.1,27.3,9.3,34.5l8-0.8c0,0-13.5-24-10.1-33.6L606.3,498.5z"/>
<path class="st2" d="M647.4,500.8c0,0-15.9-8.1-23-1.4s-8.2,23.9-8.2,23.9S642.2,526.8,647.4,500.8z"/>
<path class="st3" d="M647.4,500.8c0,0-15.9-8.1-23-1.4s-8.2,23.9-8.2,23.9S642.2,526.8,647.4,500.8z"/>
<path class="st5" d="M616.3,523.3c0,0,4.2-19.9,31.2-22.5"/>
<path class="st1" d="M159.8,404.1c0,0,3.2-52.9-22.4-85.3c-10.9-13.6-17-30.3-17.6-47.6c-0.2-8.2,0.4-16.5,1.7-24.6"/>
<path class="st2" d="M105.4,226c1.4,6.1,16.4,21.1,16.4,21.1s7-20.1,5.6-26.2c-1.4-6.1-7.4-9.9-13.5-8.5S104,219.9,105.4,226
	L105.4,226z"/>
<path class="st2" d="M95,263.8c4.5,4.3,25.3,8.8,25.3,8.8s-5.1-20.7-9.6-25c-4.5-4.3-11.6-4.2-15.9,0.2
	C90.4,252.3,90.5,259.4,95,263.8L95,263.8z"/>
<path class="st2" d="M108.9,321c6,1.5,26.3-5.1,26.3-5.1s-14.8-15.3-20.9-16.8c-6-1.5-12.2,2.2-13.6,8.2
	C99.2,313.4,102.9,319.5,108.9,321L108.9,321z"/>
<path class="st2" d="M129.2,362c5.7,2.5,26.8-0.6,26.8-0.6s-12-17.6-17.7-20c-5.7-2.6-12.3-0.1-15,5.5c-2.6,5.7-0.1,12.3,5.5,15
	C128.9,361.9,129.1,361.9,129.2,362L129.2,362z"/>
<path class="st2" d="M143.6,268.5c-3.4,5.2-22.7,14.3-22.7,14.3s0.4-21.3,3.7-26.5c3.4-5.2,10.4-6.7,15.6-3.3
	C145.5,256.3,146.9,263.3,143.6,268.5z"/>
<path class="st2" d="M166.7,316.7c-4.8,4-25.9,6.8-25.9,6.8s6.7-20.2,11.5-24.2c4.8-4,11.9-3.3,15.9,1.5S171.5,312.7,166.7,316.7z"
	/>
<path class="st2" d="M182.8,366.6c-4,4.7-24.4,11.1-24.4,11.1s3.2-21,7.3-25.8c4.1-4.7,11.2-5.3,15.9-1.2S186.8,361.9,182.8,366.6
	L182.8,366.6z"/>
<path class="st6" d="M105.4,226c1.4,6.1,16.4,21.1,16.4,21.1s7-20.1,5.6-26.2c-1.4-6.1-7.4-9.9-13.5-8.5S104,219.9,105.4,226
	L105.4,226z"/>
<path class="st6" d="M95,263.8c4.5,4.3,25.3,8.8,25.3,8.8s-5.1-20.7-9.6-25c-4.5-4.3-11.6-4.2-15.9,0.2
	C90.4,252.3,90.5,259.4,95,263.8L95,263.8z"/>
<path class="st6" d="M108.9,321c6,1.5,26.3-5.1,26.3-5.1s-14.8-15.3-20.9-16.8c-6-1.5-12.2,2.2-13.6,8.2
	C99.2,313.4,102.9,319.5,108.9,321L108.9,321z"/>
<path class="st6" d="M129.2,362c5.7,2.5,26.8-0.6,26.8-0.6s-12-17.6-17.7-20c-5.7-2.6-12.3-0.1-15,5.5c-2.6,5.7-0.1,12.3,5.5,15
	C128.9,361.9,129.1,361.9,129.2,362L129.2,362z"/>
<path class="st6" d="M143.6,268.5c-3.4,5.2-22.7,14.3-22.7,14.3s0.4-21.3,3.7-26.5c3.4-5.2,10.4-6.7,15.6-3.3
	C145.5,256.3,146.9,263.3,143.6,268.5z"/>
<path class="st6" d="M166.7,316.7c-4.8,4-25.9,6.8-25.9,6.8s6.7-20.2,11.5-24.2c4.8-4,11.9-3.3,15.9,1.5S171.5,312.7,166.7,316.7z"
	/>
<path class="st6" d="M182.8,366.6c-4,4.7-24.4,11.1-24.4,11.1s3.2-21,7.3-25.8c4.1-4.7,11.2-5.3,15.9-1.2S186.8,361.9,182.8,366.6
	L182.8,366.6z"/>
<linearGradient id="SVGID_1_" gradientUnits="userSpaceOnUse" x1="928.1113" y1="421.26" x2="928.1113" y2="765.22" gradientTransform="matrix(1 0 0 -1 0 765.22)">
	<stop  offset="0" style="stop-color:#808080;stop-opacity:0.25"/>
	<stop  offset="0.54" style="stop-color:#808080;stop-opacity:0.12"/>
	<stop  offset="1" style="stop-color:#808080;stop-opacity:0.1"/>
</linearGradient>
<polygon class="st7" points="675.7,0 675.7,17.4 675.7,344 1180.6,344 1180.6,17.4 1180.6,0 "/>
<rect x="683.1" y="15.6" class="st8" width="492.1" height="322.1"/>
<rect x="683.1" y="0.3" class="st9" width="492.1" height="23.7"/>
<circle class="st10" cx="701.9" cy="11.8" r="5.8"/>
<circle class="st11" cx="717.7" cy="11.8" r="5.8"/>
<circle class="st12" cx="733.5" cy="11.8" r="5.8"/>
<rect x="702" y="61.9" class="st13" width="183.4" height="7.6"/>
<rect x="702" y="77.2" class="st13" width="183.4" height="7.6"/>
<rect x="702" y="92.5" class="st13" width="183.4" height="7.6"/>
<rect x="765.2" y="107.8" class="st13" width="120.2" height="7.6"/>
<rect x="702" y="123.1" class="st13" width="96.5" height="7.6"/>
<rect x="754.1" y="138.4" class="st13" width="74.3" height="7.6"/>
<rect x="909.7" y="115.4" class="st13" width="216" height="124.3"/>
<rect x="935.4" y="127.2" class="st9" width="216" height="124.3"/>
<path class="st2" d="M1056.2,251.5H935.4v-22.7C964.9,215,1010.3,207.2,1056.2,251.5z"/>
<g class="st14">
	<path d="M1150,248.3v3.2H999.3v-0.7C999.3,250.8,1073.5,178.7,1150,248.3z"/>
</g>
<path class="st2" d="M1151.4,248.3v3.2h-150.7v-0.7C1000.7,250.8,1074.8,178.7,1151.4,248.3z"/>
<circle class="st2" cx="960.4" cy="149.5" r="11.1"/>
<path class="st15" d="M1055,141c-1.3,0-2.7,0-3.7,0.1c-0.4,0-0.9,0.1-1.3,0.3l-6.5,2.4c5.3,0.1,10.8,0.1,16.2,0l30.3-0.2
	c3.1,0,6.3-0.1,8.9-0.2c1.7-0.1,3-0.3,4.6-0.4c5.7-0.5,14.1-0.4,21.6-0.4s16.5-0.2,19.1-0.9h-16.1c-1.7,0-3.6,0-5.1-0.1
	c-1.8-0.1-2.9-0.3-4.4-0.4c-2.6-0.2-6.2-0.3-9.5-0.3C1091,140.7,1072.9,141.1,1055,141z"/>
<path class="st15" d="M1073,154.5c-0.3,0-0.6,0-0.8,0c-0.1,0-0.2,0-0.3,0.1l-1.4,0.5c1.1,0,2.3,0,3.5,0l6.6-0.1c0.7,0,1.4,0,1.9-0.1
	l1-0.1c1.2-0.1,3.1-0.1,4.7-0.1c1.4,0,2.8,0,4.2-0.2h-3.5c-0.4,0-0.8,0-1.1,0s-0.6-0.1-1-0.1c-0.6,0-1.3-0.1-2.1-0.1
	C1080.8,154.4,1076.9,154.5,1073,154.5z"/>
<path class="st15" d="M1026.5,174c-0.3,0-0.6,0-0.8,0c-0.1,0-0.2,0-0.3,0.1l-1.4,0.5c1.1,0,2.3,0,3.5,0l6.6-0.1c0.7,0,1.4,0,1.9-0.1
	l1-0.1c1.2-0.1,3.1-0.1,4.7-0.1c1.4,0,2.8,0,4.2-0.2h-3.5c-0.4,0-0.8,0-1.1,0s-0.6-0.1-1-0.1c-0.6,0-1.3-0.1-2.1-0.1
	C1034.3,173.9,1030.3,174,1026.5,174z"/>
<path class="st2" d="M1000.3,245.4h-5.2c0,0-1.6-57.1,5.2-74.8h1.3C1001.7,170.6,997.1,235.3,1000.3,245.4z"/>
<path class="st2" d="M996.7,167.7c0,0-4.2,11.8-2.3,17c0,0,2.9-10.8,6.4-12.4s7,12.4,7,12.4s2-8.8-1.6-16c4.6,2.7,8.3,6.7,10.8,11.4
	c0,0,0.7-4.9-7.8-15c0,0,7.5,2,12.4,6.5c0,0,1.6-3.6-8.5-9.5c0,0,1.3-4.2,9.1-2.3c0,0,0-5.6-12.4-4.6c0,0,0-3.6,8.2-2.9
	c0,0,0-4.6-9.5-2.9c0,0,2-2.9,3.3-3.6c-1.6-0.2-3.3,0.3-4.6,1.3c0,0,0.3-5.9-4.6-8.2l-0.7,8.2c0,0-5.5-6.5-4.2-5.2
	c0.8,2,1.1,4.1,1,6.2c0,0-5.5-4.6-12.4,0.3c0,0,8.5,0.6,9.8,3.6c0,0-7.2-1.3-8.8-0.3c0,0,5.5,2,5.2,3.3c0,0-9.8,0-11.1,3.6
	c0,0,10.1,1.3,10.8,2.3c0,0-11.8,8.5-12.4,10.8c0,0,12.1-7.2,14-7.2s-8.8,10.4-8.2,13.1C985.7,177.5,994.5,167.1,996.7,167.7z"/>
<path class="st2" d="M1064.8,243.3h4c0,0,1.3-43.6-4-57.1h-1C1063.8,186.2,1067.3,235.5,1064.8,243.3z"/>
<path class="st2" d="M1067.5,183.9c0,0,3.2,9,1.8,13c0,0-2.2-8.2-4.9-9.5s-5.4,9.5-5.4,9.5s-1.5-6.7,1.3-12.2
	c-3.5,2.1-6.4,5.1-8.2,8.7c0,0-0.5-3.7,6-11.5c0,0-5.7,1.5-9.5,5c0,0-1.3-2.7,6.5-7.2c0,0-1-3.2-7-1.8c0,0,0-4.2,9.5-3.5
	c0,0,0-2.7-6.2-2.2c0,0,0-3.5,7.2-2.2c-0.7-1-1.5-2-2.5-2.7c1.2-0.1,2.5,0.2,3.5,1c0,0-0.3-4.5,3.5-6.2l0.5,6.2c0,0,4.2-4.9,3.2-4
	c-0.6,1.5-0.9,3.1-0.8,4.7c0,0,4.2-3.5,9.5,0.3c0,0-6.5,0.5-7.5,2.7c0,0,5.5-1,6.7-0.3c0,0-4.2,1.5-4,2.5c0,0,7.5,0,8.5,2.7
	c0,0-7.7,1-8.2,1.8c0,0,9,6.5,9.5,8.2c0,0-9.2-5.5-10.7-5.5s6.7,8,6.2,10C1076,191.4,1069.3,183.4,1067.5,183.9z"/>
<path class="st2" d="M1112.5,234.7h2.5c0,0,0.8-27-2.5-35.4h-0.6C1111.9,199.4,1114,230,1112.5,234.7z"/>
<path class="st2" d="M1114.2,198c0,0,2,5.6,1.1,8c0,0-1.4-5.1-3-5.9s-3.3,5.9-3.3,5.9c-0.5-2.5-0.2-5.2,0.8-7.6
	c-2.2,1.3-3.9,3.2-5.1,5.4c0,0-0.3-2.3,3.7-7.1c-2.2,0.6-4.2,1.7-5.9,3.1c0,0-0.8-1.7,4-4.5c0,0-0.6-2-4.3-1.1c0,0,0-2.6,5.9-2.2
	c0,0,0-1.7-3.9-1.4c0,0,0-2.2,4.5-1.4c-0.4-0.6-0.9-1.2-1.5-1.7c0.8-0.1,1.5,0.2,2.2,0.6c-0.1-1.6,0.8-3.1,2.2-3.9l0.3,3.9
	c0,0,2.6-3.1,2-2.5c-0.4,0.9-0.5,1.9-0.5,2.9c1.8-1.3,4.2-1.2,5.9,0.1c0,0-4,0.3-4.6,1.7c0,0,3.4-0.6,4.2-0.1c0,0-2.6,0.9-2.5,1.5
	c0,0,4.6,0,5.3,1.7c0,0-4.8,0.6-5.1,1.1c0,0,5.6,4,5.9,5.1c0,0-5.7-3.4-6.6-3.4c-0.9,0,4.2,4.9,3.9,6.2
	C1119.5,202.6,1115.3,197.7,1114.2,198z"/>
<linearGradient id="SVGID_2_" gradientUnits="userSpaceOnUse" x1="1090.1244" y1="487.0602" x2="1090.1244" y2="525.5002" gradientTransform="matrix(1 0 0 -1 -75 718.14)">
	<stop  offset="0" style="stop-color:#808080;stop-opacity:0.25"/>
	<stop  offset="0.54" style="stop-color:#808080;stop-opacity:0.12"/>
	<stop  offset="1" style="stop-color:#808080;stop-opacity:0.1"/>
</linearGradient>
<path class="st16" d="M1022.2,204.2L1022.2,204.2l-0.5-2.8c0-0.4-0.2-0.8-0.5-1.1l-2.4-1.2l0,0c-0.2-0.2-0.3-0.5-0.4-0.7v-0.1
	c0.1-0.2,0.2-0.4,0.3-0.6c0-0.1,0-0.1,0-0.2l0,0c0.5,0.1,0.9-0.3,1-0.7v-0.1c-0.1,0.4-0.4,0.6-0.8,0.7c0.7-0.4,1.1-1.2,1.1-2
	c0,0,0-0.1,0-0.1c0.2-0.1,0.4-0.4,0.4-0.6v-0.1c-0.1,0.2-0.2,0.4-0.4,0.6c0-0.2-0.1-0.5-0.2-0.7h0.1c0.5,0,0.9-0.4,0.9-0.9v0
	c0,0,0,0,0-0.1c0,0.5-0.4,0.8-0.9,0.8h-0.1l0,0c0.5-0.2,0.9-0.6,1-1.2c0,0,0,0,0-0.1c0,0.2-0.1,0.3-0.2,0.5c0.1-0.5-0.3-0.9-0.8-1
	s-0.9,0.3-1,0.8l0,0l-0.2-0.1c0.1-0.4,0.4-0.6,0.8-0.6h-0.1c-0.4,0-0.7,0.2-0.9,0.6c-1.1-0.5-2.4-0.1-3.1,0.9
	c-0.2,0.1-0.4,0.3-0.4,0.5c-0.1,0.1-0.1,0.2-0.2,0.3c-0.3,0.6-0.4,1.2-0.3,1.9c0.1,0.6-0.2,1.3-0.6,1.7c0.2,0.1,0.4,0.1,0.7,0
	c0.2-0.1,0.4-0.2,0.6-0.3c0.2-0.1,0.3-0.2,0.4-0.4l0,0c0.1,0.1,0.2,0.1,0.4,0.2c0,0.4,0.1,0.9-0.1,1l0,0l0,0V199
	c-0.4,0.3-1,0.5-1.6,0.5c-0.7,0-1.3,0.4-1.6,1l-0.8,3.2l0,0v0l0,0v0l0,0c0,0.1,0.1,0.2,0.2,0.2l0.2,0.1c0.1,0.5,0.1,1,0,1.5
	c-0.2,0.8-0.2,1.6-0.3,2.4c0.1,0.4,0.2,2.5,0.2,3.4c-0.1,0.3-0.2,0.7-0.2,1l-1.1,6.7c0,0-0.8,5.4-0.8,7l-0.2,0.9
	c0,0-2.3,2.9-1.6,3.3s1.7,0.6,2.7-0.9c0.1-0.4,0.3-0.7,0.6-0.9c0.2-0.2,0.3-0.5,0.3-0.8l-0.1-0.7h0.1l0,0h0.1c0.6-2,1-4.1,1-6.2
	c0,0,2.1-7.4,3.7-8.5l0,0l0.2-0.1l0.3,7.1l-0.3,7.9l-0.1,0.5c0,0-2.3,2.9-1.6,3.3s1.7,0.6,2.7-0.9c0.1-0.4,0.3-0.7,0.6-0.9
	c0.2-0.2,0.3-0.5,0.3-0.8l-0.1-1c0.4-1.3,1.4-5.1,1-7.4l0.7-4.7c0.7-0.8,0.6-2.8,0.6-2.8c0.5-1.1,0.7-5.6,0.7-5.6l0.1-2.2h0.3h0.1
	l0,0l0-0.1l0,0v0l0,0L1022.2,204.2z M1020.2,208.7c-0.1-0.1-0.1-0.3-0.2-0.5h-0.1v-0.1v0v-0.1c0-0.1,0.1-0.2,0.1-0.2
	c0.1-0.1,0.1-0.3,0.1-0.5C1020.3,207.8,1020.3,208.2,1020.2,208.7L1020.2,208.7z M1020,206.8l-0.1-1.5v-0.1l0.2,1.9L1020,206.8z
	 M1013.4,207c-0.1,0.1-0.1,0.3-0.1,0.4l0,0c0,0.2,0,0.3,0.1,0.5l-0.2,0.9V207c0.1-0.2,0.3-0.4,0.4-0.6
	C1013.5,206.6,1013.5,206.8,1013.4,207L1013.4,207z"/>
<path class="st17" d="M1014.9,195.5c-0.3,0.6-0.3,1.2-0.3,1.8c0.1,0.6-0.2,1.2-0.6,1.6c0.2,0.1,0.4,0.1,0.6,0
	c0.2-0.1,0.4-0.2,0.6-0.3c0.2-0.1,0.3-0.2,0.4-0.4c0.1-0.2,0.1-0.5,0.1-0.8c0-0.5,0-0.9,0.1-1.4c0-0.3,0.3-1,0-1.2
	S1015,195.3,1014.9,195.5z"/>
<path class="st18" d="M1010.3,225l-0.2,1.4c0,0-2.2,2.8-1.5,3.1s1.6,0.6,2.6-0.9c0.1-0.3,0.3-0.7,0.6-0.9l0,0
	c0.2-0.2,0.3-0.5,0.3-0.8l-0.2-2.1L1010.3,225z"/>
<path class="st18" d="M1016.9,225.6l-0.2,1.4c0,0-2.2,2.8-1.5,3.1s1.6,0.6,2.6-0.9c0.1-0.3,0.3-0.7,0.6-0.9l0,0
	c0.2-0.2,0.3-0.5,0.3-0.8l-0.2-2.1L1016.9,225.6z"/>
<path class="st19" d="M1013.5,209c0,0-1,0.7-1.4,3.3l-1.1,6.5c-0.4,2.3-0.6,4.7-0.7,7l1.8,0.6c0.6-1.9,0.9-4,1-6
	c0,0,2.2-7.8,3.7-8.3l0.3,6.9l-0.3,7.8l1.6,0.3c0,0,1.6-4.9,1.1-7.5l0.8-5.5c0.5-1.8,0.4-3.8-0.4-5.5L1013.5,209z"/>
<g class="st14">
	<path d="M1016.6,212.1V212c-1.5,0.5-3.7,8.3-3.7,8.3c0,2-0.4,4-0.9,5.9l0.2,0.1c0.6-1.9,0.9-4,1-6
		C1013.1,220.4,1015.1,213.3,1016.6,212.1z"/>
	<path d="M1019.9,208.4h-0.2c0.7,1.7,0.9,3.7,0.3,5.5l-0.8,5.5c0.5,2.5-0.9,7-1.1,7.5h0.2c0,0,1.6-4.9,1.1-7.5l0.8-5.5
		C1020.7,212,1020.6,210.1,1019.9,208.4z"/>
</g>
<path class="st20" d="M1012.1,203.9c0,0.1,0.1,0.2,0.2,0.2c0.5,0.1,1,0.3,1.4,0.7c0.8,0.6-0.8-1.2-0.8-1.2l-0.5,0.1L1012.1,203.9z"
	/>
<path class="st21" d="M1012.1,203.9c0,0.1,0.1,0.2,0.2,0.2c0.5,0.1,1,0.3,1.4,0.7c0.8,0.6-0.8-1.2-0.8-1.2l-0.5,0.1L1012.1,203.9z"
	/>
<path class="st20" d="M1019.6,205.5c0.6-0.5,1.4-0.8,2.2-0.9c0.1,0,0.2-0.1,0.2-0.2v0l0,0c-0.9-0.4-1.9,0-2.3,0.9
	C1019.6,205.4,1019.6,205.5,1019.6,205.5z"/>
<path class="st21" d="M1021.9,204.4c-0.9-0.4-1.9,0-2.3,0.9c0,0.1-0.1,0.1-0.1,0.2c0,0,1.3-1,2.3-0.9"/>
<circle class="st17" cx="1017.5" cy="196.1" r="2.4"/>
<path class="st22" d="M1015.8,197.7c0,0,0.3,1.4,0,1.7s-1,0.8-0.5,1.2s2.3,1.1,2.9,0.8s1.3-0.2,1.1-0.9s-1.5-0.5-1.5-4L1015.8,197.7
	z"/>
<path class="st21" d="M1012.5,203.5c0.1,0.8,0,1.5-0.1,2.3c-0.2,0.7-0.2,1.5-0.3,2.3c0.1,0.5,0.2,3.8,0.2,3.8s-0.3,2.9,1.2,2.6
	s-0.2-3.3-0.2-3.3l0.1-4c0.4-0.5,0.6-1.1,0.7-1.8C1014.1,204.5,1012.5,203.5,1012.5,203.5z"/>
<path class="st22" d="M1012.4,203.5c0.1,0.8,0,1.5-0.1,2.3c-0.2,0.7-0.2,1.5-0.3,2.3c0.1,0.5,0.2,3.8,0.2,3.8s-0.3,2.9,1.2,2.6
	s-0.2-3.3-0.2-3.3l0.1-4c0.4-0.5,0.6-1.1,0.7-1.8C1014.1,204.5,1012.4,203.5,1012.4,203.5z"/>
<path class="st21" d="M1021.5,203.7l-0.2,3.1c0,0-0.1,4.3-0.7,5.4c0,0,0.1,3-1.3,3s0.2-3.3,0.2-3.3s0.8-3.4,0.4-4.5l-0.4-3.7
	L1021.5,203.7z"/>
<path class="st22" d="M1021.5,203.7l-0.2,3.1c0,0-0.1,4.3-0.7,5.4c0,0,0.1,3-1.3,3s0.2-3.3,0.2-3.3s0.8-3.4,0.4-4.5l-0.4-3.7
	L1021.5,203.7z"/>
<path class="st21" d="M1016.9,200.7c0,0,1.1,0.5,1.8-1l2.3,1.1c0.3,0.3,0.5,0.7,0.5,1l0.5,2.7c-0.9-0.3-1.9,0.1-2.2,1c0,0,0,0,0,0
	l0.1,1.5l0,0c0.1,0.4,0.1,0.8-0.1,1.1c0,0.1,0,0.1,0,0.2c0.1,0.4,0,0.8-0.4,1c-0.1,0-0.2,0-0.2,0c-0.6,0-1.3,0.1-1.9,0.1
	c-0.5,0.1-2-0.3-2.5,0s-1.6-0.2-1.6-0.2l0.3-1.2c0,0-0.2-0.6,0-0.8c0.2-0.9,0.1-1.8-0.1-2.6c0,0-0.9-0.8-1.4-0.7l0.7-3.1
	c0.3-0.6,0.9-1,1.6-1c0.5,0,1.1-0.1,1.5-0.4C1015.8,199.5,1015.2,200.5,1016.9,200.7z"/>
<path class="st21" d="M1017,200.7c0.3,0.1,1.2,0.2,1.7-1.1l2.3,1.1c0.3,0.3,0.5,0.7,0.5,1l0.5,2.7c-0.9-0.3-1.9,0.1-2.2,1
	c0,0,0,0,0,0l0.1,1.5l0.1,0.3c0.1,0.3,0,0.5-0.1,0.8c-0.1,0.1-0.1,0.2,0,0.3c0.1,0.4,0,0.8-0.4,1c-0.1,0-0.2,0-0.2,0
	c-0.6,0-1.3,0.1-1.9,0.1c-0.5,0.1-2-0.3-2.5,0s-1.6-0.2-1.6-0.2l0.3-1.2c0,0-0.2-0.6,0-0.8c0.2-0.9,0.1-1.8-0.1-2.6
	c0,0-0.9-0.8-1.4-0.7l0.7-3.1c0.3-0.6,0.9-1,1.6-1c0.5,0,1.1-0.1,1.5-0.4c0,0-0.6,1,0.9,1.3L1017,200.7z"/>
<path class="st20" d="M1017,200.7c0.3,0.1,1.2,0.2,1.7-1.1l2.3,1.1c0.3,0.3,0.5,0.7,0.5,1l0.5,2.7c-0.9-0.3-1.9,0.1-2.2,1
	c0,0,0,0,0,0l0.1,1.5l0,0c0.1,0.4,0.1,0.8-0.1,1.1c0,0.1,0,0.1,0,0.2c0.1,0.4,0,0.8-0.4,1c-0.1,0-0.2,0-0.2,0
	c-0.6,0-1.3,0.1-1.9,0.1c-0.5,0.1-2-0.3-2.5,0s-1.6-0.2-1.6-0.2l0.3-1.2c0,0-0.2-0.6,0-0.8c0.2-0.9,0.1-1.8-0.1-2.6
	c0,0-0.9-0.8-1.4-0.7l0.7-3.1c0.3-0.6,0.9-1,1.6-1c0.5,0,1.1-0.1,1.5-0.4c0,0-0.6,1,0.9,1.3L1017,200.7z"/>
<path class="st21" d="M1017.9,196.6l-2,1.3c0.1,0.2,0.1,0.4,0.1,0.7c0.2,0.1,0.5,0.1,0.7,0.1c0.5,0,1-0.2,1.3-0.6
	C1018,197.6,1017.9,197.1,1017.9,196.6z"/>
<circle class="st22" cx="1016.7" cy="196.6" r="2"/>
<circle class="st17" cx="1019.6" cy="194.2" r="0.9"/>
<path class="st17" d="M1019.7,195.1c-0.5,0-0.8-0.3-0.9-0.8c0,0,0,0,0,0.1c0,0.5,0.4,0.9,0.9,0.9c0.5,0,0.9-0.4,0.9-0.9c0,0,0,0,0,0
	c0,0,0,0,0-0.1C1020.6,194.8,1020.2,195.1,1019.7,195.1z"/>
<path class="st17" d="M1019.2,196c-0.4-0.1-0.7-0.5-0.7-0.9v0.1c-0.1,0.5,0.2,0.9,0.7,1s0.9-0.2,1-0.7v-0.1
	C1020.1,195.8,1019.7,196.1,1019.2,196z"/>
<path class="st17" d="M1018.6,198c-0.4-0.1-0.7-0.5-0.7-0.9v0.1c-0.1,0.5,0.2,0.9,0.7,1s0.9-0.2,1-0.7l0,0v-0.1
	C1019.5,197.8,1019,198.1,1018.6,198z"/>
<path class="st17" d="M1019.7,194.7c-0.5,0-0.8-0.3-0.9-0.8c0,0,0,0,0,0.1c0,0.5,0.4,0.9,0.9,0.9c0.5,0,0.9-0.4,0.9-0.9
	c0,0,0,0,0-0.1C1020.6,194.3,1020.2,194.7,1019.7,194.7z"/>
<path class="st17" d="M1018.5,194.2c0-0.5,0.4-0.8,0.8-0.9h-0.1c-0.5,0-0.9,0.4-0.9,0.9c0,0.5,0.4,0.9,0.9,0.9h0.1
	C1018.9,195,1018.5,194.6,1018.5,194.2z"/>
<path class="st21" d="M1019.4,202.3c0.1,0.4,0.1,0.9,0,1.3c0,0-0.1,1.1,0.1,1.3"/>
<path class="st21" d="M1013.6,202.5c0.1,0.4,0.1,0.9,0,1.3c0,0-0.1,1.1,0.1,1.3"/>
<path class="st21" d="M1013.5,207.2c0.2,0.1,0.4,0.1,0.6,0c0.2-0.1,0.5-0.1,0.7,0"/>
<path class="st21" d="M1013.8,205.5c0.7,0,1.4-0.1,2-0.3c0,0,2.4,0.6,3.1,0.2"/>
<path class="st22" d="M1012.5,215.8h0.7c0.2,0,0.4,0.2,0.4,0.4v0.1c0,0.2-0.2,0.4-0.4,0.4h-0.7c-0.2,0-0.4-0.2-0.4-0.4v-0.1
	C1012.1,216,1012.2,215.8,1012.5,215.8z"/>
<path class="st23" d="M1012.1,216.1h0.8l0.7,0.1h-0.3L1012.1,216.1z"/>
<path class="st23" d="M1017.5,212.2h0.8l0.7,0.1h-0.3L1017.5,212.2z"/>
<path class="st23" d="M1017.5,212.4h0.8l0.7,0.1h-0.3L1017.5,212.4z"/>
<path class="st23" d="M1017.5,212.5h0.8l0.7,0.1h-0.3L1017.5,212.5z"/>
<path class="st23" d="M1017.5,212.7h0.8l0.7,0.1h-0.3L1017.5,212.7z"/>
<path class="st23" d="M1012.1,216.7h0.8l0.7,0.1h-0.3L1012.1,216.7z"/>
<path class="st23" d="M1012.1,216.6h0.8l0.7,0.1h-0.3L1012.1,216.6z"/>
<path class="st23" d="M1012.1,216.5h0.8l0.7,0.1h-0.3L1012.1,216.5z"/>
<path class="st23" d="M1012.1,216.5h0.8l0.7,0.1h-0.3L1012.1,216.5z"/>
<path class="st23" d="M1012.1,216h0.8l0.7,0.1h-0.3L1012.1,216z"/>
<path class="st23" d="M1012.1,215.8h0.8l0.7,0.1h-0.3L1012.1,215.8z"/>
<path class="st21" d="M1017,195.3c-0.1,0.7,0,1.5,0.3,2.2c0.2,0.7,0.2,1.4-0.1,2.1c0.2,0.1,0.4,0,0.6-0.1c0.2-0.2,0.3-0.3,0.4-0.5
	c0.1-0.2,0.2-0.3,0.3-0.5c0-0.3,0-0.6-0.1-0.9c-0.1-0.5-0.2-1.1-0.3-1.6c0-0.3,0-1.3-0.4-1.4S1017.1,195,1017,195.3z"/>
<path class="st17" d="M1017.1,195.3c-0.1,0.7,0,1.5,0.3,2.2c0.3,0.7,0.2,1.4-0.1,2.1c0.2,0.1,0.4,0,0.6-0.1c0.2-0.2,0.3-0.3,0.4-0.5
	c0.1-0.2,0.2-0.3,0.3-0.5c0-0.3,0-0.6-0.1-0.9c-0.1-0.5-0.2-1.1-0.3-1.6c0-0.3,0-1.3-0.4-1.4S1017.2,195,1017.1,195.3z"/>
<path class="st21" d="M1016.2,195.8c0.2,0.2,0.2,0.4,0.3,0.6c0.3,0.3,0.6,0.4,1,0.4c0.1,0,0.2,0,0.3,0.1c0.2,0.1,0.2,0.3,0.3,0.5
	c0.2,0.2,0.6,0.2,0.8,0c0,0,0,0,0,0c0.2-0.2,0.3-0.5,0.2-0.8c0-0.3,0-0.7,0-1c0-0.4-0.2-0.8-0.4-1.1c-0.2-0.2-0.5-0.3-0.8-0.3
	c-0.4-0.1-0.8-0.2-1.2-0.1c-0.2,0.1-0.4,0.2-0.5,0.3l-0.7,0.5c-0.3,0.2-0.7,0.5-0.3,0.7C1015.6,195.6,1016,195.5,1016.2,195.8z"/>
<path class="st17" d="M1016.3,195.8c0.2,0.2,0.2,0.4,0.3,0.6c0.3,0.3,0.6,0.4,1,0.4c0.1,0,0.2,0,0.3,0.1c0.2,0.1,0.2,0.3,0.3,0.5
	c0.2,0.2,0.6,0.2,0.8,0c0,0,0,0,0,0c0.2-0.2,0.3-0.5,0.3-0.9c0-0.3,0-0.7,0-1c0-0.4-0.2-0.8-0.4-1.1c-0.2-0.2-0.5-0.3-0.8-0.3
	c-0.4-0.1-0.8-0.2-1.2-0.1c-0.2,0.1-0.4,0.2-0.5,0.3l-0.7,0.5c-0.3,0.2-0.7,0.5-0.3,0.7C1015.6,195.5,1016,195.5,1016.3,195.8z"/>
<path class="st23" d="M1017.5,212.2h0.8l0.7,0.1h-0.3L1017.5,212.2z"/>
<path class="st23" d="M1017.5,212.4h0.8l0.7,0.1h-0.3L1017.5,212.4z"/>
<path class="st23" d="M1017.5,212.5h0.8l0.7,0.1h-0.3L1017.5,212.5z"/>
<path class="st23" d="M1017.5,212.7h0.8l0.7,0.1h-0.3L1017.5,212.7z"/>
<path class="st23" d="M1017.2,221.9h0.8l0.7,0.1h-0.3L1017.2,221.9z"/>
<path class="st23" d="M1017.2,222.1h0.8l0.7,0.1h-0.3L1017.2,222.1z"/>
<path class="st23" d="M1017.2,222.2h0.8l0.7,0.1h-0.3L1017.2,222.2z"/>
<path class="st23" d="M1017.2,222.4h0.8l0.7,0.1h-0.3L1017.2,222.4z"/>
<path class="st24" d="M353.5,674.3H274v-44.8h79.5V674.3z M277.4,670.9h72.8v-38.1h-72.8V670.9z"/>
<linearGradient id="SVGID_3_" gradientUnits="userSpaceOnUse" x1="1393.5665" y1="107.8723" x2="1393.5665" y2="564.9158" gradientTransform="matrix(-1 0 0 -1 1671.1525 718.14)">
	<stop  offset="0" style="stop-color:#808080;stop-opacity:0.25"/>
	<stop  offset="0.54" style="stop-color:#808080;stop-opacity:0.12"/>
	<stop  offset="1" style="stop-color:#808080;stop-opacity:0.1"/>
</linearGradient>
<path class="st25" d="M221.1,607.1c5,2.9,10.3,4.1,15.7,2.3c1.4-0.5,2.8-1.1,4.1-1.8c51,1.1,98.2,0.6,100.1-4.9
	c3-9.1-16-53.9-25.6-75.6c2.8-1.9,5.2-4.4,7-7.3c13.3,15.2,38.1,34.9,52.8,35.9c0,0,21.5,51.1,45.7,43c24.2-8.1,26.9-51.1,14.8-56.4
	L355,491.1v-84.7c2.5-4.9,3.6-10.3,3.4-15.7c0-1,0-2,0-3l-2.7-24.2c0,0-0.1-0.8-0.5-2.3c-6-23.3-19.4-39-38.2-41.3
	c0.9-1.7,1.5-3.5,1.6-5.4c0.4-4.5-1.5-9.1-0.4-13.5c1.2-5.1,6-8.5,9.9-12c8.4-7.6,13.6-18,18.7-28.1c4.8-9.6,9.8-19.5,11-30.2
	s-2-22.6-10.8-28.9c-6.8-4.9-16.4-6.2-21.3-13c-2.2-3.1-3.1-6.8-4.6-10.3c-4.4-9.9-13.7-16.9-23.9-20.6
	c-35.7-12.9-79.5,1.9-102.3,31.6c-7.4,9.7-12.8,20.8-18.1,31.8l-19.2,39.7c-3.3,6.8-6.5,15.4-2.1,21.5c2.2,3,5.9,4.9,7.4,8.3
	c2,4.5-0.5,10.4,2.4,14.4c1.6,2.2,4.4,3.1,6.8,4.3c3.2,1.8,6.1,4.3,8.3,7.3l-42.2,32.7c-6.2,4.8-10.1,11.9-10.9,19.6l-4.2,41.6
	c-1.3,4.7-2,9.6-1.9,14.5c-0.1,4.4,0.4,9.2,2.6,13l0.9-0.2c1,29.1,2.7,71.1,4.5,78.8c1,4.6,7.3,12.7,15.8,21.1l-3,8.5h1l-1,2.7h2
	c-8.5,30.6-31.5,53.7-31.5,53.7S165.9,605.5,221.1,607.1z M170.9,465.5v-32.7c4.9,0.8,8.5,2.5,9.7,5.6L170.9,465.5z M185.2,323.4
	l0.2,0.2h-0.1L185.2,323.4z"/>
<path class="st22" d="M306.5,397.5c0,0,2.5,90.6,5.1,102.1s39.6,46,58.7,47.3c0,0,20.4,48.5,43.4,40.8c23-7.7,25.5-48.5,14-53.6
	l-76.5-48.5v-97L306.5,397.5z"/>
<path class="st26" d="M308.4,508.6c0,0,33.2,71.5,29.4,83s-217,0-217,0s39.6-39.6,31.9-83H308.4z"/>
<path class="st22" d="M282.9,296.7c0,0-5.1,49.8,3.8,61.3s-35.7,17.9-39.5,17.9s-44.7-14-52.3-17.9s-14-31.9-14-31.9
	s38.3,7.7,49.8-37L282.9,296.7z"/>
<path class="st27" d="M296.2,169.1c9.7,3.5,18.6,10.2,22.7,19.6c1.4,3.3,2.3,6.9,4.4,9.8c4.6,6.5,13.7,7.7,20.2,12.4
	c8.3,6,11.4,17.3,10.2,27.4s-5.8,19.5-10.4,28.7c-4.8,9.6-9.8,19.4-17.8,26.7c-3.7,3.4-8.2,6.5-9.4,11.4c-1,4.2,0.8,8.6,0.4,12.9
	c-0.9,10.6-13.6,15.5-24.2,16.7c-4.6,0.5-9.9,0.5-13.1-2.8c-1.7-1.7-2.5-4-3.5-6.1c-7.2-14.6-24.9-20.5-39.4-13.3
	c-5.6,2.8-10.2,7.3-13.1,12.8c-2.5,4.8-3.9,10.6-8.5,13.5c-6.9,4.5-16.2-0.8-21.3-7.2s-8.8-14.6-16.1-18.5c-2.3-1.2-5-2-6.5-4.1
	c-2.8-3.8-0.4-9.4-2.3-13.6c-1.4-3.2-4.9-5-7-7.8c-4.2-5.9-1.2-14,2-20.5l18.2-37.7c5-10.4,10.1-21,17.2-30.2
	C220.7,170.9,262.3,156.8,296.2,169.1z"/>
<path class="st21" d="M249.7,366.9c0,0-49.8,0-62.5-46l-41.9,32.5c-5.8,4.5-9.6,11.3-10.3,18.6l-4,39.5c0,0-4.5,14.7,0.6,23.6
	c0,0,53-13.4,54.2,1.9l-37,103.4c0,0,57.4,1.3,72.8-8.9c0,0,62.5,12.8,77.9-1.3s30.6-12.8,17.9-44.7c0,0,25.5-25.5,14-61.3
	s-0.6,0.6-0.6,0.6s24.9-12.1,23.6-35.1l-2.5-23c0,0-0.1-0.8-0.5-2.1c-7.8-30.3-28.7-47-58.1-36.3c-8.6,3.1-17.4-0.5-17.4-0.5
	S285.4,369.5,249.7,366.9z"/>
<path class="st28" d="M249.7,364.4c0,0-49.8,0-62.5-46l-41.9,32.5c-5.8,4.5-9.6,11.3-10.3,18.6l-4,39.5c0,0-4.5,14.7,0.6,23.6
	c0,0,53-13.4,54.3,1.9l-37,103.4c0,0,57.4,1.3,72.8-8.9c0,0,62.5,12.8,77.9-1.3s30.6-12.8,17.9-44.7c0,0,25.5-25.5,14-61.3
	s-0.6,0.6-0.6,0.6s24.9-12.1,23.6-35.1l-2.5-23c0,0-0.1-0.8-0.5-2.1c-7.8-30.3-28.7-47-58.1-36.3c-8.6,3.1-17.4-0.5-17.4-0.5
	S285.4,366.9,249.7,364.4z"/>
<path class="st22" d="M131.6,407.8c0,0,2.6,90.6,5.1,102.1c2.6,11.5,39.6,45.9,58.7,47.2c0,0,20.4,48.5,43.4,40.8
	c23-7.7,25.5-48.5,14-53.6l-76.6-48.5v-97L131.6,407.8z"/>
<path class="st21" d="M186.5,411c0,0-29.3,19.9-54.9,18.3c0,0-2.6-34.2,5.1-36.1S177.6,393.1,186.5,411z"/>
<path class="st28" d="M186.5,409.7c0,0-29.3,19.9-54.9,18.3c0,0-2.6-34.2,5.1-36.1S177.6,391.8,186.5,409.7z"/>
<path class="st21" d="M228,291.6l52.3,7.7c0,0-1.2,11.5-1.4,24.8c-20.7,8.7-44.7,4.9-61.6-10C221.7,308.6,225.5,301.4,228,291.6z"/>
<circle class="st22" cx="258.6" cy="267.4" r="58.7"/>
<path class="st21" d="M243.2,256.1c2.4,1.1,5.2,1.1,7.9,1.1c10.4-0.1,20.8-0.5,31.1-1.1c7.9-0.5,16.2-1.5,22.3-6.5
	c8.2-6.8,9.5-19.5,5.2-29.2s-12.8-16.9-21.9-22.4c-5.1-3.3-10.7-5.8-16.5-7.5c-16.8-4.6-35.4,1-48.8,12.3s-21.9,27.4-26.4,44.2
	c-1.6,5.8-3.6,12.8-9.3,14.5c3.8,6.4,13.2,7.4,20,4.2c9.9-4.7,15-22.8,23.9-25.6C240.5,237,234.7,252.2,243.2,256.1z"/>
<path class="st27" d="M243.2,254.8c2.4,1.1,5.2,1.1,7.9,1.1c10.4-0.1,20.8-0.5,31.1-1.1c7.9-0.5,16.2-1.5,22.3-6.5
	c8.2-6.8,9.5-19.5,5.2-29.2s-12.8-16.9-21.9-22.4c-5.1-3.2-10.7-5.7-16.5-7.4c-16.8-4.6-35.4,1-48.8,12.3s-21.9,27.4-26.4,44.2
	c-1.6,5.8-3.6,12.8-9.3,14.5c3.8,6.4,13.2,7.4,20,4.2c9.9-4.7,15-22.8,23.9-25.6C240.5,235.7,234.7,251,243.2,254.8z"/>
<path class="st21" d="M318,482.4c-19.1-5.1-38.9-7.7-58.7-7.7"/>
<path class="st21" d="M186.5,413.5c0,0,19.1,14,14,21.7"/>
<g class="st29">
	
		<linearGradient id="SVGID_4_" gradientUnits="userSpaceOnUse" x1="402.3813" y1="-20.23" x2="402.3813" y2="206.97" gradientTransform="matrix(1 0 0 -1 0 765.22)">
		<stop  offset="0" style="stop-color:#808080;stop-opacity:0.25"/>
		<stop  offset="0.54" style="stop-color:#808080;stop-opacity:0.12"/>
		<stop  offset="1" style="stop-color:#808080;stop-opacity:0.1"/>
	</linearGradient>
	<polygon class="st30" points="715.7,558.3 89,558.3 89,613 125.5,613 125.5,623.7 125.5,785.5 680.6,785.5 680.6,623.7 680.6,613 
		715.7,613 	"/>
</g>
<rect x="131.2" y="590.2" class="st31" width="543.7" height="195.3"/>
<rect x="131.2" y="600.4" class="st21" width="543.7" height="30.6"/>
<rect x="95.4" y="568.5" class="st31" width="613.9" height="52.3"/>
<path class="st32" d="M217.9,555.6h104.4c3.6,0,6.5,2.9,6.5,6.5v3.6c0,3.6-2.9,6.5-6.5,6.5H217.9c-3.6,0-6.5-2.9-6.5-6.5v-3.6
	C211.4,558.5,214.3,555.6,217.9,555.6z"/>
<g class="st29">
	
		<linearGradient id="SVGID_5_" gradientUnits="userSpaceOnUse" x1="428.8063" y1="192.84" x2="428.8063" y2="394.64" gradientTransform="matrix(1 0 0 -1 0 765.22)">
		<stop  offset="0" style="stop-color:#808080;stop-opacity:0.25"/>
		<stop  offset="0.54" style="stop-color:#808080;stop-opacity:0.12"/>
		<stop  offset="1" style="stop-color:#808080;stop-opacity:0.1"/>
	</linearGradient>
	<path class="st33" d="M311.1,370.6h235.4c15.6,0,28.2,12.6,28.2,28.2v145.4c0,15.6-12.6,28.2-28.2,28.2H311.1
		c-15.6,0-28.2-12.6-28.2-28.2V398.8C282.9,383.2,295.5,370.6,311.1,370.6z"/>
</g>
<path class="st34" d="M314.9,374.3h222.8c14.8,0,26.8,12,26.8,26.8v144.4c0,14.8-12,26.8-26.8,26.8H314.9c-14.8,0-26.8-12-26.8-26.8
	V401.2C288.1,386.3,300.1,374.3,314.9,374.3z"/>
<path class="st32" d="M318.8,374.3h222.8c14.8,0,26.8,12,26.8,26.8v144.4c0,14.8-12,26.8-26.8,26.8H318.8c-14.8,0-26.8-12-26.8-26.8
	V401.2C291.9,386.3,303.9,374.3,318.8,374.3z"/>
<circle class="st31" cx="443.1" cy="472" r="8.9"/>
</svg>
