<?xml version="1.0" encoding="utf-8"?>
<!-- Generator: Adobe Illustrator 22.1.0, SVG Export Plug-In . SVG Version: 6.00 Build 0)  -->
<svg version="1.1" id="Layer_1" xmlns="http://www.w3.org/2000/svg" xmlns:xlink="http://www.w3.org/1999/xlink" x="0px" y="0px"
	 viewBox="0 0 151 151" style="enable-background:new 0 0 151 151;" xml:space="preserve">
<style type="text/css">
	.st0{fill:none;stroke:#21C87A;stroke-width:2;stroke-linecap:round;stroke-linejoin:round;stroke-miterlimit:10;}
</style>
<g>
	<path class="st0" d="M69.4,57.4c-2.7,0-5.1,1.2-6.6,3.1V43.9H27.4c-4.9,0-9,4.1-9,9v35.5h16.4c-1.8-1.6-2.9-3.9-2.9-6.6
		c0-4.7,3.9-8.6,8.6-8.6s8.6,3.9,8.6,8.6c0,2.7-1,4.9-2.9,6.6h16.4V71.6c1.6,1.8,3.9,3.1,6.6,3.1c4.7,0,8.6-3.9,8.6-8.6
		C77.9,61.3,74.2,57.4,69.4,57.4z"/>
	<path class="st0" d="M34.8,88.2H18.3v35.5c0,4.9,4.1,9,9,9h35.3v-16.4c-1.6,1.8-3.9,2.9-6.6,2.9c-4.7,0-8.6-3.9-8.6-8.6
		c0-4.7,3.9-8.6,8.6-8.6c2.7,0,4.9,1,6.6,2.9V88.4H46.2"/>
	<path class="st0" d="M62.7,116.1v16.4h35.5c4.9,0,9-4.1,9-9V88.2H90.8c1.8,1.6,2.9,3.9,2.9,6.6c0,4.7-3.9,8.6-8.6,8.6
		c-4.7,0-8.6-3.9-8.6-8.6c0-2.7,1-4.9,2.9-6.6H62.9v16.4"/>
	<path class="st0" d="M123,24.8c-1.4-4.7-6.4-7.6-11.1-6.2l-34.1,9.9l4.5,15.8c1-2.1,2.9-3.9,5.3-4.5c4.5-1.2,9.4,1.2,10.7,6
		c1.2,4.5-1.2,9.4-6,10.7c-2.5,0.6-4.9,0.2-7-1L90,71.2l15.4-4.5c-1,2.1-1.4,4.3-0.8,6.8c1.4,4.7,6.2,7.4,10.9,6s7.4-6.2,6-10.9
		c-0.6-2.3-2.3-4.1-4.3-5.3l15.4-4.5L123,24.8z"/>
</g>
</svg>
