<?xml version="1.0" encoding="utf-8"?>
<!-- Generator: Adobe Illustrator 22.1.0, SVG Export Plug-In . SVG Version: 6.00 Build 0)  -->
<svg version="1.1" id="accd1a1b-d405-4dd1-89fa-f32239092656"
	 xmlns="http://www.w3.org/2000/svg" xmlns:xlink="http://www.w3.org/1999/xlink" x="0px" y="0px" viewBox="0 0 916.5 762"
	 style="enable-background:new 0 0 916.5 762;" xml:space="preserve">
<style type="text/css">
	.st0{opacity:0.1;fill:#151B26;}
	.st1{fill:#FFFFFF;}
	.st2{fill:#E3E6F0;}
	.st3{fill:#796EFF;}
	.st4{fill:#21C87A;}
	.st5{opacity:0.5;}
	.st6{fill:url(#SVGID_1_);}
	.st7{fill:#F55F44;}
	.st8{fill:#FDD835;}
	.st9{fill:#FDA57D;}
	.st10{opacity:0.1;enable-background:new    ;}
	.st11{opacity:5.000000e-02;enable-background:new    ;}
	.st12{fill:url(#SVGID_2_);}
	.st13{fill:#514ABF;}
	.st14{fill:url(#SVGID_3_);}
	.st15{fill:#FDB797;}
	.st16{fill:none;stroke:#21C87A;stroke-width:6;stroke-miterlimit:10;stroke-dasharray:12;}
	.st17{opacity:0.1;}
	.st18{fill:#151B26;}
	.st19{fill:url(#SVGID_4_);}
	.st20{fill:url(#SVGID_5_);}
	.st21{fill:#3AD29F;}
	.st22{fill:#BE7C5E;}
	.st23{fill:#444444;}
	.st24{fill:url(#SVGID_6_);}
</style>
<title>real-time sync</title>
<path class="st0" d="M93.8,198h129.3c5.5,0,10,4.5,10,10v251.9c0,5.5-4.5,10-10,10H93.8c-5.5,0-10-4.5-10-10V208
	C83.8,202.5,88.2,198,93.8,198z"/>
<path class="st1" d="M97.2,202.5h122.4c5.5,0,10,4.5,10,10v241.1c0,5.5-4.5,10-10,10H97.2c-5.5,0-10-4.5-10-10V212.5
	C87.2,206.9,91.7,202.5,97.2,202.5z"/>
<rect x="103.8" y="220.5" transform="matrix(1 -1.396262e-03 1.396262e-03 1 -0.4561 0.2223)" class="st2" width="110.3" height="212.5"/>
<ellipse transform="matrix(1 -1.396262e-03 1.396262e-03 1 -0.6259 0.2226)" class="st2" cx="159.1" cy="448.3" rx="8.8" ry="9"/>
<ellipse transform="matrix(1 -1.396262e-03 1.396262e-03 1 -0.2939 0.1986)" class="st2" cx="142.1" cy="210.6" rx="1.8" ry="1.8"/>
<path class="st2" d="M151,209.3l25.3,0c0.6,0,1,0.4,1,1l0,0.7c0,0.6-0.4,1-1,1l-25.3,0c-0.6,0-1-0.4-1-1l0-0.7
	C150,209.7,150.5,209.3,151,209.3z"/>
<rect x="127.8" y="343.8" class="st3" width="62.4" height="65.6"/>
<rect x="130.5" y="346.6" class="st4" width="57" height="59.9"/>
<g class="st5">
	
		<linearGradient id="SVGID_1_" gradientUnits="userSpaceOnUse" x1="300.755" y1="285.6801" x2="300.755" y2="342.55" gradientTransform="matrix(1 0 0 -1 -141.76 695)">
		<stop  offset="0" style="stop-color:#808080;stop-opacity:0.25"/>
		<stop  offset="0.54" style="stop-color:#808080;stop-opacity:0.12"/>
		<stop  offset="1" style="stop-color:#808080;stop-opacity:0.1"/>
	</linearGradient>
	<path class="st6" d="M163.3,373.7v-1.1h3v-5.8c2.8-4.3,1.6-10-2.6-12.8c-4.3-2.8-10-1.6-12.8,2.6c-1.9,2.9-2,6.7-0.3,9.8v6.2h3.3
		v1.3c-8.3,2.3-14.1,9.9-14.1,18.5v16.9h38.5v-16.9C178.2,383.5,172,375.7,163.3,373.7z"/>
</g>
<rect x="151.4" y="362" class="st7" width="14.3" height="11.4"/>
<path class="st8" d="M154.5,374h9c7.1,0,12.9,5.8,12.9,12.9v19.8l0,0h-34.7l0,0v-19.8C141.6,379.7,147.4,374,154.5,374z"/>
<path class="st9" d="M157.5,368.3h2.2c1.7,0,3.1,1.4,3.1,3.1v4.3c0,1.7-1.4,3.1-3.1,3.1h-2.2c-1.7,0-3.1-1.4-3.1-3.1v-4.3
	C154.4,369.7,155.8,368.3,157.5,368.3z"/>
<polygon class="st9" points="157,378.6 158.6,380.9 160.3,378.6 "/>
<path class="st10" d="M148.1,387c0,0-1.7,16.8-0.6,17.9"/>
<path class="st10" d="M169,387c0,0,1.7,16.8,0.6,17.9"/>
<path class="st11" d="M158.6,373.5c1.5,0,3-0.5,4.2-1.4c-0.3-2.1-2.1-3.6-4.2-3.6l0,0c-2.1,0-3.9,1.5-4.2,3.6
	C155.6,373,157.1,373.5,158.6,373.5z"/>
<circle class="st7" cx="158.6" cy="363.5" r="8.4"/>
<circle class="st9" cx="158.6" cy="366.2" r="7.1"/>
<ellipse class="st9" cx="151.5" cy="365.7" rx="0.5" ry="0.9"/>
<ellipse class="st9" cx="165.8" cy="365.7" rx="0.5" ry="0.9"/>
<rect x="110.9" y="234.3" class="st1" width="96.2" height="4.2"/>
<rect x="110.9" y="242.6" class="st1" width="96.2" height="4.2"/>
<rect x="110.9" y="251" class="st1" width="54.4" height="4.2"/>
<rect x="110.9" y="259.4" class="st1" width="79.5" height="4.2"/>
<rect x="110.9" y="267.7" class="st1" width="66.9" height="4.2"/>
<rect x="110.9" y="276.1" class="st1" width="96.2" height="4.2"/>
<rect x="110.9" y="289.5" class="st1" width="83.7" height="33.5"/>
<path class="st2" d="M705.5,457.1c0,0,14,96.2,96.2,128.1l-166.3,0.2l-166.3,0.2c82.1-32.2,95.8-128.4,95.8-128.4L705.5,457.1z"/>
<rect x="467.4" y="585.5" transform="matrix(1 -1.396262e-03 1.396262e-03 1 -0.8311 0.8876)" class="st0" width="335.7" height="20.3"/>
<rect x="469.1" y="585.5" transform="matrix(1 -1.396262e-03 1.396262e-03 1 -0.8278 0.8878)" class="st4" width="332.6" height="15.7"/>
<path class="st0" d="M905.2,111l-540.9,0.8c-6.1,0.1-11,5.2-10.8,11.4l0.4,315.6v10.5c0,24,18.6,43.4,41.5,43.4l479.6-0.7
	c22.9,0,41.5-19.5,41.4-43.5v-10.5l-0.4-315.6C916.2,116.2,911.4,111.1,905.2,111C905.3,111,905.2,111,905.2,111z"/>
<path class="st1" d="M370.8,121.6h527.5c5.9,0,10.8,4.8,10.8,10.8l0,0v300.3l0,0H360l0,0V132.3C360,126.4,364.8,121.6,370.8,121.6
	C370.8,121.6,370.8,121.6,370.8,121.6z"/>
<path class="st4" d="M871.4,482.6L399,483.2c-21.2,0-38.3-17.1-38.4-38.3v0v-13l549-0.8v13C909.7,465.3,892.6,482.5,871.4,482.6
	C871.4,482.6,871.4,482.6,871.4,482.6z"/>
<rect x="387.1" y="146.8" class="st2" width="496.8" height="251.1"/>
<rect x="753.2" y="163.3" class="st3" width="87.9" height="92.3"/>
<rect x="757" y="167.4" class="st4" width="80.3" height="84.3"/>
<g class="st5">
	
		<linearGradient id="SVGID_2_" gradientUnits="userSpaceOnUse" x1="912.2" y1="480.9727" x2="963" y2="480.9727" gradientTransform="matrix(1 0 0 -1 -141.76 695)">
		<stop  offset="0" style="stop-color:#808080;stop-opacity:0.25"/>
		<stop  offset="0.54" style="stop-color:#808080;stop-opacity:0.12"/>
		<stop  offset="1" style="stop-color:#808080;stop-opacity:0.1"/>
	</linearGradient>
	<path class="st12" d="M802.7,204.8l-1-0.4l-0.1,0.1h-0.1v-2.7c0-0.3,0-0.7-0.1-1c1.6-1.2,2.9-2.8,3.6-4.7
		c4.1-5.4,3.1-13.1-2.2-17.2s-13.1-3.1-17.2,2.2c-3.4,4.4-3.4,10.6,0,15c0.7,1.9,1.9,3.5,3.6,4.7c-0.1,0.3-0.1,0.7-0.1,1v3l0,0
		c-11,3-18.7,13.1-18.7,24.5v22.3h50.8v-22.3C821.2,217.9,813.7,207.9,802.7,204.8z"/>
</g>
<path class="st13" d="M794.3,204.3h3.1c12.7,0,22.9,10.3,22.9,22.9l0,0v23l0,0h-49l0,0v-23C771.3,214.6,781.6,204.3,794.3,204.3
	C794.3,204.3,794.3,204.3,794.3,204.3z"/>
<path class="st9" d="M795,196.3h0.8c3.1,0,5.6,2.5,5.6,5.6v3.8c0,3.1-2.5,5.6-5.6,5.6H795c-3.1,0-5.6-2.5-5.6-5.6v-3.8
	C789.4,198.8,791.9,196.3,795,196.3z"/>
<polygon class="st11" points="785.2,206.9 789.2,215.6 793.2,211.6 789.2,205.4 "/>
<path class="st1" d="M785.3,206.5l4,8.6l4-4l-4-6.1l-1.8,0.6c-0.2,0.1-0.4,0.1-0.5,0.2L785.3,206.5z"/>
<polygon class="st11" points="805.5,206.5 801.5,215.6 797.5,211.6 801.6,205.1 "/>
<path class="st1" d="M805.4,206.1l-4,9l-4-4l4.1-6.5l0.8,0.2c0.8,0.2,1.6,0.5,2.4,0.9L805.4,206.1z"/>
<polygon class="st9" points="793,210.8 795.3,214.1 797.7,210.8 "/>
<path class="st10" d="M780.6,222.6c0,0-2.4,23.7-0.8,25.2"/>
<path class="st10" d="M810,222.6c0,0,2.4,23.7,0.8,25.2"/>
<path class="st11" d="M795.3,203.6c2.1,0,4.2-0.7,5.9-1.9c-0.5-2.9-3-5-5.9-5l0,0c-2.9,0-5.5,2.1-5.9,5
	C791.1,202.9,793.2,203.6,795.3,203.6z"/>
<circle cx="795.3" cy="189.6" r="11.8"/>
<circle class="st9" cx="795.3" cy="193.3" r="10"/>
<path class="st11" d="M787.3,183.4l2.5,3.1c0,0,11.1,1,12.3-1.5s-7.3-4.4-7.3-4.4L787.3,183.4z"/>
<path d="M787.3,183.1l2.5,3.1c0,0,11.1,1,12.3-1.5s-7.3-4.4-7.3-4.4L787.3,183.1z"/>
<ellipse class="st9" cx="785.3" cy="192.6" rx="0.7" ry="1.3"/>
<ellipse class="st9" cx="805.4" cy="192.6" rx="0.7" ry="1.3"/>
<rect x="753.7" y="274.1" class="st3" width="87.9" height="92.3"/>
<rect x="757.5" y="278.1" class="st4" width="80.3" height="84.3"/>
<g class="st5">
	
		<linearGradient id="SVGID_3_" gradientUnits="userSpaceOnUse" x1="939.52" y1="328.4" x2="939.52" y2="412.9466" gradientTransform="matrix(1 0 0 -1 -141.76 695)">
		<stop  offset="0" style="stop-color:#808080;stop-opacity:0.25"/>
		<stop  offset="0.54" style="stop-color:#808080;stop-opacity:0.12"/>
		<stop  offset="1" style="stop-color:#808080;stop-opacity:0.1"/>
	</linearGradient>
	<path class="st14" d="M803.8,316.1V313c0-0.1,0-0.3,0-0.5c1.7-1.3,3-3,3.7-5c4.4-5.7,3.3-13.9-2.4-18.3c-0.9-0.7-2-1.3-3.1-1.8
		c0.5-2.4-1-4.8-3.4-5.3c-2.4-0.5-4.8,1-5.3,3.4c-0.1,0.5-0.1,1.1-0.1,1.6c-6.9,2.1-10.8,9.4-8.6,16.3c0.5,1.5,1.2,2.9,2.1,4.1
		c0.7,2,2,3.7,3.7,5c0,0.1,0,0.3,0,0.5v3.3c-11.5,2.2-19.8,12.3-19.9,24v26.3h54.1v-26.3C824.8,328.1,815.8,317.8,803.8,316.1z"/>
</g>
<path class="st1" d="M796.2,316.7h3.1c12.7,0,22.9,10.3,22.9,22.9v23l0,0h-49l0,0v-23C773.2,326.9,783.4,316.7,796.2,316.7
	L796.2,316.7z"/>
<path class="st15" d="M796.8,308.7h0.8c3.1,0,5.6,2.5,5.6,5.6v3.8c0,3.1-2.5,5.6-5.6,5.6h-0.8c-3.1,0-5.6-2.5-5.6-5.6v-3.8
	C791.2,311.2,793.7,308.7,796.8,308.7z"/>
<polygon class="st15" points="794.9,323.2 797.1,326.5 799.5,323.2 "/>
<path class="st10" d="M782.4,335c0,0-2.4,23.7-0.8,25.2"/>
<path class="st10" d="M811.9,335c0,0,2.4,23.7,0.8,25.2"/>
<path class="st11" d="M797.2,315.9c2.1,0,4.2-0.7,5.9-1.9c-0.5-2.9-3-5-5.9-5l0,0c-3,0-5.5,2.1-6,5C793,315.3,795.1,316,797.2,315.9
	z"/>
<circle class="st8" cx="797.2" cy="302" r="11.8"/>
<circle class="st15" cx="797.2" cy="305.7" r="10"/>
<ellipse class="st15" cx="787.2" cy="305" rx="0.7" ry="1.3"/>
<ellipse class="st15" cx="807.2" cy="305" rx="0.7" ry="1.3"/>
<circle class="st8" cx="797.7" cy="290.2" r="4"/>
<path class="st8" d="M789.7,294.2c0,0,4,8,16.1,4l-4-4H789.7z"/>
<rect x="427" y="178.3" class="st1" width="221" height="9.6"/>
<rect x="427" y="197.5" class="st1" width="221" height="9.6"/>
<rect x="427" y="216.7" class="st1" width="124.9" height="9.6"/>
<rect x="427" y="235.9" class="st1" width="182.5" height="9.6"/>
<rect x="427" y="255.1" class="st1" width="153.7" height="9.6"/>
<rect x="427" y="274.4" class="st1" width="221" height="9.6"/>
<rect x="427" y="301.2" class="st1" width="192.2" height="76.9"/>
<polyline class="st16" points="138.8,610.6 33.1,610.6 33.1,34.2 657.6,34.2 657.6,82.2 "/>
<g class="st17">
	<circle class="st18" cx="36.3" cy="36.3" r="36.3"/>
</g>
<circle class="st4" cx="36.3" cy="36.3" r="34.2"/>
<polygon class="st1" points="22.3,33 33.5,43.3 49.3,20 54.9,24.7 33.5,52.6 17.7,34.9 "/>
<path class="st0" d="M181.5,332.4l242.8-0.3c9.5,0,17.2,7.7,17.2,17.1l0.6,395.3c0,9.5-7.7,17.2-17.1,17.2L182.1,762
	c-9.5,0-17.2-7.7-17.2-17.1l-0.6-395.3C164.3,340.1,172,332.4,181.5,332.4z"/>
<linearGradient id="SVGID_4_" gradientUnits="userSpaceOnUse" x1="444.9634" y1="-27.0375" x2="444.9634" y2="327.8725" gradientTransform="matrix(1 -1.396263e-03 -1.424188e-03 -1.02 -141.0727 702.0701)">
	<stop  offset="0" style="stop-color:#000000;stop-opacity:9.000000e-02"/>
	<stop  offset="0.55" style="stop-color:#000000;stop-opacity:7.000000e-02"/>
	<stop  offset="1" style="stop-color:#000000;stop-opacity:2.000000e-02"/>
</linearGradient>
<polygon class="st19" points="183.7,365.2 423.1,364.9 423.6,725.2 184.2,725.5 "/>
<path class="st1" d="M185.4,338.9l234.9-0.3c7,0,12.7,5.7,12.7,12.7l0.5,384.5c0,7-5.7,12.7-12.7,12.7L186,748.7
	c-7,0-12.7-5.7-12.7-12.7l-0.5-384.5C172.7,344.5,178.4,338.9,185.4,338.9z"/>
<rect x="191.2" y="370" transform="matrix(1 -1.396262e-03 1.396262e-03 1 -0.7563 0.4245)" class="st2" width="224.8" height="343.8"/>
<ellipse class="st2" cx="303.4" cy="731.5" rx="9.3" ry="9.5"/>
<ellipse transform="matrix(1 -1.396262e-03 1.396262e-03 1 -0.4957 0.3696)" class="st2" cx="264.5" cy="355.2" rx="3.1" ry="3.2"/>
<path class="st2" d="M280.7,353.3l38.6-0.1c0.4,0,0.8,0.3,0.8,0.8l0,1.6c0,0.4-0.3,0.8-0.8,0.8l-38.6,0.1c-0.4,0-0.8-0.3-0.8-0.8
	l0-1.6C279.9,353.6,280.3,353.3,280.7,353.3z"/>
<rect x="302.3" y="581.8" class="st3" width="87.9" height="92.3"/>
<rect x="306.1" y="585.8" class="st4" width="80.3" height="84.3"/>
<g class="st5">
	
		<linearGradient id="SVGID_5_" gradientUnits="userSpaceOnUse" x1="462.6" y1="62.4926" x2="513.45" y2="62.4926" gradientTransform="matrix(1 0 0 -1 -141.76 695)">
		<stop  offset="0" style="stop-color:#808080;stop-opacity:0.25"/>
		<stop  offset="0.54" style="stop-color:#808080;stop-opacity:0.12"/>
		<stop  offset="1" style="stop-color:#808080;stop-opacity:0.1"/>
	</linearGradient>
	<path class="st20" d="M353.1,623.3l-1-0.4l-0.1,0.1H352v-2.7c0-0.3,0-0.7-0.1-1c1.6-1.2,2.9-2.8,3.6-4.7c4.1-5.4,3.1-13.1-2.2-17.2
		c-5.4-4.1-13.1-3.1-17.2,2.2c-3.4,4.4-3.4,10.6,0,15c0.7,1.9,1.9,3.5,3.6,4.7c-0.1,0.3-0.1,0.7-0.1,1v3l0,0
		c-11,3-18.7,13.1-18.7,24.5v22.3h50.8v-22.4C371.7,636.4,364.1,626.4,353.1,623.3z"/>
</g>
<path class="st21" d="M344.7,622.8h3.1c12.7,0,22.9,10.3,22.9,22.9v23l0,0h-49l0,0v-23C321.7,633,332,622.8,344.7,622.8
	C344.7,622.8,344.7,622.8,344.7,622.8z"/>
<path class="st22" d="M345.4,614.8h0.8c3.1,0,5.6,2.5,5.6,5.6v3.8c0,3.1-2.5,5.6-5.6,5.6h-0.8c-3.1,0-5.6-2.5-5.6-5.6v-3.8
	C339.8,617.3,342.3,614.8,345.4,614.8z"/>
<polygon class="st22" points="343.5,629.3 345.7,632.6 348,629.3 "/>
<path class="st10" d="M331,641.1c0,0-2.4,23.7-0.8,25.2"/>
<path class="st10" d="M360.4,641.1c0,0,2.4,23.7,0.8,25.2"/>
<path class="st11" d="M345.8,622c2.1,0,4.2-0.7,5.9-1.9c-0.5-2.9-3-5-5.9-5l0,0c-2.9,0-5.5,2.1-5.9,5
	C341.5,621.3,343.6,622,345.8,622z"/>
<circle class="st23" cx="345.8" cy="608.1" r="11.8"/>
<circle class="st22" cx="345.8" cy="611.8" r="10"/>
<path class="st11" d="M337.7,601.9l2.5,3.1c0,0,11.1,1,12.3-1.5c1.3-2.5-7.3-4.3-7.3-4.3L337.7,601.9z"/>
<path class="st23" d="M337.7,601.6l2.5,3.1c0,0,11.1,1,12.3-1.5c1.3-2.5-7.3-4.3-7.3-4.3L337.7,601.6z"/>
<ellipse class="st22" cx="335.7" cy="611.1" rx="0.7" ry="1.3"/>
<ellipse class="st22" cx="355.8" cy="611.1" rx="0.7" ry="1.3"/>
<path class="st23" d="M337.9,597.1c0.8-1,1.9-1.7,3.1-2.1c2.2-0.9,4.5-1.8,6.9-1.6c0.2,0,0.5,0.1,0.6,0.2c0.2,0.2,0.3,0.4,0.4,0.6
	c0.7,1.1,2.7,1,3,2.3c0.1,0.4-0.1,0.8,0,1.3c0.3,1,1.7,0.9,2.5,1.5c0.9,0.8,1,2.2,0.2,3.2c-0.8,0.9-1.9,1.5-3.1,1.7
	c-2.1,0.8-4.3,1-6.5,0.6C342.1,603.8,335,601.9,337.9,597.1z"/>
<rect x="212.3" y="580.8" class="st3" width="87.9" height="92.3"/>
<rect x="216.1" y="584.8" class="st4" width="80.3" height="84.3"/>
<g class="st5">
	
		<linearGradient id="SVGID_6_" gradientUnits="userSpaceOnUse" x1="372.6" y1="63.4926" x2="423.45" y2="63.4926" gradientTransform="matrix(1 0 0 -1 -141.76 695)">
		<stop  offset="0" style="stop-color:#808080;stop-opacity:0.25"/>
		<stop  offset="0.54" style="stop-color:#808080;stop-opacity:0.12"/>
		<stop  offset="1" style="stop-color:#808080;stop-opacity:0.1"/>
	</linearGradient>
	<path class="st24" d="M263.1,622.3l-1-0.4l-0.1,0.1H262v-2.7c0-0.3,0-0.7-0.1-1c1.6-1.2,2.9-2.8,3.6-4.7c4.1-5.4,3.1-13.1-2.2-17.2
		c-5.4-4.1-13.1-3.1-17.2,2.2c-3.4,4.4-3.4,10.6,0,15c0.7,1.9,1.9,3.5,3.6,4.7c-0.1,0.3-0.1,0.7-0.1,1v3l0,0
		c-11,3-18.7,13.1-18.7,24.5v22.3h50.9v-22.4C281.7,635.4,274.1,625.4,263.1,622.3z"/>
</g>
<path class="st13" d="M254.7,621.8h3.1c12.7,0,22.9,10.3,22.9,22.9v23l0,0h-49l0,0v-23C231.7,632,242,621.8,254.7,621.8
	C254.7,621.8,254.7,621.8,254.7,621.8z"/>
<path class="st9" d="M255.4,613.8h0.8c3.1,0,5.6,2.5,5.6,5.6v3.8c0,3.1-2.5,5.6-5.6,5.6h-0.8c-3.1,0-5.6-2.5-5.6-5.6v-3.8
	C249.8,616.3,252.3,613.8,255.4,613.8z"/>
<path class="st10" d="M241,640.1c0,0-2.4,23.7-0.8,25.2"/>
<path class="st10" d="M270.4,640.1c0,0,2.4,23.7,0.8,25.2"/>
<path class="st11" d="M255.8,621c2.1,0,4.2-0.7,5.9-1.9c-0.5-2.9-3-5-5.9-5l0,0c-2.9,0-5.5,2.1-5.9,5
	C251.5,620.3,253.6,621,255.8,621z"/>
<circle class="st23" cx="255.8" cy="607.1" r="11.8"/>
<circle class="st9" cx="255.8" cy="610.8" r="10"/>
<path class="st11" d="M247.7,600.9l2.5,3.1c0,0,11.1,1,12.3-1.5c1.3-2.5-7.3-4.3-7.3-4.3L247.7,600.9z"/>
<path class="st23" d="M247.7,600.6l2.5,3.1c0,0,11.1,1,12.3-1.5c1.3-2.5-7.3-4.3-7.3-4.3L247.7,600.6z"/>
<ellipse class="st9" cx="245.7" cy="610.1" rx="0.7" ry="1.3"/>
<ellipse class="st9" cx="265.8" cy="610.1" rx="0.7" ry="1.3"/>
<rect x="215.6" y="413.8" class="st1" width="163.3" height="7.1"/>
<rect x="215.6" y="428" class="st1" width="163.3" height="7.1"/>
<rect x="215.6" y="442.2" class="st1" width="92.3" height="7.1"/>
<rect x="215.6" y="456.4" class="st1" width="134.9" height="7.1"/>
<rect x="215.6" y="470.6" class="st1" width="113.6" height="7.1"/>
<rect x="215.6" y="484.8" class="st1" width="163.3" height="7.1"/>
<rect x="216.1" y="506.1" class="st1" width="142" height="56.8"/>
<path class="st23" d="M248.8,607c0.5-0.9,0.9-1.8,1.3-2.8c1.6-3.4,5.7-4.9,9.1-3.4c1.3,0.6,2.4,1.6,3.1,2.9c0.8,1.5,1.1,3.2,2,4.6
	c0.5,0.4,1.3,0.3,1.6-0.2c0,0,0,0,0.1-0.1c0.3-0.6,0.4-1.3,0.1-1.9c-0.2-0.6-0.6-1.2-0.8-1.8c-0.2-1-0.6-2-1-2.9
	c-0.5-0.7-1.2-1.3-2-1.7c-2.2-1.4-4.8-2.8-7.3-2c-0.8,0.3-1.6,0.7-2.4,1.2l-3.2,2c-1,0.6-1.9,1.3-2.7,2.2c-0.7,0.9-2,3.6-1.4,4.8
	C246.1,609.3,248.2,607.8,248.8,607z"/>
<polygon class="st1" points="253.2,628 253.2,667.7 259.1,667.7 258.2,628 "/>
<polygon class="st9" points="252.3,627.5 255.7,632.4 259.2,627.5 "/>
</svg>
