<?xml version="1.0" encoding="utf-8"?>
<!-- Generator: Adobe Illustrator 22.1.0, SVG Export Plug-In . SVG Version: 6.00 Build 0)  -->
<svg version="1.1" id="Layer_1" xmlns="http://www.w3.org/2000/svg" xmlns:xlink="http://www.w3.org/1999/xlink" x="0px" y="0px"
	 viewBox="0 0 150 150" style="enable-background:new 0 0 150 150;" xml:space="preserve">
<style type="text/css">
	.st0{fill:none;stroke:#151B26;stroke-width:2;stroke-linecap:round;stroke-linejoin:round;stroke-miterlimit:10;}
</style>
<g>
	<g>
		<line class="st0" x1="95.1" y1="94.9" x2="95.1" y2="28"/>
		<line class="st0" x1="81.5" y1="94.9" x2="81.5" y2="28"/>
		<line class="st0" x1="71.2" y1="32.4" x2="71.2" y2="28"/>
		<line class="st0" x1="65" y1="41.7" x2="65" y2="28"/>
		<line class="st0" x1="53.8" y1="76.9" x2="53.8" y2="28"/>
		<path class="st0" d="M109.2,28v61.1c0,3.2-2.6,5.8-5.8,5.8H65.9"/>
	</g>
	<line class="st0" x1="49.3" y1="28" x2="113.7" y2="28"/>
	<polyline class="st0" points="53.8,38.8 42,38.8 42,17.5 121,17.5 121,38.8 109.2,38.8 	"/>
	<path class="st0" d="M34.1,120.7V79.9c0-2.7,1.2-5.2,3.2-6.9l16.4-13.7"/>
	<path class="st0" d="M45.5,84.2l25.4-22.5c1.3-1.1,3.3-0.6,3.9,1l0,0.1c2.5,6.8,1.1,13.8-5,19.2l-8.2,7c0,0,4,2.9,4.7,7.3
		c0.7,4.4-1.2,10.4-6.6,12.8"/>
	<path class="st0" d="M79.5,94.9c0,0,0.2,14.1-8.5,19.3v6.5"/>
	<polyline class="st0" points="29,132.5 29,120.7 79.5,120.7 79.5,132.5 	"/>
	<line class="st0" x1="73.6" y1="127.6" x2="70.1" y2="127.6"/>
</g>
</svg>
