<?xml version="1.0" encoding="utf-8"?>
<!-- Generator: Adobe Illustrator 22.1.0, SVG Export Plug-In . SVG Version: 6.00 Build 0)  -->
<svg version="1.1" id="Layer_1" xmlns="http://www.w3.org/2000/svg" xmlns:xlink="http://www.w3.org/1999/xlink" x="0px" y="0px"
	 viewBox="0 0 150 150" style="enable-background:new 0 0 150 150;" xml:space="preserve">
<style type="text/css">
	.st0{fill:none;stroke:#151B26;stroke-linecap:round;stroke-linejoin:round;}
	.st1{fill:none;stroke:#151B26;stroke-linecap:round;stroke-linejoin:round;stroke-dasharray:9.1912,9.1912;}
	.st2{fill:none;stroke:#151B26;stroke-linecap:round;stroke-linejoin:round;stroke-miterlimit:10;}
	.st3{fill:none;stroke:#151B26;stroke-linecap:round;stroke-linejoin:round;stroke-dasharray:9.7064,9.7064;}
	.st4{fill:none;stroke:#151B26;stroke-width:2;stroke-linecap:round;stroke-linejoin:round;stroke-miterlimit:10;}
	.st5{fill:#FFFFFF;stroke:#151B26;stroke-width:2;stroke-linecap:round;stroke-linejoin:round;stroke-miterlimit:10;}
</style>
<g>
	<g>
		<g>
			<g>
				<path class="st0" d="M78.5,58c0.5,0.1,1,0.2,1.5,0.4"/>
				<path class="st1" d="M82.7,59.5c1.3,0.7,2.5,1.5,3.5,2.5"/>
				<path class="st0" d="M87.2,63.1c0.3,0.4,0.7,0.8,1,1.2"/>
			</g>
		</g>
		<path class="st2" d="M88.2,64.3c1.8,2.5,2.9,5.7,2.9,9c0,5.7-3,10.7-7.6,13.4"/>
		<path class="st2" d="M67.3,86.7c-4.5-2.7-7.6-7.7-7.6-13.4c0-8.6,7-15.6,15.6-15.6c1.1,0,2.1,0.1,3.1,0.3"/>
		<path class="st2" d="M75.4,88.1"/>
		<ellipse class="st2" cx="75.4" cy="73.3" rx="18" ry="18"/>
		<path class="st2" d="M78.4,72.6"/>
		<path class="st2" d="M78.4,72.6"/>
		<g>
			<g>
				<path class="st0" d="M69.2,87.7c0,0,0.5,0.3,1.5,0.5"/>
				<path class="st3" d="M73.6,88.9c1.3,0.2,2.9,0.2,4.5-0.2"/>
				<path class="st0" d="M79.6,88.3c0.5-0.2,1-0.4,1.5-0.6"/>
			</g>
		</g>
		<path class="st2" d="M79.4,68.9c0,3-1.9,5.4-4.2,5.4c-2.3,0-4.2-2.7-4.2-5.4"/>
		<path class="st2" d="M79.9,66.8c0.6,0,0.9,0.6,0.9,1.4s-0.5,1.4-1.1,1.4"/>
		<path class="st2" d="M70.9,69.6c-0.6,0-1.1-0.6-1.1-1.4s0.2-1.4,0.9-1.4"/>
		<line class="st2" x1="72.4" y1="75" x2="72.4" y2="72.9"/>
		<line class="st2" x1="78.4" y1="72.6" x2="78.4" y2="75"/>
		<path class="st2" d="M72.4,75c0,0-3.3,1.5-5.7,2.1c-2.4,0.6-3,4.6-3.1,6.4"/>
		<path class="st2" d="M78.4,75c0,0,3.6,1.5,6,2.1c2.4,0.6,2.8,4.6,2.9,6.4"/>
		<path class="st2" d="M71,65.9c0,0-1-3.7-0.2-4.5c0.8-0.8,1.7-0.7,1.7-0.7s0.1-0.9,1.8-0.9c1.4,0,3.4,0,4.9,1.6
			c0.4,0.4,0.6,1,0.5,1.5l-0.3,3c0,0-0.5-3.1-6.8-3.1L71,65.9z"/>
		<path class="st2" d="M79,75.3c0,2-1.6,3.6-3.6,3.6s-3.6-1.6-3.6-3.6"/>
		<line class="st2" x1="79.4" y1="65.9" x2="79.4" y2="68.1"/>
		<line class="st2" x1="71" y1="65.9" x2="71" y2="68.1"/>
	</g>
	<g>
		<g>
			<path class="st4" d="M28.1,97.2V46.4c0-2.4,1.9-4.3,4.3-4.3h85.9c2.4,0,4.3,1.9,4.3,4.3v50.8"/>
			<polyline class="st4" points="34.6,97.5 34.6,49.2 116.2,49.2 116.2,76.5 			"/>
			<path class="st4" d="M118.9,105.7h4.4c5.4,0,11.1-8.1,11.1-8.1h-15.4"/>
			<path class="st4" d="M75.8,99.9H62v-2.4H15.1c0,0,6.6,8.1,12.4,8.1h48.9"/>
		</g>
	</g>
	<g>
		<path class="st5" d="M114.7,113H80.5c-2.3,0-4.2-1.9-4.2-4.2v-28c0-2.3,1.9-4.2,4.2-4.2h34.2c2.3,0,4.2,1.9,4.2,4.2v28
			C118.9,111.1,117,113,114.7,113z"/>
		<path class="st4" d="M109.2,91.5c0.3,1.1,0.5,2.2,0.5,3.3c0,6.7-5.4,12-12,12c-6.7,0-12-5.4-12-12c0-6.7,5.4-12,12-12
			c3,0,5.8,1.1,7.9,3"/>
		<polyline class="st4" points="92.8,93.4 97.6,98.4 111.4,84.6 		"/>
		<path class="st5" d="M84.7,76.6V70c0-7.1,5.8-12.9,12.9-12.9l0,0c7.1,0,12.9,5.8,12.9,12.9v6.7"/>
		<path class="st4" d="M90.1,76.6v-6.3c0-4.2,3.4-7.5,7.5-7.5l0,0c4.2,0,7.5,3.4,7.5,7.5v6.3"/>
	</g>
</g>
</svg>
