<?xml version="1.0" encoding="utf-8"?>
<!-- Generator: Adobe Illustrator 22.1.0, SVG Export Plug-In . SVG Version: 6.00 Build 0)  -->
<svg version="1.1" id="Layer_1" xmlns="http://www.w3.org/2000/svg" xmlns:xlink="http://www.w3.org/1999/xlink" x="0px" y="0px"
	 viewBox="0 0 64 64" style="enable-background:new 0 0 64 64;" xml:space="preserve">
<style type="text/css">
	.st0{fill:none;stroke:#172B4D;stroke-miterlimit:10;}
	.st1{fill:#FFFFFF;stroke:#172B4D;stroke-miterlimit:10;}
	.st2{fill:#F2545B;}
	.st3{fill:#FFFFFF;}
</style>
<g>
	<g>
		<path class="st0" d="M30.6,4.9L30.6,4.9c-8.2,0-14.9,6.7-14.9,14.9V30c0,8.2,6.7,14.9,14.9,14.9h0c8.2,0,14.9-6.7,14.9-14.9V19.8
			C45.6,11.6,38.9,4.9,30.6,4.9z M39.1,30.4c0,4.6-3.8,8.4-8.5,8.4h0c-4.7,0-8.5-3.8-8.5-8.4V19.3c0-4.6,3.8-8.4,8.5-8.4h0
			c4.7,0,8.5,3.8,8.5,8.4V30.4z"/>
		<circle class="st1" cx="30.6" cy="39.2" r="17.4"/>
	</g>
	<circle class="st2" cx="33.1" cy="41.7" r="17.4"/>
	<circle class="st0" cx="30.6" cy="39.2" r="17.4"/>
	<path class="st3" d="M32.7,41.3l-0.1-0.1c1.2-0.8,1.9-2.2,1.9-3.8c0-2.5-1.8-4.5-4-4.5s-4,2-4,4.5c0,1.7,0.9,3.2,2.2,3.9l0,0
		l-2,5.2h4h4L32.7,41.3z"/>
</g>
</svg>
