<?xml version="1.0" encoding="utf-8"?>
<!-- Generator: Adobe Illustrator 22.1.0, SVG Export Plug-In . SVG Version: 6.00 Build 0)  -->
<svg version="1.1" id="Layer_1" xmlns="http://www.w3.org/2000/svg" xmlns:xlink="http://www.w3.org/1999/xlink" x="0px" y="0px"
	 viewBox="0 0 150 150" style="enable-background:new 0 0 150 150;" xml:space="preserve">
<style type="text/css">
	.st0{fill:none;stroke:#151B26;stroke-width:2;stroke-linecap:round;stroke-linejoin:round;stroke-miterlimit:10;}
	.st1{fill:#FFFFFF;stroke:#151B26;stroke-width:2;stroke-linecap:round;stroke-linejoin:round;stroke-miterlimit:10;}
	.st2{fill:none;stroke:#000000;stroke-width:2;stroke-linecap:round;stroke-linejoin:round;stroke-miterlimit:10;}
</style>
<g>
	<path class="st0" d="M66.9,130.8"/>
	<path class="st0" d="M78.5,69.6"/>
	<path class="st0" d="M78.6,69.6"/>
	<path class="st0" d="M82.7,55.2c0,11.7-7.4,21.1-16.5,21.1S49.7,65.7,49.7,55.2"/>
	<path class="st0" d="M84.7,46.8c2.5,0,3.3,2.3,3.3,5.4c0,3.1-2,5.7-4.4,5.7"/>
	<path class="st0" d="M49.3,57.7c-2.3,0-4.3-2.5-4.3-5.6s1-5.6,3.3-5.6"/>
	<line class="st0" x1="55.2" y1="79" x2="55.2" y2="70.6"/>
	<line class="st0" x1="78.5" y1="69.6" x2="78.5" y2="79"/>
	<path class="st0" d="M55.2,79c0,0-13.1,5.8-22.4,8.3c-9.5,2.5-12,18-12.3,25.4"/>
	<path class="st0" d="M78.6,79c0,0,14.1,5.8,23.4,8.3c9.5,2.5,11,18,11.5,25.4"/>
	<path class="st0" d="M49.8,43.2c0,0-4.1-14.6-0.7-17.9s6.8-2.6,6.8-2.6s0.6-3.6,6.9-3.6c5.7,0,13.2,0.1,19.2,6.3
		c1.6,1.6,2.2,3.8,2,6l-1.4,11.7c0,0-2-12.1-26.9-12.1L49.8,43.2z"/>
	<path class="st0" d="M81,80.2c0,7.8-6.3,14.1-14.1,14.1S52.9,88,52.9,80.2"/>
	<line class="st0" x1="82.7" y1="43.2" x2="82.7" y2="51.6"/>
	<line class="st0" x1="49.8" y1="43.2" x2="49.8" y2="51.6"/>
</g>
<g>
	<ellipse class="st1" cx="101.1" cy="99.9" rx="28.5" ry="28.5"/>
	<polyline class="st2" points="79.2,94.4 109.2,94.4 109.2,86.2 122.9,99.9 109.2,113.7 109.2,105.5 79.7,105.5 	"/>
</g>
</svg>
