<?xml version="1.0" encoding="utf-8"?>
<!-- Generator: Adobe Illustrator 22.1.0, SVG Export Plug-In . SVG Version: 6.00 Build 0)  -->
<svg version="1.1" id="Layer_1" xmlns="http://www.w3.org/2000/svg" xmlns:xlink="http://www.w3.org/1999/xlink" x="0px" y="0px"
	 viewBox="0 0 150 150" style="enable-background:new 0 0 150 150;" xml:space="preserve">
<style type="text/css">
	.st0{fill:none;stroke:#151B26;stroke-width:2;stroke-linecap:round;stroke-linejoin:round;stroke-miterlimit:10;}
</style>
<g>
	<g>
		<g>
			<line class="st0" x1="121.4" y1="75.5" x2="134.7" y2="75.5"/>
			<polyline class="st0" points="130.2,71 134.7,75.5 130.2,79.9 			"/>
		</g>
	</g>
	<g>
		<g>
			<line class="st0" x1="28.8" y1="75.5" x2="15.3" y2="75.5"/>
			<polyline class="st0" points="19.8,79.9 15.3,75.5 19.8,71 			"/>
		</g>
	</g>
	<g>
		<g>
			<line class="st0" x1="75.1" y1="121.8" x2="75.1" y2="134"/>
			<polyline class="st0" points="79.5,129.5 75.1,134 70.6,129.5 			"/>
		</g>
	</g>
	<g>
		<g>
			<line class="st0" x1="75.1" y1="29.2" x2="75.1" y2="16"/>
			<polyline class="st0" points="70.6,20.5 75.1,16 79.5,20.5 			"/>
		</g>
	</g>
	<g>
		<g>
			<ellipse class="st0" cx="74.9" cy="75.9" rx="20.1" ry="33.8"/>
			
				<ellipse transform="matrix(0.8401 -0.5425 0.5425 0.8401 -29.1862 52.7635)" class="st0" cx="74.9" cy="75.9" rx="33.8" ry="33.8"/>
			<line class="st0" x1="41.8" y1="75.9" x2="108" y2="75.9"/>
			<line class="st0" x1="74.9" y1="42.8" x2="74.9" y2="109"/>
			<path class="st0" d="M47.7,56c7.7,2,17.3,3.1,27.8,3c10-0.1,19.1-1.2,26.6-3.1"/>
			<path class="st0" d="M102.1,95.8c-7.7-2-17.3-3.1-27.8-3c-10,0.1-19.1,1.2-26.6,3.1"/>
		</g>
		<path class="st0" d="M31.9,59.9c-0.8,2.1-1.4,4.2-1.9,6.5"/>
		<path class="st0" d="M39.3,46.9c-1.1,1.4-2.1,2.8-3.1,4.3"/>
		<path class="st0" d="M95.9,35.1c-0.3-0.2-0.7-0.3-1-0.5"/>
		<path class="st0" d="M120.2,68.5c-2.1-12.9-9.6-24-20.1-30.9"/>
		<path class="st0" d="M114.8,98.6c1.6-2.7,2.8-5.6,3.8-8.6"/>
		<path class="st0" d="M75.4,121.8c1.3,0,2.7-0.1,4-0.2c9.1-0.9,17.4-4.4,24.2-9.8"/>
		<path class="st0" d="M29.6,83.5c2.3,13.7,10.7,25.3,22.2,32"/>
		<path class="st0" d="M67.7,30.8c-6.1,1.1-11.8,3.5-16.8,6.8"/>
	</g>
</g>
</svg>
