<?xml version="1.0" encoding="utf-8"?>
<!-- Generator: Adobe Illustrator 22.1.0, SVG Export Plug-In . SVG Version: 6.00 Build 0)  -->
<svg version="1.1" id="Layer_1" xmlns="http://www.w3.org/2000/svg" xmlns:xlink="http://www.w3.org/1999/xlink" x="0px" y="0px"
	 viewBox="0 0 150 150" style="enable-background:new 0 0 150 150;" xml:space="preserve">
<style type="text/css">
	.st0{fill:none;stroke:#21C87A;stroke-width:2;stroke-linecap:round;stroke-linejoin:round;stroke-miterlimit:10;}
</style>
<g>
	<g>
		<line class="st0" x1="115.5" y1="51.3" x2="126.1" y2="51.3"/>
		<line class="st0" x1="115.5" y1="55.7" x2="117.9" y2="55.7"/>
	</g>
	<rect x="15.2" y="84.9" class="st0" width="84.7" height="38.3"/>
	<polyline class="st0" points="99,85.6 57.9,107.1 16.1,84.9 	"/>
	<rect x="108.8" y="45.5" class="st0" width="23.9" height="16"/>
	<polyline class="st0" points="22.2,84.9 22.2,34.7 72.1,34.7 72.1,84.9 	"/>
	<line class="st0" x1="25" y1="43.3" x2="18.8" y2="43.3"/>
	<line class="st0" x1="25" y1="51.9" x2="18.8" y2="51.9"/>
	<line class="st0" x1="25" y1="60.4" x2="18.8" y2="60.4"/>
	<line class="st0" x1="25" y1="69" x2="18.8" y2="69"/>
	<line class="st0" x1="25" y1="77.6" x2="18.8" y2="77.6"/>
	<g>
		<line class="st0" x1="127.6" y1="71.1" x2="127.6" y2="68.4"/>
		<path class="st0" d="M129.9,124.6l-2.4,4.5l-2.4-4.5V73.5c0-1.3,1.1-2.4,2.4-2.4l0,0c1.3,0,2.4,1.1,2.4,2.4V124.6z"/>
		<path class="st0" d="M125.2,77.4h4.8h0.9c1.4,0,2.6,1.1,2.6,2.6v13.9c0,1.3,0.5,2.5,1.3,3.5"/>
		<line class="st0" x1="129.9" y1="121.9" x2="125.2" y2="121.9"/>
	</g>
	<g>
		<polygon class="st0" points="102,36.2 118.4,36.2 102,19.8 		"/>
		<g>
			<polyline class="st0" points="40.6,34.7 40.6,19.8 102,19.8 			"/>
			<polyline class="st0" points="118.4,61.5 118.4,130.2 40.6,130.2 40.6,123.1 			"/>
			<line class="st0" x1="118.4" y1="36.2" x2="118.4" y2="45.5"/>
		</g>
	</g>
	<line class="st0" x1="59" y1="34.7" x2="59" y2="84.9"/>
	<line class="st0" x1="63.5" y1="34.7" x2="63.5" y2="84.9"/>
	<line class="st0" x1="98.3" y1="59.8" x2="80.3" y2="59.8"/>
	<line class="st0" x1="98.3" y1="66.7" x2="80.3" y2="66.7"/>
	<line class="st0" x1="98.3" y1="73.5" x2="80.3" y2="73.5"/>
</g>
</svg>
