<?xml version="1.0" encoding="utf-8"?>
<!-- Generator: Adobe Illustrator 22.1.0, SVG Export Plug-In . SVG Version: 6.00 Build 0)  -->
<svg version="1.1" id="Layer_1" xmlns="http://www.w3.org/2000/svg" xmlns:xlink="http://www.w3.org/1999/xlink" x="0px" y="0px"
	 viewBox="0 0 150 150" style="enable-background:new 0 0 150 150;" xml:space="preserve">
<style type="text/css">
	.st0{fill:none;stroke:#FFBC42;stroke-width:2;stroke-linecap:round;stroke-linejoin:round;stroke-miterlimit:10;}
</style>
<g>
	<g>
		<path class="st0" d="M71.5,74.1"/>
		<path class="st0" d="M69.9,56.6c0,1.8-1.5,3.3-3.3,3.3s-3.3-1.5-3.3-3.3s1.5-3.3,3.3-3.3C68.4,53.3,69.9,54.8,69.9,56.6z"/>
		<path class="st0" d="M74.2,72.9c0-5.3-3.4-9.6-7.7-9.6s-7.7,4.3-7.7,9.6"/>
		<path class="st0" d="M74.3,73.4c-1.9,2.9-4.7,4.6-7.7,4.6c-5.9,0-10.7-6.7-10.7-14.9s4.8-14.9,10.7-14.9c5.7,0,10.3,6.2,10.6,14"
			/>
	</g>
	<path class="st0" d="M60.9,112.6c0,2.7-6.7,4.9-15,4.9s-15-2.2-15-4.9"/>
	<path class="st0" d="M60.9,105.3c0,2.7-6.7,4.9-15,4.9s-15-2.2-15-4.9"/>
	<path class="st0" d="M60.9,98c0,2.7-6.7,4.9-15,4.9s-15-2.2-15-4.9"/>
	<path class="st0" d="M57.3,87.7"/>
	<line class="st0" x1="60.9" y1="112.6" x2="60.9" y2="89.7"/>
	<line class="st0" x1="30.8" y1="112.6" x2="30.8" y2="94"/>
	<path class="st0" d="M58.2,83.2c0,2.7-6.7,4.9-15,4.9s-15-2.2-15-4.9c0-2.7,6.7-4.9,15-4.9C51.5,78.2,58.2,80.4,58.2,83.2z"/>
	<path class="st0" d="M58.2,83.2v8.1c0,2.7-6.7,4.9-15,4.9s-15-2.2-15-4.9v-8.1"/>
	<path class="st0" d="M34.9,82.6c0,0,2.5,1.7,7.1,1.3"/>
	<polyline class="st0" points="119.4,61.2 119.4,35.7 13.6,35.7 13.6,90.6 28.2,90.6 	"/>
	<line class="st0" x1="60.9" y1="90.6" x2="78.1" y2="90.6"/>
	<g>
		<line class="st0" x1="77.2" y1="83.5" x2="58.2" y2="83.5"/>
		<path class="st0" d="M27.8,83.5c-0.4-3.7-3.4-6.7-7.1-7V49.8c3.7-0.3,6.7-3.3,7.1-7h77.5c0.4,3.7,3.4,6.7,7.1,7v8.6"/>
	</g>
	<line class="st0" x1="31" y1="63.2" x2="20.7" y2="63.2"/>
	<line class="st0" x1="105.6" y1="115.6" x2="105.6" y2="63"/>
	<path class="st0" d="M129.8,100.5c2.8-5.7,4.4-12,4.4-18.7V66.1l-28.5-9.4l-28.5,9.4v15.7c0,18.5,11.9,34.3,28.5,40.2
		c6.1-2.2,11.6-5.7,16.1-10.2"/>
	<path class="st0" d="M126,96.3c1.7-4,2.6-8.4,2.6-13V70.6l-23-7.6l-22.9,7.6v12.7c0,14.9,9.6,27.6,22.9,32.3
		c5.2-1.8,9.8-4.9,13.5-8.8"/>
	<polygon class="st0" points="123.5,90.4 127.3,99.5 136.4,103.3 127.3,107.1 123.5,116.1 119.7,107.1 110.6,103.3 119.7,99.5 	"/>
	<polyline class="st0" points="28.9,23.7 131.4,23.7 131.4,49.7 	"/>
	<polyline class="st0" points="22.9,29.7 125.4,29.7 125.4,55.7 	"/>
</g>
</svg>
