<?xml version="1.0" encoding="utf-8"?>
<!-- Generator: Adobe Illustrator 22.1.0, SVG Export Plug-In . SVG Version: 6.00 Build 0)  -->
<svg version="1.1" id="Layer_1" xmlns="http://www.w3.org/2000/svg" xmlns:xlink="http://www.w3.org/1999/xlink" x="0px" y="0px"
	 viewBox="0 0 150 150" style="enable-background:new 0 0 150 150;" xml:space="preserve">
<style type="text/css">
	.st0{fill:none;stroke:#151B26;stroke-width:2;stroke-linecap:round;stroke-linejoin:round;stroke-miterlimit:10;}
</style>
<g>
	<g>
		<g>
			<polyline class="st0" points="86.4,65.5 96.1,65.5 96.1,55.8 			"/>
		</g>
		<g>
			<polyline class="st0" points="41.9,55.8 41.9,65.5 51.6,65.5 			"/>
		</g>
		<g>
			<polyline class="st0" points="51.6,15.3 41.9,15.3 41.9,25 			"/>
		</g>
		<g>
			<polyline class="st0" points="96.1,25 96.1,15.3 86.4,15.3 			"/>
		</g>
	</g>
	<path class="st0" d="M63.4,134.7v-7.3c0,0-10.9-7.9-13.8-19.8l-7.9-26c-0.8-2.7,0.3-5.7,2.8-7.2l0,0c3-1.7,6.8-0.7,8.5,2.2
		l10.2,19.9L63,41.3c0-3.6,2.9-6.5,6.4-6.5l0,0c3.5,0,6.4,2.9,6.4,6.4v41"/>
	<path class="st0" d="M86.2,40.7c0,5.1-2.3,9.6-5.9,12.7"/>
	<path class="st0" d="M52.8,40.7c0-9.2,7.5-16.7,16.7-16.7c6.2,0,11.5,3.3,14.4,8.3"/>
	<path class="st0" d="M57.7,52.5c-2.2-2.2-3.7-4.9-4.5-8"/>
	<path class="st0" d="M58.2,40.7c0-6.3,5.1-11.3,11.3-11.3s11.3,5.1,11.3,11.3c0,1.6-0.4,3.2-1,4.6"/>
	<path class="st0" d="M75.9,74.7c1-1.7,2.8-2.8,4.8-2.8h0c3.1,0,5.6,2.5,5.6,5.6v7.7"/>
	<path class="st0" d="M86.3,80.1c0-3.1,2.6-5.6,5.7-5.6l0,0c3.1,0,5.6,2.5,5.6,5.6v8"/>
	<path class="st0" d="M102.5,134.7v-6.3c0,0,6-9.6,6-13.4v-8.7V93.7v-10c0-3.1-2.5-5.6-5.6-5.6l0,0c-2.5,0-4.6,1.6-5.3,3.9"/>
</g>
</svg>
