<?xml version="1.0" encoding="utf-8"?>
<!-- Generator: Adobe Illustrator 22.1.0, SVG Export Plug-In . SVG Version: 6.00 Build 0)  -->
<svg version="1.1" id="Layer_1" xmlns="http://www.w3.org/2000/svg" xmlns:xlink="http://www.w3.org/1999/xlink" x="0px" y="0px"
	 viewBox="0 0 150 150" style="enable-background:new 0 0 150 150;" xml:space="preserve">
<style type="text/css">
	.st0{fill:none;stroke:#151B26;stroke-width:2;stroke-linecap:round;stroke-linejoin:round;stroke-miterlimit:10;}
</style>
<g>
	<g>
		<g>
			<path class="st0" d="M28.4,94.7V43.9c0-2.4,1.9-4.3,4.3-4.3h85.9c2.4,0,4.3,1.9,4.3,4.3v50.8"/>
			<polyline class="st0" points="34.9,95 34.9,46.7 116.5,46.7 116.5,74 			"/>
			<path class="st0" d="M119.2,103.2h4.4c5.4,0,11.1-8.1,11.1-8.1h-15.4"/>
			<path class="st0" d="M76.1,97.4H62.3V95H15.4c0,0,6.6,8.1,12.4,8.1h48.9"/>
		</g>
	</g>
	<g>
		<path class="st0" d="M115,110.5H80.8c-2.3,0-4.2-1.9-4.2-4.2v-28c0-2.3,1.9-4.2,4.2-4.2H115c2.3,0,4.2,1.9,4.2,4.2v28
			C119.2,108.6,117.3,110.5,115,110.5z"/>
		<path class="st0" d="M109.5,89c0.3,1.1,0.5,2.2,0.5,3.3c0,6.7-5.4,12-12,12c-6.7,0-12-5.4-12-12c0-6.7,5.4-12,12-12
			c3,0,5.8,1.1,7.9,3"/>
		<polyline class="st0" points="93.1,90.9 97.9,95.9 111.7,82.1 		"/>
	</g>
	<path class="st0" d="M90.4,74.1v-6.3c0-4.2,3.4-7.5,7.5-7.5l0,0c4.2,0,7.5,3.4,7.5,7.5v6.3"/>
	<path class="st0" d="M85,74.1v-6.7c0-7.1,5.8-12.9,12.9-12.9l0,0c7.1,0,12.9,5.8,12.9,12.9v6.7"/>
</g>
</svg>
