<?xml version="1.0" encoding="utf-8"?>
<!-- Generator: Adobe Illustrator 22.1.0, SVG Export Plug-In . SVG Version: 6.00 Build 0)  -->
<svg version="1.1" id="Layer_1" xmlns="http://www.w3.org/2000/svg" xmlns:xlink="http://www.w3.org/1999/xlink" x="0px" y="0px"
	 viewBox="0 0 150 150" style="enable-background:new 0 0 150 150;" xml:space="preserve">
<style type="text/css">
	.st0{fill:none;stroke:#796EFF;stroke-width:2;stroke-linecap:round;stroke-linejoin:round;stroke-miterlimit:10;}
	
		.st1{fill:none;stroke:#796EFF;stroke-width:2;stroke-linecap:round;stroke-linejoin:round;stroke-miterlimit:10;stroke-dasharray:6;}
</style>
<g>
	<g>
		<g>
			<path class="st0" d="M85.4,39c3.4,5.6,4.9,12.1,4.7,18.4c-0.3,8.2-3.6,16.3-9.8,22.5c-13.1,13.1-34.4,13.1-47.5,0
				c-13.1-13.1-13.1-34.4,0-47.5c13.1-13.1,34.4-13.1,47.5,0"/>
			<path class="st1" d="M56.4,97.7C46.8,97.7,38,94.4,31,89"/>
			<path class="st0" d="M31,89c-9.8-7.6-16.1-19.5-16.1-32.8c0-22.9,18.6-41.5,41.5-41.5c22.9,0,41.5,18.6,41.5,41.5
				S79.3,97.7,56.4,97.7"/>
			<path class="st0" d="M132.5,132.7L132.5,132.7c-3.5,3.5-9.1,3.5-12.5,0l-28.4-28.4l12.5-12.5l28.4,28.4
				C135.9,123.6,135.9,129.2,132.5,132.7z"/>
			<line class="st0" x1="111.1" y1="122.8" x2="114" y2="120"/>
			<line class="st0" x1="105.3" y1="117.1" x2="111.1" y2="111.3"/>
			<line class="st0" x1="94.5" y1="101.4" x2="82.3" y2="89.1"/>
			<line class="st0" x1="93" y1="86.7" x2="101.1" y2="94.8"/>
			<path class="st0" d="M129.5,129.3c0,0,1.7-2.1,0.1-6.1"/>
		</g>
	</g>
	<g>
		<path class="st0" d="M63.3,58.4"/>
		<path class="st0" d="M63.4,58.4"/>
		<path class="st0" d="M65.8,49.9c0,6.9-4.4,12.5-9.8,12.5c-5.4,0-9.8-6.3-9.8-12.5"/>
		<path class="st0" d="M67,44.9c1.4,0,2,1.4,2,3.2c0,1.8-1.2,3.3-2.6,3.3"/>
		<path class="st0" d="M46,51.4c-1.4,0-2.6-1.5-2.6-3.3c0-1.8,0.6-3.3,2-3.3"/>
		<line class="st0" x1="49.4" y1="64" x2="49.4" y2="59"/>
		<line class="st0" x1="63.3" y1="58.4" x2="63.3" y2="64"/>
		<path class="st0" d="M63.4,64c0,0,8.3,3.4,13.9,4.9c3.1,0.8,4.8,4,5.7,7.4"/>
		<path class="st0" d="M49.4,64c0,0-8.3,3.4-13.9,4.9c-3.1,0.8-4.8,4-5.7,7.4"/>
		<path class="st0" d="M46.3,42.8c0,0-2.4-8.6-0.4-10.6c2-2,4-1.6,4-1.6s0.3-2.1,4.1-2.1c3.3,0,7.9,0.1,11.4,3.7
			c0.9,0.9,1.3,2.3,1.2,3.6l-0.8,7c0,0-1.2-7.1-16-7.1L46.3,42.8z"/>
		<path class="st0" d="M64.7,64.7c0,4.6-3.7,8.3-8.3,8.3c-4.6,0-8.3-3.7-8.3-8.3"/>
		<line class="st0" x1="65.8" y1="42.8" x2="65.8" y2="45.7"/>
		<line class="st0" x1="46.3" y1="42.8" x2="46.3" y2="45.7"/>
	</g>
</g>
</svg>
