<?xml version="1.0" encoding="utf-8"?>
<!-- Generator: Adobe Illustrator 25.1.0, SVG Export Plug-In . SVG Version: 6.00 Build 0)  -->
<svg version="1.1" id="Layer_1" xmlns="http://www.w3.org/2000/svg" xmlns:xlink="http://www.w3.org/1999/xlink" x="0px" y="0px"
	 viewBox="0 0 48 48" style="enable-background:new 0 0 48 48;" xml:space="preserve">
<style type="text/css">
	.st0{fill:url(#SVGID_1_);}
	.st1{fill:#FFFFFF;}
</style>
<g>
	<linearGradient id="SVGID_1_" gradientUnits="userSpaceOnUse" x1="1.1712" y1="1.1712" x2="46.8288" y2="46.8288">
		<stop  offset="0" style="stop-color:#A3BEF5"/>
		<stop  offset="1" style="stop-color:#B1A3F5"/>
	</linearGradient>
	<path class="st0" d="M44,48H4c-2.21,0-4-1.79-4-4V4c0-2.21,1.79-4,4-4h40c2.21,0,4,1.79,4,4v40C48,46.21,46.21,48,44,48z"/>
	<g>
		<path class="st1" d="M28.48,12v10.44c1.18-1.27,2.65-1.9,4.42-1.9c1.05,0,2.01,0.2,2.89,0.61c0.87,0.41,1.62,0.96,2.24,1.65
			c0.62,0.69,1.1,1.5,1.45,2.44c0.35,0.94,0.52,1.93,0.52,2.99c0,1.08-0.18,2.09-0.54,3.04s-0.86,1.77-1.51,2.47
			c-0.64,0.7-1.4,1.25-2.28,1.66c-0.87,0.4-1.81,0.6-2.83,0.6c-1.84,0-3.3-0.69-4.37-2.07v1.62h-5V12H28.48z M34.78,28.31
			c0-0.45-0.08-0.88-0.25-1.29s-0.4-0.76-0.69-1.06c-0.3-0.3-0.64-0.54-1.02-0.72c-0.39-0.18-0.81-0.27-1.27-0.27
			c-0.44,0-0.86,0.09-1.24,0.26c-0.39,0.17-0.72,0.41-1.01,0.71S28.78,26.6,28.61,27c-0.18,0.41-0.26,0.84-0.26,1.29
			s0.08,0.88,0.25,1.28c0.17,0.4,0.4,0.74,0.69,1.04c0.29,0.29,0.64,0.53,1.04,0.71c0.4,0.18,0.82,0.27,1.26,0.27
			s0.86-0.09,1.24-0.26c0.39-0.17,0.72-0.41,1.01-0.71c0.29-0.3,0.52-0.65,0.69-1.05C34.69,29.16,34.78,28.75,34.78,28.31z"/>
	</g>
	<g>
		<path class="st1" d="M13,12v10.44c1.18-1.27,2.65-1.9,4.42-1.9c1.05,0,2.01,0.2,2.89,0.61c0.87,0.41,1.62,0.96,2.24,1.65
			c0.62,0.69,1.1,1.5,1.45,2.44s0.52,1.93,0.52,2.99c0,1.08-0.18,2.09-0.54,3.04s-0.86,1.77-1.51,2.47c-0.64,0.7-1.4,1.25-2.28,1.66
			c-0.87,0.4-1.81,0.6-2.82,0.6c-1.84,0-3.3-0.69-4.37-2.07v1.62H8V12H13z M19.3,28.31c0-0.45-0.08-0.88-0.25-1.29
			s-0.4-0.76-0.69-1.06c-0.3-0.3-0.64-0.54-1.02-0.72c-0.39-0.18-0.81-0.27-1.27-0.27c-0.44,0-0.86,0.09-1.24,0.26
			c-0.39,0.17-0.72,0.41-1.01,0.71S13.3,26.6,13.13,27c-0.18,0.41-0.26,0.84-0.26,1.29s0.08,0.88,0.25,1.28
			c0.17,0.4,0.4,0.74,0.69,1.04c0.29,0.29,0.64,0.53,1.04,0.71c0.4,0.18,0.82,0.27,1.26,0.27c0.44,0,0.86-0.09,1.24-0.26
			c0.39-0.17,0.72-0.41,1.01-0.71s0.52-0.65,0.69-1.05C19.21,29.16,19.3,28.75,19.3,28.31z"/>
	</g>
</g>
</svg>
