<svg xmlns="http://www.w3.org/2000/svg" xmlns:xlink="http://www.w3.org/1999/xlink" viewBox="0 0 65.146 45.146" fill="#fff" fill-rule="evenodd" stroke="#000" stroke-linecap="round" stroke-linejoin="round"><use xlink:href="#A" x=".573" y=".573"/><symbol id="A" overflow="visible"><g stroke="none" fill-rule="nonzero"><path d="M62.291 19.915c-1.197-3.989-3.87-7.061-6.264-10.334C51.479 3.437 45.575.046 40.148.006 29.736-.193 22.396 4.555 19.244 12.013c-.399.958-.917 1.357-1.875 1.556-3.472.797-6.943 1.596-10.174 3.231C5 17.917 2.766 18.954 1.37 21.108-.386 23.821-.186 26.693.492 29.685c1.755 7.42 6.264 12.007 13.723 13.683 4.589.997 9.056.878 13.244-1.516 2.633-1.476 4.748-3.59 6.823-5.746.519-.558.917-.678 1.596-.359l3.83 1.876c4.07 2.035 8.218 3.71 12.886 3.43 7.421-.439 11.849-5.426 11.37-12.686-.16-2.872-.836-5.664-1.676-8.458zM34.804 29.997c-4.468 2.979-9.097 5.585-14.442 6.662-1.715.36-3.431.479-4.589.399-4.308 0-7.94-.438-11.13-2.633-3.75-2.635-5.346-8.378-3.192-12.408.678-1.317 1.835-2.274 3.112-3.033 4.428-2.753 9.375-4.029 14.401-5.066 5.224-1.117 10.531-2.314 15.997-2.274 2.633 0 4.986 1.037 6.662 3.151 1.476 1.913 1.038 4.069.321 6.104-1.398 3.83-3.79 6.874-7.141 9.097zm27.168 3.272c-1.676 4.189-5.227 5.585-9.255 6.183-4.308.638-7.86-1.398-11.529-3.112-1.197-.558-2.354-1.276-3.591-1.755-1.077-.399-1.237-.799-.359-1.556 1.356-1.715 2.713-3.431 3.79-5.347 1.318-2.832 2.115-5.825 2.115-8.975 0-4.867-2.594-7.023-7.5-7.58-.958-.119-1.955-.04-2.953-.04-3.323.229-6.622.758-9.894 1.356-.678-.04-1.516.758-1.955.04-.319-.519.479-1.146.836-1.715 2.406-4.148 5.984-6.702 10.492-8.139 3.949-1.237 7.859-1.516 11.915-.439 3.351.878 5.745 2.912 7.94 5.346 2.713 2.979 5.187 6.104 7.181 9.575 1.955 3.391 2.952 7.021 3.231 10.891.08 1.794.229 3.552-.479 5.267z" fill="#577138"/><path d="M47.051 37.348c2.951 1.276 5.904 1.037 8.816-.04 3.552-1.318 5.227-4.029 5.465-7.66.321-5.106-1.276-9.654-4.189-13.763-1.835-2.593-3.712-5.224-5.866-7.58C48.325 5.113 44.816 3.118 40.347 3c-4.629-.119-8.937.958-12.806 3.472-2.154 1.398-3.949 3.323-4.748 5.904 3.271-.598 6.582-1.117 9.894-1.357.199-.08.399-.229.598-.199 1.716.119 3.323-.229 4.947-.797 1.913-.678 3.712.08 5.227 1.196 3.271 2.434 5.545 5.505 5.545 9.773 0 3.07-2.673 6.622-6.462 6.382-.519-.039-1.077-.08-1.556.28-1.037 1.955-2.433 3.63-3.79 5.346 1.276 1.318 3.071 1.517 4.629 2.234 1.676.878 3.512 1.398 5.227 2.115z" fill="#dcdf72"/><path d="M59.219 17.123c-2.035-3.472-4.508-6.622-7.181-9.575-2.194-2.434-4.588-4.468-7.94-5.346-4.067-1.077-7.979-.798-11.915.439-4.508 1.398-8.1 3.989-10.492 8.139-.319.558-1.146 1.197-.836 1.715.439.678 1.276-.08 1.954-.04.797-2.593 2.553-4.508 4.748-5.904C31.426 4.037 35.734 3 40.363 3.08c4.468.119 7.979 2.062 10.93 5.305 2.154 2.353 4.029 4.987 5.866 7.58 2.912 4.11 4.508 8.657 4.189 13.763-.229 3.632-1.913 6.344-5.465 7.66-2.912 1.077-5.866 1.318-8.816.04-1.715-.718-3.512-1.237-5.187-2.062-1.556-.756-3.351-.958-4.629-2.234-.916.756-.718 1.146.359 1.556 1.237.478 2.406 1.197 3.591 1.755 3.671 1.715 7.26 3.75 11.529 3.112 4.029-.598 7.58-2.034 9.255-6.183.678-1.715.559-3.471.439-5.224-.229-3.989-1.237-7.619-3.192-10.999zm-17.314 3.79c.718-2.035 1.146-4.189-.321-6.104-1.675-2.154-3.989-3.151-6.662-3.151-5.426-.04-10.732 1.146-16.037 2.274-5.026 1.077-9.973 2.314-14.401 5.066-1.276.799-2.433 1.755-3.112 3.033-2.114 4.029-.558 9.773 3.192 12.408 3.192 2.234 6.822 2.633 11.13 2.633 1.146.08 2.912-.08 4.587-.399 5.346-1.077 9.973-3.671 14.442-6.662 3.43-2.234 5.825-5.266 7.181-9.097zm-9.216 9.375c-3.79 2.274-7.619 4.468-12.048 5.266-3.591.638-7.261.839-10.85-.08-4.189-.997-7.421-4.789-7.58-9.097-.08-2.354 1.077-4.269 2.872-5.786 2.793-2.353 6.104-3.591 9.615-4.349.08 0 .199.119.319.199 2.953-2.274 6.304-2.713 9.894-2.434.319-.756 1.077-.519 1.636-.678 3.07-.759 6.183-1.077 9.255-.439 5.786 1.146 6.503 4.388 4.629 9.097-1.476 3.79-4.388 6.264-7.739 8.298zm9.853-2.873c3.79.229 6.462-3.322 6.462-6.381 0-4.269-2.274-7.341-5.545-9.773-1.556-1.117-3.323-1.874-5.227-1.197-1.636.558-3.231.917-4.947.799-.199 0-.399.16-.598.199.997 0 1.954-.08 2.952.039 4.907.559 7.5 2.713 7.5 7.58 0 3.151-.797 6.143-2.115 8.977.439-.281.958-.281 1.516-.229z" fill="#a2b24f"/><path d="M35.8 12.933c-3.07-.638-6.223-.278-9.255.439-.559.119-1.318-.08-1.636.678 3.51.678 6.223 2.593 8.059 5.664 1.516 2.514 1.117 4.947-1.196 6.902-2.433 2.115-5.346 3.112-8.538 3.472-4.269.479-8.1-.797-11.69-2.979-.997-.598-1.276-1.398-1.146-2.475.399-3.391 2.114-6.024 4.629-8.178-.12-.08-.229-.199-.319-.199-3.51.758-6.823 1.994-9.615 4.349-1.795 1.516-2.952 3.431-2.872 5.786.16 4.269 3.431 8.059 7.58 9.097 3.632.878 7.261.717 10.85.08 4.388-.797 8.258-2.979 12.007-5.266 3.351-2.035 6.264-4.508 7.739-8.218 1.913-4.748 1.197-7.979-4.587-9.136z" fill="#dcdf72"/><path d="M10.387 24.623c-.12 1.037.16 1.874 1.146 2.475 3.591 2.194 7.421 3.471 11.69 2.979 3.151-.358 6.103-1.357 8.538-3.471 2.274-1.955 2.713-4.388 1.196-6.902-1.875-3.07-4.548-4.987-8.059-5.664-3.552-.28-6.943.16-9.894 2.434-2.553 2.154-4.269 4.789-4.629 8.139z" fill="#5e3108"/></g></symbol></svg>