<?xml version="1.0" encoding="utf-8"?>
<!-- Generator: Adobe Illustrator 22.1.0, SVG Export Plug-In . SVG Version: 6.00 Build 0)  -->
<svg version="1.1" id="Layer_1" xmlns="http://www.w3.org/2000/svg" xmlns:xlink="http://www.w3.org/1999/xlink" x="0px" y="0px"
	 viewBox="0 0 856.2 505.7" style="enable-background:new 0 0 856.2 505.7;" xml:space="preserve">
<style type="text/css">
	.st0{fill:none;stroke:#E3E6F0;stroke-miterlimit:10;}
	.st1{fill:#FFFFFF;}
	.st2{fill:#E3E6F0;}
	.st3{fill:#FF4E50;}
	.st4{fill:#FFC107;}
	.st5{fill:#00C9A7;}
</style>
<g>
	<g>
		<defs>
			<path id="SVGID_1_" d="M836.7,505.2h-817c-10.5,0-19-6.4-19-14.3V20.2c0-7.9,8.5-14.3,19-14.3h817c10.5,0,19,6.4,19,14.3v470.7
				C855.7,498.8,847.2,505.2,836.7,505.2z"/>
		</defs>
		<clipPath id="SVGID_3_">
			<use xlink:href="#SVGID_1_"  style="overflow:visible;"/>
		</clipPath>
		<g style="clip-path:url(#SVGID_3_);">

				<image style="overflow:visible;" width="855" height="465" xlink:href="../../img/855x465/img1.jpg"  transform="matrix(1 0 0 1 0.2 40.2)">
			</image>
		</g>
	</g>
	<g>
		<path id="SVGID_2_" class="st0" d="M836.7,505.2h-817c-10.5,0-19-6.4-19-14.3V20.2c0-7.9,8.5-14.3,19-14.3h817
			c10.5,0,19,6.4,19,14.3v470.7C855.7,498.8,847.2,505.2,836.7,505.2z"/>
	</g>
</g>
<g>
	<path class="st1" d="M0.5,39.7V19C0.5,8.8,8.8,0.5,19,0.5h818c10.2,0,18.5,8.3,18.5,18.5v20.7H0.5z"/>
	<path class="st2" d="M837,1c9.9,0,18,8.1,18,18v20.2H1V19C1,9.1,9.1,1,19,1H837 M837,0H19C8.5,0,0,8.5,0,19v21.2h856V19
		C856,8.5,847.5,0,837,0L837,0z"/>
</g>
<g>
	<ellipse class="st3" cx="27.7" cy="20.1" rx="6" ry="6"/>
	<ellipse class="st4" cx="47.6" cy="20.1" rx="6" ry="6"/>
	<ellipse class="st5" cx="67.6" cy="20.1" rx="6" ry="6"/>
</g>
</svg>
