<?xml version="1.0" encoding="utf-8"?>
<!-- Generator: Adobe Illustrator 22.1.0, SVG Export Plug-In . SVG Version: 6.00 Build 0)  -->
<svg version="1.1" id="macbook_1_" xmlns="http://www.w3.org/2000/svg" xmlns:xlink="http://www.w3.org/1999/xlink" x="0px" y="0px"
	 viewBox="0 0 1396.6 597.5" style="enable-background:new 0 0 1396.6 597.5;" xml:space="preserve">
<style type="text/css">
	.st0{fill:#FFFFFF;stroke:#E7EAF3;stroke-miterlimit:10;}
	.st1{fill:#F7F7F7;}
	.st2{fill:#FFFFFF;}
	.st3{fill:#EFEFEF;}
	.st4{fill:url(#SVGID_1_);}
	.st5{clip-path:url(#SVGID_4_);}
	.st6{fill:none;stroke:#E7EAF3;stroke-miterlimit:10;}
	.st7{clip-path:url(#SVGID_7_);}
</style>
<g id="laptop">
	<path class="st0" d="M1112.3,577H348.5c-14.4,0-26.2-11.8-26.2-26.2V26.7c0-14.4,11.8-26.2,26.2-26.2h763.9
		c14.4,0,26.2,11.8,26.2,26.2v524.2C1138.5,565.2,1126.7,577,1112.3,577z"/>
	<circle class="st1" cx="729" cy="23.8" r="3"/>
	<path class="st2" d="M1227.3,561.2H233.9c-1.5,0-2.8-1.3-2.8-2.8l0,0c0-1.5,1.3-2.8,2.8-2.8h993.4c1.5,0,2.8,1.3,2.8,2.8l0,0
		C1230.1,559.9,1228.9,561.2,1227.3,561.2z"/>
	<path class="st3" d="M730.6,563L231,561.2c0,0,24.1,11.3,117.8,15.8H729h3.1h380.2c93.7-4.5,117.8-15.8,117.8-15.8L730.6,563z"/>
	
		<linearGradient id="SVGID_1_" gradientUnits="userSpaceOnUse" x1="634.8945" y1="129.2" x2="825.9944" y2="129.2" gradientTransform="matrix(1 0 0 1 0 430)">
		<stop  offset="5.908129e-07" style="stop-color:#F0F1F2"/>
		<stop  offset="5.235744e-02" style="stop-color:#F6F7F8"/>
		<stop  offset="0.1708" style="stop-color:#FDFDFD"/>
		<stop  offset="0.5" style="stop-color:#FFFFFF"/>
		<stop  offset="0.8292" style="stop-color:#FDFDFD"/>
		<stop  offset="0.9476" style="stop-color:#F6F7F8"/>
		<stop  offset="1" style="stop-color:#F0F1F2"/>
	</linearGradient>
	<path class="st4" d="M822.4,562.7h-184c-1.9,0-3.5-1.6-3.5-3.5v-3.5H826v3.5C826,561.1,824.4,562.7,822.4,562.7z"/>
	<g>
		<g>
			<g>
				<defs>
					<rect id="SVGID_3_" x="352.7" y="38" width="752.5" height="469.7"/>
				</defs>
				<clipPath id="SVGID_4_">
					<use xlink:href="#SVGID_3_"  style="overflow:visible;"/>
				</clipPath>
				<g class="st5">
					
						<image style="overflow:visible;" width="753" height="470" xlink:href="../../img/753x470/img2.jpg"  transform="matrix(1 0 0 1 352.4944 38)">
					</image>
				</g>
			</g>
		</g>
		<g>
			<rect id="SVGID_2_" x="352.7" y="38" class="st6" width="752.5" height="469.7"/>
		</g>
	</g>
</g>
<g id="phone">
	<path class="st0" d="M1342.1,597h-120.9c-29.7,0-54-24.3-54-54V170.9c0-29.7,24.3-54,54-54h120.9c29.7,0,54,24.3,54,54V543
		C1396.1,572.7,1371.8,597,1342.1,597z"/>
	<circle class="st1" cx="1282.4" cy="563.4" r="18.4"/>
	<path class="st1" d="M1297.2,153.7h-30.3c-1.6,0-2.9-1.3-2.9-2.9l0,0c0-1.6,1.3-2.9,2.9-2.9h30.3c1.6,0,2.9,1.3,2.9,2.9l0,0
		C1300.1,152.4,1298.8,153.7,1297.2,153.7z"/>
	<g>
		<g>
			<defs>
				<rect id="SVGID_6_" x="1181.2" y="174.8" width="202.2" height="361"/>
			</defs>
			<clipPath id="SVGID_7_">
				<use xlink:href="#SVGID_6_"  style="overflow:visible;"/>
			</clipPath>
			<g class="st7">
				
					<image style="overflow:visible;" width="204" height="361" xlink:href="../../img/204x361/img2.jpg"  transform="matrix(1 0 0 1 1180.6444 174.8)">
				</image>
			</g>
		</g>
		<g>
			<rect id="SVGID_5_" x="1181.2" y="174.8" class="st6" width="202.2" height="361"/>
		</g>
	</g>
</g>
<g id="tablet">
	<path id="BG_Color" class="st0" d="M560.9,597H35c-19,0-34.5-15.5-34.5-34.5V229.3c0-19,15.5-34.5,34.5-34.5h525.9
		c19,0,34.5,15.5,34.5,34.5v333.1C595.5,581.5,579.9,597,560.9,597z"/>
	<circle id="Touch" class="st1" cx="30.8" cy="396.6" r="17"/>
	<circle id="Camera_1_" class="st1" cx="564.8" cy="396.1" r="4.1"/>
	<g>
		<defs>
			
				<rect id="SVGID_8_" x="123.2" y="159.4" transform="matrix(-1.836970e-16 1 -1 -1.836970e-16 697.5497 95.5842)" width="355.5" height="474.2"/>
		</defs>
		<clipPath id="SVGID_9_">
			<use xlink:href="#SVGID_8_"  style="overflow:visible;"/>
		</clipPath>
		<g style="clip-path:url(#SVGID_9_);">
			
				<image style="overflow:visible;" width="711" height="532" xlink:href="../../img/711x532/img1.jpg"  transform="matrix(0.667 0 0 0.667 63.8648 219.1454)">
			</image>
		</g>
		<use xlink:href="#SVGID_8_"  style="overflow:visible;fill:none;stroke:#E7EAF3;stroke-miterlimit:10;"/>
	</g>
</g>
</svg>
