<?xml version="1.0" encoding="utf-8"?>
<!-- Generator: Adobe Illustrator 22.1.0, SVG Export Plug-In . SVG Version: 6.00 Build 0)  -->
<svg version="1.1" id="macbook_1_" xmlns="http://www.w3.org/2000/svg" xmlns:xlink="http://www.w3.org/1999/xlink" x="0px" y="0px"
	 viewBox="0 0 1270.5 701.1" style="enable-background:new 0 0 1270.5 701.1;" xml:space="preserve">
<style type="text/css">
	.st0{opacity:0.3;fill:#E7EAF3;}
	.st1{fill:#FFFFFF;stroke:#E7EAF3;stroke-miterlimit:10;}
	.st2{fill:#F7F7F7;}
	.st3{fill:#FFFFFF;}
	.st4{fill:#EFEFEF;}
	.st5{fill:url(#SVGID_1_);}
	.st6{clip-path:url(#SVGID_4_);}
	.st7{fill:none;stroke:#E7EAF3;stroke-miterlimit:10;}
	.st8{fill:none;stroke:#C4C7CE;stroke-miterlimit:10;}
	.st9{fill:none;stroke:#C4C7CE;stroke-miterlimit:10;stroke-dasharray:4,0,3,0,0,2;}
</style>
<ellipse class="st0" cx="693" cy="652.6" rx="577.5" ry="48.5"/>
<g id="laptop">
	<path class="st1" d="M1073.8,660H310c-14.4,0-26.2-11.8-26.2-26.2V109.7c0-14.4,11.8-26.2,26.2-26.2h763.9
		c14.4,0,26.2,11.8,26.2,26.2v524.2C1100,648.2,1088.2,660,1073.8,660z"/>
	<circle class="st2" cx="690.5" cy="106.8" r="3"/>
	<path class="st3" d="M1188.8,644.2H195.4c-1.5,0-2.8-1.3-2.8-2.8l0,0c0-1.5,1.3-2.8,2.8-2.8h993.4c1.5,0,2.8,1.3,2.8,2.8l0,0
		C1191.6,642.9,1190.4,644.2,1188.8,644.2z"/>
	<path class="st4" d="M692.1,646l-499.6-1.8c0,0,24.1,11.3,117.8,15.8h380.2h3.1h380.2c93.7-4.5,117.8-15.8,117.8-15.8L692.1,646z"
		/>
	
		<linearGradient id="SVGID_1_" gradientUnits="userSpaceOnUse" x1="596.4" y1="103.8" x2="787.5001" y2="103.8" gradientTransform="matrix(1 0 0 -1 0 746)">
		<stop  offset="5.908129e-07" style="stop-color:#F0F1F2"/>
		<stop  offset="5.235744e-02" style="stop-color:#F6F7F8"/>
		<stop  offset="0.1708" style="stop-color:#FDFDFD"/>
		<stop  offset="0.5" style="stop-color:#FFFFFF"/>
		<stop  offset="0.8292" style="stop-color:#FDFDFD"/>
		<stop  offset="0.9476" style="stop-color:#F6F7F8"/>
		<stop  offset="1" style="stop-color:#F0F1F2"/>
	</linearGradient>
	<path class="st5" d="M783.9,645.7h-184c-1.9,0-3.5-1.6-3.5-3.5v-3.5h191.1v3.5C787.5,644.1,785.9,645.7,783.9,645.7z"/>
	<g>
		<g>
			<defs>
				<rect id="SVGID_3_" x="314.2" y="121" width="752.5" height="469.7"/>
			</defs>
			<clipPath id="SVGID_4_">
				<use xlink:href="#SVGID_3_"  style="overflow:visible;"/>
			</clipPath>
			<g class="st6">
				
					<image style="overflow:visible;enable-background:new    ;" width="753" height="470" xlink:href="../../img/753x470/img1.jpg"  transform="matrix(1 0 0 1 314 120.8352)">
				</image>
			</g>
		</g>
		<g>
			<rect id="SVGID_2_" x="314.2" y="121" class="st7" width="752.5" height="469.7"/>
		</g>
	</g>
</g>
<g>
	<defs>
		<circle id="loupe" cx="103.5" cy="103.5" r="100"/>
	</defs>
	<clipPath id="loupe_1_">
		<use xlink:href="#loupe"  style="overflow:visible;"/>
	</clipPath>
	<g style="clip-path:url(#loupe_1_);">
		
			<image style="overflow:visible;" width="200" height="200" xlink:href="../../img/200x200/img1.jpg"  transform="matrix(1 0 0 1 2.5 3.5)">
		</image>
	</g>
	<use xlink:href="#loupe"  style="overflow:visible;fill:none;stroke:#E7EAF3;stroke-width:7;stroke-miterlimit:10;"/>
</g>
<g id="indicator">
	
		<ellipse transform="matrix(0.9832 -0.1823 0.1823 0.9832 -43.4284 73.8743)" class="st8" cx="380.1" cy="273.1" rx="4.8" ry="4.8"/>
	<path class="st9" d="M370.2,275.5c0,0-109.7,22.9-184.9-68"/>
	<ellipse transform="matrix(0.9832 -0.1823 0.1823 0.9832 -33.5224 35.848)" class="st8" cx="178.2" cy="200.3" rx="4.8" ry="4.8"/>
</g>
</svg>
