<?xml version="1.0" encoding="utf-8"?>
<!-- Generator: Adobe Illustrator 22.1.0, SVG Export Plug-In . SVG Version: 6.00 Build 0)  -->
<svg version="1.1" id="macbook_1_" xmlns="http://www.w3.org/2000/svg" xmlns:xlink="http://www.w3.org/1999/xlink" x="0px" y="0px"
	 viewBox="0 0 1119.6 880" style="enable-background:new 0 0 1119.6 880;" xml:space="preserve">
<style type="text/css">
	.st0{opacity:0.4;}
	.st1{fill:#8C98A4;}
	.st2{font-family:'ArialMT';}
	.st3{font-size:22px;}
	.st4{fill:#FFFFFF;stroke:#E7EAF3;stroke-miterlimit:10;}
	.st5{fill:#F7F7F7;}
	.st6{fill:#FFFFFF;}
	.st7{fill:#EFEFEF;}
	.st8{fill:url(#SVGID_1_);}
	.st9{clip-path:url(#SVGID_4_);}
	.st10{fill:none;stroke:#E7EAF3;stroke-miterlimit:10;}
	.st11{fill:none;stroke:#E3E6F0;stroke-width:4;stroke-miterlimit:10;}
	.st12{fill:#21C87A;}
	.st13{fill:#E3E6F0;}
	.st14{opacity:0.5;fill:#21C87A;enable-background:new    ;}
</style>
<g>
	<g class="st0">
		<g>
			<g>
				<text transform="matrix(1 0 0 1 810.5527 524.725)" class="st1 st2 st3">+</text>
				<text transform="matrix(1 0 0 1 835.2402 524.725)" class="st1 st2 st3">+</text>
				<text transform="matrix(1 0 0 1 859.9238 524.725)" class="st1 st2 st3">+</text>
				<text transform="matrix(1 0 0 1 884.6152 524.725)" class="st1 st2 st3">+</text>
				<text transform="matrix(1 0 0 1 909.2988 524.725)" class="st1 st2 st3">+</text>
				<text transform="matrix(1 0 0 1 933.9863 524.725)" class="st1 st2 st3">+</text>
				<text transform="matrix(1 0 0 1 958.6738 524.725)" class="st1 st2 st3">+</text>
				<text transform="matrix(1 0 0 1 983.3613 524.725)" class="st1 st2 st3">+</text>
				<text transform="matrix(1 0 0 1 1032.7363 524.725)" class="st1 st2 st3">+</text>
				<text transform="matrix(1 0 0 1 1008.0488 524.725)" class="st1 st2 st3">+</text>
				<text transform="matrix(1 0 0 1 983.3613 524.725)" class="st1 st2 st3">+</text>
				<text transform="matrix(1 0 0 1 1057.4238 524.725)" class="st1 st2 st3">+</text>
				<text transform="matrix(1 0 0 1 1082.1074 524.725)" class="st1 st2 st3">+</text>
				<text transform="matrix(1 0 0 1 1106.7949 524.725)" class="st1 st2 st3">+</text>
			</g>
			<g>
				<text transform="matrix(1 0 0 1 810.5527 549.4125)" class="st1 st2 st3">+</text>
				<text transform="matrix(1 0 0 1 835.2402 549.4125)" class="st1 st2 st3">+</text>
				<text transform="matrix(1 0 0 1 859.9238 549.4125)" class="st1 st2 st3">+</text>
				<text transform="matrix(1 0 0 1 884.6152 549.4125)" class="st1 st2 st3">+</text>
				<text transform="matrix(1 0 0 1 909.2988 549.4125)" class="st1 st2 st3">+</text>
				<text transform="matrix(1 0 0 1 933.9863 549.4125)" class="st1 st2 st3">+</text>
				<text transform="matrix(1 0 0 1 958.6738 549.4125)" class="st1 st2 st3">+</text>
				<text transform="matrix(1 0 0 1 983.3613 549.4125)" class="st1 st2 st3">+</text>
				<text transform="matrix(1 0 0 1 1032.7363 549.4125)" class="st1 st2 st3">+</text>
				<text transform="matrix(1 0 0 1 1008.0488 549.4125)" class="st1 st2 st3">+</text>
				<text transform="matrix(1 0 0 1 983.3613 549.4125)" class="st1 st2 st3">+</text>
				<text transform="matrix(1 0 0 1 1057.4238 549.4125)" class="st1 st2 st3">+</text>
				<text transform="matrix(1 0 0 1 1082.1074 549.4125)" class="st1 st2 st3">+</text>
				<text transform="matrix(1 0 0 1 1106.7949 549.4125)" class="st1 st2 st3">+</text>
			</g>
			<g>
				<text transform="matrix(1 0 0 1 810.5527 574.1)" class="st1 st2 st3">+</text>
				<text transform="matrix(1 0 0 1 835.2402 574.1)" class="st1 st2 st3">+</text>
				<text transform="matrix(1 0 0 1 859.9238 574.1)" class="st1 st2 st3">+</text>
				<text transform="matrix(1 0 0 1 884.6152 574.1)" class="st1 st2 st3">+</text>
				<text transform="matrix(1 0 0 1 909.2988 574.1)" class="st1 st2 st3">+</text>
				<text transform="matrix(1 0 0 1 933.9863 574.1)" class="st1 st2 st3">+</text>
				<text transform="matrix(1 0 0 1 958.6738 574.1)" class="st1 st2 st3">+</text>
				<text transform="matrix(1 0 0 1 983.3613 574.1)" class="st1 st2 st3">+</text>
				<text transform="matrix(1 0 0 1 1032.7363 574.1)" class="st1 st2 st3">+</text>
				<text transform="matrix(1 0 0 1 1008.0488 574.1)" class="st1 st2 st3">+</text>
				<text transform="matrix(1 0 0 1 983.3613 574.1)" class="st1 st2 st3">+</text>
				<text transform="matrix(1 0 0 1 1057.4238 574.1)" class="st1 st2 st3">+</text>
				<text transform="matrix(1 0 0 1 1082.1074 574.1)" class="st1 st2 st3">+</text>
				<text transform="matrix(1 0 0 1 1106.7949 574.1)" class="st1 st2 st3">+</text>
			</g>
			<g>
				<text transform="matrix(1 0 0 1 810.5527 598.7836)" class="st1 st2 st3">+</text>
				<text transform="matrix(1 0 0 1 835.2402 598.7836)" class="st1 st2 st3">+</text>
				<text transform="matrix(1 0 0 1 859.9238 598.7836)" class="st1 st2 st3">+</text>
				<text transform="matrix(1 0 0 1 884.6152 598.7836)" class="st1 st2 st3">+</text>
				<text transform="matrix(1 0 0 1 909.2988 598.7836)" class="st1 st2 st3">+</text>
				<text transform="matrix(1 0 0 1 933.9863 598.7836)" class="st1 st2 st3">+</text>
				<text transform="matrix(1 0 0 1 958.6738 598.7836)" class="st1 st2 st3">+</text>
				<text transform="matrix(1 0 0 1 983.3613 598.7836)" class="st1 st2 st3">+</text>
				<text transform="matrix(1 0 0 1 1032.7363 598.7836)" class="st1 st2 st3">+</text>
				<text transform="matrix(1 0 0 1 1008.0488 598.7836)" class="st1 st2 st3">+</text>
				<text transform="matrix(1 0 0 1 983.3613 598.7836)" class="st1 st2 st3">+</text>
				<text transform="matrix(1 0 0 1 1057.4238 598.7836)" class="st1 st2 st3">+</text>
				<text transform="matrix(1 0 0 1 1082.1074 598.7836)" class="st1 st2 st3">+</text>
				<text transform="matrix(1 0 0 1 1106.7949 598.7836)" class="st1 st2 st3">+</text>
			</g>
			<g>
				<text transform="matrix(1 0 0 1 810.5527 623.475)" class="st1 st2 st3">+</text>
				<text transform="matrix(1 0 0 1 835.2402 623.475)" class="st1 st2 st3">+</text>
				<text transform="matrix(1 0 0 1 859.9238 623.475)" class="st1 st2 st3">+</text>
				<text transform="matrix(1 0 0 1 884.6152 623.475)" class="st1 st2 st3">+</text>
				<text transform="matrix(1 0 0 1 909.2988 623.475)" class="st1 st2 st3">+</text>
				<text transform="matrix(1 0 0 1 933.9863 623.475)" class="st1 st2 st3">+</text>
				<text transform="matrix(1 0 0 1 958.6738 623.475)" class="st1 st2 st3">+</text>
				<text transform="matrix(1 0 0 1 983.3613 623.475)" class="st1 st2 st3">+</text>
				<text transform="matrix(1 0 0 1 1032.7363 623.475)" class="st1 st2 st3">+</text>
				<text transform="matrix(1 0 0 1 1008.0488 623.475)" class="st1 st2 st3">+</text>
				<text transform="matrix(1 0 0 1 983.3613 623.475)" class="st1 st2 st3">+</text>
				<text transform="matrix(1 0 0 1 1057.4238 623.475)" class="st1 st2 st3">+</text>
				<text transform="matrix(1 0 0 1 1082.1074 623.475)" class="st1 st2 st3">+</text>
				<text transform="matrix(1 0 0 1 1106.7949 623.475)" class="st1 st2 st3">+</text>
			</g>
			<g>
				<text transform="matrix(1 0 0 1 810.5527 648.1586)" class="st1 st2 st3">+</text>
				<text transform="matrix(1 0 0 1 835.2402 648.1586)" class="st1 st2 st3">+</text>
				<text transform="matrix(1 0 0 1 859.9238 648.1586)" class="st1 st2 st3">+</text>
				<text transform="matrix(1 0 0 1 884.6152 648.1586)" class="st1 st2 st3">+</text>
				<text transform="matrix(1 0 0 1 909.2988 648.1586)" class="st1 st2 st3">+</text>
				<text transform="matrix(1 0 0 1 933.9863 648.1586)" class="st1 st2 st3">+</text>
				<text transform="matrix(1 0 0 1 958.6738 648.1586)" class="st1 st2 st3">+</text>
				<text transform="matrix(1 0 0 1 983.3613 648.1586)" class="st1 st2 st3">+</text>
				<text transform="matrix(1 0 0 1 1032.7363 648.1586)" class="st1 st2 st3">+</text>
				<text transform="matrix(1 0 0 1 1008.0488 648.1586)" class="st1 st2 st3">+</text>
				<text transform="matrix(1 0 0 1 983.3613 648.1586)" class="st1 st2 st3">+</text>
				<text transform="matrix(1 0 0 1 1057.4238 648.1586)" class="st1 st2 st3">+</text>
				<text transform="matrix(1 0 0 1 1082.1074 648.1586)" class="st1 st2 st3">+</text>
				<text transform="matrix(1 0 0 1 1106.7949 648.1586)" class="st1 st2 st3">+</text>
			</g>
		</g>
		<g>
			<g>
				<text transform="matrix(1 0 0 1 810.5527 672.8461)" class="st1 st2 st3">+</text>
				<text transform="matrix(1 0 0 1 835.2402 672.8461)" class="st1 st2 st3">+</text>
				<text transform="matrix(1 0 0 1 859.9238 672.8461)" class="st1 st2 st3">+</text>
				<text transform="matrix(1 0 0 1 884.6152 672.8461)" class="st1 st2 st3">+</text>
				<text transform="matrix(1 0 0 1 909.2988 672.8461)" class="st1 st2 st3">+</text>
				<text transform="matrix(1 0 0 1 933.9863 672.8461)" class="st1 st2 st3">+</text>
				<text transform="matrix(1 0 0 1 958.6738 672.8461)" class="st1 st2 st3">+</text>
				<text transform="matrix(1 0 0 1 983.3613 672.8461)" class="st1 st2 st3">+</text>
				<text transform="matrix(1 0 0 1 1032.7363 672.8461)" class="st1 st2 st3">+</text>
				<text transform="matrix(1 0 0 1 1008.0488 672.8461)" class="st1 st2 st3">+</text>
				<text transform="matrix(1 0 0 1 983.3613 672.8461)" class="st1 st2 st3">+</text>
				<text transform="matrix(1 0 0 1 1057.4238 672.8461)" class="st1 st2 st3">+</text>
				<text transform="matrix(1 0 0 1 1082.1074 672.8461)" class="st1 st2 st3">+</text>
				<text transform="matrix(1 0 0 1 1106.7949 672.8461)" class="st1 st2 st3">+</text>
			</g>
			<g>
				<text transform="matrix(1 0 0 1 810.5527 697.5297)" class="st1 st2 st3">+</text>
				<text transform="matrix(1 0 0 1 835.2402 697.5297)" class="st1 st2 st3">+</text>
				<text transform="matrix(1 0 0 1 859.9238 697.5297)" class="st1 st2 st3">+</text>
				<text transform="matrix(1 0 0 1 884.6152 697.5297)" class="st1 st2 st3">+</text>
				<text transform="matrix(1 0 0 1 909.2988 697.5297)" class="st1 st2 st3">+</text>
				<text transform="matrix(1 0 0 1 933.9863 697.5297)" class="st1 st2 st3">+</text>
				<text transform="matrix(1 0 0 1 958.6738 697.5297)" class="st1 st2 st3">+</text>
				<text transform="matrix(1 0 0 1 983.3613 697.5297)" class="st1 st2 st3">+</text>
				<text transform="matrix(1 0 0 1 1032.7363 697.5297)" class="st1 st2 st3">+</text>
				<text transform="matrix(1 0 0 1 1008.0488 697.5297)" class="st1 st2 st3">+</text>
				<text transform="matrix(1 0 0 1 983.3613 697.5297)" class="st1 st2 st3">+</text>
				<text transform="matrix(1 0 0 1 1057.4238 697.5297)" class="st1 st2 st3">+</text>
				<text transform="matrix(1 0 0 1 1082.1074 697.5297)" class="st1 st2 st3">+</text>
				<text transform="matrix(1 0 0 1 1106.7949 697.5297)" class="st1 st2 st3">+</text>
			</g>
			<g>
				<text transform="matrix(1 0 0 1 810.5527 722.2211)" class="st1 st2 st3">+</text>
				<text transform="matrix(1 0 0 1 835.2402 722.2211)" class="st1 st2 st3">+</text>
				<text transform="matrix(1 0 0 1 859.9238 722.2211)" class="st1 st2 st3">+</text>
				<text transform="matrix(1 0 0 1 884.6152 722.2211)" class="st1 st2 st3">+</text>
				<text transform="matrix(1 0 0 1 909.2988 722.2211)" class="st1 st2 st3">+</text>
				<text transform="matrix(1 0 0 1 933.9863 722.2211)" class="st1 st2 st3">+</text>
				<text transform="matrix(1 0 0 1 958.6738 722.2211)" class="st1 st2 st3">+</text>
				<text transform="matrix(1 0 0 1 983.3613 722.2211)" class="st1 st2 st3">+</text>
				<text transform="matrix(1 0 0 1 1032.7363 722.2211)" class="st1 st2 st3">+</text>
				<text transform="matrix(1 0 0 1 1008.0488 722.2211)" class="st1 st2 st3">+</text>
				<text transform="matrix(1 0 0 1 983.3613 722.2211)" class="st1 st2 st3">+</text>
				<text transform="matrix(1 0 0 1 1057.4238 722.2211)" class="st1 st2 st3">+</text>
				<text transform="matrix(1 0 0 1 1082.1074 722.2211)" class="st1 st2 st3">+</text>
				<text transform="matrix(1 0 0 1 1106.7949 722.2211)" class="st1 st2 st3">+</text>
			</g>
			<g>
				<text transform="matrix(1 0 0 1 810.5527 746.9086)" class="st1 st2 st3">+</text>
				<text transform="matrix(1 0 0 1 835.2402 746.9086)" class="st1 st2 st3">+</text>
				<text transform="matrix(1 0 0 1 859.9238 746.9086)" class="st1 st2 st3">+</text>
				<text transform="matrix(1 0 0 1 884.6152 746.9086)" class="st1 st2 st3">+</text>
				<text transform="matrix(1 0 0 1 909.2988 746.9086)" class="st1 st2 st3">+</text>
				<text transform="matrix(1 0 0 1 933.9863 746.9086)" class="st1 st2 st3">+</text>
				<text transform="matrix(1 0 0 1 958.6738 746.9086)" class="st1 st2 st3">+</text>
				<text transform="matrix(1 0 0 1 983.3613 746.9086)" class="st1 st2 st3">+</text>
				<text transform="matrix(1 0 0 1 1032.7363 746.9086)" class="st1 st2 st3">+</text>
				<text transform="matrix(1 0 0 1 1008.0488 746.9086)" class="st1 st2 st3">+</text>
				<text transform="matrix(1 0 0 1 983.3613 746.9086)" class="st1 st2 st3">+</text>
				<text transform="matrix(1 0 0 1 1057.4238 746.9086)" class="st1 st2 st3">+</text>
				<text transform="matrix(1 0 0 1 1082.1074 746.9086)" class="st1 st2 st3">+</text>
				<text transform="matrix(1 0 0 1 1106.7949 746.9086)" class="st1 st2 st3">+</text>
			</g>
			<g>
				<text transform="matrix(1 0 0 1 810.5527 771.5961)" class="st1 st2 st3">+</text>
				<text transform="matrix(1 0 0 1 835.2402 771.5961)" class="st1 st2 st3">+</text>
				<text transform="matrix(1 0 0 1 859.9238 771.5961)" class="st1 st2 st3">+</text>
				<text transform="matrix(1 0 0 1 884.6152 771.5961)" class="st1 st2 st3">+</text>
				<text transform="matrix(1 0 0 1 909.2988 771.5961)" class="st1 st2 st3">+</text>
				<text transform="matrix(1 0 0 1 933.9863 771.5961)" class="st1 st2 st3">+</text>
				<text transform="matrix(1 0 0 1 958.6738 771.5961)" class="st1 st2 st3">+</text>
				<text transform="matrix(1 0 0 1 983.3613 771.5961)" class="st1 st2 st3">+</text>
				<text transform="matrix(1 0 0 1 1032.7363 771.5961)" class="st1 st2 st3">+</text>
				<text transform="matrix(1 0 0 1 1008.0488 771.5961)" class="st1 st2 st3">+</text>
				<text transform="matrix(1 0 0 1 983.3613 771.5961)" class="st1 st2 st3">+</text>
				<text transform="matrix(1 0 0 1 1057.4238 771.5961)" class="st1 st2 st3">+</text>
				<text transform="matrix(1 0 0 1 1082.1074 771.5961)" class="st1 st2 st3">+</text>
				<text transform="matrix(1 0 0 1 1106.7949 771.5961)" class="st1 st2 st3">+</text>
			</g>
			<g>
				<text transform="matrix(1 0 0 1 810.5527 796.2797)" class="st1 st2 st3">+</text>
				<text transform="matrix(1 0 0 1 835.2402 796.2797)" class="st1 st2 st3">+</text>
				<text transform="matrix(1 0 0 1 859.9238 796.2797)" class="st1 st2 st3">+</text>
				<text transform="matrix(1 0 0 1 884.6152 796.2797)" class="st1 st2 st3">+</text>
				<text transform="matrix(1 0 0 1 909.2988 796.2797)" class="st1 st2 st3">+</text>
				<text transform="matrix(1 0 0 1 933.9863 796.2797)" class="st1 st2 st3">+</text>
				<text transform="matrix(1 0 0 1 958.6738 796.2797)" class="st1 st2 st3">+</text>
				<text transform="matrix(1 0 0 1 983.3613 796.2797)" class="st1 st2 st3">+</text>
				<text transform="matrix(1 0 0 1 1032.7363 796.2797)" class="st1 st2 st3">+</text>
				<text transform="matrix(1 0 0 1 1008.0488 796.2797)" class="st1 st2 st3">+</text>
				<text transform="matrix(1 0 0 1 983.3613 796.2797)" class="st1 st2 st3">+</text>
				<text transform="matrix(1 0 0 1 1057.4238 796.2797)" class="st1 st2 st3">+</text>
				<text transform="matrix(1 0 0 1 1082.1074 796.2797)" class="st1 st2 st3">+</text>
				<text transform="matrix(1 0 0 1 1106.7949 796.2797)" class="st1 st2 st3">+</text>
			</g>
		</g>
	</g>
</g>
<g>
	<g class="st0">
		<g>
			<g>
				<text transform="matrix(1 0 0 1 492.5527 746.8461)" class="st1 st2 st3">+</text>
				<text transform="matrix(1 0 0 1 517.2402 746.8461)" class="st1 st2 st3">+</text>
				<text transform="matrix(1 0 0 1 541.9238 746.8461)" class="st1 st2 st3">+</text>
				<text transform="matrix(1 0 0 1 566.6152 746.8461)" class="st1 st2 st3">+</text>
				<text transform="matrix(1 0 0 1 591.2988 746.8461)" class="st1 st2 st3">+</text>
				<text transform="matrix(1 0 0 1 615.9863 746.8461)" class="st1 st2 st3">+</text>
				<text transform="matrix(1 0 0 1 640.6738 746.8461)" class="st1 st2 st3">+</text>
				<text transform="matrix(1 0 0 1 665.3613 746.8461)" class="st1 st2 st3">+</text>
				<text transform="matrix(1 0 0 1 714.7363 746.8461)" class="st1 st2 st3">+</text>
				<text transform="matrix(1 0 0 1 690.0488 746.8461)" class="st1 st2 st3">+</text>
				<text transform="matrix(1 0 0 1 665.3613 746.8461)" class="st1 st2 st3">+</text>
				<text transform="matrix(1 0 0 1 739.4238 746.8461)" class="st1 st2 st3">+</text>
				<text transform="matrix(1 0 0 1 764.1074 746.8461)" class="st1 st2 st3">+</text>
				<text transform="matrix(1 0 0 1 788.7949 746.8461)" class="st1 st2 st3">+</text>
			</g>
			<g>
				<text transform="matrix(1 0 0 1 492.5527 771.5297)" class="st1 st2 st3">+</text>
				<text transform="matrix(1 0 0 1 517.2402 771.5297)" class="st1 st2 st3">+</text>
				<text transform="matrix(1 0 0 1 541.9238 771.5297)" class="st1 st2 st3">+</text>
				<text transform="matrix(1 0 0 1 566.6152 771.5297)" class="st1 st2 st3">+</text>
				<text transform="matrix(1 0 0 1 591.2988 771.5297)" class="st1 st2 st3">+</text>
				<text transform="matrix(1 0 0 1 615.9863 771.5297)" class="st1 st2 st3">+</text>
				<text transform="matrix(1 0 0 1 640.6738 771.5297)" class="st1 st2 st3">+</text>
				<text transform="matrix(1 0 0 1 665.3613 771.5297)" class="st1 st2 st3">+</text>
				<text transform="matrix(1 0 0 1 714.7363 771.5297)" class="st1 st2 st3">+</text>
				<text transform="matrix(1 0 0 1 690.0488 771.5297)" class="st1 st2 st3">+</text>
				<text transform="matrix(1 0 0 1 665.3613 771.5297)" class="st1 st2 st3">+</text>
				<text transform="matrix(1 0 0 1 739.4238 771.5297)" class="st1 st2 st3">+</text>
				<text transform="matrix(1 0 0 1 764.1074 771.5297)" class="st1 st2 st3">+</text>
				<text transform="matrix(1 0 0 1 788.7949 771.5297)" class="st1 st2 st3">+</text>
			</g>
			<g>
				<text transform="matrix(1 0 0 1 492.5527 796.2211)" class="st1 st2 st3">+</text>
				<text transform="matrix(1 0 0 1 517.2402 796.2211)" class="st1 st2 st3">+</text>
				<text transform="matrix(1 0 0 1 541.9238 796.2211)" class="st1 st2 st3">+</text>
				<text transform="matrix(1 0 0 1 566.6152 796.2211)" class="st1 st2 st3">+</text>
				<text transform="matrix(1 0 0 1 591.2988 796.2211)" class="st1 st2 st3">+</text>
				<text transform="matrix(1 0 0 1 615.9863 796.2211)" class="st1 st2 st3">+</text>
				<text transform="matrix(1 0 0 1 640.6738 796.2211)" class="st1 st2 st3">+</text>
				<text transform="matrix(1 0 0 1 665.3613 796.2211)" class="st1 st2 st3">+</text>
				<text transform="matrix(1 0 0 1 714.7363 796.2211)" class="st1 st2 st3">+</text>
				<text transform="matrix(1 0 0 1 690.0488 796.2211)" class="st1 st2 st3">+</text>
				<text transform="matrix(1 0 0 1 665.3613 796.2211)" class="st1 st2 st3">+</text>
				<text transform="matrix(1 0 0 1 739.4238 796.2211)" class="st1 st2 st3">+</text>
				<text transform="matrix(1 0 0 1 764.1074 796.2211)" class="st1 st2 st3">+</text>
				<text transform="matrix(1 0 0 1 788.7949 796.2211)" class="st1 st2 st3">+</text>
			</g>
			<g>
				<text transform="matrix(1 0 0 1 492.5527 820.9086)" class="st1 st2 st3">+</text>
				<text transform="matrix(1 0 0 1 517.2402 820.9086)" class="st1 st2 st3">+</text>
				<text transform="matrix(1 0 0 1 541.9238 820.9086)" class="st1 st2 st3">+</text>
				<text transform="matrix(1 0 0 1 566.6152 820.9086)" class="st1 st2 st3">+</text>
				<text transform="matrix(1 0 0 1 591.2988 820.9086)" class="st1 st2 st3">+</text>
				<text transform="matrix(1 0 0 1 615.9863 820.9086)" class="st1 st2 st3">+</text>
				<text transform="matrix(1 0 0 1 640.6738 820.9086)" class="st1 st2 st3">+</text>
				<text transform="matrix(1 0 0 1 665.3613 820.9086)" class="st1 st2 st3">+</text>
				<text transform="matrix(1 0 0 1 714.7363 820.9086)" class="st1 st2 st3">+</text>
				<text transform="matrix(1 0 0 1 690.0488 820.9086)" class="st1 st2 st3">+</text>
				<text transform="matrix(1 0 0 1 665.3613 820.9086)" class="st1 st2 st3">+</text>
				<text transform="matrix(1 0 0 1 739.4238 820.9086)" class="st1 st2 st3">+</text>
				<text transform="matrix(1 0 0 1 764.1074 820.9086)" class="st1 st2 st3">+</text>
				<text transform="matrix(1 0 0 1 788.7949 820.9086)" class="st1 st2 st3">+</text>
			</g>
			<g>
				<text transform="matrix(1 0 0 1 492.5527 845.5961)" class="st1 st2 st3">+</text>
				<text transform="matrix(1 0 0 1 517.2402 845.5961)" class="st1 st2 st3">+</text>
				<text transform="matrix(1 0 0 1 541.9238 845.5961)" class="st1 st2 st3">+</text>
				<text transform="matrix(1 0 0 1 566.6152 845.5961)" class="st1 st2 st3">+</text>
				<text transform="matrix(1 0 0 1 591.2988 845.5961)" class="st1 st2 st3">+</text>
				<text transform="matrix(1 0 0 1 615.9863 845.5961)" class="st1 st2 st3">+</text>
				<text transform="matrix(1 0 0 1 640.6738 845.5961)" class="st1 st2 st3">+</text>
				<text transform="matrix(1 0 0 1 665.3613 845.5961)" class="st1 st2 st3">+</text>
				<text transform="matrix(1 0 0 1 714.7363 845.5961)" class="st1 st2 st3">+</text>
				<text transform="matrix(1 0 0 1 690.0488 845.5961)" class="st1 st2 st3">+</text>
				<text transform="matrix(1 0 0 1 665.3613 845.5961)" class="st1 st2 st3">+</text>
				<text transform="matrix(1 0 0 1 739.4238 845.5961)" class="st1 st2 st3">+</text>
				<text transform="matrix(1 0 0 1 764.1074 845.5961)" class="st1 st2 st3">+</text>
				<text transform="matrix(1 0 0 1 788.7949 845.5961)" class="st1 st2 st3">+</text>
			</g>
			<g>
				<text transform="matrix(1 0 0 1 492.5527 870.2797)" class="st1 st2 st3">+</text>
				<text transform="matrix(1 0 0 1 517.2402 870.2797)" class="st1 st2 st3">+</text>
				<text transform="matrix(1 0 0 1 541.9238 870.2797)" class="st1 st2 st3">+</text>
				<text transform="matrix(1 0 0 1 566.6152 870.2797)" class="st1 st2 st3">+</text>
				<text transform="matrix(1 0 0 1 591.2988 870.2797)" class="st1 st2 st3">+</text>
				<text transform="matrix(1 0 0 1 615.9863 870.2797)" class="st1 st2 st3">+</text>
				<text transform="matrix(1 0 0 1 640.6738 870.2797)" class="st1 st2 st3">+</text>
				<text transform="matrix(1 0 0 1 665.3613 870.2797)" class="st1 st2 st3">+</text>
				<text transform="matrix(1 0 0 1 714.7363 870.2797)" class="st1 st2 st3">+</text>
				<text transform="matrix(1 0 0 1 690.0488 870.2797)" class="st1 st2 st3">+</text>
				<text transform="matrix(1 0 0 1 665.3613 870.2797)" class="st1 st2 st3">+</text>
				<text transform="matrix(1 0 0 1 739.4238 870.2797)" class="st1 st2 st3">+</text>
				<text transform="matrix(1 0 0 1 764.1074 870.2797)" class="st1 st2 st3">+</text>
				<text transform="matrix(1 0 0 1 788.7949 870.2797)" class="st1 st2 st3">+</text>
			</g>
		</g>
	</g>
</g>
<g>
	<g class="st0">
		<g>
			<g>
				<text transform="matrix(1 0 0 1 358.7766 46.725)" class="st1 st2 st3">+</text>
				<text transform="matrix(1 0 0 1 383.4641 46.725)" class="st1 st2 st3">+</text>
				<text transform="matrix(1 0 0 1 408.1478 46.725)" class="st1 st2 st3">+</text>
				<text transform="matrix(1 0 0 1 432.8391 46.725)" class="st1 st2 st3">+</text>
				<text transform="matrix(1 0 0 1 457.5228 46.725)" class="st1 st2 st3">+</text>
				<text transform="matrix(1 0 0 1 482.2103 46.725)" class="st1 st2 st3">+</text>
				<text transform="matrix(1 0 0 1 506.8978 46.725)" class="st1 st2 st3">+</text>
				<text transform="matrix(1 0 0 1 531.5853 46.725)" class="st1 st2 st3">+</text>
				<text transform="matrix(1 0 0 1 580.9603 46.725)" class="st1 st2 st3">+</text>
				<text transform="matrix(1 0 0 1 556.2728 46.725)" class="st1 st2 st3">+</text>
				<text transform="matrix(1 0 0 1 531.5853 46.725)" class="st1 st2 st3">+</text>
				<text transform="matrix(1 0 0 1 605.6478 46.725)" class="st1 st2 st3">+</text>
				<text transform="matrix(1 0 0 1 630.3314 46.725)" class="st1 st2 st3">+</text>
				<text transform="matrix(1 0 0 1 655.0189 46.725)" class="st1 st2 st3">+</text>
			</g>
			<g>
				<text transform="matrix(1 0 0 1 358.7766 71.4125)" class="st1 st2 st3">+</text>
				<text transform="matrix(1 0 0 1 383.4641 71.4125)" class="st1 st2 st3">+</text>
				<text transform="matrix(1 0 0 1 408.1478 71.4125)" class="st1 st2 st3">+</text>
				<text transform="matrix(1 0 0 1 432.8391 71.4125)" class="st1 st2 st3">+</text>
				<text transform="matrix(1 0 0 1 457.5228 71.4125)" class="st1 st2 st3">+</text>
				<text transform="matrix(1 0 0 1 482.2103 71.4125)" class="st1 st2 st3">+</text>
				<text transform="matrix(1 0 0 1 506.8978 71.4125)" class="st1 st2 st3">+</text>
				<text transform="matrix(1 0 0 1 531.5853 71.4125)" class="st1 st2 st3">+</text>
				<text transform="matrix(1 0 0 1 580.9603 71.4125)" class="st1 st2 st3">+</text>
				<text transform="matrix(1 0 0 1 556.2728 71.4125)" class="st1 st2 st3">+</text>
				<text transform="matrix(1 0 0 1 531.5853 71.4125)" class="st1 st2 st3">+</text>
				<text transform="matrix(1 0 0 1 605.6478 71.4125)" class="st1 st2 st3">+</text>
				<text transform="matrix(1 0 0 1 630.3314 71.4125)" class="st1 st2 st3">+</text>
				<text transform="matrix(1 0 0 1 655.0189 71.4125)" class="st1 st2 st3">+</text>
			</g>
			<g>
				<text transform="matrix(1 0 0 1 358.7766 96.1)" class="st1 st2 st3">+</text>
				<text transform="matrix(1 0 0 1 383.4641 96.1)" class="st1 st2 st3">+</text>
				<text transform="matrix(1 0 0 1 408.1478 96.1)" class="st1 st2 st3">+</text>
				<text transform="matrix(1 0 0 1 432.8391 96.1)" class="st1 st2 st3">+</text>
				<text transform="matrix(1 0 0 1 457.5228 96.1)" class="st1 st2 st3">+</text>
				<text transform="matrix(1 0 0 1 482.2103 96.1)" class="st1 st2 st3">+</text>
				<text transform="matrix(1 0 0 1 506.8978 96.1)" class="st1 st2 st3">+</text>
				<text transform="matrix(1 0 0 1 531.5853 96.1)" class="st1 st2 st3">+</text>
				<text transform="matrix(1 0 0 1 580.9603 96.1)" class="st1 st2 st3">+</text>
				<text transform="matrix(1 0 0 1 556.2728 96.1)" class="st1 st2 st3">+</text>
				<text transform="matrix(1 0 0 1 531.5853 96.1)" class="st1 st2 st3">+</text>
				<text transform="matrix(1 0 0 1 605.6478 96.1)" class="st1 st2 st3">+</text>
				<text transform="matrix(1 0 0 1 630.3314 96.1)" class="st1 st2 st3">+</text>
				<text transform="matrix(1 0 0 1 655.0189 96.1)" class="st1 st2 st3">+</text>
			</g>
			<g>
				<text transform="matrix(1 0 0 1 358.7766 120.7836)" class="st1 st2 st3">+</text>
				<text transform="matrix(1 0 0 1 383.4641 120.7836)" class="st1 st2 st3">+</text>
				<text transform="matrix(1 0 0 1 408.1478 120.7836)" class="st1 st2 st3">+</text>
				<text transform="matrix(1 0 0 1 432.8391 120.7836)" class="st1 st2 st3">+</text>
				<text transform="matrix(1 0 0 1 457.5228 120.7836)" class="st1 st2 st3">+</text>
				<text transform="matrix(1 0 0 1 482.2103 120.7836)" class="st1 st2 st3">+</text>
				<text transform="matrix(1 0 0 1 506.8978 120.7836)" class="st1 st2 st3">+</text>
				<text transform="matrix(1 0 0 1 531.5853 120.7836)" class="st1 st2 st3">+</text>
				<text transform="matrix(1 0 0 1 580.9603 120.7836)" class="st1 st2 st3">+</text>
				<text transform="matrix(1 0 0 1 556.2728 120.7836)" class="st1 st2 st3">+</text>
				<text transform="matrix(1 0 0 1 531.5853 120.7836)" class="st1 st2 st3">+</text>
				<text transform="matrix(1 0 0 1 605.6478 120.7836)" class="st1 st2 st3">+</text>
				<text transform="matrix(1 0 0 1 630.3314 120.7836)" class="st1 st2 st3">+</text>
				<text transform="matrix(1 0 0 1 655.0189 120.7836)" class="st1 st2 st3">+</text>
			</g>
			<g>
				<text transform="matrix(1 0 0 1 358.7766 145.475)" class="st1 st2 st3">+</text>
				<text transform="matrix(1 0 0 1 383.4641 145.475)" class="st1 st2 st3">+</text>
				<text transform="matrix(1 0 0 1 408.1478 145.475)" class="st1 st2 st3">+</text>
				<text transform="matrix(1 0 0 1 432.8391 145.475)" class="st1 st2 st3">+</text>
				<text transform="matrix(1 0 0 1 457.5228 145.475)" class="st1 st2 st3">+</text>
				<text transform="matrix(1 0 0 1 482.2103 145.475)" class="st1 st2 st3">+</text>
				<text transform="matrix(1 0 0 1 506.8978 145.475)" class="st1 st2 st3">+</text>
				<text transform="matrix(1 0 0 1 531.5853 145.475)" class="st1 st2 st3">+</text>
				<text transform="matrix(1 0 0 1 580.9603 145.475)" class="st1 st2 st3">+</text>
				<text transform="matrix(1 0 0 1 556.2728 145.475)" class="st1 st2 st3">+</text>
				<text transform="matrix(1 0 0 1 531.5853 145.475)" class="st1 st2 st3">+</text>
				<text transform="matrix(1 0 0 1 605.6478 145.475)" class="st1 st2 st3">+</text>
				<text transform="matrix(1 0 0 1 630.3314 145.475)" class="st1 st2 st3">+</text>
				<text transform="matrix(1 0 0 1 655.0189 145.475)" class="st1 st2 st3">+</text>
			</g>
			<g>
				<text transform="matrix(1 0 0 1 358.7766 170.1587)" class="st1 st2 st3">+</text>
				<text transform="matrix(1 0 0 1 383.4641 170.1587)" class="st1 st2 st3">+</text>
				<text transform="matrix(1 0 0 1 408.1478 170.1587)" class="st1 st2 st3">+</text>
				<text transform="matrix(1 0 0 1 432.8391 170.1587)" class="st1 st2 st3">+</text>
				<text transform="matrix(1 0 0 1 457.5228 170.1587)" class="st1 st2 st3">+</text>
				<text transform="matrix(1 0 0 1 482.2103 170.1587)" class="st1 st2 st3">+</text>
				<text transform="matrix(1 0 0 1 506.8978 170.1587)" class="st1 st2 st3">+</text>
				<text transform="matrix(1 0 0 1 531.5853 170.1587)" class="st1 st2 st3">+</text>
				<text transform="matrix(1 0 0 1 580.9603 170.1587)" class="st1 st2 st3">+</text>
				<text transform="matrix(1 0 0 1 556.2728 170.1587)" class="st1 st2 st3">+</text>
				<text transform="matrix(1 0 0 1 531.5853 170.1587)" class="st1 st2 st3">+</text>
				<text transform="matrix(1 0 0 1 605.6478 170.1587)" class="st1 st2 st3">+</text>
				<text transform="matrix(1 0 0 1 630.3314 170.1587)" class="st1 st2 st3">+</text>
				<text transform="matrix(1 0 0 1 655.0189 170.1587)" class="st1 st2 st3">+</text>
			</g>
		</g>
		<g>
			<g>
				<text transform="matrix(1 0 0 1 358.7766 194.8462)" class="st1 st2 st3">+</text>
				<text transform="matrix(1 0 0 1 383.4641 194.8462)" class="st1 st2 st3">+</text>
				<text transform="matrix(1 0 0 1 408.1478 194.8462)" class="st1 st2 st3">+</text>
				<text transform="matrix(1 0 0 1 432.8391 194.8462)" class="st1 st2 st3">+</text>
				<text transform="matrix(1 0 0 1 457.5228 194.8462)" class="st1 st2 st3">+</text>
				<text transform="matrix(1 0 0 1 482.2103 194.8462)" class="st1 st2 st3">+</text>
				<text transform="matrix(1 0 0 1 506.8978 194.8462)" class="st1 st2 st3">+</text>
				<text transform="matrix(1 0 0 1 531.5853 194.8462)" class="st1 st2 st3">+</text>
				<text transform="matrix(1 0 0 1 580.9603 194.8462)" class="st1 st2 st3">+</text>
				<text transform="matrix(1 0 0 1 556.2728 194.8462)" class="st1 st2 st3">+</text>
				<text transform="matrix(1 0 0 1 531.5853 194.8462)" class="st1 st2 st3">+</text>
				<text transform="matrix(1 0 0 1 605.6478 194.8462)" class="st1 st2 st3">+</text>
				<text transform="matrix(1 0 0 1 630.3314 194.8462)" class="st1 st2 st3">+</text>
				<text transform="matrix(1 0 0 1 655.0189 194.8462)" class="st1 st2 st3">+</text>
			</g>
			<g>
				<text transform="matrix(1 0 0 1 358.7766 219.5298)" class="st1 st2 st3">+</text>
				<text transform="matrix(1 0 0 1 383.4641 219.5298)" class="st1 st2 st3">+</text>
				<text transform="matrix(1 0 0 1 408.1478 219.5298)" class="st1 st2 st3">+</text>
				<text transform="matrix(1 0 0 1 432.8391 219.5298)" class="st1 st2 st3">+</text>
				<text transform="matrix(1 0 0 1 457.5228 219.5298)" class="st1 st2 st3">+</text>
				<text transform="matrix(1 0 0 1 482.2103 219.5298)" class="st1 st2 st3">+</text>
				<text transform="matrix(1 0 0 1 506.8978 219.5298)" class="st1 st2 st3">+</text>
				<text transform="matrix(1 0 0 1 531.5853 219.5298)" class="st1 st2 st3">+</text>
				<text transform="matrix(1 0 0 1 580.9603 219.5298)" class="st1 st2 st3">+</text>
				<text transform="matrix(1 0 0 1 556.2728 219.5298)" class="st1 st2 st3">+</text>
				<text transform="matrix(1 0 0 1 531.5853 219.5298)" class="st1 st2 st3">+</text>
				<text transform="matrix(1 0 0 1 605.6478 219.5298)" class="st1 st2 st3">+</text>
				<text transform="matrix(1 0 0 1 630.3314 219.5298)" class="st1 st2 st3">+</text>
				<text transform="matrix(1 0 0 1 655.0189 219.5298)" class="st1 st2 st3">+</text>
			</g>
			<g>
				<text transform="matrix(1 0 0 1 358.7766 244.2212)" class="st1 st2 st3">+</text>
				<text transform="matrix(1 0 0 1 383.4641 244.2212)" class="st1 st2 st3">+</text>
				<text transform="matrix(1 0 0 1 408.1478 244.2212)" class="st1 st2 st3">+</text>
				<text transform="matrix(1 0 0 1 432.8391 244.2212)" class="st1 st2 st3">+</text>
				<text transform="matrix(1 0 0 1 457.5228 244.2212)" class="st1 st2 st3">+</text>
				<text transform="matrix(1 0 0 1 482.2103 244.2212)" class="st1 st2 st3">+</text>
				<text transform="matrix(1 0 0 1 506.8978 244.2212)" class="st1 st2 st3">+</text>
				<text transform="matrix(1 0 0 1 531.5853 244.2212)" class="st1 st2 st3">+</text>
				<text transform="matrix(1 0 0 1 580.9603 244.2212)" class="st1 st2 st3">+</text>
				<text transform="matrix(1 0 0 1 556.2728 244.2212)" class="st1 st2 st3">+</text>
				<text transform="matrix(1 0 0 1 531.5853 244.2212)" class="st1 st2 st3">+</text>
				<text transform="matrix(1 0 0 1 605.6478 244.2212)" class="st1 st2 st3">+</text>
				<text transform="matrix(1 0 0 1 630.3314 244.2212)" class="st1 st2 st3">+</text>
				<text transform="matrix(1 0 0 1 655.0189 244.2212)" class="st1 st2 st3">+</text>
			</g>
			<g>
				<text transform="matrix(1 0 0 1 358.7766 268.9087)" class="st1 st2 st3">+</text>
				<text transform="matrix(1 0 0 1 383.4641 268.9087)" class="st1 st2 st3">+</text>
				<text transform="matrix(1 0 0 1 408.1478 268.9087)" class="st1 st2 st3">+</text>
				<text transform="matrix(1 0 0 1 432.8391 268.9087)" class="st1 st2 st3">+</text>
				<text transform="matrix(1 0 0 1 457.5228 268.9087)" class="st1 st2 st3">+</text>
				<text transform="matrix(1 0 0 1 482.2103 268.9087)" class="st1 st2 st3">+</text>
				<text transform="matrix(1 0 0 1 506.8978 268.9087)" class="st1 st2 st3">+</text>
				<text transform="matrix(1 0 0 1 531.5853 268.9087)" class="st1 st2 st3">+</text>
				<text transform="matrix(1 0 0 1 580.9603 268.9087)" class="st1 st2 st3">+</text>
				<text transform="matrix(1 0 0 1 556.2728 268.9087)" class="st1 st2 st3">+</text>
				<text transform="matrix(1 0 0 1 531.5853 268.9087)" class="st1 st2 st3">+</text>
				<text transform="matrix(1 0 0 1 605.6478 268.9087)" class="st1 st2 st3">+</text>
				<text transform="matrix(1 0 0 1 630.3314 268.9087)" class="st1 st2 st3">+</text>
				<text transform="matrix(1 0 0 1 655.0189 268.9087)" class="st1 st2 st3">+</text>
			</g>
			<g>
				<text transform="matrix(1 0 0 1 358.7766 293.5961)" class="st1 st2 st3">+</text>
				<text transform="matrix(1 0 0 1 383.4641 293.5961)" class="st1 st2 st3">+</text>
				<text transform="matrix(1 0 0 1 408.1478 293.5961)" class="st1 st2 st3">+</text>
				<text transform="matrix(1 0 0 1 432.8391 293.5961)" class="st1 st2 st3">+</text>
				<text transform="matrix(1 0 0 1 457.5228 293.5961)" class="st1 st2 st3">+</text>
				<text transform="matrix(1 0 0 1 482.2103 293.5961)" class="st1 st2 st3">+</text>
				<text transform="matrix(1 0 0 1 506.8978 293.5961)" class="st1 st2 st3">+</text>
				<text transform="matrix(1 0 0 1 531.5853 293.5961)" class="st1 st2 st3">+</text>
				<text transform="matrix(1 0 0 1 580.9603 293.5961)" class="st1 st2 st3">+</text>
				<text transform="matrix(1 0 0 1 556.2728 293.5961)" class="st1 st2 st3">+</text>
				<text transform="matrix(1 0 0 1 531.5853 293.5961)" class="st1 st2 st3">+</text>
				<text transform="matrix(1 0 0 1 605.6478 293.5961)" class="st1 st2 st3">+</text>
				<text transform="matrix(1 0 0 1 630.3314 293.5961)" class="st1 st2 st3">+</text>
				<text transform="matrix(1 0 0 1 655.0189 293.5961)" class="st1 st2 st3">+</text>
			</g>
			<g>
				<text transform="matrix(1 0 0 1 358.7766 318.2797)" class="st1 st2 st3">+</text>
				<text transform="matrix(1 0 0 1 383.4641 318.2797)" class="st1 st2 st3">+</text>
				<text transform="matrix(1 0 0 1 408.1478 318.2797)" class="st1 st2 st3">+</text>
				<text transform="matrix(1 0 0 1 432.8391 318.2797)" class="st1 st2 st3">+</text>
				<text transform="matrix(1 0 0 1 457.5228 318.2797)" class="st1 st2 st3">+</text>
				<text transform="matrix(1 0 0 1 482.2103 318.2797)" class="st1 st2 st3">+</text>
				<text transform="matrix(1 0 0 1 506.8978 318.2797)" class="st1 st2 st3">+</text>
				<text transform="matrix(1 0 0 1 531.5853 318.2797)" class="st1 st2 st3">+</text>
				<text transform="matrix(1 0 0 1 580.9603 318.2797)" class="st1 st2 st3">+</text>
				<text transform="matrix(1 0 0 1 556.2728 318.2797)" class="st1 st2 st3">+</text>
				<text transform="matrix(1 0 0 1 531.5853 318.2797)" class="st1 st2 st3">+</text>
				<text transform="matrix(1 0 0 1 605.6478 318.2797)" class="st1 st2 st3">+</text>
				<text transform="matrix(1 0 0 1 630.3314 318.2797)" class="st1 st2 st3">+</text>
				<text transform="matrix(1 0 0 1 655.0189 318.2797)" class="st1 st2 st3">+</text>
			</g>
		</g>
	</g>
</g>
<g>
	<g class="st0">
		<g>
			<g>
				<text transform="matrix(1 0 0 1 40.7767 268.8462)" class="st1 st2 st3">+</text>
				<text transform="matrix(1 0 0 1 65.4641 268.8462)" class="st1 st2 st3">+</text>
				<text transform="matrix(1 0 0 1 90.1478 268.8462)" class="st1 st2 st3">+</text>
				<text transform="matrix(1 0 0 1 114.8391 268.8462)" class="st1 st2 st3">+</text>
				<text transform="matrix(1 0 0 1 139.5228 268.8462)" class="st1 st2 st3">+</text>
				<text transform="matrix(1 0 0 1 164.2103 268.8462)" class="st1 st2 st3">+</text>
				<text transform="matrix(1 0 0 1 188.8978 268.8462)" class="st1 st2 st3">+</text>
				<text transform="matrix(1 0 0 1 213.5853 268.8462)" class="st1 st2 st3">+</text>
				<text transform="matrix(1 0 0 1 262.9603 268.8462)" class="st1 st2 st3">+</text>
				<text transform="matrix(1 0 0 1 238.2728 268.8462)" class="st1 st2 st3">+</text>
				<text transform="matrix(1 0 0 1 213.5853 268.8462)" class="st1 st2 st3">+</text>
				<text transform="matrix(1 0 0 1 287.6478 268.8462)" class="st1 st2 st3">+</text>
				<text transform="matrix(1 0 0 1 312.3314 268.8462)" class="st1 st2 st3">+</text>
				<text transform="matrix(1 0 0 1 337.0189 268.8462)" class="st1 st2 st3">+</text>
			</g>
			<g>
				<text transform="matrix(1 0 0 1 40.7767 293.5297)" class="st1 st2 st3">+</text>
				<text transform="matrix(1 0 0 1 65.4641 293.5297)" class="st1 st2 st3">+</text>
				<text transform="matrix(1 0 0 1 90.1478 293.5297)" class="st1 st2 st3">+</text>
				<text transform="matrix(1 0 0 1 114.8391 293.5297)" class="st1 st2 st3">+</text>
				<text transform="matrix(1 0 0 1 139.5228 293.5297)" class="st1 st2 st3">+</text>
				<text transform="matrix(1 0 0 1 164.2103 293.5297)" class="st1 st2 st3">+</text>
				<text transform="matrix(1 0 0 1 188.8978 293.5297)" class="st1 st2 st3">+</text>
				<text transform="matrix(1 0 0 1 213.5853 293.5297)" class="st1 st2 st3">+</text>
				<text transform="matrix(1 0 0 1 262.9603 293.5297)" class="st1 st2 st3">+</text>
				<text transform="matrix(1 0 0 1 238.2728 293.5297)" class="st1 st2 st3">+</text>
				<text transform="matrix(1 0 0 1 213.5853 293.5297)" class="st1 st2 st3">+</text>
				<text transform="matrix(1 0 0 1 287.6478 293.5297)" class="st1 st2 st3">+</text>
				<text transform="matrix(1 0 0 1 312.3314 293.5297)" class="st1 st2 st3">+</text>
				<text transform="matrix(1 0 0 1 337.0189 293.5297)" class="st1 st2 st3">+</text>
			</g>
			<g>
				<text transform="matrix(1 0 0 1 40.7767 318.2211)" class="st1 st2 st3">+</text>
				<text transform="matrix(1 0 0 1 65.4641 318.2211)" class="st1 st2 st3">+</text>
				<text transform="matrix(1 0 0 1 90.1478 318.2211)" class="st1 st2 st3">+</text>
				<text transform="matrix(1 0 0 1 114.8391 318.2211)" class="st1 st2 st3">+</text>
				<text transform="matrix(1 0 0 1 139.5228 318.2211)" class="st1 st2 st3">+</text>
				<text transform="matrix(1 0 0 1 164.2103 318.2211)" class="st1 st2 st3">+</text>
				<text transform="matrix(1 0 0 1 188.8978 318.2211)" class="st1 st2 st3">+</text>
				<text transform="matrix(1 0 0 1 213.5853 318.2211)" class="st1 st2 st3">+</text>
				<text transform="matrix(1 0 0 1 262.9603 318.2211)" class="st1 st2 st3">+</text>
				<text transform="matrix(1 0 0 1 238.2728 318.2211)" class="st1 st2 st3">+</text>
				<text transform="matrix(1 0 0 1 213.5853 318.2211)" class="st1 st2 st3">+</text>
				<text transform="matrix(1 0 0 1 287.6478 318.2211)" class="st1 st2 st3">+</text>
				<text transform="matrix(1 0 0 1 312.3314 318.2211)" class="st1 st2 st3">+</text>
				<text transform="matrix(1 0 0 1 337.0189 318.2211)" class="st1 st2 st3">+</text>
			</g>
			<g>
				<text transform="matrix(1 0 0 1 40.7767 342.9086)" class="st1 st2 st3">+</text>
				<text transform="matrix(1 0 0 1 65.4641 342.9086)" class="st1 st2 st3">+</text>
				<text transform="matrix(1 0 0 1 90.1478 342.9086)" class="st1 st2 st3">+</text>
				<text transform="matrix(1 0 0 1 114.8391 342.9086)" class="st1 st2 st3">+</text>
				<text transform="matrix(1 0 0 1 139.5228 342.9086)" class="st1 st2 st3">+</text>
				<text transform="matrix(1 0 0 1 164.2103 342.9086)" class="st1 st2 st3">+</text>
				<text transform="matrix(1 0 0 1 188.8978 342.9086)" class="st1 st2 st3">+</text>
				<text transform="matrix(1 0 0 1 213.5853 342.9086)" class="st1 st2 st3">+</text>
				<text transform="matrix(1 0 0 1 262.9603 342.9086)" class="st1 st2 st3">+</text>
				<text transform="matrix(1 0 0 1 238.2728 342.9086)" class="st1 st2 st3">+</text>
				<text transform="matrix(1 0 0 1 213.5853 342.9086)" class="st1 st2 st3">+</text>
				<text transform="matrix(1 0 0 1 287.6478 342.9086)" class="st1 st2 st3">+</text>
				<text transform="matrix(1 0 0 1 312.3314 342.9086)" class="st1 st2 st3">+</text>
				<text transform="matrix(1 0 0 1 337.0189 342.9086)" class="st1 st2 st3">+</text>
			</g>
			<g>
				<text transform="matrix(1 0 0 1 40.7767 367.5961)" class="st1 st2 st3">+</text>
				<text transform="matrix(1 0 0 1 65.4641 367.5961)" class="st1 st2 st3">+</text>
				<text transform="matrix(1 0 0 1 90.1478 367.5961)" class="st1 st2 st3">+</text>
				<text transform="matrix(1 0 0 1 114.8391 367.5961)" class="st1 st2 st3">+</text>
				<text transform="matrix(1 0 0 1 139.5228 367.5961)" class="st1 st2 st3">+</text>
				<text transform="matrix(1 0 0 1 164.2103 367.5961)" class="st1 st2 st3">+</text>
				<text transform="matrix(1 0 0 1 188.8978 367.5961)" class="st1 st2 st3">+</text>
				<text transform="matrix(1 0 0 1 213.5853 367.5961)" class="st1 st2 st3">+</text>
				<text transform="matrix(1 0 0 1 262.9603 367.5961)" class="st1 st2 st3">+</text>
				<text transform="matrix(1 0 0 1 238.2728 367.5961)" class="st1 st2 st3">+</text>
				<text transform="matrix(1 0 0 1 213.5853 367.5961)" class="st1 st2 st3">+</text>
				<text transform="matrix(1 0 0 1 287.6478 367.5961)" class="st1 st2 st3">+</text>
				<text transform="matrix(1 0 0 1 312.3314 367.5961)" class="st1 st2 st3">+</text>
				<text transform="matrix(1 0 0 1 337.0189 367.5961)" class="st1 st2 st3">+</text>
			</g>
			<g>
				<text transform="matrix(1 0 0 1 40.7767 392.2797)" class="st1 st2 st3">+</text>
				<text transform="matrix(1 0 0 1 65.4641 392.2797)" class="st1 st2 st3">+</text>
				<text transform="matrix(1 0 0 1 90.1478 392.2797)" class="st1 st2 st3">+</text>
				<text transform="matrix(1 0 0 1 114.8391 392.2797)" class="st1 st2 st3">+</text>
				<text transform="matrix(1 0 0 1 139.5228 392.2797)" class="st1 st2 st3">+</text>
				<text transform="matrix(1 0 0 1 164.2103 392.2797)" class="st1 st2 st3">+</text>
				<text transform="matrix(1 0 0 1 188.8978 392.2797)" class="st1 st2 st3">+</text>
				<text transform="matrix(1 0 0 1 213.5853 392.2797)" class="st1 st2 st3">+</text>
				<text transform="matrix(1 0 0 1 262.9603 392.2797)" class="st1 st2 st3">+</text>
				<text transform="matrix(1 0 0 1 238.2728 392.2797)" class="st1 st2 st3">+</text>
				<text transform="matrix(1 0 0 1 213.5853 392.2797)" class="st1 st2 st3">+</text>
				<text transform="matrix(1 0 0 1 287.6478 392.2797)" class="st1 st2 st3">+</text>
				<text transform="matrix(1 0 0 1 312.3314 392.2797)" class="st1 st2 st3">+</text>
				<text transform="matrix(1 0 0 1 337.0189 392.2797)" class="st1 st2 st3">+</text>
			</g>
		</g>
	</g>
</g>
<g id="laptop">
	<path class="st4" d="M881.3,693.3H117.5c-14.4,0-26.2-11.8-26.2-26.2V143c0-14.4,11.8-26.2,26.2-26.2h763.9
		c14.4,0,26.2,11.8,26.2,26.2v524.2C907.5,681.5,895.7,693.3,881.3,693.3z"/>
	<circle class="st5" cx="498" cy="140.1" r="3"/>
	<path class="st6" d="M996.3,677.5H2.9c-1.5,0-2.8-1.3-2.8-2.8l0,0c0-1.5,1.3-2.8,2.8-2.8h993.4c1.5,0,2.8,1.3,2.8,2.8l0,0
		C999.1,676.2,997.9,677.5,996.3,677.5z"/>
	<path class="st7" d="M499.6,679.3L0,677.5c0,0,24.1,11.3,117.8,15.8H498h3.1h380.2c93.7-4.5,117.8-15.8,117.8-15.8L499.6,679.3z"/>

		<linearGradient id="SVGID_1_" gradientUnits="userSpaceOnUse" x1="403.9" y1="-615.4305" x2="595" y2="-615.4305" gradientTransform="matrix(1 0 0 1 0 1290.9766)">
		<stop  offset="5.908129e-07" style="stop-color:#F0F1F2"/>
		<stop  offset="5.235744e-02" style="stop-color:#F6F7F8"/>
		<stop  offset="0.1708" style="stop-color:#FDFDFD"/>
		<stop  offset="0.5" style="stop-color:#FFFFFF"/>
		<stop  offset="0.8292" style="stop-color:#FDFDFD"/>
		<stop  offset="0.9476" style="stop-color:#F6F7F8"/>
		<stop  offset="1" style="stop-color:#F0F1F2"/>
	</linearGradient>
	<path class="st8" d="M591.4,679h-184c-1.9,0-3.5-1.6-3.5-3.5V672H595v3.5C595,677.4,593.4,679,591.4,679z"/>
	<g>
		<g>
			<g>
				<g>
					<g>
						<defs>
							<rect id="SVGID_3_" x="121.7" y="154.3" width="752.5" height="469.7"/>
						</defs>
						<clipPath id="SVGID_4_">
							<use xlink:href="#SVGID_3_"  style="overflow:visible;"/>
						</clipPath>
						<g class="st9">

								<image style="overflow:visible;enable-background:new    ;" width="753" height="470" xlink:href="../../img/753x470/img3.jpg"  transform="matrix(1 0 0 1 121.5 154.3343)">
							</image>
						</g>
					</g>
				</g>
			</g>
		</g>
		<g>
			<rect id="SVGID_2_" x="121.7" y="154.3" class="st10" width="752.5" height="469.7"/>
		</g>
	</g>
</g>
<g>
	<circle class="st11" cx="331.9" cy="803.4" r="17.5"/>

		<rect x="432.1" y="839.4" transform="matrix(0.7071 -0.7071 0.7071 0.7071 -470.6116 560.0944)" class="st12" width="17.4" height="17.4"/>
	<circle class="st13" cx="874" cy="873.3" r="6.7"/>
	<rect x="974.6" y="832.1" class="st14" width="17.4" height="17.4"/>
</g>
<g>
	<circle class="st11" cx="856.7" cy="19.5" r="17.5"/>

		<rect x="739.1" y="55.5" transform="matrix(0.7071 -0.7071 0.7071 0.7071 173.6472 547.5808)" class="st12" width="17.4" height="17.4"/>
	<circle class="st13" cx="314.6" cy="89.4" r="6.7"/>
	<rect x="196.6" y="48.2" class="st14" width="17.4" height="17.4"/>
</g>
</svg>
