<?xml version="1.0" encoding="utf-8"?>
<!-- Generator: Adobe Illustrator 22.1.0, SVG Export Plug-In . SVG Version: 6.00 Build 0)  -->
<svg version="1.1" id="c30e0d3c-7d63-44c3-a844-05f19c6deb9e"
	 xmlns="http://www.w3.org/2000/svg" xmlns:xlink="http://www.w3.org/1999/xlink" x="0px" y="0px" viewBox="0 0 1008.2 1434.5"
	 style="enable-background:new 0 0 1008.2 1434.5;" xml:space="preserve">
<style type="text/css">
	.st0{opacity:0.5;fill:#E3E6F0;enable-background:new    ;}
	.st1{fill:#21C87A;}
	.st2{fill:#444053;}
	.st3{fill:url(#SVGID_1_);}
	.st4{fill:#000333;}
	.st5{fill:#f9fbfd;}
	.st6{fill:#796EFF;}
	.st7{fill:#EEEEEE;}
	.st8{fill:#E0E0E0;}
	.st9{opacity:0.1;enable-background:new    ;}
	.st10{fill:url(#SVGID_2_);}
	.st11{fill:url(#SVGID_3_);}
	.st12{fill:url(#SVGID_4_);}
	.st13{fill:#F7C4A7;}
	.st14{opacity:5.000000e-02;enable-background:new    ;}
	.st15{fill:#575988;}
	.st16{fill:#F3B5B7;}
	.st17{fill:url(#SVGID_5_);}
	.st18{fill:#FFFFFF;}
	.st19{opacity:0.2;fill:#21C87A;enable-background:new    ;}
	.st20{fill:#E3E6F0;}
	.st21{fill:#DDDBE2;}
	.st22{fill:#B96B6B;}
	.st23{fill:url(#SVGID_6_);}
	.st24{fill:url(#SVGID_7_);}
	.st25{fill:url(#SVGID_8_);}
	.st26{fill:#FDA57D;}
	.st27{fill:#EDEEF9;}
	.st28{fill:#8F95A0;}
	.st29{fill:#333333;}
	.st30{fill:#72351C;}
	.st31{fill:url(#SVGID_9_);}
	.st32{fill:#FDC2CC;}
	.st33{fill:#47465A;}
	.st34{opacity:0.3;fill:#FFFFFF;enable-background:new    ;}
	.st35{fill:#565171;}
	.st36{fill:#F68080;}
	.st37{fill:url(#SVGID_10_);}
	.st38{opacity:5.000000e-02;}
	.st39{opacity:0.1;fill:#21C87A;enable-background:new    ;}
	.st40{fill:none;stroke:#000333;stroke-linecap:round;stroke-miterlimit:10;}
	.st41{fill:none;stroke:#000333;stroke-width:2;stroke-linecap:round;stroke-miterlimit:10;}
</style>
<ellipse class="st0" cx="504.2" cy="1366.5" rx="503" ry="68"/>
<g>
	<g>
		<path class="st1" d="M205,1061.6c0,0,21-3.4,33.6,11.5c0,0-9.2,7.3-29.1-2.8L205,1061.6z"/>
		<path class="st1" d="M202.8,1061.2c0,0-13.4,16.6-6.8,34.8c0,0,10.9-4.4,12.1-26.6L202.8,1061.2z"/>
		<path class="st1" d="M190.8,1034.1c0,0,8.4-15.4,42,6.2c0,0-4.5,10.4-19.3,9.5S194.6,1042.3,190.8,1034.1z"/>
		<path class="st1" d="M188.6,1033c0,0-17.4-2-19.1,37.9c0,0,11,2.3,18.9-10.3S192.9,1040.9,188.6,1033z"/>
		<path class="st1" d="M178.4,1001.2c0,0,9.8-27.2,45.4-7.8c0,0-8.1,24.9-41.7,17.1L178.4,1001.2z"/>
		<path class="st1" d="M167.5,960.6c0,0,18.5-27.4,51.3-2c0,0-11.5,25.8-48.5,11.8L167.5,960.6z"/>
		<path class="st1" d="M163.6,922c0,0,21.6-25.2,54,0c0,0-20.5,22.1-54,6.4V922z"/>
		<path class="st1" d="M160.2,884.4c0,0,21.8-26.3,52.9-1.4c0,0-24.6,23.2-52.9,7.6L160.2,884.4L160.2,884.4z"/>
		<path class="st1" d="M162.2,851.1c0,0,23-33.9,52.1-10.9c0,0-24.6,29.1-52.1,17.4L162.2,851.1L162.2,851.1z"/>
		<path class="st1" d="M167.5,812.2c0,0,24.4-33.6,52.6-7.8c0,0-28.9,29.1-52.6,14V812.2z"/>
		<path class="st1" d="M175.6,777.4c0,0,28.8-31.6,54-19c0,0-30.1,33.5-55.3,27.4L175.6,777.4z"/>
		<path class="st1" d="M185.7,744.4c0,0,33.3-38.6,52.6-25.8c0,0-24.5,30-55,33L185.7,744.4z"/>
		<path class="st1" d="M200.2,706.2c0,0,29.1-31.6,50.4-23.7c0,0-24.9,32.8-54.3,33.6L200.2,706.2z"/>
		<path class="st1" d="M213.4,670.4c0,0,32.2-30.2,46.2-24.9c0,0-23.2,33.6-47.6,31.6L213.4,670.4z"/>
		<path class="st1" d="M226.3,637.3c0,0,27.7-36.1,42.8-33.3c0,0-16.8,32.2-42.8,37V637.3z"/>
		<path class="st1" d="M240.3,592.8c0,0,24.5-27.7,37.7-27.6c0,0-19.3,37-38.7,36.7L240.3,592.8z"/>
		<path class="st1" d="M248.5,563.1l23.7-57.7c0,0,1.2,52.1-26.7,68.4L248.5,563.1z"/>
		<path class="st1" d="M258.1,499.5c0,0,3.9-48.2,1.4-52.1c0,0,16.9,40-1.6,73.4L258.1,499.5z"/>
		<path class="st1" d="M177.5,1000.5c0,0-24.5-15.2-40.4,22c0,0,21.8,14.5,43.3-12.5L177.5,1000.5z"/>
		<path class="st1" d="M166.7,959c0,0-30.1-13.7-44.7,25.1c0,0,23.3,16,47.5-15.3L166.7,959z"/>
		<path class="st1" d="M162.2,924.3c0,0-21.6-25.2-54,0c0,0,20.4,22.1,54,6.4V924.3z"/>
		<path class="st1" d="M159.5,884.4c0,0-21.9-26.3-52.9-1.4c0,0,24.6,23.2,52.9,7.6V884.4z"/>
		<path class="st1" d="M162.2,852.1c0,0-15.3-38-48.6-21.6c0,0,18,33.7,47.3,27.9L162.2,852.1z"/>
		<path class="st1" d="M169.4,812c0,0-15.2-38.6-49-20.7c0,0,20.7,35.4,47.5,26.7L169.4,812z"/>
		<path class="st1" d="M178.8,777.6c0,0-6-42.3-34-46.1c0,0,5.9,44.6,30.2,53.8L178.8,777.6z"/>
		<path class="st1" d="M186.4,744.5c0,0-2.4-51-25.5-52.8c0,0,0.8,38.7,22.9,60L186.4,744.5z"/>
		<path class="st1" d="M202.6,704.7c0,0-6.9-42.4-29-47.6c0,0,2.7,41.1,26.8,58L202.6,704.7z"/>
		<path class="st1" d="M216,670.7c0,0-0.2-44.2-13.7-50.7c0,0-8.4,40,9.8,56.3L216,670.7z"/>
		<path class="st1" d="M227.3,636.8c0,0-1.9-45.5-15.9-51.9c0,0-4.8,36,13.8,54.9L227.3,636.8z"/>
		<path class="st1" d="M242.2,596.4c0,0-0.1-37-10.1-45.7c0,0-9.9,40.5,4.9,53.1L242.2,596.4z"/>
		<path class="st1" d="M247.4,561.3l-9.7-61.6c0,0-13.2,50.5,10.2,72.7L247.4,561.3z"/>
		<path class="st1" d="M249.3,500.1c0,0-24.9-41.4-24.4-46c0,0,2.6,43.4,34,65L249.3,500.1z"/>
		<path class="st1" d="M252.2,487.9c0,0-23.5-58.8-34.2-63.6c0,0,33.6,17.1,36.1,61.9L252.2,487.9z"/>
		<path class="st2" d="M239.1,602.2l-1.6-0.5c19.9-64.7,24.8-106,14-116.3l1.2-1.2C264.1,495,259.5,535.8,239.1,602.2z"/>
		<path class="st2" d="M184.5,753.7l-2.4-0.8c2.1-5.9,4.4-12,6.8-17.9c20.7-51.6,38.4-99.7,49.7-136.5l2.1-1
			c-11.3,36.9-28.6,86.8-49.4,138.5C188.8,741.8,186.6,747.8,184.5,753.7z"/>
		<path class="st2" d="M234.6,1110c-0.3-0.4-32.5-36.6-54.9-98.4c-13.1-36.2-20.5-74.3-21.7-112.8c-1.5-48.1,8.6-101.9,25.9-150.7
			l1.9,2.2c-38.8,109.6-23.4,203.5-2.9,260c22.2,61.3,54,97.1,54.3,97.5L234.6,1110z"/>
	</g>
	<g>
		
			<linearGradient id="SVGID_1_" gradientUnits="userSpaceOnUse" x1="652.55" y1="251.7" x2="652.55" y2="629.7" gradientTransform="matrix(1 0 0 -1 0 1434)">
			<stop  offset="0" style="stop-color:#808080;stop-opacity:0.25"/>
			<stop  offset="0.54" style="stop-color:#808080;stop-opacity:0.12"/>
			<stop  offset="1" style="stop-color:#808080;stop-opacity:0.1"/>
		</linearGradient>
		<path class="st3" d="M997.1,1138.8h-66.4c1.5-3.1,2.3-6.5,2.3-9.9V826.5c0-12.3-10-22.2-22.2-22.2H396.7
			c-12.3,0-22.2,10-22.2,22.2v302.4c0,3.4,0.8,6.8,2.3,9.9H308c-3.2,0-5.9,2.6-5.9,5.9l0,0v4.7c0,18.2,14.7,32.9,32.9,32.9l0,0
			h635.1c18.2,0,32.9-14.7,32.9-32.9l0,0v-4.7C1003,1141.4,1000.4,1138.8,997.1,1138.8L997.1,1138.8z M587.9,1157.6l-5.7-6.5h141.4
			l-6.3,6.5H587.9z"/>
		<path class="st4" d="M398.9,808.5h509.6c10,0,18.2,8.1,18.2,18.2v302.7c0,10-8.1,18.2-18.2,18.2H398.9c-10,0-18.2-8.1-18.2-18.2
			V826.7C380.8,816.6,388.9,808.5,398.9,808.5z"/>
		<rect x="392.3" y="857.9" class="st5" width="521.8" height="277"/>
		
			<image style="overflow:visible;" width="522" height="277" xlink:href="../../img/522x277/img1.jpg"  transform="matrix(1 0 0 1 392.7 857.8)">
		</image>
	</g>
	<g>
		<rect x="244.7" y="576.3" class="st6" width="75.4" height="11.4"/>
		<polygon class="st7" points="244.7,587.4 236.1,973.6 241.5,973.6 253.3,587.7 		"/>
		<polygon class="st7" points="320,587.4 328.5,973.6 323.2,973.6 311.4,587.7 		"/>
		<polygon class="st8" points="260.7,587.7 251.6,973.6 258,973.6 266.4,587.4 		"/>
		<polygon class="st8" points="305.6,587.7 314.7,973.6 308.3,973.6 299.9,587.4 		"/>
		<rect x="259" y="926.7" class="st8" width="48.5" height="5.9"/>
		<rect x="257.4" y="894.2" class="st8" width="52.2" height="5.9"/>
		<rect x="259" y="862.3" class="st8" width="50.6" height="5.9"/>
		<rect x="259" y="829.8" class="st8" width="48.5" height="5.9"/>
		<rect x="259" y="796.2" class="st8" width="48.5" height="5.3"/>
		<rect x="260.6" y="764.3" class="st8" width="46.9" height="6.4"/>
		<rect x="260.6" y="732.3" class="st8" width="45.3" height="4.3"/>
		<rect x="262.2" y="698.2" class="st8" width="40" height="6.9"/>
		<rect x="262.2" y="666.3" class="st8" width="41.5" height="5.9"/>
		<rect x="262.2" y="633.3" class="st8" width="41.5" height="6.4"/>
		<rect x="264.4" y="600.8" class="st8" width="37.8" height="6.4"/>
		<rect x="227.1" y="554.4" class="st6" width="110.8" height="23.4"/>
		<rect x="244.9" y="577.6" class="st9" width="75.1" height="2.1"/>
		<rect x="257.2" y="727.8" class="st9" width="5.9" height="1.1"/>
		<rect x="303" y="727.8" class="st9" width="5.9" height="1.1"/>
		<rect x="244.7" y="719" class="st7" width="75.1" height="9"/>
	</g>
	<g>
		
			<linearGradient id="SVGID_2_" gradientUnits="userSpaceOnUse" x1="166.9" y1="76.2" x2="166.9" y2="518.5" gradientTransform="matrix(1 0 0 -1 0 1434)">
			<stop  offset="0" style="stop-color:#808080;stop-opacity:0.25"/>
			<stop  offset="0.54" style="stop-color:#808080;stop-opacity:0.12"/>
			<stop  offset="1" style="stop-color:#808080;stop-opacity:0.1"/>
		</linearGradient>
		<path class="st10" d="M307.9,915.5h-282C11.6,915.5,0,927,0,941.3l0,0V1332c0,14.3,11.6,25.8,25.9,25.8l0,0h282
			c14.3,0,25.8-11.5,25.9-25.8l0,0V941.3C333.7,927.1,322.2,915.5,307.9,915.5L307.9,915.5z"/>
		<path class="st4" d="M24,920.8h285.8c11,0,20,9,20,20v393.1c0,11-9,20-20,20H24c-11,0-20-9-20-20V940.8
			C4,929.8,12.9,920.8,24,920.8z"/>
		
			<image style="overflow:visible;" width="293" height="351" xlink:href="../../img/293x351/img1.jpg"  transform="matrix(1 0 0 1 20.35 961.1851)">
		</image>
	</g>
	<g>
		
			<linearGradient id="SVGID_3_" gradientUnits="userSpaceOnUse" x1="415.0006" y1="1088.3" x2="415.0006" y2="1434" gradientTransform="matrix(1 0 0 -1 0 1434)">
			<stop  offset="0" style="stop-color:#808080;stop-opacity:0.25"/>
			<stop  offset="0.54" style="stop-color:#808080;stop-opacity:0.12"/>
			<stop  offset="1" style="stop-color:#808080;stop-opacity:0.1"/>
		</linearGradient>
		<path class="st11" d="M487.5,0H342.7c-7.9,0-14.3,6.4-14.4,14.3l0,0v317.1c0,7.9,6.4,14.3,14.3,14.3l0,0h144.8
			c7.9,0,14.3-6.4,14.3-14.3l0,0V14.3C501.8,6.4,495.4,0,487.5,0L487.5,0z"/>
		<path class="st4" d="M340.7,2.7h148.9c6.1,0,11,4.9,11,11v319.7c0,6.1-4.9,11-11,11H340.7c-6.1,0-11-4.9-11-11V13.7
			C329.7,7.6,334.6,2.7,340.7,2.7z"/>
		
			<image style="overflow:visible;" width="146" height="278" xlink:href="../../img/146x278/img1.jpg"  transform="matrix(1 0 0 1 342.15 33.85)">
		</image>
	</g>
	<g>
		
			<linearGradient id="SVGID_4_" gradientUnits="userSpaceOnUse" x1="328.077" y1="916.256" x2="328.077" y2="723.2656" gradientTransform="matrix(1 0 0 1 -56.59 487.77)">
			<stop  offset="0" style="stop-color:#808080;stop-opacity:0.25"/>
			<stop  offset="0.54" style="stop-color:#808080;stop-opacity:0.12"/>
			<stop  offset="1" style="stop-color:#808080;stop-opacity:0.1"/>
		</linearGradient>
		<path class="st12" d="M409.5,1303.1c-6.7-8.2-14.9-17.5-13.7-28.4c0.9-8.8-1.3-16.9-0.8-25.7c0.6-12.5-1.9-22.3-10.9-30.4
			c-5.3-4.7-14.1-8.4-16.7-7.4c-5.2,1.9-10.9,1.2-16.2,2.4c-4.1,1-6.8,2.4-8.4,4.2c-3.4,3-3.4,7.3-1.9,11.8
			c-5.3,9.7-1.7,21.8,7.9,27.1c0.6,0.3,1.3,0.7,2,0.9c-3.8,1.6-7,5.2-8.3,12.5c-0.9,5-2.2,10-4,14.8c-0.8,0.4-1.6,0.7-2.4,1
			c0.2,0.1,0.4,0.1,0.6,0.2c-0.4,0.2-0.8,0.3-1.2,0.4c0.7,0.3,1.5,0.5,2.2,0.6c-2.7,7.1-6.4,13.8-10.9,19.9c0,0-11.3,2.5-15.7-1.9
			c0,0,0.7,0.8,1.7,2.1c-4.3-1.8-11.4-4.7-17.4-7.1c-4.4-1.7-5.5,0-5.5,2.4c-1.1,0.1-2.1,0.5-3.1,1c-1.3-0.8-2.7-1.6-4.1-2.2
			c-2.5-0.6-10.7-5-18.9,10c-4.8,8.7-17,24.7-26.4,36.4c-18.3,8.4-42,19-50.8,21.7H181c-0.7-1.2-1.3-2-1.3-2l-0.4,0.3l-0.2-0.3
			c0,0-11.1,7.7-22.4,7.8c-1.6,0-3.2-0.2-4.8-0.6c-5.2-1.3-8.8-1.9-11.5-1.8c-3.1,0-4.8,0.7-5.9,2.1l0,0c-0.1,0.2-0.3,0.4-0.4,0.6
			l0,0c-0.1,0.2-0.2,0.4-0.3,0.6l0,0c-0.1,0.2-0.2,0.5-0.3,0.7c-0.1,0.4,0.1,0.9,0.4,1.2c0.2,0.2,0.3,0.4,0.5,0.6l0.3,0.3
			c2.2,2.1,4.7,4,7.2,5.6c0.9,0.6,1.9,1.3,2.9,1.9l2,1.2l1.7,1.1l0.7,0.4l0.8,0.5l1.4,0.8l0.8,0.5l1.6,0.9l1.3,0.8
			c3.3,2,6.6,3.8,9.6,5.5l2.1,1.2l0.2,0.1l1.3,0.7l2.3,1.3l1.6,0.9l0.7,0.4l0.8,0.4l0.2,0.1l1.4,0.8c0.6,0.1,1.2-0.1,1.6-0.4
			c0.4-1.7,1.4-5.3,2.4-5.6c1-0.3,5.6-8.2,6.9-13.5h12.3c2.4-0.2,4.8-0.6,7.2-1.1c-3.2,2.3-6.3,3.7-8.8,3.1c-5.2-1.3-10,1.9-10.5,5
			l-0.1,0.2c0,0.1,0,0.1,0,0.2s0,0.2,0,0.2s0,0.1,0,0.2s0,0.2,0,0.2s0,0.1,0,0.2s0,0.2,0,0.2c0,0.1,0,0.1,0,0.2s0,0.2,0.1,0.3
			c0.1,0.1,0,0.1,0,0.2s0.1,0.2,0.1,0.3v0.1c0.1,0.1,0.1,0.3,0.2,0.4l0.1,0.1l0.2,0.3l0.1,0.1l0.2,0.2l0.2,0.1l0.3,0.2l0.2,0.1
			l0.3,0.2l0.2,0.1l0.4,0.2l0.2,0.1c0.2,0.1,0.5,0.2,0.7,0.3c0.3,0.1,0.9,0.3,1.4,0.4l0.5,0.1l0.8,0.2l0.4,0.1l1.7,0.3l0.8,0.2
			l0.7,0.1l1.5,0.3l3,0.5l2.6,0.4l3.5,0.5l0.8,0.1l1.2,0.2l1.8,0.2l1.2,0.2l0,0l3.1,0.4l1,0.1l2,0.2c2.6,0.3,5.1,0.6,7.5,0.9
			l2.7,0.3l1.4,0.2l0.6,0.1l1.6,0.2l0.9,0.1l1.1,0.1l1.6,0.2h0.2l1,0.1l0,0c0.5,0,0.9-0.3,1-0.8c0,0,0,0,0-0.1l0,0l0,0v-0.1
			c0.1-0.1,0.1-0.3,0.1-0.5c0-1.5,0.2-3,0.6-4.4c0.1-0.3,0.1-0.5,0.2-0.8l0.1-0.3c0.1-0.3,0.2-0.6,0.4-0.9c0.1-0.2,0.2-0.5,0.2-0.7
			l0.1-0.2c0-0.1,0.1-0.3,0.1-0.4c1.3-4.3-0.3-12.4-0.7-15.5c-0.1-1-0.4-2-0.7-3c0.1,0,0.2,0,0.2,0c0.7-0.2,1.3-0.6,1.8-1
			c9.3-3.3,17.1-7.1,19.6-10.9c4-1.1,8.3-0.6,12,1.3c4.8,2.4,41.1,14.2,58.1,19.7c3,2.6,5.4,4.2,6.7,4c0,0,21.5,3.5,30.2-3.3
			c0.8,0.5,1.3,0.8,1.3,0.8s12.6-6.3,14.5-14.4c0.6-2.6,1.2-6.5,1.7-10.8c2.9-2.9,4.6-6.9,4.6-11.1c0.4-13.7,5.7-29.2,9.6-43.1
			c4.8,0.4,6.6-0.5,11-2.7l-0.2-0.3L409.5,1303.1z M337.4,1323.5l-2.4-0.8c0.8-1.1,1.5-2.3,2.1-3.5L337.4,1323.5z M323.8,1329.2
			l14.6,8.8l0.1,1.8c-0.2,1.4-0.1,2.7,0.1,4.1C332.2,1338.1,324.7,1331.2,323.8,1329.2L323.8,1329.2z M317.9,1316.5
			c-1.6-0.7-2.9-1.3-3.8-1.7l3.4,0.2C317.6,1315.5,317.8,1316,317.9,1316.5L317.9,1316.5z M278.9,1330.7c0,0,2.5-5.6,8.2,3.8
			c0.9,1.5,2.5,3.8,4.6,6.7l-16.5-2.2C276.9,1336.5,278.2,1333.7,278.9,1330.7L278.9,1330.7z"/>
		<path class="st13" d="M315.1,1308.2c0,0-11.5-4.9-20.6-8.5s-3.6,8.5-3.6,8.5s15.2,4.3,15.2,4.9s12.8,1.2,12.8,1.2L315.1,1308.2z"
			/>
		<path class="st14" d="M315.1,1308.2c0,0-11.5-4.9-20.6-8.5s-3.6,8.5-3.6,8.5s15.2,4.3,15.2,4.9s12.8,1.2,12.8,1.2L315.1,1308.2z"
			/>
		<path class="st15" d="M364.2,1260.2c0,0-20.6-10.9-24.3,10.3c-2.3,12.9-7.5,25.2-15.2,35.8c0,0-10.9,2.4-15.2-1.8
			c0,0,10.3,12.1,5.5,13.4c0,0,10.9,7.9,15.8,5.5s8.5-18.8,10.3-23.1S349.7,1259,364.2,1260.2z"/>
		<path class="st9" d="M364.2,1260.2c0,0-20.6-10.9-24.3,10.3c-2.3,12.9-7.5,25.2-15.2,35.8c0,0-10.9,2.4-15.2-1.8
			c0,0,10.3,12.1,5.5,13.4c0,0,10.9,7.9,15.8,5.5s8.5-18.8,10.3-23.1S349.7,1259,364.2,1260.2z"/>
		<path class="st13" d="M352.7,1252.9c0,0,12.8,14.6,13.4,26.7s14.6-12.8,15.8-13.4s-12.1-21.2-13.4-27.9
			C367.3,1231.7,352.7,1252.9,352.7,1252.9z"/>
		<polygon class="st13" points="361.5,1259.1 353.5,1266.4 357.3,1281.7 367.6,1272 366.4,1262.3 		"/>
		<polygon class="st13" points="193.6,1367.1 179.7,1367.1 185.1,1380.4 198.5,1376.8 		"/>
		<path class="st9" d="M182.9,1365.1c0,0-14.4,10.1-26.8,6.9s-15.7-2-17.1,2.1c-1.3,3.7,34.5,23.4,40.2,26.5
			c0.3,0.2,0.7,0.1,0.9-0.2c0-0.1,0.1-0.2,0.1-0.2c0.4-1.7,1.3-5.2,2.3-5.5c1.3-0.3,7.3-11.5,7-15.9
			C189.2,1374.4,182.9,1365.1,182.9,1365.1z"/>
		<path class="st16" d="M182.3,1365.1c0,0-14.4,10.1-26.8,6.9s-15.7-2-17.1,2.1c-1.3,3.7,34.5,23.4,40.2,26.5
			c0.3,0.2,0.7,0.1,0.9-0.2c0-0.1,0.1-0.2,0.1-0.2c0.4-1.7,1.3-5.2,2.3-5.5c1.3-0.3,7.3-11.5,7-15.9
			C188.6,1374.4,182.3,1365.1,182.3,1365.1z"/>
		<path class="st15" d="M301.7,1340.9l-40.7-5.5c0,0-66.2,31.6-74.1,32.2l1.8,14h12.1c4.9,0,52.2-10.3,58.9-20.6
			c3.9-1,8-0.6,11.5,1.2c6.1,3,64.4,21.9,64.4,21.9L301.7,1340.9z"/>
		<path class="st9" d="M301.7,1340.9l-40.7-5.5c0,0-66.2,31.6-74.1,32.2l1.8,14h12.1c4.9,0,52.2-10.3,58.9-20.6
			c3.9-1,8-0.6,11.5,1.2c6.1,3,64.4,21.9,64.4,21.9L301.7,1340.9z"/>
		<polygon class="st13" points="229.5,1359.8 222.8,1368.3 229.5,1371.9 239.2,1364.6 		"/>
		<path class="st15" d="M345.4,1350c0,0-21.8-18.7-23.4-22.1s-37.3-26.5-39.8-27.1s-10.3-4.9-18.2,9.7c-7.9,14.6-37,49.8-37,49.8
			s9.1,12.8,12.1,12.1s37-29.1,39.5-43.1c0,0,2.4-5.5,7.9,3.6s40.7,52.8,47.4,52.2c0,0,26.1,4.3,31.6-6.1
			C371,1368.9,345.4,1350,345.4,1350z"/>
	</g>
	<g>
		
			<linearGradient id="SVGID_5_" gradientUnits="userSpaceOnUse" x1="248.4" y1="743.36" x2="339.3" y2="743.36" gradientTransform="matrix(1 0 0 1 0 542.89)">
			<stop  offset="0" style="stop-color:#808080;stop-opacity:0.25"/>
			<stop  offset="0.54" style="stop-color:#808080;stop-opacity:0.12"/>
			<stop  offset="1" style="stop-color:#808080;stop-opacity:0.1"/>
		</linearGradient>
		<rect x="248.4" y="1252" class="st17" width="90.9" height="68.5"/>
		<rect x="252.1" y="1254.8" class="st18" width="83.5" height="62.9"/>
		<rect x="260.3" y="1260.3" class="st19" width="27.8" height="15.7"/>
		<rect x="294.7" y="1260.3" class="st20" width="32.7" height="3.6"/>
		<rect x="294.7" y="1266.3" class="st20" width="23" height="3.6"/>
		<rect x="294.7" y="1272.4" class="st20" width="32.7" height="3.6"/>
		<rect x="260.3" y="1278.4" class="st20" width="67.1" height="3.6"/>
		<rect x="260.3" y="1284.5" class="st20" width="67.1" height="3.6"/>
		<rect x="260.3" y="1290.5" class="st20" width="67.1" height="3.6"/>
		<rect x="260.3" y="1296.6" class="st20" width="61.7" height="3.6"/>
		<rect x="260.3" y="1302.6" class="st20" width="67.1" height="3.6"/>
		<rect x="260.3" y="1308.7" class="st20" width="67.1" height="3.6"/>
	</g>
	<g>
		<path class="st16" d="M357.9,1261.1c0,0-7.6,3.3-8.2,17.3s-14,37.6-14,37.6l1.2,27.9c0,0,14.6,14.6,15.8,23.7s11.5,15.2,11.5,15.2
			s12.1-6.1,14-14s3-27.3,6.1-34.6c3.1-7.3,1.2-52.8,1.2-52.8l-9.1-15.8l-4.9-5.5l-12.8,14.6
			C358.8,1274.7,351.8,1265.3,357.9,1261.1z"/>
		<path class="st9" d="M340,1334.9c0,0-1.8-21.9,3.6-26.7l10.9-31c0,0,4-14.9,3.3-16.1c-0.6-1.2-14.3,11.8-14.3,11.8l-9.1,32.2
			l2.4,34L340,1334.9z"/>
		<path class="st15" d="M339.4,1334.9c0,0-1.8-21.9,3.6-26.7l10.9-31c0,0,4.3-15.2,3.6-16.4c-0.6-1.2-14.6,12.1-14.6,12.1l-9.1,32.2
			l2.4,34L339.4,1334.9z"/>
		<path class="st13" d="M343.6,1325.2c0,0-30.4-9.7-32.2-12.1c-1.8-2.4-21.3-18.2-27.9-7.3s24.9,14,24.9,14l32.2,19.4L343.6,1325.2z
			"/>
		<path class="st9" d="M230.8,1368.2l-9-1.6c0,0-14.7,18.8-22.4,16.9s-14.7,6.3-6.6,9c7.3,2.4,38.9,5.7,45,6.4
			c0.5,0.1,0.9-0.3,1-0.8v-0.1c0-2.3,0.5-4.7,1.3-6.8c1.6-4,0-12.5-0.5-15.8c-0.3-1.9-0.9-3.8-1.8-5.4L230.8,1368.2z"/>
		<path class="st16" d="M230.6,1368.8l-9-1.6c0,0-14.7,18.9-22.4,16.9c-7.7-1.9-14.7,6.3-6.6,9c7.3,2.4,38.9,5.7,45,6.4
			c0.5,0.1,0.9-0.3,1-0.8v-0.1c0-2.3,0.5-4.7,1.3-6.8c1.6-4,0-12.5-0.5-15.8c-0.3-1.9-0.9-3.8-1.8-5.5L230.6,1368.8z"/>
		<circle class="st9" cx="357.3" cy="1240.5" r="19.4"/>
		<circle class="st13" cx="355.4" cy="1240.5" r="19.4"/>
		<path class="st15" d="M374.6,1259.6c0,0,23.1,7.9,23.1,24.3s-12.8,42.5-13.4,63.8s-34,18.2-34,18.2s-4.9-71.6,0-77.1
			S377,1262,374.6,1259.6z"/>
		<path class="st9" d="M370.3,1293.6c0,0-8.5,37.6-28.5,31c0,0-10.3,15.2-3,21.9c0,0,17.6,4.3,29.1-7.3c11.5-11.5,20-15.8,21.8-29.8
			s3-33.4-3-31.6C380.7,1279.6,370.3,1293.6,370.3,1293.6z"/>
		<path class="st15" d="M370.9,1293c0,0-8.5,37.6-28.5,31c0,0-10.3,15.2-3,21.9c0,0,17.6,4.3,29.1-7.3c11.5-11.5,20-15.8,21.9-29.8
			s3-33.4-3-31.6S370.9,1293,370.9,1293z"/>
		<path class="st21" d="M240.4,1389.8c0,0.1,0,0.1-0.1,0.2c-0.4,1-0.8,2.1-1,3.2c0.1-0.5,0.3-1,0.5-1.4
			C240.1,1391.1,240.3,1390.5,240.4,1389.8z"/>
		<path class="st21" d="M193.1,1391.3c-2.5-0.8-3.5-2.2-3.6-3.6c-1,2-0.4,4.2,3.1,5.4c7.3,2.4,38.9,5.7,45,6.4
			c0.5,0.1,0.9-0.3,1-0.8v-0.1l0,0c0-0.5-0.3-0.8-0.8-0.9C231.2,1397,200.3,1393.7,193.1,1391.3z"/>
		<path class="st21" d="M139.2,1373.1c0.2-0.4,0.4-0.9,0.6-1.3c-0.7,0.7-1.1,1.5-1.4,2.4c-1.3,3.7,34.5,23.4,40.2,26.5
			c0.3,0.2,0.7,0.1,0.9-0.2c0-0.1,0.1-0.1,0.1-0.2l0,0c0.1-0.3-0.1-0.6-0.3-0.7C172.9,1396,137.9,1376.8,139.2,1373.1z"/>
		<path class="st21" d="M182.7,1393.7c-0.3,0.1-0.6,0.5-0.9,1.1h0.1c0.3-0.1,0.7-0.6,1.3-1.4C183,1393.5,182.9,1393.6,182.7,1393.7z
			"/>
		<path class="st9" d="M352.7,1257.6c-1.7,3.8-2.1,8-3.3,12c-2.5,7.8-8.5,14.1-16.3,16.9c6.3,2.5,13.8-0.6,18.6-5.7
			s7.7-11.9,10.5-18.5c7.1,4.8,6.2,15.7,8.6,24.2c2.1,7.5,7.3,13.7,14.3,17.1c7,3.1,15,3,21.9-0.4c-6.5-7.9-15.7-18.8-14.6-29.3
			c0.9-8.5-5.2-15.1-4.8-23.6c0.6-12.2-4-18.3-12.8-26.1c-5.1-4.6,2.9-11-3.6-9.1c-2.6,0.7-5.3-2-7.8-1.1c-5,1.8-10.5,1.1-15.7,2.3
			C320.9,1222.5,355.2,1252.1,352.7,1257.6z"/>
		<path class="st22" d="M353.4,1257c-1.7,3.8-2.1,8-3.3,12c-2.5,7.8-8.5,14.1-16.3,16.9c6.3,2.5,13.8-0.6,18.6-5.7
			s7.7-11.9,10.5-18.5c7.1,4.8,6.2,15.7,8.6,24.2c2.1,7.5,7.3,13.7,14.3,17.1c7,3.1,15,3,21.9-0.4c-6.5-7.9-15.1-17-14-27.5
			c0.9-8.5-0.4-17.3,0-25.9c0.6-12.2-5.3-23.9-14.1-31.7c-5.1-4.6-13-5.1-15.6-4.2c-5,1.8-10.5,1.1-15.7,2.3
			C321.5,1221.9,355.9,1251.4,353.4,1257z"/>
	</g>
	<g>
		
			<linearGradient id="SVGID_6_" gradientUnits="userSpaceOnUse" x1="464.1" y1="-413.89" x2="464.1" y2="-492.79" gradientTransform="matrix(1 0 0 1 0 542.89)">
			<stop  offset="0" style="stop-color:#808080;stop-opacity:0.25"/>
			<stop  offset="0.54" style="stop-color:#808080;stop-opacity:0.12"/>
			<stop  offset="1" style="stop-color:#808080;stop-opacity:0.1"/>
		</linearGradient>
		<rect x="411.7" y="50.1" class="st23" width="104.8" height="78.9"/>
		<rect x="414.4" y="52.1" class="st18" width="99.3" height="74.9"/>
		<rect x="424.1" y="58.6" class="st19" width="33.1" height="18.7"/>
		<rect x="465.2" y="58.6" class="st20" width="38.9" height="4.3"/>
		<rect x="465.2" y="65.8" class="st20" width="27.4" height="4.3"/>
		<rect x="465.2" y="73" class="st20" width="38.9" height="4.3"/>
		<rect x="424.1" y="80.2" class="st20" width="79.9" height="4.3"/>
		<rect x="424.1" y="87.4" class="st20" width="79.9" height="4.3"/>
		<rect x="424.1" y="94.6" class="st20" width="79.9" height="4.3"/>
		<rect x="424.1" y="101.8" class="st20" width="73.4" height="4.3"/>
		<rect x="424.1" y="109" class="st20" width="79.9" height="4.3"/>
		<rect x="424.1" y="116.2" class="st20" width="79.9" height="4.3"/>
	</g>
	<g>
		
			<linearGradient id="SVGID_7_" gradientUnits="userSpaceOnUse" x1="2398.7507" y1="-298.7401" x2="2398.7507" y2="-371.188" gradientTransform="matrix(-1 0 0 1 2800.385 444.2401)">
			<stop  offset="0" style="stop-color:#808080;stop-opacity:0.25"/>
			<stop  offset="0.54" style="stop-color:#808080;stop-opacity:0.12"/>
			<stop  offset="1" style="stop-color:#808080;stop-opacity:0.1"/>
		</linearGradient>
		<path class="st24" d="M401.7,139.7v5.8L377.4,130l2.6-3.2l1.2,0.7L400,99.9V83.8l7.2,0.6v-2.6c19-21.8,20.9,2.6,17,9.6
			s-11.1,12.2-11.1,12.2c-4,3.4-11,28.8-12.7,35.1L401.7,139.7z"/>
		
			<linearGradient id="SVGID_8_" gradientUnits="userSpaceOnUse" x1="2491.4529" y1="127.7599" x2="2491.4529" y2="-414.7105" gradientTransform="matrix(-1 0 0 1 2800.385 444.2401)">
			<stop  offset="0" style="stop-color:#808080;stop-opacity:0.25"/>
			<stop  offset="0.54" style="stop-color:#808080;stop-opacity:0.12"/>
			<stop  offset="1" style="stop-color:#808080;stop-opacity:0.1"/>
		</linearGradient>
		<path class="st25" d="M216.9,190L216.9,190c0,0,18.6,36.4,12.8,72.8c-1.9,12.2-1.1,19.7,0.8,24.3c-0.5,4.9-1.9,9.7-4,14.2
			c-7.1,14.8-7.1,30.2,1.9,48.1l2.6,93c0,0,3.2,43.6,0,52.6s1.3,52,1.3,52h-0.6v23.7l48.1,1.3c0,0,11.3-5.3,13.3-9.3l24.2,7.4
			c0,0,26.6-4.6,11-10.9c-11.6-4.7-14.5-11.5-15.2-14.6l38-109.3c0,0-7.1-93-32.7-125.1l-2.6-18.9h0.4l5.5-110.5l0.5,0.1h-0.1
			c14.1,2.2,28.4,2,42.4-0.6c4.2-0.7,8.3-1.9,12.3-3.4l0.7-0.3h0.1h0.1l0,0c3-1.2,5.8-2.8,8.3-4.8l16-24.5l-24.4-16.8l-8.3,11.9
			c0,0-26.1-5.5-40.5-11.3c-6.7-2.7-13.8-4.3-21-4.5l-15.7-0.5l-7.8-4.7l2.4-6.3c0.2-0.1,0.5-0.2,0.7-0.4l0.2-1.4
			c20.1-5,32.3-25.3,27.3-45.3h0.5c-0.2-13-4.2-14.3-4.2-14.3c0-13.2-11.5-22.9-24.7-24c-6.8-0.5-13.7,0.1-20.3,1.8
			c-9.7,2.3-17,10.6-18,20.5c-17.2,4.7-11.4,13.7-11.7,17.2c-1.3,16.8,4,26.7,9.9,32.5c2.5,2.6,5.4,4.8,8.7,6.4l-3.8,7.5H250l-3.1,9
			h-0.1l-3.3,2.2C222.8,140.7,212.4,165.6,216.9,190z M268.2,547.1v-28.9l12.2-85.3v-43.6l21.8,45.5l-23.5,98.8l-1.2-0.3l-5.4,19.4
			C270.3,551.2,269,549.3,268.2,547.1L268.2,547.1z"/>
		<path class="st26" d="M396.9,92.3v15.4l-18.4,26.9l18.4,12c0,0,8.2-31.4,12.6-35.1c0,0,6.9-4.9,10.7-11.7s1.9-30.2-16.3-9.3V93
			L396.9,92.3z"/>
		<path class="st26" d="M250.7,129.1l7.3-14.5c0.4-0.9,1.3-1.4,2.3-1.5l27.6-1.4c1.5-0.1,2.8,1.1,2.8,2.5c0,0.4,0,0.8-0.2,1.1
			l-7.1,18.4c-0.4,1.1-1.6,1.8-2.8,1.7l-27.7-2.5c-1.5-0.1-2.6-1.4-2.4-2.9C250.4,129.7,250.5,129.4,250.7,129.1z"/>
		<polygon class="st27" points="252.7,122.8 248,136.6 296.2,134.9 277.7,123.8 		"/>
		<polygon class="st27" points="375.1,136.7 377.6,133.6 398.5,146 398.5,151.5 		"/>
		<path class="st28" d="M233.5,273.1c1.9,9.5,0.8,19.4-3.3,28.2c-6.8,14.2-6.8,29,1.9,46.2l2.5,89.4c0,0,3.1,41.9,0,50.6
			s1.2,50,1.2,50h34.5v-27.8l11.7-82v-41.9l21,43.8l-24,101.1l31.4,13l39.5-113.5c0,0-6.8-89.4-31.5-120.2l-4.6-33.6L233.5,273.1z"
			/>
		<path class="st29" d="M235.1,560.3v-22.8h35.1c0,0,2.5,9.3,18.5,11.1s-7.4,13-7.4,13L235.1,560.3z"/>
		<path class="st29" d="M273.1,546.1l6.1-22l33.9,9.4c0,0-0.1,9.6,14.8,15.7s-10.6,10.5-10.6,10.5L273.1,546.1z"/>
		<path class="st9" d="M313.7,278.2l-80.3-3.3c1,4.8,1.2,9.7,0.6,14.6c3.7,8.6,11.5,6.3,11.5,6.3l70.2-2.2L313.7,278.2z"/>
		<path class="st6" d="M249.6,131.5l-3.2,2.2c-19.8,13.4-29.8,37.2-25.5,60.7l0,0c0,0,17.9,35,12.3,70s12.3,29.6,12.3,29.6l70.6-2.2
			l5.2-106.1c0,0,42.5,6,61.7-8.8l15.4-23.5L375,137.2l-8,11.4c0,0-25.1-5.3-38.9-10.9c-6.4-2.6-13.3-4.1-20.2-4.3L249.6,131.5z"/>
		<path class="st9" d="M250.3,302.3c0,0-4.3,21.6,20.3,57.3"/>
		<path class="st9" d="M321.7,185.7c0,0,29.6-9.9,42.5-9.9s10.8,5.6,10.8,5.6S354.5,190.7,321.7,185.7z"/>
		<path class="st9" d="M288.2,112.9l-11.8,1.4c-0.4,0-0.7,0.5-0.9,1.2c2.6,4.7,5.8,7.5,9.4,7.5c1.3,0,2.5-0.4,3.6-1l0.9-5.5
			C289.6,114.7,289,112.8,288.2,112.9z"/>
		<circle class="st26" cx="280" cy="85.8" r="36"/>
		<path class="st9" d="M310.6,65.4L310.6,65.4l-1.8,1.7c-2.5,2.3-2.7,6.3-0.4,8.8c0.6,0.7,1.4,1.2,2.2,1.5l0,0
			c0,0-16.1,16.1-18.4,19.1s0.4,10.9,0.4,10.9s7.1,13.1-30.3,10.1c0,0-24.7-5.2-22.1-38.6c0.3-3.3-5.2-12,11.2-16.5l0,0
			c1-9.6,8-17.5,17.4-19.7c6.4-1.6,13-2.2,19.5-1.7C300.9,42.1,310.6,52.7,310.6,65.4z"/>
		<path class="st30" d="M311.4,63.5L311.4,63.5c0,0,3.8,1.2,4,13.7l-5.4-0.4c0,0-12.6,33.6-11.2,29.2c4.9-16.1-4.9-13.1-7.1-10.1
			s0.4,10.9,0.4,10.9s7.1,13.1-30.3,10.1c0,0-24.7-5.2-22.1-38.6c0.3-3.3-5.2-12,11.2-16.5l0,0c1-9.6,8-17.5,17.3-19.7
			c6.4-1.6,13-2.2,19.5-1.7C300.3,41.5,311.4,50.8,311.4,63.5z"/>
	</g>
	<g>
		
			<linearGradient id="SVGID_9_" gradientUnits="userSpaceOnUse" x1="1001.1582" y1="738.3137" x2="1001.1582" y2="411.2612" gradientTransform="matrix(1 0 0 1 -56.59 487.77)">
			<stop  offset="0" style="stop-color:#808080;stop-opacity:0.25"/>
			<stop  offset="0.54" style="stop-color:#808080;stop-opacity:0.12"/>
			<stop  offset="1" style="stop-color:#808080;stop-opacity:0.1"/>
		</linearGradient>
		<path class="st31" d="M1007.1,966.4c-1.6-4.7-3.9-10.7-5.8-12.1c-0.1-0.1-0.2-0.2-0.4-0.2h-0.2v-5.8l-4.4,0.7
			c-0.7-2.1-1.2-4.3-1.6-6.5c0.9,0.9,2.1,1.1,3.3,0.7c-0.1-0.1-0.1-0.2-0.2-0.4l0.2-0.1c-0.7-1.2-1-2.6-1.1-4c0-1.3,0.2-2.5,0.6-3.7
			c0.8-2.7,2.1-5.2,2.8-7.9c0.5-1.7,0.7-3.5,0.7-5.3c0-3.1-0.7-6.1-2-8.8c-0.3-0.8-0.9-1.5-1.6-2c-0.6-0.3-1.2-0.6-1.9-0.9
			c-1.1-0.7-2-1.7-2.7-2.7c-3.1-3.8-7.2-6.5-11.9-7.9c-1.2-0.5-2.5-0.6-3.8-0.3c-2.9,0.8-4,4.4-6.4,6.3c-2.1,1.7-5,1.8-7.6,2.4
			s-5.3,1.7-7.1,3.7c-1.2,1.4-1.9,3.2-1.9,5.1c-0.1,1.8,0.6,3.5,2.1,4.6c1.6,1.1,3.7,1.4,5.5,0.8c-2.9,10,2.9,20.5,12.9,23.4
			c0.5,0.1,0.9,0.3,1.4,0.4l0.5,0.9l0,0c1.6,2.9,2.8,6,3.5,9.2c-4,2.3-8.4,4.4-11,4.6c-0.1,1-0.3,2.1-0.6,3.1
			c-0.6,2.5-1.8,4.8-3.5,6.8c-3.6,4-19.8,34.6-19.8,34.6s-0.5,1.2-1.3,3.3c-10,1.2-26.4,3-31,2.1l-18-17.1c0,0-5.8,4.4-5.3,9.8
			l-3.2-3.1c0,0-17.1,13,9.9,21.6l41,4.8c-3.9,11.8-7.6,25.5-6.4,33h0.3c0.8,0,1.6-0.1,2.3-0.2l-0.1,1.3l-3.9,70.8
			c0,0-0.9,13,11.2,18.9c0,0,14.8,43.6,9,48.5c0,0,0.7,0.4,1.9,0.9l-12.2,10.8c0,0-9,2.2-13.9,1.8c-1.8-0.2-3.5,0.9-3.9,2.7
			c0,0.1,0,0.2,0,0.3v0.1c0,0.1,0,0.2,0,0.3s0,0.1,0,0.1v0.2c0,0.1,0,0.1,0,0.1s0,0.2,0.1,0.3v0.1c0,0.1,0.1,0.2,0.1,0.3v0.1
			c0,0.1,0.1,0.2,0.1,0.3v0.1c0.1,0.1,0.1,0.2,0.2,0.3l0.1,0.1c0.1,0.1,0.2,0.2,0.2,0.3l0.1,0.1c0.1,0.1,0.2,0.2,0.3,0.3l0,0
			l0.3,0.3l0.1,0.1c0.1,0.1,0.3,0.2,0.4,0.3l0.1,0.1c0.1,0.1,0.3,0.2,0.5,0.3h0.1l0.5,0.2h0.1l0.6,0.2h0.1l0.6,0.2h0.1l0.7,0.2h0.1
			l0.8,0.2h0.2l0.8,0.1h0.2l1,0.1c1.8,0.1,4.3,0.2,7.2,0.2l0,0v0.1v0.2v0.1c0,0.1,0,0.2,0.1,0.3v0.1c0,0.1,0.1,0.2,0.1,0.3v0.1
			c0,0.1,0.1,0.2,0.1,0.3v0.1c0.1,0.1,0.1,0.2,0.2,0.3l0.1,0.1c0.1,0.1,0.2,0.2,0.2,0.3l0.1,0.1c0.1,0.1,0.2,0.2,0.3,0.3l0,0
			l0.3,0.3l0.1,0.1c0.1,0.1,0.3,0.2,0.4,0.3l0.1,0.1c0.1,0.1,0.3,0.2,0.5,0.3h0.1l0.5,0.2h0.1l0.6,0.2h0.1l0.6,0.2h0.1l0.7,0.2h0.1
			l0.8,0.2h0.2l0.8,0.1h0.2l1,0.1c11.7,0.9,49-1.8,49-1.8v-0.1l0,0v-0.1l0,0c0.4-1.7,2.2-11.9-4.2-19.3c0.2-0.2,0.4-0.4,0.5-0.6
			c0,0-4.9-8.5-2.2-11.2s-13.5-49.4-13.5-49.4s-8.5-13.5-3.6-28.8s-0.5-31.9-0.5-31.9s11.8-3.5,12-18c0-0.4,0-0.9,0-1.4
			c0.3,0,0.5,0.1,0.8,0c0.2,0,0.3,0,0.5,0c0,0-2.2-8.1,0.5-13.9s8.5-0.5,13.9-24.3c3.9-17.2,7.3-37.1,8.9-46.7
			C1008.5,974.2,1008.2,970.2,1007.1,966.4z M904.5,1017l-4.1-3.9c1.4,0.6,2.9,1.1,4.6,1.6l15.5,1.8
			C913.5,1017.2,907.1,1017.5,904.5,1017L904.5,1017z"/>
		<path class="st32" d="M943.6,1014.7c0,0-31.8,4.4-38.4,3.1l-17.7-16.8c0,0-16.8,12.8,9.7,21.2l49.5,5.7L943.6,1014.7z"/>
		<path class="st14" d="M943.6,1014.7c0,0-31.8,4.4-38.4,3.1l-17.7-16.8c0,0-16.8,12.8,9.7,21.2l49.5,5.7L943.6,1014.7z"/>
		<path class="st33" d="M955.1,1194l-15.5,13.7c0,0-8.8,2.2-13.7,1.8c-4.9-0.4-7.1,7.5,4.4,8.4s48.1-1.8,48.1-1.8s3.5-14.1-7.1-22.1
			H955.1z"/>
		<path class="st14" d="M955.1,1194l-15.5,13.7c0,0-8.8,2.2-13.7,1.8c-4.9-0.4-7.1,7.5,4.4,8.4s48.1-1.8,48.1-1.8s3.5-14.1-7.1-22.1
			H955.1z"/>
		<path class="st34" d="M979,1209.9c0,1.6-0.2,3.2-0.6,4.8c0,0-36.7,2.6-48.1,1.8c-5.5-0.4-7.9-2.5-8.3-4.5
			c-0.5,2.3,1.5,5.3,8.3,5.8c11.5,0.9,48.1-1.8,48.1-1.8C978.9,1214,979.1,1212,979,1209.9z"/>
		<path class="st32" d="M973.2,943.6c0,0,9.7,13.7,6.2,23s18.5-9.7,18.5-9.7s-7.1-12.4-3.5-25.6L973.2,943.6z"/>
		<path class="st33" d="M970.6,1199.3l-15.5,13.7c0,0-8.8,2.2-13.7,1.8c-4.9-0.4-7.1,7.5,4.4,8.4s48.1-1.8,48.1-1.8
			s3.5-14.1-7.1-22.1H970.6z"/>
		<path class="st35" d="M975,1196.2c-2.3,2.8-5.5,3.9-8.9,4.1c-7.7,0.4-16.2-4.1-16.2-4.1c5.7-4.9-8.8-47.7-8.8-47.7
			c-11.9-5.7-11-18.5-11-18.5l3.9-69.5l1-17.5l12.4-7.5l9.7,7.5l9.2,7.1c0.6,2.3,1,4.6,1.2,6.9c1.1,16.2-11.8,20-11.8,20
			s5.3,16.3,0.4,31.3c-4.9,15,3.5,28.3,3.5,28.3s15.9,45.9,13.3,48.6S975,1196.2,975,1196.2z"/>
		<path class="st14" d="M975,1196.2c-2.3,2.8-5.5,3.9-8.9,4.1c-7.7,0.4-16.2-4.1-16.2-4.1c5.7-4.9-8.8-47.7-8.8-47.7
			c-11.9-5.7-11-18.5-11-18.5l3.9-69.5l1-17.5l12.4-7.5l9.7,7.5l9.2,7.1c0.6,2.3,1,4.6,1.2,6.9c1.1,16.2-11.8,20-11.8,20
			s5.3,16.3,0.4,31.3c-4.9,15,3.5,28.3,3.5,28.3s15.9,45.9,13.3,48.6S975,1196.2,975,1196.2z"/>
		<path class="st35" d="M990.4,1201.5c-7.5,9.3-25.2,0-25.2,0c0.4-0.3,0.6-0.7,0.8-1.2c3.2-8.8-10.9-50.9-10.9-50.9
			c-11.9-5.7-13.3-19.4-13.3-19.4l-3.1-70.8l-0.4-9.2l18.6-7.1l5.7-2.2l19,14.6c0.8,3,1.2,6.1,1.2,9.2
			c-0.2,14.3-11.8,17.7-11.8,17.7s5.3,16.3,0.4,31.3c-4.9,15,3.5,28.3,3.5,28.3s15.9,45.9,13.3,48.6S990.4,1201.5,990.4,1201.5z"/>
		<path class="st9" d="M982.8,1064.5c-3.8-0.5-11.5-5.1-15.5-7.6c-1.5-1-2.5-1.6-2.5-1.6s-4-11-14.6-2.6c-3.4,2.8-7.3,5-11.5,6.5
			c-1.6,0.6-3.2,1-4.9,1.2l1-17.5l12.4-7.5l9.7,7.5l5.7-2.2l19,14.6C982.4,1058.3,982.8,1061.4,982.8,1064.5z"/>
		<path class="st36" d="M1006.7,979.8c-1.6,9.5-4.9,28.9-8.8,45.9c-5.3,23.4-11,18.1-13.7,23.8s-0.4,13.7-0.4,13.7
			c-4.4,0.4-19-9.3-19-9.3s-4-11-14.6-2.6s-19,7.9-19,7.9c-2.2-14.6,14.1-53.4,14.1-53.4s15.9-30,19.4-34c1.6-1.9,2.8-4.2,3.4-6.7
			c0.3-1,0.5-2,0.6-3c5.7-0.4,19.9-10.1,19.9-10.1l11-1.8v5.7c0.1,0.1,0.2,0.1,0.4,0.2c1.8,1.4,4.1,7.3,5.7,11.9
			C1007,971.9,1007.3,975.9,1006.7,979.8z"/>
		<path class="st9" d="M997.9,961.7c0,0-11.5-9.3-28.7,20.8c-17.2,30-21.2,25.2-21.2,25.2s3.5,13.3,1.8,15.9c0,0,11.9-0.9,16.3,0
			c4.4,0.9,31.8-33.5,31.8-33.5S1012.1,970.5,997.9,961.7z"/>
		<path class="st9" d="M997.5,959.9c0,0-11.5-9.3-28.7,20.8c-17.2,30-21.2,25.2-21.2,25.2s13.7,15,18.1,15.9
			c4.4,0.9,31.8-33.6,31.8-33.6S1011.6,968.8,997.5,959.9z"/>
		<path class="st9" d="M949.4,1020.7c0.2-3.3-1.1-9-1.8-12c2.7-0.4,4.4-0.6,4.4-0.6l3.1,13.3L949.4,1020.7z"/>
		<path class="st9" d="M994.8,932.1l-21.2,12.4c0.9,1.3,1.7,2.7,2.5,4c1.2,0.2,2.5,0.4,3.7,0.4c5.7,0,8.3-5.9,11.7-9.9
			C991.3,935.8,993.9,935.7,994.8,932.1z"/>
		<circle class="st32" cx="979.4" cy="929.5" r="18.5"/>
	</g>
	<g>
		
			<linearGradient id="SVGID_10_" gradientUnits="userSpaceOnUse" x1="876.05" y1="520.21" x2="876.05" y2="407.71" gradientTransform="matrix(1 0 0 1 0 542.89)">
			<stop  offset="0" style="stop-color:#808080;stop-opacity:0.25"/>
			<stop  offset="0.54" style="stop-color:#808080;stop-opacity:0.12"/>
			<stop  offset="1" style="stop-color:#808080;stop-opacity:0.1"/>
		</linearGradient>
		<rect x="801.4" y="950.6" class="st37" width="149.3" height="112.5"/>
		<rect x="804.7" y="953.1" class="st18" width="142.7" height="107.5"/>
		<rect x="818.7" y="962.4" class="st19" width="47.5" height="26.9"/>
		<rect x="877.6" y="962.4" class="st20" width="55.8" height="6.2"/>
		<rect x="877.6" y="972.8" class="st20" width="39.3" height="6.2"/>
		<rect x="877.6" y="983.1" class="st20" width="55.8" height="6.2"/>
		<rect x="818.7" y="993.5" class="st20" width="114.7" height="6.2"/>
		<rect x="818.7" y="1003.8" class="st20" width="114.7" height="6.2"/>
		<rect x="818.7" y="1014.1" class="st20" width="114.7" height="6.2"/>
		<rect x="818.7" y="1024.5" class="st20" width="105.4" height="6.2"/>
		<rect x="818.7" y="1034.8" class="st20" width="114.7" height="6.2"/>
		<rect x="818.7" y="1045.1" class="st20" width="114.7" height="6.2"/>
	</g>
	<g>
		<path class="st9" d="M955.9,914.5c1.9-1.9,4.3-3.2,6.9-3.6c2.6-0.6,5.4-0.7,7.5-2.3c2.3-1.9,3.4-5.4,6.2-6.2
			c1.2-0.3,2.5-0.1,3.7,0.3c4.6,1.4,8.7,4.1,11.7,7.8c0.7,1.1,1.6,2,2.7,2.7c0.6,0.3,1.3,0.6,1.9,0.9c0.7,0.5,1.2,1.2,1.5,2
			c2.1,4.2,2.5,9,1.3,13.5c-0.7,2.7-2,5.1-2.8,7.8s-1,5.7,0.4,8c-1.4,0.7-3.1-0.2-3.9-1.4c-0.8-1.3-1.1-2.8-1.6-4.3
			c-0.9-2.9-2.5-5.4-4.8-7.4c-1.4-1.2-3.9-2.1-4.8-0.5c-0.4,0.6-0.4,1.4-0.7,2c-0.6,1.2-2.5,1.5-3.7,0.8c-1.2-0.8-2-2-2.3-3.4
			c-1.8-6.2-4.9-10-11.5-7.4c-2.5,1-5.3,1.6-7.7,0C953.1,921.4,953.7,917,955.9,914.5z"/>
		<path class="st22" d="M955.9,914c1.9-1.9,4.3-3.2,6.9-3.6c2.6-0.6,5.4-0.7,7.5-2.3c2.3-1.9,3.4-5.4,6.2-6.2
			c1.2-0.3,2.5-0.1,3.7,0.3c4.6,1.4,8.7,4.1,11.7,7.8c0.7,1.1,1.6,2,2.7,2.7c0.6,0.3,1.3,0.6,1.9,0.9c0.7,0.5,1.2,1.2,1.5,2
			c2.1,4.2,2.5,9,1.3,13.5c-0.7,2.7-2,5.1-2.8,7.8s-1,5.7,0.4,8c-1.4,0.7-3.1-0.2-3.9-1.4s-1.1-2.8-1.6-4.3
			c-0.9-2.9-2.5-5.4-4.8-7.4c-1.4-1.2-3.9-2.1-4.8-0.5c-0.4,0.6-0.4,1.4-0.7,2c-0.6,1.2-2.5,1.5-3.7,0.8c-1.2-0.8-2-2-2.3-3.4
			c-1.8-6.2-4.9-10-11.5-7.4c-2.5,1-5.3,1.6-7.7,0C953.1,921,953.7,916.6,955.9,914z"/>
		<path class="st14" d="M1000,956.2h-9c0,0-17.7,8.8-18.1,8.4c-0.3-0.3-3,0.2-4.8,0.6c0.3-1,0.5-2,0.6-3
			c5.7-0.4,19.9-10.1,19.9-10.1l11-1.8v5.7C999.8,956,999.9,956.1,1000,956.2z"/>
		<path class="st34" d="M994.5,1215.2c0,1.6-0.2,3.2-0.6,4.8c0,0-36.7,2.6-48.1,1.8c-5.5-0.4-7.9-2.5-8.3-4.5
			c-0.5,2.3,1.5,5.3,8.3,5.8c11.5,0.9,48.1-1.8,48.1-1.8C994.4,1219.3,994.6,1217.3,994.5,1215.2z"/>
		<g class="st38">
			<path d="M946,1050.9c-6,4.7-11.2,6.6-14.7,7.4c0,0.3,0.1,0.7,0.1,1c0,0,8.4,0.4,19-7.9c1.6-1.4,3.6-2.4,5.7-3
				C953.8,1047.3,950.5,1047.4,946,1050.9z"/>
			<path d="M1006,968.1c-1.6-4.7-3.9-10.5-5.7-11.9c-0.1-0.1-0.2-0.2-0.4-0.2c0,0-3.7,0.1-3.5,0.2c1.8,1.4,3.6,6.8,5.2,11.5
				c1.3,3.8,1.6,7.8,1,11.7c-1.6,9.5-4.9,28.9-8.8,45.9c-5.3,23.4-11,18.1-13.7,23.8c-2.2,4.7-1.1,10.9-0.6,13
				c1.9,0.8,3.5,1.3,4.6,1.2c0,0-2.2-7.9,0.4-13.7c2.7-5.7,8.4-0.4,13.7-23.8c3.8-16.9,7.2-36.4,8.8-45.9
				C1007.6,975.9,1007.2,971.9,1006,968.1z"/>
		</g>
		<path class="st32" d="M955.1,1021.3l-5.7-0.7l-43.7-5.1c-26.5-8.4-9.7-21.2-9.7-21.2l17.7,16.8c5.1,1,25.1-1.4,34-2.5
			c2.7-0.4,4.4-0.6,4.4-0.6L955.1,1021.3z"/>
		<path class="st36" d="M997.9,960.8c0,0-11.5-9.3-28.7,20.8c-17.2,30-21.2,25.2-21.2,25.2s3.5,13.3,1.8,15.9c0,0,11.9-0.9,16.3,0
			s31.8-33.6,31.8-33.6S1012.1,969.7,997.9,960.8z"/>
	</g>
	<g>
		<ellipse class="st1" cx="724.2" cy="1265.1" rx="40.2" ry="6.8"/>
		<path class="st1" d="M740.9,1254c1.8-1.5,3.2-3.5,3.8-5.8c0.5-2.3-0.5-5-2.7-5.9c-2.5-0.9-5.1,0.8-7.1,2.5s-4.3,3.7-6.9,3.3
			c2.7-2.5,4-6.2,3.3-9.8c-0.1-0.7-0.4-1.4-0.9-2c-1.4-1.5-3.8-0.8-5.5,0.3c-5.2,3.7-6.7,10.7-6.7,17.1c-0.5-2.3-0.1-4.7-0.1-7
			s-0.7-5-2.6-6.2c-1.2-0.7-2.6-1-4-0.9c-2.3-0.1-4.9,0.2-6.5,1.9c-2,2.1-1.5,5.7,0.3,8c1.7,2.3,4.3,3.8,6.8,5.4
			c1.9,1.2,3.6,2.7,4.8,4.6c0.1,0.3,0.3,0.5,0.4,0.8h14.6C735.1,1258.6,738.1,1256.5,740.9,1254z"/>
	</g>
	<g>
		<ellipse class="st1" cx="74.2" cy="1402" rx="29.3" ry="4.9"/>
		<path class="st1" d="M86.3,1393.9c1.3-1.1,2.3-2.6,2.8-4.2c0.4-1.7-0.3-3.6-2-4.3c-1.8-0.7-3.7,0.6-5.2,1.8
			c-1.4,1.3-3.1,2.7-5,2.4c2-1.8,2.9-4.5,2.4-7.1c-0.1-0.5-0.3-1-0.7-1.5c-1-1.1-2.8-0.6-4,0.2c-3.8,2.7-4.8,7.8-4.9,12.4
			c-0.4-1.7-0.1-3.4-0.1-5.1s-0.5-3.6-1.9-4.5c-0.9-0.5-1.9-0.7-2.9-0.7c-1.7-0.1-3.6,0.1-4.8,1.4c-1.5,1.5-1.1,4.1,0.2,5.8
			c1.3,1.7,3.2,2.8,4.9,3.9c1.4,0.8,2.6,2,3.5,3.4c0.1,0.2,0.2,0.4,0.3,0.6h10.6C82.1,1397.2,84.3,1395.7,86.3,1393.9z"/>
	</g>
	<ellipse class="st39" cx="838.2" cy="1381.3" rx="26.9" ry="4.5"/>
	<ellipse class="st39" cx="500.1" cy="1256.7" rx="26.9" ry="4.5"/>
	<g>
		<circle class="st4" cx="876" cy="271.6" r="77.2"/>
		<circle class="st18" cx="876" cy="271.6" r="65.5"/>
		<circle class="st4" cx="876" cy="271.6" r="4.7"/>
		<line class="st40" x1="904.1" y1="222.4" x2="876" y2="271.6"/>
		<line class="st41" x1="877.4" y1="272.1" x2="905.3" y2="286.8"/>
	</g>
</g>
</svg>
