<?xml version="1.0" encoding="utf-8"?>
<!-- Generator: Adobe Illustrator 22.1.0, SVG Export Plug-In . SVG Version: 6.00 Build 0)  -->
<svg version="1.1" id="Layer_1" xmlns="http://www.w3.org/2000/svg" xmlns:xlink="http://www.w3.org/1999/xlink" x="0px" y="0px"
	 viewBox="0 0 495.4 666.5" style="enable-background:new 0 0 495.4 666.5;" xml:space="preserve">
<style type="text/css">
	.st0{opacity:0.7;fill:#E3E6F0;enable-background:new    ;}
	.st1{fill:#FFFFFF;stroke:#E7EAF3;stroke-miterlimit:10;}
	.st2{fill:#E3E6F0;}
	.st3{clip-path:url(#SVGID_3_);}
	.st4{fill:none;stroke:#E7EAF3;stroke-miterlimit:10;}
	.st5{clip-path:url(#SVGID_6_);}
</style>
<g id="phone_x5F_1">
	<path class="st0" d="M441.4,666.5H320.5c-29.7,0-54-24.3-54-54v-372c0-29.7,24.3-54,54-54h120.9c29.7,0,54,24.3,54,54v372
		C495.4,642.3,471.1,666.5,441.4,666.5z"/>
	<path class="st1" d="M435.4,660.5H314.5c-29.7,0-54-24.3-54-54v-372c0-29.7,24.3-54,54-54h120.9c29.7,0,54,24.3,54,54v372
		C489.4,636.3,465.1,660.5,435.4,660.5z"/>
	<circle class="st2" cx="375.7" cy="627" r="18.4"/>
	<path class="st2" d="M390.5,217.3h-30.3c-1.6,0-2.9-1.3-2.9-2.9l0,0c0-1.6,1.3-2.9,2.9-2.9h30.3c1.6,0,2.9,1.3,2.9,2.9l0,0
		C393.4,216,392.1,217.3,390.5,217.3z"/>
	<g>
		<g>
			<g>
				<g>
					<g>
						<defs>
							<rect id="SVGID_1_" x="274.5" y="238.4" width="202.2" height="361"/>
						</defs>
						<clipPath id="SVGID_3_">
							<use xlink:href="#SVGID_1_"  style="overflow:visible;"/>
						</clipPath>
						<g class="st3">

								<image style="overflow:visible;enable-background:new    ;" width="204" height="361" xlink:href="../../img/204x361/img4.jpg"  transform="matrix(1 0 0 1 273.701 238.3909)">
							</image>
						</g>
					</g>
				</g>
			</g>
		</g>
		<g>
			<rect id="SVGID_4_" x="274.5" y="238.4" class="st4" width="202.2" height="361"/>
		</g>
	</g>
</g>
<g id="phone_x5F_2">
	<path class="st0" d="M181.4,486.5H60.5c-29.7,0-54-24.3-54-54v-372c0-29.7,24.3-54,54-54h120.9c29.7,0,54,24.3,54,54v372
		C235.4,462.3,211.1,486.5,181.4,486.5z"/>
	<path class="st1" d="M175.4,480.5H54.5c-29.7,0-54-24.3-54-54v-372c0-29.7,24.3-54,54-54h120.9c29.7,0,54,24.3,54,54v372
		C229.4,456.3,205.1,480.5,175.4,480.5z"/>
	<circle class="st2" cx="115.7" cy="447" r="18.4"/>
	<path class="st2" d="M130.5,37.3h-30.3c-1.6,0-2.9-1.3-2.9-2.9l0,0c0-1.6,1.3-2.9,2.9-2.9h30.3c1.6,0,2.9,1.3,2.9,2.9l0,0
		C133.4,36,132.1,37.3,130.5,37.3z"/>
	<g>
		<g>
			<g>
				<g>
					<g>
						<defs>
							<rect id="SVGID_5_" x="14.5" y="58.4" width="202.2" height="361"/>
						</defs>
						<clipPath id="SVGID_6_">
							<use xlink:href="#SVGID_5_"  style="overflow:visible;"/>
						</clipPath>
						<g class="st5">

								<image style="overflow:visible;enable-background:new    ;" width="204" height="361" xlink:href="../../img/204x361/img5.jpg"  transform="matrix(1 0 0 1 13.701 58.3909)">
							</image>
						</g>
					</g>
				</g>
			</g>
		</g>
		<g>
			<rect id="SVGID_2_" x="14.5" y="58.4" class="st4" width="202.2" height="361"/>
		</g>
	</g>
</g>
</svg>
