<?xml version="1.0" encoding="utf-8"?>
<!-- Generator: Adobe Illustrator 22.1.0, SVG Export Plug-In . SVG Version: 6.00 Build 0)  -->
<svg version="1.1" id="Layer_1" xmlns="http://www.w3.org/2000/svg" xmlns:xlink="http://www.w3.org/1999/xlink" x="0px" y="0px"
	 viewBox="0 0 234.9 486" style="enable-background:new 0 0 234.9 486;" xml:space="preserve">
<style type="text/css">
	.st0{opacity:0.7;fill:#E3E6F0;enable-background:new    ;}
	.st1{fill:#F5F8FB;}
	.st2{fill:#E3E6F0;}
	.st3{clip-path:url(#SVGID_2_);}
	.st4{fill:none;stroke:#E7EAF3;stroke-miterlimit:10;}
</style>
<g id="phone_x5F_1">
	<path class="st0" d="M180.9,486H60c-29.7,0-54-24.3-54-54V60C6,30.3,30.3,6,60,6h120.9c29.7,0,54,24.3,54,54v372
		C234.9,461.8,210.6,486,180.9,486z"/>
	<path class="st1" d="M174.9,480H54c-29.7,0-54-24.3-54-54V54C0,24.3,24.3,0,54,0h120.9c29.7,0,54,24.3,54,54v372
		C228.9,455.8,204.6,480,174.9,480z"/>
	<circle class="st2" cx="115.2" cy="446.5" r="18.4"/>
	<path class="st2" d="M130,36.8H99.7c-1.6,0-2.9-1.3-2.9-2.9l0,0c0-1.6,1.3-2.9,2.9-2.9H130c1.6,0,2.9,1.3,2.9,2.9l0,0
		C132.9,35.5,131.6,36.8,130,36.8z"/>
	<g>
		<g>
			<g>
				<g>
					<g>
						<defs>
							<rect id="SVGID_1_" x="14" y="57.9" width="202.2" height="361"/>
						</defs>
						<clipPath id="SVGID_2_">
							<use xlink:href="#SVGID_1_"  style="overflow:visible;"/>
						</clipPath>
						<g class="st3">
							
								<image style="overflow:visible;enable-background:new    ;" width="204" height="361" xlink:href="../../img/204x361/img3.jpg"  transform="matrix(1 0 0 1 13.201 57.8909)">
							</image>
						</g>
					</g>
				</g>
			</g>
		</g>
		<g>
			<rect id="SVGID_4_" x="14" y="57.9" class="st4" width="202.2" height="361"/>
		</g>
	</g>
</g>
</svg>
