<?xml version="1.0" encoding="utf-8"?>
<!-- Generator: Adobe Illustrator 22.1.0, SVG Export Plug-In . SVG Version: 6.00 Build 0)  -->
<svg version="1.1" id="Layer_1" xmlns="http://www.w3.org/2000/svg" xmlns:xlink="http://www.w3.org/1999/xlink" x="0px" y="0px"
	 viewBox="0 0 1034.8 489.3" style="enable-background:new 0 0 1034.8 489.3;" xml:space="preserve">
<style type="text/css">
	.st0{opacity:0.6;fill:#E3E6F0;}
	.st1{fill:#796EFF;}
	.st2{fill:#FFFFFF;stroke:#E7EAF3;stroke-miterlimit:10;}
	.st3{clip-path:url(#SVGID_4_);}
	.st4{fill:none;stroke:#E7EAF3;stroke-miterlimit:10;}
	.st5{opacity:0.4;fill:#E3E6F0;}
	.st6{fill:#21C87A;}
	.st7{clip-path:url(#SVGID_6_);}
</style>
<g>
	<path class="st0" d="M1017.9,416l-95.1,56.6c-23.4,13.9-67.7,16.6-98.6,5.9L437.6,345.2c-30.9-10.7-37-30.7-13.7-44.7l95.1-56.6
		c23.4-13.9,67.7-16.6,98.6-5.9l386.6,133.4C1035.3,382.1,1041.3,402.1,1017.9,416z"/>
	<path class="st1" d="M1034.8,375.4l-16.8-2.1c-3.1-1.6-6.5-3.1-10.4-4.4L636.3,240.7c-29.6-10.2-72.2-7.7-94.7,5.7l-91.3,54.4
		c-0.5,0.3-1,0.6-1.5,0.9l-12.6-1.6l0.4,19.1l0,0c0,9.3,9.2,18.4,26.7,24.5l371.2,128.1c29.6,10.2,72.2,7.7,94.7-5.7l91.3-54.4
		c9-5.4,13.4-11.7,13.6-18l0,0L1034.8,375.4z"/>
	<path class="st2" d="M1020.7,392.8l-91.3,54.4c-22.4,13.4-65,15.9-94.7,5.7L463.5,324.8c-29.6-10.2-35.5-29.5-13.1-42.9l91.3-54.4
		c22.4-13.4,65-15.9,94.7-5.7L1007.5,350C1037.3,360.2,1043.1,379.5,1020.7,392.8z"/>
	
		<ellipse transform="matrix(3.353404e-03 -1 1 3.353404e-03 534.9301 1353.319)" class="st1" cx="946.4" cy="408.3" rx="10.4" ry="23"/>
	<g>
		<g>
			<g>
				<g>
					<g>
						<g>
							<defs>
								<polygon id="SVGID_2_" points="478,319.6 630.6,228.7 990.9,353 838.2,443.9 								"/>
							</defs>
							<clipPath id="SVGID_4_">
								<use xlink:href="#SVGID_2_"  style="overflow:visible;"/>
							</clipPath>
							<g class="st3">
								
									<image style="overflow:visible;enable-background:new    ;" width="204" height="361" xlink:href="../../img/204x361/img5.jpg"  transform="matrix(0.755 -0.4497 0.998 0.3444 477.3419 319.9833)">
								</image>
							</g>
						</g>
					</g>
				</g>
			</g>
		</g>
		<g>
			<polygon id="SVGID_3_" class="st4" points="478,319.6 630.6,228.7 990.9,353 838.2,443.9 			"/>
		</g>
	</g>
	<path class="st1" d="M544.5,257.4l-22.9,13.6c-1.2,0.7-3.5,0.9-5.1,0.3l0,0c-1.6-0.6-1.9-1.6-0.7-2.3l22.9-13.6
		c1.2-0.7,3.5-0.9,5.1-0.3l0,0C545.4,255.7,545.7,256.7,544.5,257.4z"/>
</g>
<g>
	<path class="st5" d="M302.8,432.9l-11.5,44.7c-2.9,11-19.9,13.9-37.9,6.6L28,392c-18-7.4-30.4-22.4-27.6-33.4L12,313.9
		c2.8-11,19.9-14,37.9-6.6l225.4,92.3C293.4,406.9,305.7,421.9,302.8,432.9z"/>
	<path class="st6" d="M387.2,23.3L372,12.6l0,0c-6.4-5.2-15.4-5.6-25.3,0.1l-78.3,45.2c-19.3,11.1-35,41.2-35,66.9v321.4
		c0,11.5,3.2,20.3,8.5,25.4l0,0l0.1,0.1c0.9,0.9,1.9,1.7,3,2.3l14.5,11.5l2.8-10c2-0.7,4.1-1.6,6.2-2.8l78.3-45.3
		c19.3-11.1,35-41.1,35-66.8V43.3L387.2,23.3z"/>
	<path class="st2" d="M362.6,439.4l-78.3,45.3c-19.2,11.1-35-0.8-35-26.5V136.8c0-25.7,15.7-55.7,35-66.9l78.3-45.2
		c19.3-11.1,35,0.7,35,26.4v321.5C397.6,398.3,381.9,428.3,362.6,439.4z"/>
	
		<ellipse transform="matrix(0.3916 -0.9201 0.9201 0.3916 -201.12 561.4616)" class="st6" cx="324" cy="432.8" rx="18.3" ry="10.3"/>
	<g>
		<g>
			<g>
				<g>
					<g>
						<g>
							<g>
								<defs>
									<polygon id="SVGID_5_" points="258.4,134.9 389.4,59.3 389.4,371.1 258.4,446.8 									"/>
								</defs>
								<clipPath id="SVGID_6_">
									<use xlink:href="#SVGID_5_"  style="overflow:visible;"/>
								</clipPath>
								<g class="st7">
									
										<image style="overflow:visible;enable-background:new    ;" width="204" height="361" xlink:href="../../img/204x361/img6.jpg"  transform="matrix(0.648 -0.3741 0 0.864 257.8678 135.168)">
									</image>
								</g>
							</g>
						</g>
					</g>
				</g>
			</g>
		</g>
		<g>
			<polygon id="SVGID_1_" class="st4" points="258.4,134.9 389.4,59.3 389.4,371.1 258.4,446.8 			"/>
		</g>
	</g>
	<path class="st6" d="M333.6,73.2L314,84.6c-1,0.6-1.9-0.1-1.9-1.4l0,0c0-1.3,0.8-3,1.9-3.6l19.6-11.4c1-0.6,1.9,0.1,1.9,1.4l0,0
		C335.5,71,334.6,72.7,333.6,73.2z"/>
</g>
</svg>
