<?xml version="1.0" encoding="utf-8"?>
<!-- Generator: Adobe Illustrator 22.1.0, SVG Export Plug-In . SVG Version: 6.00 Build 0)  -->
<svg version="1.1" id="Layer_1" xmlns="http://www.w3.org/2000/svg" xmlns:xlink="http://www.w3.org/1999/xlink" x="0px" y="0px"
	 viewBox="0 0 1032 617.2" style="enable-background:new 0 0 1032 617.2;" xml:space="preserve">
<style type="text/css">
	.st0{fill:none;stroke:#E3E6F0;stroke-width:3;stroke-miterlimit:10;stroke-dasharray:4.9856,4.9856;}
	.st1{opacity:5.000000e-02;fill:url(#drop-shadow_1_);enable-background:new    ;}
	.st2{fill:#E7EAF3;}
	.st3{fill:#FFFFFF;}
	.st4{clip-path:url(#SVGID_2_);}
	.st5{fill:none;stroke:#E3E6F0;stroke-miterlimit:10;}
</style>
<g id="XMLID_1_">
	<ellipse transform="matrix(0.9927 -0.121 0.121 0.9927 -34.7705 64.778)" class="st0" cx="516" cy="318.7" rx="363" ry="205.4"/>
</g>
<g id="XMLID_2_">
	<ellipse transform="matrix(0.9927 -0.121 0.121 0.9927 -34.7705 64.778)" class="st0" cx="516" cy="318.7" rx="517.1" ry="292.5"/>
</g>
<g id="ipad">
	
		<linearGradient id="drop-shadow_1_" gradientUnits="userSpaceOnUse" x1="621.2008" y1="120.0663" x2="411.6992" y2="482.9337" gradientTransform="matrix(-1 0 0 -1 1032.9 620)">
		<stop  offset="0" style="stop-color:#377DFF"/>
		<stop  offset="0.3456" style="stop-color:#80ADFF"/>
		<stop  offset="0.7959" style="stop-color:#DBE8FF"/>
		<stop  offset="1" style="stop-color:#FFFFFF"/>
	</linearGradient>
	<path id="drop-shadow" class="st1" d="M579.5,596.8L34.4,282.1c-21.4-12.4-21.4-32.4,0-44.8L375.8,40.2c21.4-12.4,56.2-12.4,77.6,0
		l545.1,314.7c21.4,12.4,21.4,32.4,0,44.8L657.1,596.8C635.7,609.2,600.9,609.2,579.5,596.8z"/>
	<path id="body" class="st2" d="M44,220.5v29.6l0,0c0,7.8,5.1,15.6,15.4,21.5L583.3,574c20.6,11.9,54,11.9,74.6,0l328.2-189.4
		c10-5.8,15.1-13.3,15.4-20.9l0,0v-0.5c0-0.1,0-0.2,0-0.3v-29.4l-36.8-4.3L462.2,39.1c-20.6-11.9-54-11.9-74.6,0L68.4,223.4
		l-24.3-2.9H44z"/>
	<path id="frame" class="st3" d="M583.4,543.8L59.5,241.4c-20.6-11.9-20.6-31.2,0-43.1L387.6,8.9c20.6-11.9,54-11.9,74.6,0
		L986,311.3c20.6,11.9,20.6,31.2,0,43.1L657.9,543.8C637.3,555.7,603.9,555.7,583.4,543.8z"/>
	<g>
		<g>
			<defs>
				<path id="SVGID_1_" d="M536.2,494.4l-431.3-249c-5.1-3-5.1-7.8,0-10.8L449.8,35.5c5.1-3,13.5-3,18.6,0l431.3,249
					c5.1,3,5.1,7.8,0,10.8L554.8,494.4C549.7,497.4,541.3,497.4,536.2,494.4z"/>
			</defs>
			<clipPath id="SVGID_2_">
				<use xlink:href="#SVGID_1_"  style="overflow:visible;"/>
			</clipPath>
			<g transform="matrix(1 0 0 1 0 -1.525879e-05)" class="st4">
				
					<image style="overflow:visible;" width="425" height="457" xlink:href="../../img/425x457/img1.jpg"  transform="matrix(0.866 -0.5 1 0.5774 89.7696 239.2755)">
				</image>
			</g>
		</g>
		<g>
			<path id="screen" class="st5" d="M536.2,494.4l-431.3-249c-5.1-3-5.1-7.8,0-10.8L449.8,35.5c5.1-3,13.5-3,18.6,0l431.3,249
				c5.1,3,5.1,7.8,0,10.8L554.8,494.4C549.7,497.4,541.3,497.4,536.2,494.4z"/>
		</g>
	</g>
	<path id="speaker" class="st2" d="M238.6,126.5c-2.6-1.2-1.9-3.7,1.7-5.8L279,98.3c3.6-2.1,8.6-2.8,11.2-1.7
		c2.6,1.2,1.9,3.7-1.7,5.8l-38.7,22.4C246.3,126.9,241.2,127.6,238.6,126.5z"/>
	
		<ellipse id="touch-id" transform="matrix(0.121 -0.9927 0.9927 0.121 262.1362 1138.4471)" class="st2" cx="773.9" cy="421.2" rx="13.5" ry="23.9"/>
</g>
</svg>
