<?xml version="1.0" encoding="utf-8"?>
<!-- Generator: Adobe Illustrator 25.4.1, SVG Export Plug-In . SVG Version: 6.00 Build 0)  -->
<svg version="1.1" id="Layer_1" xmlns="http://www.w3.org/2000/svg" xmlns:xlink="http://www.w3.org/1999/xlink" x="0px" y="0px"
	 viewBox="0 0 1951 474.1" style="enable-background:new 0 0 1951 474.1;" xml:space="preserve">
<style type="text/css">
	.st0{fill:#FFFFFF;}
</style>
<g>
	<path class="st0" d="M376.5,225.3c-6-6.7-13.3-12.1-21.8-16c-8.5-4-17.9-5.9-28.1-5.9c-17.2,0-31.5,6.2-43,18.5V120.2H235v118.2
		c-2.6-4.7-5.5-9.2-9-13.1c-6-6.7-13.3-12.1-21.8-16c-8.5-4-17.9-5.9-28.1-5.9c-17.2,0-31.5,6.2-43,18.5V120.2H84.4v229.3h48.6
		v-15.8c10.4,13.4,24.6,20.2,42.5,20.2c9.9,0,19-2,27.6-5.9c8.5-4,15.9-9.3,22.2-16.2c3.8-4.1,6.9-8.8,9.7-13.9v31.5h48.7v-15.8
		c10.4,13.4,24.6,20.2,42.5,20.2c9.9,0,19-2,27.6-5.9c8.5-4,15.9-9.3,22.2-16.2c6.3-6.8,11.2-14.8,14.6-24
		c3.5-9.2,5.2-19.1,5.2-29.6c0-10.3-1.7-20-5.1-29.1C387.2,239.9,382.5,232,376.5,225.3z M191.8,291.2c-1.7,3.9-3.9,7.3-6.7,10.2
		c-2.8,2.9-6,5.2-9.8,6.9c-3.8,1.7-7.8,2.5-12.1,2.5c-4.3,0-8.4-0.9-12.2-2.6c-3.8-1.8-7.2-4.1-10.1-6.9c-2.9-2.9-5.1-6.2-6.7-10.1
		c-1.6-3.9-2.4-8-2.4-12.4c0-4.4,0.8-8.6,2.6-12.6c1.7-4,3.9-7.4,6.7-10.4c2.8-2.9,6-5.3,9.8-6.9c3.8-1.7,7.8-2.5,12.1-2.5
		c4.5,0,8.6,0.9,12.4,2.6c3.8,1.8,7.1,4.1,10,7c2.9,2.9,5.1,6.4,6.7,10.4c1.6,4,2.4,8.2,2.4,12.6
		C194.4,283.3,193.5,287.3,191.8,291.2z M342.4,291.2c-1.7,3.9-3.9,7.3-6.7,10.2c-2.8,2.9-6,5.2-9.8,6.9c-3.8,1.7-7.8,2.5-12.1,2.5
		c-4.3,0-8.4-0.9-12.2-2.6c-3.8-1.8-7.2-4.1-10.1-6.9c-2.9-2.9-5.1-6.2-6.7-10.1c-1.6-3.9-2.4-8-2.4-12.4c0-4.4,0.8-8.6,2.6-12.6
		c1.7-4,3.9-7.4,6.7-10.4c2.8-2.9,6-5.3,9.8-6.9c3.8-1.7,7.8-2.5,12.1-2.5c4.5,0,8.6,0.9,12.4,2.6c3.8,1.8,7.1,4.1,10,7
		c2.9,2.9,5.1,6.4,6.7,10.4c1.6,4,2.4,8.2,2.4,12.6C344.9,283.3,344.1,287.3,342.4,291.2z"/>
	<path d="M185.2,256.1c-2.9-2.9-6.2-5.3-10-7c-3.8-1.7-7.9-2.6-12.4-2.6c-4.3,0-8.3,0.8-12.1,2.5c-3.8,1.7-7,4-9.8,6.9
		c-2.8,2.9-5,6.4-6.7,10.4c-1.7,4-2.6,8.2-2.6,12.6c0,4.4,0.8,8.6,2.4,12.4c1.6,3.9,3.8,7.2,6.7,10.1c2.9,2.9,6.2,5.2,10.1,6.9
		c3.8,1.8,7.9,2.6,12.2,2.6c4.3,0,8.3-0.8,12.1-2.5c3.8-1.7,7-4,9.8-6.9c2.8-2.9,5-6.4,6.7-10.2c1.7-3.9,2.6-7.9,2.6-12.2
		c0-4.4-0.8-8.6-2.4-12.6C190.3,262.5,188.1,259.1,185.2,256.1z"/>
	<path d="M335.8,256.1c-2.9-2.9-6.2-5.3-10-7c-3.8-1.7-7.9-2.6-12.4-2.6c-4.3,0-8.3,0.8-12.1,2.5c-3.8,1.7-7,4-9.8,6.9
		c-2.8,2.9-5,6.4-6.7,10.4c-1.7,4-2.6,8.2-2.6,12.6c0,4.4,0.8,8.6,2.4,12.4c1.6,3.9,3.8,7.2,6.7,10.1c2.9,2.9,6.2,5.2,10.1,6.9
		c3.8,1.8,7.9,2.6,12.2,2.6c4.3,0,8.3-0.8,12.1-2.5c3.8-1.7,7-4,9.8-6.9c2.8-2.9,5-6.4,6.7-10.2c1.7-3.9,2.6-7.9,2.6-12.2
		c0-4.4-0.8-8.6-2.4-12.6C340.9,262.5,338.7,259.1,335.8,256.1z"/>
	<path d="M434.7,3.3H45.5C24,3.3,6.6,20.7,6.6,42.2v389.6c0,21.5,17.4,39,38.9,39h389.1c21.5,0,38.9-17.4,38.9-39V42.2
		C473.6,20.7,456.2,3.3,434.7,3.3z M390.5,307.8c-3.5,9.2-8.4,17.2-14.6,24c-6.3,6.8-13.7,12.2-22.2,16.2c-8.5,4-17.7,5.9-27.6,5.9
		c-17.9,0-32.1-6.7-42.5-20.2v15.8H235v-31.5c-2.8,5-5.9,9.7-9.7,13.9c-6.3,6.8-13.7,12.2-22.2,16.2c-8.5,4-17.7,5.9-27.6,5.9
		c-17.9,0-32.1-6.7-42.5-20.2v15.8H84.4V120.2h48.7v101.7c11.5-12.3,25.8-18.5,43-18.5c10.2,0,19.6,2,28.1,5.9
		c8.5,4,15.8,9.3,21.8,16c3.5,3.9,6.4,8.3,9,13.1V120.2h48.7v101.7c11.5-12.3,25.8-18.5,43-18.5c10.2,0,19.6,2,28.1,5.9
		c8.5,4,15.8,9.3,21.8,16c6,6.7,10.7,14.6,14.1,23.8c3.4,9.1,5.1,18.8,5.1,29.1C395.7,288.7,394,298.6,390.5,307.8z"/>
</g>
<path d="M615.8,334.6h-1.4l-4.2,18.6h-42.4V108.1h54V167l-1.1,26.3c13-11.6,28.8-18.6,44.9-18.6c42.1,0,68.4,34.7,68.4,88.4
	c0,60-35.4,94.3-72.9,94.3C645.2,357.3,629.5,349.6,615.8,334.6z M678.2,263.7c0-30.5-9.1-44.9-28.4-44.9c-10.2,0-18.6,4.6-28,14.7
	v69.1c8.8,7.7,17.9,10.2,26.3,10.2C664.9,312.8,678.2,299.1,678.2,263.7z"/>
<path d="M766.1,286.9v-108h54.3v101c0,24.2,6.3,31.2,20.3,31.2c12.3,0,19.6-4.9,29.1-17.9V178.9h54.4v174.3h-44.2l-3.9-23.8h-1.4
	c-14.4,17.2-30.9,28.1-54.3,28.1C782.2,357.3,766.1,330.3,766.1,286.9z"/>
<path d="M958.3,265.8c0-56.8,35.8-91.2,71.9-91.2c19.3,0,30.9,7,42.1,17.9l-1.8-25.9v-58.6h54.4v245.1h-44.5l-3.8-16.8h-1.1
	c-12.3,12.3-29.4,21-45.9,21C986.3,357.3,958.3,322.6,958.3,265.8z M1070.5,298.4V229c-8.4-7.4-18.6-10.2-27.3-10.2
	c-15.4,0-29.1,14-29.1,46.6c0,33.3,11.2,47.3,29.8,47.3C1054.4,312.8,1062.4,309.3,1070.5,298.4z"/>
<path d="M1163,126.3c0-16.8,12.6-27.7,30.5-27.7c17.9,0,30.5,10.9,30.5,27.7c0,17.2-12.6,28-30.5,28
	C1175.6,154.3,1163,143.5,1163,126.3z M1166.5,178.9h54v174.3h-54V178.9z"/>
<path d="M1310.1,334.6h-1.4l-4.2,18.6H1262V108.1h54V167l-1.1,26.3c13-11.6,28.8-18.6,44.9-18.6c42.1,0,68.4,34.7,68.4,88.4
	c0,60-35.4,94.3-72.9,94.3C1339.5,357.3,1323.7,349.6,1310.1,334.6z M1372.5,263.7c0-30.5-9.1-44.9-28.4-44.9
	c-10.2,0-18.6,4.6-28,14.7v69.1c8.8,7.7,17.9,10.2,26.3,10.2C1359.1,312.8,1372.5,299.1,1372.5,263.7z"/>
<path d="M1451.6,304.4c0-36.8,28.4-56.8,97.1-63.8c-1.4-14.4-8.8-22.8-26.7-22.8c-14,0-28.1,4.9-45.6,14.7l-18.9-35.1
	c22.8-14,47.7-22.8,75-22.8c44.9,0,70.1,24.9,70.1,79.6v98.9h-44.2l-3.9-17.5h-1.4c-14.4,13-30.2,21.7-49.8,21.7
	C1471.6,357.3,1451.6,333.5,1451.6,304.4z M1548.8,301.6v-27.7c-34.7,4.6-45.2,14-45.2,26.3c0,10.2,6.7,15.1,18.6,15.1
	C1533,315.3,1540.3,310,1548.8,301.6z"/>
<path d="M1627.7,331.1l22.8-30.5c16.1,12.6,31.9,16.8,45.6,16.8c14.7,0,20.7-5.3,20.7-13.7c0-10.5-14.7-15.1-33.3-22.1
	c-24.9-9.1-45.9-24.9-45.9-51.9c0-33,26.7-55,67.3-55c25.6,0,47.3,9.5,62.4,22.1l-23.1,30.5c-12.6-9.1-25.6-12.6-37.5-12.6
	c-12.6,0-18.6,4.9-18.6,12.6c0,9.1,9.8,13.3,31.9,20.3c26.7,8.4,47.7,24.2,47.7,52.9c0,31.9-25.2,56.8-72.6,56.8
	C1671.9,357.3,1645.3,348.2,1627.7,331.1z"/>
<path d="M1788,265.8c0-56.4,40.7-91.2,82.4-91.2c50.5,0,75,36.5,75,83.8c0,9.8-1.1,18.9-2.1,23.8h-102.7
	c4.9,23.5,21.4,33.7,43.5,33.7c12.6,0,25.2-3.9,37.5-10.9l17.5,32.6c-18.2,13-42.1,19.6-62.8,19.6C1826.5,357.3,1788,324,1788,265.8
	z M1899.1,245.8c0-17.2-7.7-30.2-27.3-30.2c-15.4,0-28.4,9.8-31.9,30.2H1899.1z"/>
<g>
</g>
<g>
</g>
<g>
</g>
<g>
</g>
<g>
</g>
<g>
</g>
<g>
</g>
<g>
</g>
<g>
</g>
<g>
</g>
<g>
</g>
<g>
</g>
<g>
</g>
<g>
</g>
<g>
</g>
<g>
</g>
</svg>
