<svg class="canvas" viewBox="0 0 1920 1080" preserveAspectRatio="xMaxYMid slice" xmlns="http://www.w3.org/2000/svg" version="1.1" xmlns:xlink="http://www.w3.org/1999/xlink" xmlns:svgjs="http://svgjs.dev/svgjs"><rect width="1920" height="1080" fill="#000000"></rect><defs><linearGradient x1="0.5" y1="0" x2="0" y2="1" id="SvgjsLinearGradient1027"><stop stop-color="#5c8dd6" offset="0"></stop><stop stop-color="#371f7a" offset="0.1"></stop></linearGradient><linearGradient x1="0.5" y1="0" x2="0" y2="1" id="SvgjsLinearGradient1028"><stop stop-color="#c0d4f2" offset="0"></stop><stop stop-color="#6942d7" offset="0.4"></stop></linearGradient><linearGradient x1="0.5" y1="0" x2="0" y2="1" id="SvgjsLinearGradient1029"><stop stop-color="#c0d4f2" offset="0"></stop><stop stop-color="#6942d7" offset="0.7"></stop></linearGradient></defs><path d="M0,174.8752240554153C40.516423376540295,198.08321898854473,163.22708580219697,271.190488991634,243.09854025924176,314.123193654192C322.9699947162866,357.05589831674996,396.7890762138065,395.69611049737455,479.22872674226875,432.47145203076315C561.6683772707311,469.24679356415174,662.3661967004705,494.65818523406324,737.7364434300155,534.7752428545235C813.1066901595605,574.8923004749838,854.4670220602579,634.1467136032701,931.4502071195384,673.173797753525C1008.4333921788188,712.20088190378,1118.3751898064704,728.3115159656046,1199.635553785698,768.937747756053C1280.8959177649256,809.5639795465014,1342.493221669564,878.817416778423,1419.0123909949039,916.9311884962152C1495.5315603202437,955.0449602140075,1575.2526349035538,964.1142415520804,1658.7505697377364,997.6203780628063C1742.248504571919,1031.126514573532,1876.4584282896228,1097.9100693109426,1920,1117.96800756057L 1920 1080 L 0 1080 Z" fill="url(&quot;#SvgjsLinearGradient1027&quot;)"></path><path d="M0,444.11469892307105C59.07416010950853,463.9651265877971,228.25083520560378,520.822761921144,354.4449606570512,563.2172649114275C480.6390861084986,605.611767901711,617.0622205130339,650.9790897740274,757.1647527086845,698.4817168647719C897.2672849043352,745.9843439555164,1063.3028795907867,800.3265529847056,1195.0601538309545,848.2330274558941C1326.8174280711223,896.1395019270826,1426.8850904548508,946.2633091690234,1547.7083981496917,985.9205636919033C1668.5317058445326,1025.5778182147833,1857.9513996916153,1069.4672227762958,1920,1086.1765545931742L 1920 1080 L 0 1080 Z" fill="url(&quot;#SvgjsLinearGradient1028&quot;)"></path><path d="M0,811.8268011193437C83.12713192012342,819.5510395730696,344.3608043530528,827.8494890326172,498.7627915207405,858.1722318416992C653.1647786884282,888.4949746507812,765.8086662637966,961.5565822884685,926.411923006126,993.7632579738361C1087.0151797484555,1025.9699336592037,1296.784319142405,1024.8965407904782,1462.3823319747173,1051.4122859539048C1627.9803448070297,1077.9280311173313,1843.730388662453,1135.95015512098,1920,1152.8577289543953L 1920 1080 L 0 1080 Z" fill="url(&quot;#SvgjsLinearGradient1029&quot;)"></path></svg>