<svg class="canvas" viewBox="0 0 1920 1080" preserveAspectRatio="xMaxYMid slice" xmlns="http://www.w3.org/2000/svg" version="1.1" xmlns:xlink="http://www.w3.org/1999/xlink" xmlns:svgjs="http://svgjs.dev/svgjs"><rect width="1920" height="1080" fill="hsl(224, 65%, 15%)"></rect><defs><linearGradient x1="0.5" y1="0" x2="0" y2="1.5" id="SvgjsLinearGradient1004"><stop stop-color="#4269d7" offset="0"></stop><stop stop-color="#371669" offset="0.1"></stop></linearGradient><linearGradient x1="0.5" y1="0" x2="0" y2="1" id="SvgjsLinearGradient1005"><stop stop-color="#c0cdf2" offset="0"></stop><stop stop-color="#7d42d7" offset="0.55"></stop></linearGradient></defs><path d="M0,254.70835457830674C38.31745411097552,260.97409855286617,131.2309794792227,290.2847012812578,229.9047246658531,292.30281842566336C328.5784698524835,294.3209355700689,497.3514212240946,261.77579067661657,592.0424711197825,266.81705744474016C686.7335210154703,271.85832421286375,716.5662804139935,318.58228400696885,798.0510240399801,322.55041903440485C879.5357676659668,326.51855406184086,976.1278063705752,290.8691818407183,1080.9509328757024,290.62586760935625C1185.7740593808296,290.3825533779942,1341.910155516891,308.4335165204699,1426.9897830707432,321.09053364623253C1512.0694106245953,333.7475507719952,1509.2603287106058,353.6447387706779,1591.4286981988153,366.5679703639321C1673.5970676870247,379.49120195718626,1865.2381163664693,393.2862643987868,1920,398.62992320575773L 1920 1080 L 0 1080 Z" fill="url(&quot;#SvgjsLinearGradient1004&quot;)"></path><path d="M0,636.0421217193004C35.62624753172821,628.0177664379286,130.06365051994908,602.1692157049138,213.75748519036927,587.8959900310691C297.45131986078945,573.6227643572245,411.98738903436316,566.9433676961868,502.1630080225211,550.4027676762329C592.3386270106791,533.862167656279,681.9258470186905,506.6711017248269,754.8111991193172,488.65238991134555C827.6965512199438,470.6336780978642,864.2468452242637,452.5259047807779,939.4751206262811,442.2904967953448C1014.7033960282985,432.05508880991164,1129.2132187771724,440.3910682755137,1206.1808515314217,427.2399419987468C1283.148484285671,414.0888157219799,1320.0709785530044,377.38917252529814,1401.2809171517772,363.3837391347434C1482.49085575055,349.37830574418865,1606.9873026493547,349.1041471723713,1693.4404831240583,343.2073416554184C1779.893663598762,337.3105361384655,1882.2400805206764,330.536978636758,1920,328.0029060330259L 1920 1080 L 0 1080 Z" fill="url(&quot;#SvgjsLinearGradient1005&quot;)"></path></svg>