<svg class="canvas" viewBox="0 0 1920 1080" preserveAspectRatio="xMaxYMid slice" xmlns="http://www.w3.org/2000/svg" version="1.1" xmlns:xlink="http://www.w3.org/1999/xlink" xmlns:svgjs="http://svgjs.dev/svgjs"><rect width="1920" height="1080" fill="hsl(255, 65%, 15%)"></rect><defs><linearGradient x1="0.5" y1="0" x2="0" y2="1" id="SvgjsLinearGradient1000"><stop stop-color="#41288a" offset="0"></stop><stop stop-color="#140610" offset="0.1"></stop></linearGradient><linearGradient x1="0.5" y1="0" x2="0" y2="1" id="SvgjsLinearGradient1001"><stop stop-color="#41288a" offset="0"></stop><stop stop-color="#140610" offset="0.28"></stop></linearGradient><linearGradient x1="0.5" y1="0" x2="0" y2="1" id="SvgjsLinearGradient1002"><stop stop-color="#41288a" offset="0"></stop><stop stop-color="#140610" offset="0.4600000000000001"></stop></linearGradient><linearGradient x1="0.5" y1="0" x2="0" y2="1" id="SvgjsLinearGradient1003"><stop stop-color="#54288a" offset="0"></stop><stop stop-color="#14060d" offset="0.64"></stop></linearGradient><linearGradient x1="0.5" y1="0" x2="0" y2="1" id="SvgjsLinearGradient1004"><stop stop-color="#41288a" offset="0"></stop><stop stop-color="#140610" offset="0.8200000000000001"></stop></linearGradient></defs><path d="M0,-499.12984630164965C53.44618912150637,-476.397496443945,215.8316625838126,-389.08301494745655,320.67713472903824,-362.73574715542173C425.5226068742639,-336.3884793633869,516.213157066509,-366.5078467852944,629.072832871354,-341.0462395494408C741.932508676199,-315.58463231358724,883.5232844080757,-243.0755658069656,997.8351895581079,-209.96610374030018C1112.14709470814,-176.85664167363475,1218.4924629135796,-176.8760554478911,1314.944263771547,-142.3894671494482C1411.3960646295143,-107.90287885100528,1475.7033720011702,-33.5898440909425,1576.5459947059123,-3.0465739496427418C1677.3886174106544,27.496696191657016,1862.7576657843188,33.550699090351486,1920,40.870153698350336L 1920 1080 L 0 1080 Z" fill="url(&quot;#SvgjsLinearGradient1000&quot;)"></path><path d="M0,-384.5678313355522C39.3355111468332,-366.44230579996497,157.67247177027144,-302.7120614167729,236.0130668809992,-275.81467812202885C314.35366199172694,-248.9172948272848,387.66264490761245,-233.21379201629233,470.0435706643666,-223.18353156708793C552.4244964211207,-213.15327111788352,650.7134455537711,-233.24644177674728,730.2986214215241,-215.63311542680236C809.8837972892771,-198.01978907685745,865.2511526908825,-148.2613080967205,947.5546258708848,-117.50357346741845C1029.8580990508872,-86.74583883811638,1140.3391241648346,-48.70192722917741,1224.1194605015382,-31.08670765099C1307.8997968382419,-13.471488072802593,1377.1458994399513,-42.20003504024055,1450.236643891106,-11.812255998294013C1523.3273883422607,18.575523043652527,1584.3700345236512,120.03256249023227,1662.663927208467,151.23996660068923C1740.9578198932827,182.4473707111462,1877.1106545347445,171.40013498715467,1920,175.43216866444774L 1920 1080 L 0 1080 Z" fill="url(&quot;#SvgjsLinearGradient1001&quot;)"></path><path d="M0,-154.08750775448146C51.976672514876064,-130.91652514221084,210.56890898425422,-48.94395539581094,311.86003508925637,-15.061612080857799C413.1511611942585,18.82073123409534,501.95328964801547,22.39052414413469,607.746756630013,49.20655213523737C713.5402236120105,76.02258012634005,837.2831183581861,113.08334685950499,946.6208369812415,145.83455586575826C1055.9585556042969,178.58576487201154,1159.2135534360611,213.56833607802417,1263.7730683683453,245.71380617275702C1368.3325833006295,277.85927626748986,1464.606771303004,308.67426208869506,1573.9779265749464,338.7073764341553C1683.3490818468888,368.7404907796156,1862.3296544291577,411.378306276958,1920,425.91249224551854L 1920 1080 L 0 1080 Z" fill="url(&quot;#SvgjsLinearGradient1002&quot;)"></path><path d="M0,-35.87270359361503C43.67853327184391,-22.077410434438235,169.49603163572476,15.79579391855825,262.07119963106345,46.89905536144573C354.64636762640214,78.00231680433322,464.40241345322283,126.42599621175874,555.4510079720321,150.74686506370986C646.4996024908414,175.067733915661,721.2648562712972,167.97730295768105,808.3627667439191,192.82426847315244C895.4606772165411,217.67123398862384,980.0770109437648,269.5215928992863,1078.0384708077638,299.8286581565383C1175.9999306717627,330.13572341379034,1301.529445555535,342.77446217798337,1396.1315259279131,374.66666001666454C1490.7336063002913,406.5588578553457,1558.3395406966854,459.6050724570053,1645.6509530420333,491.18184518862535C1732.9623653873812,522.7586179202455,1874.275158840339,551.969721203425,1920,564.127296406385L 1920 1080 L 0 1080 Z" fill="url(&quot;#SvgjsLinearGradient1003&quot;)"></path><path d="M0,171.13222035349207C56.73106964719361,199.393901325351,220.00815152289846,305.2925381699998,340.38641788316164,340.70230618464564C460.7646842434248,376.1120741992915,580.1702697805488,344.2657773914284,722.269598161579,383.5908284413672C864.3689265426092,422.915879491306,1056.3601740310212,536.5052448604697,1192.9823881693428,576.6526124842785C1329.6046023076644,616.7999801080873,1420.8332810197326,588.7284328726845,1542.0028829915088,624.4750341842201C1663.1724849632851,660.2216354957558,1857.0004804985847,763.3560226586135,1920,791.1322203534921L 1920 1080 L 0 1080 Z" fill="url(&quot;#SvgjsLinearGradient1004&quot;)"></path></svg>