<svg class="canvas" viewBox="0 0 1920 1080" preserveAspectRatio="xMaxYMid slice" xmlns="http://www.w3.org/2000/svg" version="1.1" xmlns:xlink="http://www.w3.org/1999/xlink" xmlns:svgjs="http://svgjs.dev/svgjs"><rect width="1920" height="1080" fill="hsl(213, 65%, 15%)"></rect><defs><linearGradient x1="0.4" y1="0" x2="0" y2="1" id="SvgjsLinearGradient1152"><stop stop-color="#28548a" offset="0"></stop><stop stop-color="#0d0614" offset="0.1"></stop></linearGradient><linearGradient x1="0.4" y1="0" x2="0" y2="1" id="SvgjsLinearGradient1153"><stop stop-color="#28418a" offset="0"></stop><stop stop-color="#100614" offset="0.325"></stop></linearGradient><linearGradient x1="0.4" y1="0" x2="0" y2="1" id="SvgjsLinearGradient1154"><stop stop-color="#284b8a" offset="0"></stop><stop stop-color="#0f0614" offset="0.55"></stop></linearGradient><linearGradient x1="0.4" y1="0" x2="0" y2="1" id="SvgjsLinearGradient1155"><stop stop-color="#284b8a" offset="0"></stop><stop stop-color="#0f0614" offset="0.775"></stop></linearGradient></defs><path d="M0,-559.7561114993416C73.91739848023333,-529.2566358907857,285.0429079965304,-424.58674264833434,443.50439088139996,-376.75925784800586C601.9658737662695,-328.9317730476774,789.3427193182788,-314.11779557975035,950.7688973092176,-272.79120269737064C1112.1950753001563,-231.46460981499092,1250.5229417119024,-170.972215753399,1412.0614588270328,-128.79970055372752C1573.5999759421632,-86.62718535405602,1835.3435764711721,-37.930043008405974,1920,-19.756111499341667L 1920 1080 L 0 1080 Z" fill="url(&quot;#SvgjsLinearGradient1152&quot;)"></path><path d="M0,-351.7648976385357C57.8522381335382,-337.90479796600005,244.0196510800061,-294.47089969712687,347.1134288012292,-268.60429960332203C450.2072065224523,-242.73769950951717,514.8083765798937,-227.03220189766193,618.5626663273384,-196.56529707570652C722.3169560747832,-166.09839225375111,862.021382538468,-126.86636195434039,969.6391672858979,-85.80287067158955C1077.256952033328,-44.73937938883869,1157.6366155012668,19.604984346377442,1264.2693748119182,49.815650620798586C1370.9021341225696,80.02631689521974,1500.1472856184596,68.22455168482635,1609.4357231498066,95.46112697493732C1718.7241606811535,122.69770226504828,1868.2392871916345,193.60610646370984,1920,213.23510236146433L 1920 1080 L 0 1080 Z" fill="url(&quot;#SvgjsLinearGradient1153&quot;)"></path><path d="M0,-54.77733449803192C48.660128338124316,-46.756294562047955,197.9005234332334,-32.181447343448966,291.9607700287459,-6.651094882128149C386.02101662425844,18.879257579192664,481.95313526531567,61.52875684019293,564.3614795730753,98.40478026989297C646.7698238808349,135.280803699593,701.9330312109163,180.96031770914516,786.4108358753035,214.60504569607207C870.8886405396908,248.24977368299898,967.6372181596306,270.16811918602946,1071.2283075593987,300.2731481914545C1174.8193969591669,330.3781771968795,1309.93166835781,372.5190044332969,1407.9573722739121,395.23521972862204C1505.9830761900143,417.95143502394717,1574.0420931016633,413.23919900118074,1659.3825310560114,436.5704399634051C1744.7229690103595,459.9016809256294,1876.563755176002,518.7806279122076,1920,535.2226655019681L 1920 1080 L 0 1080 Z" fill="url(&quot;#SvgjsLinearGradient1154&quot;)"></path><path d="M0,117.70396805954957C41.16798199224865,124.72165354679036,162.31783331261522,139.60440449425687,247.00789195349188,159.81008098299432C331.69795059436854,180.01575747173177,426.40094762339334,201.6415034425735,508.14035184526,238.9380269919742C589.8797560671267,276.2345505413749,663.4549967538557,356.1150275173585,737.4443172846917,383.5892222793985C811.4336378155277,411.06341704143847,869.3572823648681,379.38551211463175,952.0762750302763,403.7831955642142C1034.7952676956845,428.1808790137967,1152.6552381420274,495.27557257957136,1233.7582732771411,529.9753229768932C1314.8613084122549,564.6750733742149,1358.9179901337798,593.172409872771,1438.6944858409584,611.981697948145C1518.470981548137,630.7909860235189,1632.1996618270389,622.710673077236,1712.4172475202124,642.8310514291368C1792.634833213386,662.9514297810375,1885.4028745867022,717.7251486211474,1920,732.7039680595495L 1920 1080 L 0 1080 Z" fill="url(&quot;#SvgjsLinearGradient1155&quot;)"></path></svg>